<?xml version="1.0" encoding="UTF-8" standalone="no"?>
<!-- Created with Inkscape (http://www.inkscape.org/) -->

<svg
   xmlns:dc="http://purl.org/dc/elements/1.1/"
   xmlns:cc="http://creativecommons.org/ns#"
   xmlns:rdf="http://www.w3.org/1999/02/22-rdf-syntax-ns#"
   xmlns:svg="http://www.w3.org/2000/svg"
   xmlns="http://www.w3.org/2000/svg"
   xmlns:sodipodi="http://sodipodi.sourceforge.net/DTD/sodipodi-0.dtd"
   xmlns:inkscape="http://www.inkscape.org/namespaces/inkscape"
   width="130mm"
   height="130mm"
   viewBox="0 0 130 130"
   version="1.1"
   id="svg2907"
   inkscape:version="0.92.4 (f8dce91, 2019-08-02)"
   sodipodi:docname="3.svg"
   inkscape:export-filename="/home/giulia/youtube.tracking.exposed/static/images/social/3.png"
   inkscape:export-xdpi="72"
   inkscape:export-ydpi="72">
  <defs
     id="defs2901" />
  <sodipodi:namedview
     id="base"
     pagecolor="#ffffff"
     bordercolor="#666666"
     borderopacity="1.0"
     inkscape:pageopacity="0.0"
     inkscape:pageshadow="2"
     inkscape:zoom="18.276972"
     inkscape:cx="248.2458"
     inkscape:cy="81.591186"
     inkscape:document-units="mm"
     inkscape:current-layer="layer1"
     showgrid="false"
     showguides="true"
     inkscape:guide-bbox="true"
     inkscape:window-width="1920"
     inkscape:window-height="1025"
     inkscape:window-x="0"
     inkscape:window-y="27"
     inkscape:window-maximized="1">
    <sodipodi:guide
       position="-75.141665,94.720831"
       orientation="1,0"
       id="guide3905"
       inkscape:locked="false" />
  </sodipodi:namedview>
  <metadata
     id="metadata2904">
    <rdf:RDF>
      <cc:Work
         rdf:about="">
        <dc:format>image/svg+xml</dc:format>
        <dc:type
           rdf:resource="http://purl.org/dc/dcmitype/StillImage" />
        <dc:title />
      </cc:Work>
    </rdf:RDF>
  </metadata>
  <g
     inkscape:label="Layer 1"
     inkscape:groupmode="layer"
     id="layer1"
     transform="translate(-27.970238,-29.392857)">
    <g
       aria-label="WETEST 25.03.2020 "
       transform="matrix(0.34852914,0,0,0.34852914,-28.107497,36.531871)"
       style="font-style:normal;font-weight:normal;font-size:40px;line-height:1.25;font-family:sans-serif;letter-spacing:0px;word-spacing:0px;fill:#d9230f;fill-opacity:0.85098039;stroke:none"
       id="flowRoot973">
      <path
         inkscape:connector-curvature="0"
         d="m 192.63609,50.855234 h 5.8 l 5.16,-28 h -5.4 l -3.24,18.96 -3.32,-14.96 h -5.2 l -3.32,14.96 -3.24,-18.96 h -5.4 l 5.16,28 h 5.8 l 3.6,-16.24 z"
         style="font-style:normal;font-variant:normal;font-weight:bold;font-stretch:normal;font-family:'Simplon Norm';-inkscape-font-specification:'Simplon Norm Bold';fill:#d9230f;fill-opacity:0.85098039"
         id="path1227" />
      <path
         inkscape:connector-curvature="0"
         d="m 212.03422,28.175234 h 11.68 v -5.32 h -17.04 v 28 h 17.04 v -5.32 h -11.68 v -6.16 h 11.68 v -5.32 h -11.68 z"
         style="font-style:normal;font-variant:normal;font-weight:bold;font-stretch:normal;font-family:'Simplon Norm';-inkscape-font-specification:'Simplon Norm Bold';fill:#d9230f;fill-opacity:0.85098039"
         id="path1229" />
      <path
         inkscape:connector-curvature="0"
         d="m 246.71672,28.175234 v -5.32 h -21.12 v 5.32 h 7.8 v 22.68 h 5.52 v -22.68 z"
         style="font-style:normal;font-variant:normal;font-weight:bold;font-stretch:normal;font-family:'Simplon Norm';-inkscape-font-specification:'Simplon Norm Bold';fill:#d9230f;fill-opacity:0.85098039"
         id="path1231" />
      <path
         inkscape:connector-curvature="0"
         d="m 254.61234,28.175234 h 11.68 v -5.32 h -17.04 v 28 h 17.04 v -5.32 h -11.68 v -6.16 h 11.68 v -5.32 h -11.68 z"
         style="font-style:normal;font-variant:normal;font-weight:bold;font-stretch:normal;font-family:'Simplon Norm';-inkscape-font-specification:'Simplon Norm Bold';fill:#d9230f;fill-opacity:0.85098039"
         id="path1233" />
      <path
         inkscape:connector-curvature="0"
         d="m 279.41484,51.255234 c 6.08,0 9.36,-3.08 9.36,-8.12 0,-4.72 -2.32,-7.36 -6.64,-8.52 l -4.56,-1.24 c -1.52,-0.4 -2.8,-1.12 -2.8,-2.76 0,-1.96 1.6,-2.84 3.84,-2.84 1.8,0 3.76,0.84 4.24,2.72 h 5.52 c -0.6,-4.76 -4.08,-8.04 -9.68,-8.04 -4.88,0 -9.28,2.56 -9.28,8.16 0,4.12 2.12,7.12 6.4,8.28 l 4.72,1.28 c 1.96,0.52 2.88,1.4 2.88,2.96 0,1.92 -1.64,2.8 -4,2.8 -2.68,0 -4.52,-1.56 -4.84,-3.92 h -5.52 c 0.28,5.56 4.24,9.24 10.36,9.24 z"
         style="font-style:normal;font-variant:normal;font-weight:bold;font-stretch:normal;font-family:'Simplon Norm';-inkscape-font-specification:'Simplon Norm Bold';fill:#d9230f;fill-opacity:0.85098039"
         id="path1235" />
      <path
         inkscape:connector-curvature="0"
         d="m 310.93547,28.175234 v -5.32 h -21.12 v 5.32 h 7.8 v 22.68 h 5.52 v -22.68 z"
         style="font-style:normal;font-variant:normal;font-weight:bold;font-stretch:normal;font-family:'Simplon Norm';-inkscape-font-specification:'Simplon Norm Bold';fill:#d9230f;fill-opacity:0.85098039"
         id="path1237" />
      <path
         inkscape:connector-curvature="0"
         d="m 325.90859,31.655234 v -0.4 c 0,-2.44 1.44,-4.04 3.96,-4.04 2.52,0 3.92,1.6 3.92,3.64 0,1.64 -0.88,3.32 -2.6,4.96 l -10.56,10.28 v 4.76 h 18.4 v -4.76 h -10.92 l 6.52,-6.36 c 2.76,-2.68 4.4,-5.28 4.4,-8.96 0,-4.88 -3.52,-8.32 -9.16,-8.32 -5.8,0 -9.08,3.6 -9.24,9.12 v 0.08 z"
         style="font-style:normal;font-variant:normal;font-weight:bold;font-stretch:normal;font-family:'Simplon Norm';-inkscape-font-specification:'Simplon Norm Bold';fill:#d9230f;fill-opacity:0.85098039"
         id="path1239" />
      <path
         inkscape:connector-curvature="0"
         d="m 348.15859,39.455234 c 0.56,-1.4 1.8,-2.16 3.56,-2.16 2.52,0 3.92,1.6 3.92,4.04 v 1.52 c 0,2.12 -1.28,3.64 -3.92,3.64 -2.28,0 -3.8,-1.48 -3.96,-3.6 v -0.04 h -5.24 v 0.04 c 0.4,5.08 3.36,8.36 9.44,8.36 5.24,0 8.96,-3 8.96,-7.96 v -1.28 c 0,-5.72 -3.16,-9.48 -8.8,-9.48 -1.52,0 -3.2,0.44 -3.96,0.92 v -5.84 h 11.68 v -4.76 h -16.96 v 16.6 z"
         style="font-style:normal;font-variant:normal;font-weight:bold;font-stretch:normal;font-family:'Simplon Norm';-inkscape-font-specification:'Simplon Norm Bold';fill:#d9230f;fill-opacity:0.85098039"
         id="path1241" />
      <path
         inkscape:connector-curvature="0"
         d="m 364.84297,50.855234 h 6.4 v -6.4 h -6.4 z"
         style="font-style:normal;font-variant:normal;font-weight:bold;font-stretch:normal;font-family:'Simplon Norm';-inkscape-font-specification:'Simplon Norm Bold';fill:#d9230f;fill-opacity:0.85098039"
         id="path1243" />
      <path
         inkscape:connector-curvature="0"
         d="m 376.03422,41.775234 c 0,5.72 3.28,9.48 9.2,9.48 5.92,0 9.2,-3.76 9.2,-9.48 v -9.84 c 0,-5.72 -3.28,-9.48 -9.2,-9.48 -5.92,0 -9.2,3.76 -9.2,9.48 z m 13.12,0.68 c 0,2.44 -1.4,4.04 -3.92,4.04 -2.52,0 -3.92,-1.6 -3.92,-4.04 v -11.2 c 0,-2.44 1.4,-4.04 3.92,-4.04 2.52,0 3.92,1.6 3.92,4.04 z"
         style="font-style:normal;font-variant:normal;font-weight:bold;font-stretch:normal;font-family:'Simplon Norm';-inkscape-font-specification:'Simplon Norm Bold';fill:#d9230f;fill-opacity:0.85098039"
         id="path1245" />
      <path
         inkscape:connector-curvature="0"
         d="m 410.81797,43.015234 c 0,2.2 -1.48,3.48 -3.76,3.48 -2.36,0 -3.96,-1.44 -4.12,-3.6 v -0.04 h -5.24 v 0.04 c 0.4,5.08 3.76,8.36 9.32,8.36 5.64,0 9.08,-3 9.08,-7.96 0,-2.2 -1.12,-5.16 -2.96,-6.32 2.04,-1.44 2.96,-3.84 2.96,-5.92 0,-4.8 -3.44,-8.6 -9.2,-8.6 -5.56,0 -8.8,3.28 -9.2,8.36 v 0.04 h 5.24 v -0.04 c 0.16,-2.16 1.6,-3.6 3.96,-3.6 2.52,0 3.92,1.6 3.92,4.04 0,2.08 -1.56,3.28 -4.12,3.28 h -2.32 v 4.76 h 2.32 c 2.44,0 4.12,1.44 4.12,3.72 z"
         style="font-style:normal;font-variant:normal;font-weight:bold;font-stretch:normal;font-family:'Simplon Norm';-inkscape-font-specification:'Simplon Norm Bold';fill:#d9230f;fill-opacity:0.85098039"
         id="path1247" />
      <path
         inkscape:connector-curvature="0"
         d="m 420.70234,50.855234 h 6.4 v -6.4 h -6.4 z"
         style="font-style:normal;font-variant:normal;font-weight:bold;font-stretch:normal;font-family:'Simplon Norm';-inkscape-font-specification:'Simplon Norm Bold';fill:#d9230f;fill-opacity:0.85098039"
         id="path1249" />
      <path
         inkscape:connector-curvature="0"
         d="m 436.53359,31.655234 v -0.4 c 0,-2.44 1.44,-4.04 3.96,-4.04 2.52,0 3.92,1.6 3.92,3.64 0,1.64 -0.88,3.32 -2.6,4.96 l -10.56,10.28 v 4.76 h 18.4 v -4.76 h -10.92 l 6.52,-6.36 c 2.76,-2.68 4.4,-5.28 4.4,-8.96 0,-4.88 -3.52,-8.32 -9.16,-8.32 -5.8,0 -9.08,3.6 -9.24,9.12 v 0.08 z"
         style="font-style:normal;font-variant:normal;font-weight:bold;font-stretch:normal;font-family:'Simplon Norm';-inkscape-font-specification:'Simplon Norm Bold';fill:#d9230f;fill-opacity:0.85098039"
         id="path1251" />
      <path
         inkscape:connector-curvature="0"
         d="m 453.14359,41.775234 c 0,5.72 3.28,9.48 9.2,9.48 5.92,0 9.2,-3.76 9.2,-9.48 v -9.84 c 0,-5.72 -3.28,-9.48 -9.2,-9.48 -5.92,0 -9.2,3.76 -9.2,9.48 z m 13.12,0.68 c 0,2.44 -1.4,4.04 -3.92,4.04 -2.52,0 -3.92,-1.6 -3.92,-4.04 v -11.2 c 0,-2.44 1.4,-4.04 3.92,-4.04 2.52,0 3.92,1.6 3.92,4.04 z"
         style="font-style:normal;font-variant:normal;font-weight:bold;font-stretch:normal;font-family:'Simplon Norm';-inkscape-font-specification:'Simplon Norm Bold';fill:#d9230f;fill-opacity:0.85098039"
         id="path1253" />
      <path
         inkscape:connector-curvature="0"
         d="m 480.12734,31.655234 v -0.4 c 0,-2.44 1.44,-4.04 3.96,-4.04 2.52,0 3.92,1.6 3.92,3.64 0,1.64 -0.88,3.32 -2.6,4.96 l -10.56,10.28 v 4.76 h 18.4 v -4.76 h -10.92 l 6.52,-6.36 c 2.76,-2.68 4.4,-5.28 4.4,-8.96 0,-4.88 -3.52,-8.32 -9.16,-8.32 -5.8,0 -9.08,3.6 -9.24,9.12 v 0.08 z"
         style="font-style:normal;font-variant:normal;font-weight:bold;font-stretch:normal;font-family:'Simplon Norm';-inkscape-font-specification:'Simplon Norm Bold';fill:#d9230f;fill-opacity:0.85098039"
         id="path1255" />
      <path
         inkscape:connector-curvature="0"
         d="m 496.73734,41.775234 c 0,5.72 3.28,9.48 9.2,9.48 5.92,0 9.2,-3.76 9.2,-9.48 v -9.84 c 0,-5.72 -3.28,-9.48 -9.2,-9.48 -5.92,0 -9.2,3.76 -9.2,9.48 z m 13.12,0.68 c 0,2.44 -1.4,4.04 -3.92,4.04 -2.52,0 -3.92,-1.6 -3.92,-4.04 v -11.2 c 0,-2.44 1.4,-4.04 3.92,-4.04 2.52,0 3.92,1.6 3.92,4.04 z"
         style="font-style:normal;font-variant:normal;font-weight:bold;font-stretch:normal;font-family:'Simplon Norm';-inkscape-font-specification:'Simplon Norm Bold';fill:#d9230f;fill-opacity:0.85098039"
         id="path1257" />
    </g>
    <g
       aria-label="youtube.tracking.exposed"
       transform="matrix(0.29849443,0,0,0.29849443,17.812782,-27.023634)"
       style="font-style:normal;font-weight:normal;font-size:40px;line-height:1.25;font-family:sans-serif;letter-spacing:0px;word-spacing:0px;fill:#000000;fill-opacity:1;stroke:none"
       id="flowRoot815-3">
      <path
         d="m 63.88863,216.58636 h -2.169568 l -4.013701,11.36312 -4.0137,-11.36312 h -2.169568 l 5.125604,14.21067 -0.732229,2.00686 c -0.162718,0.48815 -0.352555,0.81358 -1.220382,0.81358 h -1.030545 v 1.95261 h 0.786468 c 1.762774,-0.0271 2.71196,-0.35255 3.091635,-1.43733 z"
         style="font-style:normal;font-variant:normal;font-weight:normal;font-stretch:normal;font-size:27.1196003px;line-height:0;font-family:'Simplon Norm';-inkscape-font-specification:'Simplon Norm';letter-spacing:4.27492952px"
         id="path877-9"
         inkscape:connector-curvature="0" />
      <path
         d="m 78.870294,225.40023 c 0,2.33229 -1.627176,3.49843 -3.444189,3.49843 -1.817014,0 -3.44419,-1.16614 -3.44419,-3.49843 v -3.7425 c 0,-2.33229 1.627176,-3.49843 3.44419,-3.49843 1.817013,0 3.444189,1.16614 3.444189,3.49843 z m 2.03397,-3.71538 c 0,-4.12218 -2.874678,-5.47816 -5.478159,-5.47816 -2.603482,0 -5.47816,1.35598 -5.47816,5.47816 v 3.68826 c 0,4.12218 2.874678,5.47816 5.47816,5.47816 2.603481,0 5.478159,-1.35598 5.478159,-5.47816 z"
         style="font-style:normal;font-variant:normal;font-weight:normal;font-stretch:normal;font-size:27.1196003px;line-height:0;font-family:'Simplon Norm';-inkscape-font-specification:'Simplon Norm';letter-spacing:4.27492952px"
         id="path879"
         inkscape:connector-curvature="0" />
      <path
         d="m 94.057896,230.85127 c 1.193263,0 2.657721,-0.59663 3.362831,-1.70853 v 1.43734 h 2.03397 v -13.99372 h -2.03397 v 8.81387 c 0,2.30517 -1.654296,3.49843 -3.362831,3.49843 -1.654295,0 -3.36283,-1.08478 -3.36283,-3.57978 v -8.73252 h -2.03397 v 8.86811 c 0,4.1493 3.091634,5.3968 5.3968,5.3968 z"
         style="font-style:normal;font-variant:normal;font-weight:normal;font-stretch:normal;font-size:27.1196003px;line-height:0;font-family:'Simplon Norm';-inkscape-font-specification:'Simplon Norm';letter-spacing:4.27492952px"
         id="path881"
         inkscape:connector-curvature="0" />
      <path
         d="m 110.48283,218.53898 h 3.44419 v -1.95262 h -3.44419 v -3.17299 h -2.03397 v 3.17299 h -1.97973 v 1.95262 h 1.97973 v 8.70539 c 0,2.38652 0.73223,3.33571 3.33571,3.33571 h 2.14245 v -1.95261 h -2.14245 c -0.97631,0 -1.30174,-0.32544 -1.30174,-1.22039 z"
         style="font-style:normal;font-variant:normal;font-weight:normal;font-stretch:normal;font-size:27.1196003px;line-height:0;font-family:'Simplon Norm';-inkscape-font-specification:'Simplon Norm';letter-spacing:4.27492952px"
         id="path883"
         inkscape:connector-curvature="0" />
      <path
         d="m 126.54928,230.85127 c 1.19326,0 2.65772,-0.59663 3.36283,-1.70853 v 1.43734 h 2.03397 v -13.99372 h -2.03397 v 8.81387 c 0,2.30517 -1.6543,3.49843 -3.36283,3.49843 -1.6543,0 -3.36284,-1.08478 -3.36284,-3.57978 v -8.73252 h -2.03397 v 8.86811 c 0,4.1493 3.09164,5.3968 5.39681,5.3968 z"
         style="font-style:normal;font-variant:normal;font-weight:normal;font-stretch:normal;font-size:27.1196003px;line-height:0;font-family:'Simplon Norm';-inkscape-font-specification:'Simplon Norm';letter-spacing:4.27492952px"
         id="path885"
         inkscape:connector-curvature="0" />
      <path
         d="m 145.76753,230.85127 c 2.60348,0 5.47816,-1.35598 5.47816,-5.47816 v -3.68826 c 0,-4.12218 -2.87468,-5.47816 -5.47816,-5.47816 -1.27462,0 -2.73908,0.56951 -3.44419,1.70853 v -6.31886 h -2.03397 v 18.98372 h 2.03397 v -1.43734 c 0.70511,1.13902 2.16957,1.70853 3.44419,1.70853 z m 3.44419,-5.45104 c 0,2.33229 -1.62718,3.49843 -3.44419,3.49843 -1.81701,0 -3.44419,-1.16614 -3.44419,-3.49843 v -3.7425 c 0,-2.33229 1.62718,-3.49843 3.44419,-3.49843 1.81701,0 3.44419,1.16614 3.44419,3.49843 z"
         style="font-style:normal;font-variant:normal;font-weight:normal;font-stretch:normal;font-size:27.1196003px;line-height:0;font-family:'Simplon Norm';-inkscape-font-specification:'Simplon Norm';letter-spacing:4.27492952px"
         id="path887"
         inkscape:connector-curvature="0" />
      <path
         d="m 164.28195,228.89866 c -1.81702,0 -3.44419,-1.16614 -3.44419,-3.49843 v -1.35598 h 8.92234 v -2.3594 c 0,-4.12218 -2.87467,-5.47816 -5.47815,-5.47816 -2.60349,0 -5.47816,1.35598 -5.47816,5.47816 v 3.68826 c 0,4.12218 2.87467,5.47816 5.47816,5.47816 2.44076,0 5.09848,-1.16614 5.45103,-4.66457 h -2.0882 c -0.32544,1.81702 -1.76278,2.71196 -3.36283,2.71196 z m 3.44418,-6.72566 h -6.88837 v -0.51527 c 0,-2.33229 1.62717,-3.49843 3.44419,-3.49843 1.81701,0 3.44418,1.16614 3.44418,3.49843 z"
         style="font-style:normal;font-variant:normal;font-weight:normal;font-stretch:normal;font-size:27.1196003px;line-height:0;font-family:'Simplon Norm';-inkscape-font-specification:'Simplon Norm';letter-spacing:4.27492952px"
         id="path889"
         inkscape:connector-curvature="0" />
      <path
         d="m 177.44829,230.58008 h 2.84756 v -2.84756 h -2.84756 z"
         style="font-style:normal;font-variant:normal;font-weight:normal;font-stretch:normal;font-size:27.1196003px;line-height:0;font-family:'Simplon Norm';-inkscape-font-specification:'Simplon Norm';letter-spacing:4.27492952px"
         id="path891"
         inkscape:connector-curvature="0" />
      <path
         d="m 190.65193,218.53898 h 3.44419 v -1.95262 h -3.44419 v -3.17299 h -2.03397 v 3.17299 h -1.97973 v 1.95262 h 1.97973 v 8.70539 c 0,2.38652 0.73223,3.33571 3.33571,3.33571 h 2.14245 v -1.95261 h -2.14245 c -0.9763,0 -1.30174,-0.32544 -1.30174,-1.22039 z"
         style="font-style:normal;font-variant:normal;font-weight:normal;font-stretch:normal;font-size:27.1196003px;line-height:0;font-family:'Simplon Norm';-inkscape-font-specification:'Simplon Norm';letter-spacing:4.27492952px"
         id="path893"
         inkscape:connector-curvature="0" />
      <path
         d="m 203.54537,216.58636 h -2.03397 v 13.99372 h 2.03397 v -8.78675 c 0,-2.33229 1.62718,-3.49843 3.44419,-3.49843 h 0.89495 v -1.95261 h -0.89495 c -1.27462,0 -2.73908,0.56951 -3.44419,1.70853 z"
         style="font-style:normal;font-variant:normal;font-weight:normal;font-stretch:normal;font-size:27.1196003px;line-height:0;font-family:'Simplon Norm';-inkscape-font-specification:'Simplon Norm';letter-spacing:4.27492952px"
         id="path895"
         inkscape:connector-curvature="0" />
      <path
         d="m 219.35588,218.1593 c 1.81701,0 3.44419,1.16614 3.44419,3.49843 v 0.24408 c -2.35941,0.16271 -4.36626,0.32543 -5.96632,0.78646 -2.44076,0.70511 -3.03739,2.60349 -3.03739,4.01371 0,2.87467 2.25092,4.14929 4.63745,4.14929 1.89837,0 3.47131,-0.54239 4.36626,-1.70853 v 1.43734 h 2.03397 v -8.89523 c 0,-4.12218 -2.87468,-5.47816 -5.47816,-5.47816 -2.44077,0 -5.09849,1.16614 -5.45104,4.66457 h 2.08821 c 0.32543,-1.81701 1.76277,-2.71196 3.36283,-2.71196 z m 3.44419,7.37653 c 0,2.19669 -1.73566,3.36283 -3.93235,3.36283 -2.06109,0 -3.03739,-0.9763 -3.03739,-2.25092 0,-0.81359 0.18984,-1.43734 1.22038,-2.00685 0.94919,-0.51528 2.68484,-0.70511 5.74936,-0.92207 z"
         style="font-style:normal;font-variant:normal;font-weight:normal;font-stretch:normal;font-size:27.1196003px;line-height:0;font-family:'Simplon Norm';-inkscape-font-specification:'Simplon Norm';letter-spacing:4.27492952px"
         id="path897"
         inkscape:connector-curvature="0" />
      <path
         d="m 238.09489,216.20669 c -2.60348,0 -5.47816,1.35598 -5.47816,5.47816 v 3.68826 c 0,4.1493 2.87468,5.47816 5.47816,5.47816 2.46788,0 5.15272,-1.19326 5.45104,-4.80017 h -2.06109 c -0.2712,1.89838 -1.76278,2.84756 -3.38995,2.84756 -1.81702,0 -3.44419,-1.16614 -3.44419,-3.49843 v -3.7425 c 0,-2.33229 1.62717,-3.49843 3.44419,-3.49843 1.62717,0 3.11875,0.94919 3.38995,2.84756 h 2.06109 c -0.29832,-3.60691 -2.98316,-4.80017 -5.45104,-4.80017 z"
         style="font-style:normal;font-variant:normal;font-weight:normal;font-stretch:normal;font-size:27.1196003px;line-height:0;font-family:'Simplon Norm';-inkscape-font-specification:'Simplon Norm';letter-spacing:4.27492952px"
         id="path899"
         inkscape:connector-curvature="0" />
      <path
         d="m 253.28884,211.59636 h -2.03397 v 18.98372 h 2.03397 v -4.63745 l 2.19669,-2.38653 4.77305,7.02398 h 2.38652 l -5.77647,-8.51556 5.04424,-5.47816 h -2.52212 l -6.10191,6.61719 z"
         style="font-style:normal;font-variant:normal;font-weight:normal;font-stretch:normal;font-size:27.1196003px;line-height:0;font-family:'Simplon Norm';-inkscape-font-specification:'Simplon Norm';letter-spacing:4.27492952px"
         id="path901"
         inkscape:connector-curvature="0" />
      <path
         d="m 271.28248,211.59636 h -2.03397 v 2.6306 h 2.03397 z m 0,4.99 h -2.03397 v 13.99372 h 2.03397 z"
         style="font-style:normal;font-variant:normal;font-weight:normal;font-stretch:normal;font-size:27.1196003px;line-height:0;font-family:'Simplon Norm';-inkscape-font-specification:'Simplon Norm';letter-spacing:4.27492952px"
         id="path903"
         inkscape:connector-curvature="0" />
      <path
         d="m 285.09291,216.20669 c -1.27462,0 -2.73908,0.56951 -3.44419,1.70853 v -1.32886 h -2.03397 v 13.99372 h 2.03397 v -8.92235 c 0,-2.33229 1.62718,-3.49843 3.44419,-3.49843 1.81701,0 3.44419,1.16614 3.44419,3.49843 v 8.92235 h 2.03397 v -8.89523 c 0,-4.12218 -2.87468,-5.47816 -5.47816,-5.47816 z"
         style="font-style:normal;font-variant:normal;font-weight:normal;font-stretch:normal;font-size:27.1196003px;line-height:0;font-family:'Simplon Norm';-inkscape-font-specification:'Simplon Norm';letter-spacing:4.27492952px"
         id="path905"
         inkscape:connector-curvature="0" />
      <path
         d="m 303.79207,233.88867 c -1.62717,0 -3.11875,-0.94919 -3.38995,-2.84756 h -2.06109 c 0.29832,3.60691 2.98316,4.80017 5.45104,4.80017 2.60348,0 5.47816,-1.32886 5.47816,-5.47816 v -13.77676 h -2.03397 v 1.32886 c -0.70511,-1.13902 -2.16957,-1.70853 -3.44419,-1.70853 -2.60348,0 -5.47816,1.35598 -5.47816,5.47816 v 3.14587 c 0,4.12218 2.87468,5.47816 5.47816,5.47816 1.27462,0 2.73908,-0.56951 3.44419,-1.70853 v 1.78989 c 0,2.33229 -1.62717,3.49843 -3.44419,3.49843 z m -3.44419,-12.23094 c 0,-2.33229 1.62718,-3.49843 3.44419,-3.49843 1.81702,0 3.44419,1.16614 3.44419,3.49843 v 3.20011 c 0,2.33229 -1.62717,3.49843 -3.44419,3.49843 -1.81701,0 -3.44419,-1.16614 -3.44419,-3.49843 z"
         style="font-style:normal;font-variant:normal;font-weight:normal;font-stretch:normal;font-size:27.1196003px;line-height:0;font-family:'Simplon Norm';-inkscape-font-specification:'Simplon Norm';letter-spacing:4.27492952px"
         id="path907"
         inkscape:connector-curvature="0" />
      <path
         d="m 317.88601,230.58008 h 2.84756 v -2.84756 h -2.84756 z"
         style="font-style:normal;font-variant:normal;font-weight:normal;font-stretch:normal;font-size:27.1196003px;line-height:0;font-family:'Simplon Norm';-inkscape-font-specification:'Simplon Norm';letter-spacing:4.27492952px"
         id="path909"
         inkscape:connector-curvature="0" />
      <path
         d="m 333.76811,228.89866 c -1.81702,0 -3.44419,-1.16614 -3.44419,-3.49843 v -1.35598 h 8.92234 v -2.3594 c 0,-4.12218 -2.87467,-5.47816 -5.47815,-5.47816 -2.60349,0 -5.47816,1.35598 -5.47816,5.47816 v 3.68826 c 0,4.12218 2.87467,5.47816 5.47816,5.47816 2.44076,0 5.09848,-1.16614 5.45104,-4.66457 h -2.08821 c -0.32544,1.81702 -1.76278,2.71196 -3.36283,2.71196 z m 3.44418,-6.72566 h -6.88837 v -0.51527 c 0,-2.33229 1.62717,-3.49843 3.44419,-3.49843 1.81701,0 3.44418,1.16614 3.44418,3.49843 z"
         style="font-style:normal;font-variant:normal;font-weight:normal;font-stretch:normal;font-size:27.1196003px;line-height:0;font-family:'Simplon Norm';-inkscape-font-specification:'Simplon Norm';letter-spacing:4.27492952px"
         id="path911"
         inkscape:connector-curvature="0" />
      <path
         d="m 354.71905,230.58008 h 2.30517 l -4.74593,-7.1867 4.52897,-6.80702 h -2.3594 l -3.44419,5.17985 -3.44419,-5.17985 h -2.3594 l 4.52897,6.80702 -4.74593,7.1867 h 2.30516 l 3.71539,-5.668 z"
         style="font-style:normal;font-variant:normal;font-weight:normal;font-stretch:normal;font-size:27.1196003px;line-height:0;font-family:'Simplon Norm';-inkscape-font-specification:'Simplon Norm';letter-spacing:4.27492952px"
         id="path913"
         inkscape:connector-curvature="0" />
      <path
         d="m 369.2346,230.85127 c 2.60348,0 5.47816,-1.35598 5.47816,-5.47816 v -3.68826 c 0,-4.12218 -2.87468,-5.47816 -5.47816,-5.47816 -1.27462,0 -2.73908,0.56951 -3.44419,1.70853 v -1.32886 h -2.03397 v 18.98372 h 2.03397 v -6.42734 c 0.70511,1.13902 2.16957,1.70853 3.44419,1.70853 z m 3.44419,-5.45104 c 0,2.33229 -1.62717,3.49843 -3.44419,3.49843 -1.81701,0 -3.44419,-1.16614 -3.44419,-3.49843 v -3.7425 c 0,-2.33229 1.62718,-3.49843 3.44419,-3.49843 1.81702,0 3.44419,1.16614 3.44419,3.49843 z"
         style="font-style:normal;font-variant:normal;font-weight:normal;font-stretch:normal;font-size:27.1196003px;line-height:0;font-family:'Simplon Norm';-inkscape-font-specification:'Simplon Norm';letter-spacing:4.27492952px"
         id="path915"
         inkscape:connector-curvature="0" />
      <path
         d="m 391.19322,225.40023 c 0,2.33229 -1.62717,3.49843 -3.44419,3.49843 -1.81701,0 -3.44419,-1.16614 -3.44419,-3.49843 v -3.7425 c 0,-2.33229 1.62718,-3.49843 3.44419,-3.49843 1.81702,0 3.44419,1.16614 3.44419,3.49843 z m 2.03397,-3.71538 c 0,-4.12218 -2.87468,-5.47816 -5.47816,-5.47816 -2.60348,0 -5.47816,1.35598 -5.47816,5.47816 v 3.68826 c 0,4.12218 2.87468,5.47816 5.47816,5.47816 2.60348,0 5.47816,-1.35598 5.47816,-5.47816 z"
         style="font-style:normal;font-variant:normal;font-weight:normal;font-stretch:normal;font-size:27.1196003px;line-height:0;font-family:'Simplon Norm';-inkscape-font-specification:'Simplon Norm';letter-spacing:4.27492952px"
         id="path917"
         inkscape:connector-curvature="0" />
      <path
         d="m 410.3945,220.68142 c -0.21696,-3.11875 -2.30517,-4.47473 -5.12561,-4.47473 -2.57636,0 -4.71881,1.49158 -4.71881,4.06794 0,2.495 1.92549,3.52555 3.44419,3.8781 l 2.73908,0.67799 c 1.54582,0.37968 1.95261,1.16615 1.95261,2.06109 -0.0271,1.22038 -0.92207,2.00685 -2.87468,2.00685 -1.87125,0 -3.33571,-0.81359 -3.52554,-2.79332 h -2.08821 c 0.21695,3.38995 2.68484,4.74593 5.61375,4.74593 2.84756,0 4.93577,-1.13902 4.93577,-3.90522 0,-2.57636 -1.46446,-3.63402 -3.57979,-4.1493 l -2.6306,-0.65087 c -1.13902,-0.27119 -1.92549,-0.78647 -1.92549,-1.95261 0,-1.27462 1.1119,-2.03397 2.6306,-2.03397 1.73566,0 2.82044,0.89495 3.06452,2.52212 z"
         style="font-style:normal;font-variant:normal;font-weight:normal;font-stretch:normal;font-size:27.1196003px;line-height:0;font-family:'Simplon Norm';-inkscape-font-specification:'Simplon Norm';letter-spacing:4.27492952px"
         id="path919"
         inkscape:connector-curvature="0" />
      <path
         d="m 423.31254,228.89866 c -1.81701,0 -3.44419,-1.16614 -3.44419,-3.49843 v -1.35598 h 8.92235 v -2.3594 c 0,-4.12218 -2.87468,-5.47816 -5.47816,-5.47816 -2.60348,0 -5.47816,1.35598 -5.47816,5.47816 v 3.68826 c 0,4.12218 2.87468,5.47816 5.47816,5.47816 2.44076,0 5.09848,-1.16614 5.45104,-4.66457 h -2.08821 c -0.32544,1.81702 -1.76277,2.71196 -3.36283,2.71196 z m 3.44419,-6.72566 h -6.88838 v -0.51527 c 0,-2.33229 1.62718,-3.49843 3.44419,-3.49843 1.81701,0 3.44419,1.16614 3.44419,3.49843 z"
         style="font-style:normal;font-variant:normal;font-weight:normal;font-stretch:normal;font-size:27.1196003px;line-height:0;font-family:'Simplon Norm';-inkscape-font-specification:'Simplon Norm';letter-spacing:4.27492952px"
         id="path921"
         inkscape:connector-curvature="0" />
      <path
         d="m 441.72993,230.85127 c 1.27462,0 2.73908,-0.56951 3.44419,-1.70853 v 1.43734 h 2.03397 v -18.98372 h -2.03397 v 6.31886 c -0.70511,-1.13902 -2.16957,-1.70853 -3.44419,-1.70853 -2.60348,0 -5.47816,1.35598 -5.47816,5.47816 v 3.68826 c 0,4.12218 2.87468,5.47816 5.47816,5.47816 z m -3.44419,-9.19354 c 0,-2.33229 1.62717,-3.49843 3.44419,-3.49843 1.81701,0 3.44419,1.16614 3.44419,3.49843 v 3.7425 c 0,2.33229 -1.62718,3.49843 -3.44419,3.49843 -1.81702,0 -3.44419,-1.16614 -3.44419,-3.49843 z"
         style="font-style:normal;font-variant:normal;font-weight:normal;font-stretch:normal;font-size:27.1196003px;line-height:0;font-family:'Simplon Norm';-inkscape-font-specification:'Simplon Norm';letter-spacing:4.27492952px"
         id="path923"
         inkscape:connector-curvature="0" />
    </g>
    <path
       style="fill:none;stroke:#d9230f;stroke-width:0.3673853;stroke-linecap:butt;stroke-linejoin:miter;stroke-miterlimit:4;stroke-dasharray:none;stroke-opacity:1"
       d="M 158.12668,154.28266 H 28.33504"
       id="path3705"
       inkscape:connector-curvature="0"
       sodipodi:nodetypes="cc" />
    <g
       aria-label="Open the videos linked on our website, the add-on will collect evidences about related videos"
       transform="matrix(0.56075513,0,0,0.56075513,-43.75215,43.260245)"
       style="font-style:normal;font-weight:normal;font-size:40px;line-height:0.5;font-family:sans-serif;text-align:start;letter-spacing:0px;word-spacing:0px;text-anchor:start;fill:#d9230f;fill-opacity:1;stroke:none"
       id="flowRoot953-3-7">
      <path
         d="m 143.80144,145.35933 c 0,1.66357 -1.03581,2.52674 -2.33841,2.52674 -1.3026,0 -2.33841,-0.86317 -2.33841,-2.52674 v -3.86072 c 0,-1.66357 1.03581,-2.52674 2.33841,-2.52674 1.3026,0 2.33841,0.86317 2.33841,2.52674 z m 1.20844,-3.86072 c 0,-2.30702 -1.44385,-3.71949 -3.54685,-3.71949 -2.103,0 -3.54685,1.41247 -3.54685,3.71949 v 3.86072 c 0,2.30702 1.44385,3.71949 3.54685,3.71949 2.103,0 3.54685,-1.41247 3.54685,-3.71949 z"
         style="font-style:normal;font-variant:normal;font-weight:normal;font-stretch:normal;font-size:15.6940155px;line-height:0.5;font-family:'Simplon Norm';-inkscape-font-specification:'Simplon Norm';text-align:start;text-anchor:start;fill:#d9230f;fill-opacity:1"
         id="path1387"
         inkscape:connector-curvature="0" />
      <path
         d="m 150.28797,149.07882 c 1.50663,0 3.17019,-0.78471 3.17019,-3.1702 v -2.13438 c 0,-2.38549 -1.66356,-3.17019 -3.17019,-3.17019 -0.73762,0 -1.5851,0.32957 -1.99314,0.98872 v -0.76901 h -1.17705 v 10.98581 h 1.17705 v -3.71948 c 0.40804,0.65915 1.25552,0.98873 1.99314,0.98873 z m 1.99314,-3.1545 c 0,1.34968 -0.94164,2.02453 -1.99314,2.02453 -1.0515,0 -1.99314,-0.67485 -1.99314,-2.02453 v -2.16578 c 0,-1.34968 0.94164,-2.02452 1.99314,-2.02452 1.0515,0 1.99314,0.67484 1.99314,2.02452 z"
         style="font-style:normal;font-variant:normal;font-weight:normal;font-stretch:normal;font-size:15.6940155px;line-height:0.5;font-family:'Simplon Norm';-inkscape-font-specification:'Simplon Norm';text-align:start;text-anchor:start;fill:#d9230f;fill-opacity:1"
         id="path1389"
         inkscape:connector-curvature="0" />
      <path
         d="m 158.52831,147.94885 c -1.0515,0 -1.99314,-0.67485 -1.99314,-2.02453 v -0.7847 h 5.16333 v -1.36538 c 0,-2.38549 -1.66356,-3.17019 -3.17019,-3.17019 -1.50663,0 -3.17019,0.7847 -3.17019,3.17019 v 2.13438 c 0,2.38549 1.66356,3.1702 3.17019,3.1702 1.41246,0 2.95047,-0.67485 3.1545,-2.69938 h -1.20844 c -0.18833,1.0515 -1.02011,1.56941 -1.94606,1.56941 z m 1.99314,-3.89212 h -3.98628 v -0.29819 c 0,-1.34968 0.94164,-2.02452 1.99314,-2.02452 1.0515,0 1.99314,0.67484 1.99314,2.02452 z"
         style="font-style:normal;font-variant:normal;font-weight:normal;font-stretch:normal;font-size:15.6940155px;line-height:0.5;font-family:'Simplon Norm';-inkscape-font-specification:'Simplon Norm';text-align:start;text-anchor:start;fill:#d9230f;fill-opacity:1"
         id="path1391"
         inkscape:connector-curvature="0" />
      <path
         d="m 166.93221,140.60405 c -0.73762,0 -1.5851,0.32957 -1.99314,0.98872 v -0.76901 h -1.17705 v 8.09811 h 1.17705 v -5.16333 c 0,-1.34968 0.94164,-2.02452 1.99314,-2.02452 1.0515,0 1.99314,0.67484 1.99314,2.02452 v 5.16333 h 1.17705 v -5.14763 c 0,-2.38549 -1.66357,-3.17019 -3.17019,-3.17019 z"
         style="font-style:normal;font-variant:normal;font-weight:normal;font-stretch:normal;font-size:15.6940155px;line-height:0.5;font-family:'Simplon Norm';-inkscape-font-specification:'Simplon Norm';text-align:start;text-anchor:start;fill:#d9230f;fill-opacity:1"
         id="path1393"
         inkscape:connector-curvature="0" />
      <path
         d="m 177.42341,141.95373 h 1.99314 v -1.12997 h -1.99314 v -1.8362 h -1.17705 v 1.8362 h -1.14566 v 1.12997 h 1.14566 v 5.03778 c 0,1.38107 0.42374,1.93036 1.93037,1.93036 h 1.23982 v -1.12996 h -1.23982 c -0.56499,0 -0.75332,-0.18833 -0.75332,-0.70623 z"
         style="font-style:normal;font-variant:normal;font-weight:normal;font-stretch:normal;font-size:15.6940155px;line-height:0.5;font-family:'Simplon Norm';-inkscape-font-specification:'Simplon Norm';text-align:start;text-anchor:start;fill:#d9230f;fill-opacity:1"
         id="path1395"
         inkscape:connector-curvature="0" />
      <path
         d="m 184.40406,140.60405 c -0.73762,0 -1.58509,0.32957 -1.99314,0.98872 v -3.65671 h -1.17705 v 10.98581 h 1.17705 v -5.16333 c 0,-1.34968 0.94164,-2.02452 1.99314,-2.02452 1.0515,0 1.99314,0.67484 1.99314,2.02452 v 5.16333 h 1.17705 v -5.14763 c 0,-2.38549 -1.66356,-3.17019 -3.17019,-3.17019 z"
         style="font-style:normal;font-variant:normal;font-weight:normal;font-stretch:normal;font-size:15.6940155px;line-height:0.5;font-family:'Simplon Norm';-inkscape-font-specification:'Simplon Norm';text-align:start;text-anchor:start;fill:#d9230f;fill-opacity:1"
         id="path1397"
         inkscape:connector-curvature="0" />
      <path
         d="m 192.76701,147.94885 c -1.0515,0 -1.99314,-0.67485 -1.99314,-2.02453 v -0.7847 h 5.16333 v -1.36538 c 0,-2.38549 -1.66356,-3.17019 -3.17019,-3.17019 -1.50663,0 -3.17019,0.7847 -3.17019,3.17019 v 2.13438 c 0,2.38549 1.66356,3.1702 3.17019,3.1702 1.41246,0 2.95048,-0.67485 3.1545,-2.69938 h -1.20844 c -0.18833,1.0515 -1.02011,1.56941 -1.94606,1.56941 z m 1.99314,-3.89212 h -3.98628 v -0.29819 c 0,-1.34968 0.94164,-2.02452 1.99314,-2.02452 1.0515,0 1.99314,0.67484 1.99314,2.02452 z"
         style="font-style:normal;font-variant:normal;font-weight:normal;font-stretch:normal;font-size:15.6940155px;line-height:0.5;font-family:'Simplon Norm';-inkscape-font-specification:'Simplon Norm';text-align:start;text-anchor:start;fill:#d9230f;fill-opacity:1"
         id="path1399"
         inkscape:connector-curvature="0" />
      <path
         d="m 207.59933,140.82376 h -1.25553 l -2.32271,6.5758 -2.32271,-6.5758 h -1.25553 l 2.91909,8.09811 h 1.3183 z"
         style="font-style:normal;font-variant:normal;font-weight:normal;font-stretch:normal;font-size:15.6940155px;line-height:0.5;font-family:'Simplon Norm';-inkscape-font-specification:'Simplon Norm';text-align:start;text-anchor:start;fill:#d9230f;fill-opacity:1"
         id="path1401"
         inkscape:connector-curvature="0" />
      <path
         d="m 210.05936,137.93606 h -1.17705 v 1.52232 h 1.17705 z m 0,2.8877 h -1.17705 v 8.09811 h 1.17705 z"
         style="font-style:normal;font-variant:normal;font-weight:normal;font-stretch:normal;font-size:15.6940155px;line-height:0.5;font-family:'Simplon Norm';-inkscape-font-specification:'Simplon Norm';text-align:start;text-anchor:start;fill:#d9230f;fill-opacity:1"
         id="path1403"
         inkscape:connector-curvature="0" />
      <path
         d="m 215.35781,149.07882 c 0.73762,0 1.5851,-0.32958 1.99314,-0.98873 v 0.83178 h 1.17705 v -10.98581 h -1.17705 v 3.65671 c -0.40804,-0.65915 -1.25552,-0.98872 -1.99314,-0.98872 -1.50662,0 -3.17019,0.7847 -3.17019,3.17019 v 2.13438 c 0,2.38549 1.66357,3.1702 3.17019,3.1702 z m -1.99314,-5.32028 c 0,-1.34968 0.94164,-2.02452 1.99314,-2.02452 1.0515,0 1.99314,0.67484 1.99314,2.02452 v 2.16578 c 0,1.34968 -0.94164,2.02453 -1.99314,2.02453 -1.0515,0 -1.99314,-0.67485 -1.99314,-2.02453 z"
         style="font-style:normal;font-variant:normal;font-weight:normal;font-stretch:normal;font-size:15.6940155px;line-height:0.5;font-family:'Simplon Norm';-inkscape-font-specification:'Simplon Norm';text-align:start;text-anchor:start;fill:#d9230f;fill-opacity:1"
         id="path1405"
         inkscape:connector-curvature="0" />
      <path
         d="m 223.81786,147.94885 c -1.05149,0 -1.99314,-0.67485 -1.99314,-2.02453 v -0.7847 h 5.16334 v -1.36538 c 0,-2.38549 -1.66357,-3.17019 -3.1702,-3.17019 -1.50662,0 -3.17019,0.7847 -3.17019,3.17019 v 2.13438 c 0,2.38549 1.66357,3.1702 3.17019,3.1702 1.41247,0 2.95048,-0.67485 3.1545,-2.69938 h -1.20844 c -0.18833,1.0515 -1.02011,1.56941 -1.94606,1.56941 z m 1.99314,-3.89212 h -3.98628 v -0.29819 c 0,-1.34968 0.94165,-2.02452 1.99314,-2.02452 1.0515,0 1.99314,0.67484 1.99314,2.02452 z"
         style="font-style:normal;font-variant:normal;font-weight:normal;font-stretch:normal;font-size:15.6940155px;line-height:0.5;font-family:'Simplon Norm';-inkscape-font-specification:'Simplon Norm';text-align:start;text-anchor:start;fill:#d9230f;fill-opacity:1"
         id="path1407"
         inkscape:connector-curvature="0" />
      <path
         d="m 233.99519,145.92432 c 0,1.34968 -0.94164,2.02453 -1.99314,2.02453 -1.0515,0 -1.99314,-0.67485 -1.99314,-2.02453 v -2.16578 c 0,-1.34968 0.94164,-2.02452 1.99314,-2.02452 1.0515,0 1.99314,0.67484 1.99314,2.02452 z m 1.17705,-2.15008 c 0,-2.38549 -1.66356,-3.17019 -3.17019,-3.17019 -1.50662,0 -3.17019,0.7847 -3.17019,3.17019 v 2.13438 c 0,2.38549 1.66357,3.1702 3.17019,3.1702 1.50663,0 3.17019,-0.78471 3.17019,-3.1702 z"
         style="font-style:normal;font-variant:normal;font-weight:normal;font-stretch:normal;font-size:15.6940155px;line-height:0.5;font-family:'Simplon Norm';-inkscape-font-specification:'Simplon Norm';text-align:start;text-anchor:start;fill:#d9230f;fill-opacity:1"
         id="path1409"
         inkscape:connector-curvature="0" />
      <path
         d="m 242.63303,143.19356 c -0.12556,-1.80481 -1.33399,-2.58951 -2.96617,-2.58951 -1.49093,0 -2.73076,0.86317 -2.73076,2.3541 0,1.44385 1.11427,2.04022 1.99314,2.24424 l 1.58509,0.39235 c 0.89456,0.21972 1.12997,0.67485 1.12997,1.19275 -0.0157,0.70623 -0.53359,1.16136 -1.66356,1.16136 -1.08289,0 -1.93037,-0.47082 -2.04022,-1.61649 h -1.20844 c 0.12555,1.96175 1.5537,2.74646 3.24866,2.74646 1.64787,0 2.85631,-0.65915 2.85631,-2.25994 0,-1.49093 -0.84748,-2.103 -2.07161,-2.40119 l -1.52232,-0.37665 c -0.65915,-0.15694 -1.11428,-0.45513 -1.11428,-1.12997 0,-0.73762 0.64346,-1.17705 1.52232,-1.17705 1.00442,0 1.63218,0.5179 1.77343,1.45954 z"
         style="font-style:normal;font-variant:normal;font-weight:normal;font-stretch:normal;font-size:15.6940155px;line-height:0.5;font-family:'Simplon Norm';-inkscape-font-specification:'Simplon Norm';text-align:start;text-anchor:start;fill:#d9230f;fill-opacity:1"
         id="path1411"
         inkscape:connector-curvature="0" />
      <path
         d="m 249.35497,137.93606 h -1.17705 v 9.05545 c 0,1.38107 0.42374,1.93036 1.93036,1.93036 h 0.25111 v -1.12996 h -0.25111 c -0.56498,0 -0.75331,-0.18833 -0.75331,-0.70623 z"
         style="font-style:normal;font-variant:normal;font-weight:normal;font-stretch:normal;font-size:15.6940155px;line-height:0.5;font-family:'Simplon Norm';-inkscape-font-specification:'Simplon Norm';text-align:start;text-anchor:start;fill:#d9230f;fill-opacity:1"
         id="path1413"
         inkscape:connector-curvature="0" />
      <path
         d="m 253.37117,137.93606 h -1.17705 v 1.52232 h 1.17705 z m 0,2.8877 h -1.17705 v 8.09811 h 1.17705 z"
         style="font-style:normal;font-variant:normal;font-weight:normal;font-stretch:normal;font-size:15.6940155px;line-height:0.5;font-family:'Simplon Norm';-inkscape-font-specification:'Simplon Norm';text-align:start;text-anchor:start;fill:#d9230f;fill-opacity:1"
         id="path1415"
         inkscape:connector-curvature="0" />
      <path
         d="m 258.88933,140.60405 c -0.73762,0 -1.58509,0.32957 -1.99314,0.98872 v -0.76901 h -1.17705 v 8.09811 h 1.17705 v -5.16333 c 0,-1.34968 0.94164,-2.02452 1.99314,-2.02452 1.0515,0 1.99314,0.67484 1.99314,2.02452 v 5.16333 h 1.17705 v -5.14763 c 0,-2.38549 -1.66356,-3.17019 -3.17019,-3.17019 z"
         style="font-style:normal;font-variant:normal;font-weight:normal;font-stretch:normal;font-size:15.6940155px;line-height:0.5;font-family:'Simplon Norm';-inkscape-font-specification:'Simplon Norm';text-align:start;text-anchor:start;fill:#d9230f;fill-opacity:1"
         id="path1417"
         inkscape:connector-curvature="0" />
      <path
         d="m 265.47886,137.93606 h -1.17705 v 10.98581 h 1.17705 v -2.68367 l 1.27121,-1.38108 2.76215,4.06475 h 1.38107 l -3.34282,-4.92792 2.91909,-3.17019 h -1.45955 l -3.53115,3.82934 z"
         style="font-style:normal;font-variant:normal;font-weight:normal;font-stretch:normal;font-size:15.6940155px;line-height:0.5;font-family:'Simplon Norm';-inkscape-font-specification:'Simplon Norm';text-align:start;text-anchor:start;fill:#d9230f;fill-opacity:1"
         id="path1419"
         inkscape:connector-curvature="0" />
      <path
         d="m 274.73145,147.94885 c -1.0515,0 -1.99314,-0.67485 -1.99314,-2.02453 v -0.7847 h 5.16333 v -1.36538 c 0,-2.38549 -1.66356,-3.17019 -3.17019,-3.17019 -1.50662,0 -3.17019,0.7847 -3.17019,3.17019 v 2.13438 c 0,2.38549 1.66357,3.1702 3.17019,3.1702 1.41247,0 2.95048,-0.67485 3.1545,-2.69938 h -1.20844 c -0.18833,1.0515 -1.02011,1.56941 -1.94606,1.56941 z m 1.99314,-3.89212 h -3.98628 v -0.29819 c 0,-1.34968 0.94164,-2.02452 1.99314,-2.02452 1.0515,0 1.99314,0.67484 1.99314,2.02452 z"
         style="font-style:normal;font-variant:normal;font-weight:normal;font-stretch:normal;font-size:15.6940155px;line-height:0.5;font-family:'Simplon Norm';-inkscape-font-specification:'Simplon Norm';text-align:start;text-anchor:start;fill:#d9230f;fill-opacity:1"
         id="path1421"
         inkscape:connector-curvature="0" />
      <path
         d="m 282.91564,149.07882 c 0.73762,0 1.5851,-0.32958 1.99314,-0.98873 v 0.83178 h 1.17705 v -10.98581 h -1.17705 v 3.65671 c -0.40804,-0.65915 -1.25552,-0.98872 -1.99314,-0.98872 -1.50662,0 -3.17019,0.7847 -3.17019,3.17019 v 2.13438 c 0,2.38549 1.66357,3.1702 3.17019,3.1702 z m -1.99314,-5.32028 c 0,-1.34968 0.94164,-2.02452 1.99314,-2.02452 1.0515,0 1.99314,0.67484 1.99314,2.02452 v 2.16578 c 0,1.34968 -0.94164,2.02453 -1.99314,2.02453 -1.0515,0 -1.99314,-0.67485 -1.99314,-2.02453 z"
         style="font-style:normal;font-variant:normal;font-weight:normal;font-stretch:normal;font-size:15.6940155px;line-height:0.5;font-family:'Simplon Norm';-inkscape-font-specification:'Simplon Norm';text-align:start;text-anchor:start;fill:#d9230f;fill-opacity:1"
         id="path1423"
         inkscape:connector-curvature="0" />
      <path
         d="m 296.89386,145.92432 c 0,1.34968 -0.94164,2.02453 -1.99314,2.02453 -1.0515,0 -1.99314,-0.67485 -1.99314,-2.02453 v -2.16578 c 0,-1.34968 0.94164,-2.02452 1.99314,-2.02452 1.0515,0 1.99314,0.67484 1.99314,2.02452 z m 1.17705,-2.15008 c 0,-2.38549 -1.66357,-3.17019 -3.17019,-3.17019 -1.50663,0 -3.17019,0.7847 -3.17019,3.17019 v 2.13438 c 0,2.38549 1.66356,3.1702 3.17019,3.1702 1.50662,0 3.17019,-0.78471 3.17019,-3.1702 z"
         style="font-style:normal;font-variant:normal;font-weight:normal;font-stretch:normal;font-size:15.6940155px;line-height:0.5;font-family:'Simplon Norm';-inkscape-font-specification:'Simplon Norm';text-align:start;text-anchor:start;fill:#d9230f;fill-opacity:1"
         id="path1425"
         inkscape:connector-curvature="0" />
      <path
         d="m 303.36592,140.60405 c -0.73762,0 -1.5851,0.32957 -1.99314,0.98872 v -0.76901 h -1.17705 v 8.09811 h 1.17705 v -5.16333 c 0,-1.34968 0.94164,-2.02452 1.99314,-2.02452 1.0515,0 1.99314,0.67484 1.99314,2.02452 v 5.16333 h 1.17705 v -5.14763 c 0,-2.38549 -1.66357,-3.17019 -3.17019,-3.17019 z"
         style="font-style:normal;font-variant:normal;font-weight:normal;font-stretch:normal;font-size:15.6940155px;line-height:0.5;font-family:'Simplon Norm';-inkscape-font-specification:'Simplon Norm';text-align:start;text-anchor:start;fill:#d9230f;fill-opacity:1"
         id="path1427"
         inkscape:connector-curvature="0" />
      <path
         d="m 317.24704,145.92432 c 0,1.34968 -0.94164,2.02453 -1.99314,2.02453 -1.0515,0 -1.99314,-0.67485 -1.99314,-2.02453 v -2.16578 c 0,-1.34968 0.94164,-2.02452 1.99314,-2.02452 1.0515,0 1.99314,0.67484 1.99314,2.02452 z m 1.17705,-2.15008 c 0,-2.38549 -1.66357,-3.17019 -3.17019,-3.17019 -1.50663,0 -3.17019,0.7847 -3.17019,3.17019 v 2.13438 c 0,2.38549 1.66356,3.1702 3.17019,3.1702 1.50662,0 3.17019,-0.78471 3.17019,-3.1702 z"
         style="font-style:normal;font-variant:normal;font-weight:normal;font-stretch:normal;font-size:15.6940155px;line-height:0.5;font-family:'Simplon Norm';-inkscape-font-specification:'Simplon Norm';text-align:start;text-anchor:start;fill:#d9230f;fill-opacity:1"
         id="path1429"
         inkscape:connector-curvature="0" />
      <path
         d="m 323.56216,149.07882 c 0.69054,0 1.53801,-0.34527 1.94606,-0.98873 v 0.83178 h 1.17705 v -8.09811 h -1.17705 v 5.10056 c 0,1.33399 -0.95734,2.02453 -1.94606,2.02453 -0.95734,0 -1.94606,-0.62776 -1.94606,-2.07161 v -5.05348 h -1.17705 v 5.13195 c 0,2.40118 1.78912,3.12311 3.12311,3.12311 z"
         style="font-style:normal;font-variant:normal;font-weight:normal;font-stretch:normal;font-size:15.6940155px;line-height:0.5;font-family:'Simplon Norm';-inkscape-font-specification:'Simplon Norm';text-align:start;text-anchor:start;fill:#d9230f;fill-opacity:1"
         id="path1431"
         inkscape:connector-curvature="0" />
      <path
         d="m 330.21667,140.82376 h -1.17705 v 8.09811 h 1.17705 v -5.08486 c 0,-1.34968 0.94164,-2.02452 1.99314,-2.02452 h 0.5179 v -1.12997 h -0.5179 c -0.73762,0 -1.5851,0.32957 -1.99314,0.98872 z"
         style="font-style:normal;font-variant:normal;font-weight:normal;font-stretch:normal;font-size:15.6940155px;line-height:0.5;font-family:'Simplon Norm';-inkscape-font-specification:'Simplon Norm';text-align:start;text-anchor:start;fill:#d9230f;fill-opacity:1"
         id="path1433"
         inkscape:connector-curvature="0" />
      <path
         d="m 142.93827,160.82376 h -1.16136 l -1.78912,6.309 -1.5694,-6.309 h -1.22413 l 2.13438,8.09811 h 1.22414 l 1.80481,-6.35607 1.80481,6.35607 h 1.22413 l 2.13439,-8.09811 h -1.22413 l -1.56941,6.309 z"
         style="font-style:normal;font-variant:normal;font-weight:normal;font-stretch:normal;font-size:15.6940155px;line-height:0.5;font-family:'Simplon Norm';-inkscape-font-specification:'Simplon Norm';text-align:start;text-anchor:start;fill:#d9230f;fill-opacity:1"
         id="path1435"
         inkscape:connector-curvature="0" />
      <path
         d="m 151.81544,167.94885 c -1.0515,0 -1.99314,-0.67485 -1.99314,-2.02453 v -0.7847 h 5.16333 v -1.36538 c 0,-2.38549 -1.66357,-3.17019 -3.17019,-3.17019 -1.50663,0 -3.17019,0.7847 -3.17019,3.17019 v 2.13438 c 0,2.38549 1.66356,3.1702 3.17019,3.1702 1.41246,0 2.95047,-0.67485 3.1545,-2.69938 h -1.20844 c -0.18833,1.0515 -1.02011,1.56941 -1.94606,1.56941 z m 1.99314,-3.89212 h -3.98628 v -0.29819 c 0,-1.34968 0.94164,-2.02452 1.99314,-2.02452 1.0515,0 1.99314,0.67484 1.99314,2.02452 z"
         style="font-style:normal;font-variant:normal;font-weight:normal;font-stretch:normal;font-size:15.6940155px;line-height:0.5;font-family:'Simplon Norm';-inkscape-font-specification:'Simplon Norm';text-align:start;text-anchor:start;fill:#d9230f;fill-opacity:1"
         id="path1437"
         inkscape:connector-curvature="0" />
      <path
         d="m 160.21934,169.07882 c 1.50662,0 3.17019,-0.78471 3.17019,-3.1702 v -2.13438 c 0,-2.38549 -1.66357,-3.17019 -3.17019,-3.17019 -0.73762,0 -1.5851,0.32957 -1.99314,0.98872 v -3.65671 h -1.17705 v 10.98581 h 1.17705 v -0.83178 c 0.40804,0.65915 1.25552,0.98873 1.99314,0.98873 z m 1.99314,-3.1545 c 0,1.34968 -0.94164,2.02453 -1.99314,2.02453 -1.0515,0 -1.99314,-0.67485 -1.99314,-2.02453 v -2.16578 c 0,-1.34968 0.94164,-2.02452 1.99314,-2.02452 1.0515,0 1.99314,0.67484 1.99314,2.02452 z"
         style="font-style:normal;font-variant:normal;font-weight:normal;font-stretch:normal;font-size:15.6940155px;line-height:0.5;font-family:'Simplon Norm';-inkscape-font-specification:'Simplon Norm';text-align:start;text-anchor:start;fill:#d9230f;fill-opacity:1"
         id="path1439"
         inkscape:connector-curvature="0" />
      <path
         d="m 170.84517,163.19356 c -0.12555,-1.80481 -1.33399,-2.58951 -2.96617,-2.58951 -1.49093,0 -2.73076,0.86317 -2.73076,2.3541 0,1.44385 1.11428,2.04022 1.99314,2.24424 l 1.5851,0.39235 c 0.89456,0.21972 1.12997,0.67485 1.12997,1.19275 -0.0157,0.70623 -0.5336,1.16136 -1.66357,1.16136 -1.08289,0 -1.93036,-0.47082 -2.04022,-1.61649 h -1.20844 c 0.12555,1.96175 1.55371,2.74646 3.24866,2.74646 1.64787,0 2.85631,-0.65915 2.85631,-2.25994 0,-1.49093 -0.84747,-2.103 -2.07161,-2.40119 l -1.52232,-0.37665 c -0.65915,-0.15694 -1.11427,-0.45513 -1.11427,-1.12997 0,-0.73762 0.64345,-1.17705 1.52232,-1.17705 1.00441,0 1.63217,0.5179 1.77342,1.45954 z"
         style="font-style:normal;font-variant:normal;font-weight:normal;font-stretch:normal;font-size:15.6940155px;line-height:0.5;font-family:'Simplon Norm';-inkscape-font-specification:'Simplon Norm';text-align:start;text-anchor:start;fill:#d9230f;fill-opacity:1"
         id="path1441"
         inkscape:connector-curvature="0" />
      <path
         d="m 174.07348,157.93606 h -1.17705 v 1.52232 h 1.17705 z m 0,2.8877 h -1.17705 v 8.09811 h 1.17705 z"
         style="font-style:normal;font-variant:normal;font-weight:normal;font-stretch:normal;font-size:15.6940155px;line-height:0.5;font-family:'Simplon Norm';-inkscape-font-specification:'Simplon Norm';text-align:start;text-anchor:start;fill:#d9230f;fill-opacity:1"
         id="path1443"
         inkscape:connector-curvature="0" />
      <path
         d="m 177.97515,161.95373 h 1.99314 v -1.12997 h -1.99314 v -1.8362 h -1.17705 v 1.8362 h -1.14566 v 1.12997 h 1.14566 v 5.03778 c 0,1.38107 0.42374,1.93036 1.93037,1.93036 h 1.23982 v -1.12996 h -1.23982 c -0.56499,0 -0.75332,-0.18833 -0.75332,-0.70623 z"
         style="font-style:normal;font-variant:normal;font-weight:normal;font-stretch:normal;font-size:15.6940155px;line-height:0.5;font-family:'Simplon Norm';-inkscape-font-specification:'Simplon Norm';text-align:start;text-anchor:start;fill:#d9230f;fill-opacity:1"
         id="path1445"
         inkscape:connector-curvature="0" />
      <path
         d="m 184.73609,167.94885 c -1.0515,0 -1.99314,-0.67485 -1.99314,-2.02453 v -0.7847 h 5.16333 v -1.36538 c 0,-2.38549 -1.66357,-3.17019 -3.17019,-3.17019 -1.50663,0 -3.17019,0.7847 -3.17019,3.17019 v 2.13438 c 0,2.38549 1.66356,3.1702 3.17019,3.1702 1.41246,0 2.95047,-0.67485 3.1545,-2.69938 h -1.20844 c -0.18833,1.0515 -1.02011,1.56941 -1.94606,1.56941 z m 1.99314,-3.89212 h -3.98628 v -0.29819 c 0,-1.34968 0.94164,-2.02452 1.99314,-2.02452 1.0515,0 1.99314,0.67484 1.99314,2.02452 z"
         style="font-style:normal;font-variant:normal;font-weight:normal;font-stretch:normal;font-size:15.6940155px;line-height:0.5;font-family:'Simplon Norm';-inkscape-font-specification:'Simplon Norm';text-align:start;text-anchor:start;fill:#d9230f;fill-opacity:1"
         id="path1447"
         inkscape:connector-curvature="0" />
      <path
         d="m 189.88152,168.92187 h 0.64345 l -0.54929,1.47524 h 1.00442 l 0.54929,-1.47524 V 167.274 h -1.64787 z"
         style="font-style:normal;font-variant:normal;font-weight:normal;font-stretch:normal;font-size:15.6940155px;line-height:0.5;font-family:'Simplon Norm';-inkscape-font-specification:'Simplon Norm';text-align:start;text-anchor:start;fill:#d9230f;fill-opacity:1"
         id="path1449"
         inkscape:connector-curvature="0" />
      <path
         d="m 199.12529,161.95373 h 1.99314 v -1.12997 h -1.99314 v -1.8362 h -1.17705 v 1.8362 h -1.14566 v 1.12997 h 1.14566 v 5.03778 c 0,1.38107 0.42374,1.93036 1.93037,1.93036 h 1.23982 v -1.12996 h -1.23982 c -0.56499,0 -0.75332,-0.18833 -0.75332,-0.70623 z"
         style="font-style:normal;font-variant:normal;font-weight:normal;font-stretch:normal;font-size:15.6940155px;line-height:0.5;font-family:'Simplon Norm';-inkscape-font-specification:'Simplon Norm';text-align:start;text-anchor:start;fill:#d9230f;fill-opacity:1"
         id="path1451"
         inkscape:connector-curvature="0" />
      <path
         d="m 206.10594,160.60405 c -0.73762,0 -1.5851,0.32957 -1.99314,0.98872 v -3.65671 h -1.17705 v 10.98581 h 1.17705 v -5.16333 c 0,-1.34968 0.94164,-2.02452 1.99314,-2.02452 1.0515,0 1.99314,0.67484 1.99314,2.02452 v 5.16333 h 1.17705 v -5.14763 c 0,-2.38549 -1.66356,-3.17019 -3.17019,-3.17019 z"
         style="font-style:normal;font-variant:normal;font-weight:normal;font-stretch:normal;font-size:15.6940155px;line-height:0.5;font-family:'Simplon Norm';-inkscape-font-specification:'Simplon Norm';text-align:start;text-anchor:start;fill:#d9230f;fill-opacity:1"
         id="path1453"
         inkscape:connector-curvature="0" />
      <path
         d="m 214.46889,167.94885 c -1.0515,0 -1.99314,-0.67485 -1.99314,-2.02453 v -0.7847 h 5.16333 v -1.36538 c 0,-2.38549 -1.66357,-3.17019 -3.17019,-3.17019 -1.50663,0 -3.17019,0.7847 -3.17019,3.17019 v 2.13438 c 0,2.38549 1.66356,3.1702 3.17019,3.1702 1.41246,0 2.95047,-0.67485 3.1545,-2.69938 h -1.20844 c -0.18833,1.0515 -1.02012,1.56941 -1.94606,1.56941 z m 1.99314,-3.89212 h -3.98628 v -0.29819 c 0,-1.34968 0.94164,-2.02452 1.99314,-2.02452 1.0515,0 1.99314,0.67484 1.99314,2.02452 z"
         style="font-style:normal;font-variant:normal;font-weight:normal;font-stretch:normal;font-size:15.6940155px;line-height:0.5;font-family:'Simplon Norm';-inkscape-font-specification:'Simplon Norm';text-align:start;text-anchor:start;fill:#d9230f;fill-opacity:1"
         id="path1455"
         inkscape:connector-curvature="0" />
      <path
         d="m 226.08394,161.73402 c 1.0515,0 1.99314,0.67484 1.99314,2.02452 v 0.14125 c -1.36538,0.0942 -2.52674,0.18833 -3.45269,0.45513 -1.41246,0.40804 -1.75773,1.50662 -1.75773,2.32271 0,1.66357 1.30261,2.40119 2.68368,2.40119 1.09858,0 2.00883,-0.31389 2.52674,-0.98873 v 0.83178 h 1.17705 v -5.14763 c 0,-2.38549 -1.66357,-3.17019 -3.17019,-3.17019 -1.41246,0 -2.95048,0.67484 -3.1545,2.69937 h 1.20844 c 0.18833,-1.0515 1.02011,-1.5694 1.94606,-1.5694 z m 1.99314,4.26877 c 0,1.27121 -1.00442,1.94606 -2.27564,1.94606 -1.19274,0 -1.75772,-0.56499 -1.75772,-1.30261 0,-0.47082 0.10985,-0.83178 0.70623,-1.16135 0.54929,-0.29819 1.5537,-0.40805 3.32713,-0.5336 z"
         style="font-style:normal;font-variant:normal;font-weight:normal;font-stretch:normal;font-size:15.6940155px;line-height:0.5;font-family:'Simplon Norm';-inkscape-font-specification:'Simplon Norm';text-align:start;text-anchor:start;fill:#d9230f;fill-opacity:1"
         id="path1457"
         inkscape:connector-curvature="0" />
      <path
         d="m 234.45424,169.07882 c 0.73762,0 1.5851,-0.32958 1.99314,-0.98873 v 0.83178 h 1.17705 v -10.98581 h -1.17705 v 3.65671 c -0.40804,-0.65915 -1.25552,-0.98872 -1.99314,-0.98872 -1.50663,0 -3.17019,0.7847 -3.17019,3.17019 v 2.13438 c 0,2.38549 1.66356,3.1702 3.17019,3.1702 z m -1.99314,-5.32028 c 0,-1.34968 0.94164,-2.02452 1.99314,-2.02452 1.0515,0 1.99314,0.67484 1.99314,2.02452 v 2.16578 c 0,1.34968 -0.94164,2.02453 -1.99314,2.02453 -1.0515,0 -1.99314,-0.67485 -1.99314,-2.02453 z"
         style="font-style:normal;font-variant:normal;font-weight:normal;font-stretch:normal;font-size:15.6940155px;line-height:0.5;font-family:'Simplon Norm';-inkscape-font-specification:'Simplon Norm';text-align:start;text-anchor:start;fill:#d9230f;fill-opacity:1"
         id="path1459"
         inkscape:connector-curvature="0" />
      <path
         d="m 242.91429,169.07882 c 0.73762,0 1.5851,-0.32958 1.99314,-0.98873 v 0.83178 h 1.17705 v -10.98581 h -1.17705 v 3.65671 c -0.40804,-0.65915 -1.25552,-0.98872 -1.99314,-0.98872 -1.50662,0 -3.17019,0.7847 -3.17019,3.17019 v 2.13438 c 0,2.38549 1.66357,3.1702 3.17019,3.1702 z m -1.99314,-5.32028 c 0,-1.34968 0.94164,-2.02452 1.99314,-2.02452 1.0515,0 1.99314,0.67484 1.99314,2.02452 v 2.16578 c 0,1.34968 -0.94164,2.02453 -1.99314,2.02453 -1.0515,0 -1.99314,-0.67485 -1.99314,-2.02453 z"
         style="font-style:normal;font-variant:normal;font-weight:normal;font-stretch:normal;font-size:15.6940155px;line-height:0.5;font-family:'Simplon Norm';-inkscape-font-specification:'Simplon Norm';text-align:start;text-anchor:start;fill:#d9230f;fill-opacity:1"
         id="path1461"
         inkscape:connector-curvature="0" />
      <path
         d="m 252.66126,165.02976 v -1.02011 H 248.11 v 1.02011 z"
         style="font-style:normal;font-variant:normal;font-weight:normal;font-stretch:normal;font-size:15.6940155px;line-height:0.5;font-family:'Simplon Norm';-inkscape-font-specification:'Simplon Norm';text-align:start;text-anchor:start;fill:#d9230f;fill-opacity:1"
         id="path1463"
         inkscape:connector-curvature="0" />
      <path
         d="m 259.65123,165.92432 c 0,1.34968 -0.94164,2.02453 -1.99314,2.02453 -1.0515,0 -1.99314,-0.67485 -1.99314,-2.02453 v -2.16578 c 0,-1.34968 0.94164,-2.02452 1.99314,-2.02452 1.0515,0 1.99314,0.67484 1.99314,2.02452 z m 1.17705,-2.15008 c 0,-2.38549 -1.66357,-3.17019 -3.17019,-3.17019 -1.50663,0 -3.17019,0.7847 -3.17019,3.17019 v 2.13438 c 0,2.38549 1.66356,3.1702 3.17019,3.1702 1.50662,0 3.17019,-0.78471 3.17019,-3.1702 z"
         style="font-style:normal;font-variant:normal;font-weight:normal;font-stretch:normal;font-size:15.6940155px;line-height:0.5;font-family:'Simplon Norm';-inkscape-font-specification:'Simplon Norm';text-align:start;text-anchor:start;fill:#d9230f;fill-opacity:1"
         id="path1465"
         inkscape:connector-curvature="0" />
      <path
         d="m 266.12329,160.60405 c -0.73762,0 -1.5851,0.32957 -1.99314,0.98872 v -0.76901 h -1.17705 v 8.09811 h 1.17705 v -5.16333 c 0,-1.34968 0.94164,-2.02452 1.99314,-2.02452 1.0515,0 1.99314,0.67484 1.99314,2.02452 v 5.16333 h 1.17705 v -5.14763 c 0,-2.38549 -1.66357,-3.17019 -3.17019,-3.17019 z"
         style="font-style:normal;font-variant:normal;font-weight:normal;font-stretch:normal;font-size:15.6940155px;line-height:0.5;font-family:'Simplon Norm';-inkscape-font-specification:'Simplon Norm';text-align:start;text-anchor:start;fill:#d9230f;fill-opacity:1"
         id="path1467"
         inkscape:connector-curvature="0" />
      <path
         d="m 279.83178,160.82376 h -1.16136 l -1.78912,6.309 -1.5694,-6.309 h -1.22413 l 2.13438,8.09811 h 1.22413 l 1.80482,-6.35607 1.80481,6.35607 h 1.22413 l 2.13439,-8.09811 h -1.22414 l -1.5694,6.309 z"
         style="font-style:normal;font-variant:normal;font-weight:normal;font-stretch:normal;font-size:15.6940155px;line-height:0.5;font-family:'Simplon Norm';-inkscape-font-specification:'Simplon Norm';text-align:start;text-anchor:start;fill:#d9230f;fill-opacity:1"
         id="path1469"
         inkscape:connector-curvature="0" />
      <path
         d="m 286.96616,157.93606 h -1.17705 v 1.52232 h 1.17705 z m 0,2.8877 h -1.17705 v 8.09811 h 1.17705 z"
         style="font-style:normal;font-variant:normal;font-weight:normal;font-stretch:normal;font-size:15.6940155px;line-height:0.5;font-family:'Simplon Norm';-inkscape-font-specification:'Simplon Norm';text-align:start;text-anchor:start;fill:#d9230f;fill-opacity:1"
         id="path1471"
         inkscape:connector-curvature="0" />
      <path
         d="m 290.4598,157.93606 h -1.17705 v 9.05545 c 0,1.38107 0.42374,1.93036 1.93036,1.93036 h 0.25111 v -1.12996 h -0.25111 c -0.56498,0 -0.75331,-0.18833 -0.75331,-0.70623 z"
         style="font-style:normal;font-variant:normal;font-weight:normal;font-stretch:normal;font-size:15.6940155px;line-height:0.5;font-family:'Simplon Norm';-inkscape-font-specification:'Simplon Norm';text-align:start;text-anchor:start;fill:#d9230f;fill-opacity:1"
         id="path1473"
         inkscape:connector-curvature="0" />
      <path
         d="m 294.44462,157.93606 h -1.17705 v 9.05545 c 0,1.38107 0.42373,1.93036 1.93036,1.93036 h 0.2511 v -1.12996 h -0.2511 c -0.56499,0 -0.75331,-0.18833 -0.75331,-0.70623 z"
         style="font-style:normal;font-variant:normal;font-weight:normal;font-stretch:normal;font-size:15.6940155px;line-height:0.5;font-family:'Simplon Norm';-inkscape-font-specification:'Simplon Norm';text-align:start;text-anchor:start;fill:#d9230f;fill-opacity:1"
         id="path1475"
         inkscape:connector-curvature="0" />
      <path
         d="m 303.75926,160.60405 c -1.50663,0 -3.1702,0.7847 -3.1702,3.17019 v 2.13438 c 0,2.40119 1.66357,3.1702 3.1702,3.1702 1.42815,0 2.98186,-0.69054 3.15449,-2.77785 h -1.19274 c -0.15694,1.09859 -1.02011,1.64788 -1.96175,1.64788 -1.0515,0 -1.99314,-0.67485 -1.99314,-2.02453 v -2.16578 c 0,-1.34968 0.94164,-2.02452 1.99314,-2.02452 0.94164,0 1.80481,0.54929 1.96175,1.64787 h 1.19274 c -0.17263,-2.08731 -1.72634,-2.77784 -3.15449,-2.77784 z"
         style="font-style:normal;font-variant:normal;font-weight:normal;font-stretch:normal;font-size:15.6940155px;line-height:0.5;font-family:'Simplon Norm';-inkscape-font-specification:'Simplon Norm';text-align:start;text-anchor:start;fill:#d9230f;fill-opacity:1"
         id="path1477"
         inkscape:connector-curvature="0" />
      <path
         d="m 313.84462,165.92432 c 0,1.34968 -0.94164,2.02453 -1.99314,2.02453 -1.0515,0 -1.99314,-0.67485 -1.99314,-2.02453 v -2.16578 c 0,-1.34968 0.94164,-2.02452 1.99314,-2.02452 1.0515,0 1.99314,0.67484 1.99314,2.02452 z m 1.17705,-2.15008 c 0,-2.38549 -1.66357,-3.17019 -3.17019,-3.17019 -1.50663,0 -3.17019,0.7847 -3.17019,3.17019 v 2.13438 c 0,2.38549 1.66356,3.1702 3.17019,3.1702 1.50662,0 3.17019,-0.78471 3.17019,-3.1702 z"
         style="font-style:normal;font-variant:normal;font-weight:normal;font-stretch:normal;font-size:15.6940155px;line-height:0.5;font-family:'Simplon Norm';-inkscape-font-specification:'Simplon Norm';text-align:start;text-anchor:start;fill:#d9230f;fill-opacity:1"
         id="path1479"
         inkscape:connector-curvature="0" />
      <path
         d="m 318.29217,157.93606 h -1.17705 v 9.05545 c 0,1.38107 0.42373,1.93036 1.93036,1.93036 h 0.2511 v -1.12996 h -0.2511 c -0.56499,0 -0.75331,-0.18833 -0.75331,-0.70623 z"
         style="font-style:normal;font-variant:normal;font-weight:normal;font-stretch:normal;font-size:15.6940155px;line-height:0.5;font-family:'Simplon Norm';-inkscape-font-specification:'Simplon Norm';text-align:start;text-anchor:start;fill:#d9230f;fill-opacity:1"
         id="path1481"
         inkscape:connector-curvature="0" />
      <path
         d="m 322.27697,157.93606 h -1.17705 v 9.05545 c 0,1.38107 0.42374,1.93036 1.93036,1.93036 h 0.25111 v -1.12996 h -0.25111 c -0.56498,0 -0.75331,-0.18833 -0.75331,-0.70623 z"
         style="font-style:normal;font-variant:normal;font-weight:normal;font-stretch:normal;font-size:15.6940155px;line-height:0.5;font-family:'Simplon Norm';-inkscape-font-specification:'Simplon Norm';text-align:start;text-anchor:start;fill:#d9230f;fill-opacity:1"
         id="path1483"
         inkscape:connector-curvature="0" />
      <path
         d="m 328.06658,167.94885 c -1.0515,0 -1.99314,-0.67485 -1.99314,-2.02453 v -0.7847 h 5.16333 v -1.36538 c 0,-2.38549 -1.66356,-3.17019 -3.17019,-3.17019 -1.50662,0 -3.17019,0.7847 -3.17019,3.17019 v 2.13438 c 0,2.38549 1.66357,3.1702 3.17019,3.1702 1.41246,0 2.95048,-0.67485 3.1545,-2.69938 h -1.20844 c -0.18833,1.0515 -1.02011,1.56941 -1.94606,1.56941 z m 1.99314,-3.89212 h -3.98628 v -0.29819 c 0,-1.34968 0.94164,-2.02452 1.99314,-2.02452 1.0515,0 1.99314,0.67484 1.99314,2.02452 z"
         style="font-style:normal;font-variant:normal;font-weight:normal;font-stretch:normal;font-size:15.6940155px;line-height:0.5;font-family:'Simplon Norm';-inkscape-font-specification:'Simplon Norm';text-align:start;text-anchor:start;fill:#d9230f;fill-opacity:1"
         id="path1485"
         inkscape:connector-curvature="0" />
      <path
         d="m 336.25077,160.60405 c -1.50662,0 -3.17019,0.7847 -3.17019,3.17019 v 2.13438 c 0,2.40119 1.66357,3.1702 3.17019,3.1702 1.42816,0 2.98186,-0.69054 3.1545,-2.77785 h -1.19275 c -0.15694,1.09859 -1.02011,1.64788 -1.96175,1.64788 -1.0515,0 -1.99314,-0.67485 -1.99314,-2.02453 v -2.16578 c 0,-1.34968 0.94164,-2.02452 1.99314,-2.02452 0.94164,0 1.80481,0.54929 1.96175,1.64787 h 1.19275 c -0.17264,-2.08731 -1.72634,-2.77784 -3.1545,-2.77784 z"
         style="font-style:normal;font-variant:normal;font-weight:normal;font-stretch:normal;font-size:15.6940155px;line-height:0.5;font-family:'Simplon Norm';-inkscape-font-specification:'Simplon Norm';text-align:start;text-anchor:start;fill:#d9230f;fill-opacity:1"
         id="path1487"
         inkscape:connector-curvature="0" />
      <path
         d="m 342.94623,161.95373 h 1.99314 v -1.12997 h -1.99314 v -1.8362 h -1.17705 v 1.8362 h -1.14567 v 1.12997 h 1.14567 v 5.03778 c 0,1.38107 0.42374,1.93036 1.93036,1.93036 h 1.23983 v -1.12996 h -1.23983 c -0.56498,0 -0.75331,-0.18833 -0.75331,-0.70623 z"
         style="font-style:normal;font-variant:normal;font-weight:normal;font-stretch:normal;font-size:15.6940155px;line-height:0.5;font-family:'Simplon Norm';-inkscape-font-specification:'Simplon Norm';text-align:start;text-anchor:start;fill:#d9230f;fill-opacity:1"
         id="path1489"
         inkscape:connector-curvature="0" />
      <path
         d="m 141.11776,187.94885 c -1.0515,0 -1.99314,-0.67485 -1.99314,-2.02453 v -0.7847 h 5.16333 v -1.36538 c 0,-2.38549 -1.66356,-3.17019 -3.17019,-3.17019 -1.50663,0 -3.17019,0.7847 -3.17019,3.17019 v 2.13438 c 0,2.38549 1.66356,3.1702 3.17019,3.1702 1.41246,0 2.95048,-0.67485 3.1545,-2.69938 h -1.20844 c -0.18833,1.0515 -1.02011,1.56941 -1.94606,1.56941 z m 1.99314,-3.89212 h -3.98628 v -0.29819 c 0,-1.34968 0.94164,-2.02452 1.99314,-2.02452 1.0515,0 1.99314,0.67484 1.99314,2.02452 z"
         style="font-style:normal;font-variant:normal;font-weight:normal;font-stretch:normal;font-size:15.6940155px;line-height:0.5;font-family:'Simplon Norm';-inkscape-font-specification:'Simplon Norm';text-align:start;text-anchor:start;fill:#d9230f;fill-opacity:1"
         id="path1491"
         inkscape:connector-curvature="0" />
      <path
         d="m 152.3944,180.82376 h -1.25552 l -2.32271,6.5758 -2.32272,-6.5758 h -1.25552 l 2.91909,8.09811 h 1.31829 z"
         style="font-style:normal;font-variant:normal;font-weight:normal;font-stretch:normal;font-size:15.6940155px;line-height:0.5;font-family:'Simplon Norm';-inkscape-font-specification:'Simplon Norm';text-align:start;text-anchor:start;fill:#d9230f;fill-opacity:1"
         id="path1493"
         inkscape:connector-curvature="0" />
      <path
         d="m 154.85444,177.93606 h -1.17705 v 1.52232 h 1.17705 z m 0,2.8877 h -1.17705 v 8.09811 h 1.17705 z"
         style="font-style:normal;font-variant:normal;font-weight:normal;font-stretch:normal;font-size:15.6940155px;line-height:0.5;font-family:'Simplon Norm';-inkscape-font-specification:'Simplon Norm';text-align:start;text-anchor:start;fill:#d9230f;fill-opacity:1"
         id="path1495"
         inkscape:connector-curvature="0" />
      <path
         d="m 160.15288,189.07882 c 0.73762,0 1.5851,-0.32958 1.99314,-0.98873 v 0.83178 h 1.17706 v -10.98581 h -1.17706 v 3.65671 c -0.40804,-0.65915 -1.25552,-0.98872 -1.99314,-0.98872 -1.50662,0 -3.17019,0.7847 -3.17019,3.17019 v 2.13438 c 0,2.38549 1.66357,3.1702 3.17019,3.1702 z m -1.99314,-5.32028 c 0,-1.34968 0.94165,-2.02452 1.99314,-2.02452 1.0515,0 1.99314,0.67484 1.99314,2.02452 v 2.16578 c 0,1.34968 -0.94164,2.02453 -1.99314,2.02453 -1.05149,0 -1.99314,-0.67485 -1.99314,-2.02453 z"
         style="font-style:normal;font-variant:normal;font-weight:normal;font-stretch:normal;font-size:15.6940155px;line-height:0.5;font-family:'Simplon Norm';-inkscape-font-specification:'Simplon Norm';text-align:start;text-anchor:start;fill:#d9230f;fill-opacity:1"
         id="path1497"
         inkscape:connector-curvature="0" />
      <path
         d="m 168.61294,187.94885 c -1.0515,0 -1.99314,-0.67485 -1.99314,-2.02453 v -0.7847 h 5.16333 v -1.36538 c 0,-2.38549 -1.66357,-3.17019 -3.17019,-3.17019 -1.50663,0 -3.17019,0.7847 -3.17019,3.17019 v 2.13438 c 0,2.38549 1.66356,3.1702 3.17019,3.1702 1.41246,0 2.95047,-0.67485 3.1545,-2.69938 H 170.559 c -0.18833,1.0515 -1.02011,1.56941 -1.94606,1.56941 z m 1.99314,-3.89212 h -3.98628 v -0.29819 c 0,-1.34968 0.94164,-2.02452 1.99314,-2.02452 1.0515,0 1.99314,0.67484 1.99314,2.02452 z"
         style="font-style:normal;font-variant:normal;font-weight:normal;font-stretch:normal;font-size:15.6940155px;line-height:0.5;font-family:'Simplon Norm';-inkscape-font-specification:'Simplon Norm';text-align:start;text-anchor:start;fill:#d9230f;fill-opacity:1"
         id="path1499"
         inkscape:connector-curvature="0" />
      <path
         d="m 177.01684,180.60405 c -0.73762,0 -1.5851,0.32957 -1.99314,0.98872 v -0.76901 h -1.17705 v 8.09811 h 1.17705 v -5.16333 c 0,-1.34968 0.94164,-2.02452 1.99314,-2.02452 1.0515,0 1.99314,0.67484 1.99314,2.02452 v 5.16333 h 1.17705 v -5.14763 c 0,-2.38549 -1.66356,-3.17019 -3.17019,-3.17019 z"
         style="font-style:normal;font-variant:normal;font-weight:normal;font-stretch:normal;font-size:15.6940155px;line-height:0.5;font-family:'Simplon Norm';-inkscape-font-specification:'Simplon Norm';text-align:start;text-anchor:start;fill:#d9230f;fill-opacity:1"
         id="path1501"
         inkscape:connector-curvature="0" />
      <path
         d="m 185.37979,180.60405 c -1.50663,0 -3.17019,0.7847 -3.17019,3.17019 v 2.13438 c 0,2.40119 1.66356,3.1702 3.17019,3.1702 1.42815,0 2.98186,-0.69054 3.1545,-2.77785 h -1.19275 c -0.15694,1.09859 -1.02011,1.64788 -1.96175,1.64788 -1.0515,0 -1.99314,-0.67485 -1.99314,-2.02453 v -2.16578 c 0,-1.34968 0.94164,-2.02452 1.99314,-2.02452 0.94164,0 1.80481,0.54929 1.96175,1.64787 h 1.19275 c -0.17264,-2.08731 -1.72635,-2.77784 -3.1545,-2.77784 z"
         style="font-style:normal;font-variant:normal;font-weight:normal;font-stretch:normal;font-size:15.6940155px;line-height:0.5;font-family:'Simplon Norm';-inkscape-font-specification:'Simplon Norm';text-align:start;text-anchor:start;fill:#d9230f;fill-opacity:1"
         id="path1503"
         inkscape:connector-curvature="0" />
      <path
         d="m 193.47202,187.94885 c -1.0515,0 -1.99314,-0.67485 -1.99314,-2.02453 v -0.7847 h 5.16333 v -1.36538 c 0,-2.38549 -1.66357,-3.17019 -3.17019,-3.17019 -1.50663,0 -3.1702,0.7847 -3.1702,3.17019 v 2.13438 c 0,2.38549 1.66357,3.1702 3.1702,3.1702 1.41246,0 2.95047,-0.67485 3.15449,-2.69938 h -1.20844 c -0.18832,1.0515 -1.02011,1.56941 -1.94605,1.56941 z m 1.99314,-3.89212 h -3.98628 v -0.29819 c 0,-1.34968 0.94164,-2.02452 1.99314,-2.02452 1.0515,0 1.99314,0.67484 1.99314,2.02452 z"
         style="font-style:normal;font-variant:normal;font-weight:normal;font-stretch:normal;font-size:15.6940155px;line-height:0.5;font-family:'Simplon Norm';-inkscape-font-specification:'Simplon Norm';text-align:start;text-anchor:start;fill:#d9230f;fill-opacity:1"
         id="path1505"
         inkscape:connector-curvature="0" />
      <path
         d="m 204.04169,183.19356 c -0.12555,-1.80481 -1.33399,-2.58951 -2.96617,-2.58951 -1.49093,0 -2.73076,0.86317 -2.73076,2.3541 0,1.44385 1.11428,2.04022 1.99314,2.24424 l 1.5851,0.39235 c 0.89455,0.21972 1.12996,0.67485 1.12996,1.19275 -0.0157,0.70623 -0.53359,1.16136 -1.66356,1.16136 -1.08289,0 -1.93036,-0.47082 -2.04022,-1.61649 h -1.20844 c 0.12555,1.96175 1.55371,2.74646 3.24866,2.74646 1.64787,0 2.85631,-0.65915 2.85631,-2.25994 0,-1.49093 -0.84748,-2.103 -2.07161,-2.40119 l -1.52232,-0.37665 c -0.65915,-0.15694 -1.11427,-0.45513 -1.11427,-1.12997 0,-0.73762 0.64345,-1.17705 1.52231,-1.17705 1.00442,0 1.63218,0.5179 1.77343,1.45954 z"
         style="font-style:normal;font-variant:normal;font-weight:normal;font-stretch:normal;font-size:15.6940155px;line-height:0.5;font-family:'Simplon Norm';-inkscape-font-specification:'Simplon Norm';text-align:start;text-anchor:start;fill:#d9230f;fill-opacity:1"
         id="path1507"
         inkscape:connector-curvature="0" />
      <path
         d="m 212.47428,181.73402 c 1.0515,0 1.99314,0.67484 1.99314,2.02452 v 0.14125 c -1.36538,0.0942 -2.52674,0.18833 -3.45268,0.45513 -1.41246,0.40804 -1.75773,1.50662 -1.75773,2.32271 0,1.66357 1.3026,2.40119 2.68367,2.40119 1.09858,0 2.00884,-0.31389 2.52674,-0.98873 v 0.83178 h 1.17705 v -5.14763 c 0,-2.38549 -1.66356,-3.17019 -3.17019,-3.17019 -1.41246,0 -2.95047,0.67484 -3.1545,2.69937 h 1.20844 c 0.18833,-1.0515 1.02011,-1.5694 1.94606,-1.5694 z m 1.99314,4.26877 c 0,1.27121 -1.00442,1.94606 -2.27563,1.94606 -1.19275,0 -1.75773,-0.56499 -1.75773,-1.30261 0,-0.47082 0.10986,-0.83178 0.70623,-1.16135 0.54929,-0.29819 1.55371,-0.40805 3.32713,-0.5336 z"
         style="font-style:normal;font-variant:normal;font-weight:normal;font-stretch:normal;font-size:15.6940155px;line-height:0.5;font-family:'Simplon Norm';-inkscape-font-specification:'Simplon Norm';text-align:start;text-anchor:start;fill:#d9230f;fill-opacity:1"
         id="path1509"
         inkscape:connector-curvature="0" />
      <path
         d="m 221.0643,189.07882 c 1.50662,0 3.17019,-0.78471 3.17019,-3.1702 v -2.13438 c 0,-2.38549 -1.66357,-3.17019 -3.17019,-3.17019 -0.73762,0 -1.5851,0.32957 -1.99314,0.98872 v -3.65671 h -1.17705 v 10.98581 h 1.17705 v -0.83178 c 0.40804,0.65915 1.25552,0.98873 1.99314,0.98873 z m 1.99314,-3.1545 c 0,1.34968 -0.94164,2.02453 -1.99314,2.02453 -1.0515,0 -1.99314,-0.67485 -1.99314,-2.02453 v -2.16578 c 0,-1.34968 0.94164,-2.02452 1.99314,-2.02452 1.0515,0 1.99314,0.67484 1.99314,2.02452 z"
         style="font-style:normal;font-variant:normal;font-weight:normal;font-stretch:normal;font-size:15.6940155px;line-height:0.5;font-family:'Simplon Norm';-inkscape-font-specification:'Simplon Norm';text-align:start;text-anchor:start;fill:#d9230f;fill-opacity:1"
         id="path1511"
         inkscape:connector-curvature="0" />
      <path
         d="m 231.29778,185.92432 c 0,1.34968 -0.94164,2.02453 -1.99314,2.02453 -1.0515,0 -1.99314,-0.67485 -1.99314,-2.02453 v -2.16578 c 0,-1.34968 0.94164,-2.02452 1.99314,-2.02452 1.0515,0 1.99314,0.67484 1.99314,2.02452 z m 1.17705,-2.15008 c 0,-2.38549 -1.66356,-3.17019 -3.17019,-3.17019 -1.50662,0 -3.17019,0.7847 -3.17019,3.17019 v 2.13438 c 0,2.38549 1.66357,3.1702 3.17019,3.1702 1.50663,0 3.17019,-0.78471 3.17019,-3.1702 z"
         style="font-style:normal;font-variant:normal;font-weight:normal;font-stretch:normal;font-size:15.6940155px;line-height:0.5;font-family:'Simplon Norm';-inkscape-font-specification:'Simplon Norm';text-align:start;text-anchor:start;fill:#d9230f;fill-opacity:1"
         id="path1513"
         inkscape:connector-curvature="0" />
      <path
         d="m 237.6129,189.07882 c 0.69054,0 1.53802,-0.34527 1.94606,-0.98873 v 0.83178 h 1.17705 v -8.09811 h -1.17705 v 5.10056 c 0,1.33399 -0.95734,2.02453 -1.94606,2.02453 -0.95733,0 -1.94606,-0.62776 -1.94606,-2.07161 v -5.05348 h -1.17705 v 5.13195 c 0,2.40118 1.78912,3.12311 3.12311,3.12311 z"
         style="font-style:normal;font-variant:normal;font-weight:normal;font-stretch:normal;font-size:15.6940155px;line-height:0.5;font-family:'Simplon Norm';-inkscape-font-specification:'Simplon Norm';text-align:start;text-anchor:start;fill:#d9230f;fill-opacity:1"
         id="path1515"
         inkscape:connector-curvature="0" />
      <path
         d="m 244.64407,181.95373 h 1.99314 v -1.12997 h -1.99314 v -1.8362 h -1.17706 v 1.8362 h -1.14566 v 1.12997 h 1.14566 v 5.03778 c 0,1.38107 0.42374,1.93036 1.93037,1.93036 h 1.23983 v -1.12996 h -1.23983 c -0.56499,0 -0.75331,-0.18833 -0.75331,-0.70623 z"
         style="font-style:normal;font-variant:normal;font-weight:normal;font-stretch:normal;font-size:15.6940155px;line-height:0.5;font-family:'Simplon Norm';-inkscape-font-specification:'Simplon Norm';text-align:start;text-anchor:start;fill:#d9230f;fill-opacity:1"
         id="path1517"
         inkscape:connector-curvature="0" />
      <path
         d="m 253.81575,184.27645 c 0,-1.09858 0.75331,-1.56941 1.53801,-1.56941 h 0.97303 v -2.02452 h -0.62776 c -0.95733,0 -1.64787,0.48651 -1.88328,1.02011 v -0.87887 h -2.07161 v 8.09811 h 2.07161 z"
         style="font-style:normal;font-variant:normal;font-weight:bold;font-stretch:normal;font-size:15.6940155px;font-family:'Simplon Norm';-inkscape-font-specification:'Simplon Norm Bold'"
         id="path1519"
         inkscape:connector-curvature="0" />
      <path
         d="m 264.38297,185.57905 v -1.25552 c 0,-2.24425 -1.28691,-3.71948 -3.60962,-3.71948 -2.32271,0 -3.60962,1.47523 -3.60962,3.71948 v 1.0358 c 0,2.24425 1.28691,3.71949 3.60962,3.71949 1.97745,0 3.20158,-1.0672 3.53115,-2.76215 h -2.10299 c -0.20403,0.54929 -0.70623,0.89456 -1.42816,0.89456 -0.98872,0 -1.53801,-0.62776 -1.53801,-1.5851 v -0.0471 z m -3.60962,-3.10742 c 0.92595,0 1.45954,0.5336 1.52232,1.38108 v 0.0157 h -3.06033 v -0.0157 c 0.0785,-0.83178 0.61206,-1.38108 1.53801,-1.38108 z"
         style="font-style:normal;font-variant:normal;font-weight:bold;font-stretch:normal;font-size:15.6940155px;font-family:'Simplon Norm';-inkscape-font-specification:'Simplon Norm Bold'"
         id="path1521"
         inkscape:connector-curvature="0" />
      <path
         d="m 268.63408,187.05429 c -0.50221,0 -0.59637,-0.2668 -0.59637,-0.64346 v -8.47477 h -2.07161 v 8.9142 c 0,1.30261 0.62776,2.07161 2.07161,2.07161 h 1.00442 v -1.86758 z"
         style="font-style:normal;font-variant:normal;font-weight:bold;font-stretch:normal;font-size:15.6940155px;font-family:'Simplon Norm';-inkscape-font-specification:'Simplon Norm Bold'"
         id="path1523"
         inkscape:connector-curvature="0" />
      <path
         d="m 275.29227,183.66438 c -1.22414,0.0942 -2.84062,0.21972 -3.64101,0.59637 -1.12997,0.5336 -1.53802,1.23983 -1.53802,2.41688 0,1.49093 1.09858,2.40119 2.95048,2.40119 1.23982,0 1.88328,-0.47083 2.25994,-1.08289 v 0.92594 h 2.07161 v -4.59834 c 0,-2.24425 -1.28691,-3.71948 -3.60963,-3.71948 -1.97744,0 -3.18588,1.06719 -3.51546,2.76214 h 2.08731 c 0.20402,-0.54929 0.70623,-0.89456 1.42815,-0.89456 0.84748,0 1.36538,0.45513 1.50663,1.17706 z m -2.66799,2.0873 c 0.39236,-0.20402 1.52232,-0.29818 2.69938,-0.37665 v 0.2668 c 0,1.02011 -0.84748,1.61648 -1.91467,1.61648 -0.92595,0 -1.22414,-0.42374 -1.22414,-0.81609 0,-0.34527 0.0942,-0.5179 0.43943,-0.69054 z"
         style="font-style:normal;font-variant:normal;font-weight:bold;font-stretch:normal;font-size:15.6940155px;font-family:'Simplon Norm';-inkscape-font-specification:'Simplon Norm Bold'"
         id="path1525"
         inkscape:connector-curvature="0" />
      <path
         d="m 282.22265,187.05429 c -0.5022,0 -0.59637,-0.2668 -0.59637,-0.64346 v -3.71948 h 1.99314 v -1.86759 h -1.99314 v -1.8362 h -2.07161 v 1.8362 h -1.14566 v 1.86759 h 1.14566 v 4.15891 c 0,1.30261 0.62776,2.07161 2.07161,2.07161 h 1.99314 v -1.86758 z"
         style="font-style:normal;font-variant:normal;font-weight:bold;font-stretch:normal;font-size:15.6940155px;font-family:'Simplon Norm';-inkscape-font-specification:'Simplon Norm Bold'"
         id="path1527"
         inkscape:connector-curvature="0" />
      <path
         d="m 291.90881,185.57905 v -1.25552 c 0,-2.24425 -1.28691,-3.71948 -3.60963,-3.71948 -2.32271,0 -3.60962,1.47523 -3.60962,3.71948 v 1.0358 c 0,2.24425 1.28691,3.71949 3.60962,3.71949 1.97745,0 3.20158,-1.0672 3.53116,-2.76215 h -2.103 c -0.20402,0.54929 -0.70623,0.89456 -1.42816,0.89456 -0.98872,0 -1.53801,-0.62776 -1.53801,-1.5851 v -0.0471 z m -3.60963,-3.10742 c 0.92595,0 1.45955,0.5336 1.52232,1.38108 v 0.0157 h -3.06033 v -0.0157 c 0.0785,-0.83178 0.61207,-1.38108 1.53801,-1.38108 z"
         style="font-style:normal;font-variant:normal;font-weight:bold;font-stretch:normal;font-size:15.6940155px;font-family:'Simplon Norm';-inkscape-font-specification:'Simplon Norm Bold'"
         id="path1529"
         inkscape:connector-curvature="0" />
      <path
         d="m 298.41985,188.15287 v 0.769 h 2.07161 v -10.98581 h -2.07161 v 3.59393 c -0.36096,-0.54929 -1.17705,-0.92594 -1.89897,-0.92594 -1.64787,0 -3.24866,1.12997 -3.24866,3.51546 v 1.44385 c 0,2.38549 1.60079,3.51546 3.24866,3.51546 0.72192,0 1.53801,-0.37666 1.89897,-0.92595 z m -3.07602,-3.95489 c 0,-1.09858 0.75331,-1.56941 1.53801,-1.56941 0.7847,0 1.53801,0.47083 1.53801,1.56941 v 1.28691 c 0,1.09858 -0.75331,1.5694 -1.53801,1.5694 -0.7847,0 -1.53801,-0.47082 -1.53801,-1.5694 z"
         style="font-style:normal;font-variant:normal;font-weight:bold;font-stretch:normal;font-size:15.6940155px;font-family:'Simplon Norm';-inkscape-font-specification:'Simplon Norm Bold'"
         id="path1531"
         inkscape:connector-curvature="0" />
      <path
         d="m 308.59571,185.98709 -1.80482,-5.16333 h -2.18146 l 2.91908,8.09811 h 2.13439 l 2.91909,-8.09811 h -2.18147 z"
         style="font-style:normal;font-variant:normal;font-weight:bold;font-stretch:normal;font-size:15.6940155px;font-family:'Simplon Norm';-inkscape-font-specification:'Simplon Norm Bold'"
         id="path1533"
         inkscape:connector-curvature="0" />
      <path
         d="m 315.45768,177.93606 h -2.07161 v 1.8362 h 2.07161 z m 0,2.8877 h -2.07161 v 8.09811 h 2.07161 z"
         style="font-style:normal;font-variant:normal;font-weight:bold;font-stretch:normal;font-size:15.6940155px;font-family:'Simplon Norm';-inkscape-font-specification:'Simplon Norm Bold'"
         id="path1535"
         inkscape:connector-curvature="0" />
      <path
         d="m 322.23675,188.15287 v 0.769 h 2.07161 v -10.98581 h -2.07161 v 3.59393 c -0.36096,-0.54929 -1.17705,-0.92594 -1.89898,-0.92594 -1.64787,0 -3.24866,1.12997 -3.24866,3.51546 v 1.44385 c 0,2.38549 1.60079,3.51546 3.24866,3.51546 0.72193,0 1.53802,-0.37666 1.89898,-0.92595 z m -3.07603,-3.95489 c 0,-1.09858 0.75331,-1.56941 1.53802,-1.56941 0.7847,0 1.53801,0.47083 1.53801,1.56941 v 1.28691 c 0,1.09858 -0.75331,1.5694 -1.53801,1.5694 -0.78471,0 -1.53802,-0.47082 -1.53802,-1.5694 z"
         style="font-style:normal;font-variant:normal;font-weight:bold;font-stretch:normal;font-size:15.6940155px;font-family:'Simplon Norm';-inkscape-font-specification:'Simplon Norm Bold'"
         id="path1537"
         inkscape:connector-curvature="0" />
      <path
         d="m 333.16689,185.57905 v -1.25552 c 0,-2.24425 -1.2869,-3.71948 -3.60962,-3.71948 -2.32271,0 -3.60962,1.47523 -3.60962,3.71948 v 1.0358 c 0,2.24425 1.28691,3.71949 3.60962,3.71949 1.97745,0 3.20158,-1.0672 3.53115,-2.76215 h -2.10299 c -0.20403,0.54929 -0.70623,0.89456 -1.42816,0.89456 -0.98872,0 -1.53801,-0.62776 -1.53801,-1.5851 v -0.0471 z m -3.60962,-3.10742 c 0.92595,0 1.45954,0.5336 1.52232,1.38108 v 0.0157 h -3.06033 v -0.0157 c 0.0785,-0.83178 0.61206,-1.38108 1.53801,-1.38108 z"
         style="font-style:normal;font-variant:normal;font-weight:bold;font-stretch:normal;font-size:15.6940155px;font-family:'Simplon Norm';-inkscape-font-specification:'Simplon Norm Bold'"
         id="path1539"
         inkscape:connector-curvature="0" />
      <path
         d="m 334.53032,185.35933 c 0,2.24425 1.28691,3.71949 3.60962,3.71949 2.32272,0 3.60963,-1.47524 3.60963,-3.71949 v -1.0358 c 0,-2.24425 -1.28691,-3.71948 -3.60963,-3.71948 -2.32271,0 -3.60962,1.47523 -3.60962,3.71948 z m 5.14764,0.2668 c 0,0.95734 -0.54929,1.5851 -1.53802,1.5851 -0.98872,0 -1.53801,-0.62776 -1.53801,-1.5851 v -1.5694 c 0,-0.95733 0.54929,-1.5851 1.53801,-1.5851 0.98873,0 1.53802,0.62777 1.53802,1.5851 z"
         style="font-style:normal;font-variant:normal;font-weight:bold;font-stretch:normal;font-size:15.6940155px;font-family:'Simplon Norm';-inkscape-font-specification:'Simplon Norm Bold'"
         id="path1541"
         inkscape:connector-curvature="0" />
      <path
         d="m 346.34521,189.07882 c 1.69495,0 3.1545,-0.69054 3.1545,-2.49535 0,-1.67926 -1.08289,-2.29133 -1.96175,-2.49535 l -1.82051,-0.40805 c -0.34527,-0.0785 -0.62776,-0.2511 -0.62776,-0.59637 0.0157,-0.37666 0.36096,-0.61207 0.95733,-0.61207 0.51791,0 0.97303,0.23541 1.08289,0.75332 h 2.11869 c -0.14124,-1.8362 -1.49093,-2.6209 -3.1388,-2.6209 -1.66357,0 -3.09172,0.91025 -3.09172,2.49535 0,1.58509 1.11427,2.27563 1.99314,2.47965 l 1.69495,0.37666 c 0.48652,0.10985 0.72193,0.29818 0.72193,0.62776 0,0.53359 -0.61207,0.62776 -1.02011,0.62776 -0.67485,0 -1.41247,-0.28249 -1.50663,-0.91026 h -2.07161 c 0.0785,1.91467 1.8362,2.77785 3.51546,2.77785 z"
         style="font-style:normal;font-variant:normal;font-weight:bold;font-stretch:normal;font-size:15.6940155px;font-family:'Simplon Norm';-inkscape-font-specification:'Simplon Norm Bold'"
         id="path1543"
         inkscape:connector-curvature="0" />
    </g>
    <g
       id="g6764"
       transform="translate(15.875)">
      <g
         transform="matrix(0.54946026,0,0,0.54946026,8.6908931,30.455734)"
         id="g6735">
        <g
           id="g1601"
           transform="matrix(0.41213465,0,0,0.41213465,-87.299361,268.01445)">
          <path
             sodipodi:nodetypes="cscccsccsscc"
             style="fill:none;fill-opacity:1;stroke:#d9230f;stroke-width:6.46199989;stroke-miterlimit:4;stroke-dasharray:none;stroke-opacity:1"
             id="path2-6-1-9"
             d="m 297.26728,-483.05314 c -19.74211,0.2187 -35.62526,16.4584 -35.40664,36.2007 0.0757,6.8361 2.08298,13.4469 5.8101,19.1504 l -5.63096,15.3003 c -0.14008,0.3794 -0.0372,0.8044 0.25961,1.0784 0.191,0.1764 0.43882,0.268 0.68858,0.2648 0.13744,0 0.27685,-0.038 0.40737,-0.092 l 14.12252,-6.5094 c 6.07454,4.1482 13.16553,6.2941 20.54327,6.2124 19.74391,-0.2186 35.62621,-16.4584 35.40759,-36.1996 -0.21863,-19.7422 -16.45757,-35.6262 -36.2015,-35.4076 z"
             inkscape:connector-curvature="0" />
          <g
             aria-label="ZH"
             transform="matrix(0.34297746,0,0,0.34297746,92.093057,-1205.6263)"
             style="font-style:normal;font-weight:normal;font-size:40px;line-height:1.25;font-family:sans-serif;letter-spacing:0px;word-spacing:0px;fill:#000000;fill-opacity:1;stroke:none"
             id="flowRoot1471">
            <path
               d="m 596.42122,2245.2198 v -12.768 h -34.08 l 33.6,-41.664 v -12.768 h -50.208 v 12.768 h 33.12 l -33.6,41.664 v 12.768 z"
               style="font-style:normal;font-variant:normal;font-weight:bold;font-stretch:normal;font-size:96px;font-family:'Simplon Norm';-inkscape-font-specification:'Simplon Norm Bold'"
               id="path1549"
               inkscape:connector-curvature="0" />
            <path
               d="m 643.07572,2204.8998 h -24.96 v -26.88 h -12.864 v 67.2 h 12.864 v -27.552 h 24.96 v 27.552 h 12.864 v -67.2 h -12.864 z"
               style="font-style:normal;font-variant:normal;font-weight:bold;font-stretch:normal;font-size:96px;font-family:'Simplon Norm';-inkscape-font-specification:'Simplon Norm Bold'"
               id="path1551"
               inkscape:connector-curvature="0" />
          </g>
          <g
             id="g6770"
             style="font-style:normal;font-weight:normal;font-size:40px;line-height:1.25;font-family:sans-serif;letter-spacing:0px;word-spacing:0px;fill:#808080;fill-opacity:1;stroke:none"
             transform="matrix(0.34297746,0,0,0.34297746,92.093057,-1205.6263)"
             aria-label="ZH">
            <path
               inkscape:connector-curvature="0"
               id="path6766"
               style="font-style:normal;font-variant:normal;font-weight:bold;font-stretch:normal;font-size:96px;font-family:'Simplon Norm';-inkscape-font-specification:'Simplon Norm Bold';fill:#808080;fill-opacity:1"
               d="m 596.42122,2245.2198 v -12.768 h -34.08 l 33.6,-41.664 v -12.768 h -50.208 v 12.768 h 33.12 l -33.6,41.664 v 12.768 z" />
            <path
               inkscape:connector-curvature="0"
               id="path6768"
               style="font-style:normal;font-variant:normal;font-weight:bold;font-stretch:normal;font-size:96px;font-family:'Simplon Norm';-inkscape-font-specification:'Simplon Norm Bold';fill:#808080;fill-opacity:1"
               d="m 643.07572,2204.8998 h -24.96 v -26.88 h -12.864 v 67.2 h 12.864 v -27.552 h 24.96 v 27.552 h 12.864 v -67.2 h -12.864 z" />
          </g>
        </g>
        <g
           id="g1608"
           transform="matrix(0.41213465,0,0,0.41213465,-82.455537,267.47516)">
          <path
             sodipodi:nodetypes="cscccsccsscc"
             style="fill:none;fill-opacity:1;stroke:#d9230f;stroke-width:6.46199989;stroke-miterlimit:4;stroke-dasharray:none;stroke-opacity:1"
             id="path2-6-1"
             d="m 387.58952,-481.7447 c -19.74211,0.2187 -35.62526,16.45844 -35.40664,36.20068 0.0757,6.83616 2.08298,13.44689 5.8101,19.15047 l -5.63096,15.30031 c -0.14008,0.3794 -0.0372,0.80438 0.25961,1.07835 0.191,0.17637 0.43882,0.268 0.68858,0.26479 0.13744,-0.001 0.27685,-0.038 0.40737,-0.0918 l 14.12252,-6.50936 c 6.07454,4.14821 13.16553,6.29407 20.54327,6.2124 19.74391,-0.21862 35.62621,-16.45843 35.40759,-36.1996 -0.21863,-19.74225 -16.45757,-35.62624 -36.2015,-35.40764 z"
             inkscape:connector-curvature="0" />
          <g
             aria-label="ES"
             transform="matrix(0.34297747,0,0,0.34297747,183.37703,-1205.2285)"
             style="font-style:normal;font-weight:normal;font-size:40px;line-height:1.25;font-family:sans-serif;letter-spacing:0px;word-spacing:0px;fill:#808080;fill-opacity:1;stroke:none"
             id="flowRoot1471-1">
            <path
               d="m 562.05322,2190.7878 h 28.032 v -12.768 h -40.896 v 67.2 h 40.896 v -12.768 h -28.032 v -14.784 h 28.032 v -12.768 h -28.032 z"
               style="font-style:normal;font-variant:normal;font-weight:bold;font-stretch:normal;font-size:96px;font-family:'Simplon Norm';-inkscape-font-specification:'Simplon Norm Bold';fill:#808080;fill-opacity:1"
               id="path1554"
               inkscape:connector-curvature="0" />
            <path
               d="m 621.57922,2246.1798 c 14.592,0 22.464,-7.392 22.464,-19.488 0,-11.328 -5.568,-17.664 -15.936,-20.448 l -10.944,-2.976 c -3.648,-0.96 -6.72,-2.688 -6.72,-6.624 0,-4.704 3.84,-6.816 9.216,-6.816 4.32,0 9.024,2.016 10.176,6.528 h 13.248 c -1.44,-11.424 -9.792,-19.296 -23.232,-19.296 -11.712,0 -22.272,6.144 -22.272,19.584 0,9.888 5.088,17.088 15.36,19.872 l 11.328,3.072 c 4.704,1.248 6.912,3.36 6.912,7.104 0,4.608 -3.936,6.72 -9.6,6.72 -6.432,0 -10.848,-3.744 -11.616,-9.408 h -13.248 c 0.672,13.344 10.176,22.176 24.864,22.176 z"
               style="font-style:normal;font-variant:normal;font-weight:bold;font-stretch:normal;font-size:96px;font-family:'Simplon Norm';-inkscape-font-specification:'Simplon Norm Bold';fill:#808080;fill-opacity:1"
               id="path1556"
               inkscape:connector-curvature="0" />
          </g>
        </g>
        <g
           id="g1615"
           transform="matrix(0.41213465,0,0,0.41213465,18.64985,229.47748)">
          <path
             sodipodi:nodetypes="cscccsccsscc"
             style="fill:none;fill-opacity:1;stroke:#d9230f;stroke-width:6.46199989;stroke-miterlimit:4;stroke-dasharray:none;stroke-opacity:1"
             id="path2-6-1-9-1"
             d="m 244.34353,-389.54735 c -19.74211,0.2187 -35.62526,16.4584 -35.40664,36.2007 0.0757,6.8361 2.08298,13.4469 5.8101,19.1504 l -5.63096,15.3003 c -0.14008,0.3794 -0.0372,0.8044 0.25961,1.0784 0.191,0.1764 0.43882,0.268 0.68858,0.2648 0.13744,0 0.27685,-0.038 0.40737,-0.092 l 14.12252,-6.5094 c 6.07454,4.1482 13.16553,6.2941 20.54327,6.2124 19.74391,-0.2186 35.62621,-16.4584 35.40759,-36.1996 -0.21863,-19.7422 -16.45757,-35.6262 -36.2015,-35.4076 z"
             inkscape:connector-curvature="0" />
          <g
             aria-label="EN"
             transform="matrix(0.34297747,0,0,0.34297747,38.535121,-1112.1428)"
             style="font-style:normal;font-weight:normal;font-size:40px;line-height:1.25;font-family:sans-serif;letter-spacing:0px;word-spacing:0px;fill:#808080;fill-opacity:0.94117647;stroke:none"
             id="flowRoot1471-1-4">
            <path
               d="m 562.05322,2190.7878 h 28.032 v -12.768 h -40.896 v 67.2 h 40.896 v -12.768 h -28.032 v -14.784 h 28.032 v -12.768 h -28.032 z"
               style="font-style:normal;font-variant:normal;font-weight:bold;font-stretch:normal;font-size:96px;font-family:'Simplon Norm';-inkscape-font-specification:'Simplon Norm Bold';fill:#808080;fill-opacity:0.94117647"
               id="path1559"
               inkscape:connector-curvature="0" />
            <path
               d="m 651.62722,2178.0198 h -12.864 v 43.296 l -24.96,-43.296 h -12.864 v 67.2 h 12.864 v -43.296 l 24.96,43.296 h 12.864 z"
               style="font-style:normal;font-variant:normal;font-weight:bold;font-stretch:normal;font-size:96px;font-family:'Simplon Norm';-inkscape-font-specification:'Simplon Norm Bold';fill:#808080;fill-opacity:0.94117647"
               id="path1561"
               inkscape:connector-curvature="0" />
          </g>
        </g>
      </g>
      <g
         transform="matrix(0.54946026,0,0,0.54946026,8.0698399,30.455734)"
         id="g6718">
        <g
           id="g1594"
           transform="matrix(0.41213465,0,0,0.41213465,-83.239284,273.4848)">
          <path
             sodipodi:nodetypes="cscccsccsscc"
             style="fill:none;fill-opacity:1;stroke:#d9230f;stroke-width:6.46199989;stroke-miterlimit:4;stroke-dasharray:none;stroke-opacity:1"
             id="path2-6-1-3"
             d="m 337.43464,-389.54735 c -19.74212,0.2187 -35.62526,16.4585 -35.40664,36.2007 0.0757,6.8362 2.08298,13.4469 5.81009,19.1505 l -5.63096,15.3003 c -0.14008,0.3794 -0.0372,0.8044 0.25961,1.0783 0.191,0.1764 0.43883,0.268 0.68858,0.2648 0.13744,-10e-4 0.27685,-0.038 0.40738,-0.092 l 14.12251,-6.5093 c 6.07454,4.1482 13.16553,6.294 20.54328,6.2124 19.74391,-0.2187 35.62621,-16.4585 35.40759,-36.1996 -0.21864,-19.7423 -16.45757,-35.6263 -36.20151,-35.4077 z"
             inkscape:connector-curvature="0" />
          <g
             aria-label="PT"
             transform="matrix(0.34297747,0,0,0.34297747,131.80922,-1112.1429)"
             style="font-style:normal;font-weight:normal;font-size:40px;line-height:1.25;font-family:sans-serif;letter-spacing:0px;word-spacing:0px;fill:#808080;fill-opacity:1;stroke:none"
             id="flowRoot1471-1-4-1">
            <path
               d="m 562.05322,2211.8118 v -21.024 h 14.592 c 7.104,0 10.368,5.28 10.368,10.464 0,5.184 -3.264,10.56 -10.368,10.56 z m 0,12.768 h 14.592 c 15.936,0 23.232,-11.136 23.232,-23.328 0,-12.288 -7.296,-23.232 -23.232,-23.232 h -27.456 v 67.2 h 12.864 z"
               style="font-style:normal;font-variant:normal;font-weight:bold;font-stretch:normal;font-size:96px;font-family:'Simplon Norm';-inkscape-font-specification:'Simplon Norm Bold';fill:#808080;fill-opacity:1"
               id="path1564"
               inkscape:connector-curvature="0" />
            <path
               d="m 651.85372,2190.7878 v -12.768 h -50.688 v 12.768 h 18.72 v 54.432 h 13.248 v -54.432 z"
               style="font-style:normal;font-variant:normal;font-weight:bold;font-stretch:normal;font-size:96px;font-family:'Simplon Norm';-inkscape-font-specification:'Simplon Norm Bold';fill:#808080;fill-opacity:1"
               id="path1566"
               inkscape:connector-curvature="0" />
          </g>
        </g>
        <g
           id="g1587"
           transform="matrix(0.41213465,0,0,0.41213465,-76.436134,273.4848)">
          <path
             sodipodi:nodetypes="cscccsccsscc"
             style="fill:none;fill-opacity:1;stroke:#d9230f;stroke-width:6.46199989;stroke-miterlimit:4;stroke-dasharray:none;stroke-opacity:1"
             id="path2-6-1-3-9"
             d="m 430.52574,-389.54735 c -19.74212,0.2187 -35.62526,16.4585 -35.40664,36.2007 0.0757,6.8362 2.08298,13.4469 5.81009,19.1505 l -5.63096,15.3003 c -0.14008,0.3794 -0.0372,0.8044 0.25961,1.0783 0.191,0.1764 0.43883,0.268 0.68858,0.2648 0.13744,0 0.27685,-0.038 0.40738,-0.092 l 14.12251,-6.5093 c 6.07454,4.1482 13.16553,6.294 20.54328,6.2124 19.74391,-0.2187 35.62621,-16.4585 35.40759,-36.1996 -0.21863,-19.7423 -16.45757,-35.6263 -36.2015,-35.4077 z"
             inkscape:connector-curvature="0" />
          <g
             aria-label="AR"
             transform="matrix(0.34297747,0,0,0.34297747,224.4254,-1111.708)"
             style="font-style:normal;font-weight:normal;font-size:40px;line-height:1.25;font-family:sans-serif;letter-spacing:0px;word-spacing:0px;fill:#000000;fill-opacity:1;stroke:none"
             id="flowRoot1471-1-4-1-3">
            <path
               d="m 580.48522,2219.4918 h -14.976 l 7.488,-21.792 z m 4.416,12.192 4.8,13.536 h 13.44 l -24,-67.2 h -12.288 l -24,67.2 h 13.44 l 4.8,-13.536 z"
               style="font-style:normal;font-variant:normal;font-weight:bold;font-stretch:normal;font-size:96px;font-family:'Simplon Norm';-inkscape-font-specification:'Simplon Norm Bold';fill:#808080;fill-opacity:1"
               id="path1569"
               inkscape:connector-curvature="0" />
            <path
               d="m 630.11272,2217.5718 16.224,27.648 h 14.784 l -16.704,-28.32 c 9.408,-2.208 14.496,-9.12 14.496,-19.104 0,-12.096 -7.584,-19.776 -21.216,-19.776 h -28.32 v 67.2 h 12.864 v -27.648 z m 15.936,-19.584 c 0,4.608 -3.168,7.104 -8.064,7.104 h -15.744 v -14.304 h 15.744 c 4.896,0 8.064,2.496 8.064,7.2 z"
               style="font-style:normal;font-variant:normal;font-weight:bold;font-stretch:normal;font-size:96px;font-family:'Simplon Norm';-inkscape-font-specification:'Simplon Norm Bold';fill:#808080;fill-opacity:1"
               id="path1571"
               inkscape:connector-curvature="0" />
          </g>
        </g>
      </g>
    </g>
  </g>
</svg>
