<?xml version="1.0" encoding="UTF-8" standalone="no"?>
<!-- Created with Inkscape (http://www.inkscape.org/) -->

<svg
   xmlns:dc="http://purl.org/dc/elements/1.1/"
   xmlns:cc="http://creativecommons.org/ns#"
   xmlns:rdf="http://www.w3.org/1999/02/22-rdf-syntax-ns#"
   xmlns:svg="http://www.w3.org/2000/svg"
   xmlns="http://www.w3.org/2000/svg"
   xmlns:sodipodi="http://sodipodi.sourceforge.net/DTD/sodipodi-0.dtd"
   xmlns:inkscape="http://www.inkscape.org/namespaces/inkscape"
   width="130mm"
   height="130mm"
   viewBox="0 0 130 130"
   version="1.1"
   id="svg2907"
   inkscape:version="0.92.4 (f8dce91, 2019-08-02)"
   sodipodi:docname="4.svg"
   inkscape:export-filename="/home/giulia/youtube.tracking.exposed/static/images/social/4.png"
   inkscape:export-xdpi="72"
   inkscape:export-ydpi="72">
  <defs
     id="defs2901" />
  <sodipodi:namedview
     id="base"
     pagecolor="#ffffff"
     bordercolor="#666666"
     borderopacity="1.0"
     inkscape:pageopacity="0.0"
     inkscape:pageshadow="2"
     inkscape:zoom="1.7177564"
     inkscape:cx="245.66929"
     inkscape:cy="268.95548"
     inkscape:document-units="mm"
     inkscape:current-layer="layer1"
     showgrid="false"
     showguides="false"
     inkscape:guide-bbox="true"
     inkscape:window-width="1920"
     inkscape:window-height="1025"
     inkscape:window-x="0"
     inkscape:window-y="27"
     inkscape:window-maximized="1">
    <sodipodi:guide
       position="-75.141665,94.720831"
       orientation="1,0"
       id="guide3905"
       inkscape:locked="false" />
  </sodipodi:namedview>
  <metadata
     id="metadata2904">
    <rdf:RDF>
      <cc:Work
         rdf:about="">
        <dc:format>image/svg+xml</dc:format>
        <dc:type
           rdf:resource="http://purl.org/dc/dcmitype/StillImage" />
        <dc:title />
      </cc:Work>
    </rdf:RDF>
  </metadata>
  <g
     inkscape:label="Layer 1"
     inkscape:groupmode="layer"
     id="layer1"
     transform="translate(-27.970238,-29.392857)">
    <g
       aria-label="WETEST 25.03.2020 "
       transform="matrix(0.34852914,0,0,0.34852914,-28.107497,36.531871)"
       style="font-style:normal;font-weight:normal;font-size:40px;line-height:1.25;font-family:sans-serif;letter-spacing:0px;word-spacing:0px;fill:#d9230f;fill-opacity:0.85098039;stroke:none"
       id="flowRoot973">
      <path
         inkscape:connector-curvature="0"
         d="m 192.63609,50.855234 h 5.8 l 5.16,-28 h -5.4 l -3.24,18.96 -3.32,-14.96 h -5.2 l -3.32,14.96 -3.24,-18.96 h -5.4 l 5.16,28 h 5.8 l 3.6,-16.24 z"
         style="font-style:normal;font-variant:normal;font-weight:bold;font-stretch:normal;font-family:'Simplon Norm';-inkscape-font-specification:'Simplon Norm Bold';fill:#d9230f;fill-opacity:0.85098039"
         id="path1227" />
      <path
         inkscape:connector-curvature="0"
         d="m 212.03422,28.175234 h 11.68 v -5.32 h -17.04 v 28 h 17.04 v -5.32 h -11.68 v -6.16 h 11.68 v -5.32 h -11.68 z"
         style="font-style:normal;font-variant:normal;font-weight:bold;font-stretch:normal;font-family:'Simplon Norm';-inkscape-font-specification:'Simplon Norm Bold';fill:#d9230f;fill-opacity:0.85098039"
         id="path1229" />
      <path
         inkscape:connector-curvature="0"
         d="m 246.71672,28.175234 v -5.32 h -21.12 v 5.32 h 7.8 v 22.68 h 5.52 v -22.68 z"
         style="font-style:normal;font-variant:normal;font-weight:bold;font-stretch:normal;font-family:'Simplon Norm';-inkscape-font-specification:'Simplon Norm Bold';fill:#d9230f;fill-opacity:0.85098039"
         id="path1231" />
      <path
         inkscape:connector-curvature="0"
         d="m 254.61234,28.175234 h 11.68 v -5.32 h -17.04 v 28 h 17.04 v -5.32 h -11.68 v -6.16 h 11.68 v -5.32 h -11.68 z"
         style="font-style:normal;font-variant:normal;font-weight:bold;font-stretch:normal;font-family:'Simplon Norm';-inkscape-font-specification:'Simplon Norm Bold';fill:#d9230f;fill-opacity:0.85098039"
         id="path1233" />
      <path
         inkscape:connector-curvature="0"
         d="m 279.41484,51.255234 c 6.08,0 9.36,-3.08 9.36,-8.12 0,-4.72 -2.32,-7.36 -6.64,-8.52 l -4.56,-1.24 c -1.52,-0.4 -2.8,-1.12 -2.8,-2.76 0,-1.96 1.6,-2.84 3.84,-2.84 1.8,0 3.76,0.84 4.24,2.72 h 5.52 c -0.6,-4.76 -4.08,-8.04 -9.68,-8.04 -4.88,0 -9.28,2.56 -9.28,8.16 0,4.12 2.12,7.12 6.4,8.28 l 4.72,1.28 c 1.96,0.52 2.88,1.4 2.88,2.96 0,1.92 -1.64,2.8 -4,2.8 -2.68,0 -4.52,-1.56 -4.84,-3.92 h -5.52 c 0.28,5.56 4.24,9.24 10.36,9.24 z"
         style="font-style:normal;font-variant:normal;font-weight:bold;font-stretch:normal;font-family:'Simplon Norm';-inkscape-font-specification:'Simplon Norm Bold';fill:#d9230f;fill-opacity:0.85098039"
         id="path1235" />
      <path
         inkscape:connector-curvature="0"
         d="m 310.93547,28.175234 v -5.32 h -21.12 v 5.32 h 7.8 v 22.68 h 5.52 v -22.68 z"
         style="font-style:normal;font-variant:normal;font-weight:bold;font-stretch:normal;font-family:'Simplon Norm';-inkscape-font-specification:'Simplon Norm Bold';fill:#d9230f;fill-opacity:0.85098039"
         id="path1237" />
      <path
         inkscape:connector-curvature="0"
         d="m 325.90859,31.655234 v -0.4 c 0,-2.44 1.44,-4.04 3.96,-4.04 2.52,0 3.92,1.6 3.92,3.64 0,1.64 -0.88,3.32 -2.6,4.96 l -10.56,10.28 v 4.76 h 18.4 v -4.76 h -10.92 l 6.52,-6.36 c 2.76,-2.68 4.4,-5.28 4.4,-8.96 0,-4.88 -3.52,-8.32 -9.16,-8.32 -5.8,0 -9.08,3.6 -9.24,9.12 v 0.08 z"
         style="font-style:normal;font-variant:normal;font-weight:bold;font-stretch:normal;font-family:'Simplon Norm';-inkscape-font-specification:'Simplon Norm Bold';fill:#d9230f;fill-opacity:0.85098039"
         id="path1239" />
      <path
         inkscape:connector-curvature="0"
         d="m 348.15859,39.455234 c 0.56,-1.4 1.8,-2.16 3.56,-2.16 2.52,0 3.92,1.6 3.92,4.04 v 1.52 c 0,2.12 -1.28,3.64 -3.92,3.64 -2.28,0 -3.8,-1.48 -3.96,-3.6 v -0.04 h -5.24 v 0.04 c 0.4,5.08 3.36,8.36 9.44,8.36 5.24,0 8.96,-3 8.96,-7.96 v -1.28 c 0,-5.72 -3.16,-9.48 -8.8,-9.48 -1.52,0 -3.2,0.44 -3.96,0.92 v -5.84 h 11.68 v -4.76 h -16.96 v 16.6 z"
         style="font-style:normal;font-variant:normal;font-weight:bold;font-stretch:normal;font-family:'Simplon Norm';-inkscape-font-specification:'Simplon Norm Bold';fill:#d9230f;fill-opacity:0.85098039"
         id="path1241" />
      <path
         inkscape:connector-curvature="0"
         d="m 364.84297,50.855234 h 6.4 v -6.4 h -6.4 z"
         style="font-style:normal;font-variant:normal;font-weight:bold;font-stretch:normal;font-family:'Simplon Norm';-inkscape-font-specification:'Simplon Norm Bold';fill:#d9230f;fill-opacity:0.85098039"
         id="path1243" />
      <path
         inkscape:connector-curvature="0"
         d="m 376.03422,41.775234 c 0,5.72 3.28,9.48 9.2,9.48 5.92,0 9.2,-3.76 9.2,-9.48 v -9.84 c 0,-5.72 -3.28,-9.48 -9.2,-9.48 -5.92,0 -9.2,3.76 -9.2,9.48 z m 13.12,0.68 c 0,2.44 -1.4,4.04 -3.92,4.04 -2.52,0 -3.92,-1.6 -3.92,-4.04 v -11.2 c 0,-2.44 1.4,-4.04 3.92,-4.04 2.52,0 3.92,1.6 3.92,4.04 z"
         style="font-style:normal;font-variant:normal;font-weight:bold;font-stretch:normal;font-family:'Simplon Norm';-inkscape-font-specification:'Simplon Norm Bold';fill:#d9230f;fill-opacity:0.85098039"
         id="path1245" />
      <path
         inkscape:connector-curvature="0"
         d="m 410.81797,43.015234 c 0,2.2 -1.48,3.48 -3.76,3.48 -2.36,0 -3.96,-1.44 -4.12,-3.6 v -0.04 h -5.24 v 0.04 c 0.4,5.08 3.76,8.36 9.32,8.36 5.64,0 9.08,-3 9.08,-7.96 0,-2.2 -1.12,-5.16 -2.96,-6.32 2.04,-1.44 2.96,-3.84 2.96,-5.92 0,-4.8 -3.44,-8.6 -9.2,-8.6 -5.56,0 -8.8,3.28 -9.2,8.36 v 0.04 h 5.24 v -0.04 c 0.16,-2.16 1.6,-3.6 3.96,-3.6 2.52,0 3.92,1.6 3.92,4.04 0,2.08 -1.56,3.28 -4.12,3.28 h -2.32 v 4.76 h 2.32 c 2.44,0 4.12,1.44 4.12,3.72 z"
         style="font-style:normal;font-variant:normal;font-weight:bold;font-stretch:normal;font-family:'Simplon Norm';-inkscape-font-specification:'Simplon Norm Bold';fill:#d9230f;fill-opacity:0.85098039"
         id="path1247" />
      <path
         inkscape:connector-curvature="0"
         d="m 420.70234,50.855234 h 6.4 v -6.4 h -6.4 z"
         style="font-style:normal;font-variant:normal;font-weight:bold;font-stretch:normal;font-family:'Simplon Norm';-inkscape-font-specification:'Simplon Norm Bold';fill:#d9230f;fill-opacity:0.85098039"
         id="path1249" />
      <path
         inkscape:connector-curvature="0"
         d="m 436.53359,31.655234 v -0.4 c 0,-2.44 1.44,-4.04 3.96,-4.04 2.52,0 3.92,1.6 3.92,3.64 0,1.64 -0.88,3.32 -2.6,4.96 l -10.56,10.28 v 4.76 h 18.4 v -4.76 h -10.92 l 6.52,-6.36 c 2.76,-2.68 4.4,-5.28 4.4,-8.96 0,-4.88 -3.52,-8.32 -9.16,-8.32 -5.8,0 -9.08,3.6 -9.24,9.12 v 0.08 z"
         style="font-style:normal;font-variant:normal;font-weight:bold;font-stretch:normal;font-family:'Simplon Norm';-inkscape-font-specification:'Simplon Norm Bold';fill:#d9230f;fill-opacity:0.85098039"
         id="path1251" />
      <path
         inkscape:connector-curvature="0"
         d="m 453.14359,41.775234 c 0,5.72 3.28,9.48 9.2,9.48 5.92,0 9.2,-3.76 9.2,-9.48 v -9.84 c 0,-5.72 -3.28,-9.48 -9.2,-9.48 -5.92,0 -9.2,3.76 -9.2,9.48 z m 13.12,0.68 c 0,2.44 -1.4,4.04 -3.92,4.04 -2.52,0 -3.92,-1.6 -3.92,-4.04 v -11.2 c 0,-2.44 1.4,-4.04 3.92,-4.04 2.52,0 3.92,1.6 3.92,4.04 z"
         style="font-style:normal;font-variant:normal;font-weight:bold;font-stretch:normal;font-family:'Simplon Norm';-inkscape-font-specification:'Simplon Norm Bold';fill:#d9230f;fill-opacity:0.85098039"
         id="path1253" />
      <path
         inkscape:connector-curvature="0"
         d="m 480.12734,31.655234 v -0.4 c 0,-2.44 1.44,-4.04 3.96,-4.04 2.52,0 3.92,1.6 3.92,3.64 0,1.64 -0.88,3.32 -2.6,4.96 l -10.56,10.28 v 4.76 h 18.4 v -4.76 h -10.92 l 6.52,-6.36 c 2.76,-2.68 4.4,-5.28 4.4,-8.96 0,-4.88 -3.52,-8.32 -9.16,-8.32 -5.8,0 -9.08,3.6 -9.24,9.12 v 0.08 z"
         style="font-style:normal;font-variant:normal;font-weight:bold;font-stretch:normal;font-family:'Simplon Norm';-inkscape-font-specification:'Simplon Norm Bold';fill:#d9230f;fill-opacity:0.85098039"
         id="path1255" />
      <path
         inkscape:connector-curvature="0"
         d="m 496.73734,41.775234 c 0,5.72 3.28,9.48 9.2,9.48 5.92,0 9.2,-3.76 9.2,-9.48 v -9.84 c 0,-5.72 -3.28,-9.48 -9.2,-9.48 -5.92,0 -9.2,3.76 -9.2,9.48 z m 13.12,0.68 c 0,2.44 -1.4,4.04 -3.92,4.04 -2.52,0 -3.92,-1.6 -3.92,-4.04 v -11.2 c 0,-2.44 1.4,-4.04 3.92,-4.04 2.52,0 3.92,1.6 3.92,4.04 z"
         style="font-style:normal;font-variant:normal;font-weight:bold;font-stretch:normal;font-family:'Simplon Norm';-inkscape-font-specification:'Simplon Norm Bold';fill:#d9230f;fill-opacity:0.85098039"
         id="path1257" />
    </g>
    <g
       aria-label="youtube.tracking.exposed"
       transform="matrix(0.29849443,0,0,0.29849443,17.812782,-27.023634)"
       style="font-style:normal;font-weight:normal;font-size:40px;line-height:1.25;font-family:sans-serif;letter-spacing:0px;word-spacing:0px;fill:#000000;fill-opacity:1;stroke:none"
       id="flowRoot815-3">
      <path
         d="m 63.88863,216.58636 h -2.169568 l -4.013701,11.36312 -4.0137,-11.36312 h -2.169568 l 5.125604,14.21067 -0.732229,2.00686 c -0.162718,0.48815 -0.352555,0.81358 -1.220382,0.81358 h -1.030545 v 1.95261 h 0.786468 c 1.762774,-0.0271 2.71196,-0.35255 3.091635,-1.43733 z"
         style="font-style:normal;font-variant:normal;font-weight:normal;font-stretch:normal;font-size:27.1196003px;line-height:0;font-family:'Simplon Norm';-inkscape-font-specification:'Simplon Norm';letter-spacing:4.27492952px"
         id="path877-9"
         inkscape:connector-curvature="0" />
      <path
         d="m 78.870294,225.40023 c 0,2.33229 -1.627176,3.49843 -3.444189,3.49843 -1.817014,0 -3.44419,-1.16614 -3.44419,-3.49843 v -3.7425 c 0,-2.33229 1.627176,-3.49843 3.44419,-3.49843 1.817013,0 3.444189,1.16614 3.444189,3.49843 z m 2.03397,-3.71538 c 0,-4.12218 -2.874678,-5.47816 -5.478159,-5.47816 -2.603482,0 -5.47816,1.35598 -5.47816,5.47816 v 3.68826 c 0,4.12218 2.874678,5.47816 5.47816,5.47816 2.603481,0 5.478159,-1.35598 5.478159,-5.47816 z"
         style="font-style:normal;font-variant:normal;font-weight:normal;font-stretch:normal;font-size:27.1196003px;line-height:0;font-family:'Simplon Norm';-inkscape-font-specification:'Simplon Norm';letter-spacing:4.27492952px"
         id="path879"
         inkscape:connector-curvature="0" />
      <path
         d="m 94.057896,230.85127 c 1.193263,0 2.657721,-0.59663 3.362831,-1.70853 v 1.43734 h 2.03397 v -13.99372 h -2.03397 v 8.81387 c 0,2.30517 -1.654296,3.49843 -3.362831,3.49843 -1.654295,0 -3.36283,-1.08478 -3.36283,-3.57978 v -8.73252 h -2.03397 v 8.86811 c 0,4.1493 3.091634,5.3968 5.3968,5.3968 z"
         style="font-style:normal;font-variant:normal;font-weight:normal;font-stretch:normal;font-size:27.1196003px;line-height:0;font-family:'Simplon Norm';-inkscape-font-specification:'Simplon Norm';letter-spacing:4.27492952px"
         id="path881"
         inkscape:connector-curvature="0" />
      <path
         d="m 110.48283,218.53898 h 3.44419 v -1.95262 h -3.44419 v -3.17299 h -2.03397 v 3.17299 h -1.97973 v 1.95262 h 1.97973 v 8.70539 c 0,2.38652 0.73223,3.33571 3.33571,3.33571 h 2.14245 v -1.95261 h -2.14245 c -0.97631,0 -1.30174,-0.32544 -1.30174,-1.22039 z"
         style="font-style:normal;font-variant:normal;font-weight:normal;font-stretch:normal;font-size:27.1196003px;line-height:0;font-family:'Simplon Norm';-inkscape-font-specification:'Simplon Norm';letter-spacing:4.27492952px"
         id="path883"
         inkscape:connector-curvature="0" />
      <path
         d="m 126.54928,230.85127 c 1.19326,0 2.65772,-0.59663 3.36283,-1.70853 v 1.43734 h 2.03397 v -13.99372 h -2.03397 v 8.81387 c 0,2.30517 -1.6543,3.49843 -3.36283,3.49843 -1.6543,0 -3.36284,-1.08478 -3.36284,-3.57978 v -8.73252 h -2.03397 v 8.86811 c 0,4.1493 3.09164,5.3968 5.39681,5.3968 z"
         style="font-style:normal;font-variant:normal;font-weight:normal;font-stretch:normal;font-size:27.1196003px;line-height:0;font-family:'Simplon Norm';-inkscape-font-specification:'Simplon Norm';letter-spacing:4.27492952px"
         id="path885"
         inkscape:connector-curvature="0" />
      <path
         d="m 145.76753,230.85127 c 2.60348,0 5.47816,-1.35598 5.47816,-5.47816 v -3.68826 c 0,-4.12218 -2.87468,-5.47816 -5.47816,-5.47816 -1.27462,0 -2.73908,0.56951 -3.44419,1.70853 v -6.31886 h -2.03397 v 18.98372 h 2.03397 v -1.43734 c 0.70511,1.13902 2.16957,1.70853 3.44419,1.70853 z m 3.44419,-5.45104 c 0,2.33229 -1.62718,3.49843 -3.44419,3.49843 -1.81701,0 -3.44419,-1.16614 -3.44419,-3.49843 v -3.7425 c 0,-2.33229 1.62718,-3.49843 3.44419,-3.49843 1.81701,0 3.44419,1.16614 3.44419,3.49843 z"
         style="font-style:normal;font-variant:normal;font-weight:normal;font-stretch:normal;font-size:27.1196003px;line-height:0;font-family:'Simplon Norm';-inkscape-font-specification:'Simplon Norm';letter-spacing:4.27492952px"
         id="path887"
         inkscape:connector-curvature="0" />
      <path
         d="m 164.28195,228.89866 c -1.81702,0 -3.44419,-1.16614 -3.44419,-3.49843 v -1.35598 h 8.92234 v -2.3594 c 0,-4.12218 -2.87467,-5.47816 -5.47815,-5.47816 -2.60349,0 -5.47816,1.35598 -5.47816,5.47816 v 3.68826 c 0,4.12218 2.87467,5.47816 5.47816,5.47816 2.44076,0 5.09848,-1.16614 5.45103,-4.66457 h -2.0882 c -0.32544,1.81702 -1.76278,2.71196 -3.36283,2.71196 z m 3.44418,-6.72566 h -6.88837 v -0.51527 c 0,-2.33229 1.62717,-3.49843 3.44419,-3.49843 1.81701,0 3.44418,1.16614 3.44418,3.49843 z"
         style="font-style:normal;font-variant:normal;font-weight:normal;font-stretch:normal;font-size:27.1196003px;line-height:0;font-family:'Simplon Norm';-inkscape-font-specification:'Simplon Norm';letter-spacing:4.27492952px"
         id="path889"
         inkscape:connector-curvature="0" />
      <path
         d="m 177.44829,230.58008 h 2.84756 v -2.84756 h -2.84756 z"
         style="font-style:normal;font-variant:normal;font-weight:normal;font-stretch:normal;font-size:27.1196003px;line-height:0;font-family:'Simplon Norm';-inkscape-font-specification:'Simplon Norm';letter-spacing:4.27492952px"
         id="path891"
         inkscape:connector-curvature="0" />
      <path
         d="m 190.65193,218.53898 h 3.44419 v -1.95262 h -3.44419 v -3.17299 h -2.03397 v 3.17299 h -1.97973 v 1.95262 h 1.97973 v 8.70539 c 0,2.38652 0.73223,3.33571 3.33571,3.33571 h 2.14245 v -1.95261 h -2.14245 c -0.9763,0 -1.30174,-0.32544 -1.30174,-1.22039 z"
         style="font-style:normal;font-variant:normal;font-weight:normal;font-stretch:normal;font-size:27.1196003px;line-height:0;font-family:'Simplon Norm';-inkscape-font-specification:'Simplon Norm';letter-spacing:4.27492952px"
         id="path893"
         inkscape:connector-curvature="0" />
      <path
         d="m 203.54537,216.58636 h -2.03397 v 13.99372 h 2.03397 v -8.78675 c 0,-2.33229 1.62718,-3.49843 3.44419,-3.49843 h 0.89495 v -1.95261 h -0.89495 c -1.27462,0 -2.73908,0.56951 -3.44419,1.70853 z"
         style="font-style:normal;font-variant:normal;font-weight:normal;font-stretch:normal;font-size:27.1196003px;line-height:0;font-family:'Simplon Norm';-inkscape-font-specification:'Simplon Norm';letter-spacing:4.27492952px"
         id="path895"
         inkscape:connector-curvature="0" />
      <path
         d="m 219.35588,218.1593 c 1.81701,0 3.44419,1.16614 3.44419,3.49843 v 0.24408 c -2.35941,0.16271 -4.36626,0.32543 -5.96632,0.78646 -2.44076,0.70511 -3.03739,2.60349 -3.03739,4.01371 0,2.87467 2.25092,4.14929 4.63745,4.14929 1.89837,0 3.47131,-0.54239 4.36626,-1.70853 v 1.43734 h 2.03397 v -8.89523 c 0,-4.12218 -2.87468,-5.47816 -5.47816,-5.47816 -2.44077,0 -5.09849,1.16614 -5.45104,4.66457 h 2.08821 c 0.32543,-1.81701 1.76277,-2.71196 3.36283,-2.71196 z m 3.44419,7.37653 c 0,2.19669 -1.73566,3.36283 -3.93235,3.36283 -2.06109,0 -3.03739,-0.9763 -3.03739,-2.25092 0,-0.81359 0.18984,-1.43734 1.22038,-2.00685 0.94919,-0.51528 2.68484,-0.70511 5.74936,-0.92207 z"
         style="font-style:normal;font-variant:normal;font-weight:normal;font-stretch:normal;font-size:27.1196003px;line-height:0;font-family:'Simplon Norm';-inkscape-font-specification:'Simplon Norm';letter-spacing:4.27492952px"
         id="path897"
         inkscape:connector-curvature="0" />
      <path
         d="m 238.09489,216.20669 c -2.60348,0 -5.47816,1.35598 -5.47816,5.47816 v 3.68826 c 0,4.1493 2.87468,5.47816 5.47816,5.47816 2.46788,0 5.15272,-1.19326 5.45104,-4.80017 h -2.06109 c -0.2712,1.89838 -1.76278,2.84756 -3.38995,2.84756 -1.81702,0 -3.44419,-1.16614 -3.44419,-3.49843 v -3.7425 c 0,-2.33229 1.62717,-3.49843 3.44419,-3.49843 1.62717,0 3.11875,0.94919 3.38995,2.84756 h 2.06109 c -0.29832,-3.60691 -2.98316,-4.80017 -5.45104,-4.80017 z"
         style="font-style:normal;font-variant:normal;font-weight:normal;font-stretch:normal;font-size:27.1196003px;line-height:0;font-family:'Simplon Norm';-inkscape-font-specification:'Simplon Norm';letter-spacing:4.27492952px"
         id="path899"
         inkscape:connector-curvature="0" />
      <path
         d="m 253.28884,211.59636 h -2.03397 v 18.98372 h 2.03397 v -4.63745 l 2.19669,-2.38653 4.77305,7.02398 h 2.38652 l -5.77647,-8.51556 5.04424,-5.47816 h -2.52212 l -6.10191,6.61719 z"
         style="font-style:normal;font-variant:normal;font-weight:normal;font-stretch:normal;font-size:27.1196003px;line-height:0;font-family:'Simplon Norm';-inkscape-font-specification:'Simplon Norm';letter-spacing:4.27492952px"
         id="path901"
         inkscape:connector-curvature="0" />
      <path
         d="m 271.28248,211.59636 h -2.03397 v 2.6306 h 2.03397 z m 0,4.99 h -2.03397 v 13.99372 h 2.03397 z"
         style="font-style:normal;font-variant:normal;font-weight:normal;font-stretch:normal;font-size:27.1196003px;line-height:0;font-family:'Simplon Norm';-inkscape-font-specification:'Simplon Norm';letter-spacing:4.27492952px"
         id="path903"
         inkscape:connector-curvature="0" />
      <path
         d="m 285.09291,216.20669 c -1.27462,0 -2.73908,0.56951 -3.44419,1.70853 v -1.32886 h -2.03397 v 13.99372 h 2.03397 v -8.92235 c 0,-2.33229 1.62718,-3.49843 3.44419,-3.49843 1.81701,0 3.44419,1.16614 3.44419,3.49843 v 8.92235 h 2.03397 v -8.89523 c 0,-4.12218 -2.87468,-5.47816 -5.47816,-5.47816 z"
         style="font-style:normal;font-variant:normal;font-weight:normal;font-stretch:normal;font-size:27.1196003px;line-height:0;font-family:'Simplon Norm';-inkscape-font-specification:'Simplon Norm';letter-spacing:4.27492952px"
         id="path905"
         inkscape:connector-curvature="0" />
      <path
         d="m 303.79207,233.88867 c -1.62717,0 -3.11875,-0.94919 -3.38995,-2.84756 h -2.06109 c 0.29832,3.60691 2.98316,4.80017 5.45104,4.80017 2.60348,0 5.47816,-1.32886 5.47816,-5.47816 v -13.77676 h -2.03397 v 1.32886 c -0.70511,-1.13902 -2.16957,-1.70853 -3.44419,-1.70853 -2.60348,0 -5.47816,1.35598 -5.47816,5.47816 v 3.14587 c 0,4.12218 2.87468,5.47816 5.47816,5.47816 1.27462,0 2.73908,-0.56951 3.44419,-1.70853 v 1.78989 c 0,2.33229 -1.62717,3.49843 -3.44419,3.49843 z m -3.44419,-12.23094 c 0,-2.33229 1.62718,-3.49843 3.44419,-3.49843 1.81702,0 3.44419,1.16614 3.44419,3.49843 v 3.20011 c 0,2.33229 -1.62717,3.49843 -3.44419,3.49843 -1.81701,0 -3.44419,-1.16614 -3.44419,-3.49843 z"
         style="font-style:normal;font-variant:normal;font-weight:normal;font-stretch:normal;font-size:27.1196003px;line-height:0;font-family:'Simplon Norm';-inkscape-font-specification:'Simplon Norm';letter-spacing:4.27492952px"
         id="path907"
         inkscape:connector-curvature="0" />
      <path
         d="m 317.88601,230.58008 h 2.84756 v -2.84756 h -2.84756 z"
         style="font-style:normal;font-variant:normal;font-weight:normal;font-stretch:normal;font-size:27.1196003px;line-height:0;font-family:'Simplon Norm';-inkscape-font-specification:'Simplon Norm';letter-spacing:4.27492952px"
         id="path909"
         inkscape:connector-curvature="0" />
      <path
         d="m 333.76811,228.89866 c -1.81702,0 -3.44419,-1.16614 -3.44419,-3.49843 v -1.35598 h 8.92234 v -2.3594 c 0,-4.12218 -2.87467,-5.47816 -5.47815,-5.47816 -2.60349,0 -5.47816,1.35598 -5.47816,5.47816 v 3.68826 c 0,4.12218 2.87467,5.47816 5.47816,5.47816 2.44076,0 5.09848,-1.16614 5.45104,-4.66457 h -2.08821 c -0.32544,1.81702 -1.76278,2.71196 -3.36283,2.71196 z m 3.44418,-6.72566 h -6.88837 v -0.51527 c 0,-2.33229 1.62717,-3.49843 3.44419,-3.49843 1.81701,0 3.44418,1.16614 3.44418,3.49843 z"
         style="font-style:normal;font-variant:normal;font-weight:normal;font-stretch:normal;font-size:27.1196003px;line-height:0;font-family:'Simplon Norm';-inkscape-font-specification:'Simplon Norm';letter-spacing:4.27492952px"
         id="path911"
         inkscape:connector-curvature="0" />
      <path
         d="m 354.71905,230.58008 h 2.30517 l -4.74593,-7.1867 4.52897,-6.80702 h -2.3594 l -3.44419,5.17985 -3.44419,-5.17985 h -2.3594 l 4.52897,6.80702 -4.74593,7.1867 h 2.30516 l 3.71539,-5.668 z"
         style="font-style:normal;font-variant:normal;font-weight:normal;font-stretch:normal;font-size:27.1196003px;line-height:0;font-family:'Simplon Norm';-inkscape-font-specification:'Simplon Norm';letter-spacing:4.27492952px"
         id="path913"
         inkscape:connector-curvature="0" />
      <path
         d="m 369.2346,230.85127 c 2.60348,0 5.47816,-1.35598 5.47816,-5.47816 v -3.68826 c 0,-4.12218 -2.87468,-5.47816 -5.47816,-5.47816 -1.27462,0 -2.73908,0.56951 -3.44419,1.70853 v -1.32886 h -2.03397 v 18.98372 h 2.03397 v -6.42734 c 0.70511,1.13902 2.16957,1.70853 3.44419,1.70853 z m 3.44419,-5.45104 c 0,2.33229 -1.62717,3.49843 -3.44419,3.49843 -1.81701,0 -3.44419,-1.16614 -3.44419,-3.49843 v -3.7425 c 0,-2.33229 1.62718,-3.49843 3.44419,-3.49843 1.81702,0 3.44419,1.16614 3.44419,3.49843 z"
         style="font-style:normal;font-variant:normal;font-weight:normal;font-stretch:normal;font-size:27.1196003px;line-height:0;font-family:'Simplon Norm';-inkscape-font-specification:'Simplon Norm';letter-spacing:4.27492952px"
         id="path915"
         inkscape:connector-curvature="0" />
      <path
         d="m 391.19322,225.40023 c 0,2.33229 -1.62717,3.49843 -3.44419,3.49843 -1.81701,0 -3.44419,-1.16614 -3.44419,-3.49843 v -3.7425 c 0,-2.33229 1.62718,-3.49843 3.44419,-3.49843 1.81702,0 3.44419,1.16614 3.44419,3.49843 z m 2.03397,-3.71538 c 0,-4.12218 -2.87468,-5.47816 -5.47816,-5.47816 -2.60348,0 -5.47816,1.35598 -5.47816,5.47816 v 3.68826 c 0,4.12218 2.87468,5.47816 5.47816,5.47816 2.60348,0 5.47816,-1.35598 5.47816,-5.47816 z"
         style="font-style:normal;font-variant:normal;font-weight:normal;font-stretch:normal;font-size:27.1196003px;line-height:0;font-family:'Simplon Norm';-inkscape-font-specification:'Simplon Norm';letter-spacing:4.27492952px"
         id="path917"
         inkscape:connector-curvature="0" />
      <path
         d="m 410.3945,220.68142 c -0.21696,-3.11875 -2.30517,-4.47473 -5.12561,-4.47473 -2.57636,0 -4.71881,1.49158 -4.71881,4.06794 0,2.495 1.92549,3.52555 3.44419,3.8781 l 2.73908,0.67799 c 1.54582,0.37968 1.95261,1.16615 1.95261,2.06109 -0.0271,1.22038 -0.92207,2.00685 -2.87468,2.00685 -1.87125,0 -3.33571,-0.81359 -3.52554,-2.79332 h -2.08821 c 0.21695,3.38995 2.68484,4.74593 5.61375,4.74593 2.84756,0 4.93577,-1.13902 4.93577,-3.90522 0,-2.57636 -1.46446,-3.63402 -3.57979,-4.1493 l -2.6306,-0.65087 c -1.13902,-0.27119 -1.92549,-0.78647 -1.92549,-1.95261 0,-1.27462 1.1119,-2.03397 2.6306,-2.03397 1.73566,0 2.82044,0.89495 3.06452,2.52212 z"
         style="font-style:normal;font-variant:normal;font-weight:normal;font-stretch:normal;font-size:27.1196003px;line-height:0;font-family:'Simplon Norm';-inkscape-font-specification:'Simplon Norm';letter-spacing:4.27492952px"
         id="path919"
         inkscape:connector-curvature="0" />
      <path
         d="m 423.31254,228.89866 c -1.81701,0 -3.44419,-1.16614 -3.44419,-3.49843 v -1.35598 h 8.92235 v -2.3594 c 0,-4.12218 -2.87468,-5.47816 -5.47816,-5.47816 -2.60348,0 -5.47816,1.35598 -5.47816,5.47816 v 3.68826 c 0,4.12218 2.87468,5.47816 5.47816,5.47816 2.44076,0 5.09848,-1.16614 5.45104,-4.66457 h -2.08821 c -0.32544,1.81702 -1.76277,2.71196 -3.36283,2.71196 z m 3.44419,-6.72566 h -6.88838 v -0.51527 c 0,-2.33229 1.62718,-3.49843 3.44419,-3.49843 1.81701,0 3.44419,1.16614 3.44419,3.49843 z"
         style="font-style:normal;font-variant:normal;font-weight:normal;font-stretch:normal;font-size:27.1196003px;line-height:0;font-family:'Simplon Norm';-inkscape-font-specification:'Simplon Norm';letter-spacing:4.27492952px"
         id="path921"
         inkscape:connector-curvature="0" />
      <path
         d="m 441.72993,230.85127 c 1.27462,0 2.73908,-0.56951 3.44419,-1.70853 v 1.43734 h 2.03397 v -18.98372 h -2.03397 v 6.31886 c -0.70511,-1.13902 -2.16957,-1.70853 -3.44419,-1.70853 -2.60348,0 -5.47816,1.35598 -5.47816,5.47816 v 3.68826 c 0,4.12218 2.87468,5.47816 5.47816,5.47816 z m -3.44419,-9.19354 c 0,-2.33229 1.62717,-3.49843 3.44419,-3.49843 1.81701,0 3.44419,1.16614 3.44419,3.49843 v 3.7425 c 0,2.33229 -1.62718,3.49843 -3.44419,3.49843 -1.81702,0 -3.44419,-1.16614 -3.44419,-3.49843 z"
         style="font-style:normal;font-variant:normal;font-weight:normal;font-stretch:normal;font-size:27.1196003px;line-height:0;font-family:'Simplon Norm';-inkscape-font-specification:'Simplon Norm';letter-spacing:4.27492952px"
         id="path923"
         inkscape:connector-curvature="0" />
    </g>
    <path
       style="fill:none;stroke:#d9230f;stroke-width:0.3673853;stroke-linecap:butt;stroke-linejoin:miter;stroke-miterlimit:4;stroke-dasharray:none;stroke-opacity:1"
       d="M 158.12668,154.28266 H 28.33504"
       id="path3705"
       inkscape:connector-curvature="0"
       sodipodi:nodetypes="cc" />
    <g
       transform="matrix(0.2107762,0,0,0.18266376,-89.532474,139.15443)"
       id="g1469">
      <g
         id="g26"
         transform="matrix(1.1035133,0,0,1.1035133,584.82218,-412.69803)"
         style="fill:#808080;fill-opacity:1;stroke:#808080;stroke-width:1.90663767;stroke-miterlimit:4;stroke-dasharray:none;stroke-opacity:1">
        <path
           inkscape:connector-curvature="0"
           id="circle2"
           d="m 104.38457,4.2047095 a 3,3 0 0 1 -3,3 3,3 0 0 1 -3.000003,-3 3,3 0 0 1 3.000003,-3 3,3 0 0 1 3,3 z"
           style="fill:#808080;fill-opacity:1;stroke:#808080;stroke-width:1.90663767;stroke-miterlimit:4;stroke-dasharray:none;stroke-opacity:1" />
        <path
           inkscape:connector-curvature="0"
           id="circle4"
           d="m 116.56141,4.2047095 a 3,3 0 0 1 -3,3 3,3 0 0 1 -3,-3 3,3 0 0 1 3,-3 3,3 0 0 1 3,3 z"
           style="fill:#808080;fill-opacity:1;stroke:#808080;stroke-width:1.90663767;stroke-miterlimit:4;stroke-dasharray:none;stroke-opacity:1" />
        <path
           inkscape:connector-curvature="0"
           d="M 120,-9.5905807 H 8 c -4.4,0 -8,3.6 -8,8 V 120 c 0,4.4 3.6,8 8,8 h 112 c 4.4,0 8,-3.6 8,-8 V -1.5905807 c 0,-4.4 -3.6,-8 -8,-8 z m -112,4 h 112 c 2.2,0 4,1.8 4,4 V 14 H 4 V -1.5905807 c 0,-2.2 1.8,-4 4,-4 z M 120,124 H 8 c -2.2,0 -4,-1.8 -4,-4 V 18 h 120 v 102 c 0,2.2 -1.8,4 -4,4 z"
           id="path6"
           style="fill:#808080;fill-opacity:1;stroke:#808080;stroke-width:1.90663767;stroke-miterlimit:4;stroke-dasharray:none;stroke-opacity:1"
           sodipodi:nodetypes="ssssssssssssccsssssccss" />
        <path
           inkscape:connector-curvature="0"
           d="M 68.433752,28.037751 H 20.168386 c -3.792279,0 -6.895053,3.156946 -6.895053,7.015436 V 68.37651 c 0,3.858489 3.102774,7.015436 6.895053,7.015436 h 48.265366 c 3.792279,0 6.895052,-3.156947 6.895052,-7.015436 V 35.053187 c 0,-3.85849 -3.102773,-7.015436 -6.895052,-7.015436 z m 3.447526,40.338759 c 0,1.929245 -1.551386,3.507717 -3.447526,3.507717 H 20.168386 c -1.89614,0 -3.447526,-1.578472 -3.447526,-3.507717 V 35.053187 c 0,-1.929245 1.551386,-3.507718 3.447526,-3.507718 h 48.265366 c 1.89614,0 3.447526,1.578473 3.447526,3.507718 z"
           id="path8"
           style="fill:#808080;fill-opacity:1;stroke:#808080;stroke-width:1.6575793;stroke-miterlimit:4;stroke-dasharray:none;stroke-opacity:1" />
        <path
           inkscape:connector-curvature="0"
           d="M 110,26 H 94 c -4.4,0 -8,3.6 -8,8 v 9 c 0,4.4 3.6,8 8,8 h 16 c 4.4,0 8,-3.6 8,-8 v -9 c 0,-4.4 -3.6,-8 -8,-8 z m 4,17 c 0,2.2 -1.8,4 -4,4 H 94 c -2.2,0 -4,-1.8 -4,-4 v -9 c 0,-2.2 1.8,-4 4,-4 h 16 c 2.2,0 4,1.8 4,4 z"
           id="path10"
           style="fill:#808080;fill-opacity:1;stroke:#808080;stroke-width:1.90663767;stroke-miterlimit:4;stroke-dasharray:none;stroke-opacity:1" />
        <path
           inkscape:connector-curvature="0"
           d="M 110,58.356703 H 94 c -4.4,0 -8,3.6 -8,8 v 9 c 0,4.4 3.6,8 8,8 h 16 c 4.4,0 8,-3.6 8,-8 v -9 c 0,-4.4 -3.6,-8 -8,-8 z m 4,17 c 0,2.2 -1.8,4 -4,4 H 94 c -2.2,0 -4,-1.8 -4,-4 v -9 c 0,-2.2 1.8,-4 4,-4 h 16 c 2.2,0 4,1.8 4,4 z"
           id="path12-2"
           style="fill:#808080;fill-opacity:1;stroke:#808080;stroke-width:1.90663767;stroke-miterlimit:4;stroke-dasharray:none;stroke-opacity:1" />
        <path
           inkscape:connector-curvature="0"
           d="M 110,90.713406 H 94 c -4.4,0 -8,3.6 -8,7.999997 v 8.999997 c 0,4.4 3.6,8 8,8 h 16 c 4.4,0 8,-3.6 8,-8 v -8.999997 c 0,-4.399997 -3.6,-7.999997 -8,-7.999997 z m 4,16.999994 c 0,2.2 -1.8,4 -4,4 H 94 c -2.2,0 -4,-1.8 -4,-4 v -8.999997 c 0,-2.199997 1.8,-3.999997 4,-3.999997 h 16 c 2.2,0 4,1.8 4,3.999997 z"
           id="path14"
           style="fill:#808080;fill-opacity:1;stroke:#808080;stroke-width:1.90663767;stroke-miterlimit:4;stroke-dasharray:none;stroke-opacity:1" />
        <path
           inkscape:connector-curvature="0"
           d="M 76,86 H 16 c -1.1,0 -2,0.9 -2,2 0,1.1 0.9,2 2,2 h 60 c 1.1,0 2,-0.9 2,-2 0,-1.1 -0.9,-2 -2,-2 z"
           id="path16"
           style="fill:#808080;fill-opacity:1;stroke:#808080;stroke-width:1.90663767;stroke-miterlimit:4;stroke-dasharray:none;stroke-opacity:1" />
        <path
           inkscape:connector-curvature="0"
           d="M 76,94.639362 H 16 c -1.1,0 -2,0.9 -2,2 0,1.1 0.9,2 2,2 h 60 c 1.1,0 2,-0.9 2,-2 0,-1.1 -0.9,-2 -2,-2 z"
           id="path18"
           style="fill:#808080;fill-opacity:1;stroke:#808080;stroke-width:1.90663767;stroke-miterlimit:4;stroke-dasharray:none;stroke-opacity:1" />
        <path
           inkscape:connector-curvature="0"
           d="M 76,103.27875 H 16 c -1.1,0 -2,0.9 -2,2 0,1.1 0.9,2 2,2 h 60 c 1.1,0 2,-0.9 2,-2 0,-1.1 -0.9,-2 -2,-2 z"
           id="path20"
           style="fill:#808080;fill-opacity:1;stroke:#808080;stroke-width:1.90663767;stroke-miterlimit:4;stroke-dasharray:none;stroke-opacity:1" />
        <path
           inkscape:connector-curvature="0"
           d="M 41,111.91812 H 16 c -1.1,0 -2,0.9 -2,2 0,1.1 0.9,2 2,2 h 25 c 1.1,0 2,-0.9 2,-2 0,-1.1 -0.9,-2 -2,-2 z"
           id="path22"
           style="fill:#808080;fill-opacity:1;stroke:#808080;stroke-width:1.90663767;stroke-miterlimit:4;stroke-dasharray:none;stroke-opacity:1" />
        <path
           inkscape:connector-curvature="0"
           d="m 50.120471,49.940942 -9.2,-5.8 c -1.9,-1.1 -3.4,-0.3 -3.4,1.9 v 12 c 0,2.2 1.5,3 3.4,1.9 l 9.2,-5.8 c 1.9,-1.1 1.9,-3.1 0,-4.2 z"
           id="path24"
           style="fill:#808080;fill-opacity:1;stroke:#808080;stroke-width:1.90663767;stroke-miterlimit:4;stroke-dasharray:none;stroke-opacity:1" />
        <path
           inkscape:connector-curvature="0"
           id="circle2-0"
           d="m 92.207787,4.1276736 a 3,3 0 0 1 -3,3 3,3 0 0 1 -3,-3 3,3 0 0 1 3,-3 3,3 0 0 1 3,3 z"
           style="fill:#808080;fill-opacity:1;stroke:#808080;stroke-width:1.90663767;stroke-miterlimit:4;stroke-dasharray:none;stroke-opacity:1" />
      </g>
      <path
         style="fill:#808080;fill-opacity:1;stroke-width:1.4926219"
         id="path12-3"
         d="m 625.18086,-404.59651 h -22.53859 c -1.94041,0 -3.58229,-1.6419 -3.58229,-3.5823 0,-1.9404 1.64188,-3.5823 3.58229,-3.5823 h 22.53859 c 1.94041,0 3.5823,1.6419 3.5823,3.5823 -0.14927,1.9404 -1.64189,3.5823 -3.5823,3.5823 z"
         inkscape:connector-curvature="0" />
    </g>
    <g
       id="flowRoot953-3-7-0"
       style="font-style:normal;font-weight:normal;font-size:40px;line-height:0.5;font-family:sans-serif;letter-spacing:0px;word-spacing:0px;fill:#d9230f;fill-opacity:1;stroke:none"
       transform="matrix(0.5707309,0,0,0.5707309,-45.188371,7.4172649)"
       aria-label=" The dataset will contain: - content related - recommended for you - in your language - in a different language">
      <path
         inkscape:connector-curvature="0"
         id="path1574"
         style="font-style:normal;font-variant:normal;font-weight:normal;font-stretch:normal;font-size:16.06585121px;line-height:0.5;font-family:'Simplon Norm';-inkscape-font-specification:'Simplon Norm';text-align:start;text-anchor:start;fill:#808080;fill-opacity:1"
         d="m 140.21947,158.89678 v 10.02509 h 1.23707 v -10.02509 h 3.00432 v -1.221 h -7.2457 v 1.221 z" />
      <path
         inkscape:connector-curvature="0"
         id="path1576"
         style="font-style:normal;font-variant:normal;font-weight:normal;font-stretch:normal;font-size:16.06585121px;line-height:0.5;font-family:'Simplon Norm';-inkscape-font-specification:'Simplon Norm';text-align:start;text-anchor:start;fill:#808080;fill-opacity:1"
         d="m 149.12824,160.40697 c -0.7551,0 -1.62265,0.33739 -2.04037,1.01215 v -3.74334 h -1.20494 v 11.24609 h 1.20494 v -5.28566 c 0,-1.38166 0.96395,-2.07249 2.04037,-2.07249 1.07641,0 2.04036,0.69083 2.04036,2.07249 v 5.28566 h 1.20494 v -5.26959 c 0,-2.44201 -1.70298,-3.24531 -3.2453,-3.24531 z" />
      <path
         inkscape:connector-curvature="0"
         id="path1578"
         style="font-style:normal;font-variant:normal;font-weight:normal;font-stretch:normal;font-size:16.06585121px;line-height:0.5;font-family:'Simplon Norm';-inkscape-font-specification:'Simplon Norm';text-align:start;text-anchor:start;fill:#808080;fill-opacity:1"
         d="m 157.68933,167.92579 c -1.07641,0 -2.04037,-0.69083 -2.04037,-2.07249 V 165.05 h 5.28567 v -1.39772 c 0,-2.44201 -1.70298,-3.24531 -3.2453,-3.24531 -1.54232,0 -3.2453,0.8033 -3.2453,3.24531 v 2.18495 c 0,2.44201 1.70298,3.2453 3.2453,3.2453 1.44592,0 3.02038,-0.69083 3.22923,-2.76332 h -1.23707 c -0.19279,1.07641 -1.04428,1.60658 -1.99216,1.60658 z m 2.04036,-3.98433 h -4.08073 v -0.30525 c 0,-1.38166 0.96396,-2.07249 2.04037,-2.07249 1.07641,0 2.04036,0.69083 2.04036,2.07249 z" />
      <path
         inkscape:connector-curvature="0"
         id="path1580"
         style="font-style:normal;font-variant:normal;font-weight:normal;font-stretch:normal;font-size:16.06585121px;line-height:0.5;font-family:'Simplon Norm';-inkscape-font-specification:'Simplon Norm';text-align:start;text-anchor:start;fill:#808080;fill-opacity:1"
         d="m 169.67596,169.08253 c 0.75509,0 1.62265,-0.33738 2.04036,-1.01215 v 0.85149 h 1.20494 v -11.24609 h -1.20494 v 3.74334 c -0.41771,-0.67476 -1.28527,-1.01215 -2.04036,-1.01215 -1.54233,0 -3.24531,0.8033 -3.24531,3.24531 v 2.18495 c 0,2.44201 1.70298,3.2453 3.24531,3.2453 z m -2.04037,-5.44632 c 0,-1.38166 0.96395,-2.07249 2.04037,-2.07249 1.07641,0 2.04036,0.69083 2.04036,2.07249 v 2.21709 c 0,1.38166 -0.96395,2.07249 -2.04036,2.07249 -1.07642,0 -2.04037,-0.69083 -2.04037,-2.07249 z" />
      <path
         inkscape:connector-curvature="0"
         id="path1582"
         style="font-style:normal;font-variant:normal;font-weight:normal;font-stretch:normal;font-size:16.06585121px;line-height:0.5;font-family:'Simplon Norm';-inkscape-font-specification:'Simplon Norm';text-align:start;text-anchor:start;fill:#808080;fill-opacity:1"
         d="m 178.24006,161.56372 c 1.07641,0 2.04036,0.69083 2.04036,2.07249 v 0.14459 c -1.39772,0.0964 -2.5866,0.19279 -3.53448,0.46591 -1.44593,0.41771 -1.79938,1.54232 -1.79938,2.37775 0,1.70298 1.33347,2.45807 2.74726,2.45807 1.12461,0 2.05643,-0.32131 2.5866,-1.01215 v 0.85149 h 1.20494 v -5.26959 c 0,-2.44201 -1.70298,-3.24531 -3.2453,-3.24531 -1.44593,0 -3.02038,0.69084 -3.22923,2.76333 h 1.23707 c 0.19279,-1.07641 1.04428,-1.60658 1.99216,-1.60658 z m 2.04036,4.36991 c 0,1.30133 -1.02821,1.99216 -2.32954,1.99216 -1.22101,0 -1.79938,-0.57837 -1.79938,-1.33346 0,-0.48198 0.11246,-0.85149 0.72296,-1.18888 0.56231,-0.30525 1.59052,-0.41771 3.40596,-0.54624 z" />
      <path
         inkscape:connector-curvature="0"
         id="path1584"
         style="font-style:normal;font-variant:normal;font-weight:normal;font-stretch:normal;font-size:16.06585121px;line-height:0.5;font-family:'Simplon Norm';-inkscape-font-specification:'Simplon Norm';text-align:start;text-anchor:start;fill:#808080;fill-opacity:1"
         d="m 185.37882,161.78864 h 2.04036 v -1.15674 h -2.04036 v -1.87971 h -1.20494 v 1.87971 h -1.17281 v 1.15674 h 1.17281 v 5.15714 c 0,1.41379 0.43378,1.97609 1.9761,1.97609 h 1.2692 v -1.15674 h -1.2692 c -0.57837,0 -0.77116,-0.19279 -0.77116,-0.72296 z" />
      <path
         inkscape:connector-curvature="0"
         id="path1586"
         style="font-style:normal;font-variant:normal;font-weight:normal;font-stretch:normal;font-size:16.06585121px;line-height:0.5;font-family:'Simplon Norm';-inkscape-font-specification:'Simplon Norm';text-align:start;text-anchor:start;fill:#808080;fill-opacity:1"
         d="m 192.20354,161.56372 c 1.07642,0 2.04037,0.69083 2.04037,2.07249 v 0.14459 c -1.39773,0.0964 -2.58661,0.19279 -3.53449,0.46591 -1.44593,0.41771 -1.79938,1.54232 -1.79938,2.37775 0,1.70298 1.33347,2.45807 2.74726,2.45807 1.12461,0 2.05643,-0.32131 2.58661,-1.01215 v 0.85149 h 1.20493 v -5.26959 c 0,-2.44201 -1.70298,-3.24531 -3.2453,-3.24531 -1.44592,0 -3.02038,0.69084 -3.22923,2.76333 h 1.23707 c 0.19279,-1.07641 1.04428,-1.60658 1.99216,-1.60658 z m 2.04037,4.36991 c 0,1.30133 -1.02822,1.99216 -2.32955,1.99216 -1.22101,0 -1.79938,-0.57837 -1.79938,-1.33346 0,-0.48198 0.11246,-0.85149 0.72297,-1.18888 0.5623,-0.30525 1.59051,-0.41771 3.40596,-0.54624 z" />
      <path
         inkscape:connector-curvature="0"
         id="path1588"
         style="font-style:normal;font-variant:normal;font-weight:normal;font-stretch:normal;font-size:16.06585121px;line-height:0.5;font-family:'Simplon Norm';-inkscape-font-specification:'Simplon Norm';text-align:start;text-anchor:start;fill:#808080;fill-opacity:1"
         d="m 203.21417,163.05784 c -0.12852,-1.84757 -1.36559,-2.65087 -3.03644,-2.65087 -1.52626,0 -2.79546,0.88363 -2.79546,2.40988 0,1.47806 1.14067,2.08856 2.04036,2.29742 l 1.62265,0.40164 c 0.91576,0.22493 1.15674,0.69084 1.15674,1.22101 -0.0161,0.72296 -0.54623,1.18887 -1.70298,1.18887 -1.10854,0 -1.9761,-0.48197 -2.08856,-1.65478 h -1.23707 c 0.12853,2.00823 1.59052,2.81152 3.32563,2.81152 1.68692,0 2.92399,-0.67476 2.92399,-2.31348 0,-1.52625 -0.86756,-2.15282 -2.12069,-2.45807 l -1.55839,-0.38558 c -0.67477,-0.16066 -1.14068,-0.46591 -1.14068,-1.15675 0,-0.75509 0.6587,-1.20493 1.55839,-1.20493 1.02822,0 1.67085,0.53017 1.81544,1.49412 z" />
      <path
         inkscape:connector-curvature="0"
         id="path1590"
         style="font-style:normal;font-variant:normal;font-weight:normal;font-stretch:normal;font-size:16.06585121px;line-height:0.5;font-family:'Simplon Norm';-inkscape-font-specification:'Simplon Norm';text-align:start;text-anchor:start;fill:#808080;fill-opacity:1"
         d="m 208.33441,167.92579 c -1.07641,0 -2.04036,-0.69083 -2.04036,-2.07249 V 165.05 h 5.28566 v -1.39772 c 0,-2.44201 -1.70298,-3.24531 -3.2453,-3.24531 -1.54232,0 -3.2453,0.8033 -3.2453,3.24531 v 2.18495 c 0,2.44201 1.70298,3.2453 3.2453,3.2453 1.44593,0 3.02038,-0.69083 3.22924,-2.76332 h -1.23707 c -0.19279,1.07641 -1.04428,1.60658 -1.99217,1.60658 z m 2.04036,-3.98433 h -4.08072 v -0.30525 c 0,-1.38166 0.96395,-2.07249 2.04036,-2.07249 1.07641,0 2.04036,0.69083 2.04036,2.07249 z" />
      <path
         inkscape:connector-curvature="0"
         id="path1592"
         style="font-style:normal;font-variant:normal;font-weight:normal;font-stretch:normal;font-size:16.06585121px;line-height:0.5;font-family:'Simplon Norm';-inkscape-font-specification:'Simplon Norm';text-align:start;text-anchor:start;fill:#808080;fill-opacity:1"
         d="m 215.28264,161.78864 h 2.04036 v -1.15674 h -2.04036 v -1.87971 h -1.20494 v 1.87971 h -1.17281 v 1.15674 h 1.17281 v 5.15714 c 0,1.41379 0.43378,1.97609 1.9761,1.97609 h 1.2692 v -1.15674 h -1.2692 c -0.57837,0 -0.77116,-0.19279 -0.77116,-0.72296 z" />
      <path
         inkscape:connector-curvature="0"
         id="path1594"
         style="font-style:normal;font-variant:normal;font-weight:normal;font-stretch:normal;font-size:16.06585121px;line-height:0.5;font-family:'Simplon Norm';-inkscape-font-specification:'Simplon Norm';text-align:start;text-anchor:start;fill:#808080;fill-opacity:1"
         d="m 227.67594,160.6319 h -1.18887 l -1.83151,6.45847 -1.60658,-6.45847 h -1.25314 l 2.18495,8.28997 h 1.25314 l 1.84757,-6.50666 1.84758,6.50666 h 1.25313 l 2.18496,-8.28997 h -1.25314 l -1.60658,6.45847 z" />
      <path
         inkscape:connector-curvature="0"
         id="path1596"
         style="font-style:normal;font-variant:normal;font-weight:normal;font-stretch:normal;font-size:16.06585121px;line-height:0.5;font-family:'Simplon Norm';-inkscape-font-specification:'Simplon Norm';text-align:start;text-anchor:start;fill:#808080;fill-opacity:1"
         d="m 234.97937,157.67578 h -1.20494 v 1.55839 h 1.20494 z m 0,2.95612 h -1.20494 v 8.28997 h 1.20494 z" />
      <path
         inkscape:connector-curvature="0"
         id="path1598"
         style="font-style:normal;font-variant:normal;font-weight:normal;font-stretch:normal;font-size:16.06585121px;line-height:0.5;font-family:'Simplon Norm';-inkscape-font-specification:'Simplon Norm';text-align:start;text-anchor:start;fill:#808080;fill-opacity:1"
         d="m 238.55579,157.67578 h -1.20494 v 9.27 c 0,1.41379 0.43377,1.97609 1.9761,1.97609 h 0.25705 v -1.15674 h -0.25705 c -0.57837,0 -0.77116,-0.19279 -0.77116,-0.72296 z" />
      <path
         inkscape:connector-curvature="0"
         id="path1600"
         style="font-style:normal;font-variant:normal;font-weight:normal;font-stretch:normal;font-size:16.06585121px;line-height:0.5;font-family:'Simplon Norm';-inkscape-font-specification:'Simplon Norm';text-align:start;text-anchor:start;fill:#808080;fill-opacity:1"
         d="m 242.635,157.67578 h -1.20494 v 9.27 c 0,1.41379 0.43378,1.97609 1.9761,1.97609 h 0.25706 v -1.15674 h -0.25706 c -0.57837,0 -0.77116,-0.19279 -0.77116,-0.72296 z" />
      <path
         inkscape:connector-curvature="0"
         id="path1602"
         style="font-style:normal;font-variant:normal;font-weight:normal;font-stretch:normal;font-size:16.06585121px;line-height:0.5;font-family:'Simplon Norm';-inkscape-font-specification:'Simplon Norm';text-align:start;text-anchor:start;fill:#808080;fill-opacity:1"
         d="m 252.17033,160.40697 c -1.54232,0 -3.2453,0.8033 -3.2453,3.24531 v 2.18495 c 0,2.45808 1.70298,3.2453 3.2453,3.2453 1.462,0 3.05252,-0.70689 3.22924,-2.84365 h -1.221 c -0.16066,1.12461 -1.04429,1.68691 -2.00824,1.68691 -1.07641,0 -2.04036,-0.69083 -2.04036,-2.07249 v -2.21709 c 0,-1.38166 0.96395,-2.07249 2.04036,-2.07249 0.96395,0 1.84758,0.5623 2.00824,1.68691 h 1.221 c -0.17672,-2.13676 -1.76724,-2.84366 -3.22924,-2.84366 z" />
      <path
         inkscape:connector-curvature="0"
         id="path1604"
         style="font-style:normal;font-variant:normal;font-weight:normal;font-stretch:normal;font-size:16.06585121px;line-height:0.5;font-family:'Simplon Norm';-inkscape-font-specification:'Simplon Norm';text-align:start;text-anchor:start;fill:#808080;fill-opacity:1"
         d="m 262.49466,165.8533 c 0,1.38166 -0.96396,2.07249 -2.04037,2.07249 -1.07641,0 -2.04036,-0.69083 -2.04036,-2.07249 v -2.21709 c 0,-1.38166 0.96395,-2.07249 2.04036,-2.07249 1.07641,0 2.04037,0.69083 2.04037,2.07249 z m 1.20493,-2.20102 c 0,-2.44201 -1.70298,-3.24531 -3.2453,-3.24531 -1.54232,0 -3.2453,0.8033 -3.2453,3.24531 v 2.18495 c 0,2.44201 1.70298,3.2453 3.2453,3.2453 1.54232,0 3.2453,-0.80329 3.2453,-3.2453 z" />
      <path
         inkscape:connector-curvature="0"
         id="path1606"
         style="font-style:normal;font-variant:normal;font-weight:normal;font-stretch:normal;font-size:16.06585121px;line-height:0.5;font-family:'Simplon Norm';-inkscape-font-specification:'Simplon Norm';text-align:start;text-anchor:start;fill:#808080;fill-opacity:1"
         d="m 269.12006,160.40697 c -0.75509,0 -1.62265,0.33739 -2.04036,1.01215 v -0.78722 h -1.20494 v 8.28997 h 1.20494 v -5.28566 c 0,-1.38166 0.96395,-2.07249 2.04036,-2.07249 1.07642,0 2.04037,0.69083 2.04037,2.07249 v 5.28566 h 1.20494 v -5.26959 c 0,-2.44201 -1.70298,-3.24531 -3.24531,-3.24531 z" />
      <path
         inkscape:connector-curvature="0"
         id="path1608"
         style="font-style:normal;font-variant:normal;font-weight:normal;font-stretch:normal;font-size:16.06585121px;line-height:0.5;font-family:'Simplon Norm';-inkscape-font-specification:'Simplon Norm';text-align:start;text-anchor:start;fill:#808080;fill-opacity:1"
         d="m 276.25128,161.78864 h 2.04037 v -1.15674 h -2.04037 v -1.87971 h -1.20493 v 1.87971 h -1.17281 v 1.15674 h 1.17281 v 5.15714 c 0,1.41379 0.43377,1.97609 1.97609,1.97609 h 1.26921 v -1.15674 h -1.26921 c -0.57837,0 -0.77116,-0.19279 -0.77116,-0.72296 z" />
      <path
         inkscape:connector-curvature="0"
         id="path1610"
         style="font-style:normal;font-variant:normal;font-weight:normal;font-stretch:normal;font-size:16.06585121px;line-height:0.5;font-family:'Simplon Norm';-inkscape-font-specification:'Simplon Norm';text-align:start;text-anchor:start;fill:#808080;fill-opacity:1"
         d="m 283.07601,161.56372 c 1.07641,0 2.04036,0.69083 2.04036,2.07249 v 0.14459 c -1.39773,0.0964 -2.5866,0.19279 -3.53449,0.46591 -1.44592,0.41771 -1.79937,1.54232 -1.79937,2.37775 0,1.70298 1.33346,2.45807 2.74726,2.45807 1.12461,0 2.05643,-0.32131 2.5866,-1.01215 v 0.85149 h 1.20494 v -5.26959 c 0,-2.44201 -1.70298,-3.24531 -3.2453,-3.24531 -1.44593,0 -3.02038,0.69084 -3.22924,2.76333 h 1.23707 c 0.19279,-1.07641 1.04428,-1.60658 1.99217,-1.60658 z m 2.04036,4.36991 c 0,1.30133 -1.02822,1.99216 -2.32955,1.99216 -1.221,0 -1.79937,-0.57837 -1.79937,-1.33346 0,-0.48198 0.11246,-0.85149 0.72296,-1.18888 0.5623,-0.30525 1.59052,-0.41771 3.40596,-0.54624 z" />
      <path
         inkscape:connector-curvature="0"
         id="path1612"
         style="font-style:normal;font-variant:normal;font-weight:normal;font-stretch:normal;font-size:16.06585121px;line-height:0.5;font-family:'Simplon Norm';-inkscape-font-specification:'Simplon Norm';text-align:start;text-anchor:start;fill:#808080;fill-opacity:1"
         d="m 289.82919,157.67578 h -1.20494 v 1.55839 h 1.20494 z m 0,2.95612 h -1.20494 v 8.28997 h 1.20494 z" />
      <path
         inkscape:connector-curvature="0"
         id="path1614"
         style="font-style:normal;font-variant:normal;font-weight:normal;font-stretch:normal;font-size:16.06585121px;line-height:0.5;font-family:'Simplon Norm';-inkscape-font-specification:'Simplon Norm';text-align:start;text-anchor:start;fill:#808080;fill-opacity:1"
         d="m 295.4781,160.40697 c -0.75509,0 -1.62265,0.33739 -2.04036,1.01215 v -0.78722 h -1.20494 v 8.28997 h 1.20494 v -5.28566 c 0,-1.38166 0.96395,-2.07249 2.04036,-2.07249 1.07642,0 2.04037,0.69083 2.04037,2.07249 v 5.28566 h 1.20494 v -5.26959 c 0,-2.44201 -1.70298,-3.24531 -3.24531,-3.24531 z" />
      <path
         inkscape:connector-curvature="0"
         id="path1616"
         style="font-style:normal;font-variant:normal;font-weight:normal;font-stretch:normal;font-size:16.06585121px;line-height:0.5;font-family:'Simplon Norm';-inkscape-font-specification:'Simplon Norm';text-align:start;text-anchor:start;fill:#808080;fill-opacity:1"
         d="m 301.17947,162.31881 h 1.68692 v -1.68691 h -1.68692 z m 0,6.60306 h 1.68692 v -1.68691 h -1.68692 z" />
      <path
         inkscape:connector-curvature="0"
         id="path1618"
         style="font-style:normal;font-variant:normal;font-weight:normal;font-stretch:normal;font-size:16.06585121px;line-height:0.5;font-family:'Simplon Norm';-inkscape-font-specification:'Simplon Norm';text-align:start;text-anchor:start;fill:#808080;fill-opacity:1"
         d="m 142.53295,184.93754 v -1.04428 h -4.65909 v 1.04428 z" />
      <path
         inkscape:connector-curvature="0"
         id="path1620"
         style="font-style:normal;font-variant:normal;font-weight:normal;font-stretch:normal;font-size:16.06585121px;line-height:0.5;font-family:'Simplon Norm';-inkscape-font-specification:'Simplon Norm';text-align:start;text-anchor:start;fill:#808080;fill-opacity:1"
         d="m 151.25671,180.40697 c -1.54232,0 -3.2453,0.8033 -3.2453,3.24531 v 2.18495 c 0,2.45808 1.70298,3.2453 3.2453,3.2453 1.46199,0 3.05251,-0.70689 3.22924,-2.84365 h -1.22101 c -0.16066,1.12461 -1.04428,1.68691 -2.00823,1.68691 -1.07641,0 -2.04036,-0.69083 -2.04036,-2.07249 v -2.21709 c 0,-1.38166 0.96395,-2.07249 2.04036,-2.07249 0.96395,0 1.84757,0.5623 2.00823,1.68691 h 1.22101 c -0.17673,-2.13676 -1.76725,-2.84366 -3.22924,-2.84366 z" />
      <path
         inkscape:connector-curvature="0"
         id="path1622"
         style="font-style:normal;font-variant:normal;font-weight:normal;font-stretch:normal;font-size:16.06585121px;line-height:0.5;font-family:'Simplon Norm';-inkscape-font-specification:'Simplon Norm';text-align:start;text-anchor:start;fill:#808080;fill-opacity:1"
         d="m 161.58103,185.8533 c 0,1.38166 -0.96395,2.07249 -2.04037,2.07249 -1.07641,0 -2.04036,-0.69083 -2.04036,-2.07249 v -2.21709 c 0,-1.38166 0.96395,-2.07249 2.04036,-2.07249 1.07642,0 2.04037,0.69083 2.04037,2.07249 z m 1.20494,-2.20102 c 0,-2.44201 -1.70298,-3.24531 -3.24531,-3.24531 -1.54232,0 -3.2453,0.8033 -3.2453,3.24531 v 2.18495 c 0,2.44201 1.70298,3.2453 3.2453,3.2453 1.54233,0 3.24531,-0.80329 3.24531,-3.2453 z" />
      <path
         inkscape:connector-curvature="0"
         id="path1624"
         style="font-style:normal;font-variant:normal;font-weight:normal;font-stretch:normal;font-size:16.06585121px;line-height:0.5;font-family:'Simplon Norm';-inkscape-font-specification:'Simplon Norm';text-align:start;text-anchor:start;fill:#808080;fill-opacity:1"
         d="m 168.20643,180.40697 c -0.75509,0 -1.62265,0.33739 -2.04036,1.01215 v -0.78722 h -1.20494 v 8.28997 h 1.20494 v -5.28566 c 0,-1.38166 0.96395,-2.07249 2.04036,-2.07249 1.07642,0 2.04037,0.69083 2.04037,2.07249 v 5.28566 h 1.20494 v -5.26959 c 0,-2.44201 -1.70298,-3.24531 -3.24531,-3.24531 z" />
      <path
         inkscape:connector-curvature="0"
         id="path1626"
         style="font-style:normal;font-variant:normal;font-weight:normal;font-stretch:normal;font-size:16.06585121px;line-height:0.5;font-family:'Simplon Norm';-inkscape-font-specification:'Simplon Norm';text-align:start;text-anchor:start;fill:#808080;fill-opacity:1"
         d="m 175.33766,181.78864 h 2.04037 v -1.15674 h -2.04037 v -1.87971 h -1.20493 v 1.87971 h -1.17281 v 1.15674 h 1.17281 v 5.15714 c 0,1.41379 0.43377,1.97609 1.97609,1.97609 h 1.26921 v -1.15674 h -1.26921 c -0.57837,0 -0.77116,-0.19279 -0.77116,-0.72296 z" />
      <path
         inkscape:connector-curvature="0"
         id="path1628"
         style="font-style:normal;font-variant:normal;font-weight:normal;font-stretch:normal;font-size:16.06585121px;line-height:0.5;font-family:'Simplon Norm';-inkscape-font-specification:'Simplon Norm';text-align:start;text-anchor:start;fill:#808080;fill-opacity:1"
         d="m 182.25878,187.92579 c -1.07641,0 -2.04036,-0.69083 -2.04036,-2.07249 V 185.05 h 5.28566 v -1.39772 c 0,-2.44201 -1.70298,-3.24531 -3.2453,-3.24531 -1.54232,0 -3.2453,0.8033 -3.2453,3.24531 v 2.18495 c 0,2.44201 1.70298,3.2453 3.2453,3.2453 1.44593,0 3.02038,-0.69083 3.22924,-2.76332 h -1.23707 c -0.19279,1.07641 -1.04428,1.60658 -1.99217,1.60658 z m 2.04036,-3.98433 h -4.08072 v -0.30525 c 0,-1.38166 0.96395,-2.07249 2.04036,-2.07249 1.07641,0 2.04036,0.69083 2.04036,2.07249 z" />
      <path
         inkscape:connector-curvature="0"
         id="path1630"
         style="font-style:normal;font-variant:normal;font-weight:normal;font-stretch:normal;font-size:16.06585121px;line-height:0.5;font-family:'Simplon Norm';-inkscape-font-specification:'Simplon Norm';text-align:start;text-anchor:start;fill:#808080;fill-opacity:1"
         d="m 190.86179,180.40697 c -0.75509,0 -1.62265,0.33739 -2.04036,1.01215 v -0.78722 h -1.20494 v 8.28997 h 1.20494 v -5.28566 c 0,-1.38166 0.96395,-2.07249 2.04036,-2.07249 1.07642,0 2.04037,0.69083 2.04037,2.07249 v 5.28566 h 1.20494 v -5.26959 c 0,-2.44201 -1.70299,-3.24531 -3.24531,-3.24531 z" />
      <path
         inkscape:connector-curvature="0"
         id="path1632"
         style="font-style:normal;font-variant:normal;font-weight:normal;font-stretch:normal;font-size:16.06585121px;line-height:0.5;font-family:'Simplon Norm';-inkscape-font-specification:'Simplon Norm';text-align:start;text-anchor:start;fill:#808080;fill-opacity:1"
         d="m 197.99303,181.78864 h 2.04036 v -1.15674 h -2.04036 v -1.87971 h -1.20494 v 1.87971 h -1.17281 v 1.15674 h 1.17281 v 5.15714 c 0,1.41379 0.43377,1.97609 1.9761,1.97609 h 1.2692 v -1.15674 h -1.2692 c -0.57837,0 -0.77116,-0.19279 -0.77116,-0.72296 z" />
      <path
         inkscape:connector-curvature="0"
         id="path1634"
         style="font-style:normal;font-variant:normal;font-weight:normal;font-stretch:normal;font-size:16.06585121px;line-height:0.5;font-family:'Simplon Norm';-inkscape-font-specification:'Simplon Norm';text-align:start;text-anchor:start;fill:#808080;fill-opacity:1"
         d="m 206.70724,180.6319 h -1.20494 v 8.28997 h 1.20494 v -5.20533 c 0,-1.38166 0.96395,-2.0725 2.04036,-2.0725 h 0.53018 v -1.15674 h -0.53018 c -0.75509,0 -1.62265,0.33739 -2.04036,1.01215 z" />
      <path
         inkscape:connector-curvature="0"
         id="path1636"
         style="font-style:normal;font-variant:normal;font-weight:normal;font-stretch:normal;font-size:16.06585121px;line-height:0.5;font-family:'Simplon Norm';-inkscape-font-specification:'Simplon Norm';text-align:start;text-anchor:start;fill:#808080;fill-opacity:1"
         d="m 213.73154,187.92579 c -1.07642,0 -2.04037,-0.69083 -2.04037,-2.07249 V 185.05 h 5.28567 v -1.39772 c 0,-2.44201 -1.70298,-3.24531 -3.2453,-3.24531 -1.54232,0 -3.24531,0.8033 -3.24531,3.24531 v 2.18495 c 0,2.44201 1.70299,3.2453 3.24531,3.2453 1.44592,0 3.02038,-0.69083 3.22923,-2.76332 h -1.23707 c -0.19279,1.07641 -1.04428,1.60658 -1.99216,1.60658 z m 2.04036,-3.98433 h -4.08073 v -0.30525 c 0,-1.38166 0.96395,-2.07249 2.04037,-2.07249 1.07641,0 2.04036,0.69083 2.04036,2.07249 z" />
      <path
         inkscape:connector-curvature="0"
         id="path1638"
         style="font-style:normal;font-variant:normal;font-weight:normal;font-stretch:normal;font-size:16.06585121px;line-height:0.5;font-family:'Simplon Norm';-inkscape-font-specification:'Simplon Norm';text-align:start;text-anchor:start;fill:#808080;fill-opacity:1"
         d="m 220.26205,177.67578 h -1.20494 v 9.27 c 0,1.41379 0.43378,1.97609 1.9761,1.97609 h 0.25706 v -1.15674 h -0.25706 c -0.57837,0 -0.77116,-0.19279 -0.77116,-0.72296 z" />
      <path
         inkscape:connector-curvature="0"
         id="path1640"
         style="font-style:normal;font-variant:normal;font-weight:normal;font-stretch:normal;font-size:16.06585121px;line-height:0.5;font-family:'Simplon Norm';-inkscape-font-specification:'Simplon Norm';text-align:start;text-anchor:start;fill:#808080;fill-opacity:1"
         d="m 226.09245,181.56372 c 1.07641,0 2.04036,0.69083 2.04036,2.07249 v 0.14459 c -1.39773,0.0964 -2.5866,0.19279 -3.53449,0.46591 -1.44592,0.41771 -1.79937,1.54232 -1.79937,2.37775 0,1.70298 1.33346,2.45807 2.74726,2.45807 1.12461,0 2.05643,-0.32131 2.5866,-1.01215 v 0.85149 h 1.20494 v -5.26959 c 0,-2.44201 -1.70298,-3.24531 -3.2453,-3.24531 -1.44593,0 -3.02038,0.69084 -3.22924,2.76333 h 1.23707 c 0.19279,-1.07641 1.04428,-1.60658 1.99217,-1.60658 z m 2.04036,4.36991 c 0,1.30133 -1.02821,1.99216 -2.32955,1.99216 -1.221,0 -1.79937,-0.57837 -1.79937,-1.33346 0,-0.48198 0.11246,-0.85149 0.72296,-1.18888 0.56231,-0.30525 1.59052,-0.41771 3.40596,-0.54624 z" />
      <path
         inkscape:connector-curvature="0"
         id="path1642"
         style="font-style:normal;font-variant:normal;font-weight:normal;font-stretch:normal;font-size:16.06585121px;line-height:0.5;font-family:'Simplon Norm';-inkscape-font-specification:'Simplon Norm';text-align:start;text-anchor:start;fill:#808080;fill-opacity:1"
         d="m 233.23121,181.78864 h 2.04036 v -1.15674 h -2.04036 v -1.87971 h -1.20494 v 1.87971 h -1.1728 v 1.15674 h 1.1728 v 5.15714 c 0,1.41379 0.43378,1.97609 1.9761,1.97609 h 1.2692 v -1.15674 h -1.2692 c -0.57837,0 -0.77116,-0.19279 -0.77116,-0.72296 z" />
      <path
         inkscape:connector-curvature="0"
         id="path1644"
         style="font-style:normal;font-variant:normal;font-weight:normal;font-stretch:normal;font-size:16.06585121px;line-height:0.5;font-family:'Simplon Norm';-inkscape-font-specification:'Simplon Norm';text-align:start;text-anchor:start;fill:#808080;fill-opacity:1"
         d="m 240.15233,187.92579 c -1.07641,0 -2.04036,-0.69083 -2.04036,-2.07249 V 185.05 h 5.28566 v -1.39772 c 0,-2.44201 -1.70298,-3.24531 -3.2453,-3.24531 -1.54232,0 -3.2453,0.8033 -3.2453,3.24531 v 2.18495 c 0,2.44201 1.70298,3.2453 3.2453,3.2453 1.44593,0 3.02038,-0.69083 3.22923,-2.76332 h -1.23707 c -0.19279,1.07641 -1.04428,1.60658 -1.99216,1.60658 z m 2.04036,-3.98433 h -4.08072 v -0.30525 c 0,-1.38166 0.96395,-2.07249 2.04036,-2.07249 1.07641,0 2.04036,0.69083 2.04036,2.07249 z" />
      <path
         inkscape:connector-curvature="0"
         id="path1646"
         style="font-style:normal;font-variant:normal;font-weight:normal;font-stretch:normal;font-size:16.06585121px;line-height:0.5;font-family:'Simplon Norm';-inkscape-font-specification:'Simplon Norm';text-align:start;text-anchor:start;fill:#808080;fill-opacity:1"
         d="m 248.53042,189.08253 c 0.75509,0 1.62265,-0.33738 2.04036,-1.01215 v 0.85149 h 1.20494 v -11.24609 h -1.20494 v 3.74334 c -0.41771,-0.67476 -1.28527,-1.01215 -2.04036,-1.01215 -1.54232,0 -3.2453,0.8033 -3.2453,3.24531 v 2.18495 c 0,2.44201 1.70298,3.2453 3.2453,3.2453 z m -2.04036,-5.44632 c 0,-1.38166 0.96395,-2.07249 2.04036,-2.07249 1.07641,0 2.04036,0.69083 2.04036,2.07249 v 2.21709 c 0,1.38166 -0.96395,2.07249 -2.04036,2.07249 -1.07641,0 -2.04036,-0.69083 -2.04036,-2.07249 z" />
      <path
         inkscape:connector-curvature="0"
         id="path1648"
         style="font-style:normal;font-variant:normal;font-weight:normal;font-stretch:normal;font-size:16.06585121px;line-height:0.5;font-family:'Simplon Norm';-inkscape-font-specification:'Simplon Norm';text-align:start;text-anchor:start;fill:#808080;fill-opacity:1"
         d="m 142.53295,204.93754 v -1.04428 h -4.65909 v 1.04428 z" />
      <path
         inkscape:connector-curvature="0"
         id="path1650"
         style="font-style:normal;font-variant:normal;font-weight:normal;font-stretch:normal;font-size:16.06585121px;line-height:0.5;font-family:'Simplon Norm';-inkscape-font-specification:'Simplon Norm';text-align:start;text-anchor:start;fill:#808080;fill-opacity:1"
         d="m 149.44127,200.6319 h -1.20494 v 8.28997 h 1.20494 v -5.20533 c 0,-1.38166 0.96395,-2.0725 2.04036,-2.0725 h 0.53018 v -1.15674 h -0.53018 c -0.75509,0 -1.62265,0.33739 -2.04036,1.01215 z" />
      <path
         inkscape:connector-curvature="0"
         id="path1652"
         style="font-style:normal;font-variant:normal;font-weight:normal;font-stretch:normal;font-size:16.06585121px;line-height:0.5;font-family:'Simplon Norm';-inkscape-font-specification:'Simplon Norm';text-align:start;text-anchor:start;fill:#808080;fill-opacity:1"
         d="m 156.46556,207.92579 c -1.07641,0 -2.04036,-0.69083 -2.04036,-2.07249 V 205.05 h 5.28566 v -1.39772 c 0,-2.44201 -1.70298,-3.24531 -3.2453,-3.24531 -1.54232,0 -3.2453,0.8033 -3.2453,3.24531 v 2.18495 c 0,2.44201 1.70298,3.2453 3.2453,3.2453 1.44593,0 3.02038,-0.69083 3.22924,-2.76332 h -1.23707 c -0.19279,1.07641 -1.04428,1.60658 -1.99217,1.60658 z m 2.04036,-3.98433 h -4.08072 v -0.30525 c 0,-1.38166 0.96395,-2.07249 2.04036,-2.07249 1.07641,0 2.04036,0.69083 2.04036,2.07249 z" />
      <path
         inkscape:connector-curvature="0"
         id="path1654"
         style="font-style:normal;font-variant:normal;font-weight:normal;font-stretch:normal;font-size:16.06585121px;line-height:0.5;font-family:'Simplon Norm';-inkscape-font-specification:'Simplon Norm';text-align:start;text-anchor:start;fill:#808080;fill-opacity:1"
         d="m 164.84365,200.40697 c -1.54232,0 -3.2453,0.8033 -3.2453,3.24531 v 2.18495 c 0,2.45808 1.70298,3.2453 3.2453,3.2453 1.46199,0 3.05251,-0.70689 3.22924,-2.84365 h -1.22101 c -0.16066,1.12461 -1.04428,1.68691 -2.00823,1.68691 -1.07641,0 -2.04036,-0.69083 -2.04036,-2.07249 v -2.21709 c 0,-1.38166 0.96395,-2.07249 2.04036,-2.07249 0.96395,0 1.84757,0.5623 2.00823,1.68691 h 1.22101 c -0.17673,-2.13676 -1.76725,-2.84366 -3.22924,-2.84366 z" />
      <path
         inkscape:connector-curvature="0"
         id="path1656"
         style="font-style:normal;font-variant:normal;font-weight:normal;font-stretch:normal;font-size:16.06585121px;line-height:0.5;font-family:'Simplon Norm';-inkscape-font-specification:'Simplon Norm';text-align:start;text-anchor:start;fill:#808080;fill-opacity:1"
         d="m 175.16797,205.8533 c 0,1.38166 -0.96395,2.07249 -2.04036,2.07249 -1.07642,0 -2.04037,-0.69083 -2.04037,-2.07249 v -2.21709 c 0,-1.38166 0.96395,-2.07249 2.04037,-2.07249 1.07641,0 2.04036,0.69083 2.04036,2.07249 z m 1.20494,-2.20102 c 0,-2.44201 -1.70298,-3.24531 -3.2453,-3.24531 -1.54233,0 -3.24531,0.8033 -3.24531,3.24531 v 2.18495 c 0,2.44201 1.70298,3.2453 3.24531,3.2453 1.54232,0 3.2453,-0.80329 3.2453,-3.2453 z" />
      <path
         inkscape:connector-curvature="0"
         id="path1658"
         style="font-style:normal;font-variant:normal;font-weight:normal;font-stretch:normal;font-size:16.06585121px;line-height:0.5;font-family:'Simplon Norm';-inkscape-font-specification:'Simplon Norm';text-align:start;text-anchor:start;fill:#808080;fill-opacity:1"
         d="m 189.84236,208.92187 v -5.26959 c 0,-2.34562 -1.63871,-3.24531 -3.13284,-3.24531 -0.93182,0 -1.96003,0.38558 -2.52234,1.30134 -0.5623,-0.91576 -1.57445,-1.30134 -2.50627,-1.30134 -0.6105,0 -1.52625,0.33739 -1.9279,1.01215 v -0.78722 h -1.20494 v 8.28997 h 1.20494 v -5.28566 c 0,-1.33347 0.94788,-2.07249 1.9279,-2.07249 0.94789,0 1.91184,0.73902 1.91184,1.97609 v 5.38206 h 1.20494 v -5.28566 c 0,-1.33347 0.94788,-2.07249 1.9279,-2.07249 0.94788,0 1.91184,0.73902 1.91184,1.97609 v 5.38206 z" />
      <path
         inkscape:connector-curvature="0"
         id="path1660"
         style="font-style:normal;font-variant:normal;font-weight:normal;font-stretch:normal;font-size:16.06585121px;line-height:0.5;font-family:'Simplon Norm';-inkscape-font-specification:'Simplon Norm';text-align:start;text-anchor:start;fill:#808080;fill-opacity:1"
         d="m 203.42931,208.92187 v -5.26959 c 0,-2.34562 -1.63872,-3.24531 -3.13285,-3.24531 -0.93182,0 -1.96003,0.38558 -2.52233,1.30134 -0.56231,-0.91576 -1.57446,-1.30134 -2.50628,-1.30134 -0.6105,0 -1.52625,0.33739 -1.9279,1.01215 v -0.78722 h -1.20494 v 8.28997 h 1.20494 v -5.28566 c 0,-1.33347 0.94789,-2.07249 1.9279,-2.07249 0.94789,0 1.91184,0.73902 1.91184,1.97609 v 5.38206 h 1.20494 v -5.28566 c 0,-1.33347 0.94788,-2.07249 1.9279,-2.07249 0.94789,0 1.91184,0.73902 1.91184,1.97609 v 5.38206 z" />
      <path
         inkscape:connector-curvature="0"
         id="path1662"
         style="font-style:normal;font-variant:normal;font-weight:normal;font-stretch:normal;font-size:16.06585121px;line-height:0.5;font-family:'Simplon Norm';-inkscape-font-specification:'Simplon Norm';text-align:start;text-anchor:start;fill:#808080;fill-opacity:1"
         d="m 208.74233,207.92579 c -1.07641,0 -2.04036,-0.69083 -2.04036,-2.07249 V 205.05 h 5.28566 v -1.39772 c 0,-2.44201 -1.70298,-3.24531 -3.2453,-3.24531 -1.54232,0 -3.2453,0.8033 -3.2453,3.24531 v 2.18495 c 0,2.44201 1.70298,3.2453 3.2453,3.2453 1.44593,0 3.02038,-0.69083 3.22924,-2.76332 h -1.23707 c -0.19279,1.07641 -1.04428,1.60658 -1.99217,1.60658 z m 2.04037,-3.98433 h -4.08073 v -0.30525 c 0,-1.38166 0.96395,-2.07249 2.04036,-2.07249 1.07641,0 2.04037,0.69083 2.04037,2.07249 z" />
      <path
         inkscape:connector-curvature="0"
         id="path1664"
         style="font-style:normal;font-variant:normal;font-weight:normal;font-stretch:normal;font-size:16.06585121px;line-height:0.5;font-family:'Simplon Norm';-inkscape-font-specification:'Simplon Norm';text-align:start;text-anchor:start;fill:#808080;fill-opacity:1"
         d="m 217.34534,200.40697 c -0.75509,0 -1.62265,0.33739 -2.04036,1.01215 v -0.78722 h -1.20494 v 8.28997 h 1.20494 v -5.28566 c 0,-1.38166 0.96395,-2.07249 2.04036,-2.07249 1.07642,0 2.04037,0.69083 2.04037,2.07249 v 5.28566 h 1.20494 v -5.26959 c 0,-2.44201 -1.70298,-3.24531 -3.24531,-3.24531 z" />
      <path
         inkscape:connector-curvature="0"
         id="path1666"
         style="font-style:normal;font-variant:normal;font-weight:normal;font-stretch:normal;font-size:16.06585121px;line-height:0.5;font-family:'Simplon Norm';-inkscape-font-specification:'Simplon Norm';text-align:start;text-anchor:start;fill:#808080;fill-opacity:1"
         d="m 225.90643,209.08253 c 0.7551,0 1.62265,-0.33738 2.04037,-1.01215 v 0.85149 h 1.20494 v -11.24609 h -1.20494 v 3.74334 c -0.41772,-0.67476 -1.28527,-1.01215 -2.04037,-1.01215 -1.54232,0 -3.2453,0.8033 -3.2453,3.24531 v 2.18495 c 0,2.44201 1.70298,3.2453 3.2453,3.2453 z m -2.04036,-5.44632 c 0,-1.38166 0.96395,-2.07249 2.04036,-2.07249 1.07642,0 2.04037,0.69083 2.04037,2.07249 v 2.21709 c 0,1.38166 -0.96395,2.07249 -2.04037,2.07249 -1.07641,0 -2.04036,-0.69083 -2.04036,-2.07249 z" />
      <path
         inkscape:connector-curvature="0"
         id="path1668"
         style="font-style:normal;font-variant:normal;font-weight:normal;font-stretch:normal;font-size:16.06585121px;line-height:0.5;font-family:'Simplon Norm';-inkscape-font-specification:'Simplon Norm';text-align:start;text-anchor:start;fill:#808080;fill-opacity:1"
         d="m 234.56693,207.92579 c -1.07641,0 -2.04036,-0.69083 -2.04036,-2.07249 V 205.05 h 5.28566 v -1.39772 c 0,-2.44201 -1.70298,-3.24531 -3.2453,-3.24531 -1.54232,0 -3.2453,0.8033 -3.2453,3.24531 v 2.18495 c 0,2.44201 1.70298,3.2453 3.2453,3.2453 1.44593,0 3.02038,-0.69083 3.22924,-2.76332 h -1.23707 c -0.19279,1.07641 -1.04428,1.60658 -1.99217,1.60658 z m 2.04037,-3.98433 h -4.08073 v -0.30525 c 0,-1.38166 0.96395,-2.07249 2.04036,-2.07249 1.07641,0 2.04037,0.69083 2.04037,2.07249 z" />
      <path
         inkscape:connector-curvature="0"
         id="path1670"
         style="font-style:normal;font-variant:normal;font-weight:normal;font-stretch:normal;font-size:16.06585121px;line-height:0.5;font-family:'Simplon Norm';-inkscape-font-specification:'Simplon Norm';text-align:start;text-anchor:start;fill:#808080;fill-opacity:1"
         d="m 242.94502,209.08253 c 0.7551,0 1.62265,-0.33738 2.04037,-1.01215 v 0.85149 h 1.20493 v -11.24609 h -1.20493 v 3.74334 c -0.41772,-0.67476 -1.28527,-1.01215 -2.04037,-1.01215 -1.54232,0 -3.2453,0.8033 -3.2453,3.24531 v 2.18495 c 0,2.44201 1.70298,3.2453 3.2453,3.2453 z m -2.04036,-5.44632 c 0,-1.38166 0.96395,-2.07249 2.04036,-2.07249 1.07641,0 2.04037,0.69083 2.04037,2.07249 v 2.21709 c 0,1.38166 -0.96396,2.07249 -2.04037,2.07249 -1.07641,0 -2.04036,-0.69083 -2.04036,-2.07249 z" />
      <path
         inkscape:connector-curvature="0"
         id="path1672"
         style="font-style:normal;font-variant:normal;font-weight:normal;font-stretch:normal;font-size:16.06585121px;line-height:0.5;font-family:'Simplon Norm';-inkscape-font-specification:'Simplon Norm';text-align:start;text-anchor:start;fill:#808080;fill-opacity:1"
         d="m 255.8567,198.83252 v -1.15674 h -1.2692 c -1.54232,0 -1.9761,0.5623 -1.9761,1.9761 v 0.98002 h -1.17281 v 1.15674 h 1.17281 v 7.13323 h 1.20494 v -7.13323 h 2.04036 v -1.15674 h -2.04036 v -1.07642 c 0,-0.53017 0.19279,-0.72296 0.77116,-0.72296 z" />
      <path
         inkscape:connector-curvature="0"
         id="path1674"
         style="font-style:normal;font-variant:normal;font-weight:normal;font-stretch:normal;font-size:16.06585121px;line-height:0.5;font-family:'Simplon Norm';-inkscape-font-specification:'Simplon Norm';text-align:start;text-anchor:start;fill:#808080;fill-opacity:1"
         d="m 262.21225,205.8533 c 0,1.38166 -0.96396,2.07249 -2.04037,2.07249 -1.07641,0 -2.04036,-0.69083 -2.04036,-2.07249 v -2.21709 c 0,-1.38166 0.96395,-2.07249 2.04036,-2.07249 1.07641,0 2.04037,0.69083 2.04037,2.07249 z m 1.20493,-2.20102 c 0,-2.44201 -1.70298,-3.24531 -3.2453,-3.24531 -1.54232,0 -3.2453,0.8033 -3.2453,3.24531 v 2.18495 c 0,2.44201 1.70298,3.2453 3.2453,3.2453 1.54232,0 3.2453,-0.80329 3.2453,-3.2453 z" />
      <path
         inkscape:connector-curvature="0"
         id="path1676"
         style="font-style:normal;font-variant:normal;font-weight:normal;font-stretch:normal;font-size:16.06585121px;line-height:0.5;font-family:'Simplon Norm';-inkscape-font-specification:'Simplon Norm';text-align:start;text-anchor:start;fill:#808080;fill-opacity:1"
         d="m 266.79729,200.6319 h -1.20494 v 8.28997 h 1.20494 v -5.20533 c 0,-1.38166 0.96395,-2.0725 2.04036,-2.0725 h 0.53018 v -1.15674 h -0.53018 c -0.75509,0 -1.62265,0.33739 -2.04036,1.01215 z" />
      <path
         inkscape:connector-curvature="0"
         id="path1678"
         style="font-style:normal;font-variant:normal;font-weight:normal;font-stretch:normal;font-size:16.06585121px;line-height:0.5;font-family:'Simplon Norm';-inkscape-font-specification:'Simplon Norm';text-align:start;text-anchor:start;fill:#808080;fill-opacity:1"
         d="m 280.6586,200.6319 h -1.28527 l -2.37775,6.73159 -2.37774,-6.73159 h -1.28527 l 3.03645,8.4185 -0.43378,1.18887 c -0.0964,0.28919 -0.20886,0.48198 -0.72296,0.48198 h -0.61051 v 1.15674 h 0.46591 c 1.04428,-0.0161 1.60659,-0.20885 1.83151,-0.85149 z" />
      <path
         inkscape:connector-curvature="0"
         id="path1680"
         style="font-style:normal;font-variant:normal;font-weight:normal;font-stretch:normal;font-size:16.06585121px;line-height:0.5;font-family:'Simplon Norm';-inkscape-font-specification:'Simplon Norm';text-align:start;text-anchor:start;fill:#808080;fill-opacity:1"
         d="m 287.00135,205.8533 c 0,1.38166 -0.96395,2.07249 -2.04036,2.07249 -1.07641,0 -2.04036,-0.69083 -2.04036,-2.07249 v -2.21709 c 0,-1.38166 0.96395,-2.07249 2.04036,-2.07249 1.07641,0 2.04036,0.69083 2.04036,2.07249 z m 1.20494,-2.20102 c 0,-2.44201 -1.70298,-3.24531 -3.2453,-3.24531 -1.54232,0 -3.2453,0.8033 -3.2453,3.24531 v 2.18495 c 0,2.44201 1.70298,3.2453 3.2453,3.2453 1.54232,0 3.2453,-0.80329 3.2453,-3.2453 z" />
      <path
         inkscape:connector-curvature="0"
         id="path1682"
         style="font-style:normal;font-variant:normal;font-weight:normal;font-stretch:normal;font-size:16.06585121px;line-height:0.5;font-family:'Simplon Norm';-inkscape-font-specification:'Simplon Norm';text-align:start;text-anchor:start;fill:#808080;fill-opacity:1"
         d="m 293.4661,209.08253 c 0.70689,0 1.57445,-0.35345 1.99216,-1.01215 v 0.85149 h 1.20494 v -8.28997 h -1.20494 v 5.2214 c 0,1.36559 -0.98002,2.07249 -1.99216,2.07249 -0.98002,0 -1.99217,-0.64263 -1.99217,-2.12069 v -5.1732 h -1.20494 v 5.25353 c 0,2.45807 1.83151,3.1971 3.19711,3.1971 z" />
      <path
         inkscape:connector-curvature="0"
         id="path1684"
         style="font-style:normal;font-variant:normal;font-weight:normal;font-stretch:normal;font-size:16.06585121px;line-height:0.5;font-family:'Simplon Norm';-inkscape-font-specification:'Simplon Norm';text-align:start;text-anchor:start;fill:#808080;fill-opacity:1"
         d="m 142.53295,224.93754 v -1.04428 h -4.65909 v 1.04428 z" />
      <path
         inkscape:connector-curvature="0"
         id="path1686"
         style="font-style:normal;font-variant:normal;font-weight:normal;font-stretch:normal;font-size:16.06585121px;line-height:0.5;font-family:'Simplon Norm';-inkscape-font-specification:'Simplon Norm';text-align:start;text-anchor:start;fill:#808080;fill-opacity:1"
         d="m 149.44127,217.67578 h -1.20494 v 1.55839 h 1.20494 z m 0,2.95612 h -1.20494 v 8.28997 h 1.20494 z" />
      <path
         inkscape:connector-curvature="0"
         id="path1688"
         style="font-style:normal;font-variant:normal;font-weight:normal;font-stretch:normal;font-size:16.06585121px;line-height:0.5;font-family:'Simplon Norm';-inkscape-font-specification:'Simplon Norm';text-align:start;text-anchor:start;fill:#808080;fill-opacity:1"
         d="m 155.09017,220.40697 c -0.75509,0 -1.62265,0.33739 -2.04036,1.01215 v -0.78722 h -1.20494 v 8.28997 h 1.20494 v -5.28566 c 0,-1.38166 0.96395,-2.07249 2.04036,-2.07249 1.07642,0 2.04037,0.69083 2.04037,2.07249 v 5.28566 h 1.20494 v -5.26959 c 0,-2.44201 -1.70298,-3.24531 -3.24531,-3.24531 z" />
      <path
         inkscape:connector-curvature="0"
         id="path1690"
         style="font-style:normal;font-variant:normal;font-weight:normal;font-stretch:normal;font-size:16.06585121px;line-height:0.5;font-family:'Simplon Norm';-inkscape-font-specification:'Simplon Norm';text-align:start;text-anchor:start;fill:#808080;fill-opacity:1"
         d="m 170.45691,220.6319 h -1.28527 l -2.37775,6.73159 -2.37774,-6.73159 h -1.28527 l 3.03645,8.4185 -0.43378,1.18887 c -0.0964,0.28919 -0.20886,0.48198 -0.72297,0.48198 h -0.6105 v 1.15674 h 0.46591 c 1.04428,-0.0161 1.60659,-0.20885 1.83151,-0.85149 z" />
      <path
         inkscape:connector-curvature="0"
         id="path1692"
         style="font-style:normal;font-variant:normal;font-weight:normal;font-stretch:normal;font-size:16.06585121px;line-height:0.5;font-family:'Simplon Norm';-inkscape-font-specification:'Simplon Norm';text-align:start;text-anchor:start;fill:#808080;fill-opacity:1"
         d="m 176.79966,225.8533 c 0,1.38166 -0.96396,2.07249 -2.04037,2.07249 -1.07641,0 -2.04036,-0.69083 -2.04036,-2.07249 v -2.21709 c 0,-1.38166 0.96395,-2.07249 2.04036,-2.07249 1.07641,0 2.04037,0.69083 2.04037,2.07249 z m 1.20493,-2.20102 c 0,-2.44201 -1.70298,-3.24531 -3.2453,-3.24531 -1.54232,0 -3.2453,0.8033 -3.2453,3.24531 v 2.18495 c 0,2.44201 1.70298,3.2453 3.2453,3.2453 1.54232,0 3.2453,-0.80329 3.2453,-3.2453 z" />
      <path
         inkscape:connector-curvature="0"
         id="path1694"
         style="font-style:normal;font-variant:normal;font-weight:normal;font-stretch:normal;font-size:16.06585121px;line-height:0.5;font-family:'Simplon Norm';-inkscape-font-specification:'Simplon Norm';text-align:start;text-anchor:start;fill:#808080;fill-opacity:1"
         d="m 183.26441,229.08253 c 0.70689,0 1.57445,-0.35345 1.99216,-1.01215 v 0.85149 h 1.20494 v -8.28997 h -1.20494 v 5.2214 c 0,1.36559 -0.98002,2.07249 -1.99216,2.07249 -0.98002,0 -1.99217,-0.64263 -1.99217,-2.12069 v -5.1732 h -1.20494 v 5.25353 c 0,2.45807 1.83151,3.1971 3.19711,3.1971 z" />
      <path
         inkscape:connector-curvature="0"
         id="path1696"
         style="font-style:normal;font-variant:normal;font-weight:normal;font-stretch:normal;font-size:16.06585121px;line-height:0.5;font-family:'Simplon Norm';-inkscape-font-specification:'Simplon Norm';text-align:start;text-anchor:start;fill:#808080;fill-opacity:1"
         d="m 190.07658,220.6319 h -1.20494 v 8.28997 h 1.20494 v -5.20533 c 0,-1.38166 0.96395,-2.0725 2.04036,-2.0725 h 0.53017 v -1.15674 h -0.53017 c -0.7551,0 -1.62265,0.33739 -2.04036,1.01215 z" />
      <path
         inkscape:connector-curvature="0"
         id="path1698"
         style="font-style:normal;font-variant:normal;font-weight:normal;font-stretch:normal;font-size:16.06585121px;line-height:0.5;font-family:'Simplon Norm';-inkscape-font-specification:'Simplon Norm';text-align:start;text-anchor:start;fill:#808080;fill-opacity:1"
         d="m 198.89321,217.67578 h -1.20493 v 9.27 c 0,1.41379 0.43377,1.97609 1.9761,1.97609 h 0.25705 v -1.15674 h -0.25705 c -0.57838,0 -0.77117,-0.19279 -0.77117,-0.72296 z" />
      <path
         inkscape:connector-curvature="0"
         id="path1700"
         style="font-style:normal;font-variant:normal;font-weight:normal;font-stretch:normal;font-size:16.06585121px;line-height:0.5;font-family:'Simplon Norm';-inkscape-font-specification:'Simplon Norm';text-align:start;text-anchor:start;fill:#808080;fill-opacity:1"
         d="m 204.72361,221.56372 c 1.07641,0 2.04037,0.69083 2.04037,2.07249 v 0.14459 c -1.39773,0.0964 -2.58661,0.19279 -3.53449,0.46591 -1.44593,0.41771 -1.79938,1.54232 -1.79938,2.37775 0,1.70298 1.33347,2.45807 2.74726,2.45807 1.12461,0 2.05643,-0.32131 2.58661,-1.01215 v 0.85149 h 1.20493 v -5.26959 c 0,-2.44201 -1.70298,-3.24531 -3.2453,-3.24531 -1.44592,0 -3.02038,0.69084 -3.22923,2.76333 h 1.23707 c 0.19279,-1.07641 1.04428,-1.60658 1.99216,-1.60658 z m 2.04037,4.36991 c 0,1.30133 -1.02822,1.99216 -2.32955,1.99216 -1.22101,0 -1.79938,-0.57837 -1.79938,-1.33346 0,-0.48198 0.11246,-0.85149 0.72296,-1.18888 0.56231,-0.30525 1.59052,-0.41771 3.40597,-0.54624 z" />
      <path
         inkscape:connector-curvature="0"
         id="path1702"
         style="font-style:normal;font-variant:normal;font-weight:normal;font-stretch:normal;font-size:16.06585121px;line-height:0.5;font-family:'Simplon Norm';-inkscape-font-specification:'Simplon Norm';text-align:start;text-anchor:start;fill:#808080;fill-opacity:1"
         d="m 213.51716,220.40697 c -0.7551,0 -1.62265,0.33739 -2.04036,1.01215 v -0.78722 h -1.20494 v 8.28997 h 1.20494 v -5.28566 c 0,-1.38166 0.96395,-2.07249 2.04036,-2.07249 1.07641,0 2.04036,0.69083 2.04036,2.07249 v 5.28566 h 1.20494 v -5.26959 c 0,-2.44201 -1.70298,-3.24531 -3.2453,-3.24531 z" />
      <path
         inkscape:connector-curvature="0"
         id="path1704"
         style="font-style:normal;font-variant:normal;font-weight:normal;font-stretch:normal;font-size:16.06585121px;line-height:0.5;font-family:'Simplon Norm';-inkscape-font-specification:'Simplon Norm';text-align:start;text-anchor:start;fill:#808080;fill-opacity:1"
         d="m 222.06218,230.88191 c -0.96395,0 -1.84757,-0.56231 -2.00823,-1.68692 h -1.221 c 0.17672,2.13676 1.76724,2.84366 3.22923,2.84366 1.54232,0 3.2453,-0.78723 3.2453,-3.2453 v -8.16145 h -1.20494 v 0.78722 c -0.41771,-0.67476 -1.28526,-1.01215 -2.04036,-1.01215 -1.54232,0 -3.2453,0.8033 -3.2453,3.24531 v 1.86363 c 0,2.44201 1.70298,3.24531 3.2453,3.24531 0.7551,0 1.62265,-0.33739 2.04036,-1.01215 v 1.06034 c 0,1.38167 -0.96395,2.0725 -2.04036,2.0725 z m -2.04036,-7.2457 c 0,-1.38166 0.96395,-2.07249 2.04036,-2.07249 1.07641,0 2.04036,0.69083 2.04036,2.07249 v 1.89577 c 0,1.38166 -0.96395,2.0725 -2.04036,2.0725 -1.07641,0 -2.04036,-0.69084 -2.04036,-2.0725 z" />
      <path
         inkscape:connector-curvature="0"
         id="path1706"
         style="font-style:normal;font-variant:normal;font-weight:normal;font-stretch:normal;font-size:16.06585121px;line-height:0.5;font-family:'Simplon Norm';-inkscape-font-specification:'Simplon Norm';text-align:start;text-anchor:start;fill:#808080;fill-opacity:1"
         d="m 230.80301,229.08253 c 0.7069,0 1.57445,-0.35345 1.99217,-1.01215 v 0.85149 h 1.20493 v -8.28997 h -1.20493 v 5.2214 c 0,1.36559 -0.98002,2.07249 -1.99217,2.07249 -0.98002,0 -1.99217,-0.64263 -1.99217,-2.12069 v -5.1732 h -1.20493 v 5.25353 c 0,2.45807 1.8315,3.1971 3.1971,3.1971 z" />
      <path
         inkscape:connector-curvature="0"
         id="path1708"
         style="font-style:normal;font-variant:normal;font-weight:normal;font-stretch:normal;font-size:16.06585121px;line-height:0.5;font-family:'Simplon Norm';-inkscape-font-specification:'Simplon Norm';text-align:start;text-anchor:start;fill:#808080;fill-opacity:1"
         d="m 239.33422,221.56372 c 1.07642,0 2.04037,0.69083 2.04037,2.07249 v 0.14459 c -1.39773,0.0964 -2.58661,0.19279 -3.53449,0.46591 -1.44593,0.41771 -1.79938,1.54232 -1.79938,2.37775 0,1.70298 1.33347,2.45807 2.74726,2.45807 1.12461,0 2.05643,-0.32131 2.58661,-1.01215 v 0.85149 h 1.20494 v -5.26959 c 0,-2.44201 -1.70299,-3.24531 -3.24531,-3.24531 -1.44592,0 -3.02038,0.69084 -3.22923,2.76333 h 1.23707 c 0.19279,-1.07641 1.04428,-1.60658 1.99216,-1.60658 z m 2.04037,4.36991 c 0,1.30133 -1.02822,1.99216 -2.32955,1.99216 -1.22101,0 -1.79938,-0.57837 -1.79938,-1.33346 0,-0.48198 0.11246,-0.85149 0.72297,-1.18888 0.5623,-0.30525 1.59052,-0.41771 3.40596,-0.54624 z" />
      <path
         inkscape:connector-curvature="0"
         id="path1710"
         style="font-style:normal;font-variant:normal;font-weight:normal;font-stretch:normal;font-size:16.06585121px;line-height:0.5;font-family:'Simplon Norm';-inkscape-font-specification:'Simplon Norm';text-align:start;text-anchor:start;fill:#808080;fill-opacity:1"
         d="m 247.88678,230.88191 c -0.96395,0 -1.84757,-0.56231 -2.00823,-1.68692 h -1.221 c 0.17672,2.13676 1.76724,2.84366 3.22923,2.84366 1.54232,0 3.2453,-0.78723 3.2453,-3.2453 v -8.16145 h -1.20494 v 0.78722 c -0.41771,-0.67476 -1.28526,-1.01215 -2.04036,-1.01215 -1.54232,0 -3.2453,0.8033 -3.2453,3.24531 v 1.86363 c 0,2.44201 1.70298,3.24531 3.2453,3.24531 0.7551,0 1.62265,-0.33739 2.04036,-1.01215 v 1.06034 c 0,1.38167 -0.96395,2.0725 -2.04036,2.0725 z m -2.04036,-7.2457 c 0,-1.38166 0.96395,-2.07249 2.04036,-2.07249 1.07641,0 2.04036,0.69083 2.04036,2.07249 v 1.89577 c 0,1.38166 -0.96395,2.0725 -2.04036,2.0725 -1.07641,0 -2.04036,-0.69084 -2.04036,-2.0725 z" />
      <path
         inkscape:connector-curvature="0"
         id="path1712"
         style="font-style:normal;font-variant:normal;font-weight:normal;font-stretch:normal;font-size:16.06585121px;line-height:0.5;font-family:'Simplon Norm';-inkscape-font-specification:'Simplon Norm';text-align:start;text-anchor:start;fill:#808080;fill-opacity:1"
         d="m 256.56335,227.92579 c -1.07642,0 -2.04037,-0.69083 -2.04037,-2.07249 V 225.05 h 5.28567 v -1.39772 c 0,-2.44201 -1.70298,-3.24531 -3.2453,-3.24531 -1.54232,0 -3.24531,0.8033 -3.24531,3.24531 v 2.18495 c 0,2.44201 1.70299,3.2453 3.24531,3.2453 1.44592,0 3.02038,-0.69083 3.22923,-2.76332 h -1.23707 c -0.19279,1.07641 -1.04428,1.60658 -1.99216,1.60658 z m 2.04036,-3.98433 h -4.08073 v -0.30525 c 0,-1.38166 0.96395,-2.07249 2.04037,-2.07249 1.07641,0 2.04036,0.69083 2.04036,2.07249 z" />
      <path
         inkscape:connector-curvature="0"
         id="path1714"
         style="font-style:normal;font-variant:normal;font-weight:normal;font-stretch:normal;font-size:16.06585121px;line-height:0.5;font-family:'Simplon Norm';-inkscape-font-specification:'Simplon Norm';text-align:start;text-anchor:start;fill:#808080;fill-opacity:1"
         d="m 142.53295,244.93754 v -1.04428 h -4.65909 v 1.04428 z" />
      <path
         inkscape:connector-curvature="0"
         id="path1716"
         style="font-style:normal;font-variant:normal;font-weight:normal;font-stretch:normal;font-size:16.06585121px;line-height:0.5;font-family:'Simplon Norm';-inkscape-font-specification:'Simplon Norm';text-align:start;text-anchor:start;fill:#808080;fill-opacity:1"
         d="m 149.44127,237.67578 h -1.20494 v 1.55839 h 1.20494 z m 0,2.95612 h -1.20494 v 8.28997 h 1.20494 z" />
      <path
         inkscape:connector-curvature="0"
         id="path1718"
         style="font-style:normal;font-variant:normal;font-weight:normal;font-stretch:normal;font-size:16.06585121px;line-height:0.5;font-family:'Simplon Norm';-inkscape-font-specification:'Simplon Norm';text-align:start;text-anchor:start;fill:#808080;fill-opacity:1"
         d="m 155.09017,240.40697 c -0.75509,0 -1.62265,0.33739 -2.04036,1.01215 v -0.78722 h -1.20494 v 8.28997 h 1.20494 v -5.28566 c 0,-1.38166 0.96395,-2.07249 2.04036,-2.07249 1.07642,0 2.04037,0.69083 2.04037,2.07249 v 5.28566 h 1.20494 v -5.26959 c 0,-2.44201 -1.70298,-3.24531 -3.24531,-3.24531 z" />
      <path
         inkscape:connector-curvature="0"
         id="path1720"
         style="font-style:normal;font-variant:normal;font-weight:normal;font-stretch:normal;font-size:16.06585121px;line-height:0.5;font-family:'Simplon Norm';-inkscape-font-specification:'Simplon Norm';text-align:start;text-anchor:start;fill:#808080;fill-opacity:1"
         d="m 167.16341,241.56372 c 1.07641,0 2.04036,0.69083 2.04036,2.07249 v 0.14459 c -1.39773,0.0964 -2.5866,0.19279 -3.53449,0.46591 -1.44592,0.41771 -1.79937,1.54232 -1.79937,2.37775 0,1.70298 1.33346,2.45807 2.74726,2.45807 1.12461,0 2.05643,-0.32131 2.5866,-1.01215 v 0.85149 h 1.20494 v -5.26959 c 0,-2.44201 -1.70298,-3.24531 -3.2453,-3.24531 -1.44593,0 -3.02038,0.69084 -3.22924,2.76333 h 1.23707 c 0.19279,-1.07641 1.04428,-1.60658 1.99217,-1.60658 z m 2.04036,4.36991 c 0,1.30133 -1.02821,1.99216 -2.32955,1.99216 -1.221,0 -1.79937,-0.57837 -1.79937,-1.33346 0,-0.48198 0.11246,-0.85149 0.72296,-1.18888 0.56231,-0.30525 1.59052,-0.41771 3.40596,-0.54624 z" />
      <path
         inkscape:connector-curvature="0"
         id="path1722"
         style="font-style:normal;font-variant:normal;font-weight:normal;font-stretch:normal;font-size:16.06585121px;line-height:0.5;font-family:'Simplon Norm';-inkscape-font-specification:'Simplon Norm';text-align:start;text-anchor:start;fill:#808080;fill-opacity:1"
         d="m 179.34057,249.08253 c 0.7551,0 1.62265,-0.33738 2.04037,-1.01215 v 0.85149 h 1.20493 v -11.24609 h -1.20493 v 3.74334 c -0.41772,-0.67476 -1.28527,-1.01215 -2.04037,-1.01215 -1.54232,0 -3.2453,0.8033 -3.2453,3.24531 v 2.18495 c 0,2.44201 1.70298,3.2453 3.2453,3.2453 z m -2.04036,-5.44632 c 0,-1.38166 0.96395,-2.07249 2.04036,-2.07249 1.07641,0 2.04037,0.69083 2.04037,2.07249 v 2.21709 c 0,1.38166 -0.96396,2.07249 -2.04037,2.07249 -1.07641,0 -2.04036,-0.69083 -2.04036,-2.07249 z" />
      <path
         inkscape:connector-curvature="0"
         id="path1724"
         style="font-style:normal;font-variant:normal;font-weight:normal;font-stretch:normal;font-size:16.06585121px;line-height:0.5;font-family:'Simplon Norm';-inkscape-font-specification:'Simplon Norm';text-align:start;text-anchor:start;fill:#808080;fill-opacity:1"
         d="m 186.18563,237.67578 h -1.20494 v 1.55839 h 1.20494 z m 0,2.95612 h -1.20494 v 8.28997 h 1.20494 z" />
      <path
         inkscape:connector-curvature="0"
         id="path1726"
         style="font-style:normal;font-variant:normal;font-weight:normal;font-stretch:normal;font-size:16.06585121px;line-height:0.5;font-family:'Simplon Norm';-inkscape-font-specification:'Simplon Norm';text-align:start;text-anchor:start;fill:#808080;fill-opacity:1"
         d="m 192.25225,238.83252 v -1.15674 h -1.26921 c -1.54232,0 -1.9761,0.5623 -1.9761,1.9761 v 0.98002 h -1.1728 v 1.15674 h 1.1728 v 7.13323 h 1.20494 v -7.13323 h 2.04037 v -1.15674 h -2.04037 v -1.07642 c 0,-0.53017 0.19279,-0.72296 0.77116,-0.72296 z" />
      <path
         inkscape:connector-curvature="0"
         id="path1728"
         style="font-style:normal;font-variant:normal;font-weight:normal;font-stretch:normal;font-size:16.06585121px;line-height:0.5;font-family:'Simplon Norm';-inkscape-font-specification:'Simplon Norm';text-align:start;text-anchor:start;fill:#808080;fill-opacity:1"
         d="m 197.33558,238.83252 v -1.15674 h -1.2692 c -1.54232,0 -1.9761,0.5623 -1.9761,1.9761 v 0.98002 h -1.17281 v 1.15674 h 1.17281 v 7.13323 h 1.20494 v -7.13323 h 2.04036 v -1.15674 h -2.04036 v -1.07642 c 0,-0.53017 0.19279,-0.72296 0.77116,-0.72296 z" />
      <path
         inkscape:connector-curvature="0"
         id="path1730"
         style="font-style:normal;font-variant:normal;font-weight:normal;font-stretch:normal;font-size:16.06585121px;line-height:0.5;font-family:'Simplon Norm';-inkscape-font-specification:'Simplon Norm';text-align:start;text-anchor:start;fill:#808080;fill-opacity:1"
         d="m 201.65077,247.92579 c -1.07641,0 -2.04036,-0.69083 -2.04036,-2.07249 V 245.05 h 5.28566 v -1.39772 c 0,-2.44201 -1.70298,-3.24531 -3.2453,-3.24531 -1.54232,0 -3.2453,0.8033 -3.2453,3.24531 v 2.18495 c 0,2.44201 1.70298,3.2453 3.2453,3.2453 1.44592,0 3.02038,-0.69083 3.22923,-2.76332 h -1.23707 c -0.19279,1.07641 -1.04428,1.60658 -1.99216,1.60658 z m 2.04036,-3.98433 h -4.08072 v -0.30525 c 0,-1.38166 0.96395,-2.07249 2.04036,-2.07249 1.07641,0 2.04036,0.69083 2.04036,2.07249 z" />
      <path
         inkscape:connector-curvature="0"
         id="path1732"
         style="font-style:normal;font-variant:normal;font-weight:normal;font-stretch:normal;font-size:16.06585121px;line-height:0.5;font-family:'Simplon Norm';-inkscape-font-specification:'Simplon Norm';text-align:start;text-anchor:start;fill:#808080;fill-opacity:1"
         d="m 208.21341,240.6319 h -1.20494 v 8.28997 h 1.20494 v -5.20533 c 0,-1.38166 0.96395,-2.0725 2.04037,-2.0725 h 0.53017 v -1.15674 h -0.53017 c -0.7551,0 -1.62265,0.33739 -2.04037,1.01215 z" />
      <path
         inkscape:connector-curvature="0"
         id="path1734"
         style="font-style:normal;font-variant:normal;font-weight:normal;font-stretch:normal;font-size:16.06585121px;line-height:0.5;font-family:'Simplon Norm';-inkscape-font-specification:'Simplon Norm';text-align:start;text-anchor:start;fill:#808080;fill-opacity:1"
         d="m 215.23771,247.92579 c -1.07641,0 -2.04036,-0.69083 -2.04036,-2.07249 V 245.05 h 5.28566 v -1.39772 c 0,-2.44201 -1.70298,-3.24531 -3.2453,-3.24531 -1.54232,0 -3.2453,0.8033 -3.2453,3.24531 v 2.18495 c 0,2.44201 1.70298,3.2453 3.2453,3.2453 1.44593,0 3.02038,-0.69083 3.22924,-2.76332 h -1.23708 c -0.19279,1.07641 -1.04428,1.60658 -1.99216,1.60658 z m 2.04036,-3.98433 h -4.08072 v -0.30525 c 0,-1.38166 0.96395,-2.07249 2.04036,-2.07249 1.07641,0 2.04036,0.69083 2.04036,2.07249 z" />
      <path
         inkscape:connector-curvature="0"
         id="path1736"
         style="font-style:normal;font-variant:normal;font-weight:normal;font-stretch:normal;font-size:16.06585121px;line-height:0.5;font-family:'Simplon Norm';-inkscape-font-specification:'Simplon Norm';text-align:start;text-anchor:start;fill:#808080;fill-opacity:1"
         d="m 223.84072,240.40697 c -0.75509,0 -1.62265,0.33739 -2.04036,1.01215 v -0.78722 h -1.20494 v 8.28997 h 1.20494 v -5.28566 c 0,-1.38166 0.96395,-2.07249 2.04036,-2.07249 1.07641,0 2.04036,0.69083 2.04036,2.07249 v 5.28566 h 1.20494 v -5.26959 c 0,-2.44201 -1.70298,-3.24531 -3.2453,-3.24531 z" />
      <path
         inkscape:connector-curvature="0"
         id="path1738"
         style="font-style:normal;font-variant:normal;font-weight:normal;font-stretch:normal;font-size:16.06585121px;line-height:0.5;font-family:'Simplon Norm';-inkscape-font-specification:'Simplon Norm';text-align:start;text-anchor:start;fill:#808080;fill-opacity:1"
         d="m 230.97195,241.78864 h 2.04036 v -1.15674 h -2.04036 v -1.87971 h -1.20494 v 1.87971 h -1.17281 v 1.15674 h 1.17281 v 5.15714 c 0,1.41379 0.43378,1.97609 1.9761,1.97609 h 1.2692 v -1.15674 h -1.2692 c -0.57837,0 -0.77116,-0.19279 -0.77116,-0.72296 z" />
      <path
         inkscape:connector-curvature="0"
         id="path1740"
         style="font-style:normal;font-variant:normal;font-weight:normal;font-stretch:normal;font-size:16.06585121px;line-height:0.5;font-family:'Simplon Norm';-inkscape-font-specification:'Simplon Norm';text-align:start;text-anchor:start;fill:#808080;fill-opacity:1"
         d="m 239.65404,237.67578 h -1.20494 v 9.27 c 0,1.41379 0.43378,1.97609 1.9761,1.97609 h 0.25705 v -1.15674 h -0.25705 c -0.57837,0 -0.77116,-0.19279 -0.77116,-0.72296 z" />
      <path
         inkscape:connector-curvature="0"
         id="path1742"
         style="font-style:normal;font-variant:normal;font-weight:normal;font-stretch:normal;font-size:16.06585121px;line-height:0.5;font-family:'Simplon Norm';-inkscape-font-specification:'Simplon Norm';text-align:start;text-anchor:start;fill:#808080;fill-opacity:1"
         d="m 245.48443,241.56372 c 1.07641,0 2.04036,0.69083 2.04036,2.07249 v 0.14459 c -1.39773,0.0964 -2.5866,0.19279 -3.53448,0.46591 -1.44593,0.41771 -1.79938,1.54232 -1.79938,2.37775 0,1.70298 1.33347,2.45807 2.74726,2.45807 1.12461,0 2.05643,-0.32131 2.5866,-1.01215 v 0.85149 h 1.20494 v -5.26959 c 0,-2.44201 -1.70298,-3.24531 -3.2453,-3.24531 -1.44593,0 -3.02038,0.69084 -3.22924,2.76333 h 1.23708 c 0.19279,-1.07641 1.04428,-1.60658 1.99216,-1.60658 z m 2.04036,4.36991 c 0,1.30133 -1.02821,1.99216 -2.32954,1.99216 -1.22101,0 -1.79938,-0.57837 -1.79938,-1.33346 0,-0.48198 0.11246,-0.85149 0.72296,-1.18888 0.56231,-0.30525 1.59052,-0.41771 3.40596,-0.54624 z" />
      <path
         inkscape:connector-curvature="0"
         id="path1744"
         style="font-style:normal;font-variant:normal;font-weight:normal;font-stretch:normal;font-size:16.06585121px;line-height:0.5;font-family:'Simplon Norm';-inkscape-font-specification:'Simplon Norm';text-align:start;text-anchor:start;fill:#808080;fill-opacity:1"
         d="m 254.27798,240.40697 c -0.7551,0 -1.62265,0.33739 -2.04037,1.01215 v -0.78722 h -1.20494 v 8.28997 h 1.20494 v -5.28566 c 0,-1.38166 0.96395,-2.07249 2.04037,-2.07249 1.07641,0 2.04036,0.69083 2.04036,2.07249 v 5.28566 h 1.20494 v -5.26959 c 0,-2.44201 -1.70298,-3.24531 -3.2453,-3.24531 z" />
      <path
         inkscape:connector-curvature="0"
         id="path1746"
         style="font-style:normal;font-variant:normal;font-weight:normal;font-stretch:normal;font-size:16.06585121px;line-height:0.5;font-family:'Simplon Norm';-inkscape-font-specification:'Simplon Norm';text-align:start;text-anchor:start;fill:#808080;fill-opacity:1"
         d="m 262.823,250.88191 c -0.96395,0 -1.84757,-0.56231 -2.00823,-1.68692 h -1.22101 c 0.17673,2.13676 1.76725,2.84366 3.22924,2.84366 1.54232,0 3.2453,-0.78723 3.2453,-3.2453 v -8.16145 h -1.20494 v 0.78722 c -0.41771,-0.67476 -1.28527,-1.01215 -2.04036,-1.01215 -1.54232,0 -3.2453,0.8033 -3.2453,3.24531 v 1.86363 c 0,2.44201 1.70298,3.24531 3.2453,3.24531 0.75509,0 1.62265,-0.33739 2.04036,-1.01215 v 1.06034 c 0,1.38167 -0.96395,2.0725 -2.04036,2.0725 z m -2.04036,-7.2457 c 0,-1.38166 0.96395,-2.07249 2.04036,-2.07249 1.07641,0 2.04036,0.69083 2.04036,2.07249 v 1.89577 c 0,1.38166 -0.96395,2.0725 -2.04036,2.0725 -1.07641,0 -2.04036,-0.69084 -2.04036,-2.0725 z" />
      <path
         inkscape:connector-curvature="0"
         id="path1748"
         style="font-style:normal;font-variant:normal;font-weight:normal;font-stretch:normal;font-size:16.06585121px;line-height:0.5;font-family:'Simplon Norm';-inkscape-font-specification:'Simplon Norm';text-align:start;text-anchor:start;fill:#808080;fill-opacity:1"
         d="m 271.56383,249.08253 c 0.7069,0 1.57445,-0.35345 1.99216,-1.01215 v 0.85149 h 1.20494 v -8.28997 h -1.20494 v 5.2214 c 0,1.36559 -0.98001,2.07249 -1.99216,2.07249 -0.98002,0 -1.99217,-0.64263 -1.99217,-2.12069 v -5.1732 h -1.20494 v 5.25353 c 0,2.45807 1.83151,3.1971 3.19711,3.1971 z" />
      <path
         inkscape:connector-curvature="0"
         id="path1750"
         style="font-style:normal;font-variant:normal;font-weight:normal;font-stretch:normal;font-size:16.06585121px;line-height:0.5;font-family:'Simplon Norm';-inkscape-font-specification:'Simplon Norm';text-align:start;text-anchor:start;fill:#808080;fill-opacity:1"
         d="m 280.09505,241.56372 c 1.07641,0 2.04036,0.69083 2.04036,2.07249 v 0.14459 c -1.39773,0.0964 -2.5866,0.19279 -3.53448,0.46591 -1.44593,0.41771 -1.79938,1.54232 -1.79938,2.37775 0,1.70298 1.33347,2.45807 2.74726,2.45807 1.12461,0 2.05643,-0.32131 2.5866,-1.01215 v 0.85149 h 1.20494 v -5.26959 c 0,-2.44201 -1.70298,-3.24531 -3.2453,-3.24531 -1.44593,0 -3.02038,0.69084 -3.22924,2.76333 h 1.23707 c 0.19279,-1.07641 1.04428,-1.60658 1.99217,-1.60658 z m 2.04036,4.36991 c 0,1.30133 -1.02821,1.99216 -2.32955,1.99216 -1.221,0 -1.79937,-0.57837 -1.79937,-1.33346 0,-0.48198 0.11246,-0.85149 0.72296,-1.18888 0.56231,-0.30525 1.59052,-0.41771 3.40596,-0.54624 z" />
      <path
         inkscape:connector-curvature="0"
         id="path1752"
         style="font-style:normal;font-variant:normal;font-weight:normal;font-stretch:normal;font-size:16.06585121px;line-height:0.5;font-family:'Simplon Norm';-inkscape-font-specification:'Simplon Norm';text-align:start;text-anchor:start;fill:#808080;fill-opacity:1"
         d="m 288.64761,250.88191 c -0.96395,0 -1.84758,-0.56231 -2.00823,-1.68692 h -1.22101 c 0.17673,2.13676 1.76725,2.84366 3.22924,2.84366 1.54232,0 3.2453,-0.78723 3.2453,-3.2453 v -8.16145 h -1.20494 v 0.78722 c -0.41771,-0.67476 -1.28527,-1.01215 -2.04036,-1.01215 -1.54232,0 -3.2453,0.8033 -3.2453,3.24531 v 1.86363 c 0,2.44201 1.70298,3.24531 3.2453,3.24531 0.75509,0 1.62265,-0.33739 2.04036,-1.01215 v 1.06034 c 0,1.38167 -0.96395,2.0725 -2.04036,2.0725 z m -2.04037,-7.2457 c 0,-1.38166 0.96396,-2.07249 2.04037,-2.07249 1.07641,0 2.04036,0.69083 2.04036,2.07249 v 1.89577 c 0,1.38166 -0.96395,2.0725 -2.04036,2.0725 -1.07641,0 -2.04037,-0.69084 -2.04037,-2.0725 z" />
      <path
         inkscape:connector-curvature="0"
         id="path1754"
         style="font-style:normal;font-variant:normal;font-weight:normal;font-stretch:normal;font-size:16.06585121px;line-height:0.5;font-family:'Simplon Norm';-inkscape-font-specification:'Simplon Norm';text-align:start;text-anchor:start;fill:#808080;fill-opacity:1"
         d="m 297.32417,247.92579 c -1.07642,0 -2.04037,-0.69083 -2.04037,-2.07249 V 245.05 h 5.28567 v -1.39772 c 0,-2.44201 -1.70298,-3.24531 -3.2453,-3.24531 -1.54233,0 -3.24531,0.8033 -3.24531,3.24531 v 2.18495 c 0,2.44201 1.70298,3.2453 3.24531,3.2453 1.44592,0 3.02038,-0.69083 3.22923,-2.76332 h -1.23707 c -0.19279,1.07641 -1.04428,1.60658 -1.99216,1.60658 z m 2.04036,-3.98433 h -4.08073 v -0.30525 c 0,-1.38166 0.96395,-2.07249 2.04037,-2.07249 1.07641,0 2.04036,0.69083 2.04036,2.07249 z" />
    </g>
  </g>
</svg>
