<?xml version="1.0" encoding="UTF-8" standalone="no"?>
<!-- Created with Inkscape (http://www.inkscape.org/) -->

<svg
   xmlns:dc="http://purl.org/dc/elements/1.1/"
   xmlns:cc="http://creativecommons.org/ns#"
   xmlns:rdf="http://www.w3.org/1999/02/22-rdf-syntax-ns#"
   xmlns:svg="http://www.w3.org/2000/svg"
   xmlns="http://www.w3.org/2000/svg"
   xmlns:sodipodi="http://sodipodi.sourceforge.net/DTD/sodipodi-0.dtd"
   xmlns:inkscape="http://www.inkscape.org/namespaces/inkscape"
   width="130mm"
   height="130mm"
   viewBox="0 0 130 130"
   version="1.1"
   id="svg2907"
   inkscape:version="0.92.4 (f8dce91, 2019-08-02)"
   sodipodi:docname="5.svg">
  <defs
     id="defs2901" />
  <sodipodi:namedview
     id="base"
     pagecolor="#ffffff"
     bordercolor="#666666"
     borderopacity="1.0"
     inkscape:pageopacity="0.0"
     inkscape:pageshadow="2"
     inkscape:zoom="0.87710554"
     inkscape:cx="395.12322"
     inkscape:cy="176.99526"
     inkscape:document-units="mm"
     inkscape:current-layer="layer1"
     showgrid="false"
     showguides="true"
     inkscape:guide-bbox="true"
     inkscape:window-width="1920"
     inkscape:window-height="1025"
     inkscape:window-x="0"
     inkscape:window-y="27"
     inkscape:window-maximized="1">
    <sodipodi:guide
       position="-75.141665,94.720831"
       orientation="1,0"
       id="guide3905"
       inkscape:locked="false" />
  </sodipodi:namedview>
  <metadata
     id="metadata2904">
    <rdf:RDF>
      <cc:Work
         rdf:about="">
        <dc:format>image/svg+xml</dc:format>
        <dc:type
           rdf:resource="http://purl.org/dc/dcmitype/StillImage" />
        <dc:title></dc:title>
      </cc:Work>
    </rdf:RDF>
  </metadata>
  <g
     inkscape:label="Layer 1"
     inkscape:groupmode="layer"
     id="layer1"
     transform="translate(-27.970238,-29.392857)">
    <g
       aria-label="WETEST 25.03.2020 "
       transform="matrix(0.34852914,0,0,0.34852914,-28.107497,36.531871)"
       style="font-style:normal;font-weight:normal;font-size:40px;line-height:1.25;font-family:sans-serif;letter-spacing:0px;word-spacing:0px;fill:#d9230f;fill-opacity:0.85098039;stroke:none"
       id="flowRoot973">
      <path
         inkscape:connector-curvature="0"
         d="m 192.63609,50.855234 h 5.8 l 5.16,-28 h -5.4 l -3.24,18.96 -3.32,-14.96 h -5.2 l -3.32,14.96 -3.24,-18.96 h -5.4 l 5.16,28 h 5.8 l 3.6,-16.24 z"
         style="font-style:normal;font-variant:normal;font-weight:bold;font-stretch:normal;font-family:'Simplon Norm';-inkscape-font-specification:'Simplon Norm Bold';fill:#d9230f;fill-opacity:0.85098039"
         id="path1227" />
      <path
         inkscape:connector-curvature="0"
         d="m 212.03422,28.175234 h 11.68 v -5.32 h -17.04 v 28 h 17.04 v -5.32 h -11.68 v -6.16 h 11.68 v -5.32 h -11.68 z"
         style="font-style:normal;font-variant:normal;font-weight:bold;font-stretch:normal;font-family:'Simplon Norm';-inkscape-font-specification:'Simplon Norm Bold';fill:#d9230f;fill-opacity:0.85098039"
         id="path1229" />
      <path
         inkscape:connector-curvature="0"
         d="m 246.71672,28.175234 v -5.32 h -21.12 v 5.32 h 7.8 v 22.68 h 5.52 v -22.68 z"
         style="font-style:normal;font-variant:normal;font-weight:bold;font-stretch:normal;font-family:'Simplon Norm';-inkscape-font-specification:'Simplon Norm Bold';fill:#d9230f;fill-opacity:0.85098039"
         id="path1231" />
      <path
         inkscape:connector-curvature="0"
         d="m 254.61234,28.175234 h 11.68 v -5.32 h -17.04 v 28 h 17.04 v -5.32 h -11.68 v -6.16 h 11.68 v -5.32 h -11.68 z"
         style="font-style:normal;font-variant:normal;font-weight:bold;font-stretch:normal;font-family:'Simplon Norm';-inkscape-font-specification:'Simplon Norm Bold';fill:#d9230f;fill-opacity:0.85098039"
         id="path1233" />
      <path
         inkscape:connector-curvature="0"
         d="m 279.41484,51.255234 c 6.08,0 9.36,-3.08 9.36,-8.12 0,-4.72 -2.32,-7.36 -6.64,-8.52 l -4.56,-1.24 c -1.52,-0.4 -2.8,-1.12 -2.8,-2.76 0,-1.96 1.6,-2.84 3.84,-2.84 1.8,0 3.76,0.84 4.24,2.72 h 5.52 c -0.6,-4.76 -4.08,-8.04 -9.68,-8.04 -4.88,0 -9.28,2.56 -9.28,8.16 0,4.12 2.12,7.12 6.4,8.28 l 4.72,1.28 c 1.96,0.52 2.88,1.4 2.88,2.96 0,1.92 -1.64,2.8 -4,2.8 -2.68,0 -4.52,-1.56 -4.84,-3.92 h -5.52 c 0.28,5.56 4.24,9.24 10.36,9.24 z"
         style="font-style:normal;font-variant:normal;font-weight:bold;font-stretch:normal;font-family:'Simplon Norm';-inkscape-font-specification:'Simplon Norm Bold';fill:#d9230f;fill-opacity:0.85098039"
         id="path1235" />
      <path
         inkscape:connector-curvature="0"
         d="m 310.93547,28.175234 v -5.32 h -21.12 v 5.32 h 7.8 v 22.68 h 5.52 v -22.68 z"
         style="font-style:normal;font-variant:normal;font-weight:bold;font-stretch:normal;font-family:'Simplon Norm';-inkscape-font-specification:'Simplon Norm Bold';fill:#d9230f;fill-opacity:0.85098039"
         id="path1237" />
      <path
         inkscape:connector-curvature="0"
         d="m 325.90859,31.655234 v -0.4 c 0,-2.44 1.44,-4.04 3.96,-4.04 2.52,0 3.92,1.6 3.92,3.64 0,1.64 -0.88,3.32 -2.6,4.96 l -10.56,10.28 v 4.76 h 18.4 v -4.76 h -10.92 l 6.52,-6.36 c 2.76,-2.68 4.4,-5.28 4.4,-8.96 0,-4.88 -3.52,-8.32 -9.16,-8.32 -5.8,0 -9.08,3.6 -9.24,9.12 v 0.08 z"
         style="font-style:normal;font-variant:normal;font-weight:bold;font-stretch:normal;font-family:'Simplon Norm';-inkscape-font-specification:'Simplon Norm Bold';fill:#d9230f;fill-opacity:0.85098039"
         id="path1239" />
      <path
         inkscape:connector-curvature="0"
         d="m 348.15859,39.455234 c 0.56,-1.4 1.8,-2.16 3.56,-2.16 2.52,0 3.92,1.6 3.92,4.04 v 1.52 c 0,2.12 -1.28,3.64 -3.92,3.64 -2.28,0 -3.8,-1.48 -3.96,-3.6 v -0.04 h -5.24 v 0.04 c 0.4,5.08 3.36,8.36 9.44,8.36 5.24,0 8.96,-3 8.96,-7.96 v -1.28 c 0,-5.72 -3.16,-9.48 -8.8,-9.48 -1.52,0 -3.2,0.44 -3.96,0.92 v -5.84 h 11.68 v -4.76 h -16.96 v 16.6 z"
         style="font-style:normal;font-variant:normal;font-weight:bold;font-stretch:normal;font-family:'Simplon Norm';-inkscape-font-specification:'Simplon Norm Bold';fill:#d9230f;fill-opacity:0.85098039"
         id="path1241" />
      <path
         inkscape:connector-curvature="0"
         d="m 364.84297,50.855234 h 6.4 v -6.4 h -6.4 z"
         style="font-style:normal;font-variant:normal;font-weight:bold;font-stretch:normal;font-family:'Simplon Norm';-inkscape-font-specification:'Simplon Norm Bold';fill:#d9230f;fill-opacity:0.85098039"
         id="path1243" />
      <path
         inkscape:connector-curvature="0"
         d="m 376.03422,41.775234 c 0,5.72 3.28,9.48 9.2,9.48 5.92,0 9.2,-3.76 9.2,-9.48 v -9.84 c 0,-5.72 -3.28,-9.48 -9.2,-9.48 -5.92,0 -9.2,3.76 -9.2,9.48 z m 13.12,0.68 c 0,2.44 -1.4,4.04 -3.92,4.04 -2.52,0 -3.92,-1.6 -3.92,-4.04 v -11.2 c 0,-2.44 1.4,-4.04 3.92,-4.04 2.52,0 3.92,1.6 3.92,4.04 z"
         style="font-style:normal;font-variant:normal;font-weight:bold;font-stretch:normal;font-family:'Simplon Norm';-inkscape-font-specification:'Simplon Norm Bold';fill:#d9230f;fill-opacity:0.85098039"
         id="path1245" />
      <path
         inkscape:connector-curvature="0"
         d="m 410.81797,43.015234 c 0,2.2 -1.48,3.48 -3.76,3.48 -2.36,0 -3.96,-1.44 -4.12,-3.6 v -0.04 h -5.24 v 0.04 c 0.4,5.08 3.76,8.36 9.32,8.36 5.64,0 9.08,-3 9.08,-7.96 0,-2.2 -1.12,-5.16 -2.96,-6.32 2.04,-1.44 2.96,-3.84 2.96,-5.92 0,-4.8 -3.44,-8.6 -9.2,-8.6 -5.56,0 -8.8,3.28 -9.2,8.36 v 0.04 h 5.24 v -0.04 c 0.16,-2.16 1.6,-3.6 3.96,-3.6 2.52,0 3.92,1.6 3.92,4.04 0,2.08 -1.56,3.28 -4.12,3.28 h -2.32 v 4.76 h 2.32 c 2.44,0 4.12,1.44 4.12,3.72 z"
         style="font-style:normal;font-variant:normal;font-weight:bold;font-stretch:normal;font-family:'Simplon Norm';-inkscape-font-specification:'Simplon Norm Bold';fill:#d9230f;fill-opacity:0.85098039"
         id="path1247" />
      <path
         inkscape:connector-curvature="0"
         d="m 420.70234,50.855234 h 6.4 v -6.4 h -6.4 z"
         style="font-style:normal;font-variant:normal;font-weight:bold;font-stretch:normal;font-family:'Simplon Norm';-inkscape-font-specification:'Simplon Norm Bold';fill:#d9230f;fill-opacity:0.85098039"
         id="path1249" />
      <path
         inkscape:connector-curvature="0"
         d="m 436.53359,31.655234 v -0.4 c 0,-2.44 1.44,-4.04 3.96,-4.04 2.52,0 3.92,1.6 3.92,3.64 0,1.64 -0.88,3.32 -2.6,4.96 l -10.56,10.28 v 4.76 h 18.4 v -4.76 h -10.92 l 6.52,-6.36 c 2.76,-2.68 4.4,-5.28 4.4,-8.96 0,-4.88 -3.52,-8.32 -9.16,-8.32 -5.8,0 -9.08,3.6 -9.24,9.12 v 0.08 z"
         style="font-style:normal;font-variant:normal;font-weight:bold;font-stretch:normal;font-family:'Simplon Norm';-inkscape-font-specification:'Simplon Norm Bold';fill:#d9230f;fill-opacity:0.85098039"
         id="path1251" />
      <path
         inkscape:connector-curvature="0"
         d="m 453.14359,41.775234 c 0,5.72 3.28,9.48 9.2,9.48 5.92,0 9.2,-3.76 9.2,-9.48 v -9.84 c 0,-5.72 -3.28,-9.48 -9.2,-9.48 -5.92,0 -9.2,3.76 -9.2,9.48 z m 13.12,0.68 c 0,2.44 -1.4,4.04 -3.92,4.04 -2.52,0 -3.92,-1.6 -3.92,-4.04 v -11.2 c 0,-2.44 1.4,-4.04 3.92,-4.04 2.52,0 3.92,1.6 3.92,4.04 z"
         style="font-style:normal;font-variant:normal;font-weight:bold;font-stretch:normal;font-family:'Simplon Norm';-inkscape-font-specification:'Simplon Norm Bold';fill:#d9230f;fill-opacity:0.85098039"
         id="path1253" />
      <path
         inkscape:connector-curvature="0"
         d="m 480.12734,31.655234 v -0.4 c 0,-2.44 1.44,-4.04 3.96,-4.04 2.52,0 3.92,1.6 3.92,3.64 0,1.64 -0.88,3.32 -2.6,4.96 l -10.56,10.28 v 4.76 h 18.4 v -4.76 h -10.92 l 6.52,-6.36 c 2.76,-2.68 4.4,-5.28 4.4,-8.96 0,-4.88 -3.52,-8.32 -9.16,-8.32 -5.8,0 -9.08,3.6 -9.24,9.12 v 0.08 z"
         style="font-style:normal;font-variant:normal;font-weight:bold;font-stretch:normal;font-family:'Simplon Norm';-inkscape-font-specification:'Simplon Norm Bold';fill:#d9230f;fill-opacity:0.85098039"
         id="path1255" />
      <path
         inkscape:connector-curvature="0"
         d="m 496.73734,41.775234 c 0,5.72 3.28,9.48 9.2,9.48 5.92,0 9.2,-3.76 9.2,-9.48 v -9.84 c 0,-5.72 -3.28,-9.48 -9.2,-9.48 -5.92,0 -9.2,3.76 -9.2,9.48 z m 13.12,0.68 c 0,2.44 -1.4,4.04 -3.92,4.04 -2.52,0 -3.92,-1.6 -3.92,-4.04 v -11.2 c 0,-2.44 1.4,-4.04 3.92,-4.04 2.52,0 3.92,1.6 3.92,4.04 z"
         style="font-style:normal;font-variant:normal;font-weight:bold;font-stretch:normal;font-family:'Simplon Norm';-inkscape-font-specification:'Simplon Norm Bold';fill:#d9230f;fill-opacity:0.85098039"
         id="path1257" />
    </g>
    <g
       aria-label="youtube.tracking.exposed"
       transform="matrix(0.29849443,0,0,0.29849443,17.812782,-27.023634)"
       style="font-style:normal;font-weight:normal;font-size:40px;line-height:1.25;font-family:sans-serif;letter-spacing:0px;word-spacing:0px;fill:#000000;fill-opacity:1;stroke:none"
       id="flowRoot815-3">
      <path
         d="m 63.88863,216.58636 h -2.169568 l -4.013701,11.36312 -4.0137,-11.36312 h -2.169568 l 5.125604,14.21067 -0.732229,2.00686 c -0.162718,0.48815 -0.352555,0.81358 -1.220382,0.81358 h -1.030545 v 1.95261 h 0.786468 c 1.762774,-0.0271 2.71196,-0.35255 3.091635,-1.43733 z"
         style="font-style:normal;font-variant:normal;font-weight:normal;font-stretch:normal;font-size:27.1196003px;line-height:0;font-family:'Simplon Norm';-inkscape-font-specification:'Simplon Norm';letter-spacing:4.27492952px"
         id="path877-9"
         inkscape:connector-curvature="0" />
      <path
         d="m 78.870294,225.40023 c 0,2.33229 -1.627176,3.49843 -3.444189,3.49843 -1.817014,0 -3.44419,-1.16614 -3.44419,-3.49843 v -3.7425 c 0,-2.33229 1.627176,-3.49843 3.44419,-3.49843 1.817013,0 3.444189,1.16614 3.444189,3.49843 z m 2.03397,-3.71538 c 0,-4.12218 -2.874678,-5.47816 -5.478159,-5.47816 -2.603482,0 -5.47816,1.35598 -5.47816,5.47816 v 3.68826 c 0,4.12218 2.874678,5.47816 5.47816,5.47816 2.603481,0 5.478159,-1.35598 5.478159,-5.47816 z"
         style="font-style:normal;font-variant:normal;font-weight:normal;font-stretch:normal;font-size:27.1196003px;line-height:0;font-family:'Simplon Norm';-inkscape-font-specification:'Simplon Norm';letter-spacing:4.27492952px"
         id="path879"
         inkscape:connector-curvature="0" />
      <path
         d="m 94.057896,230.85127 c 1.193263,0 2.657721,-0.59663 3.362831,-1.70853 v 1.43734 h 2.03397 v -13.99372 h -2.03397 v 8.81387 c 0,2.30517 -1.654296,3.49843 -3.362831,3.49843 -1.654295,0 -3.36283,-1.08478 -3.36283,-3.57978 v -8.73252 h -2.03397 v 8.86811 c 0,4.1493 3.091634,5.3968 5.3968,5.3968 z"
         style="font-style:normal;font-variant:normal;font-weight:normal;font-stretch:normal;font-size:27.1196003px;line-height:0;font-family:'Simplon Norm';-inkscape-font-specification:'Simplon Norm';letter-spacing:4.27492952px"
         id="path881"
         inkscape:connector-curvature="0" />
      <path
         d="m 110.48283,218.53898 h 3.44419 v -1.95262 h -3.44419 v -3.17299 h -2.03397 v 3.17299 h -1.97973 v 1.95262 h 1.97973 v 8.70539 c 0,2.38652 0.73223,3.33571 3.33571,3.33571 h 2.14245 v -1.95261 h -2.14245 c -0.97631,0 -1.30174,-0.32544 -1.30174,-1.22039 z"
         style="font-style:normal;font-variant:normal;font-weight:normal;font-stretch:normal;font-size:27.1196003px;line-height:0;font-family:'Simplon Norm';-inkscape-font-specification:'Simplon Norm';letter-spacing:4.27492952px"
         id="path883"
         inkscape:connector-curvature="0" />
      <path
         d="m 126.54928,230.85127 c 1.19326,0 2.65772,-0.59663 3.36283,-1.70853 v 1.43734 h 2.03397 v -13.99372 h -2.03397 v 8.81387 c 0,2.30517 -1.6543,3.49843 -3.36283,3.49843 -1.6543,0 -3.36284,-1.08478 -3.36284,-3.57978 v -8.73252 h -2.03397 v 8.86811 c 0,4.1493 3.09164,5.3968 5.39681,5.3968 z"
         style="font-style:normal;font-variant:normal;font-weight:normal;font-stretch:normal;font-size:27.1196003px;line-height:0;font-family:'Simplon Norm';-inkscape-font-specification:'Simplon Norm';letter-spacing:4.27492952px"
         id="path885"
         inkscape:connector-curvature="0" />
      <path
         d="m 145.76753,230.85127 c 2.60348,0 5.47816,-1.35598 5.47816,-5.47816 v -3.68826 c 0,-4.12218 -2.87468,-5.47816 -5.47816,-5.47816 -1.27462,0 -2.73908,0.56951 -3.44419,1.70853 v -6.31886 h -2.03397 v 18.98372 h 2.03397 v -1.43734 c 0.70511,1.13902 2.16957,1.70853 3.44419,1.70853 z m 3.44419,-5.45104 c 0,2.33229 -1.62718,3.49843 -3.44419,3.49843 -1.81701,0 -3.44419,-1.16614 -3.44419,-3.49843 v -3.7425 c 0,-2.33229 1.62718,-3.49843 3.44419,-3.49843 1.81701,0 3.44419,1.16614 3.44419,3.49843 z"
         style="font-style:normal;font-variant:normal;font-weight:normal;font-stretch:normal;font-size:27.1196003px;line-height:0;font-family:'Simplon Norm';-inkscape-font-specification:'Simplon Norm';letter-spacing:4.27492952px"
         id="path887"
         inkscape:connector-curvature="0" />
      <path
         d="m 164.28195,228.89866 c -1.81702,0 -3.44419,-1.16614 -3.44419,-3.49843 v -1.35598 h 8.92234 v -2.3594 c 0,-4.12218 -2.87467,-5.47816 -5.47815,-5.47816 -2.60349,0 -5.47816,1.35598 -5.47816,5.47816 v 3.68826 c 0,4.12218 2.87467,5.47816 5.47816,5.47816 2.44076,0 5.09848,-1.16614 5.45103,-4.66457 h -2.0882 c -0.32544,1.81702 -1.76278,2.71196 -3.36283,2.71196 z m 3.44418,-6.72566 h -6.88837 v -0.51527 c 0,-2.33229 1.62717,-3.49843 3.44419,-3.49843 1.81701,0 3.44418,1.16614 3.44418,3.49843 z"
         style="font-style:normal;font-variant:normal;font-weight:normal;font-stretch:normal;font-size:27.1196003px;line-height:0;font-family:'Simplon Norm';-inkscape-font-specification:'Simplon Norm';letter-spacing:4.27492952px"
         id="path889"
         inkscape:connector-curvature="0" />
      <path
         d="m 177.44829,230.58008 h 2.84756 v -2.84756 h -2.84756 z"
         style="font-style:normal;font-variant:normal;font-weight:normal;font-stretch:normal;font-size:27.1196003px;line-height:0;font-family:'Simplon Norm';-inkscape-font-specification:'Simplon Norm';letter-spacing:4.27492952px"
         id="path891"
         inkscape:connector-curvature="0" />
      <path
         d="m 190.65193,218.53898 h 3.44419 v -1.95262 h -3.44419 v -3.17299 h -2.03397 v 3.17299 h -1.97973 v 1.95262 h 1.97973 v 8.70539 c 0,2.38652 0.73223,3.33571 3.33571,3.33571 h 2.14245 v -1.95261 h -2.14245 c -0.9763,0 -1.30174,-0.32544 -1.30174,-1.22039 z"
         style="font-style:normal;font-variant:normal;font-weight:normal;font-stretch:normal;font-size:27.1196003px;line-height:0;font-family:'Simplon Norm';-inkscape-font-specification:'Simplon Norm';letter-spacing:4.27492952px"
         id="path893"
         inkscape:connector-curvature="0" />
      <path
         d="m 203.54537,216.58636 h -2.03397 v 13.99372 h 2.03397 v -8.78675 c 0,-2.33229 1.62718,-3.49843 3.44419,-3.49843 h 0.89495 v -1.95261 h -0.89495 c -1.27462,0 -2.73908,0.56951 -3.44419,1.70853 z"
         style="font-style:normal;font-variant:normal;font-weight:normal;font-stretch:normal;font-size:27.1196003px;line-height:0;font-family:'Simplon Norm';-inkscape-font-specification:'Simplon Norm';letter-spacing:4.27492952px"
         id="path895"
         inkscape:connector-curvature="0" />
      <path
         d="m 219.35588,218.1593 c 1.81701,0 3.44419,1.16614 3.44419,3.49843 v 0.24408 c -2.35941,0.16271 -4.36626,0.32543 -5.96632,0.78646 -2.44076,0.70511 -3.03739,2.60349 -3.03739,4.01371 0,2.87467 2.25092,4.14929 4.63745,4.14929 1.89837,0 3.47131,-0.54239 4.36626,-1.70853 v 1.43734 h 2.03397 v -8.89523 c 0,-4.12218 -2.87468,-5.47816 -5.47816,-5.47816 -2.44077,0 -5.09849,1.16614 -5.45104,4.66457 h 2.08821 c 0.32543,-1.81701 1.76277,-2.71196 3.36283,-2.71196 z m 3.44419,7.37653 c 0,2.19669 -1.73566,3.36283 -3.93235,3.36283 -2.06109,0 -3.03739,-0.9763 -3.03739,-2.25092 0,-0.81359 0.18984,-1.43734 1.22038,-2.00685 0.94919,-0.51528 2.68484,-0.70511 5.74936,-0.92207 z"
         style="font-style:normal;font-variant:normal;font-weight:normal;font-stretch:normal;font-size:27.1196003px;line-height:0;font-family:'Simplon Norm';-inkscape-font-specification:'Simplon Norm';letter-spacing:4.27492952px"
         id="path897"
         inkscape:connector-curvature="0" />
      <path
         d="m 238.09489,216.20669 c -2.60348,0 -5.47816,1.35598 -5.47816,5.47816 v 3.68826 c 0,4.1493 2.87468,5.47816 5.47816,5.47816 2.46788,0 5.15272,-1.19326 5.45104,-4.80017 h -2.06109 c -0.2712,1.89838 -1.76278,2.84756 -3.38995,2.84756 -1.81702,0 -3.44419,-1.16614 -3.44419,-3.49843 v -3.7425 c 0,-2.33229 1.62717,-3.49843 3.44419,-3.49843 1.62717,0 3.11875,0.94919 3.38995,2.84756 h 2.06109 c -0.29832,-3.60691 -2.98316,-4.80017 -5.45104,-4.80017 z"
         style="font-style:normal;font-variant:normal;font-weight:normal;font-stretch:normal;font-size:27.1196003px;line-height:0;font-family:'Simplon Norm';-inkscape-font-specification:'Simplon Norm';letter-spacing:4.27492952px"
         id="path899"
         inkscape:connector-curvature="0" />
      <path
         d="m 253.28884,211.59636 h -2.03397 v 18.98372 h 2.03397 v -4.63745 l 2.19669,-2.38653 4.77305,7.02398 h 2.38652 l -5.77647,-8.51556 5.04424,-5.47816 h -2.52212 l -6.10191,6.61719 z"
         style="font-style:normal;font-variant:normal;font-weight:normal;font-stretch:normal;font-size:27.1196003px;line-height:0;font-family:'Simplon Norm';-inkscape-font-specification:'Simplon Norm';letter-spacing:4.27492952px"
         id="path901"
         inkscape:connector-curvature="0" />
      <path
         d="m 271.28248,211.59636 h -2.03397 v 2.6306 h 2.03397 z m 0,4.99 h -2.03397 v 13.99372 h 2.03397 z"
         style="font-style:normal;font-variant:normal;font-weight:normal;font-stretch:normal;font-size:27.1196003px;line-height:0;font-family:'Simplon Norm';-inkscape-font-specification:'Simplon Norm';letter-spacing:4.27492952px"
         id="path903"
         inkscape:connector-curvature="0" />
      <path
         d="m 285.09291,216.20669 c -1.27462,0 -2.73908,0.56951 -3.44419,1.70853 v -1.32886 h -2.03397 v 13.99372 h 2.03397 v -8.92235 c 0,-2.33229 1.62718,-3.49843 3.44419,-3.49843 1.81701,0 3.44419,1.16614 3.44419,3.49843 v 8.92235 h 2.03397 v -8.89523 c 0,-4.12218 -2.87468,-5.47816 -5.47816,-5.47816 z"
         style="font-style:normal;font-variant:normal;font-weight:normal;font-stretch:normal;font-size:27.1196003px;line-height:0;font-family:'Simplon Norm';-inkscape-font-specification:'Simplon Norm';letter-spacing:4.27492952px"
         id="path905"
         inkscape:connector-curvature="0" />
      <path
         d="m 303.79207,233.88867 c -1.62717,0 -3.11875,-0.94919 -3.38995,-2.84756 h -2.06109 c 0.29832,3.60691 2.98316,4.80017 5.45104,4.80017 2.60348,0 5.47816,-1.32886 5.47816,-5.47816 v -13.77676 h -2.03397 v 1.32886 c -0.70511,-1.13902 -2.16957,-1.70853 -3.44419,-1.70853 -2.60348,0 -5.47816,1.35598 -5.47816,5.47816 v 3.14587 c 0,4.12218 2.87468,5.47816 5.47816,5.47816 1.27462,0 2.73908,-0.56951 3.44419,-1.70853 v 1.78989 c 0,2.33229 -1.62717,3.49843 -3.44419,3.49843 z m -3.44419,-12.23094 c 0,-2.33229 1.62718,-3.49843 3.44419,-3.49843 1.81702,0 3.44419,1.16614 3.44419,3.49843 v 3.20011 c 0,2.33229 -1.62717,3.49843 -3.44419,3.49843 -1.81701,0 -3.44419,-1.16614 -3.44419,-3.49843 z"
         style="font-style:normal;font-variant:normal;font-weight:normal;font-stretch:normal;font-size:27.1196003px;line-height:0;font-family:'Simplon Norm';-inkscape-font-specification:'Simplon Norm';letter-spacing:4.27492952px"
         id="path907"
         inkscape:connector-curvature="0" />
      <path
         d="m 317.88601,230.58008 h 2.84756 v -2.84756 h -2.84756 z"
         style="font-style:normal;font-variant:normal;font-weight:normal;font-stretch:normal;font-size:27.1196003px;line-height:0;font-family:'Simplon Norm';-inkscape-font-specification:'Simplon Norm';letter-spacing:4.27492952px"
         id="path909"
         inkscape:connector-curvature="0" />
      <path
         d="m 333.76811,228.89866 c -1.81702,0 -3.44419,-1.16614 -3.44419,-3.49843 v -1.35598 h 8.92234 v -2.3594 c 0,-4.12218 -2.87467,-5.47816 -5.47815,-5.47816 -2.60349,0 -5.47816,1.35598 -5.47816,5.47816 v 3.68826 c 0,4.12218 2.87467,5.47816 5.47816,5.47816 2.44076,0 5.09848,-1.16614 5.45104,-4.66457 h -2.08821 c -0.32544,1.81702 -1.76278,2.71196 -3.36283,2.71196 z m 3.44418,-6.72566 h -6.88837 v -0.51527 c 0,-2.33229 1.62717,-3.49843 3.44419,-3.49843 1.81701,0 3.44418,1.16614 3.44418,3.49843 z"
         style="font-style:normal;font-variant:normal;font-weight:normal;font-stretch:normal;font-size:27.1196003px;line-height:0;font-family:'Simplon Norm';-inkscape-font-specification:'Simplon Norm';letter-spacing:4.27492952px"
         id="path911"
         inkscape:connector-curvature="0" />
      <path
         d="m 354.71905,230.58008 h 2.30517 l -4.74593,-7.1867 4.52897,-6.80702 h -2.3594 l -3.44419,5.17985 -3.44419,-5.17985 h -2.3594 l 4.52897,6.80702 -4.74593,7.1867 h 2.30516 l 3.71539,-5.668 z"
         style="font-style:normal;font-variant:normal;font-weight:normal;font-stretch:normal;font-size:27.1196003px;line-height:0;font-family:'Simplon Norm';-inkscape-font-specification:'Simplon Norm';letter-spacing:4.27492952px"
         id="path913"
         inkscape:connector-curvature="0" />
      <path
         d="m 369.2346,230.85127 c 2.60348,0 5.47816,-1.35598 5.47816,-5.47816 v -3.68826 c 0,-4.12218 -2.87468,-5.47816 -5.47816,-5.47816 -1.27462,0 -2.73908,0.56951 -3.44419,1.70853 v -1.32886 h -2.03397 v 18.98372 h 2.03397 v -6.42734 c 0.70511,1.13902 2.16957,1.70853 3.44419,1.70853 z m 3.44419,-5.45104 c 0,2.33229 -1.62717,3.49843 -3.44419,3.49843 -1.81701,0 -3.44419,-1.16614 -3.44419,-3.49843 v -3.7425 c 0,-2.33229 1.62718,-3.49843 3.44419,-3.49843 1.81702,0 3.44419,1.16614 3.44419,3.49843 z"
         style="font-style:normal;font-variant:normal;font-weight:normal;font-stretch:normal;font-size:27.1196003px;line-height:0;font-family:'Simplon Norm';-inkscape-font-specification:'Simplon Norm';letter-spacing:4.27492952px"
         id="path915"
         inkscape:connector-curvature="0" />
      <path
         d="m 391.19322,225.40023 c 0,2.33229 -1.62717,3.49843 -3.44419,3.49843 -1.81701,0 -3.44419,-1.16614 -3.44419,-3.49843 v -3.7425 c 0,-2.33229 1.62718,-3.49843 3.44419,-3.49843 1.81702,0 3.44419,1.16614 3.44419,3.49843 z m 2.03397,-3.71538 c 0,-4.12218 -2.87468,-5.47816 -5.47816,-5.47816 -2.60348,0 -5.47816,1.35598 -5.47816,5.47816 v 3.68826 c 0,4.12218 2.87468,5.47816 5.47816,5.47816 2.60348,0 5.47816,-1.35598 5.47816,-5.47816 z"
         style="font-style:normal;font-variant:normal;font-weight:normal;font-stretch:normal;font-size:27.1196003px;line-height:0;font-family:'Simplon Norm';-inkscape-font-specification:'Simplon Norm';letter-spacing:4.27492952px"
         id="path917"
         inkscape:connector-curvature="0" />
      <path
         d="m 410.3945,220.68142 c -0.21696,-3.11875 -2.30517,-4.47473 -5.12561,-4.47473 -2.57636,0 -4.71881,1.49158 -4.71881,4.06794 0,2.495 1.92549,3.52555 3.44419,3.8781 l 2.73908,0.67799 c 1.54582,0.37968 1.95261,1.16615 1.95261,2.06109 -0.0271,1.22038 -0.92207,2.00685 -2.87468,2.00685 -1.87125,0 -3.33571,-0.81359 -3.52554,-2.79332 h -2.08821 c 0.21695,3.38995 2.68484,4.74593 5.61375,4.74593 2.84756,0 4.93577,-1.13902 4.93577,-3.90522 0,-2.57636 -1.46446,-3.63402 -3.57979,-4.1493 l -2.6306,-0.65087 c -1.13902,-0.27119 -1.92549,-0.78647 -1.92549,-1.95261 0,-1.27462 1.1119,-2.03397 2.6306,-2.03397 1.73566,0 2.82044,0.89495 3.06452,2.52212 z"
         style="font-style:normal;font-variant:normal;font-weight:normal;font-stretch:normal;font-size:27.1196003px;line-height:0;font-family:'Simplon Norm';-inkscape-font-specification:'Simplon Norm';letter-spacing:4.27492952px"
         id="path919"
         inkscape:connector-curvature="0" />
      <path
         d="m 423.31254,228.89866 c -1.81701,0 -3.44419,-1.16614 -3.44419,-3.49843 v -1.35598 h 8.92235 v -2.3594 c 0,-4.12218 -2.87468,-5.47816 -5.47816,-5.47816 -2.60348,0 -5.47816,1.35598 -5.47816,5.47816 v 3.68826 c 0,4.12218 2.87468,5.47816 5.47816,5.47816 2.44076,0 5.09848,-1.16614 5.45104,-4.66457 h -2.08821 c -0.32544,1.81702 -1.76277,2.71196 -3.36283,2.71196 z m 3.44419,-6.72566 h -6.88838 v -0.51527 c 0,-2.33229 1.62718,-3.49843 3.44419,-3.49843 1.81701,0 3.44419,1.16614 3.44419,3.49843 z"
         style="font-style:normal;font-variant:normal;font-weight:normal;font-stretch:normal;font-size:27.1196003px;line-height:0;font-family:'Simplon Norm';-inkscape-font-specification:'Simplon Norm';letter-spacing:4.27492952px"
         id="path921"
         inkscape:connector-curvature="0" />
      <path
         d="m 441.72993,230.85127 c 1.27462,0 2.73908,-0.56951 3.44419,-1.70853 v 1.43734 h 2.03397 v -18.98372 h -2.03397 v 6.31886 c -0.70511,-1.13902 -2.16957,-1.70853 -3.44419,-1.70853 -2.60348,0 -5.47816,1.35598 -5.47816,5.47816 v 3.68826 c 0,4.12218 2.87468,5.47816 5.47816,5.47816 z m -3.44419,-9.19354 c 0,-2.33229 1.62717,-3.49843 3.44419,-3.49843 1.81701,0 3.44419,1.16614 3.44419,3.49843 v 3.7425 c 0,2.33229 -1.62718,3.49843 -3.44419,3.49843 -1.81702,0 -3.44419,-1.16614 -3.44419,-3.49843 z"
         style="font-style:normal;font-variant:normal;font-weight:normal;font-stretch:normal;font-size:27.1196003px;line-height:0;font-family:'Simplon Norm';-inkscape-font-specification:'Simplon Norm';letter-spacing:4.27492952px"
         id="path923"
         inkscape:connector-curvature="0" />
    </g>
    <path
       style="fill:none;stroke:#d9230f;stroke-width:0.3673853;stroke-linecap:butt;stroke-linejoin:miter;stroke-miterlimit:4;stroke-dasharray:none;stroke-opacity:1"
       d="M 109.44335,154.28266 H 28.33504"
       id="path3705"
       inkscape:connector-curvature="0"
       sodipodi:nodetypes="cc" />
    <g
       aria-label="Visit YouTube's homepage  again and that's it! "
       transform="matrix(0.62366237,0,0,0.62366237,-52.664579,44.376235)"
       style="font-style:normal;font-weight:normal;font-size:40px;line-height:0.5;font-family:sans-serif;text-align:start;letter-spacing:0px;word-spacing:0px;text-anchor:start;fill:#d9230f;fill-opacity:1;stroke:none"
       id="flowRoot953-3-9">
      <path
         d="m 141.43164,147.24262 -2.99756,-9.30656 h -1.22413 l 3.53115,10.98581 h 1.38108 l 3.53115,-10.98581 h -1.22413 z"
         style="font-style:normal;font-variant:normal;font-weight:normal;font-stretch:normal;font-size:15.6940155px;line-height:0.5;font-family:'Simplon Norm';-inkscape-font-specification:'Simplon Norm';text-align:start;text-anchor:start;fill:#d9230f;fill-opacity:1"
         id="path1308"
         inkscape:connector-curvature="0" />
      <path
         d="m 148.23353,137.93606 h -1.17706 v 1.52232 h 1.17706 z m 0,2.8877 h -1.17706 v 8.09811 h 1.17706 z"
         style="font-style:normal;font-variant:normal;font-weight:normal;font-stretch:normal;font-size:15.6940155px;line-height:0.5;font-family:'Simplon Norm';-inkscape-font-specification:'Simplon Norm';text-align:start;text-anchor:start;fill:#d9230f;fill-opacity:1"
         id="path1310"
         inkscape:connector-curvature="0" />
      <path
         d="m 155.91746,143.19356 c -0.12555,-1.80481 -1.33399,-2.58951 -2.96617,-2.58951 -1.49093,0 -2.73076,0.86317 -2.73076,2.3541 0,1.44385 1.11428,2.04022 1.99314,2.24424 l 1.5851,0.39235 c 0.89456,0.21972 1.12997,0.67485 1.12997,1.19275 -0.0157,0.70623 -0.5336,1.16136 -1.66357,1.16136 -1.08288,0 -1.93036,-0.47082 -2.04022,-1.61649 h -1.20844 c 0.12555,1.96175 1.55371,2.74646 3.24866,2.74646 1.64788,0 2.85631,-0.65915 2.85631,-2.25994 0,-1.49093 -0.84747,-2.103 -2.07161,-2.40119 l -1.52232,-0.37665 c -0.65914,-0.15694 -1.11427,-0.45513 -1.11427,-1.12997 0,-0.73762 0.64345,-1.17705 1.52232,-1.17705 1.00442,0 1.63218,0.5179 1.77342,1.45954 z"
         style="font-style:normal;font-variant:normal;font-weight:normal;font-stretch:normal;font-size:15.6940155px;line-height:0.5;font-family:'Simplon Norm';-inkscape-font-specification:'Simplon Norm';text-align:start;text-anchor:start;fill:#d9230f;fill-opacity:1"
         id="path1312"
         inkscape:connector-curvature="0" />
      <path
         d="m 159.14577,137.93606 h -1.17705 v 1.52232 h 1.17705 z m 0,2.8877 h -1.17705 v 8.09811 h 1.17705 z"
         style="font-style:normal;font-variant:normal;font-weight:normal;font-stretch:normal;font-size:15.6940155px;line-height:0.5;font-family:'Simplon Norm';-inkscape-font-specification:'Simplon Norm';text-align:start;text-anchor:start;fill:#d9230f;fill-opacity:1"
         id="path1314"
         inkscape:connector-curvature="0" />
      <path
         d="m 163.04745,141.95373 h 1.99314 v -1.12997 h -1.99314 v -1.8362 h -1.17705 v 1.8362 h -1.14566 v 1.12997 h 1.14566 v 5.03778 c 0,1.38107 0.42374,1.93036 1.93036,1.93036 h 1.23983 v -1.12996 h -1.23983 c -0.56498,0 -0.75331,-0.18833 -0.75331,-0.70623 z"
         style="font-style:normal;font-variant:normal;font-weight:normal;font-stretch:normal;font-size:15.6940155px;line-height:0.5;font-family:'Simplon Norm';-inkscape-font-specification:'Simplon Norm';text-align:start;text-anchor:start;fill:#d9230f;fill-opacity:1"
         id="path1316"
         inkscape:connector-curvature="0" />
      <path
         d="m 174.08672,144.55894 3.62532,-6.62288 h -1.3183 l -2.90339,5.32028 -2.91909,-5.32028 h -1.3183 l 3.62532,6.60718 v 4.37863 h 1.20844 z"
         style="font-style:normal;font-variant:normal;font-weight:normal;font-stretch:normal;font-size:15.6940155px;line-height:0.5;font-family:'Simplon Norm';-inkscape-font-specification:'Simplon Norm';text-align:start;text-anchor:start;fill:#d9230f;fill-opacity:1"
         id="path1318"
         inkscape:connector-curvature="0" />
      <path
         d="m 182.62181,145.92432 c 0,1.34968 -0.94164,2.02453 -1.99314,2.02453 -1.0515,0 -1.99314,-0.67485 -1.99314,-2.02453 v -2.16578 c 0,-1.34968 0.94164,-2.02452 1.99314,-2.02452 1.0515,0 1.99314,0.67484 1.99314,2.02452 z m 1.17705,-2.15008 c 0,-2.38549 -1.66356,-3.17019 -3.17019,-3.17019 -1.50663,0 -3.17019,0.7847 -3.17019,3.17019 v 2.13438 c 0,2.38549 1.66356,3.1702 3.17019,3.1702 1.50663,0 3.17019,-0.78471 3.17019,-3.1702 z"
         style="font-style:normal;font-variant:normal;font-weight:normal;font-stretch:normal;font-size:15.6940155px;line-height:0.5;font-family:'Simplon Norm';-inkscape-font-specification:'Simplon Norm';text-align:start;text-anchor:start;fill:#d9230f;fill-opacity:1"
         id="path1320"
         inkscape:connector-curvature="0" />
      <path
         d="m 188.93693,149.07882 c 0.69054,0 1.53802,-0.34527 1.94606,-0.98873 v 0.83178 h 1.17705 v -8.09811 h -1.17705 v 5.10056 c 0,1.33399 -0.95733,2.02453 -1.94606,2.02453 -0.95733,0 -1.94605,-0.62776 -1.94605,-2.07161 v -5.05348 h -1.17706 v 5.13195 c 0,2.40118 1.78912,3.12311 3.12311,3.12311 z"
         style="font-style:normal;font-variant:normal;font-weight:normal;font-stretch:normal;font-size:15.6940155px;line-height:0.5;font-family:'Simplon Norm';-inkscape-font-specification:'Simplon Norm';text-align:start;text-anchor:start;fill:#d9230f;fill-opacity:1"
         id="path1322"
         inkscape:connector-curvature="0" />
      <path
         d="m 196.39184,139.12881 v 9.79306 h 1.20844 v -9.79306 h 2.93478 v -1.19275 h -7.078 v 1.19275 z"
         style="font-style:normal;font-variant:normal;font-weight:normal;font-stretch:normal;font-size:15.6940155px;line-height:0.5;font-family:'Simplon Norm';-inkscape-font-specification:'Simplon Norm';text-align:start;text-anchor:start;fill:#d9230f;fill-opacity:1"
         id="path1324"
         inkscape:connector-curvature="0" />
      <path
         d="m 204.26312,149.07882 c 0.69054,0 1.53801,-0.34527 1.94606,-0.98873 v 0.83178 h 1.17705 v -8.09811 h -1.17705 v 5.10056 c 0,1.33399 -0.95734,2.02453 -1.94606,2.02453 -0.95733,0 -1.94606,-0.62776 -1.94606,-2.07161 v -5.05348 h -1.17705 v 5.13195 c 0,2.40118 1.78912,3.12311 3.12311,3.12311 z"
         style="font-style:normal;font-variant:normal;font-weight:normal;font-stretch:normal;font-size:15.6940155px;line-height:0.5;font-family:'Simplon Norm';-inkscape-font-specification:'Simplon Norm';text-align:start;text-anchor:start;fill:#d9230f;fill-opacity:1"
         id="path1326"
         inkscape:connector-curvature="0" />
      <path
         d="m 212.91077,149.07882 c 1.50663,0 3.17019,-0.78471 3.17019,-3.1702 v -2.13438 c 0,-2.38549 -1.66356,-3.17019 -3.17019,-3.17019 -0.73762,0 -1.58509,0.32957 -1.99314,0.98872 v -3.65671 h -1.17705 v 10.98581 h 1.17705 v -0.83178 c 0.40805,0.65915 1.25552,0.98873 1.99314,0.98873 z m 1.99314,-3.1545 c 0,1.34968 -0.94164,2.02453 -1.99314,2.02453 -1.0515,0 -1.99314,-0.67485 -1.99314,-2.02453 v -2.16578 c 0,-1.34968 0.94164,-2.02452 1.99314,-2.02452 1.0515,0 1.99314,0.67484 1.99314,2.02452 z"
         style="font-style:normal;font-variant:normal;font-weight:normal;font-stretch:normal;font-size:15.6940155px;line-height:0.5;font-family:'Simplon Norm';-inkscape-font-specification:'Simplon Norm';text-align:start;text-anchor:start;fill:#d9230f;fill-opacity:1"
         id="path1328"
         inkscape:connector-curvature="0" />
      <path
         d="m 221.15111,147.94885 c -1.0515,0 -1.99314,-0.67485 -1.99314,-2.02453 v -0.7847 h 5.16333 v -1.36538 c 0,-2.38549 -1.66357,-3.17019 -3.17019,-3.17019 -1.50663,0 -3.17019,0.7847 -3.17019,3.17019 v 2.13438 c 0,2.38549 1.66356,3.1702 3.17019,3.1702 1.41246,0 2.95047,-0.67485 3.1545,-2.69938 h -1.20844 c -0.18833,1.0515 -1.02011,1.56941 -1.94606,1.56941 z m 1.99314,-3.89212 h -3.98628 v -0.29819 c 0,-1.34968 0.94164,-2.02452 1.99314,-2.02452 1.0515,0 1.99314,0.67484 1.99314,2.02452 z"
         style="font-style:normal;font-variant:normal;font-weight:normal;font-stretch:normal;font-size:15.6940155px;line-height:0.5;font-family:'Simplon Norm';-inkscape-font-specification:'Simplon Norm';text-align:start;text-anchor:start;fill:#d9230f;fill-opacity:1"
         id="path1330"
         inkscape:connector-curvature="0" />
      <path
         d="m 227.64034,141.45152 v -3.51546 h -1.17706 v 3.51546 z"
         style="font-style:normal;font-variant:normal;font-weight:normal;font-stretch:normal;font-size:15.6940155px;line-height:0.5;font-family:'Simplon Norm';-inkscape-font-specification:'Simplon Norm';text-align:start;text-anchor:start;fill:#d9230f;fill-opacity:1"
         id="path1332"
         inkscape:connector-curvature="0" />
      <path
         d="m 235.39907,143.19356 c -0.12555,-1.80481 -1.33399,-2.58951 -2.96617,-2.58951 -1.49093,0 -2.73076,0.86317 -2.73076,2.3541 0,1.44385 1.11428,2.04022 1.99314,2.24424 l 1.5851,0.39235 c 0.89456,0.21972 1.12997,0.67485 1.12997,1.19275 -0.0157,0.70623 -0.5336,1.16136 -1.66357,1.16136 -1.08288,0 -1.93036,-0.47082 -2.04022,-1.61649 h -1.20844 c 0.12555,1.96175 1.55371,2.74646 3.24866,2.74646 1.64787,0 2.85631,-0.65915 2.85631,-2.25994 0,-1.49093 -0.84747,-2.103 -2.07161,-2.40119 l -1.52232,-0.37665 c -0.65914,-0.15694 -1.11427,-0.45513 -1.11427,-1.12997 0,-0.73762 0.64345,-1.17705 1.52232,-1.17705 1.00442,0 1.63218,0.5179 1.77342,1.45954 z"
         style="font-style:normal;font-variant:normal;font-weight:normal;font-stretch:normal;font-size:15.6940155px;line-height:0.5;font-family:'Simplon Norm';-inkscape-font-specification:'Simplon Norm';text-align:start;text-anchor:start;fill:#d9230f;fill-opacity:1"
         id="path1334"
         inkscape:connector-curvature="0" />
      <path
         d="m 247.95918,144.11951 c 0,-2.38549 -1.60079,-3.51546 -3.24866,-3.51546 -0.72192,0 -1.53801,0.37665 -1.89897,0.92594 v -3.59393 h -2.07162 v 10.98581 h 2.07162 v -4.72389 c 0,-1.09858 0.75331,-1.56941 1.53801,-1.56941 0.7847,0 1.53801,0.47083 1.53801,1.56941 v 4.72389 h 2.07161 z"
         style="font-style:normal;font-variant:normal;font-weight:bold;font-stretch:normal;font-size:15.6940155px;font-family:'Simplon Norm';-inkscape-font-specification:'Simplon Norm Bold'"
         id="path1336"
         inkscape:connector-curvature="0" />
      <path
         d="m 249.46998,145.35933 c 0,2.24425 1.28691,3.71949 3.60962,3.71949 2.32272,0 3.60963,-1.47524 3.60963,-3.71949 v -1.0358 c 0,-2.24425 -1.28691,-3.71948 -3.60963,-3.71948 -2.32271,0 -3.60962,1.47523 -3.60962,3.71948 z m 5.14764,0.2668 c 0,0.95734 -0.54929,1.5851 -1.53802,1.5851 -0.98872,0 -1.53801,-0.62776 -1.53801,-1.5851 v -1.5694 c 0,-0.95733 0.54929,-1.5851 1.53801,-1.5851 0.98873,0 1.53802,0.62777 1.53802,1.5851 z"
         style="font-style:normal;font-variant:normal;font-weight:bold;font-stretch:normal;font-size:15.6940155px;font-family:'Simplon Norm';-inkscape-font-specification:'Simplon Norm Bold'"
         id="path1338"
         inkscape:connector-curvature="0" />
      <path
         d="m 265.45949,144.19798 c 0,-1.08289 0.75331,-1.56941 1.49093,-1.56941 0.73762,0 1.49093,0.48652 1.49093,1.56941 v 4.72389 h 2.07161 v -4.80236 c 0,-2.3698 -1.50663,-3.51546 -3.56254,-3.51546 -1.11428,0 -1.94606,0.36096 -2.52674,1.06719 -0.56498,-0.75331 -1.33399,-1.06719 -2.18147,-1.06719 -0.70623,0 -1.44385,0.34527 -1.8362,0.89456 v -0.67485 h -2.07161 v 8.09811 h 2.07161 v -4.72389 c 0,-1.08289 0.75331,-1.56941 1.49093,-1.56941 0.73762,0 1.49094,0.48652 1.49094,1.56941 v 4.72389 h 2.07161 z"
         style="font-style:normal;font-variant:normal;font-weight:bold;font-stretch:normal;font-size:15.6940155px;font-family:'Simplon Norm';-inkscape-font-specification:'Simplon Norm Bold'"
         id="path1340"
         inkscape:connector-curvature="0" />
      <path
         d="m 279.24937,145.57905 v -1.25552 c 0,-2.24425 -1.28691,-3.71948 -3.60963,-3.71948 -2.32271,0 -3.60962,1.47523 -3.60962,3.71948 v 1.0358 c 0,2.24425 1.28691,3.71949 3.60962,3.71949 1.97745,0 3.20158,-1.0672 3.53116,-2.76215 h -2.103 c -0.20402,0.54929 -0.70623,0.89456 -1.42816,0.89456 -0.98872,0 -1.53801,-0.62776 -1.53801,-1.5851 v -0.0471 z m -3.60963,-3.10742 c 0.92595,0 1.45955,0.5336 1.52232,1.38108 v 0.0157 h -3.06033 v -0.0157 c 0.0785,-0.83178 0.61207,-1.38108 1.53801,-1.38108 z"
         style="font-style:normal;font-variant:normal;font-weight:bold;font-stretch:normal;font-size:15.6940155px;font-family:'Simplon Norm';-inkscape-font-specification:'Simplon Norm Bold'"
         id="path1342"
         inkscape:connector-curvature="0" />
      <path
         d="m 282.93551,148.15287 c 0.36096,0.54929 1.17705,0.92595 1.89897,0.92595 1.64787,0 3.24866,-1.12997 3.24866,-3.51546 v -1.44385 c 0,-2.38549 -1.60079,-3.51546 -3.24866,-3.51546 -0.72192,0 -1.53801,0.37665 -1.89897,0.92594 v -0.70623 h -2.07161 v 10.98581 h 2.07161 z m 3.07602,-2.66798 c 0,1.09858 -0.75331,1.5694 -1.53801,1.5694 -0.7847,0 -1.53801,-0.47082 -1.53801,-1.5694 v -1.28691 c 0,-1.09858 0.75331,-1.56941 1.53801,-1.56941 0.7847,0 1.53801,0.47083 1.53801,1.56941 z"
         style="font-style:normal;font-variant:normal;font-weight:bold;font-stretch:normal;font-size:15.6940155px;font-family:'Simplon Norm';-inkscape-font-specification:'Simplon Norm Bold'"
         id="path1344"
         inkscape:connector-curvature="0" />
      <path
         d="m 294.60327,143.66438 c -1.22413,0.0942 -2.84061,0.21972 -3.64101,0.59637 -1.12997,0.5336 -1.53801,1.23983 -1.53801,2.41688 0,1.49093 1.09858,2.40119 2.95047,2.40119 1.23983,0 1.88328,-0.47083 2.25994,-1.08289 v 0.92594 h 2.07161 v -4.59834 c 0,-2.24425 -1.28691,-3.71948 -3.60962,-3.71948 -1.97745,0 -3.18589,1.06719 -3.51546,2.76214 h 2.0873 c 0.20402,-0.54929 0.70623,-0.89456 1.42816,-0.89456 0.84747,0 1.36538,0.45513 1.50662,1.17706 z m -2.66798,2.0873 c 0.39235,-0.20402 1.52232,-0.29818 2.69937,-0.37665 v 0.2668 c 0,1.02011 -0.84748,1.61648 -1.91467,1.61648 -0.92595,0 -1.22413,-0.42374 -1.22413,-0.81609 0,-0.34527 0.0942,-0.5179 0.43943,-0.69054 z"
         style="font-style:normal;font-variant:normal;font-weight:bold;font-stretch:normal;font-size:15.6940155px;font-family:'Simplon Norm';-inkscape-font-specification:'Simplon Norm Bold'"
         id="path1346"
         inkscape:connector-curvature="0" />
      <path
         d="m 298.26929,148.96896 c 0.2511,1.8362 1.50662,2.99755 3.56254,2.99755 2.32271,0 3.60962,-1.47523 3.60962,-3.71948 v -7.42327 h -2.07161 v 0.70623 c -0.36096,-0.54929 -1.17705,-0.92594 -1.89897,-0.92594 -1.64787,0 -3.24866,1.12997 -3.24866,3.51546 v 0.86317 c 0,2.38549 1.60079,3.51546 3.24866,3.51546 0.72192,0 1.53801,-0.37666 1.89897,-0.92595 v 0.94164 c 0,0.95734 -0.54929,1.5851 -1.53801,1.5851 -0.83178,0 -1.33399,-0.42374 -1.49093,-1.12997 z m 2.02453,-4.77098 c 0,-1.09858 0.75331,-1.56941 1.53801,-1.56941 0.7847,0 1.53801,0.47083 1.53801,1.56941 v 0.70623 c 0,1.09858 -0.75331,1.5694 -1.53801,1.5694 -0.7847,0 -1.53801,-0.47082 -1.53801,-1.5694 z"
         style="font-style:normal;font-variant:normal;font-weight:bold;font-stretch:normal;font-size:15.6940155px;font-family:'Simplon Norm';-inkscape-font-specification:'Simplon Norm Bold'"
         id="path1348"
         inkscape:connector-curvature="0" />
      <path
         d="m 314.28504,145.57905 v -1.25552 c 0,-2.24425 -1.28691,-3.71948 -3.60962,-3.71948 -2.32271,0 -3.60962,1.47523 -3.60962,3.71948 v 1.0358 c 0,2.24425 1.28691,3.71949 3.60962,3.71949 1.97745,0 3.20158,-1.0672 3.53115,-2.76215 h -2.10299 c -0.20403,0.54929 -0.70624,0.89456 -1.42816,0.89456 -0.98872,0 -1.53801,-0.62776 -1.53801,-1.5851 v -0.0471 z m -3.60962,-3.10742 c 0.92595,0 1.45954,0.5336 1.52232,1.38108 v 0.0157 h -3.06033 v -0.0157 c 0.0785,-0.83178 0.61206,-1.38108 1.53801,-1.38108 z"
         style="font-style:normal;font-variant:normal;font-weight:bold;font-stretch:normal;font-size:15.6940155px;font-family:'Simplon Norm';-inkscape-font-specification:'Simplon Norm Bold'"
         id="path1350"
         inkscape:connector-curvature="0" />
      <path
         d="m 141.0236,161.73402 c 1.0515,0 1.99314,0.67484 1.99314,2.02452 v 0.14125 c -1.36538,0.0942 -2.52674,0.18833 -3.45269,0.45513 -1.41246,0.40804 -1.75773,1.50662 -1.75773,2.32271 0,1.66357 1.30261,2.40119 2.68368,2.40119 1.09858,0 2.00883,-0.31389 2.52674,-0.98873 v 0.83178 h 1.17705 v -5.14763 c 0,-2.38549 -1.66357,-3.17019 -3.17019,-3.17019 -1.41247,0 -2.95048,0.67484 -3.1545,2.69937 h 1.20844 c 0.18833,-1.0515 1.02011,-1.5694 1.94606,-1.5694 z m 1.99314,4.26877 c 0,1.27121 -1.00442,1.94606 -2.27564,1.94606 -1.19274,0 -1.75773,-0.56499 -1.75773,-1.30261 0,-0.47082 0.10986,-0.83178 0.70624,-1.16135 0.54929,-0.29819 1.5537,-0.40805 3.32713,-0.5336 z"
         style="font-style:normal;font-variant:normal;font-weight:normal;font-stretch:normal;font-size:15.6940155px;line-height:0.5;font-family:'Simplon Norm';-inkscape-font-specification:'Simplon Norm';text-align:start;text-anchor:start;fill:#d9230f;fill-opacity:1"
         id="path1352"
         inkscape:connector-curvature="0" />
      <path
         d="m 149.37821,170.83654 c -0.94164,0 -1.80481,-0.54929 -1.96175,-1.64787 h -1.19275 c 0.17263,2.08731 1.72634,2.77784 3.1545,2.77784 1.50662,0 3.17019,-0.769 3.17019,-3.17019 v -7.97256 h -1.17705 v 0.76901 c -0.40805,-0.65915 -1.25552,-0.98872 -1.99314,-0.98872 -1.50663,0 -3.17019,0.7847 -3.17019,3.17019 v 1.8205 c 0,2.38549 1.66356,3.17019 3.17019,3.17019 0.73762,0 1.58509,-0.32957 1.99314,-0.98872 v 1.03581 c 0,1.34968 -0.94164,2.02452 -1.99314,2.02452 z m -1.99314,-7.078 c 0,-1.34968 0.94164,-2.02452 1.99314,-2.02452 1.0515,0 1.99314,0.67484 1.99314,2.02452 v 1.8519 c 0,1.34968 -0.94164,2.02453 -1.99314,2.02453 -1.0515,0 -1.99314,-0.67485 -1.99314,-2.02453 z"
         style="font-style:normal;font-variant:normal;font-weight:normal;font-stretch:normal;font-size:15.6940155px;line-height:0.5;font-family:'Simplon Norm';-inkscape-font-specification:'Simplon Norm';text-align:start;text-anchor:start;fill:#d9230f;fill-opacity:1"
         id="path1354"
         inkscape:connector-curvature="0" />
      <path
         d="m 157.75979,161.73402 c 1.0515,0 1.99314,0.67484 1.99314,2.02452 v 0.14125 c -1.36538,0.0942 -2.52673,0.18833 -3.45268,0.45513 -1.41246,0.40804 -1.75773,1.50662 -1.75773,2.32271 0,1.66357 1.3026,2.40119 2.68368,2.40119 1.09858,0 2.00883,-0.31389 2.52673,-0.98873 v 0.83178 h 1.17705 v -5.14763 c 0,-2.38549 -1.66356,-3.17019 -3.17019,-3.17019 -1.41246,0 -2.95047,0.67484 -3.15449,2.69937 h 1.20843 c 0.18833,-1.0515 1.02012,-1.5694 1.94606,-1.5694 z m 1.99314,4.26877 c 0,1.27121 -1.00441,1.94606 -2.27563,1.94606 -1.19274,0 -1.75773,-0.56499 -1.75773,-1.30261 0,-0.47082 0.10986,-0.83178 0.70623,-1.16135 0.54929,-0.29819 1.55371,-0.40805 3.32713,-0.5336 z"
         style="font-style:normal;font-variant:normal;font-weight:normal;font-stretch:normal;font-size:15.6940155px;line-height:0.5;font-family:'Simplon Norm';-inkscape-font-specification:'Simplon Norm';text-align:start;text-anchor:start;fill:#d9230f;fill-opacity:1"
         id="path1356"
         inkscape:connector-curvature="0" />
      <path
         d="m 164.35667,157.93606 h -1.17705 v 1.52232 h 1.17705 z m 0,2.8877 h -1.17705 v 8.09811 h 1.17705 z"
         style="font-style:normal;font-variant:normal;font-weight:normal;font-stretch:normal;font-size:15.6940155px;line-height:0.5;font-family:'Simplon Norm';-inkscape-font-specification:'Simplon Norm';text-align:start;text-anchor:start;fill:#d9230f;fill-opacity:1"
         id="path1358"
         inkscape:connector-curvature="0" />
      <path
         d="m 169.87484,160.60405 c -0.73762,0 -1.5851,0.32957 -1.99314,0.98872 v -0.76901 h -1.17705 v 8.09811 h 1.17705 v -5.16333 c 0,-1.34968 0.94164,-2.02452 1.99314,-2.02452 1.0515,0 1.99314,0.67484 1.99314,2.02452 v 5.16333 h 1.17705 v -5.14763 c 0,-2.38549 -1.66357,-3.17019 -3.17019,-3.17019 z"
         style="font-style:normal;font-variant:normal;font-weight:normal;font-stretch:normal;font-size:15.6940155px;line-height:0.5;font-family:'Simplon Norm';-inkscape-font-specification:'Simplon Norm';text-align:start;text-anchor:start;fill:#d9230f;fill-opacity:1"
         id="path1360"
         inkscape:connector-curvature="0" />
      <path
         d="m 181.66865,161.73402 c 1.0515,0 1.99314,0.67484 1.99314,2.02452 v 0.14125 c -1.36538,0.0942 -2.52674,0.18833 -3.45269,0.45513 -1.41246,0.40804 -1.75773,1.50662 -1.75773,2.32271 0,1.66357 1.30261,2.40119 2.68368,2.40119 1.09858,0 2.00883,-0.31389 2.52674,-0.98873 v 0.83178 h 1.17705 v -5.14763 c 0,-2.38549 -1.66357,-3.17019 -3.17019,-3.17019 -1.41246,0 -2.95048,0.67484 -3.1545,2.69937 h 1.20844 c 0.18833,-1.0515 1.02011,-1.5694 1.94606,-1.5694 z m 1.99314,4.26877 c 0,1.27121 -1.00442,1.94606 -2.27564,1.94606 -1.19274,0 -1.75773,-0.56499 -1.75773,-1.30261 0,-0.47082 0.10986,-0.83178 0.70624,-1.16135 0.54929,-0.29819 1.5537,-0.40805 3.32713,-0.5336 z"
         style="font-style:normal;font-variant:normal;font-weight:normal;font-stretch:normal;font-size:15.6940155px;line-height:0.5;font-family:'Simplon Norm';-inkscape-font-specification:'Simplon Norm';text-align:start;text-anchor:start;fill:#d9230f;fill-opacity:1"
         id="path1362"
         inkscape:connector-curvature="0" />
      <path
         d="m 190.25867,160.60405 c -0.73762,0 -1.5851,0.32957 -1.99314,0.98872 v -0.76901 h -1.17706 v 8.09811 h 1.17706 v -5.16333 c 0,-1.34968 0.94164,-2.02452 1.99314,-2.02452 1.05149,0 1.99313,0.67484 1.99313,2.02452 v 5.16333 h 1.17706 v -5.14763 c 0,-2.38549 -1.66357,-3.17019 -3.17019,-3.17019 z"
         style="font-style:normal;font-variant:normal;font-weight:normal;font-stretch:normal;font-size:15.6940155px;line-height:0.5;font-family:'Simplon Norm';-inkscape-font-specification:'Simplon Norm';text-align:start;text-anchor:start;fill:#d9230f;fill-opacity:1"
         id="path1364"
         inkscape:connector-curvature="0" />
      <path
         d="m 198.62161,169.07882 c 0.73762,0 1.5851,-0.32958 1.99314,-0.98873 v 0.83178 h 1.17705 v -10.98581 h -1.17705 v 3.65671 c -0.40804,-0.65915 -1.25552,-0.98872 -1.99314,-0.98872 -1.50662,0 -3.17019,0.7847 -3.17019,3.17019 v 2.13438 c 0,2.38549 1.66357,3.1702 3.17019,3.1702 z m -1.99314,-5.32028 c 0,-1.34968 0.94164,-2.02452 1.99314,-2.02452 1.0515,0 1.99314,0.67484 1.99314,2.02452 v 2.16578 c 0,1.34968 -0.94164,2.02453 -1.99314,2.02453 -1.0515,0 -1.99314,-0.67485 -1.99314,-2.02453 z"
         style="font-style:normal;font-variant:normal;font-weight:normal;font-stretch:normal;font-size:15.6940155px;line-height:0.5;font-family:'Simplon Norm';-inkscape-font-specification:'Simplon Norm';text-align:start;text-anchor:start;fill:#d9230f;fill-opacity:1"
         id="path1366"
         inkscape:connector-curvature="0" />
      <path
         d="m 209.20992,161.95373 h 1.99314 v -1.12997 h -1.99314 v -1.8362 h -1.17705 v 1.8362 h -1.14566 v 1.12997 h 1.14566 v 5.03778 c 0,1.38107 0.42374,1.93036 1.93037,1.93036 h 1.23982 v -1.12996 h -1.23982 c -0.56499,0 -0.75332,-0.18833 -0.75332,-0.70623 z"
         style="font-style:normal;font-variant:normal;font-weight:normal;font-stretch:normal;font-size:15.6940155px;line-height:0.5;font-family:'Simplon Norm';-inkscape-font-specification:'Simplon Norm';text-align:start;text-anchor:start;fill:#d9230f;fill-opacity:1"
         id="path1368"
         inkscape:connector-curvature="0" />
      <path
         d="m 216.19057,160.60405 c -0.73762,0 -1.58509,0.32957 -1.99314,0.98872 v -3.65671 h -1.17705 v 10.98581 h 1.17705 v -5.16333 c 0,-1.34968 0.94164,-2.02452 1.99314,-2.02452 1.0515,0 1.99314,0.67484 1.99314,2.02452 v 5.16333 h 1.17705 v -5.14763 c 0,-2.38549 -1.66356,-3.17019 -3.17019,-3.17019 z"
         style="font-style:normal;font-variant:normal;font-weight:normal;font-stretch:normal;font-size:15.6940155px;line-height:0.5;font-family:'Simplon Norm';-inkscape-font-specification:'Simplon Norm';text-align:start;text-anchor:start;fill:#d9230f;fill-opacity:1"
         id="path1370"
         inkscape:connector-curvature="0" />
      <path
         d="m 224.45936,161.73402 c 1.0515,0 1.99314,0.67484 1.99314,2.02452 v 0.14125 c -1.36538,0.0942 -2.52674,0.18833 -3.45269,0.45513 -1.41246,0.40804 -1.75773,1.50662 -1.75773,2.32271 0,1.66357 1.30261,2.40119 2.68368,2.40119 1.09858,0 2.00883,-0.31389 2.52674,-0.98873 v 0.83178 h 1.17705 v -5.14763 c 0,-2.38549 -1.66357,-3.17019 -3.17019,-3.17019 -1.41246,0 -2.95048,0.67484 -3.1545,2.69937 h 1.20844 c 0.18833,-1.0515 1.02011,-1.5694 1.94606,-1.5694 z m 1.99314,4.26877 c 0,1.27121 -1.00442,1.94606 -2.27564,1.94606 -1.19274,0 -1.75773,-0.56499 -1.75773,-1.30261 0,-0.47082 0.10986,-0.83178 0.70624,-1.16135 0.54929,-0.29819 1.5537,-0.40805 3.32713,-0.5336 z"
         style="font-style:normal;font-variant:normal;font-weight:normal;font-stretch:normal;font-size:15.6940155px;line-height:0.5;font-family:'Simplon Norm';-inkscape-font-specification:'Simplon Norm';text-align:start;text-anchor:start;fill:#d9230f;fill-opacity:1"
         id="path1372"
         inkscape:connector-curvature="0" />
      <path
         d="m 231.4329,161.95373 h 1.99314 v -1.12997 h -1.99314 v -1.8362 h -1.17705 v 1.8362 h -1.14566 v 1.12997 h 1.14566 v 5.03778 c 0,1.38107 0.42374,1.93036 1.93036,1.93036 h 1.23983 v -1.12996 h -1.23983 c -0.56498,0 -0.75331,-0.18833 -0.75331,-0.70623 z"
         style="font-style:normal;font-variant:normal;font-weight:normal;font-stretch:normal;font-size:15.6940155px;line-height:0.5;font-family:'Simplon Norm';-inkscape-font-specification:'Simplon Norm';text-align:start;text-anchor:start;fill:#d9230f;fill-opacity:1"
         id="path1374"
         inkscape:connector-curvature="0" />
      <path
         d="m 236.49887,161.45152 v -3.51546 h -1.17705 v 3.51546 z"
         style="font-style:normal;font-variant:normal;font-weight:normal;font-stretch:normal;font-size:15.6940155px;line-height:0.5;font-family:'Simplon Norm';-inkscape-font-specification:'Simplon Norm';text-align:start;text-anchor:start;fill:#d9230f;fill-opacity:1"
         id="path1376"
         inkscape:connector-curvature="0" />
      <path
         d="m 244.25761,163.19356 c -0.12555,-1.80481 -1.33399,-2.58951 -2.96617,-2.58951 -1.49093,0 -2.73076,0.86317 -2.73076,2.3541 0,1.44385 1.11427,2.04022 1.99314,2.24424 l 1.5851,0.39235 c 0.89455,0.21972 1.12996,0.67485 1.12996,1.19275 -0.0157,0.70623 -0.53359,1.16136 -1.66356,1.16136 -1.08289,0 -1.93037,-0.47082 -2.04022,-1.61649 h -1.20844 c 0.12555,1.96175 1.5537,2.74646 3.24866,2.74646 1.64787,0 2.85631,-0.65915 2.85631,-2.25994 0,-1.49093 -0.84748,-2.103 -2.07161,-2.40119 l -1.52232,-0.37665 c -0.65915,-0.15694 -1.11428,-0.45513 -1.11428,-1.12997 0,-0.73762 0.64346,-1.17705 1.52232,-1.17705 1.00442,0 1.63218,0.5179 1.77343,1.45954 z"
         style="font-style:normal;font-variant:normal;font-weight:normal;font-stretch:normal;font-size:15.6940155px;line-height:0.5;font-family:'Simplon Norm';-inkscape-font-specification:'Simplon Norm';text-align:start;text-anchor:start;fill:#d9230f;fill-opacity:1"
         id="path1378"
         inkscape:connector-curvature="0" />
      <path
         d="m 251.01093,157.93606 h -1.17705 v 1.52232 h 1.17705 z m 0,2.8877 h -1.17705 v 8.09811 h 1.17705 z"
         style="font-style:normal;font-variant:normal;font-weight:normal;font-stretch:normal;font-size:15.6940155px;line-height:0.5;font-family:'Simplon Norm';-inkscape-font-specification:'Simplon Norm';text-align:start;text-anchor:start;fill:#d9230f;fill-opacity:1"
         id="path1380"
         inkscape:connector-curvature="0" />
      <path
         d="m 254.91261,161.95373 h 1.99314 v -1.12997 h -1.99314 v -1.8362 h -1.17705 v 1.8362 h -1.14566 v 1.12997 h 1.14566 v 5.03778 c 0,1.38107 0.42374,1.93036 1.93037,1.93036 h 1.23982 v -1.12996 h -1.23982 c -0.56499,0 -0.75332,-0.18833 -0.75332,-0.70623 z"
         style="font-style:normal;font-variant:normal;font-weight:normal;font-stretch:normal;font-size:15.6940155px;line-height:0.5;font-family:'Simplon Norm';-inkscape-font-specification:'Simplon Norm';text-align:start;text-anchor:start;fill:#d9230f;fill-opacity:1"
         id="path1382"
         inkscape:connector-curvature="0" />
      <path
         d="m 260.29247,157.93606 h -1.17705 v 7.69007 h 1.17705 z m -1.41246,10.98581 h 1.64787 V 167.274 h -1.64787 z"
         style="font-style:normal;font-variant:normal;font-weight:normal;font-stretch:normal;font-size:15.6940155px;line-height:0.5;font-family:'Simplon Norm';-inkscape-font-specification:'Simplon Norm';text-align:start;text-anchor:start;fill:#d9230f;fill-opacity:1"
         id="path1384"
         inkscape:connector-curvature="0" />
    </g>
    <path
       inkscape:connector-curvature="0"
       d="m 99.176715,109.02332 a 3.577235,3.577235 0 0 1 1.277915,-1.14483 2.589101,2.589101 0 0 1 -0.31829,-0.66039 c -0.593833,-1.83376 0.86938,-2.77909 1.93828,-3.46804 l 0.22802,-0.14723 a 37.677353,37.677353 0 0 1 4.01906,-1.80989 2.375322,2.375322 0 0 1 -0.70312,-1.42528 2.8883916,2.8883916 0 0 1 0.16162,-1.22096 3.3254509,3.3254509 0 0 1 -1.23993,-0.949998 2.8931421,2.8931421 0 0 1 -0.56058,-2.270803 2.228052,2.228052 0 0 1 0.90263,-1.50607 3.577235,3.577235 0 0 1 1.61046,-0.598622 2.589101,2.589101 0 0 1 -0.0571,-0.731491 c 0.12358,-1.900209 1.82898,-2.266135 3.07841,-2.513202 l 0.27078,-0.05215 c 0.95012,-0.189973 5.87181,-0.223189 7.48228,-0.20414 l -0.34681,-0.346903 c -1.46795,-1.482204 -2.08079,-3.382404 -1.61048,-5.049904 a 2.627106,2.627106 0 0 1 1.70075,-1.952446 v 0 c 1.58194,-0.394295 3.0119,1.068877 3.95728,2.037918 0.18051,0.185298 0.42754,0.437029 0.51784,0.498796 v 0 c 0.21377,0.129273 0.76959,0.475091 1.80049,1.187734 1.76248,1.173367 4.38006,2.916819 6.0523,3.928767 1.40144,0 2.95014,-0.0431 3.82903,-0.05747 l 0.47506,-0.118525 c -1.5202,-1.292232 -3.77201,-3.429978 -4.83141,-5.496438 -0.95013,-1.862317 -0.95013,-3.843306 0,-5.30181 a 2.627106,2.627106 0 0 1 2.21381,-1.339639 c 1.62946,0.104145 2.54634,1.933595 3.15441,3.144857 0.10934,0.21384 0.25179,0.503639 0.31828,0.603474 0.22331,0.16698 1.02142,0.617476 1.7245,1.016623 2.18528,1.235136 5.48224,3.097445 6.87419,4.679309 0.44655,0.508302 2.10927,2.32303 3.57248,3.91925 1.18767,1.296901 2.2138,2.418205 2.44657,2.679453 0.23279,0.261248 0.68886,0.731491 1.18767,1.244648 0.57007,0.589115 1.16392,1.197079 1.53445,1.610401 0.63184,0.3943 4.09983,1.149669 7.00246,1.634279 a 0.95125947,0.95125947 0 0 1 -0.31354,1.876502 c -4.75064,-0.798108 -7.48702,-1.539297 -8.07609,-2.204355 -0.33729,-0.379933 -0.95015,-1.026142 -1.5107,-1.591379 -0.56058,-0.565409 -0.99765,-1.026128 -1.24944,-1.311267 -0.25178,-0.28494 -1.28742,-1.425097 -2.41808,-2.650706 -1.46794,-1.605745 -3.13541,-3.425315 -3.59622,-3.947824 -1.18293,-1.339814 -4.4371,-3.182905 -6.38487,-4.275665 -1.47746,-0.836176 -1.95728,-1.111605 -2.19954,-1.391884 a 5.059436,5.059436 0 0 1 -0.60334,-1.030987 c -0.30879,-0.617483 -1.03565,-2.06646 -1.54871,-2.099684 a 1.3396816,1.3396816 0 0 0 -0.66035,0.674583 c -0.20901,0.413325 -0.60333,1.553478 0.22329,3.173397 1.19717,2.346741 4.3991,4.973945 5.44424,5.791092 1.69597,-0.375264 2.81713,-0.304175 3.32545,0.218507 a 0.95012881,0.95012881 0 0 1 -1.18766,1.467838 c -0.12824,-0.02873 -0.69834,-0.0987 -2.13303,0.261434 l -2.41809,0.607964 a 0.95012881,0.95012881 0 0 1 -0.21377,0.02873 c -0.60809,0 -5.96683,0.113072 -6.95494,0.05201 -0.52258,-0.03233 -2.94066,-0.104159 -5.07369,-0.166973 l -1.61048,-0.04669 h -0.0713 -0.15208 c -0.9501,-0.02873 -1.66272,-0.05215 -1.85749,-0.06106 -0.79335,-0.04669 -6.73641,0 -7.43949,0.156198 l -0.28031,0.05747 c -1.34443,0.270759 -1.5297,0.399141 -1.55345,0.774405 a 0.760103,0.760103 0 0 0 0.3278,0.646022 l 19.14983,2.242426 a 0.95169816,0.95169816 0 0 1 -0.10935,1.900196 h -0.114 l -19.38261,-2.266121 h -0.038 c -0.47507,-0.07543 -1.69123,-0.123847 -2.1758,0.232873 a 0.32779444,0.32779444 0 0 0 -0.14722,0.247068 0.98338328,0.98338328 0 0 0 0.16625,0.81229 2.3135635,2.3135635 0 0 0 1.38245,0.627001 h 0.0855 l 19.6534,3.458531 a 0.95355486,0.95355486 0 0 1 -0.16159,1.9002 0.95012881,0.95012881 0 0 1 -0.16628,0 l -19.15458,-3.368212 a 0.95012881,0.95012881 0 0 0 -0.13772,0.589102 c 0.0333,0.13289 0.4988,0.7886 2.06177,1.32546 1.66273,0.57007 4.75063,1.28271 4.8789,1.31592 v 0 l 14.13317,3.04988 a 0.95012881,0.95012881 0 1 1 -0.39906,1.85764 l -14.0239,-3.02616 a 0.33729568,0.33729568 0 0 0 -0.30403,0.2898 c -0.0854,0.35623 0.58906,0.78858 1.29219,1.00225 0.35628,0.10948 1.02137,0.36107 1.86223,0.67942 0.76486,0.2898 1.74824,0.66039 2.69839,0.9976 a 0.95012881,0.95012881 0 0 1 0.19,0.0664 14.684241,14.684241 0 0 0 2.77439,0.78393 c 1.1164,0.0718 2.75537,0.6936 4.65088,1.42527 0.98339,0.37043 2.00002,0.75538 2.9549,1.06404 a 36.275916,36.275916 0 0 0 4.43234,1.00711 h 0.10934 c 2.92641,0.50848 6.19961,0.86471 7.78156,0.71748 3.00242,-0.27562 4.72214,0 9.18298,1.4251 4.85992,1.52978 7.01196,1.83861 7.03097,1.83861 a 0.95229091,0.95229091 0 0 1 -0.12824,1.9002 h -0.12823 c -0.0903,0 -2.30408,-0.32787 -7.34924,-1.94311 -4.4466,-1.42511 -5.86229,-1.57233 -8.42287,-1.33479 -1.76249,0.1616 -5.0547,-0.19481 -8.01911,-0.69846 a 26.361323,26.361323 0 0 1 -5.70076,1.6912 c -0.91213,0.19482 -1.77199,0.38011 -2.6081,0.60348 -3.28745,0.87871 -13.1878,1.6675 -13.30183,1.67684 -0.114,0.018 -0.32301,0 -0.47504,0 -1.74348,0 -2.95014,-0.80278 -3.12593,-2.11872 a 2.6318569,2.6318569 0 0 1 0,-0.34671 c -1.05464,0.13289 -2.32782,0.27544 -3.26843,0.31817 -2.0998,0.10056 -3.67701,-0.4751 -4.19483,-1.52495 a 2.8836408,2.8836408 0 0 1 -0.29928,-1.19707 3.3254509,3.3254509 0 0 1 -1.50122,-0.41817 2.8931421,2.8931421 0 0 1 -1.358663,-1.9002 2.2233012,2.2233012 0 0 1 0.247014,-1.72927 z M 121.34798,90.448318 c 1.67221,0.04855 3.3872,0.100567 4.38484,0.138253 -1.22567,-0.798111 -2.49885,-1.643618 -3.49647,-2.308676 -0.83613,-0.555898 -1.55823,-1.035653 -1.73399,-1.140158 v 0 a 5.0641863,5.0641863 0 0 1 -0.88837,-0.793434 c -0.47507,-0.475099 -1.60097,-1.624764 -2.12355,-1.524936 a 1.3539335,1.3539335 0 0 0 -0.40379,0.869393 c -0.0713,0.475089 -0.10456,1.662642 1.17814,2.954887 0.90738,0.912126 1.42521,1.425111 1.69124,1.719734 l 0.0523,0.05215 z m -12.3897,12.869552 q -0.36579,-0.12384 -0.70307,-0.27076 c -1.15442,0.43703 -4.33735,1.75764 -4.91218,2.13776 l -0.23753,0.15619 c -1.14965,0.74588 -1.27793,0.9502 -1.1639,1.28739 a 0.760103,0.760103 0 0 0 0.54156,0.4751 l 9.5013,-2.53204 v -0.0287 a 2.5748491,2.5748491 0 0 1 0.10455,-0.32787 c -1.00713,-0.25639 -2.24231,-0.58911 -3.13541,-0.89309 z m 4.02856,12.727 c 2.54159,-0.19966 10.37063,-0.95019 12.95025,-1.6201 0.88363,-0.23754 1.80999,-0.43218 2.70311,-0.62699 0.89313,-0.19481 1.66273,-0.36108 2.47985,-0.57007 -0.54634,-0.1329 -1.0309,-0.26611 -1.42517,-0.3943 -0.61761,-0.19966 -1.24469,-0.42771 -1.87179,-0.66039 l -16.22342,3.0215 a 0.33254509,0.33254509 0 0 0 -0.18529,0.38477 c 0.0476,0.35156 0.84086,0.50832 1.57246,0.46558 z m -9.24001,-2.6035 c 0.0807,0.11307 0.75536,0.55122 2.40384,0.4751 1.74349,-0.0808 4.8314,-0.54153 5.01668,-0.57008 l 13.16402,-2.45125 a 8.1140996,8.1140996 0 0 0 -1.78148,-0.44187 14.437207,14.437207 0 0 1 -3.13544,-0.83617 l -15.76263,3.23049 a 0.95012881,0.95012881 0 0 0 0.095,0.5796 z m -3.00716,-3.11163 a 0.97863261,0.97863261 0 0 0 0.47507,0.69845 2.3183144,2.3183144 0 0 0 1.52021,0.0754 h 0.0286 0.0569 l 13.23529,-2.71267 c -0.64134,-0.24221 -1.1829,-0.44169 -1.42519,-0.52249 a 4.1948185,4.1948185 0 0 1 -2.18054,-1.39206 l -9.64857,2.56543 h -0.038 c -0.47507,0.10416 -1.61997,0.5083 -1.93827,1.01662 a 0.32779444,0.32779444 0 0 0 -0.0998,0.25659 z"
       id="path1897"
       style="fill:#808080;fill-opacity:1;stroke:none;stroke-width:0.47506446;stroke-opacity:1" />
    <path
       inkscape:connector-curvature="0"
       id="path4871"
       d="m 98.227235,78.414292 2.839415,-4.500411 a 0.73644864,0.73644864 0 0 1 1.24578,0 l 2.83942,4.500411 a 0.73876318,0.73876318 0 0 1 0.0396,0.0715 3.8926573,3.8926573 0 1 1 -7.003923,0 0.73876318,0.73876318 0 0 1 0.03964,-0.0715 z m 1.751381,3.48238 a 2.4223899,2.4223899 0 0 0 3.421854,0 l 0.52077,0.520747 -0.52077,-0.520747 a 2.4211274,2.4211274 0 0 0 0.48238,-2.732767 l -2.19325,-3.47634 -2.193359,3.47634 a 2.4209171,2.4209171 0 0 0 0.482375,2.732218 z"
       data-name="Compound Path"
       style="fill:#808080;fill-opacity:1;stroke-width:0.10520694" />
    <path
       inkscape:connector-curvature="0"
       id="path4873"
       d="m 134.55347,62.15628 a 0.58033366,0.58033366 0 0 1 0.49079,0.270694 l 1.49163,2.36444 a 0.57643714,0.57643714 0 0 1 0.0314,0.05638 2.2398392,2.2398392 0 0 1 -0.43111,2.560027 v 0 a 2.2384299,2.2384299 0 0 1 -3.59658,-2.560027 0.60338115,0.60338115 0 0 1 0.0314,-0.05627 l 1.49171,-2.364535 a 0.58033366,0.58033366 0 0 1 0.49087,-0.270694 z m -0.76214,4.430612 a 1.0777625,1.0777625 0 0 0 1.52412,0 v 0 a 1.0777625,1.0777625 0 0 0 0.21977,-1.206364 l -0.98175,-1.55621 -0.98185,1.55621 a 1.0784258,1.0784258 0 0 0 0.21971,1.206364 z"
       data-name="Compound Path"
       style="fill:#808080;fill-opacity:1;stroke-width:0.0829048" />
    <path
       inkscape:connector-curvature="0"
       id="path4875"
       d="m 113.57431,70.861582 a 0.65901113,0.65901113 0 0 1 1.11475,0 l 1.69386,2.684994 a 0.65458638,0.65458638 0 0 1 0.0355,0.06397 2.5435006,2.5435006 0 0 1 -0.48954,2.907093 v 0 a 2.5419002,2.5419002 0 0 1 -4.08418,-2.907093 0.68518326,0.68518326 0 0 1 0.0355,-0.06397 z m -0.30805,4.72389 a 1.2238779,1.2238779 0 0 0 1.73075,0 v 0 a 1.2238779,1.2238779 0 0 0 0.24957,-1.369918 l -1.11486,-1.76719 -1.11494,1.76719 a 1.224631,1.224631 0 0 0 0.24948,1.369918 z"
       data-name="Compound Path"
       style="fill:#808080;fill-opacity:1;stroke-width:0.09414444" />
    <path
       inkscape:connector-curvature="0"
       id="path4877"
       d="m 95.835552,92.521805 a 1.7634863,1.7634863 0 0 0 1.596925,-1.596898 0.47242265,0.47242265 0 0 1 0.940993,0 1.7634863,1.7634863 0 0 0 1.596938,1.596898 0.47242265,0.47242265 0 0 1 0,0.941006 1.7634863,1.7634863 0 0 0 -1.596938,1.596922 0.47242265,0.47242265 0 0 1 -0.940993,0 1.7634863,1.7634863 0 0 0 -1.596925,-1.596922 0.47242265,0.47242265 0 0 1 0,-0.941006 z m 2.067461,1.155216 a 2.71697,2.71697 0 0 1 0.684813,-0.684879 2.7155529,2.7155529 0 0 1 -0.684813,-0.684813 2.71697,2.71697 0 0 1 -0.684879,0.684813 2.7183198,2.7183198 0 0 1 0.684879,0.684879 z"
       data-name="Compound Path"
       style="fill:#808080;fill-opacity:1;stroke-width:0.06748895" />
    <path
       inkscape:connector-curvature="0"
       id="path4881"
       d="m 125.56076,69.006601 a 0.47242129,0.47242129 0 0 1 0.941,0 1.7634812,1.7634812 0 0 0 1.59691,1.596927 0.47242129,0.47242129 0 0 1 0,0.940999 1.7634812,1.7634812 0 0 0 -1.59691,1.596925 0.47242129,0.47242129 0 0 1 -0.941,0 1.7634812,1.7634812 0 0 0 -1.59691,-1.596925 0.47242129,0.47242129 0 0 1 0,-0.940999 1.7634812,1.7634812 0 0 0 1.59691,-1.596927 z m 0.47053,2.752137 a 2.7169624,2.7169624 0 0 1 0.68481,-0.684878 2.7155453,2.7155453 0 0 1 -0.68481,-0.684799 2.7169624,2.7169624 0 0 1 -0.68487,0.684799 2.7183121,2.7183121 0 0 1 0.68487,0.684878 z"
       data-name="Compound Path"
       style="fill:#808080;fill-opacity:1;stroke-width:0.06748875" />
  </g>
</svg>
