<?xml version="1.0" encoding="UTF-8" standalone="no"?>
<svg
   xmlns:dc="http://purl.org/dc/elements/1.1/"
   xmlns:cc="http://creativecommons.org/ns#"
   xmlns:rdf="http://www.w3.org/1999/02/22-rdf-syntax-ns#"
   xmlns:svg="http://www.w3.org/2000/svg"
   xmlns="http://www.w3.org/2000/svg"
   xmlns:sodipodi="http://sodipodi.sourceforge.net/DTD/sodipodi-0.dtd"
   xmlns:inkscape="http://www.inkscape.org/namespaces/inkscape"
   version="1.1"
   x="0px"
   y="0px"
   viewBox="0 0 49.991936 46.733215"
   xml:space="preserve"
   id="svg18"
   sodipodi:docname="control.svg"
   width="49.991936"
   height="46.733215"
   inkscape:version="0.92.5 (2060ec1f9f, 2020-04-08)"><metadata
     id="metadata24"><rdf:RDF><cc:Work
         rdf:about=""><dc:format>image/svg+xml</dc:format><dc:type
           rdf:resource="http://purl.org/dc/dcmitype/StillImage" /></cc:Work></rdf:RDF></metadata><defs
     id="defs22" /><sodipodi:namedview
     pagecolor="#ffffff"
     bordercolor="#666666"
     borderopacity="1"
     objecttolerance="10"
     gridtolerance="10"
     guidetolerance="10"
     inkscape:pageopacity="0"
     inkscape:pageshadow="2"
     inkscape:window-width="1848"
     inkscape:window-height="1009"
     id="namedview20"
     showgrid="false"
     inkscape:zoom="3.1466667"
     inkscape:cx="24.995972"
     inkscape:cy="15.866577"
     inkscape:window-x="1992"
     inkscape:window-y="34"
     inkscape:window-maximized="1"
     inkscape:current-layer="svg18" /><path
     d="m 44.100037,24.339844 c 0.552246,0 1,-0.447266 1,-1 V 21.87207 c 1.43811,-0.432922 2.495605,-1.753784 2.495605,-3.331054 0,-1.574097 -1.057495,-2.892457 -2.495605,-3.324524 V 1 c 0,-0.5527344 -0.447754,-1 -1,-1 -0.552246,0 -1,0.4472656 -1,1 v 14.217712 c -1.432923,0.433411 -2.48584,1.750733 -2.48584,3.323303 0,1.575806 1.052918,2.895569 2.48584,3.329773 v 1.469055 c 0,0.552735 0.447754,1.000001 1,1.000001 z"
     id="path2"
     inkscape:connector-curvature="0"
     style="fill:#0c834f;fill-opacity:1" /><path
     d="m 0,26.953186 v 17.669983 c 0,0.559997 0.4500122,1 1,1 h 3.7999878 c 0.5599979,0 0.9999999,-0.440003 0.9999999,-1 V 26.953186 c 0,-0.549988 -0.440002,-1 -0.9999999,-1 H 1 c -0.5499878,0 -1,0.450012 -1,1 z"
     id="path4"
     inkscape:connector-curvature="0"
     style="fill:#0c834f;fill-opacity:1" /><path
     d="m 9.7999877,27.243164 c -0.76001,0.290039 -1.429993,0.619995 -2,1 v 15.790039 l 11.1600343,2.269958 c 1.409973,0.29004 2.829956,0.430054 4.25,0.430054 3.889954,0 7.719971,-1.080017 11.089966,-3.160034 L 47.98999,35.10321 c 1.960022,-1.220031 2.590027,-3.820007 1.400025,-5.800048 -0.600037,-0.989991 -1.549988,-1.690003 -2.690003,-1.949952 -1.130004,-0.260009 -2.290039,-0.05005 -3.23999,0.559998 l -9.720031,5.859985 c -0.06,1.710022 -0.700013,2.570008 -1.080018,2.929993 -1.039978,1.780029 -3.839965,2.280029 -6.659973,2.280029 -2.960022,0 -5.940002,-0.550048 -6.929992,-0.75 -0.540039,-0.110046 -0.890015,-0.640014 -0.78003,-1.180053 0.110047,-0.539978 0.640015,-0.889954 1.179993,-0.779969 4.110046,0.830017 10.610046,1.210022 11.5,-0.640014 0.07001,-0.149964 1,-0.979981 0.840027,-3.02002 -0.06,-0.75 -0.559998,-1.379944 -1.26001,-1.619995 h -0.01001 l -5.440002,-1.849975 -4.070007,-1.640015 c -3.719971,-1.51001 -7.699952,-1.599976 -11.2299813,-0.26001 z"
     id="path6"
     inkscape:connector-curvature="0"
     style="fill:#0c834f;fill-opacity:1" /><path
     d="m 34.707459,1 v 4.2176512 c -1.4328,0.433289 -2.48584,1.750672 -2.48584,3.323365 0,1.5758658 1.05304,2.8958118 2.48584,3.3298938 v 11.468934 c 0,0.552734 0.447754,1 1,1 0.552246,0 1,-0.447266 1,-1 V 11.872009 c 1.438293,-0.433044 2.495605,-1.753784 2.495605,-3.3309938 0,-1.573974 -1.057312,-2.892272 -2.495605,-3.324462 V 1 c 0,-0.5527344 -0.447754,-1 -1,-1 -0.552246,0 -1,0.4472656 -1,1 z"
     id="path8"
     inkscape:connector-curvature="0"
     style="fill:#0c834f;fill-opacity:1" /><path
     d="m 27.314392,0 c -0.552246,0 -1,0.4472656 -1,1 v 11.217712 c -1.432922,0.433411 -2.485839,1.750733 -2.485839,3.323303 0,1.575806 1.052917,2.895569 2.485839,3.329773 v 4.469055 c 0,0.552735 0.447754,1 1,1 0.552246,0 1,-0.447265 1,-1 V 18.87207 c 1.438111,-0.432922 2.495606,-1.753784 2.495606,-3.331055 0,-1.574096 -1.057495,-2.892456 -2.495606,-3.324523 V 1 c 0,-0.5527344 -0.447754,-1 -1,-1 z"
     id="path10"
     inkscape:connector-curvature="0"
     style="fill:#0c834f;fill-opacity:1" /><path
     d="m 18.921814,0 c -0.552246,0 -1,0.4472656 -1,1 v 2.2176514 c -1.4328,0.4332888 -2.48584,1.7506718 -2.48584,3.3233648 0,1.575866 1.05304,2.895812 2.48584,3.329894 V 23.339844 c 0,0.552734 0.447754,1 1,1 0.552246,0 1,-0.447266 1,-1 V 9.8720092 c 1.438294,-0.433044 2.495606,-1.753784 2.495606,-3.330994 0,-1.573974 -1.057312,-2.892272 -2.495606,-3.3244625 V 1 c 0,-0.5527344 -0.447754,-1 -1,-1 z"
     id="path12"
     inkscape:connector-curvature="0"
     style="fill:#0c834f;fill-opacity:1" /></svg>