<?xml version="1.0" encoding="UTF-8" standalone="no"?>
<svg
   xmlns:dc="http://purl.org/dc/elements/1.1/"
   xmlns:cc="http://creativecommons.org/ns#"
   xmlns:rdf="http://www.w3.org/1999/02/22-rdf-syntax-ns#"
   xmlns:svg="http://www.w3.org/2000/svg"
   xmlns="http://www.w3.org/2000/svg"
   xmlns:sodipodi="http://sodipodi.sourceforge.net/DTD/sodipodi-0.dtd"
   xmlns:inkscape="http://www.inkscape.org/namespaces/inkscape"
   version="1.1"
   x="0px"
   y="0px"
   viewBox="0 0 60 60"
   xml:space="preserve"
   id="svg40"
   sodipodi:docname="data.svg"
   width="60"
   height="60"
   inkscape:version="0.92.5 (2060ec1f9f, 2020-04-08)"><metadata
     id="metadata46"><rdf:RDF><cc:Work
         rdf:about=""><dc:format>image/svg+xml</dc:format><dc:type
           rdf:resource="http://purl.org/dc/dcmitype/StillImage" /><dc:title></dc:title></cc:Work></rdf:RDF></metadata><defs
     id="defs44" /><sodipodi:namedview
     pagecolor="#ffffff"
     bordercolor="#666666"
     borderopacity="1"
     objecttolerance="10"
     gridtolerance="10"
     guidetolerance="10"
     inkscape:pageopacity="0"
     inkscape:pageshadow="2"
     inkscape:window-width="1848"
     inkscape:window-height="1009"
     id="namedview42"
     showgrid="false"
     inkscape:zoom="2.95"
     inkscape:cx="18.983051"
     inkscape:cy="22"
     inkscape:window-x="1992"
     inkscape:window-y="34"
     inkscape:window-maximized="1"
     inkscape:current-layer="svg40" /><rect
     x="25"
     y="10"
     width="10"
     height="2"
     id="rect2"
     style="fill:#0c834f;fill-opacity:1" /><rect
     x="25"
     y="14"
     width="10"
     height="2"
     id="rect4"
     style="fill:#0c834f;fill-opacity:1" /><path
     d="m 55,52 v -8 c 0,-0.444 -0.293,-0.835 -0.72,-0.96 L 31,36.25 V 24 h 7 c 0.553,0 1,-0.448 1,-1 V 7 C 39,6.735 38.895,6.48 38.707,6.293 l -6,-6 C 32.52,0.105 32.266,0 32,0 H 22 c -0.553,0 -1,0.448 -1,1 v 22 c 0,0.552 0.447,1 1,1 h 7 V 36.25 L 5.72,43.04 C 5.293,43.165 5,43.556 5,44 v 8 c 0,0.444 0.293,0.835 0.72,0.96 l 24,7 C 29.812,59.987 29.905,60 30,60 c 0.095,0 0.188,-0.013 0.28,-0.04 l 24,-7 C 54.707,52.835 55,52.444 55,52 Z M 33,3.414 35.586,6 H 33 Z M 23,2 h 8 v 5 c 0,0.552 0.447,1 1,1 h 5 V 22 H 23 Z m 6,36.333 v 5.253 l -2.293,-2.293 -1.414,1.414 4,4 C 29.488,46.902 29.744,47 30,47 c 0.256,0 0.512,-0.098 0.707,-0.293 l 4,-4 L 33.293,41.293 31,43.586 V 38.333 L 50.429,44 30,49.958 9.571,44 Z m -22,7 22,6.417 v 5.917 L 7,51.25 Z M 31,57.667 V 51.75 l 22,-6.417 v 5.917 z"
     id="path6"
     inkscape:connector-curvature="0"
     style="fill:#0c834f;fill-opacity:1" /><rect
     x="25"
     y="6"
     width="4"
     height="2"
     id="rect8"
     style="fill:#0c834f;fill-opacity:1" /><path
     d="m 1,24 h 7 c 0,2.757 2.243,5 5,5 h 3 c 1.654,0 3,1.346 3,3 v 1.586 l -2.293,-2.293 -1.414,1.414 4,4 C 19.488,36.902 19.744,37 20,37 c 0.256,0 0.512,-0.098 0.707,-0.293 l 4,-4 L 23.293,31.293 21,33.586 V 32 c 0,-2.757 -2.243,-5 -5,-5 h -3 c -1.654,0 -3,-1.346 -3,-3 h 7 c 0.553,0 1,-0.448 1,-1 V 7 C 18,6.735 17.895,6.48 17.707,6.293 l -6,-6 C 11.52,0.105 11.266,0 11,0 H 1 C 0.447,0 0,0.448 0,1 v 22 c 0,0.552 0.447,1 1,1 z M 12,3.414 14.586,6 H 12 Z M 2,2 h 8 v 5 c 0,0.552 0.447,1 1,1 h 5 V 22 H 2 Z"
     id="path10"
     inkscape:connector-curvature="0"
     style="fill:#0c834f;fill-opacity:1" /><rect
     x="4"
     y="10"
     width="10"
     height="2"
     id="rect12"
     style="fill:#0c834f;fill-opacity:1" /><rect
     x="4"
     y="14"
     width="10"
     height="2"
     id="rect14"
     style="fill:#0c834f;fill-opacity:1" /><rect
     x="4"
     y="18"
     width="10"
     height="2"
     id="rect16"
     style="fill:#0c834f;fill-opacity:1" /><rect
     x="4"
     y="6"
     width="4"
     height="2"
     id="rect18"
     style="fill:#0c834f;fill-opacity:1" /><path
     d="M 60,23 V 7 C 60,6.735 59.895,6.48 59.707,6.293 l -6,-6 C 53.52,0.105 53.266,0 53,0 H 43 c -0.553,0 -1,0.448 -1,1 v 22 c 0,0.552 0.447,1 1,1 h 7 c 0,1.654 -1.346,3 -3,3 h -3 c -2.757,0 -5,2.243 -5,5 v 1.586 l -2.293,-2.293 -1.414,1.414 4,4 C 39.488,36.902 39.744,37 40,37 c 0.256,0 0.512,-0.098 0.707,-0.293 l 4,-4 L 43.293,31.293 41,33.586 V 32 c 0,-1.654 1.346,-3 3,-3 h 3 c 2.757,0 5,-2.243 5,-5 h 7 c 0.553,0 1,-0.448 1,-1 z M 54,3.414 56.586,6 H 54 Z M 44,22 V 2 h 8 v 5 c 0,0.552 0.447,1 1,1 h 5 v 14 z"
     id="path20"
     inkscape:connector-curvature="0"
     style="fill:#0c834f;fill-opacity:1" /><rect
     x="46"
     y="10"
     width="10"
     height="2"
     id="rect22"
     style="fill:#0c834f;fill-opacity:1" /><rect
     x="46"
     y="14"
     width="10"
     height="2"
     id="rect24"
     style="fill:#0c834f;fill-opacity:1" /><rect
     x="46"
     y="18"
     width="10"
     height="2"
     id="rect26"
     style="fill:#0c834f;fill-opacity:1" /><rect
     x="46"
     y="6"
     width="4"
     height="2"
     id="rect28"
     style="fill:#0c834f;fill-opacity:1" /><rect
     x="25"
     y="18"
     width="2"
     height="2"
     id="rect30"
     style="fill:#0c834f;fill-opacity:1" /><rect
     x="29"
     y="18"
     width="2"
     height="2"
     id="rect32"
     style="fill:#0c834f;fill-opacity:1" /><rect
     x="33"
     y="18"
     width="2"
     height="2"
     id="rect34"
     style="fill:#0c834f;fill-opacity:1" /></svg>