<?xml version="1.0" encoding="UTF-8" standalone="no"?>
<svg
   xmlns:dc="http://purl.org/dc/elements/1.1/"
   xmlns:cc="http://creativecommons.org/ns#"
   xmlns:rdf="http://www.w3.org/1999/02/22-rdf-syntax-ns#"
   xmlns:svg="http://www.w3.org/2000/svg"
   xmlns="http://www.w3.org/2000/svg"
   xmlns:sodipodi="http://sodipodi.sourceforge.net/DTD/sodipodi-0.dtd"
   xmlns:inkscape="http://www.inkscape.org/namespaces/inkscape"
   version="1.1"
   x="0px"
   y="0px"
   viewBox="0 0 81.038131 97.235001"
   enable-background="new 0 0 100 100"
   xml:space="preserve"
   id="svg12"
   sodipodi:docname="greenwash.svg"
   width="81.038132"
   height="97.235001"
   inkscape:version="0.92.5 (2060ec1f9f, 2020-04-08)"><metadata
     id="metadata18"><rdf:RDF><cc:Work
         rdf:about=""><dc:format>image/svg+xml</dc:format><dc:type
           rdf:resource="http://purl.org/dc/dcmitype/StillImage" /></cc:Work></rdf:RDF></metadata><defs
     id="defs16" /><sodipodi:namedview
     pagecolor="#ffffff"
     bordercolor="#666666"
     borderopacity="1"
     objecttolerance="10"
     gridtolerance="10"
     guidetolerance="10"
     inkscape:pageopacity="0"
     inkscape:pageshadow="2"
     inkscape:window-width="1848"
     inkscape:window-height="1009"
     id="namedview14"
     showgrid="false"
     inkscape:zoom="1.888"
     inkscape:cx="-32.867496"
     inkscape:cy="34.264185"
     inkscape:window-x="1992"
     inkscape:window-y="34"
     inkscape:window-maximized="1"
     inkscape:current-layer="svg12" /><g
     id="g6"
     transform="translate(-9.776814,-1.383)"
     style="fill:#0c834f;fill-opacity:1"><path
       d="m 50.002,1.383 c -26.151,0 -26.454,32.458 -26.454,32.786 0,0.007 0.004,0.013 0.004,0.02 L 23.548,91.17 c 0.006,5.305 18.669,7.448 26.45,7.448 7.785,0 26.454,-2.144 26.454,-7.449 V 34.167 c 0,0 0,0 0,0 0,-0.365 -0.317,-32.784 -26.45,-32.784 z m 1.077,76.576 c -0.371,7.873 -4.837,7.989 -5.035,7.989 -0.617,0 -1.117,-0.5 -1.117,-1.117 0,-0.617 0.5,-1.117 1.117,-1.117 0.895,-0.054 2.578,-1.357 2.809,-5.762 -3.232,-0.413 -7.889,-2.607 -7.889,-8.951 0,-8.283 7.907,-16.288 8.244,-16.625 0.417,-0.417 1.159,-0.42 1.58,0 0.337,0.337 8.248,8.342 8.248,16.625 0,6.388 -4.722,8.567 -7.957,8.958 z M 49.998,39.383 c -2.19,0 -4.367,-0.11 -6.473,-0.294 -4.373,0.461 -3.719,12.036 -8.143,12.036 -4.077,0 -2.571,-12.856 -6.9,-15.072 -0.974,-0.382 -1.715,-0.764 -2.171,-1.123 2.433,-1.917 12.949,-4.454 23.687,-4.454 10.74,0 21.261,2.537 23.693,4.454 -2.432,1.917 -12.953,4.453 -23.693,4.453 z m 0,-12.666 c -6.072,0 -18.764,1.305 -24.052,4.397 0.697,-7.766 4.402,-27.497 24.056,-27.497 19.624,0 23.345,19.726 24.049,27.494 -5.293,-3.09 -17.982,-4.394 -24.053,-4.394 z"
       id="path2"
       inkscape:connector-curvature="0"
       style="fill:#0c834f;fill-opacity:1" /><path
       d="m 43.198,69.001 c 0,5.099 3.75,6.37 5.683,6.688 V 73.421 L 45.254,69.79 c -0.437,-0.437 -0.437,-1.145 0,-1.58 0.438,-0.436 1.145,-0.436 1.58,0 l 2.047,2.049 v -9.175 c 0,-0.617 0.5,-1.117 1.117,-1.117 0.617,0 1.117,0.5 1.117,1.117 V 66.3 l 2.045,-2.049 c 0.437,-0.438 1.143,-0.438 1.58,-0.002 0.437,0.437 0.438,1.144 0.002,1.58 l -3.627,3.633 v 3.495 c 0,0.001 0,0.002 0,0.003 v 2.733 c 1.964,-0.308 5.687,-1.563 5.687,-6.693 0,-5.923 -4.857,-11.996 -6.803,-14.19 -1.943,2.198 -6.801,8.28 -6.801,14.191 z"
       id="path4"
       inkscape:connector-curvature="0"
       style="fill:#0c834f;fill-opacity:1" /></g></svg>