<?xml version="1.0" encoding="UTF-8" standalone="no"?>
<svg
   xmlns:dc="http://purl.org/dc/elements/1.1/"
   xmlns:cc="http://creativecommons.org/ns#"
   xmlns:rdf="http://www.w3.org/1999/02/22-rdf-syntax-ns#"
   xmlns:svg="http://www.w3.org/2000/svg"
   xmlns="http://www.w3.org/2000/svg"
   xmlns:sodipodi="http://sodipodi.sourceforge.net/DTD/sodipodi-0.dtd"
   xmlns:inkscape="http://www.inkscape.org/namespaces/inkscape"
   version="1.1"
   x="0px"
   y="0px"
   viewBox="206 206 52.265999 87.047768"
   enable-background="new 206 206 100 100"
   xml:space="preserve"
   id="svg16"
   sodipodi:docname="idea.svg"
   width="52.265999"
   height="87.047768"
   inkscape:version="0.92.5 (2060ec1f9f, 2020-04-08)"><metadata
     id="metadata22"><rdf:RDF><cc:Work
         rdf:about=""><dc:format>image/svg+xml</dc:format><dc:type
           rdf:resource="http://purl.org/dc/dcmitype/StillImage" /></cc:Work></rdf:RDF></metadata><defs
     id="defs20" /><sodipodi:namedview
     pagecolor="#ffffff"
     bordercolor="#666666"
     borderopacity="1"
     objecttolerance="10"
     gridtolerance="10"
     guidetolerance="10"
     inkscape:pageopacity="0"
     inkscape:pageshadow="2"
     inkscape:window-width="1848"
     inkscape:window-height="1009"
     id="namedview18"
     showgrid="false"
     inkscape:zoom="7.552"
     inkscape:cx="22.254943"
     inkscape:cy="43.104257"
     inkscape:window-x="1992"
     inkscape:window-y="34"
     inkscape:window-maximized="1"
     inkscape:current-layer="svg16" /><g
     id="g10"
     transform="translate(-23.867,-6.4482322)"
     style="fill:#0c834f;fill-opacity:1"><path
       d="m 237.26,225.899 c 0.31,-0.195 0.718,-0.1 0.911,0.21 0.194,0.31 0.1,0.718 -0.209,0.911 -0.032,0.021 -1.572,1.007 -2.591,2.747 -1.766,3.028 -0.829,6.501 2.708,10.038 2.379,2.379 4.776,3.584 7.128,3.584 h 0.027 c 1.914,-0.007 3.503,-0.816 4.632,-1.649 -1.02,-0.049 -1.689,-0.115 -1.804,-0.127 -0.363,-0.038 -0.627,-0.362 -0.591,-0.725 0.038,-0.365 0.363,-0.627 0.725,-0.592 0.129,0.013 12.812,1.255 16.746,-3.144 0.567,-0.639 0.92,-1.36 1.054,-2.179 0,-0.055 0.009,-0.105 0.021,-0.157 0.081,-0.618 0.042,-1.291 -0.117,-2.021 -0.266,-1.234 -0.901,-2.125 -1.942,-2.72 -3.413,-1.959 -9.801,0.024 -10.151,0.135 -0.332,0.127 -3.31,1.236 -6.482,1.44 0.255,0.686 0.541,1.671 0.566,2.705 1.769,-0.462 5.688,-1.2 8.719,0.306 0.328,0.163 0.459,0.559 0.297,0.886 -0.115,0.232 -0.35,0.368 -0.591,0.368 -0.1,0 -0.201,-0.022 -0.295,-0.07 -2.932,-1.457 -7.072,-0.429 -8.285,-0.074 -0.091,0.346 -0.227,0.682 -0.421,1.001 -0.849,1.402 -2.555,2.112 -5.067,2.112 -0.367,0 -0.662,-0.294 -0.662,-0.662 0,-0.364 0.294,-0.661 0.662,-0.661 2.018,0 3.344,-0.495 3.937,-1.476 0.799,-1.317 0.177,-3.385 -0.272,-4.413 -1.855,-0.061 -3.654,-0.525 -4.901,-1.774 -0.258,-0.257 -0.258,-0.676 0,-0.935 0.259,-0.257 0.677,-0.257 0.936,0 1.039,1.039 2.628,1.396 4.292,1.405 0.066,-0.009 0.13,-0.011 0.195,0 3.317,-0.033 6.86,-1.381 6.915,-1.402 0.01,-0.003 0.021,-0.007 0.032,-0.011 0.045,-0.016 0.253,-0.083 0.588,-0.176 -1.353,-1.262 -2.127,-2.683 -2.267,-4.181 -1.119,-0.61 -4.51,-2.686 -4.909,-5.56 -0.051,-0.363 0.202,-0.697 0.563,-0.746 0.361,-0.051 0.696,0.202 0.747,0.563 0.25,1.791 2.277,3.401 3.664,4.255 0.057,-0.319 0.142,-0.642 0.255,-0.966 0.121,-0.344 0.499,-0.525 0.845,-0.404 0.344,0.121 0.525,0.499 0.405,0.842 -0.191,0.544 -0.282,1.077 -0.271,1.587 0.034,1.859 1.356,3.296 2.554,4.222 2.443,-0.518 6.403,-0.994 9.063,0.533 0.546,0.313 1.012,0.695 1.397,1.145 3.109,-1.568 4.243,-3.871 4.254,-3.896 0.157,-0.329 0.551,-0.471 0.881,-0.314 0.328,0.155 0.471,0.548 0.315,0.877 -0.054,0.115 -1.284,2.669 -4.721,4.445 0.195,0.408 0.347,0.851 0.451,1.331 0.135,0.623 0.194,1.22 0.184,1.791 2.528,-0.08 7.134,-0.605 8.812,-3.29 1.023,-1.64 0.833,-3.938 -0.571,-6.826 -1.99,-4.094 -4.36,-6 -6.858,-5.513 -1.822,0.357 -3.393,1.908 -4.254,3.24 -0.635,0.98 -0.771,1.646 -0.734,1.799 0.104,0.349 -0.098,0.716 -0.448,0.82 -0.351,0.102 -0.719,-0.098 -0.822,-0.448 -0.144,-0.49 0.008,-1.102 0.236,-1.653 -4.886,-1.402 -5.353,-4.275 -5.372,-4.404 -0.051,-0.361 0.202,-0.697 0.563,-0.749 0.361,-0.049 0.691,0.199 0.746,0.554 0.02,0.115 0.465,2.287 4.697,3.403 0.872,-1.366 2.335,-2.868 4.136,-3.565 -3.396,-4.097 -8.619,-7.541 -15.315,-3.24 1.175,0.861 1.866,1.751 1.919,1.821 0.221,0.292 0.167,0.705 -0.125,0.928 -0.289,0.221 -0.705,0.164 -0.926,-0.125 -0.028,-0.036 -2.135,-2.728 -5.139,-2.925 -1.842,-0.119 -3.682,0.722 -5.464,2.503 -1.419,1.419 -1.982,2.748 -1.674,3.953 0.752,2.951 6.225,4.592 6.28,4.609 0.352,0.102 0.551,0.471 0.449,0.82 -0.084,0.289 -0.35,0.476 -0.634,0.476 -0.063,0 -0.125,-0.009 -0.188,-0.028 -0.253,-0.073 -6.248,-1.868 -7.188,-5.548 -0.091,-0.352 -0.129,-0.705 -0.123,-1.061 -1.974,0.609 -4.585,1.782 -5.364,3.856 -0.48,1.271 -0.209,2.787 0.797,4.512 1.111,-1.479 2.381,-2.285 2.444,-2.323 z"
       id="path2"
       inkscape:connector-curvature="0"
       style="fill:#0c834f;fill-opacity:1" /><path
       d="m 279.192,264.309 h -46.383 c -1.621,0 -2.942,1.319 -2.942,2.942 0,1.622 1.321,2.943 2.942,2.943 h 1.511 c 0,0 0.002,0 0.004,0 h 44.868 c 1.621,0 2.941,-1.321 2.941,-2.943 0,-1.622 -1.32,-2.942 -2.941,-2.942 z"
       id="path4"
       inkscape:connector-curvature="0"
       style="fill:#0c834f;fill-opacity:1" /><polygon
       points="241.399,299.496 270.758,299.496 276.992,271.517 235.157,271.517 "
       id="polygon6"
       style="fill:#0c834f;fill-opacity:1" /><path
       d="m 256,262.53 c 0.365,0 0.662,-0.297 0.662,-0.661 v -3.921 c 1.462,0.752 2.894,1.131 4.268,1.131 6.706,0 9.702,-8.75 9.827,-9.123 0.054,-0.166 0.042,-0.347 -0.036,-0.504 -0.079,-0.157 -0.216,-0.276 -0.383,-0.333 -0.104,-0.034 -2.606,-0.855 -5.559,-0.855 -3.817,0 -6.587,1.394 -8.117,4.005 v -9.358 c 0,-0.365 -0.297,-0.661 -0.662,-0.661 -0.365,0 -0.661,0.296 -0.661,0.661 v 9.358 c -1.53,-2.611 -4.3,-4.005 -8.117,-4.005 -2.953,0 -5.454,0.822 -5.561,0.855 -0.166,0.057 -0.304,0.176 -0.381,0.333 -0.08,0.157 -0.092,0.338 -0.036,0.504 0.125,0.373 3.121,9.122 9.826,9.123 0.686,0 1.388,-0.094 2.101,-0.282 0.712,-0.189 1.436,-0.473 2.167,-0.849 v 3.921 c 0.001,0.364 0.297,0.661 0.662,0.661 z"
       id="path8"
       inkscape:connector-curvature="0"
       style="fill:#0c834f;fill-opacity:1" /></g></svg>