<svg xmlns="http://www.w3.org/2000/svg" xmlns:xlink="http://www.w3.org/1999/xlink" version="1.1" x="0px" y="0px" viewBox="0 0 48 60" style="enable-background:new 0 0 48 48;" xml:space="preserve"><path d="M10.5352,10.1553c0.4443,0.3115,0.5786,0.9341,0.2778,1.3857c-0.3013,0.4517-0.8887,0.5938-1.3462,0.3047  C8.6856,11.3525,8.2003,10.2622,8.2003,9c0-1.1367,0.5229-1.9028,0.8691-2.4092l0.2104-0.3105C9.5474,5.8887,9.8004,5.5186,9.8004,5  c0-0.6934-0.2495-1.0947-0.3354-1.1553C9.0206,3.5332,8.8868,2.9106,9.1876,2.459c0.3013-0.4517,0.8887-0.5938,1.3462-0.3047  C11.315,2.6475,11.8004,3.7378,11.8004,5c0,1.1367-0.5234,1.9023-0.8696,2.4087l-0.21,0.3101  C10.4532,8.1108,10.2003,8.481,10.2003,9C10.2003,9.6934,10.4493,10.0947,10.5352,10.1553z M24.1998,9  c0-0.519,0.2529-0.8892,0.5205-1.2813l0.21-0.3101C25.2764,6.9023,25.7999,6.1367,25.7999,5c0-1.2622-0.4854-2.3525-1.2666-2.8457  c-0.4575-0.2891-1.0449-0.147-1.3462,0.3047c-0.3008,0.4517-0.167,1.0742,0.2773,1.3857C23.5504,3.9053,23.7999,4.3066,23.7999,5  c0,0.5186-0.2529,0.8887-0.5205,1.2803L23.069,6.5908C22.7227,7.0972,22.1998,7.8633,22.1998,9  c0,1.2622,0.4854,2.3525,1.2666,2.8457c0.4575,0.2891,1.0449,0.147,1.3462-0.3047c0.3008-0.4517,0.1665-1.0742-0.2778-1.3857  C24.4488,10.0947,24.1998,9.6934,24.1998,9z M38.2003,9c0-0.519,0.2529-0.8892,0.5205-1.2813l0.21-0.3101  C39.2769,6.9023,39.8004,6.1367,39.8004,5c0-1.2622-0.4854-2.3525-1.2666-2.8457c-0.4575-0.2891-1.0449-0.147-1.3462,0.3047  c-0.3008,0.4517-0.167,1.0742,0.2773,1.3857C37.5509,3.9053,37.8004,4.3066,37.8004,5c0,0.5186-0.2529,0.8887-0.5205,1.2803  l-0.2104,0.3105C36.7232,7.0972,36.2003,7.8633,36.2003,9c0,1.2622,0.4854,2.3525,1.2666,2.8457  c0.4575,0.2891,1.0449,0.147,1.3462-0.3047c0.3008-0.4517,0.1665-1.0742-0.2778-1.3857C38.4493,10.0947,38.2003,9.6934,38.2003,9z   M27.2882,7.3256c-0.2366,0.516-0.506,0.9181-0.6984,1.1997c0,0-0.303,0.4474-0.3416,0.5066  c0.8505,1.0007,0.9819,2.4876,0.2321,3.6147c-0.5605,0.845-1.4943,1.3495-2.4977,1.3495c-0.565,0-1.1158-0.161-1.5842-0.4601  c-1.3763-0.8688-2.198-2.5645-2.198-4.5359c0-0.6134,0.0999-1.1495,0.2435-1.6192c-7.6692,1.6403-13.4417,8.4652-13.4438,16.623V40  c0,1.6543,1.3457,3,3,3s3-1.3457,3-3v-3.0488c0.6304,0.5352,1.3041,1.009,2.0001,1.4442V44c0,1.1046,0.8954,2,2,2s2-0.8954,2-2  v-3.7744c1.606,0.4961,3.2866,0.7704,4.9999,0.7704c0.6958,0,1.4072-0.0469,2.1245-0.1392C26.4942,42.0952,27.6436,43,29.0001,43  c1.6543,0,3-1.3457,3-3v-1.021c1.9495-1.0393,3.6299-2.4172,5.0001-4.0335V44c0,1.1046,0.8954,2,2,2s2-0.8954,2-2V24  C41.0001,15.7513,35.0931,8.8622,27.2882,7.3256z M16.3668,25.4961c-0.1089-0.0776-0.2075-0.1646-0.2944-0.2588  c-0.9717-1.0513-2.271-1.7578-3.8618-2.1006c-0.2944-0.0635-0.6035,0.0093-0.8389,0.1997  c-0.2349,0.1895-0.3716,0.4756-0.3716,0.7778V40c0,0.5513-0.4487,1-1,1s-1-0.4487-1-1V23.9966  c0.0012-3.8872,1.5013-7.4222,3.9366-10.0894c0.4908,0.0981,1.1025,0.3804,1.4741,0.6318c0.4961,0.335,0.9038,0.7539,1.248,1.2813  c0.2339,0.3584,0.6689,0.5298,1.085,0.4224c0.4146-0.106,0.7158-0.4639,0.7495-0.8906c0.0928-1.187,1.0903-2.1167,2.2715-2.1167  c1.103,0,2.2939,0.877,2.2939,2.2939c0,0.2373-0.1377,0.853-0.1914,1.0195c-0.4932,1.479-1.8442,3.1714-3.4424,4.3115  c-0.2661,0.1895-0.4224,0.4971-0.4194,0.8232c0.0029,0.3267,0.1655,0.6313,0.4346,0.8159c0.0913,0.062,0.1802,0.1299,0.2612,0.2109  c0.3823,0.3823,0.5742,0.9111,0.5269,1.4507c-0.0479,0.5469-0.3286,1.0259-0.79,1.3481  C17.838,25.9297,16.9659,25.9233,16.3668,25.4961z M22.9133,32.3705c-0.493,1.479-2.0916,3.0776-3.5706,3.5706  s-2.2783-0.3063-1.7853-1.7853s2.0916-3.0776,3.5706-3.5706S23.4063,30.8915,22.9133,32.3705z M30.5616,37.4683  c-0.3438,0.1675-0.5615,0.5161-0.5615,0.8984V40c0,0.5513-0.4487,1-1,1s-1-0.4487-1-1v-0.2949c0-0.2979-0.1328-0.5806-0.3623-0.7705  c-0.1807-0.1494-0.4067-0.2295-0.6377-0.2295c-0.062,0-0.125,0.0059-0.187,0.0176c-0.2678,0.051-0.5323,0.0782-0.7983,0.1151  c-0.1559-0.5015-0.1128-1.0653,0.1353-1.5242c0.1758-0.3252,0.4092-0.5874,0.6929-0.7788c1.3799-0.9292,2.1675-2.5396,2.1611-4.418  c-0.0049-1.3677,0.5244-2.6523,1.4902-3.6182C31.461,27.5322,32.7457,27,34.1119,27c0.0015,0,0.0029,0,0.0044,0  c1.3682,0.001,2.6538,0.5356,3.6196,1.5049h0.0005c0.1512,0.1516,0.2806,0.3264,0.4055,0.5051  C36.8575,32.6481,34.1911,35.6966,30.5616,37.4683z M38.1851,19.9697c-0.96,1.9199-2.2231,2.2065-2.8906,2.2065  s-1.9312-0.2866-2.8916-2.2065c-0.7388-1.478-1.0566-3.5176-0.8726-5.5313c-0.7656-0.9595-1.332-1.9565-1.6479-2.9038  c-0.1666-0.5004-0.2507-0.9783-0.2695-1.4348c4.1592,1.6858,7.3981,5.1778,8.7271,9.5047  C38.2881,19.726,38.2418,19.8562,38.1851,19.9697z"/><text x="0" y="63" fill="#000000" font-size="5px" font-weight="bold" font-family="'Helvetica Neue', Helvetica, Arial-Unicode, Arial, Sans-serif">Created by Tommy Suhartomo</text><text x="0" y="68" fill="#000000" font-size="5px" font-weight="bold" font-family="'Helvetica Neue', Helvetica, Arial-Unicode, Arial, Sans-serif">from the Noun Project</text></svg>