<?xml version="1.0" encoding="UTF-8" standalone="no"?>
<svg
   xmlns:dc="http://purl.org/dc/elements/1.1/"
   xmlns:cc="http://creativecommons.org/ns#"
   xmlns:rdf="http://www.w3.org/1999/02/22-rdf-syntax-ns#"
   xmlns:svg="http://www.w3.org/2000/svg"
   xmlns="http://www.w3.org/2000/svg"
   xmlns:sodipodi="http://sodipodi.sourceforge.net/DTD/sodipodi-0.dtd"
   xmlns:inkscape="http://www.inkscape.org/namespaces/inkscape"
   data-name="Layer 1"
   viewBox="0 0 60 60"
   x="0px"
   y="0px"
   version="1.1"
   id="svg20"
   sodipodi:docname="politicians.svg"
   width="60"
   height="60"
   inkscape:version="0.92.5 (2060ec1f9f, 2020-04-08)">
  <metadata
     id="metadata26">
    <rdf:RDF>
      <cc:Work
         rdf:about="">
        <dc:format>image/svg+xml</dc:format>
        <dc:type
           rdf:resource="http://purl.org/dc/dcmitype/StillImage" />
      </cc:Work>
    </rdf:RDF>
  </metadata>
  <defs
     id="defs24" />
  <sodipodi:namedview
     pagecolor="#ffffff"
     bordercolor="#666666"
     borderopacity="1"
     objecttolerance="10"
     gridtolerance="10"
     guidetolerance="10"
     inkscape:pageopacity="0"
     inkscape:pageshadow="2"
     inkscape:window-width="1848"
     inkscape:window-height="1009"
     id="namedview22"
     showgrid="false"
     inkscape:zoom="2.95"
     inkscape:cx="30"
     inkscape:cy="22"
     inkscape:window-x="1992"
     inkscape:window-y="34"
     inkscape:window-maximized="1"
     inkscape:current-layer="svg20" />
  <title
     id="title2">political-politic-management-man-people</title>
  <path
     d="m 34,4 a 4,4 0 0 0 -8,0 c 0,2.209 1.791,8 4,8 2.209,0 4,-5.791 4,-8 z"
     id="path4"
     inkscape:connector-curvature="0"
     style="fill:#0c834f;fill-opacity:1" />
  <path
     d="m 1,14 a 2,2 0 0 0 2,2 H 6.923 L 3.071,25.628 A 0.992,0.992 0 0 0 3.007,26 H 3 c 0,0.021 0.006,0.041 0.006,0.062 0,0.021 0,0.056 0.009,0.084 a 4.987,4.987 0 0 0 9.97,0 q 0.006,-0.042 0.009,-0.084 C 12.994,26.041 13,26.021 13,26 H 12.993 A 0.992,0.992 0 0 0 12.929,25.628 L 9.077,16 H 22.915 A 4.085,4.085 0 0 1 27,20.084 v 25.265 c -3.493,0.824 -6,3.04 -6,5.651 h 18 c 0,-2.611 -2.507,-4.827 -6,-5.651 V 20.084 A 4.085,4.085 0 0 1 37.085,16 h 13.838 l -3.852,9.628 A 0.992,0.992 0 0 0 47.007,26 H 47 c 0,0.021 0.006,0.041 0.006,0.062 0,0.021 0.005,0.056 0.009,0.084 a 4.987,4.987 0 0 0 9.97,0 q 0.006,-0.042 0.009,-0.084 C 56.994,26.041 57,26.021 57,26 H 56.993 A 0.992,0.992 0 0 0 56.929,25.628 L 53.077,16 H 57 a 2,2 0 0 0 0,-4 H 3 A 2,2 0 0 0 1,14 Z M 54.523,25 H 49.477 L 52,18.692 Z m -44,0 H 5.477 L 8,18.692 Z"
     id="path6"
     inkscape:connector-curvature="0"
     style="fill:#0c834f;fill-opacity:1" />
  <path
     d="M 16,56 A 8,8 0 0 0 0,56 v 4 h 16 z"
     id="path8"
     inkscape:connector-curvature="0"
     style="fill:#0c834f;fill-opacity:1" />
  <circle
     cx="8"
     cy="44"
     r="4"
     id="circle10"
     style="fill:#0c834f;fill-opacity:1" />
  <path
     d="m 52,48 a 8,8 0 0 0 -8,8 v 4 h 16 v -4 a 8,8 0 0 0 -8,-8 z"
     id="path12"
     inkscape:connector-curvature="0"
     style="fill:#0c834f;fill-opacity:1" />
  <circle
     cx="52"
     cy="44"
     r="4"
     id="circle14"
     style="fill:#0c834f;fill-opacity:1" />
</svg>
