<?xml version="1.0" encoding="UTF-8" standalone="no"?>
<svg
   xmlns:dc="http://purl.org/dc/elements/1.1/"
   xmlns:cc="http://creativecommons.org/ns#"
   xmlns:rdf="http://www.w3.org/1999/02/22-rdf-syntax-ns#"
   xmlns:svg="http://www.w3.org/2000/svg"
   xmlns="http://www.w3.org/2000/svg"
   xmlns:sodipodi="http://sodipodi.sourceforge.net/DTD/sodipodi-0.dtd"
   xmlns:inkscape="http://www.inkscape.org/namespaces/inkscape"
   version="1.1"
   x="0px"
   y="0px"
   viewBox="0 0 244.10001 190.10001"
   xml:space="preserve"
   id="svg986"
   sodipodi:docname="report.svg"
   width="244.10001"
   height="190.10001"
   inkscape:version="0.92.5 (2060ec1f9f, 2020-04-08)"><metadata
     id="metadata992"><rdf:RDF><cc:Work
         rdf:about=""><dc:format>image/svg+xml</dc:format><dc:type
           rdf:resource="http://purl.org/dc/dcmitype/StillImage" /></cc:Work></rdf:RDF></metadata><defs
     id="defs990" /><sodipodi:namedview
     pagecolor="#ffffff"
     bordercolor="#666666"
     borderopacity="1"
     objecttolerance="10"
     gridtolerance="10"
     guidetolerance="10"
     inkscape:pageopacity="0"
     inkscape:pageshadow="2"
     inkscape:window-width="1848"
     inkscape:window-height="1009"
     id="namedview988"
     showgrid="false"
     inkscape:zoom="2.085965"
     inkscape:cx="87.405922"
     inkscape:cy="70.217226"
     inkscape:window-x="1992"
     inkscape:window-y="34"
     inkscape:window-maximized="1"
     inkscape:current-layer="svg986" /><g
     id="g980"
     transform="translate(-6,-33)"
     style="fill:#0c834f;fill-opacity:1"><path
       d="m 28,84.5 c 0,0 0,0 0,0 12.4,0 21.8,-9.5 21.9,-22 0,-5.8 -2.2,-11.3 -6.3,-15.4 -4.2,-4.2 -9.8,-6.5 -15.8,-6.5 0,0 0,0 0,0 C 22,40.6 16.6,42.9 12.5,47 8.3,51.2 6,56.8 6,62.8 6,74.9 15.7,84.5 28,84.5 Z M 19.3,53.7 c 2.3,-2.3 5.3,-3.6 8.5,-3.6 0,0 0,0 0,0 3.4,0 6.6,1.3 9,3.7 2.3,2.3 3.5,5.3 3.5,8.5 0,7.2 -5.2,12.4 -12.2,12.4 0,0 0,0 0,0 -7,0 -12.4,-5.2 -12.4,-12.2 -0.1,-3.2 1.2,-6.4 3.6,-8.8 z"
       id="path968"
       inkscape:connector-curvature="0"
       style="fill:#0c834f;fill-opacity:1" /><path
       d="m 10.2,163.1 c 0.3,16.5 9.7,25.6 26.7,25.6 0.1,0 0.2,0 0.3,0 6.1,-0.1 11.9,0 17.7,0 6.4,0 12.7,0 19.5,0 2.7,0 4.8,-2.2 4.8,-4.9 0,-2.6 -2.2,-4.8 -4.8,-4.8 0,0 0,0 -0.1,0 -6.8,0.1 -13.1,0 -19.4,0 -5.8,0 -11.6,0 -17.8,0 -12,-0.1 -17.1,-4.7 -17.3,-16.1 -0.2,-11 -1,-22.1 -1.7,-32.9 -0.3,-4.5 -0.6,-9 -0.9,-13.4 -0.4,-7.1 4.1,-12.8 10.6,-13.6 h 0.5 c 2,-0.2 4,0.2 5.8,1 3.4,1.7 5.7,5.1 6.4,9.3 0.7,4.1 1,8.4 1.3,12.9 l 0.2,2.2 c 0.1,1.3 0.2,2.7 0.3,3.8 l 1.4,29.7 4.4,0.2 c 8.1,0.4 30,1.6 34.1,2.1 3.4,0.4 4.7,1.8 5.4,5.3 2.1,11.6 4.2,23.2 6.4,34.7 0.9,4.9 1.9,9.8 2.8,14.7 0.5,2.3 2.5,3.9 4.7,3.9 0.3,0 0.6,0 0.9,-0.1 2.6,-0.5 4.3,-3 3.8,-5.7 -1,-4.9 -1.9,-9.8 -2.8,-14.7 -2.2,-11.5 -4.3,-23 -6.4,-34.6 -1.4,-7.7 -6.1,-12.2 -13.6,-13.2 -4,-0.5 -22,-1.5 -30.5,-2 l -1,-21.3 c -0.1,-1.3 -0.2,-2.6 -0.3,-4.1 l -0.1,-1.9 c -0.4,-4.7 -0.7,-9.2 -1.4,-13.7 -1.2,-7.4 -5.5,-13.4 -11.7,-16.4 -3.3,-1.6 -7.1,-2.3 -10.8,-2 -0.2,0 -0.4,0 -0.7,0.1 -11.7,1.4 -20,11.6 -19.2,23.7 0.3,4.5 0.6,9 0.9,13.5 0.7,11 1.5,21.9 1.6,32.7 z"
       id="path970"
       inkscape:connector-curvature="0"
       style="fill:#0c834f;fill-opacity:1" /><path
       d="m 228.3,40.5 c 0,0 -0.1,0 0,0 -6,0 -11.6,2.3 -15.8,6.5 -4.1,4.1 -6.3,9.6 -6.3,15.4 0.1,12.5 9.4,22 21.8,22 0,0 0,0 0,0 12.3,0 22,-9.6 22.1,-21.8 0,-6 -2.3,-11.6 -6.5,-15.8 -4.1,-4 -9.6,-6.3 -15.3,-6.3 z M 228,74.8 c 0,0 0,0 0,0 -7,0 -12.2,-5.2 -12.2,-12.4 0,-3.2 1.2,-6.2 3.5,-8.5 2.4,-2.4 5.5,-3.7 9,-3.7 0,0 0,0 0,0 3.2,0 6.2,1.3 8.5,3.6 2.4,2.4 3.7,5.6 3.7,8.9 -0.1,6.9 -5.4,12.1 -12.5,12.1 z"
       id="path972"
       inkscape:connector-curvature="0"
       style="fill:#0c834f;fill-opacity:1" /><path
       d="m 229,93.5 h -0.6 c -3.7,-0.3 -7.4,0.4 -10.7,2 -6.2,3.1 -10.5,9 -11.7,16.4 -0.7,4.5 -1.1,9 -1.4,13.7 l -0.2,2.2 c -0.1,1.3 -0.2,2.5 -0.3,4.1 l -1,21 c -8.4,0.5 -26.4,1.4 -30.5,2 -7.6,1 -12.3,5.5 -13.6,13.2 -2.1,11.5 -4.2,23.1 -6.4,34.6 -0.9,4.9 -1.9,9.8 -2.8,14.6 -0.5,2.6 1.2,5.1 3.8,5.7 0.3,0.1 0.6,0.1 0.9,0.1 2.3,0 4.3,-1.6 4.7,-3.9 1,-4.9 1.9,-9.8 2.8,-14.7 2.2,-11.6 4.4,-23.1 6.4,-34.7 0.6,-3.5 2,-4.9 5.4,-5.3 4,-0.5 26,-1.7 34.1,-2.1 l 4.4,-0.2 1.4,-29.5 c 0.1,-1.4 0.2,-2.7 0.3,-4.3 l 0.1,-1.9 c 0.3,-4.5 0.7,-8.8 1.3,-12.9 0.7,-4.3 3,-7.7 6.4,-9.3 1.8,-0.9 3.8,-1.2 6.1,-1 6.7,0.8 11.2,6.5 10.8,13.6 -0.3,4.5 -0.6,9 -0.9,13.4 -0.8,10.8 -1.5,21.9 -1.7,32.9 -0.2,11.3 -5.3,16 -17.3,16.1 -6.2,-0.1 -12,0 -17.8,0 -6.3,0 -12.6,0 -19.4,0 0,0 0,0 -0.1,0 -2.6,0 -4.8,2.1 -4.8,4.8 0,2.7 2.1,4.8 4.8,4.9 6.8,0.1 13.2,0 19.5,0 5.8,0 11.5,0 17.7,0 17.1,0.1 26.7,-9 27,-25.6 0.2,-10.8 0.9,-21.7 1.7,-32.4 0.3,-4.5 0.6,-9 0.9,-13.5 0.8,-12.4 -7.5,-22.6 -19.3,-24 z"
       id="path974"
       inkscape:connector-curvature="0"
       style="fill:#0c834f;fill-opacity:1" /><path
       d="m 96.5,46.7 c -9,0 -16.4,7.3 -16.4,16.4 0,9.1 7.3,16.4 16.4,16.4 3.7,0 7.1,-1.3 9.9,-3.4 l 9.2,9.9 c -2.6,2.9 -4.3,6.7 -4.3,11 0,9 7.3,16.4 16.4,16.4 9.1,0 16.3,-7.4 16.3,-16.4 0,-3.8 -1.4,-7.3 -3.6,-10.1 L 161.7,62 c 2.8,2.3 6.4,3.8 10.3,3.8 9,0 16.4,-7.3 16.4,-16.4 C 188.4,40.3 181,33 172,33 c -9,0 -16.4,7.3 -16.4,16.4 0,3.7 1.3,7.1 3.4,9.8 l -21.3,24.9 c -2.8,-2.2 -6.3,-3.6 -10.1,-3.6 -3.4,0 -6.6,1 -9.2,2.8 l -9.3,-10 c 2.3,-2.8 3.8,-6.4 3.8,-10.3 0,-8.9 -7.4,-16.3 -16.4,-16.3 z m 0,23.1 c -3.7,0 -6.7,-3 -6.7,-6.7 0,-3.7 3,-6.7 6.7,-6.7 3.7,0 6.7,3 6.7,6.7 0,3.7 -3,6.7 -6.7,6.7 z M 172,42.7 c 3.7,0 6.7,3 6.7,6.7 0,3.7 -3,6.7 -6.7,6.7 -3.7,0 -6.7,-3 -6.7,-6.7 0,-3.7 3,-6.7 6.7,-6.7 z m -44.4,47.6 c 3.7,0 6.7,3 6.7,6.7 0,3.7 -3,6.7 -6.7,6.7 -3.7,0 -6.7,-3 -6.7,-6.7 -0.1,-3.7 3,-6.7 6.7,-6.7 z"
       id="path976"
       inkscape:connector-curvature="0"
       style="fill:#0c834f;fill-opacity:1" /><path
       d="m 190.8,132.1 c 0,-2.7 -2.2,-4.8 -4.8,-4.8 H 71.3 c -2.7,0 -4.8,2.2 -4.8,4.8 0,2.6 2.2,4.8 4.8,4.8 h 52.5 v 81.2 c 0,2.7 2.2,4.8 4.8,4.8 2.7,0 4.8,-2.2 4.8,-4.8 V 136.9 H 186 c 2.6,0 4.8,-2.2 4.8,-4.8 z"
       id="path978"
       inkscape:connector-curvature="0"
       style="fill:#0c834f;fill-opacity:1" /></g></svg>