<?xml version="1.0" encoding="UTF-8" standalone="no"?>
<svg
   xmlns:dc="http://purl.org/dc/elements/1.1/"
   xmlns:cc="http://creativecommons.org/ns#"
   xmlns:rdf="http://www.w3.org/1999/02/22-rdf-syntax-ns#"
   xmlns:svg="http://www.w3.org/2000/svg"
   xmlns="http://www.w3.org/2000/svg"
   xmlns:sodipodi="http://sodipodi.sourceforge.net/DTD/sodipodi-0.dtd"
   xmlns:inkscape="http://www.inkscape.org/namespaces/inkscape"
   version="1.1"
   x="0px"
   y="0px"
   viewBox="0 0 58 58"
   xml:space="preserve"
   id="svg34"
   sodipodi:docname="victim.svg"
   width="58"
   height="58"
   inkscape:version="0.92.5 (2060ec1f9f, 2020-04-08)"><metadata
     id="metadata40"><rdf:RDF><cc:Work
         rdf:about=""><dc:format>image/svg+xml</dc:format><dc:type
           rdf:resource="http://purl.org/dc/dcmitype/StillImage" /></cc:Work></rdf:RDF></metadata><defs
     id="defs38" /><sodipodi:namedview
     pagecolor="#ffffff"
     bordercolor="#666666"
     borderopacity="1"
     objecttolerance="10"
     gridtolerance="10"
     guidetolerance="10"
     inkscape:pageopacity="0"
     inkscape:pageshadow="2"
     inkscape:window-width="1848"
     inkscape:window-height="1009"
     id="namedview36"
     showgrid="false"
     inkscape:zoom="3.2551724"
     inkscape:cx="29"
     inkscape:cy="21.75"
     inkscape:window-x="1992"
     inkscape:window-y="34"
     inkscape:window-maximized="1"
     inkscape:current-layer="svg34" /><g
     id="g28"
     style="fill:#0c834f;fill-opacity:1"><polygon
       points="18.199,49.598 19.682,50.586 20.93,48.505 "
       id="polygon2"
       style="fill:#0c834f;fill-opacity:1" /><path
       d="m 36,39 c 0,0.551 0.448,1 1,1 h 20 c 0.552,0 1,-0.449 1,-1 V 32 H 36 Z m 6,-4 c 0,-0.552 0.448,-1 1,-1 h 8 c 0.552,0 1,0.448 1,1 v 2 c 0,0.552 -0.448,1 -1,1 h -8 c -0.552,0 -1,-0.448 -1,-1 z"
       id="path4"
       inkscape:connector-curvature="0"
       style="fill:#0c834f;fill-opacity:1" /><path
       d="M 20.374,6 H 17.811 C 13.145,6 8.755,8.056 5.769,11.64 l -0.183,0.219 -0.27,0.09 C 2.137,13.009 0,15.973 0,19.325 c 0,1.666 0.268,3.313 0.795,4.897 L 1.407,26.06 C 1.602,26.031 1.797,26 2,26 V 24.883 C 2,22.728 3.374,20.821 5.419,20.14 L 9.177,18.887 C 8.242,17.884 7.505,16.679 7.051,15.317 L 8.947,14.684 C 10.009,17.864 12.973,20 16.324,20 h 13.567 c -0.416,-1.892 -1.987,-3.379 -3.977,-3.628 l -3.039,-0.38 0.248,-1.984 3.039,0.38 C 29.49,14.803 32,17.646 32,21 v 1 4 c 0.203,0 0.398,0.031 0.593,0.06 l 0.708,-2.124 C 33.765,22.542 34,21.093 34,19.626 34,12.113 27.888,6 20.374,6 Z"
       id="path6"
       inkscape:connector-curvature="0"
       style="fill:#0c834f;fill-opacity:1" /><path
       d="M 10.969,20.398 6.051,22.037 C 4.824,22.446 4,23.589 4,24.883 V 31 c 0,1.803 0.376,3.537 1.087,5.169 C 6.762,36.646 8,38.174 8,40 v 0.363 C 10.433,42.704 13.609,44 17,44 24.168,44 30,38.168 30,31 V 22 H 16.324 c -1.954,0 -3.8,-0.584 -5.355,-1.602 z M 13,34 h -2 v -5.807 l -2,0.75 V 32 H 7 v -2.307 l -0.648,0.243 -0.703,-1.873 8,-3 0.703,1.873 L 13,27.443 Z m 7.352,-8.937 8,3 -0.703,1.873 L 27,29.693 V 32 h -2 v -3.057 l -2,-0.75 V 34 H 21 V 27.443 L 19.648,26.936 Z M 21,36 v 2 h -1.395 c -1.923,0 -3.707,0.955 -4.773,2.555 L 13.168,39.446 C 14.605,37.288 17.013,36 19.605,36 Z"
       id="path8"
       inkscape:connector-curvature="0"
       style="fill:#0c834f;fill-opacity:1" /><path
       d="m 17,46 c -1.187,0 -2.348,-0.152 -3.473,-0.418 l -0.28,0.839 3.753,1.502 3.753,-1.501 -0.281,-0.844 C 19.356,45.844 18.197,46 17,46 Z"
       id="path10"
       inkscape:connector-curvature="0"
       style="fill:#0c834f;fill-opacity:1" /><path
       d="m 32,28 v 3 c 0,0.338 -0.029,0.668 -0.051,1 H 32 c 1.103,0 2,-0.897 2,-2 0,-1.103 -0.897,-2 -2,-2 z"
       id="path12"
       inkscape:connector-curvature="0"
       style="fill:#0c834f;fill-opacity:1" /><path
       d="M 41.267,22.2 43,23.5 V 26 h 1 v -2 h 2 v 2 h 2 v -2 h 2 v 2 h 1 v -2.5 l 1.732,-1.3 C 54.152,21.136 55,19.441 55,17.667 55,14.542 52.458,12 49.333,12 H 44.667 C 41.542,12 39,14.542 39,17.667 c 0,1.774 0.848,3.469 2.267,4.533 z M 51,16 c 1.105,0 2,0.895 2,2 0,1.105 -0.895,2 -2,2 -1.105,0 -2,-0.895 -2,-2 0,-1.105 0.895,-2 2,-2 z m -8,0 c 1.105,0 2,0.895 2,2 0,1.105 -0.895,2 -2,2 -1.105,0 -2,-0.895 -2,-2 0,-1.105 0.895,-2 2,-2 z"
       id="path14"
       inkscape:connector-curvature="0"
       style="fill:#0c834f;fill-opacity:1" /><path
       d="M 2,42 H 6 V 40 C 6,38.897 5.103,38 4,38 2.897,38 2,38.897 2,40 Z"
       id="path16"
       inkscape:connector-curvature="0"
       style="fill:#0c834f;fill-opacity:1" /><path
       d="M 2.055,32 C 2.033,31.667 2,31.337 2,31 v -3 c -1.103,0 -2,0.897 -2,2 0,1.103 0.897,2 2,2 z"
       id="path18"
       inkscape:connector-curvature="0"
       style="fill:#0c834f;fill-opacity:1" /><path
       d="M 57,0 H 37 C 36.448,0 36,0.449 36,1 V 6 H 58 V 1 C 58,0.449 57.552,0 57,0 Z M 48,4 H 42 V 2 h 6 z m 4,0 H 50 V 2 h 2 z"
       id="path20"
       inkscape:connector-curvature="0"
       style="fill:#0c834f;fill-opacity:1" /><path
       d="M 36,30 H 58 V 8 H 36 Z m 8.667,-20 h 4.666 c 4.228,0 7.667,3.439 7.667,7.667 0,2.4 -1.146,4.693 -3.067,6.134 L 53,24.5 V 26 c 0,1.103 -0.897,2 -2,2 h -8 c -1.103,0 -2,-0.897 -2,-2 V 24.5 L 40.067,23.8 C 38.146,22.36 37,20.067 37,17.667 37,13.439 40.439,10 44.667,10 Z"
       id="path22"
       inkscape:connector-curvature="0"
       style="fill:#0c834f;fill-opacity:1" /><polygon
       points="15.801,49.598 13.069,48.505 14.318,50.586 "
       id="polygon24"
       style="fill:#0c834f;fill-opacity:1" /><path
       d="M 23.478,48.146 20.318,53.414 18,51.868 V 54 h -2 v -2.132 l -2.318,1.545 -3.221,-5.368 C 9.415,48.142 8.386,48.424 7.447,48.894 L 6,49.618 V 44 H 2 v 8.757 C 2,54.545 3.454,56 5.242,56 6.109,56 6.923,55.663 7.534,55.051 L 10,52.587 V 58 h 14 v -3 h 2 v 3 h 3.913 l -0.245,-2.945 c -0.288,-3.453 -2.891,-6.253 -6.19,-6.909 z"
       id="path26"
       inkscape:connector-curvature="0"
       style="fill:#0c834f;fill-opacity:1" /></g></svg>