<svg xmlns="http://www.w3.org/2000/svg" viewBox="0 0 605.84 551.37"><defs><style>.cls-1,.cls-2,.cls-4,.cls-6{fill:none;}.cls-1,.cls-8{stroke:#000;}.cls-1{stroke-miterlimit:10;stroke-width:0.6px;}.cls-2{stroke:teal;}.cls-2,.cls-4,.cls-6{stroke-width:0.41px;}.cls-3,.cls-8{fill:teal;}.cls-4{stroke:#00d3a8;}.cls-5{fill:#00d3a8;}.cls-10,.cls-6{stroke:#ffc90f;}.cls-7{fill:#ffc90f;}.cls-10,.cls-8{stroke-width:0.83px;}.cls-9{fill:#c4c4c4;}.cls-11{isolation:isolate;font-size:10.82px;font-family:SimplonNorm, Simplon Norm;}.cls-12{letter-spacing:0em;}</style></defs><title>vis7Fichier 9</title><g id="Calque_2" data-name="Calque 2"><g id="Captures"><path class="cls-1" d="M0,.3H577.75c19.28,0,27.79,8,27.79,42.67v370.1"/></g><g id="modif"><line class="cls-2" x1="301.43" y1="483.25" x2="259.14" y2="269.32"/><polygon class="cls-3" points="259.99 270 259.16 269.44 258.61 270.27 258.49 269.68 259.05 268.86 259.87 269.41 259.99 270"/><line class="cls-4" x1="302.45" y1="488.75" x2="307.94" y2="519.83"/><polygon class="cls-5" points="307.1 519.13 307.91 519.71 308.48 518.89 308.59 519.48 308.02 520.29 307.2 519.72 307.1 519.13"/><line class="cls-2" x1="302.11" y1="483.21" x2="306.7" y2="393.92"/><polygon class="cls-3" points="307.36 394.78 306.69 394.04 305.96 394.71 305.99 394.11 306.73 393.45 307.39 394.18 307.36 394.78"/><line class="cls-2" x1="300.23" y1="483.81" x2="216.79" y2="378.76"/><polygon class="cls-3" points="217.86 378.96 216.87 378.85 216.76 379.84 216.39 379.37 216.5 378.38 217.49 378.5 217.86 378.96"/><line class="cls-2" x1="303.77" y1="483.86" x2="389.89" y2="382.08"/><polygon class="cls-3" points="389.89 383.17 389.81 382.18 388.82 382.26 389.2 381.81 390.19 381.72 390.27 382.71 389.89 383.17"/><line class="cls-2" x1="301.41" y1="483.26" x2="271.39" y2="337.46"/><polygon class="cls-3" points="272.25 338.12 271.42 337.58 270.87 338.41 270.75 337.82 271.3 336.99 272.13 337.54 272.25 338.12"/><line class="cls-2" x1="301" y1="483.38" x2="281.05" y2="429.53"/><polygon class="cls-3" points="282 430.06 281.09 429.64 280.68 430.54 280.47 429.98 280.88 429.08 281.79 429.5 282 430.06"/><line class="cls-2" x1="300.86" y1="483.43" x2="255.39" y2="378.14"/><polygon class="cls-3" points="256.36 378.62 255.44 378.25 255.07 379.18 254.84 378.63 255.2 377.7 256.13 378.07 256.36 378.62"/><line class="cls-4" x1="302.82" y1="488.66" x2="319.89" y2="542"/><polygon class="cls-5" points="318.97 541.43 319.85 541.89 320.31 541 320.49 541.57 320.03 542.45 319.15 542 318.97 541.43"/><line class="cls-2" x1="302.71" y1="483.3" x2="371.9" y2="232.09"/><polygon class="cls-3" points="372.36 233.07 371.87 232.21 371.01 232.7 371.17 232.12 372.03 231.63 372.52 232.5 372.36 233.07"/><line class="cls-2" x1="304.07" y1="484.15" x2="369.51" y2="426.6"/><polygon class="cls-3" points="369.35 427.67 369.41 426.68 368.42 426.61 368.87 426.22 369.86 426.28 369.8 427.27 369.35 427.67"/><line class="cls-2" x1="304.2" y1="484.32" x2="517.48" y2="324.19"/><polygon class="cls-3" points="517.25 325.25 517.39 324.26 516.4 324.12 516.88 323.77 517.86 323.91 517.72 324.89 517.25 325.25"/><line class="cls-2" x1="302.09" y1="483.2" x2="312.44" y2="249.39"/><polygon class="cls-3" points="313.11 250.24 312.44 249.51 311.7 250.18 311.73 249.58 312.46 248.91 313.13 249.65 313.11 250.24"/><line class="cls-2" x1="299.65" y1="484.44" x2="262.04" y2="459.17"/><polygon class="cls-3" points="263.12 459.05 262.14 459.24 262.33 460.21 261.84 459.88 261.65 458.91 262.62 458.72 263.12 459.05"/><line class="cls-4" x1="301.24" y1="488.7" x2="289.72" y2="531.36"/><polygon class="cls-5" points="289.26 530.38 289.75 531.25 290.61 530.75 290.46 531.33 289.6 531.82 289.1 530.96 289.26 530.38"/><line class="cls-2" x1="299.99" y1="484.02" x2="243.21" y2="427.24"/><polygon class="cls-3" points="244.29 427.32 243.29 427.32 243.29 428.32 242.87 427.9 242.87 426.9 243.87 426.9 244.29 427.32"/><line class="cls-4" x1="303.92" y1="488" x2="329.55" y2="514.25"/><polygon class="cls-5" points="328.48 514.15 329.47 514.16 329.48 513.17 329.9 513.6 329.88 514.59 328.89 514.58 328.48 514.15"/><line class="cls-2" x1="302.72" y1="483.3" x2="356.07" y2="292.29"/><polygon class="cls-3" points="356.52 293.27 356.04 292.4 355.17 292.89 355.33 292.32 356.2 291.83 356.68 292.69 356.52 293.27"/><line class="cls-2" x1="300.09" y1="483.92" x2="174.75" y2="345.23"/><polygon class="cls-3" points="175.83 345.37 174.84 345.32 174.79 346.31 174.39 345.87 174.44 344.88 175.43 344.93 175.83 345.37"/><line class="cls-2" x1="299.32" y1="486.88" x2="244.43" y2="505.17"/><polygon class="cls-3" points="244.99 504.24 244.54 505.13 245.43 505.57 244.87 505.76 243.98 505.32 244.42 504.43 244.99 504.24"/><line class="cls-2" x1="119.46" y1="365.67" x2="298.81" y2="241.84"/><polygon class="cls-3" points="298.53 242.89 298.71 241.91 297.73 241.74 298.22 241.4 299.2 241.57 299.02 242.55 298.53 242.89"/><line class="cls-2" x1="119.58" y1="365.85" x2="362.79" y2="225.05"/><polygon class="cls-3" points="362.43 226.07 362.68 225.12 361.72 224.86 362.24 224.56 363.2 224.82 362.94 225.78 362.43 226.07"/><line class="cls-2" x1="118.07" y1="364.61" x2="142.78" y2="292.9"/><polygon class="cls-3" points="143.18 293.91 142.74 293.02 141.85 293.45 142.04 292.89 142.94 292.46 143.37 293.35 143.18 293.91"/><line class="cls-2" x1="119.31" y1="365.48" x2="199.93" y2="298.98"/><polygon class="cls-3" points="199.75 300.05 199.84 299.06 198.85 298.97 199.31 298.59 200.3 298.68 200.21 299.67 199.75 300.05"/><line class="cls-4" x1="114.36" y1="367.23" x2="89.4" y2="353.09"/><polygon class="cls-5" points="90.47 352.89 89.51 353.15 89.77 354.11 89.25 353.81 88.99 352.86 89.95 352.59 90.47 352.89"/><line class="cls-4" x1="115.2" y1="369.25" x2="76.74" y2="408.36"/><polygon class="cls-5" points="76.82 407.28 76.83 408.27 77.82 408.26 77.4 408.69 76.41 408.7 76.4 407.7 76.82 407.28"/><line class="cls-2" x1="119.88" y1="366.62" x2="312.12" y2="322.06"/><polygon class="cls-3" points="311.48 322.93 312 322.08 311.16 321.56 311.74 321.43 312.58 321.95 312.06 322.79 311.48 322.93"/><line class="cls-2" x1="119.83" y1="366.44" x2="252.45" y2="326.19"/><polygon class="cls-3" points="251.87 327.11 252.34 326.23 251.46 325.76 252.03 325.59 252.91 326.06 252.44 326.93 251.87 327.11"/><line class="cls-2" x1="119.95" y1="367.32" x2="197.78" y2="369.28"/><polygon class="cls-3" points="196.94 369.96 197.66 369.28 196.97 368.56 197.57 368.57 198.25 369.29 197.53 369.98 196.94 369.96"/><line class="cls-2" x1="119.31" y1="365.47" x2="242.28" y2="263.34"/><polygon class="cls-3" points="242.09 264.4 242.19 263.41 241.2 263.32 241.66 262.94 242.64 263.03 242.55 264.02 242.09 264.4"/><line class="cls-2" x1="119.81" y1="366.36" x2="217.51" y2="333.53"/><polygon class="cls-3" points="216.96 334.45 217.4 333.56 216.51 333.12 217.07 332.93 217.96 333.38 217.52 334.26 216.96 334.45"/><line class="cls-2" x1="119.95" y1="367.41" x2="291.22" y2="376.71"/><polygon class="cls-3" points="290.36 377.36 291.1 376.7 290.43 375.96 291.03 375.99 291.69 376.73 290.95 377.4 290.36 377.36"/><line class="cls-4" x1="114.84" y1="368.83" x2="87.61" y2="387.32"/><polygon class="cls-5" points="87.9 386.28 87.71 387.25 88.69 387.44 88.2 387.78 87.22 387.59 87.41 386.61 87.9 386.28"/><line class="cls-2" x1="118.92" y1="365.09" x2="261.59" y2="189.71"/><polygon class="cls-3" points="261.61 190.79 261.51 189.8 260.52 189.9 260.9 189.44 261.89 189.34 261.99 190.33 261.61 190.79"/><line class="cls-2" x1="117.14" y1="364.46" x2="116.75" y2="314.09"/><polygon class="cls-3" points="117.45 314.9 116.75 314.21 116.05 314.92 116.05 314.32 116.74 313.61 117.45 314.31 117.45 314.9"/><line class="cls-2" x1="115.3" y1="365.16" x2="67.08" y2="310.78"/><polygon class="cls-3" points="68.16 310.93 67.16 310.87 67.11 311.86 66.71 311.42 66.77 310.43 67.76 310.48 68.16 310.93"/><line class="cls-2" x1="118.68" y1="364.91" x2="210.71" y2="223.64"/><polygon class="cls-3" points="210.85 224.72 210.64 223.75 209.67 223.95 210 223.45 210.97 223.25 211.17 224.22 210.85 224.72"/><line class="cls-4" x1="114.36" y1="367.17" x2="68.03" y2="355.1"/><polygon class="cls-5" points="69.01 354.63 68.15 355.13 68.65 355.98 68.08 355.83 67.57 354.98 68.43 354.48 69.01 354.63"/><line class="cls-4" x1="116.17" y1="369.87" x2="104.13" y2="401.96"/><polygon class="cls-5" points="103.76 400.94 104.17 401.84 105.08 401.43 104.87 401.99 103.97 402.4 103.55 401.5 103.76 400.94"/><line class="cls-4" x1="114.53" y1="368.2" x2="57.23" y2="388.74"/><polygon class="cls-5" points="57.77 387.8 57.34 388.69 58.24 389.12 57.68 389.32 56.78 388.9 57.21 388 57.77 387.8"/><line class="cls-2" x1="156.49" y1="148.38" x2="297.77" y2="223.67"/><polygon class="cls-3" points="296.71 223.9 297.66 223.61 297.37 222.66 297.9 222.94 298.19 223.89 297.24 224.18 296.71 223.9"/><line class="cls-2" x1="156.69" y1="147.91" x2="361.46" y2="212.85"/><polygon class="cls-3" points="360.46 213.27 361.34 212.81 360.88 211.93 361.45 212.11 361.91 212.99 361.03 213.45 360.46 213.27"/><line class="cls-2" x1="156.39" y1="148.55" x2="346.62" y2="267.86"/><polygon class="cls-3" points="345.55 268.01 346.51 267.79 346.29 266.82 346.8 267.14 347.02 268.11 346.05 268.33 345.55 268.01"/><line class="cls-2" x1="155.57" y1="149.39" x2="298.48" y2="363.99"/><polygon class="cls-3" points="297.44 363.69 298.41 363.88 298.61 362.91 298.94 363.41 298.74 364.38 297.77 364.19 297.44 363.69"/><line class="cls-2" x1="156.01" y1="149.04" x2="316.14" y2="307.93"/><polygon class="cls-3" points="315.06 307.84 316.05 307.84 316.05 306.85 316.47 307.27 316.48 308.26 315.48 308.26 315.06 307.84"/><line class="cls-2" x1="153.86" y1="149.86" x2="146.41" y2="274.6"/><polygon class="cls-3" points="145.76 273.74 146.42 274.48 147.16 273.82 147.13 274.42 146.38 275.08 145.72 274.33 145.76 273.74"/><line class="cls-2" x1="155.06" y1="149.67" x2="205.59" y2="277"/><polygon class="cls-3" points="204.63 276.5 205.54 276.89 205.94 275.98 206.16 276.53 205.76 277.44 204.85 277.05 204.63 276.5"/><line class="cls-2" x1="155.56" y1="149.41" x2="259.15" y2="307.77"/><polygon class="cls-3" points="258.11 307.46 259.08 307.66 259.28 306.69 259.61 307.19 259.41 308.16 258.43 307.96 258.11 307.46"/><line class="cls-2" x1="155.15" y1="149.63" x2="249.72" y2="365.11"/><polygon class="cls-3" points="248.74 364.64 249.67 365 250.03 364.07 250.27 364.62 249.91 365.55 248.98 365.18 248.74 364.64"/><line class="cls-2" x1="156.73" y1="147.78" x2="256.48" y2="174.05"/><polygon class="cls-3" points="255.51 174.52 256.37 174.02 255.87 173.16 256.44 173.31 256.94 174.17 256.08 174.67 255.51 174.52"/><line class="cls-4" x1="151.65" y1="145.59" x2="117.32" y2="124.22"/><polygon class="cls-5" points="118.39 124.06 117.43 124.29 117.65 125.26 117.15 124.94 116.92 123.97 117.89 123.75 118.39 124.06"/><line class="cls-2" x1="156.09" y1="148.96" x2="291.76" y2="273.3"/><polygon class="cls-3" points="290.68 273.26 291.67 273.22 291.63 272.23 292.07 272.63 292.11 273.62 291.12 273.67 290.68 273.26"/><line class="cls-2" x1="154.7" y1="149.78" x2="206.66" y2="358.2"/><polygon class="cls-3" points="205.78 357.56 206.63 358.08 207.15 357.23 207.29 357.8 206.78 358.65 205.93 358.14 205.78 357.56"/><line class="cls-2" x1="154.42" y1="149.83" x2="164.17" y2="218.7"/><polygon class="cls-3" points="163.36 217.99 164.16 218.58 164.75 217.79 164.84 218.38 164.24 219.17 163.44 218.58 163.36 217.99"/><line class="cls-2" x1="155.97" y1="149.08" x2="243.57" y2="239.58"/><polygon class="cls-3" points="242.49 239.47 243.49 239.49 243.5 238.5 243.92 238.92 243.9 239.92 242.91 239.9 242.49 239.47"/><line class="cls-2" x1="155.18" y1="149.61" x2="275.66" y2="416.39"/><polygon class="cls-3" points="274.68 415.93 275.61 416.28 275.96 415.35 276.2 415.89 275.85 416.82 274.92 416.47 274.68 415.93"/><line class="cls-2" x1="156.31" y1="148.67" x2="402.21" y2="320.88"/><polygon class="cls-3" points="401.13 320.98 402.11 320.81 401.94 319.83 402.42 320.17 402.6 321.15 401.62 321.32 401.13 320.98"/><line class="cls-4" x1="152.73" y1="144.59" x2="134.03" y2="108.74"/><polygon class="cls-5" points="135.04 109.14 134.09 108.84 133.79 109.79 133.51 109.26 133.81 108.31 134.76 108.61 135.04 109.14"/><line class="cls-2" x1="156.14" y1="148.89" x2="184.61" y2="173.39"/><polygon class="cls-3" points="183.53 173.38 184.52 173.31 184.44 172.32 184.89 172.71 184.97 173.69 183.98 173.77 183.53 173.38"/><line class="cls-2" x1="153.38" y1="149.79" x2="118.84" y2="295.51"/><polygon class="cls-3" points="118.35 294.54 118.87 295.39 119.72 294.87 119.58 295.45 118.73 295.97 118.21 295.12 118.35 294.54"/><line class="cls-2" x1="190.52" y1="452.73" x2="250.33" y2="268.8"/><polygon class="cls-3" points="250.74 269.8 250.29 268.91 249.41 269.37 249.59 268.8 250.48 268.35 250.93 269.23 250.74 269.8"/><line class="cls-2" x1="191.01" y1="452.94" x2="304.75" y2="247.22"/><polygon class="cls-3" points="304.96 248.28 304.69 247.32 303.73 247.6 304.02 247.08 304.98 246.8 305.25 247.76 304.96 248.28"/><line class="cls-2" x1="190.29" y1="452.66" x2="206.86" y2="381"/><polygon class="cls-3" points="207.36 381.96 206.83 381.12 205.99 381.64 206.12 381.06 206.97 380.54 207.49 381.38 207.36 381.96"/><line class="cls-2" x1="191.55" y1="457.44" x2="232.87" y2="502.19"/><polygon class="cls-3" points="231.79 502.06 232.78 502.1 232.82 501.11 233.23 501.55 233.19 502.54 232.19 502.5 231.79 502.06"/><line class="cls-2" x1="190.75" y1="452.81" x2="314.93" y2="161.18"/><polygon class="cls-3" points="315.25 162.21 314.88 161.29 313.96 161.66 314.19 161.11 315.12 160.74 315.49 161.66 315.25 162.21"/><line class="cls-2" x1="191.07" y1="452.97" x2="259.83" y2="335.55"/><polygon class="cls-3" points="260.02 336.62 259.77 335.66 258.81 335.91 259.11 335.39 260.07 335.14 260.32 336.1 260.02 336.62"/><line class="cls-2" x1="191.64" y1="453.41" x2="316.16" y2="329.35"/><polygon class="cls-3" points="316.07 330.43 316.07 329.44 315.08 329.43 315.5 329.01 316.5 329.01 316.49 330.01 316.07 330.43"/><line class="cls-4" x1="188.95" y1="458.09" x2="180.46" y2="490.68"/><polygon class="cls-5" points="179.99 489.71 180.49 490.56 181.34 490.06 181.19 490.64 180.34 491.14 179.84 490.29 179.99 489.71"/><line class="cls-2" x1="189.36" y1="452.6" x2="165.92" y2="232.8"/><polygon class="cls-3" points="166.71 233.55 165.94 232.93 165.31 233.7 165.25 233.1 165.87 232.33 166.65 232.96 166.71 233.55"/><line class="cls-2" x1="191.59" y1="453.36" x2="349.18" y2="288.36"/><polygon class="cls-3" points="349.11 289.44 349.09 288.45 348.1 288.47 348.51 288.04 349.5 288.02 349.53 289.01 349.11 289.44"/><line class="cls-2" x1="188.96" y1="452.68" x2="148.18" y2="293.12"/><polygon class="cls-3" points="149.07 293.75 148.21 293.24 147.71 294.1 147.56 293.52 148.06 292.67 148.92 293.17 149.07 293.75"/><line class="cls-2" x1="190.01" y1="452.61" x2="208.99" y2="303.97"/><polygon class="cls-3" points="209.58 304.88 208.97 304.1 208.19 304.7 208.26 304.11 209.05 303.5 209.65 304.29 209.58 304.88"/><line class="cls-4" x1="188.69" y1="458.01" x2="169.16" y2="510.95"/><polygon class="cls-5" points="168.78 509.93 169.2 510.84 170.1 510.42 169.9 510.98 168.99 511.4 168.58 510.49 168.78 509.93"/><line class="cls-2" x1="192.04" y1="453.92" x2="353.15" y2="355.09"/><polygon class="cls-3" points="352.82 356.12 353.05 355.16 352.08 354.93 352.59 354.62 353.56 354.85 353.32 355.81 352.82 356.12"/><line class="cls-2" x1="191.99" y1="453.84" x2="293.9" y2="386.6"/><polygon class="cls-3" points="293.6 387.64 293.8 386.66 292.82 386.46 293.32 386.14 294.29 386.34 294.09 387.31 293.6 387.64"/><line class="cls-2" x1="192.08" y1="453.99" x2="401.65" y2="333.45"/><polygon class="cls-3" points="401.28 334.47 401.54 333.51 400.58 333.25 401.1 332.95 402.06 333.21 401.8 334.17 401.28 334.47"/><line class="cls-2" x1="191.18" y1="453.04" x2="294.45" y2="294.55"/><polygon class="cls-3" points="294.59 295.62 294.38 294.65 293.41 294.86 293.74 294.36 294.71 294.15 294.91 295.12 294.59 295.62"/><line class="cls-4" x1="187.66" y1="457.34" x2="150.49" y2="493.82"/><polygon class="cls-5" points="150.58 492.74 150.57 493.73 151.57 493.74 151.14 494.16 150.15 494.15 150.16 493.16 150.58 492.74"/><line class="cls-2" x1="191.93" y1="453.76" x2="230.64" y2="426.19"/><polygon class="cls-3" points="230.37 427.24 230.54 426.26 229.56 426.1 230.04 425.75 231.02 425.92 230.86 426.89 230.37 427.24"/><line class="cls-4" x1="187.18" y1="456.67" x2="157.62" y2="472.04"/><polygon class="cls-5" points="158.03 471.04 157.73 471.99 158.68 472.28 158.15 472.56 157.2 472.26 157.5 471.31 158.03 471.04"/><line class="cls-2" x1="103.63" y1="253.56" x2="295.81" y2="233.7"/><polygon class="cls-3" points="295.06 234.48 295.68 233.71 294.91 233.09 295.5 233.03 296.28 233.65 295.65 234.42 295.06 234.48"/><line class="cls-2" x1="102.56" y1="256.07" x2="251.81" y2="449.58"/><polygon class="cls-3" points="250.75 449.36 251.73 449.49 251.86 448.5 252.22 448.97 252.09 449.96 251.11 449.83 250.75 449.36"/><line class="cls-2" x1="103.51" y1="254.73" x2="197.43" y2="285.66"/><polygon class="cls-3" points="196.43 286.07 197.31 285.62 196.87 284.74 197.43 284.92 197.88 285.81 196.99 286.26 196.43 286.07"/><line class="cls-2" x1="103.62" y1="253.48" x2="360.88" y2="219.44"/><polygon class="cls-3" points="360.15 220.24 360.76 219.45 359.97 218.85 360.56 218.77 361.35 219.37 360.74 220.16 360.15 220.24"/><line class="cls-2" x1="103.17" y1="255.41" x2="138.03" y2="278.76"/><polygon class="cls-3" points="136.95 278.89 137.93 278.69 137.73 277.72 138.23 278.05 138.42 279.02 137.45 279.22 136.95 278.89"/><line class="cls-2" x1="103.54" y1="254.62" x2="312.32" y2="314.44"/><polygon class="cls-3" points="311.33 314.89 312.2 314.41 311.72 313.54 312.29 313.7 312.77 314.57 311.9 315.05 311.33 314.89"/><line class="cls-2" x1="103.65" y1="253.82" x2="238.24" y2="252.35"/><polygon class="cls-3" points="237.43 253.06 238.12 252.35 237.41 251.65 238.01 251.65 238.72 252.34 238.02 253.05 237.43 253.06"/><line class="cls-4" x1="98.1" y1="253.33" x2="52.07" y2="244.64"/><polygon class="cls-5" points="53.01 244.11 52.19 244.67 52.75 245.49 52.16 245.38 51.6 244.56 52.42 244 53.01 244.11"/><line class="cls-2" x1="103.25" y1="255.29" x2="293.52" y2="369.2"/><polygon class="cls-3" points="292.45 369.38 293.41 369.13 293.17 368.17 293.68 368.48 293.92 369.44 292.96 369.68 292.45 369.38"/><line class="cls-2" x1="101.69" y1="251.19" x2="117.56" y2="200.96"/><polygon class="cls-3" points="117.98 201.96 117.53 201.08 116.64 201.54 116.82 200.97 117.7 200.51 118.16 201.39 117.98 201.96"/><line class="cls-2" x1="102.6" y1="256.03" x2="165.54" y2="334.42"/><polygon class="cls-3" points="164.48 334.22 165.47 334.33 165.57 333.34 165.95 333.8 165.84 334.79 164.85 334.68 164.48 334.22"/><line class="cls-2" x1="103.41" y1="252.71" x2="257.3" y2="184.11"/><polygon class="cls-3" points="256.83 185.08 257.19 184.16 256.26 183.8 256.81 183.56 257.73 183.91 257.38 184.84 256.83 185.08"/><line class="cls-2" x1="99.18" y1="256.09" x2="66.62" y2="299.77"/><polygon class="cls-3" points="66.55 298.69 66.69 299.67 67.67 299.53 67.32 300 66.33 300.15 66.19 299.16 66.55 298.69"/><line class="cls-2" x1="101.68" y1="256.52" x2="113.87" y2="295.68"/><polygon class="cls-3" points="112.96 295.1 113.84 295.56 114.3 294.68 114.48 295.25 114.02 296.13 113.14 295.67 112.96 295.1"/><line class="cls-2" x1="103.64" y1="254.1" x2="344.18" y2="275.12"/><polygon class="cls-3" points="343.3 275.75 344.06 275.11 343.42 274.35 344.01 274.4 344.65 275.16 343.89 275.8 343.3 275.75"/><line class="cls-2" x1="103.44" y1="254.9" x2="252.94" y2="315.32"/><polygon class="cls-3" points="251.91 315.66 252.83 315.27 252.44 314.36 252.99 314.58 253.38 315.5 252.47 315.88 251.91 315.66"/><line class="cls-2" x1="103.48" y1="254.81" x2="352.24" y2="345.93"/><polygon class="cls-3" points="351.22 346.31 352.12 345.89 351.7 344.99 352.26 345.19 352.68 346.09 351.78 346.51 351.22 346.31"/><line class="cls-4" x1="98.64" y1="252.14" x2="65.65" y2="226.69"/><polygon class="cls-5" points="66.73 226.64 65.75 226.77 65.87 227.75 65.4 227.39 65.27 226.4 66.26 226.28 66.73 226.64"/><line class="cls-2" x1="103.02" y1="252.08" x2="184.46" y2="185.49"/><polygon class="cls-3" points="184.26 186.55 184.36 185.56 183.37 185.47 183.84 185.09 184.82 185.19 184.72 186.18 184.26 186.55"/><line class="cls-2" x1="103.62" y1="254.25" x2="288.22" y2="280.79"/><polygon class="cls-3" points="287.3 281.37 288.1 280.77 287.5 279.98 288.09 280.06 288.69 280.86 287.89 281.45 287.3 281.37"/><line class="cls-6" x1="242.96" y1="92.35" x2="254.35" y2="234.71"/><polygon class="cls-7" points="253.58 233.94 254.34 234.59 254.98 233.83 255.03 234.42 254.39 235.18 253.63 234.53 253.58 233.94"/><line class="cls-6" x1="244.63" y1="91.63" x2="450.64" y2="317.52"/><polygon class="cls-7" points="449.57 317.38 450.56 317.43 450.61 316.44 451.01 316.88 450.96 317.87 449.97 317.82 449.57 317.38"/><line class="cls-6" x1="245.05" y1="91.14" x2="286.04" y2="118.94"/><polygon class="cls-7" points="284.96 119.06 285.94 118.87 285.75 117.89 286.24 118.23 286.43 119.2 285.45 119.39 284.96 119.06"/><line class="cls-6" x1="242.7" y1="92.36" x2="237.5" y2="413.14"/><polygon class="cls-7" points="236.81 412.3 237.5 413.01 238.22 412.32 238.21 412.92 237.49 413.61 236.8 412.9 236.81 412.3"/><line class="cls-6" x1="243.36" y1="92.29" x2="303.95" y2="361.64"/><polygon class="cls-7" points="303.09 360.99 303.93 361.52 304.46 360.69 304.59 361.27 304.06 362.11 303.22 361.58 303.09 360.99"/><line class="cls-6" x1="244.06" y1="92.03" x2="391.34" y2="368.49"/><polygon class="cls-7" points="390.33 368.09 391.28 368.38 391.57 367.43 391.85 367.96 391.56 368.91 390.61 368.62 390.33 368.09"/><line class="cls-6" x1="244.59" y1="91.66" x2="408.05" y2="276.36"/><polygon class="cls-7" points="406.98 276.21 407.97 276.27 408.03 275.27 408.43 275.72 408.37 276.71 407.37 276.65 406.98 276.21"/><line class="cls-4" x1="241.04" y1="87.35" x2="217.81" y2="56.98"/><polygon class="cls-5" points="218.87 57.2 217.88 57.07 217.75 58.06 217.39 57.58 217.52 56.6 218.5 56.73 218.87 57.2"/><line class="cls-6" x1="244.74" y1="91.52" x2="403.81" y2="246.89"/><polygon class="cls-7" points="402.73 246.81 403.72 246.8 403.71 245.81 404.14 246.22 404.15 247.22 403.15 247.23 402.73 246.81"/><line class="cls-6" x1="243.05" y1="92.35" x2="266.32" y2="305.2"/><polygon class="cls-7" points="265.53 304.45 266.31 305.07 266.93 304.3 266.99 304.89 266.37 305.67 265.6 305.04 265.53 304.45"/><line class="cls-6" x1="242.41" y1="92.34" x2="210.88" y2="357.93"/><polygon class="cls-7" points="210.28 357.03 210.9 357.81 211.68 357.19 211.61 357.79 210.83 358.4 210.21 357.62 210.28 357.03"/><line class="cls-6" x1="241.36" y1="92" x2="196.39" y2="171.34"/><polygon class="cls-7" points="196.19 170.27 196.45 171.23 197.41 170.97 197.11 171.48 196.16 171.75 195.89 170.79 196.19 170.27"/><line class="cls-6" x1="243.98" y1="92.07" x2="305.45" y2="216.22"/><polygon class="cls-7" points="304.45 215.79 305.39 216.11 305.71 215.16 305.98 215.7 305.66 216.64 304.72 216.32 304.45 215.79"/><line class="cls-6" x1="244.91" y1="91.33" x2="337.8" y2="166.78"/><polygon class="cls-7" points="336.71 166.81 337.7 166.71 337.6 165.72 338.06 166.09 338.16 167.08 337.18 167.18 336.71 166.81"/><line class="cls-6" x1="243.79" y1="92.16" x2="373.04" y2="411.65"/><polygon class="cls-7" points="372.08 411.15 373 411.54 373.38 410.62 373.61 411.18 373.22 412.09 372.31 411.7 372.08 411.15"/><line class="cls-6" x1="243.6" y1="92.23" x2="266.52" y2="163.46"/><polygon class="cls-7" points="265.6 162.89 266.48 163.34 266.94 162.46 267.12 163.03 266.67 163.91 265.78 163.46 265.6 162.89"/><line class="cls-6" x1="244.23" y1="91.93" x2="351.76" y2="262.71"/><polygon class="cls-7" points="350.72 262.38 351.69 262.6 351.91 261.63 352.23 262.14 352.01 263.11 351.04 262.89 350.72 262.38"/><line class="cls-6" x1="244.87" y1="91.38" x2="311.87" y2="148.23"/><polygon class="cls-7" points="310.79 148.24 311.77 148.16 311.69 147.16 312.15 147.55 312.23 148.54 311.24 148.62 310.79 148.24"/><line class="cls-4" x1="242.42" y1="86.79" x2="237.87" y2="46.88"/><polygon class="cls-5" points="238.66 47.62 237.88 47 237.26 47.77 237.19 47.18 237.81 46.41 238.59 47.02 238.66 47.62"/><line class="cls-6" x1="245.28" y1="88.4" x2="291.86" y2="66.95"/><polygon class="cls-7" points="291.4 67.94 291.75 67 290.82 66.66 291.36 66.41 292.29 66.75 291.95 67.69 291.4 67.94"/><line class="cls-6" x1="485.67" y1="365.3" x2="271.45" y2="259.88"/><polygon class="cls-7" points="272.5 259.62 271.56 259.94 271.88 260.88 271.34 260.61 271.02 259.67 271.96 259.35 272.5 259.62"/><line class="cls-6" x1="486.5" y1="364.29" x2="459.69" y2="328.46"/><polygon class="cls-7" points="460.74 328.7 459.76 328.56 459.62 329.54 459.26 329.06 459.4 328.08 460.39 328.22 460.74 328.7"/><line class="cls-6" x1="486.42" y1="364.35" x2="296.38" y2="128.46"/><polygon class="cls-7" points="297.44 128.66 296.45 128.56 296.35 129.54 295.97 129.08 296.08 128.09 297.07 128.2 297.44 128.66"/><line class="cls-6" x1="486.49" y1="364.3" x2="385.07" y2="229.58"/><polygon class="cls-7" points="386.13 229.82 385.15 229.68 385.01 230.66 384.65 230.19 384.79 229.2 385.77 229.34 386.13 229.82"/><line class="cls-6" x1="487.92" y1="363.75" x2="474.78" y2="222.98"/><polygon class="cls-7" points="475.56 223.74 474.79 223.1 474.16 223.87 474.1 223.27 474.74 222.51 475.5 223.14 475.56 223.74"/><line class="cls-6" x1="485.5" y1="365.73" x2="341.49" y2="322.95"/><polygon class="cls-7" points="342.48 322.51 341.6 322.99 342.08 323.86 341.5 323.69 341.03 322.82 341.9 322.34 342.48 322.51"/><line class="cls-6" x1="485.68" y1="365.26" x2="422.26" y2="332.93"/><polygon class="cls-7" points="423.31 332.68 422.37 332.98 422.68 333.93 422.14 333.66 421.84 332.71 422.78 332.41 423.31 332.68"/><line class="cls-6" x1="485.44" y1="365.97" x2="284.11" y2="324.73"/><polygon class="cls-7" points="285.06 324.2 284.23 324.75 284.78 325.58 284.19 325.46 283.65 324.63 284.48 324.08 285.06 324.2"/><line class="cls-6" x1="485.48" y1="365.79" x2="224.3" y2="293.78"/><polygon class="cls-7" points="225.28 293.32 224.41 293.81 224.9 294.68 224.33 294.52 223.84 293.66 224.7 293.17 225.28 293.32"/><line class="cls-6" x1="485.38" y1="366.56" x2="221.23" y2="369.45"/><polygon class="cls-7" points="222.04 368.73 221.35 369.44 222.06 370.14 221.46 370.14 220.75 369.45 221.45 368.74 222.04 368.73"/><line class="cls-6" x1="486.32" y1="364.44" x2="417.48" y2="286.99"/><polygon class="cls-7" points="418.55 287.14 417.56 287.08 417.5 288.07 417.11 287.63 417.17 286.63 418.16 286.69 418.55 287.14"/><line class="cls-6" x1="486.59" y1="364.23" x2="412.93" y2="257.69"/><polygon class="cls-7" points="413.98 257.97 413 257.79 412.82 258.77 412.48 258.28 412.66 257.3 413.64 257.48 413.98 257.97"/><line class="cls-6" x1="485.96" y1="364.82" x2="327.09" y2="242.57"/><polygon class="cls-7" points="328.17 242.52 327.18 242.65 327.31 243.63 326.84 243.27 326.71 242.29 327.69 242.16 328.17 242.52"/><line class="cls-6" x1="486.51" y1="364.28" x2="347.54" y2="176.97"/><polygon class="cls-7" points="348.6 177.21 347.62 177.07 347.47 178.05 347.12 177.57 347.26 176.59 348.25 176.73 348.6 177.21"/><line class="cls-6" x1="485.38" y1="366.7" x2="323.86" y2="376.59"/><polygon class="cls-7" points="324.64 375.84 323.98 376.59 324.72 377.24 324.13 377.28 323.38 376.62 324.04 375.88 324.64 375.84"/><line class="cls-6" x1="486.07" y1="364.7" x2="282.64" y2="187.89"/><polygon class="cls-7" points="283.73 187.9 282.73 187.97 282.8 188.96 282.35 188.57 282.28 187.58 283.27 187.51 283.73 187.9"/><line class="cls-6" x1="485.89" y1="364.92" x2="373.83" y2="285.96"/><polygon class="cls-7" points="374.91 285.86 373.93 286.03 374.1 287.01 373.61 286.66 373.44 285.68 374.42 285.51 374.91 285.86"/><line class="cls-6" x1="485.66" y1="367.74" x2="385.05" y2="416.29"/><polygon class="cls-7" points="385.49 415.3 385.17 416.23 386.1 416.56 385.57 416.82 384.63 416.49 384.96 415.56 385.49 415.3"/><line class="cls-6" x1="485.39" y1="366.81" x2="403.44" y2="374.96"/><polygon class="cls-7" points="404.19 374.18 403.56 374.95 404.33 375.58 403.74 375.64 402.97 375.01 403.6 374.24 404.19 374.18"/><line class="cls-6" x1="485.63" y1="365.38" x2="314.91" y2="288.55"/><polygon class="cls-7" points="315.95 288.25 315.02 288.6 315.38 289.53 314.83 289.28 314.48 288.35 315.41 288 315.95 288.25"/><line class="cls-6" x1="453.36" y1="151.03" x2="328.37" y2="223.15"/><polygon class="cls-7" points="328.74 222.13 328.48 223.09 329.44 223.35 328.92 223.65 327.96 223.39 328.22 222.43 328.74 222.13"/><line class="cls-6" x1="456.55" y1="152.32" x2="470.88" y2="202.3"/><polygon class="cls-7" points="469.98 201.7 470.85 202.18 471.33 201.31 471.5 201.88 471.01 202.75 470.15 202.27 469.98 201.7"/><line class="cls-4" x1="457.8" y1="147.7" x2="492.42" y2="114.61"/><polygon class="cls-5" points="492.31 115.69 492.33 114.7 491.34 114.68 491.77 114.27 492.76 114.29 492.74 115.28 492.31 115.69"/><line class="cls-4" x1="458.33" y1="148.49" x2="485.92" y2="136.11"/><polygon class="cls-5" points="485.45 137.08 485.8 136.16 484.88 135.8 485.42 135.56 486.35 135.91 485.99 136.84 485.45 137.08"/><line class="cls-4" x1="457.7" y1="147.6" x2="505.55" y2="96.83"/><polygon class="cls-5" points="505.49 97.92 505.46 96.92 504.47 96.95 504.88 96.52 505.87 96.49 505.9 97.48 505.49 97.92"/><line class="cls-4" x1="458.45" y1="148.82" x2="513.68" y2="131.9"/><polygon class="cls-5" points="513.09 132.81 513.56 131.93 512.68 131.47 513.25 131.29 514.13 131.76 513.66 132.64 513.09 132.81"/><line class="cls-4" x1="456.59" y1="146.96" x2="472.6" y2="94.1"/><polygon class="cls-5" points="473.03 95.09 472.56 94.22 471.69 94.69 471.86 94.11 472.74 93.65 473.2 94.52 473.03 95.09"/><line class="cls-6" x1="453.65" y1="151.45" x2="387.52" y2="207.61"/><polygon class="cls-7" points="387.69 206.54 387.61 207.53 388.6 207.61 388.15 208 387.16 207.91 387.24 206.93 387.69 206.54"/><line class="cls-4" x1="457.04" y1="147.14" x2="470.42" y2="120.73"/><polygon class="cls-5" points="470.68 121.78 470.37 120.84 469.42 121.15 469.69 120.61 470.63 120.31 470.94 121.25 470.68 121.78"/><line class="cls-4" x1="458.57" y1="149.85" x2="497.62" y2="152.84"/><polygon class="cls-5" points="496.75 153.48 497.5 152.84 496.85 152.08 497.45 152.13 498.09 152.88 497.34 153.53 496.75 153.48"/><line class="cls-6" x1="454.08" y1="151.86" x2="336.13" y2="306.55"/><polygon class="cls-7" points="336.08 305.46 336.21 306.45 337.19 306.31 336.83 306.79 335.85 306.92 335.71 305.94 336.08 305.46"/><line class="cls-6" x1="453.29" y1="150.91" x2="271.32" y2="244.17"/><polygon class="cls-7" points="271.73 243.17 271.43 244.12 272.38 244.42 271.84 244.69 270.9 244.39 271.2 243.44 271.73 243.17"/><line class="cls-6" x1="453.01" y1="150.06" x2="286.19" y2="175.62"/><polygon class="cls-7" points="286.9 174.8 286.31 175.6 287.11 176.19 286.52 176.28 285.72 175.69 286.31 174.89 286.9 174.8"/><line class="cls-6" x1="454.25" y1="151.98" x2="316.45" y2="363.89"/><polygon class="cls-7" points="316.31 362.81 316.52 363.79 317.49 363.58 317.17 364.08 316.19 364.29 315.99 363.31 316.31 362.81"/><line class="cls-6" x1="453.67" y1="151.47" x2="312.72" y2="273.6"/><polygon class="cls-7" points="312.88 272.52 312.81 273.52 313.8 273.59 313.35 273.98 312.36 273.91 312.43 272.92 312.88 272.52"/><line class="cls-4" x1="455.5" y1="146.85" x2="452.21" y2="113.99"/><polygon class="cls-5" points="452.99 114.74 452.23 114.11 451.6 114.88 451.54 114.28 452.17 113.52 452.94 114.14 452.99 114.74"/><line class="cls-6" x1="453.32" y1="148.3" x2="304.56" y2="67.38"/><polygon class="cls-7" points="305.62 67.15 304.66 67.43 304.94 68.39 304.42 68.1 304.14 67.15 305.09 66.87 305.62 67.15"/><line class="cls-6" x1="454.1" y1="151.87" x2="370.28" y2="263.47"/><polygon class="cls-7" points="370.22 262.39 370.36 263.37 371.34 263.23 370.98 263.71 370 263.85 369.86 262.87 370.22 262.39"/><line class="cls-6" x1="453.72" y1="151.52" x2="280.15" y2="310.41"/><polygon class="cls-7" points="280.29 309.33 280.24 310.32 281.24 310.37 280.8 310.77 279.8 310.73 279.85 309.74 280.29 309.33"/><line class="cls-6" x1="452.98" y1="149.72" x2="326.42" y2="153.34"/><polygon class="cls-7" points="327.23 152.62 326.55 153.34 327.27 154.02 326.67 154.04 325.95 153.35 326.63 152.63 327.23 152.62"/><line class="cls-6" x1="500.59" y1="253.53" x2="330.6" y2="233.91"/><polygon class="cls-7" points="331.5 233.31 330.72 233.92 331.34 234.7 330.75 234.63 330.13 233.85 330.91 233.24 331.5 233.31"/><line class="cls-6" x1="500.6" y1="254.19" x2="224.69" y2="288.33"/><polygon class="cls-7" points="225.43 287.53 224.81 288.31 225.6 288.92 225.01 289 224.22 288.39 224.84 287.6 225.43 287.53"/><line class="cls-6" x1="501.75" y1="251.58" x2="479.94" y2="221.06"/><polygon class="cls-7" points="480.99 221.32 480.01 221.16 479.85 222.14 479.5 221.65 479.67 220.67 480.65 220.84 480.99 221.32"/><line class="cls-4" x1="506.17" y1="253.75" x2="542.09" y2="267.6"/><polygon class="cls-5" points="541.07 267.96 541.98 267.55 541.58 266.65 542.13 266.86 542.53 267.77 541.63 268.17 541.07 267.96"/><line class="cls-6" x1="501.76" y1="256.14" x2="482.15" y2="283.91"/><polygon class="cls-7" points="482.06 282.83 482.22 283.81 483.2 283.64 482.86 284.13 481.88 284.3 481.71 283.32 482.06 282.83"/><line class="cls-6" x1="500.68" y1="253.08" x2="390.54" y2="221.62"/><polygon class="cls-7" points="391.53 221.17 390.66 221.65 391.14 222.52 390.57 222.35 390.09 221.49 390.96 221 391.53 221.17"/><line class="cls-6" x1="500.58" y1="253.83" x2="273.25" y2="252.27"/><polygon class="cls-7" points="274.08 251.58 273.37 252.27 274.07 252.98 273.47 252.98 272.77 252.27 273.48 251.57 274.08 251.58"/><line class="cls-6" x1="500.58" y1="253.98" x2="458.37" y2="256"/><polygon class="cls-7" points="459.16 255.26 458.49 256 459.23 256.66 458.63 256.69 457.89 256.02 458.56 255.29 459.16 255.26"/><line class="cls-6" x1="501.19" y1="255.61" x2="420.95" y2="320.25"/><polygon class="cls-7" points="421.15 319.18 421.04 320.17 422.03 320.28 421.56 320.65 420.58 320.54 420.68 319.56 421.15 319.18"/><line class="cls-6" x1="500.75" y1="254.81" x2="341.18" y2="313.39"/><polygon class="cls-7" points="341.72 312.45 341.3 313.35 342.2 313.77 341.64 313.97 340.74 313.55 341.16 312.65 341.72 312.45"/><line class="cls-6" x1="503.16" y1="256.64" x2="490.53" y2="426.59"/><polygon class="cls-7" points="489.89 425.71 490.54 426.46 491.29 425.82 491.24 426.41 490.49 427.06 489.84 426.31 489.89 425.71"/><line class="cls-6" x1="500.71" y1="252.98" x2="285.61" y2="182.64"/><polygon class="cls-7" points="286.62 182.23 285.73 182.68 286.18 183.57 285.61 183.38 285.16 182.5 286.05 182.05 286.62 182.23"/><line class="cls-6" x1="501.78" y1="251.56" x2="409.88" y2="119.44"/><polygon class="cls-7" points="410.93 119.71 409.95 119.54 409.78 120.52 409.44 120.03 409.61 119.05 410.59 119.22 410.93 119.71"/><line class="cls-6" x1="500.68" y1="254.6" x2="231.1" y2="329.36"/><polygon class="cls-7" points="231.7 328.47 231.21 329.33 232.08 329.82 231.5 329.98 230.64 329.49 231.13 328.63 231.7 328.47"/><line class="cls-6" x1="501.01" y1="255.35" x2="321.36" y2="368.86"/><polygon class="cls-7" points="321.68 367.83 321.46 368.8 322.43 369.01 321.93 369.33 320.96 369.11 321.18 368.14 321.68 367.83"/><line class="cls-6" x1="500.6" y1="254.25" x2="316.01" y2="280.79"/><polygon class="cls-7" points="316.72 279.98 316.13 280.77 316.92 281.37 316.33 281.45 315.54 280.86 316.13 280.06 316.72 279.98"/><line class="cls-6" x1="500.61" y1="254.29" x2="376.61" y2="273.98"/><polygon class="cls-7" points="377.32 273.15 376.73 273.96 377.54 274.54 376.95 274.63 376.14 274.05 376.73 273.25 377.32 273.15"/><line class="cls-6" x1="504.17" y1="256.53" x2="521.13" y2="313.12"/><polygon class="cls-7" points="520.22 312.53 521.09 313 521.56 312.13 521.73 312.7 521.26 313.57 520.39 313.1 520.22 312.53"/><line class="cls-6" x1="501.06" y1="255.42" x2="370.91" y2="343.64"/><polygon class="cls-7" points="371.2 342.59 371.01 343.57 371.99 343.75 371.5 344.09 370.52 343.9 370.71 342.93 371.2 342.59"/><line class="cls-6" x1="500.69" y1="254.62" x2="283.81" y2="316.93"/><polygon class="cls-7" points="284.41 316.03 283.93 316.9 284.79 317.38 284.22 317.54 283.35 317.06 283.83 316.19 284.41 316.03"/><line class="cls-6" x1="358.54" y1="90.36" x2="318.55" y2="215.23"/><polygon class="cls-7" points="318.14 214.23 318.59 215.12 319.47 214.66 319.29 215.23 318.41 215.68 317.95 214.8 318.14 214.23"/><line class="cls-6" x1="357.74" y1="89.95" x2="219.07" y2="278.74"/><polygon class="cls-7" points="219 277.66 219.15 278.64 220.13 278.49 219.77 278.97 218.79 279.12 218.64 278.14 219 277.66"/><line class="cls-6" x1="357.91" y1="90.06" x2="265.08" y2="237.35"/><polygon class="cls-7" points="264.92 236.27 265.14 237.24 266.11 237.02 265.79 237.53 264.82 237.75 264.6 236.78 264.92 236.27"/><line class="cls-6" x1="360.8" y1="90.11" x2="473.24" y2="283.52"/><polygon class="cls-7" points="472.22 283.16 473.18 283.42 473.43 282.45 473.73 282.97 473.48 283.93 472.52 283.68 472.22 283.16"/><line class="cls-6" x1="361.29" y1="89.76" x2="466.65" y2="204.67"/><polygon class="cls-7" points="465.58 204.53 466.57 204.57 466.61 203.58 467.02 204.02 466.97 205.01 465.98 204.97 465.58 204.53"/><line class="cls-6" x1="359.75" y1="90.47" x2="374.02" y2="202.37"/><polygon class="cls-7" points="373.21 201.64 374 202.25 374.61 201.47 374.68 202.06 374.08 202.84 373.29 202.23 373.21 201.64"/><line class="cls-6" x1="359.01" y1="90.46" x2="329.04" y2="303.58"/><polygon class="cls-7" points="328.46 302.67 329.06 303.46 329.85 302.86 329.77 303.45 328.97 304.05 328.38 303.26 328.46 302.67"/><line class="cls-6" x1="360.02" y1="90.42" x2="429.59" y2="395.99"/><polygon class="cls-7" points="428.72 395.34 429.56 395.87 430.09 395.03 430.23 395.61 429.7 396.45 428.86 395.92 428.72 395.34"/><line class="cls-6" x1="360.72" y1="90.16" x2="446.21" y2="249.12"/><polygon class="cls-7" points="445.2 248.73 446.15 249.01 446.43 248.06 446.71 248.59 446.43 249.54 445.48 249.25 445.2 248.73"/><line class="cls-6" x1="356.84" y1="88.83" x2="126.19" y2="191.3"/><polygon class="cls-7" points="126.66 190.33 126.31 191.25 127.23 191.61 126.69 191.85 125.76 191.5 126.12 190.57 126.66 190.33"/><line class="cls-6" x1="359.43" y1="90.49" x2="362.05" y2="339"/><polygon class="cls-7" points="361.34 338.18 362.05 338.88 362.75 338.16 362.75 338.76 362.06 339.47 361.35 338.77 361.34 338.18"/><line class="cls-6" x1="357.44" y1="89.69" x2="281.8" y2="167.06"/><polygon class="cls-7" points="281.87 165.98 281.88 166.97 282.88 166.96 282.46 167.39 281.46 167.4 281.45 166.4 281.87 165.98"/><line class="cls-6" x1="358.61" y1="90.38" x2="306.07" y2="269.32"/><polygon class="cls-7" points="305.63 268.33 306.1 269.2 306.97 268.73 306.81 269.3 305.93 269.77 305.46 268.9 305.63 268.33"/><line class="cls-4" x1="358.9" y1="84.94" x2="352.54" y2="49.92"/><polygon class="cls-5" points="353.38 50.61 352.56 50.04 352 50.86 351.89 50.27 352.45 49.46 353.27 50.02 353.38 50.61"/><line class="cls-6" x1="357.32" y1="89.56" x2="219.87" y2="212.94"/><polygon class="cls-7" points="220.02 211.87 219.97 212.86 220.96 212.91 220.51 213.31 219.52 213.26 219.57 212.27 220.02 211.87"/><line class="cls-4" x1="360.77" y1="85.26" x2="379.94" y2="51.15"/><polygon class="cls-5" points="380.15 52.22 379.88 51.26 378.93 51.53 379.22 51.01 380.18 50.74 380.44 51.7 380.15 52.22"/><line class="cls-6" x1="359.99" y1="90.43" x2="409.31" y2="316.15"/><polygon class="cls-7" points="408.45 315.49 409.29 316.03 409.82 315.19 409.95 315.77 409.41 316.61 408.58 316.07 408.45 315.49"/><line class="cls-4" x1="359.73" y1="84.92" x2="366.5" y2="29.17"/><polygon class="cls-5" points="367.1 30.08 366.49 29.29 365.71 29.91 365.78 29.31 366.56 28.7 367.17 29.48 367.1 30.08"/><line class="cls-6" x1="359.41" y1="90.49" x2="360.37" y2="260.19"/><polygon class="cls-7" points="359.67 259.37 360.37 260.07 361.07 259.37 361.07 259.96 360.38 260.67 359.67 259.97 359.67 259.37"/><line class="cls-6" x1="361.84" y1="89.06" x2="399.62" y2="110.14"/><polygon class="cls-7" points="398.56 110.35 399.52 110.08 399.25 109.13 399.77 109.42 400.04 110.37 399.08 110.64 398.56 110.35"/><line class="cls-6" x1="413.14" y1="451.3" x2="320.47" y2="247.83"/><polygon class="cls-7" points="321.45 248.29 320.52 247.94 320.17 248.87 319.93 248.33 320.27 247.4 321.2 247.75 321.45 248.29"/><line class="cls-6" x1="414.97" y1="451.13" x2="471.27" y2="222.72"/><polygon class="cls-7" points="471.75 223.69 471.24 222.84 470.39 223.35 470.53 222.77 471.38 222.26 471.9 223.11 471.75 223.69"/><line class="cls-6" x1="412.12" y1="452.09" x2="221.7" y2="298.85"/><polygon class="cls-7" points="222.78 298.82 221.79 298.93 221.9 299.92 221.44 299.54 221.33 298.55 222.32 298.45 222.78 298.82"/><line class="cls-6" x1="414.8" y1="451.09" x2="448.64" y2="264.52"/><polygon class="cls-7" points="449.19 265.46 448.62 264.64 447.81 265.21 447.91 264.62 448.73 264.06 449.29 264.87 449.19 265.46"/><line class="cls-6" x1="415.31" y1="451.23" x2="474.41" y2="298.37"/><polygon class="cls-7" points="474.77 299.39 474.37 298.48 473.46 298.88 473.67 298.33 474.58 297.92 474.98 298.83 474.77 299.39"/><line class="cls-6" x1="413.85" y1="451.08" x2="378.37" y2="232.44"/><polygon class="cls-7" points="379.2 233.14 378.39 232.56 377.81 233.37 377.71 232.78 378.3 231.97 379.1 232.55 379.2 233.14"/><line class="cls-6" x1="414.25" y1="451.04" x2="412.04" y2="339.33"/><polygon class="cls-7" points="412.76 340.14 412.05 339.45 411.36 340.17 411.35 339.57 412.04 338.85 412.75 339.54 412.76 340.14"/><line class="cls-6" x1="411.8" y1="452.59" x2="125.09" y2="308.89"/><polygon class="cls-7" points="126.14 308.63 125.2 308.94 125.51 309.89 124.98 309.62 124.67 308.68 125.61 308.36 126.14 308.63"/><line class="cls-6" x1="412.57" y1="451.64" x2="266.56" y2="265.91"/><polygon class="cls-7" points="267.62 266.13 266.64 266.01 266.52 267 266.15 266.53 266.27 265.54 267.25 265.66 267.62 266.13"/><line class="cls-6" x1="417" y1="453.12" x2="483.13" y2="435.5"/><polygon class="cls-7" points="482.52 436.39 483.01 435.53 482.15 435.04 482.73 434.88 483.59 435.38 483.09 436.24 482.52 436.39"/><line class="cls-6" x1="412.03" y1="452.22" x2="320.84" y2="387.09"/><polygon class="cls-7" points="321.92 387 320.94 387.17 321.11 388.14 320.62 387.8 320.46 386.82 321.44 386.65 321.92 387"/><line class="cls-6" x1="415.18" y1="451.19" x2="428.93" y2="409.66"/><polygon class="cls-7" points="429.34 410.67 428.9 409.78 428.01 410.23 428.19 409.66 429.08 409.21 429.53 410.1 429.34 410.67"/><line class="cls-6" x1="412.78" y1="451.49" x2="335.17" y2="331.39"/><polygon class="cls-7" points="336.21 331.7 335.24 331.49 335.03 332.46 334.7 331.96 334.91 330.99 335.88 331.2 336.21 331.7"/><line class="cls-6" x1="413.01" y1="451.36" x2="278.17" y2="191.41"/><polygon class="cls-7" points="279.17 191.81 278.23 191.51 277.93 192.46 277.65 191.93 277.95 190.99 278.9 191.28 279.17 191.81"/><line class="cls-6" x1="413.49" y1="451.17" x2="365.22" y2="292.18"/><polygon class="cls-7" points="366.13 292.77 365.25 292.3 364.78 293.18 364.61 292.61 365.08 291.73 365.95 292.2 366.13 292.77"/><line class="cls-6" x1="413.05" y1="451.34" x2="366.89" y2="359.02"/><polygon class="cls-7" points="367.89 359.44 366.94 359.13 366.63 360.07 366.36 359.54 366.68 358.6 367.62 358.91 367.89 359.44"/><line class="cls-6" x1="412.23" y1="451.96" x2="280.21" y2="332.42"/><polygon class="cls-7" points="281.3 332.45 280.3 332.5 280.35 333.49 279.91 333.09 279.86 332.1 280.85 332.05 281.3 332.45"/><line class="cls-6" x1="412.21" y1="451.98" x2="383.62" y2="426.63"/><polygon class="cls-7" points="384.7 426.65 383.71 426.71 383.77 427.7 383.32 427.3 383.26 426.31 384.26 426.25 384.7 426.65"/><line class="cls-6" x1="412.77" y1="451.5" x2="309.81" y2="294.52"/><polygon class="cls-7" points="310.85 294.83 309.88 294.63 309.68 295.6 309.35 295.1 309.55 294.13 310.52 294.33 310.85 294.83"/><line class="cls-6" x1="412.54" y1="451.67" x2="197.68" y2="186.84"/><polygon class="cls-7" points="198.74 187.04 197.76 186.93 197.65 187.92 197.28 187.46 197.38 186.47 198.37 186.57 198.74 187.04"/><circle class="cls-8" cx="301.97" cy="486" r="2.54"/><circle class="cls-9" cx="255.74" cy="252.15" r="15.25"/><circle class="cls-5" cx="308.97" cy="525.68" r="3.7"/><circle class="cls-9" cx="307.54" cy="377.59" r="14.09"/><circle class="cls-9" cx="209.5" cy="369.57" r="9.47"/><circle class="cls-9" cx="395.22" cy="375.78" r="6.01"/><circle class="cls-9" cx="268.1" cy="321.45" r="14.09"/><circle class="cls-3" cx="278.58" cy="422.86" r="4.85"/><circle class="cls-9" cx="252.57" cy="371.62" r="4.85"/><circle class="cls-5" cx="321.7" cy="547.67" r="3.7"/><circle class="cls-9" cx="375.94" cy="217.44" r="12.94"/><circle class="cls-9" cx="376.57" cy="420.38" r="7.16"/><circle class="cls-9" cx="523.17" cy="319.92" r="4.85"/><circle class="cls-9" cx="313.21" cy="231.9" r="15.25"/><circle class="cls-3" cx="256.14" cy="455.21" r="4.85"/><circle class="cls-5" cx="288.17" cy="537.11" r="3.7"/><circle class="cls-9" cx="237.37" cy="421.4" r="6.01"/><circle class="cls-5" cx="333.71" cy="518.51" r="3.7"/><circle class="cls-9" cx="360.47" cy="276.54" r="14.09"/><circle class="cls-3" cx="169.99" cy="339.96" r="4.85"/><circle class="cls-9" cx="237.69" cy="507.41" r="4.85"/><circle class="cls-8" cx="117.16" cy="367.25" r="2.54"/><circle class="cls-3" cx="145.85" cy="284" r="7.16"/><circle class="cls-9" cx="210.76" cy="290.05" r="11.78"/><circle class="cls-5" cx="85.05" cy="349.6" r="3.7"/><circle class="cls-5" cx="72.57" cy="412.6" r="3.7"/><circle class="cls-9" cx="326.92" cy="318.63" r="12.94"/><circle class="cls-9" cx="224.25" cy="331.26" r="4.85"/><circle class="cls-5" cx="82.69" cy="390.67" r="3.7"/><circle class="cls-9" cx="271.18" cy="177.92" r="12.94"/><circle class="cls-9" cx="116.67" cy="304.67" r="7.16"/><circle class="cls-3" cx="62.37" cy="305.46" r="4.85"/><circle class="cls-9" cx="214.59" cy="217.69" r="4.85"/><circle class="cls-5" cx="62.57" cy="353.25" r="3.7"/><circle class="cls-5" cx="102.04" cy="407.53" r="3.7"/><circle class="cls-5" cx="51.63" cy="390.74" r="3.7"/><circle class="cls-10" cx="242.74" cy="89.57" r="2.54"/><circle class="cls-7" cx="455.43" cy="322.77" r="4.85"/><circle class="cls-7" cx="291.92" cy="122.93" r="4.85"/><circle class="cls-7" cx="412.76" cy="281.68" r="4.85"/><circle class="cls-5" cx="214.19" cy="52.25" r="3.7"/><circle class="cls-7" cx="408.89" cy="251.85" r="4.85"/><circle class="cls-9" cx="191.75" cy="179.53" r="7.16"/><circle class="cls-7" cx="343.31" cy="171.26" r="4.85"/><circle class="cls-9" cx="318.17" cy="153.58" r="6.01"/><circle class="cls-5" cx="237.19" cy="40.96" r="3.7"/><circle class="cls-9" cx="298.31" cy="63.98" r="4.85"/><circle class="cls-8" cx="154.02" cy="147.07" r="2.54"/><circle class="cls-5" cx="112.27" cy="121.08" r="3.7"/><circle class="cls-9" cx="302.11" cy="282.79" r="11.78"/><circle class="cls-3" cx="165.17" cy="225.74" r="4.85"/><circle class="cls-9" cx="411.81" cy="327.6" r="9.47"/><circle class="cls-5" cx="131.28" cy="103.46" r="3.7"/><circle class="cls-10" cx="488.18" cy="366.53" r="2.54"/><circle class="cls-7" cx="473.8" cy="212.46" r="8.32"/><circle class="cls-10" cx="455.78" cy="149.64" r="2.54"/><circle class="cls-5" cx="496.72" cy="110.5" r="3.7"/><circle class="cls-5" cx="491.34" cy="133.67" r="3.7"/><circle class="cls-5" cx="509.63" cy="92.5" r="3.7"/><circle class="cls-5" cx="519.37" cy="130.15" r="3.7"/><circle class="cls-5" cx="474.32" cy="88.4" r="3.7"/><circle class="cls-5" cx="473.11" cy="115.42" r="3.7"/><circle class="cls-5" cx="503.55" cy="153.3" r="3.7"/><circle class="cls-5" cx="451.62" cy="108.07" r="3.7"/><circle class="cls-8" cx="189.66" cy="455.38" r="2.54"/><circle class="cls-5" cx="178.96" cy="496.44" r="3.7"/><circle class="cls-5" cx="167.1" cy="516.53" r="3.7"/><circle class="cls-9" cx="362.16" cy="349.57" r="8.32"/><circle class="cls-5" cx="146.24" cy="497.99" r="3.7"/><circle class="cls-5" cx="152.34" cy="474.79" r="3.7"/><circle class="cls-8" cx="100.85" cy="253.85" r="2.54"/><circle class="cls-5" cx="46.22" cy="243.54" r="3.7"/><circle class="cls-9" cx="119.7" cy="194.19" r="4.85"/><circle class="cls-5" cx="60.94" cy="223.06" r="3.7"/><circle class="cls-10" cx="503.37" cy="253.85" r="2.54"/><circle class="cls-5" cx="548.78" cy="269.37" r="3.88"/><circle class="cls-7" cx="477.39" cy="290.66" r="6.01"/><circle class="cls-7" cx="450.12" cy="256.4" r="6.01"/><circle class="cls-7" cx="490" cy="433.67" r="4.85"/><circle class="cls-7" cx="405.83" cy="113.6" r="4.85"/><circle class="cls-10" cx="359.4" cy="87.7" r="2.54"/><circle class="cls-7" cx="431.17" cy="402.92" r="4.85"/><circle class="cls-5" cx="351.48" cy="44.07" r="3.7"/><circle class="cls-5" cx="382.86" cy="45.97" r="3.7"/><circle class="cls-5" cx="367.22" cy="23.27" r="3.7"/><circle class="cls-10" cx="414.3" cy="453.84" r="2.54"/><text class="cls-11" transform="translate(367.03 90.31)">p<tspan class="cls-12" x="5.84" y="0">r</tspan><tspan x="9.35" y="0">ofile 1</tspan></text><text class="cls-11" transform="translate(463.41 152.57)">p<tspan class="cls-12" x="5.84" y="0">r</tspan><tspan x="9.35" y="0">ofile 2</tspan></text><text class="cls-11" transform="translate(511 257.04)">p<tspan class="cls-12" x="5.84" y="0">r</tspan><tspan x="9.35" y="0">ofile 3</tspan></text><text class="cls-11" transform="translate(495.81 369.23)">p<tspan class="cls-12" x="5.84" y="0">r</tspan><tspan x="9.35" y="0">ofile 4</tspan></text><text class="cls-11" transform="translate(421.93 456.84)">p<tspan class="cls-12" x="5.84" y="0">r</tspan><tspan x="9.35" y="0">ofile 5</tspan></text><text class="cls-11" transform="translate(309.6 488.82)">p<tspan class="cls-12" x="5.84" y="0">r</tspan><tspan x="9.35" y="0">ofile 6</tspan></text><text class="cls-11" transform="translate(145.55 457.76)">p<tspan class="cls-12" x="5.84" y="0">r</tspan><tspan x="9.35" y="0">ofile 7</tspan></text><text class="cls-11" transform="translate(72.14 370.33)">p<tspan class="cls-12" x="5.84" y="0">r</tspan><tspan x="9.35" y="0">ofile 8</tspan></text><text class="cls-11" transform="translate(55.81 256.59)">p<tspan class="cls-12" x="5.84" y="0">r</tspan><tspan x="9.35" y="0">ofile 9</tspan></text><text class="cls-11" transform="translate(105.23 149.57)">p<tspan class="cls-12" x="5.84" y="0">r</tspan><tspan x="9.35" y="0">ofile 10</tspan></text><text class="cls-11" transform="translate(196.02 92.17)">p<tspan class="cls-12" x="5.84" y="0">r</tspan><tspan x="9.35" y="0">ofile 11</tspan></text></g></g></svg>