<svg xmlns="http://www.w3.org/2000/svg" viewBox="0 0 635.17 574.78"><defs><style>.cls-1,.cls-2,.cls-4,.cls-6{fill:none;}.cls-1{stroke:#000;stroke-miterlimit:10;stroke-width:0.62px;}.cls-10,.cls-2{stroke:teal;}.cls-2,.cls-4,.cls-6{stroke-width:0.41px;}.cls-3{fill:teal;}.cls-4{stroke:#00d3a8;}.cls-5{fill:#00d3a8;}.cls-6,.cls-8{stroke:#ffc90f;}.cls-7,.cls-9{fill:#ffc90f;}.cls-10,.cls-8,.cls-9{stroke-width:0.83px;}.cls-9{stroke:#fff;}.cls-11{fill:#c4c4c4;}.cls-12{isolation:isolate;font-size:10.82px;font-family:SimplonNorm, Simplon Norm;}.cls-13{letter-spacing:0em;}</style></defs><title>vis6Fichier 8</title><g id="Calque_2" data-name="Calque 2"><g id="Captures"><path class="cls-1" d="M0,.31H605.73c20.21,0,29.13,8,29.13,42.67v370.1"/></g><g id="modif"><line class="cls-2" x1="305.31" y1="504.6" x2="263.74" y2="248.86"/><polygon class="cls-3" points="264.56 249.56 263.75 248.98 263.17 249.79 263.08 249.2 263.66 248.39 264.46 248.97 264.56 249.56"/><line class="cls-2" x1="304.86" y1="504.71" x2="235.78" y2="295.15"/><polygon class="cls-3" points="236.71 295.71 235.82 295.26 235.37 296.15 235.19 295.58 235.63 294.7 236.52 295.14 236.71 295.71"/><line class="cls-2" x1="305.71" y1="504.56" x2="298.23" y2="189.54"/><polygon class="cls-3" points="298.95 190.34 298.23 189.66 297.54 190.38 297.53 189.78 298.21 189.06 298.93 189.75 298.95 190.34"/><line class="cls-2" x1="304.46" y1="504.88" x2="228.17" y2="353.33"/><polygon class="cls-3" points="229.17 353.75 228.22 353.44 227.91 354.38 227.65 353.85 227.96 352.9 228.9 353.21 229.17 353.75"/><line class="cls-2" x1="307.36" y1="505.02" x2="426.64" y2="317.96"/><polygon class="cls-3" points="426.79 319.03 426.58 318.06 425.61 318.27 425.93 317.77 426.9 317.56 427.11 318.53 426.79 319.03"/><line class="cls-2" x1="306.01" y1="504.57" x2="322.55" y2="291.28"/><polygon class="cls-3" points="323.19 292.15 322.55 291.4 321.79 292.04 321.84 291.45 322.59 290.8 323.24 291.56 323.19 292.15"/><line class="cls-2" x1="306.87" y1="504.77" x2="374.02" y2="337.52"/><polygon class="cls-3" points="374.37 338.55 373.98 337.63 373.06 338.02 373.28 337.47 374.2 337.08 374.59 337.99 374.37 338.55"/><line class="cls-2" x1="306.32" y1="504.61" x2="363.57" y2="197.89"/><polygon class="cls-3" points="364.11 198.83 363.55 198.01 362.73 198.57 362.84 197.99 363.65 197.43 364.22 198.25 364.11 198.83"/><line class="cls-2" x1="305.62" y1="504.57" x2="302.14" y2="441.82"/><polygon class="cls-3" points="302.89 442.61 302.15 441.94 301.49 442.69 301.45 442.09 302.12 441.35 302.86 442.01 302.89 442.61"/><line class="cls-2" x1="307.72" y1="505.29" x2="407.62" y2="391.52"/><polygon class="cls-3" points="407.6 392.61 407.54 391.61 406.55 391.68 406.94 391.23 407.93 391.17 408 392.16 407.6 392.61"/><line class="cls-2" x1="305.01" y1="504.67" x2="269.49" y2="373.9"/><polygon class="cls-3" points="270.39 374.51 269.52 374.02 269.03 374.88 268.87 374.3 269.37 373.44 270.23 373.94 270.39 374.51"/><line class="cls-2" x1="306.03" y1="504.57" x2="317.72" y2="364.23"/><polygon class="cls-3" points="318.35 365.12 317.71 364.36 316.95 365 317 364.4 317.76 363.76 318.4 364.52 318.35 365.12"/><line class="cls-2" x1="307.93" y1="505.5" x2="343.38" y2="472.57"/><polygon class="cls-3" points="343.25 473.65 343.29 472.65 342.3 472.62 342.74 472.21 343.73 472.25 343.69 473.24 343.25 473.65"/><line class="cls-2" x1="307.1" y1="504.88" x2="366.91" y2="385.74"/><polygon class="cls-3" points="367.17 386.8 366.86 385.85 365.92 386.17 366.18 385.63 367.13 385.32 367.44 386.26 367.17 386.8"/><line class="cls-2" x1="305.53" y1="504.57" x2="288.98" y2="316.77"/><polygon class="cls-3" points="289.75 317.53 288.99 316.89 288.35 317.65 288.3 317.06 288.94 316.3 289.7 316.93 289.75 317.53"/><line class="cls-2" x1="303.65" y1="505.48" x2="258.16" y2="462.4"/><polygon class="cls-3" points="259.24 462.46 258.24 462.49 258.27 463.48 257.84 463.07 257.81 462.08 258.81 462.05 259.24 462.46"/><line class="cls-2" x1="147.98" y1="155.66" x2="423.28" y2="245.15"/><polygon class="cls-3" points="422.28 245.56 423.17 245.12 422.72 244.23 423.28 244.41 423.73 245.3 422.85 245.75 422.28 245.56"/><line class="cls-2" x1="148.09" y1="155.2" x2="287.03" y2="176.78"/><polygon class="cls-3" points="286.11 177.35 286.91 176.76 286.32 175.96 286.91 176.05 287.5 176.85 286.7 177.44 286.11 177.35"/><line class="cls-2" x1="146.83" y1="157.18" x2="224" y2="271.17"/><polygon class="cls-3" points="222.96 270.88 223.93 271.07 224.12 270.1 224.45 270.59 224.26 271.56 223.29 271.38 222.96 270.88"/><line class="cls-2" x1="148.1" y1="154.38" x2="183.89" y2="149.82"/><polygon class="cls-3" points="183.16 150.62 183.77 149.84 182.98 149.23 183.57 149.15 184.36 149.76 183.75 150.55 183.16 150.62"/><line class="cls-2" x1="147.59" y1="156.44" x2="314.37" y2="273.88"/><polygon class="cls-3" points="313.29 273.98 314.26 273.81 314.1 272.83 314.58 273.17 314.75 274.15 313.77 274.32 313.29 273.98"/><line class="cls-2" x1="147.53" y1="156.52" x2="370.34" y2="324.3"/><polygon class="cls-3" points="369.26 324.37 370.24 324.23 370.1 323.25 370.58 323.61 370.72 324.59 369.73 324.73 369.26 324.37"/><line class="cls-2" x1="147.25" y1="156.84" x2="274.48" y2="285.48"/><polygon class="cls-3" points="273.4 285.38 274.4 285.39 274.4 284.39 274.82 284.82 274.82 285.81 273.82 285.81 273.4 285.38"/><line class="cls-2" x1="147.77" y1="156.14" x2="422.84" y2="303.41"/><polygon class="cls-3" points="421.78 303.64 422.73 303.35 422.44 302.4 422.97 302.68 423.25 303.63 422.3 303.92 421.78 303.64"/><line class="cls-2" x1="147.8" y1="156.08" x2="356.55" y2="262.01"/><polygon class="cls-3" points="355.5 262.26 356.44 261.95 356.13 261.01 356.67 261.28 356.98 262.22 356.03 262.53 355.5 262.26"/><line class="cls-2" x1="147.89" y1="155.89" x2="307.16" y2="223.15"/><polygon class="cls-3" points="306.13 223.47 307.05 223.1 306.68 222.18 307.23 222.41 307.6 223.33 306.68 223.71 306.13 223.47"/><line class="cls-2" x1="148.01" y1="153.97" x2="409.9" y2="81.23"/><polygon class="cls-3" points="409.29 82.13 409.78 81.26 408.91 80.77 409.49 80.61 410.35 81.1 409.87 81.97 409.29 82.13"/><line class="cls-2" x1="146.67" y1="157.28" x2="260.08" y2="351.46"/><polygon class="cls-3" points="259.06 351.1 260.02 351.35 260.27 350.39 260.58 350.91 260.32 351.87 259.36 351.61 259.06 351.1"/><line class="cls-2" x1="147.63" y1="156.38" x2="246.75" y2="222.47"/><polygon class="cls-3" points="245.67 222.59 246.64 222.4 246.45 221.43 246.94 221.76 247.14 222.73 246.16 222.92 245.67 222.59"/><line class="cls-2" x1="147.64" y1="156.35" x2="203.32" y2="192.67"/><polygon class="cls-3" points="202.25 192.8 203.22 192.6 203.01 191.63 203.51 191.95 203.72 192.92 202.75 193.13 202.25 192.8"/><line class="cls-2" x1="146.48" y1="157.38" x2="179.03" y2="223.52"/><polygon class="cls-3" points="178.03 223.09 178.97 223.41 179.29 222.47 179.55 223 179.23 223.94 178.29 223.62 178.03 223.09"/><line class="cls-2" x1="148.09" y1="155.16" x2="353.67" y2="184.12"/><polygon class="cls-3" points="352.75 184.7 353.55 184.1 352.95 183.31 353.54 183.39 354.14 184.18 353.34 184.78 352.75 184.7"/><line class="cls-2" x1="148.12" y1="154.84" x2="222.76" y2="157.05"/><polygon class="cls-3" points="221.91 157.73 222.64 157.05 221.96 156.32 222.55 156.34 223.23 157.06 222.51 157.75 221.91 157.73"/><line class="cls-2" x1="146.3" y1="157.46" x2="214.97" y2="324.41"/><polygon class="cls-3" points="214 323.91 214.92 324.29 215.3 323.38 215.53 323.93 215.15 324.85 214.23 324.46 214 323.91"/><line class="cls-2" x1="96.91" y1="265.91" x2="240.48" y2="396.15"/><polygon class="cls-3" points="239.39 396.11 240.38 396.06 240.34 395.07 240.78 395.47 240.83 396.46 239.83 396.51 239.39 396.11"/><line class="cls-2" x1="97.65" y1="264.33" x2="218.19" y2="280.54"/><polygon class="cls-3" points="217.28 281.13 218.07 280.53 217.47 279.74 218.06 279.82 218.66 280.61 217.87 281.21 217.28 281.13"/><line class="cls-2" x1="94.46" y1="261.02" x2="88.72" y2="200.22"/><polygon class="cls-3" points="89.49 200.98 88.73 200.35 88.09 201.11 88.04 200.52 88.67 199.75 89.44 200.39 89.49 200.98"/><line class="cls-2" x1="97.26" y1="265.44" x2="207.35" y2="330.98"/><polygon class="cls-3" points="206.28 331.16 207.24 330.92 207 329.95 207.51 330.26 207.75 331.22 206.79 331.47 206.28 331.16"/><line class="cls-2" x1="97.64" y1="264.36" x2="129.59" y2="269"/><polygon class="cls-3" points="128.67 269.58 129.47 268.99 128.87 268.19 129.46 268.28 130.06 269.07 129.26 269.67 128.67 269.58"/><line class="cls-2" x1="97.63" y1="264.46" x2="269.33" y2="295.27"/><polygon class="cls-3" points="268.39 295.81 269.21 295.25 268.64 294.43 269.23 294.54 269.8 295.35 268.98 295.92 268.39 295.81"/><line class="cls-2" x1="97.4" y1="265.17" x2="174.03" y2="300.69"/><polygon class="cls-3" points="172.99 300.98 173.92 300.64 173.58 299.71 174.12 299.96 174.46 300.89 173.53 301.24 172.99 300.98"/><line class="cls-2" x1="97.67" y1="264" x2="354.7" y2="269.39"/><polygon class="cls-3" points="353.86 270.08 354.58 269.39 353.89 268.68 354.49 268.69 355.18 269.4 354.46 270.09 353.86 270.08"/><line class="cls-2" x1="97.47" y1="265" x2="306.27" y2="345.92"/><polygon class="cls-3" points="305.24 346.28 306.15 345.88 305.75 344.97 306.31 345.19 306.71 346.1 305.8 346.5 305.24 346.28"/><line class="cls-2" x1="97.55" y1="263.1" x2="171.44" y2="240.93"/><polygon class="cls-3" points="170.85 241.84 171.32 240.96 170.44 240.49 171.02 240.32 171.89 240.79 171.42 241.66 170.85 241.84"/><line class="cls-2" x1="97.64" y1="263.51" x2="306" y2="232.34"/><polygon class="cls-3" points="305.29 233.16 305.88 232.36 305.08 231.77 305.67 231.68 306.47 232.27 305.88 233.07 305.29 233.16"/><line class="cls-2" x1="97.29" y1="265.39" x2="255.62" y2="355.96"/><polygon class="cls-3" points="254.56 356.16 255.51 355.9 255.25 354.94 255.77 355.24 256.03 356.2 255.07 356.46 254.56 356.16"/><line class="cls-2" x1="96.19" y1="266.49" x2="171.54" y2="399.32"/><polygon class="cls-3" points="170.53 398.95 171.48 399.21 171.75 398.26 172.04 398.78 171.78 399.73 170.82 399.47 170.53 398.95"/><line class="cls-2" x1="97.2" y1="265.53" x2="290.05" y2="390.31"/><polygon class="cls-3" points="288.98 390.45 289.95 390.24 289.74 389.27 290.24 389.6 290.45 390.57 289.48 390.77 288.98 390.45"/><line class="cls-2" x1="97.27" y1="265.41" x2="362.64" y2="419.89"/><polygon class="cls-3" points="361.58 420.08 362.54 419.83 362.29 418.87 362.8 419.17 363.05 420.13 362.09 420.38 361.58 420.08"/><line class="cls-2" x1="96.59" y1="266.21" x2="243.14" y2="446.22"/><polygon class="cls-3" points="242.07 446.02 243.06 446.12 243.16 445.14 243.54 445.6 243.44 446.59 242.45 446.49 242.07 446.02"/><line class="cls-2" x1="97.62" y1="263.39" x2="244.18" y2="235.2"/><polygon class="cls-3" points="243.5 236.04 244.06 235.22 243.24 234.66 243.82 234.55 244.64 235.11 244.09 235.93 243.5 236.04"/><line class="cls-2" x1="97.6" y1="264.59" x2="313.37" y2="313.73"/><polygon class="cls-3" points="312.41 314.24 313.25 313.71 312.72 312.87 313.3 313 313.83 313.84 312.99 314.37 312.41 314.24"/><line class="cls-2" x1="96.71" y1="266.11" x2="142.93" y2="317"/><polygon class="cls-3" points="141.85 316.87 142.84 316.91 142.89 315.92 143.29 316.36 143.25 317.35 142.25 317.31 141.85 316.87"/><line class="cls-2" x1="192.85" y1="471.31" x2="217.7" y2="354.68"/><polygon class="cls-3" points="218.22 355.63 217.68 354.8 216.84 355.34 216.97 354.75 217.8 354.21 218.34 355.05 218.22 355.63"/><line class="cls-2" x1="192.83" y1="471.31" x2="228.85" y2="295.55"/><polygon class="cls-3" points="229.37 296.5 228.83 295.67 228 296.22 228.12 295.63 228.95 295.08 229.49 295.91 229.37 296.5"/><line class="cls-2" x1="194.07" y1="471.89" x2="241.76" y2="412.22"/><polygon class="cls-3" points="241.8 413.3 241.69 412.31 240.7 412.43 241.07 411.96 242.06 411.85 242.17 412.84 241.8 413.3"/><line class="cls-2" x1="191.49" y1="471.35" x2="140.35" y2="278.6"/><polygon class="cls-3" points="141.24 279.21 140.38 278.71 139.88 279.57 139.73 279 140.23 278.14 141.09 278.64 141.24 279.21"/><line class="cls-2" x1="193.86" y1="471.73" x2="259.51" y2="372.3"/><polygon class="cls-3" points="259.64 373.37 259.44 372.4 258.47 372.6 258.8 372.1 259.77 371.9 259.97 372.87 259.64 373.37"/><line class="cls-2" x1="193.64" y1="471.6" x2="278.64" y2="314.63"/><polygon class="cls-3" points="278.87 315.69 278.59 314.73 277.63 315.02 277.92 314.49 278.87 314.21 279.15 315.16 278.87 315.69"/><line class="cls-2" x1="194.17" y1="471.98" x2="360.52" y2="282.61"/><polygon class="cls-3" points="360.5 283.7 360.44 282.71 359.45 282.77 359.84 282.32 360.83 282.26 360.9 283.25 360.5 283.7"/><line class="cls-2" x1="194.34" y1="472.13" x2="309.18" y2="360.21"/><polygon class="cls-3" points="309.08 361.29 309.1 360.29 308.1 360.28 308.53 359.87 309.52 359.88 309.51 360.87 309.08 361.29"/><line class="cls-2" x1="192.16" y1="471.25" x2="185.93" y2="251.39"/><polygon class="cls-3" points="186.66 252.2 185.93 251.52 185.25 252.24 185.23 251.64 185.92 250.92 186.64 251.6 186.66 252.2"/><line class="cls-2" x1="192.08" y1="471.25" x2="183.51" y2="314.67"/><polygon class="cls-3" points="184.25 315.46 183.51 314.79 182.85 315.54 182.82 314.94 183.48 314.2 184.22 314.86 184.25 315.46"/><line class="cls-2" x1="193.62" y1="471.6" x2="314.86" y2="244.9"/><polygon class="cls-3" points="315.09 245.96 314.8 245.01 313.85 245.3 314.13 244.77 315.08 244.49 315.37 245.44 315.09 245.96"/><line class="cls-2" x1="195.02" y1="473.25" x2="239.63" y2="458.31"/><polygon class="cls-3" points="239.07 459.24 239.52 458.35 238.63 457.9 239.19 457.72 240.08 458.16 239.64 459.05 239.07 459.24"/><line class="cls-2" x1="191.57" y1="471.33" x2="179.52" y2="419.71"/><polygon class="cls-3" points="180.39 420.36 179.55 419.83 179.02 420.68 178.89 420.1 179.41 419.25 180.25 419.78 180.39 420.36"/><line class="cls-2" x1="194.58" y1="472.42" x2="290.41" y2="400.2"/><polygon class="cls-3" points="290.17 401.26 290.31 400.27 289.33 400.14 289.8 399.78 290.79 399.92 290.65 400.9 290.17 401.26"/><line class="cls-2" x1="195.07" y1="473.4" x2="361.66" y2="427.46"/><polygon class="cls-3" points="361.05 428.36 361.54 427.5 360.68 427 361.25 426.85 362.12 427.34 361.63 428.2 361.05 428.36"/><line class="cls-2" x1="193.04" y1="471.36" x2="256.31" y2="248.43"/><polygon class="cls-3" points="256.76 249.42 256.28 248.55 255.41 249.03 255.58 248.46 256.44 247.98 256.93 248.84 256.76 249.42"/><line class="cls-2" x1="195.1" y1="473.53" x2="437.51" y2="418.03"/><polygon class="cls-3" points="436.86 418.9 437.39 418.06 436.55 417.53 437.13 417.4 437.97 417.92 437.44 418.76 436.86 418.9"/><line class="cls-2" x1="195.17" y1="474.01" x2="340.44" y2="465.68"/><polygon class="cls-3" points="339.66 466.42 340.32 465.68 339.58 465.02 340.17 464.99 340.92 465.65 340.25 466.39 339.66 466.42"/><line class="cls-2" x1="194.09" y1="471.91" x2="316.32" y2="322.34"/><polygon class="cls-3" points="316.34 323.43 316.25 322.44 315.26 322.54 315.63 322.07 316.62 321.98 316.72 322.96 316.34 323.43"/><line class="cls-2" x1="191.44" y1="471.36" x2="152.25" y2="333.77"/><polygon class="cls-3" points="153.15 334.37 152.28 333.89 151.8 334.75 151.63 334.18 152.12 333.31 152.99 333.8 153.15 334.37"/><line class="cls-2" x1="114.55" y1="381.74" x2="423.64" y2="254.46"/><polygon class="cls-3" points="423.14 255.42 423.53 254.5 422.61 254.12 423.16 253.89 424.08 254.28 423.69 255.19 423.14 255.42"/><line class="cls-2" x1="114.67" y1="383.61" x2="293.32" y2="430.98"/><polygon class="cls-3" points="292.34 431.45 293.2 430.95 292.7 430.09 293.27 430.25 293.77 431.1 292.91 431.6 292.34 431.45"/><line class="cls-2" x1="114.48" y1="381.58" x2="270.85" y2="306.45"/><polygon class="cls-3" points="270.41 307.44 270.74 306.5 269.8 306.17 270.34 305.91 271.28 306.24 270.95 307.18 270.41 307.44"/><line class="cls-2" x1="113.81" y1="380.69" x2="290.51" y2="186.66"/><polygon class="cls-3" points="290.48 187.74 290.43 186.75 289.44 186.79 289.84 186.35 290.83 186.31 290.88 187.3 290.48 187.74"/><line class="cls-2" x1="114.15" y1="381.06" x2="356.12" y2="193.35"/><polygon class="cls-3" points="355.9 194.41 356.03 193.43 355.04 193.3 355.51 192.94 356.5 193.06 356.37 194.05 355.9 194.41"/><line class="cls-2" x1="114.48" y1="381.58" x2="313.46" y2="285.07"/><polygon class="cls-3" points="313.02 286.07 313.35 285.13 312.41 284.8 312.94 284.54 313.88 284.87 313.56 285.81 313.02 286.07"/><line class="cls-2" x1="114.53" y1="381.68" x2="356.12" y2="276.58"/><polygon class="cls-3" points="355.64 277.56 356.01 276.63 355.08 276.27 355.63 276.03 356.56 276.39 356.19 277.32 355.64 277.56"/><line class="cls-2" x1="113.16" y1="380.24" x2="178.9" y2="249.83"/><polygon class="cls-3" points="179.15 250.88 178.84 249.94 177.9 250.25 178.17 249.72 179.11 249.4 179.42 250.35 179.15 250.88"/><line class="cls-2" x1="113.21" y1="380.26" x2="227.35" y2="164.94"/><polygon class="cls-3" points="227.58 166 227.29 165.05 226.34 165.34 226.62 164.81 227.57 164.52 227.86 165.47 227.58 166"/><line class="cls-2" x1="114.65" y1="382.02" x2="340.94" y2="314.72"/><polygon class="cls-3" points="340.35 315.63 340.82 314.76 339.95 314.28 340.52 314.11 341.4 314.59 340.92 315.46 340.35 315.63"/><line class="cls-2" x1="113.22" y1="380.27" x2="206.5" y2="205.01"/><polygon class="cls-3" points="206.73 206.07 206.44 205.12 205.49 205.41 205.77 204.88 206.72 204.59 207.01 205.54 206.73 206.07"/><line class="cls-2" x1="114.21" y1="381.13" x2="309.07" y2="239.86"/><polygon class="cls-3" points="308.82 240.91 308.98 239.93 307.99 239.77 308.48 239.42 309.46 239.58 309.3 240.56 308.82 240.91"/><line class="cls-2" x1="114.77" y1="382.78" x2="360.82" y2="376.16"/><polygon class="cls-3" points="360.01 376.88 360.7 376.16 359.98 375.48 360.57 375.46 361.29 376.14 360.61 376.87 360.01 376.88"/><line class="cls-2" x1="113.9" y1="380.77" x2="248.95" y2="244.14"/><polygon class="cls-3" points="248.87 245.22 248.87 244.22 247.87 244.23 248.29 243.81 249.29 243.8 249.29 244.79 248.87 245.22"/><line class="cls-2" x1="112.79" y1="380.08" x2="189.65" y2="156.9"/><polygon class="cls-3" points="190.04 157.91 189.61 157.01 188.71 157.45 188.91 156.88 189.8 156.45 190.24 157.34 190.04 157.91"/><line class="cls-2" x1="114.56" y1="383.94" x2="166.73" y2="404.83"/><polygon class="cls-3" points="165.71 405.18 166.62 404.79 166.23 403.87 166.78 404.09 167.17 405.01 166.26 405.4 165.71 405.18"/><line class="cls-2" x1="114.5" y1="381.62" x2="155.2" y2="362.82"/><polygon class="cls-3" points="154.75 363.81 155.09 362.87 154.16 362.53 154.7 362.28 155.63 362.62 155.29 363.56 154.75 363.81"/><line class="cls-2" x1="111.2" y1="379.99" x2="102.58" y2="341.02"/><polygon class="cls-3" points="103.44 341.67 102.61 341.14 102.07 341.98 101.94 341.39 102.48 340.56 103.31 341.09 103.44 341.67"/><line class="cls-2" x1="114.56" y1="381.76" x2="206.25" y2="345.03"/><polygon class="cls-3" points="205.75 345.99 206.14 345.08 205.22 344.69 205.78 344.47 206.69 344.86 206.3 345.77 205.75 345.99"/><line class="cls-4" x1="306.27" y1="510.39" x2="311.61" y2="542"/><polygon class="cls-5" points="310.78 541.3 311.59 541.88 312.17 541.07 312.27 541.65 311.69 542.46 310.88 541.89 310.78 541.3"/><line class="cls-4" x1="305.82" y1="510.43" x2="306.49" y2="564.69"/><polygon class="cls-5" points="305.78 563.87 306.49 564.56 307.19 563.85 307.19 564.45 306.5 565.16 305.79 564.47 305.78 563.87"/><line class="cls-4" x1="303.76" y1="509.61" x2="282.25" y2="532.07"/><polygon class="cls-5" points="282.31 530.99 282.33 531.99 283.32 531.96 282.91 532.39 281.92 532.42 281.9 531.42 282.31 530.99"/><line class="cls-4" x1="304.49" y1="510.13" x2="281.81" y2="556.4"/><polygon class="cls-5" points="281.54 555.35 281.86 556.29 282.8 555.97 282.54 556.51 281.6 556.83 281.28 555.89 281.54 555.35"/><line class="cls-4" x1="145.44" y1="151.83" x2="149.43" y2="104.73"/><polygon class="cls-5" points="150.06 105.61 149.42 104.85 148.66 105.49 148.71 104.89 149.47 104.25 150.11 105.01 150.06 105.61"/><line class="cls-4" x1="143.83" y1="152.15" x2="127.74" y2="121.31"/><polygon class="cls-5" points="128.75 121.71 127.8 121.41 127.5 122.36 127.22 121.83 127.52 120.89 128.47 121.18 128.75 121.71"/><line class="cls-4" x1="91.81" y1="263.88" x2="60.05" y2="247.43"/><polygon class="cls-5" points="61.11 247.19 60.16 247.49 60.46 248.44 59.93 248.16 59.63 247.22 60.58 246.91 61.11 247.19"/><line class="cls-4" x1="502.53" y1="385.81" x2="542.13" y2="429.38"/><polygon class="cls-5" points="541.05 429.25 542.05 429.29 542.09 428.3 542.5 428.74 542.45 429.74 541.46 429.69 541.05 429.25"/><line class="cls-4" x1="503.26" y1="384.76" x2="556.35" y2="406.83"/><polygon class="cls-5" points="555.32 407.16 556.24 406.78 555.86 405.87 556.41 406.09 556.79 407.01 555.87 407.39 555.32 407.16"/><line class="cls-4" x1="501.52" y1="386.4" x2="513.98" y2="421.98"/><polygon class="cls-5" points="513.05 421.44 513.94 421.87 514.37 420.97 514.57 421.54 514.14 422.43 513.25 422 513.05 421.44"/><line class="cls-4" x1="500.02" y1="386.52" x2="485.14" y2="444.08"/><polygon class="cls-5" points="484.67 443.1 485.17 443.96 486.03 443.45 485.88 444.03 485.02 444.54 484.52 443.68 484.67 443.1"/><line class="cls-4" x1="502.79" y1="385.54" x2="526.51" y2="405.71"/><polygon class="cls-5" points="525.43 405.71 526.42 405.63 526.34 404.64 526.79 405.03 526.87 406.02 525.88 406.1 525.43 405.71"/><line class="cls-4" x1="501.82" y1="386.28" x2="533.4" y2="452.36"/><polygon class="cls-5" points="532.41 451.92 533.35 452.25 533.68 451.31 533.94 451.85 533.61 452.79 532.67 452.45 532.41 451.92"/><line class="cls-4" x1="503.46" y1="384" x2="552.73" y2="390.09"/><polygon class="cls-5" points="551.83 390.68 552.61 390.07 552 389.29 552.59 389.36 553.2 390.14 552.42 390.75 551.83 390.68"/><line class="cls-4" x1="503.46" y1="383.25" x2="528.55" y2="363.5"/><polygon class="cls-5" points="528.33 364.57 528.45 363.58 527.46 363.46 527.93 363.09 528.92 363.21 528.8 364.2 528.33 364.57"/><line class="cls-4" x1="247.03" y1="88.58" x2="162.7" y2="56.68"/><polygon class="cls-5" points="163.72 56.32 162.82 56.73 163.23 57.63 162.67 57.42 162.26 56.52 163.16 56.11 163.72 56.32"/><line class="cls-4" x1="247.77" y1="87.48" x2="205.66" y2="42.62"/><polygon class="cls-5" points="206.74 42.74 205.75 42.71 205.71 43.7 205.31 43.27 205.34 42.27 206.33 42.3 206.74 42.74"/><line class="cls-4" x1="247.18" y1="88.24" x2="192.82" y2="59.39"/><polygon class="cls-5" points="193.88 59.15 192.93 59.45 193.22 60.4 192.69 60.12 192.4 59.17 193.35 58.88 193.88 59.15"/><line class="cls-4" x1="109.22" y1="384.18" x2="69.88" y2="404.17"/><polygon class="cls-5" points="70.3 403.17 69.99 404.11 70.93 404.42 70.4 404.69 69.46 404.38 69.76 403.44 70.3 403.17"/><line class="cls-4" x1="366.24" y1="86.8" x2="371.62" y2="46.27"/><polygon class="cls-5" points="372.21 47.18 371.61 46.4 370.82 47 370.9 46.41 371.69 45.8 372.29 46.59 372.21 47.18"/><line class="cls-4" x1="364.04" y1="87.41" x2="346" y2="64.56"/><polygon class="cls-5" points="347.07 64.78 346.08 64.66 345.96 65.65 345.6 65.18 345.71 64.19 346.7 64.31 347.07 64.78"/><line class="cls-4" x1="368.15" y1="91.53" x2="405.26" y2="120.98"/><polygon class="cls-5" points="404.17 121.02 405.16 120.9 405.05 119.92 405.51 120.29 405.63 121.28 404.64 121.39 404.17 121.02"/><line class="cls-4" x1="468.66" y1="152.3" x2="487.66" y2="126.61"/><polygon class="cls-5" points="487.74 127.69 487.59 126.7 486.61 126.85 486.96 126.37 487.94 126.23 488.09 127.21 487.74 127.69"/><line class="cls-4" x1="467.02" y1="151.73" x2="468.11" y2="119.19"/><polygon class="cls-5" points="468.78 120.03 468.1 119.31 467.38 119.99 467.4 119.39 468.12 118.71 468.8 119.44 468.78 120.03"/><line class="cls-4" x1="469.83" y1="154.97" x2="499.37" y2="165.1"/><polygon class="cls-5" points="498.36 165.5 499.25 165.06 498.81 164.17 499.38 164.36 499.81 165.25 498.92 165.69 498.36 165.5"/><line class="cls-4" x1="469.63" y1="153.54" x2="504.47" y2="139.23"/><polygon class="cls-5" points="503.97 140.19 504.36 139.28 503.44 138.89 503.99 138.66 504.91 139.05 504.53 139.97 503.97 140.19"/><line class="cls-4" x1="467.9" y1="151.9" x2="487.1" y2="97.76"/><polygon class="cls-5" points="487.49 98.78 487.06 97.88 486.16 98.31 486.36 97.75 487.26 97.32 487.68 98.21 487.49 98.78"/><line class="cls-4" x1="469.85" y1="154.57" x2="525.46" y2="152.98"/><polygon class="cls-5" points="524.66 153.71 525.34 152.99 524.62 152.3 525.21 152.29 525.93 152.97 525.25 153.69 524.66 153.71"/><line class="cls-4" x1="469.55" y1="153.38" x2="528.09" y2="124.91"/><polygon class="cls-5" points="527.66 125.9 527.98 124.97 527.04 124.64 527.58 124.38 528.52 124.7 528.2 125.64 527.66 125.9"/><line class="cls-4" x1="468.88" y1="152.48" x2="510.58" y2="106.27"/><polygon class="cls-5" points="510.55 107.35 510.5 106.36 509.5 106.41 509.9 105.97 510.9 105.92 510.95 106.91 510.55 107.35"/><line class="cls-6" x1="513.94" y1="263.42" x2="449.38" y2="251.72"/><polygon class="cls-7" points="450.31 251.18 449.5 251.75 450.06 252.56 449.48 252.46 448.91 251.64 449.73 251.07 450.31 251.18"/><line class="cls-6" x1="514.09" y1="262.87" x2="308.27" y2="182.5"/><polygon class="cls-7" points="309.29 182.15 308.38 182.55 308.78 183.46 308.22 183.24 307.82 182.33 308.74 181.93 309.29 182.15"/><line class="cls-6" x1="513.92" y1="263.58" x2="277.97" y2="234.09"/><polygon class="cls-7" points="278.88 233.49 278.1 234.1 278.71 234.89 278.12 234.81 277.5 234.03 278.29 233.42 278.88 233.49"/><line class="cls-6" x1="514.17" y1="265.19" x2="385.06" y2="325.83"/><polygon class="cls-7" points="385.51 324.84 385.17 325.78 386.1 326.11 385.56 326.37 384.63 326.03 384.97 325.1 385.51 324.84"/><line class="cls-6" x1="514.52" y1="265.75" x2="308.45" y2="427.86"/><polygon class="cls-7" points="308.67 426.79 308.55 427.78 309.54 427.9 309.07 428.27 308.08 428.15 308.2 427.16 308.67 426.79"/><line class="cls-6" x1="513.9" y1="264.19" x2="334.43" y2="279.32"/><polygon class="cls-7" points="335.19 278.55 334.55 279.31 335.31 279.95 334.72 280 333.96 279.36 334.6 278.6 335.19 278.55"/><line class="cls-6" x1="514.24" y1="265.31" x2="442.36" y2="303.45"/><polygon class="cls-7" points="442.76 302.44 442.47 303.39 443.42 303.68 442.89 303.96 441.94 303.67 442.23 302.72 442.76 302.44"/><line class="cls-6" x1="513.93" y1="264.38" x2="305.5" y2="295.78"/><polygon class="cls-7" points="306.21 294.96 305.62 295.76 306.42 296.35 305.83 296.44 305.03 295.85 305.62 295.05 306.21 294.96"/><line class="cls-6" x1="514.26" y1="262.52" x2="414.92" y2="207.74"/><polygon class="cls-7" points="415.98 207.52 415.03 207.79 415.3 208.75 414.78 208.46 414.51 207.51 415.46 207.23 415.98 207.52"/><line class="cls-6" x1="513.98" y1="264.66" x2="236.43" y2="335.2"/><polygon class="cls-7" points="237.06 334.32 236.55 335.17 237.41 335.68 236.83 335.82 235.97 335.32 236.48 334.46 237.06 334.32"/><line class="cls-6" x1="513.96" y1="263.32" x2="219" y2="199.22"/><polygon class="cls-7" points="219.96 198.71 219.12 199.25 219.66 200.08 219.07 199.95 218.54 199.12 219.37 198.58 219.96 198.71"/><line class="cls-6" x1="514.22" y1="262.59" x2="376.72" y2="191.47"/><polygon class="cls-7" points="377.78 191.22 376.83 191.52 377.13 192.47 376.6 192.2 376.3 191.25 377.25 190.95 377.78 191.22"/><line class="cls-6" x1="513.94" y1="263.43" x2="339.79" y2="232.78"/><polygon class="cls-7" points="340.73 232.23 339.91 232.8 340.48 233.61 339.9 233.51 339.33 232.69 340.14 232.12 340.73 232.23"/><line class="cls-6" x1="515.04" y1="261.61" x2="415.58" y2="131.5"/><polygon class="cls-7" points="416.64 131.73 415.66 131.59 415.53 132.58 415.17 132.11 415.3 131.12 416.28 131.25 416.64 131.73"/><line class="cls-6" x1="519.74" y1="264.25" x2="549.49" y2="279.03"/><polygon class="cls-7" points="548.44 279.29 549.38 278.97 549.06 278.03 549.6 278.3 549.91 279.24 548.97 279.55 548.44 279.29"/><line class="cls-6" x1="514.5" y1="265.73" x2="380.63" y2="369.1"/><polygon class="cls-7" points="380.86 368.04 380.73 369.02 381.71 369.15 381.24 369.51 380.26 369.39 380.38 368.4 380.86 368.04"/><line class="cls-6" x1="513.9" y1="263.7" x2="200.16" y2="237.91"/><polygon class="cls-7" points="201.04 237.28 200.28 237.92 200.92 238.68 200.33 238.63 199.69 237.87 200.44 237.23 201.04 237.28"/><line class="cls-6" x1="513.9" y1="264.06" x2="388.92" y2="269.07"/><polygon class="cls-7" points="389.72 268.33 389.05 269.06 389.78 269.74 389.18 269.76 388.45 269.09 389.12 268.36 389.72 268.33"/><line class="cls-6" x1="513.99" y1="264.69" x2="330.14" y2="313.44"/><polygon class="cls-7" points="330.76 312.55 330.26 313.41 331.12 313.91 330.54 314.06 329.68 313.56 330.18 312.7 330.76 312.55"/><line class="cls-6" x1="514.92" y1="266.17" x2="417.35" y2="380.3"/><polygon class="cls-7" points="417.35 379.21 417.43 380.2 418.42 380.13 418.03 380.58 417.04 380.66 416.96 379.67 417.35 379.21"/><line class="cls-6" x1="497.63" y1="383.87" x2="259.7" y2="402.7"/><polygon class="cls-7" points="260.46 401.94 259.82 402.69 260.57 403.34 259.98 403.39 259.22 402.74 259.87 401.99 260.46 401.94"/><line class="cls-6" x1="498.59" y1="381.46" x2="440.02" y2="316.83"/><polygon class="cls-7" points="441.09 316.97 440.1 316.92 440.05 317.91 439.65 317.47 439.7 316.48 440.69 316.52 441.09 316.97"/><line class="cls-6" x1="497.83" y1="382.55" x2="304.4" y2="305.31"/><polygon class="cls-7" points="305.42 304.96 304.51 305.35 304.9 306.26 304.35 306.04 303.96 305.13 304.87 304.74 305.42 304.96"/><line class="cls-6" x1="498.34" y1="381.72" x2="335.87" y2="241.02"/><polygon class="cls-7" points="336.96 241.02 335.97 241.09 336.04 242.09 335.59 241.7 335.52 240.71 336.51 240.63 336.96 241.02"/><line class="cls-6" x1="498.36" y1="381.69" x2="384.64" y2="281.1"/><polygon class="cls-7" points="385.72 281.12 384.73 281.18 384.79 282.17 384.35 281.77 384.29 280.78 385.28 280.72 385.72 281.12"/><line class="cls-6" x1="499.29" y1="380.99" x2="441.94" y2="261.48"/><polygon class="cls-7" points="442.93 261.92 441.99 261.59 441.66 262.53 441.41 261.99 441.74 261.05 442.67 261.38 442.93 261.92"/><line class="cls-6" x1="497.76" y1="384.53" x2="380.54" y2="421.86"/><polygon class="cls-7" points="381.12 420.94 380.66 421.82 381.54 422.27 380.97 422.45 380.09 422 380.55 421.12 381.12 420.94"/><line class="cls-6" x1="498.03" y1="385.12" x2="451.15" y2="412.61"/><polygon class="cls-7" points="451.51 411.59 451.26 412.55 452.22 412.8 451.7 413.1 450.74 412.85 450.99 411.89 451.51 411.59"/><line class="cls-6" x1="497.98" y1="385.04" x2="361.19" y2="459.74"/><polygon class="cls-7" points="361.58 458.73 361.3 459.68 362.25 459.96 361.73 460.25 360.78 459.97 361.06 459.01 361.58 458.73"/><line class="cls-6" x1="497.9" y1="382.39" x2="357.04" y2="315.94"/><polygon class="cls-7" points="358.08 315.66 357.15 316 357.48 316.93 356.94 316.68 356.61 315.74 357.54 315.41 358.08 315.66"/><line class="cls-6" x1="497.81" y1="382.59" x2="461.07" y2="368.59"/><polygon class="cls-7" points="462.09 368.23 461.18 368.63 461.59 369.54 461.03 369.33 460.63 368.42 461.53 368.01 462.09 368.23"/><line class="cls-6" x1="497.63" y1="383.8" x2="305.93" y2="394.52"/><polygon class="cls-7" points="306.72 393.77 306.05 394.51 306.8 395.17 306.2 395.21 305.46 394.55 306.12 393.81 306.72 393.77"/><line class="cls-6" x1="249.76" y1="92.54" x2="248.71" y2="392.52"/><polygon class="cls-7" points="248.01 391.69 248.71 392.39 249.41 391.69 249.41 392.29 248.71 392.99 248.01 392.29 248.01 391.69"/><line class="cls-6" x1="249.5" y1="92.53" x2="232.83" y2="268.91"/><polygon class="cls-7" points="232.21 268.03 232.84 268.79 233.6 268.16 233.55 268.75 232.78 269.39 232.15 268.62 232.21 268.03"/><line class="cls-6" x1="250.52" y1="92.45" x2="315.39" y2="337.76"/><polygon class="cls-7" points="314.5 337.14 315.36 337.64 315.86 336.78 316.01 337.36 315.51 338.22 314.65 337.72 314.5 337.14"/><line class="cls-6" x1="247.3" y1="91.19" x2="94.28" y2="188.83"/><polygon class="cls-7" points="94.59 187.8 94.38 188.77 95.35 188.98 94.85 189.3 93.88 189.09 94.09 188.12 94.59 187.8"/><line class="cls-6" x1="248.9" y1="92.41" x2="185.89" y2="295.43"/><polygon class="cls-7" points="185.46 294.43 185.92 295.31 186.8 294.85 186.63 295.42 185.75 295.88 185.28 295 185.46 294.43"/><line class="cls-6" x1="248.23" y1="92.11" x2="142.68" y2="262.9"/><polygon class="cls-7" points="142.51 261.83 142.74 262.8 143.71 262.57 143.39 263.07 142.43 263.3 142.2 262.33 142.51 261.83"/><line class="cls-6" x1="252.15" y1="91.33" x2="402.4" y2="199.8"/><polygon class="cls-7" points="401.31 199.89 402.3 199.73 402.14 198.75 402.62 199.1 402.78 200.08 401.8 200.24 401.31 199.89"/><line class="cls-6" x1="249.44" y1="92.53" x2="222.84" y2="323.32"/><polygon class="cls-7" points="222.24 322.42 222.85 323.19 223.63 322.58 223.56 323.17 222.78 323.79 222.17 323.01 222.24 322.42"/><line class="cls-6" x1="250.29" y1="92.5" x2="284.13" y2="280.47"/><polygon class="cls-7" points="283.29 279.78 284.1 280.35 284.67 279.53 284.78 280.12 284.21 280.93 283.39 280.37 283.29 279.78"/><line class="cls-6" x1="249.77" y1="92.54" x2="250.11" y2="443.74"/><polygon class="cls-7" points="249.41 442.91 250.11 443.61 250.81 442.91 250.81 443.51 250.11 444.21 249.41 443.51 249.41 442.91"/><line class="cls-6" x1="248.6" y1="92.3" x2="191.4" y2="223.24"/><polygon class="cls-7" points="191.08 222.2 191.44 223.13 192.37 222.76 192.13 223.31 191.21 223.67 190.84 222.75 191.08 222.2"/><line class="cls-6" x1="248.62" y1="92.31" x2="153.42" y2="315.24"/><polygon class="cls-7" points="153.09 314.2 153.47 315.12 154.39 314.75 154.15 315.3 153.23 315.67 152.86 314.75 153.09 314.2"/><line class="cls-6" x1="250" y1="92.54" x2="259.64" y2="214.9"/><polygon class="cls-7" points="258.88 214.13 259.63 214.78 260.28 214.02 260.33 214.62 259.68 215.37 258.93 214.72 258.88 214.13"/><line class="cls-6" x1="250.54" y1="92.44" x2="348.59" y2="454.37"/><polygon class="cls-7" points="347.7 453.75 348.56 454.25 349.06 453.38 349.21 453.96 348.72 454.82 347.86 454.33 347.7 453.75"/><line class="cls-6" x1="251.42" y1="92.04" x2="362.22" y2="255.58"/><polygon class="cls-7" points="361.17 255.29 362.15 255.48 362.33 254.5 362.67 255 362.48 255.97 361.51 255.79 361.17 255.29"/><line class="cls-6" x1="249.95" y1="92.54" x2="265.53" y2="349.8"/><polygon class="cls-7" points="264.78 349.02 265.52 349.68 266.18 348.94 266.22 349.53 265.56 350.28 264.82 349.62 264.78 349.02"/><line class="cls-6" x1="251.13" y1="92.21" x2="315.01" y2="214.63"/><polygon class="cls-7" points="314.01 214.23 314.96 214.52 315.25 213.58 315.53 214.1 315.23 215.05 314.29 214.75 314.01 214.23"/><line class="cls-6" x1="424.58" y1="471.39" x2="234.36" y2="347.79"/><polygon class="cls-7" points="235.43 347.65 234.46 347.85 234.66 348.82 234.16 348.5 233.96 347.53 234.93 347.32 235.43 347.65"/><line class="cls-6" x1="424.94" y1="470.94" x2="241.21" y2="291.75"/><polygon class="cls-7" points="242.29 291.83 241.3 291.84 241.31 292.83 240.88 292.42 240.87 291.42 241.87 291.41 242.29 291.83"/><line class="cls-6" x1="424.31" y1="471.93" x2="258.98" y2="407.59"/><polygon class="cls-7" points="260 407.23 259.09 407.63 259.49 408.54 258.94 408.33 258.54 407.42 259.44 407.02 260 407.23"/><line class="cls-6" x1="425.21" y1="470.7" x2="298.83" y2="312.82"/><polygon class="cls-7" points="299.89 313.02 298.9 312.91 298.8 313.9 298.42 313.44 298.53 312.45 299.52 312.56 299.89 313.02"/><line class="cls-6" x1="426.27" y1="470.16" x2="376.31" y2="286.27"/><polygon class="cls-7" points="377.2 286.88 376.34 286.39 375.85 287.25 375.69 286.68 376.18 285.82 377.05 286.31 377.2 286.88"/><line class="cls-6" x1="425.89" y1="470.3" x2="329.67" y2="245.55"/><polygon class="cls-7" points="330.64 246.03 329.72 245.66 329.35 246.58 329.12 246.03 329.48 245.11 330.41 245.48 330.64 246.03"/><line class="cls-6" x1="425.1" y1="470.8" x2="327.78" y2="360.89"/><polygon class="cls-7" points="328.85 361.04 327.86 360.98 327.8 361.98 327.4 361.53 327.46 360.54 328.46 360.6 328.85 361.04"/><line class="cls-6" x1="424.94" y1="470.94" x2="196.02" y2="246.98"/><polygon class="cls-7" points="197.1 247.06 196.11 247.07 196.12 248.06 195.69 247.64 195.68 246.65 196.67 246.64 197.1 247.06"/><line class="cls-6" x1="424.63" y1="471.33" x2="191.08" y2="310.43"/><polygon class="cls-7" points="192.16 310.31 191.18 310.5 191.36 311.47 190.87 311.13 190.69 310.16 191.67 309.98 192.16 310.31"/><line class="cls-6" x1="427.16" y1="470.06" x2="435.56" y2="262.79"/><polygon class="cls-7" points="436.23 263.65 435.56 262.92 434.83 263.59 434.85 263 435.58 262.32 436.25 263.05 436.23 263.65"/><line class="cls-6" x1="424.63" y1="471.33" x2="276.38" y2="369.03"/><polygon class="cls-7" points="277.45 368.92 276.48 369.1 276.66 370.07 276.17 369.73 275.99 368.76 276.96 368.58 277.45 368.92"/><line class="cls-6" x1="424.12" y1="472.69" x2="261.13" y2="455.93"/><polygon class="cls-7" points="262.02 455.31 261.25 455.94 261.88 456.71 261.28 456.65 260.66 455.88 261.43 455.25 262.02 455.31"/><line class="cls-6" x1="424.46" y1="471.61" x2="158.23" y2="328.95"/><polygon class="cls-7" points="159.29 328.72 158.34 329.01 158.63 329.96 158.1 329.68 157.81 328.72 158.76 328.44 159.29 328.72"/><line class="cls-6" x1="424.2" y1="472.26" x2="187.72" y2="411.69"/><polygon class="cls-7" points="188.69 411.21 187.84 411.72 188.34 412.57 187.77 412.42 187.26 411.57 188.11 411.06 188.69 411.21"/><line class="cls-6" x1="424.82" y1="471.08" x2="378.62" y2="431.27"/><polygon class="cls-7" points="379.7 431.28 378.71 431.35 378.79 432.35 378.33 431.95 378.26 430.96 379.25 430.89 379.7 431.28"/><line class="cls-6" x1="424.12" y1="472.68" x2="362.49" y2="466.2"/><polygon class="cls-7" points="363.38 465.59 362.61 466.21 363.23 466.98 362.64 466.92 362.02 466.15 362.79 465.52 363.38 465.59"/><line class="cls-6" x1="425.38" y1="470.58" x2="270.7" y2="246.06"/><polygon class="cls-7" points="271.75 246.34 270.77 246.16 270.59 247.14 270.25 246.65 270.43 245.67 271.41 245.85 271.75 246.34"/><line class="cls-6" x1="429.97" y1="473.02" x2="475.68" y2="453.15"/><polygon class="cls-7" points="475.2 454.13 475.57 453.2 474.64 452.84 475.19 452.6 476.12 452.97 475.75 453.89 475.2 454.13"/><line class="cls-6" x1="425.59" y1="470.44" x2="377.34" y2="385.48"/><polygon class="cls-7" points="378.36 385.85 377.4 385.58 377.14 386.54 376.84 386.02 377.11 385.07 378.06 385.33 378.36 385.85"/><line class="cls-6" x1="427.73" y1="470.14" x2="450.97" y2="373.91"/><polygon class="cls-7" points="451.46 374.88 450.94 374.03 450.09 374.55 450.23 373.97 451.08 373.45 451.6 374.3 451.46 374.88"/><line class="cls-6" x1="367.03" y1="92.39" x2="430.68" y2="236.98"/><polygon class="cls-7" points="429.7 236.51 430.63 236.87 430.99 235.94 431.23 236.49 430.87 237.41 429.94 237.05 429.7 236.51"/><line class="cls-6" x1="364.07" y1="92.04" x2="304.68" y2="169.69"/><polygon class="cls-7" points="304.63 168.61 304.76 169.59 305.74 169.46 305.38 169.94 304.39 170.07 304.26 169.08 304.63 168.61"/><line class="cls-6" x1="365.21" y1="92.57" x2="325.81" y2="269.45"/><polygon class="cls-7" points="325.31 268.49 325.84 269.33 326.68 268.8 326.55 269.38 325.71 269.91 325.18 269.07 325.31 268.49"/><line class="cls-6" x1="364.82" y1="92.45" x2="293.82" y2="281.35"/><polygon class="cls-7" points="293.45 280.33 293.87 281.24 294.77 280.82 294.56 281.38 293.65 281.79 293.25 280.89 293.45 280.33"/><line class="cls-6" x1="366.71" y1="92.51" x2="429.36" y2="298.05"/><polygon class="cls-7" points="428.45 297.46 429.33 297.93 429.79 297.06 429.97 297.63 429.5 298.5 428.63 298.04 428.45 297.46"/><line class="cls-6" x1="365.85" y1="92.64" x2="365.82" y2="173.56"/><polygon class="cls-7" points="365.12 172.73 365.82 173.43 366.53 172.73 366.53 173.33 365.82 174.03 365.12 173.33 365.12 172.73"/><line class="cls-6" x1="363.23" y1="91.02" x2="239.11" y2="153.43"/><polygon class="cls-7" points="239.53 152.43 239.22 153.37 240.17 153.68 239.63 153.95 238.69 153.64 239 152.7 239.53 152.43"/><line class="cls-6" x1="365.95" y1="92.64" x2="371.25" y2="252.64"/><polygon class="cls-7" points="370.52 251.84 371.25 252.52 371.93 251.8 371.95 252.39 371.27 253.12 370.54 252.44 370.52 251.84"/><line class="cls-6" x1="363.58" y1="91.56" x2="196.9" y2="227.42"/><polygon class="cls-7" points="197.1 226.35 197 227.34 197.99 227.44 197.53 227.82 196.54 227.72 196.64 226.73 197.1 226.35"/><line class="cls-6" x1="364.99" y1="92.51" x2="327.95" y2="213.44"/><polygon class="cls-7" points="327.52 212.45 327.98 213.32 328.86 212.86 328.69 213.43 327.81 213.89 327.34 213.02 327.52 212.45"/><line class="cls-6" x1="365.33" y1="92.59" x2="321.23" y2="337.53"/><polygon class="cls-7" points="320.68 336.59 321.25 337.4 322.07 336.84 321.96 337.43 321.14 337.99 320.58 337.18 320.68 336.59"/><line class="cls-6" x1="364.11" y1="92.07" x2="271.15" y2="218.18"/><polygon class="cls-7" points="271.07 217.1 271.22 218.09 272.2 217.94 271.85 218.42 270.87 218.56 270.72 217.58 271.07 217.1"/><line class="cls-6" x1="365.63" y1="92.63" x2="349.87" y2="303.64"/><polygon class="cls-7" points="349.23 302.77 349.88 303.52 350.63 302.87 350.58 303.47 349.83 304.12 349.18 303.36 349.23 302.77"/><line class="cls-6" x1="363.7" y1="91.69" x2="106.44" y2="328.73"/><polygon class="cls-7" points="106.57 327.66 106.53 328.65 107.52 328.69 107.08 329.09 106.09 329.05 106.13 328.06 106.57 327.66"/><line class="cls-6" x1="366.73" y1="92.5" x2="450.39" y2="357.27"/><polygon class="cls-7" points="449.48 356.7 450.36 357.16 450.81 356.28 450.99 356.85 450.54 357.73 449.65 357.27 449.48 356.7"/><line class="cls-6" x1="363.08" y1="90.65" x2="200.64" y2="145.94"/><polygon class="cls-7" points="201.19 145.01 200.75 145.91 201.64 146.34 201.08 146.54 200.19 146.1 200.63 145.21 201.19 145.01"/><line class="cls-6" x1="364.38" y1="92.24" x2="229" y2="325.36"/><polygon class="cls-7" points="228.81 324.3 229.07 325.26 230.03 325 229.73 325.52 228.77 325.77 228.51 324.81 228.81 324.3"/><line class="cls-6" x1="464.17" y1="155.69" x2="277.01" y2="225.95"/><polygon class="cls-7" points="277.54 225 277.13 225.9 278.03 226.31 277.48 226.52 276.57 226.11 276.98 225.21 277.54 225"/><line class="cls-6" x1="465.15" y1="157" x2="326.96" y2="340.04"/><polygon class="cls-7" points="326.9 338.95 327.04 339.94 328.02 339.8 327.66 340.27 326.68 340.41 326.54 339.43 326.9 338.95"/><line class="cls-6" x1="465.3" y1="152.21" x2="421.15" y2="85.44"/><polygon class="cls-7" points="422.19 85.74 421.22 85.54 421.02 86.51 420.69 86.01 420.89 85.04 421.86 85.24 422.19 85.74"/><line class="cls-6" x1="464.12" y1="155.52" x2="377.55" y2="182.21"/><polygon class="cls-7" points="378.13 181.3 377.67 182.18 378.54 182.64 377.97 182.82 377.1 182.35 377.56 181.47 378.13 181.3"/><line class="cls-6" x1="465.05" y1="156.92" x2="382.72" y2="256.56"/><polygon class="cls-7" points="382.71 255.47 382.8 256.46 383.79 256.37 383.41 256.83 382.42 256.92 382.33 255.93 382.71 255.47"/><line class="cls-6" x1="466.01" y1="157.45" x2="440.28" y2="236.5"/><polygon class="cls-7" points="439.87 235.5 440.32 236.38 441.2 235.93 441.02 236.5 440.13 236.95 439.68 236.06 439.87 235.5"/><line class="cls-6" x1="464.63" y1="156.49" x2="301.68" y2="287.05"/><polygon class="cls-7" points="301.88 285.98 301.77 286.97 302.76 287.08 302.3 287.45 301.31 287.34 301.42 286.36 301.88 285.98"/><line class="cls-6" x1="464.48" y1="156.29" x2="168.11" y2="355.56"/><polygon class="cls-7" points="168.4 354.52 168.21 355.49 169.18 355.68 168.69 356.02 167.71 355.83 167.9 354.85 168.4 354.52"/><line class="cls-6" x1="464.71" y1="156.59" x2="185.32" y2="401.65"/><polygon class="cls-7" points="185.48 400.58 185.41 401.57 186.4 401.63 185.95 402.02 184.96 401.96 185.03 400.97 185.48 400.58"/><line class="cls-6" x1="465.76" y1="157.35" x2="376.24" y2="365.7"/><polygon class="cls-7" points="375.92 364.66 376.29 365.58 377.21 365.21 376.98 365.76 376.06 366.13 375.69 365.21 375.92 364.66"/><line class="cls-6" x1="464.32" y1="156.02" x2="338.11" y2="221.89"/><polygon class="cls-7" points="338.52 220.88 338.22 221.83 339.17 222.13 338.64 222.4 337.69 222.11 337.99 221.16 338.52 220.88"/><line class="cls-6" x1="464.34" y1="156.06" x2="243.41" y2="275.91"/><polygon class="cls-7" points="243.8 274.9 243.52 275.85 244.47 276.13 243.95 276.42 243 276.13 243.28 275.18 243.8 274.9"/><circle class="cls-8" cx="516.82" cy="263.94" r="2.67"/><circle class="cls-9" cx="408.42" cy="204.15" r="5.09"/><circle class="cls-5" cx="555.45" cy="281.63" r="4.07"/><circle class="cls-10" cx="305.78" cy="507.5" r="2.67"/><circle class="cls-5" cx="312.65" cy="548.13" r="3.88"/><circle class="cls-5" cx="306.57" cy="570.9" r="3.88"/><circle class="cls-5" cx="277.95" cy="536.56" r="3.88"/><circle class="cls-5" cx="279.07" cy="561.98" r="3.88"/><circle class="cls-5" cx="149.96" cy="98.53" r="3.88"/><circle class="cls-5" cx="124.87" cy="115.79" r="3.88"/><circle class="cls-10" cx="95.57" cy="263.94" r="2.67"/><circle class="cls-5" cx="53.26" cy="243.05" r="4.41"/><circle class="cls-10" cx="192.24" cy="474.18" r="2.67"/><circle class="cls-8" cx="500.55" cy="383.64" r="2.67"/><circle class="cls-5" cx="547.45" cy="434.07" r="4.07"/><circle class="cls-5" cx="564.02" cy="408.05" r="4.07"/><circle class="cls-5" cx="516.04" cy="427.85" r="3.88"/><circle class="cls-5" cx="483.82" cy="451.98" r="5.09"/><circle class="cls-5" cx="531.25" cy="409.74" r="3.88"/><circle class="cls-5" cx="536.09" cy="457.97" r="3.88"/><circle class="cls-9" cx="453" cy="365.51" r="6.3"/><circle class="cls-5" cx="559.68" cy="390.7" r="3.88"/><circle class="cls-5" cx="533.56" cy="358.59" r="4.07"/><circle class="cls-5" cx="156.89" cy="54.49" r="3.88"/><circle class="cls-5" cx="201.41" cy="38.09" r="3.88"/><circle class="cls-5" cx="187.33" cy="56.47" r="3.88"/><circle class="cls-8" cx="427.04" cy="472.99" r="2.67"/><circle class="cls-10" cx="111.84" cy="382.85" r="2.67"/><circle class="cls-5" cx="64.34" cy="406.98" r="3.88"/><circle class="cls-11" cx="436.11" cy="249.32" r="11.15"/><circle class="cls-11" cx="432.59" cy="308.63" r="8.72"/><circle class="cls-11" cx="365.82" cy="185.83" r="9.93"/><circle class="cls-11" cx="411.07" cy="125.6" r="5.09"/><circle class="cls-11" cx="371.82" cy="269.75" r="14.78"/><circle class="cls-11" cx="318.84" cy="350.8" r="11.15"/><circle class="cls-11" cx="351.49" cy="465.04" r="8.72"/><circle class="cls-10" cx="145.19" cy="154.75" r="2.67"/><circle class="cls-11" cx="192.46" cy="148.73" r="6.3"/><circle class="cls-11" cx="231.4" cy="157.31" r="6.3"/><circle class="cls-11" cx="297.96" cy="178.48" r="8.72"/><circle class="cls-11" cx="260.99" cy="231.96" r="14.78"/><circle class="cls-11" cx="377.24" cy="329.5" r="6.3"/><circle class="cls-11" cx="301.66" cy="433.2" r="6.3"/><circle class="cls-11" cx="323.41" cy="280.25" r="8.72"/><circle class="cls-11" cx="287.37" cy="298.51" r="15.99"/><circle class="cls-11" cx="322.93" cy="229.81" r="14.78"/><circle class="cls-11" cx="371.88" cy="375.86" r="8.72"/><circle class="cls-11" cx="321.79" cy="315.65" r="6.3"/><circle class="cls-11" cx="412.52" cy="385.94" r="5.09"/><circle class="cls-11" cx="250.12" cy="454.8" r="8.72"/><circle class="cls-11" cx="297.31" cy="395" r="6.3"/><circle class="cls-11" cx="371.16" cy="424.84" r="7.51"/><circle class="cls-11" cx="444.75" cy="416.37" r="5.09"/><circle class="cls-11" cx="349.22" cy="312.26" r="6.3"/><circle class="cls-8" cx="249.77" cy="89.61" r="2.67"/><circle class="cls-11" cx="221.02" cy="339.12" r="13.57"/><circle class="cls-11" cx="210.56" cy="197.38" r="6.3"/><circle class="cls-11" cx="185.51" cy="236.7" r="12.36"/><circle class="cls-11" cx="231.56" cy="282.34" r="11.15"/><circle class="cls-11" cx="266.27" cy="362.06" r="9.93"/><circle class="cls-11" cx="417.05" cy="79.24" r="5.09"/><circle class="cls-11" cx="248.67" cy="403.58" r="8.72"/><circle class="cls-11" cx="88.02" cy="192.83" r="5.09"/><circle class="cls-11" cx="138.14" cy="270.25" r="6.3"/><circle class="cls-11" cx="182.97" cy="304.84" r="7.51"/><circle class="cls-11" cx="177" cy="408.94" r="8.72"/><circle class="cls-11" cx="149.55" cy="324.3" r="7.51"/><circle class="cls-11" cx="161.94" cy="359.71" r="5.09"/><circle class="cls-11" cx="100.98" cy="333.77" r="5.09"/><circle class="cls-8" cx="365.85" cy="89.71" r="2.67"/><circle class="cls-5" cx="372.44" cy="40.11" r="3.88"/><circle class="cls-5" cx="342.15" cy="59.68" r="3.88"/><circle class="cls-8" cx="466.92" cy="154.66" r="2.67"/><circle class="cls-5" cx="491.36" cy="121.61" r="3.88"/><circle class="cls-5" cx="468.31" cy="112.97" r="3.88"/><circle class="cls-5" cx="505.25" cy="167.64" r="3.88"/><circle class="cls-5" cx="510.22" cy="136.87" r="3.88"/><circle class="cls-5" cx="489.18" cy="91.91" r="3.88"/><circle class="cls-5" cx="531.67" cy="152.8" r="3.88"/><circle class="cls-5" cx="533.68" cy="122.19" r="3.88"/><circle class="cls-5" cx="514.74" cy="101.66" r="3.88"/><text class="cls-12" transform="translate(373.61 92.33)">p<tspan class="cls-13" x="5.84" y="0">r</tspan><tspan x="9.35" y="0">ofile 1</tspan></text><text class="cls-12" transform="translate(474.67 157.35)">p<tspan class="cls-13" x="5.84" y="0">r</tspan><tspan x="9.35" y="0">ofile 2</tspan></text><text class="cls-12" transform="translate(524.58 266.91)">p<tspan class="cls-13" x="5.84" y="0">r</tspan><tspan x="9.35" y="0">ofile 3</tspan></text><text class="cls-12" transform="translate(508.31 386.73)">p<tspan class="cls-13" x="5.84" y="0">r</tspan><tspan x="9.35" y="0">ofile 4</tspan></text><text class="cls-12" transform="translate(434.8 475.93)">p<tspan class="cls-13" x="5.84" y="0">r</tspan><tspan x="9.35" y="0">ofile 5</tspan></text><text class="cls-12" transform="translate(313.54 510.5)">p<tspan class="cls-13" x="5.84" y="0">r</tspan><tspan x="9.35" y="0">ofile 6</tspan></text><text class="cls-12" transform="translate(148.01 477.28)">p<tspan class="cls-13" x="5.84" y="0">r</tspan><tspan x="9.35" y="0">ofile 7</tspan></text><text class="cls-12" transform="translate(66.7 385.5)">p<tspan class="cls-13" x="5.84" y="0">r</tspan><tspan x="9.35" y="0">ofile 8</tspan></text><text class="cls-12" transform="translate(50.41 266.67)">p<tspan class="cls-13" x="5.84" y="0">r</tspan><tspan x="9.35" y="0">ofile 9</tspan></text><text class="cls-12" transform="translate(96.27 157.27)">p<tspan class="cls-13" x="5.84" y="0">r</tspan><tspan x="9.35" y="0">ofile 10</tspan></text><text class="cls-12" transform="translate(202.92 91.9)">p<tspan class="cls-13" x="5.84" y="0">r</tspan><tspan x="9.35" y="0">ofile 11</tspan></text></g></g></svg>