<svg xmlns="http://www.w3.org/2000/svg" viewBox="0 0 937.97 711.34"><defs><style>.cls-1,.cls-12,.cls-13,.cls-4{fill:none;}.cls-1,.cls-4,.cls-5{stroke:#000;}.cls-1,.cls-12,.cls-13,.cls-4,.cls-5{stroke-miterlimit:10;}.cls-1{stroke-width:0.75px;}.cls-15,.cls-2{fill:teal;}.cls-3{fill:#fec910;}.cls-4{stroke-width:0.42px;}.cls-5{fill:#fff;stroke-width:0.85px;}.cls-14,.cls-6{fill:#ffc90f;}.cls-7{font-size:17px;font-family:SimplonNorm, Simplon Norm;}.cls-8{letter-spacing:0em;}.cls-9{letter-spacing:0em;}.cls-10{letter-spacing:0em;}.cls-11{letter-spacing:-0.08em;}.cls-12{stroke:#ffc90f;}.cls-12,.cls-13{stroke-width:1.7px;}.cls-13{stroke:teal;}.cls-14,.cls-15{font-size:20px;font-family:SimplonNorm-Medium, Simplon Norm;}</style></defs><title>vis1Fichier 2</title><g id="Calque_2" data-name="Calque 2"><g id="modif"><path class="cls-1" d="M0,.38H894.57c29.86,0,43,8,43,42.67v370.1"/><path class="cls-2" d="M564.75,118.38a45,45,0,0,1-5.15-9.69,33.68,33.68,0,0,1,60.11-29.34c.3.47.62.93.93,1.38.45.83.89,1.67,1.33,2.5,0,.24,0,.52.31.64v0c0,.15-.07.42.27.32l0,0c-.16.39.07.7.2,1a33.14,33.14,0,0,1,2.34,13.2c0,1.2-.13,2.39-.21,3.91.35-1.21.57-2.1.86-3A23.56,23.56,0,0,1,635,87.48l3-1.67c.21,0,.51.16.52-.26l0,0c1.6-.38,3.2-.78,4.8-1.13a32.25,32.25,0,0,1,6.21-.3l2.86.56a2.42,2.42,0,0,0,.47.26c16,4.3,21.91,24.18,10.89,36.45-.74.82-1.53,1.61-2.29,2.41,10.41-5.11,19.06.44,22.19,6.39a15.86,15.86,0,0,1-5.09,20.64c0,.05,0,.09,0,.14s0,0,0,.06l0-.22c.78,0,1.56.07,2.35.08a11.28,11.28,0,0,1,10.94,10.85,12,12,0,0,1-4.26,9.31c-.15.07-.44.07-.18.35-.15,0-.31,0-.46,0v.12l.42-.17.4-.13c.36-.12.7-.25,1.07-.34a10.9,10.9,0,0,1,11.22,3.23,10.69,10.69,0,0,1,2.42,11.17,11.24,11.24,0,0,1-14.71,6.94l-.39-.14L687,192s0,.12,0,.13.29.17.45,0c-.27.29,0,.28.18.35.26.27.5.55.77.8a11.26,11.26,0,0,1,.92,15.33c-.22.28-.63.44-.56,1,.91-.1,1.82-.18,2.73-.3,1.59-.23,3.06.53,4.62.54l0,.21.18,0-.19-.14c-.2-.24-.39-.5-.61-.74a11,11,0,0,1-2.56-10.88,11.25,11.25,0,0,1,14.82-7.3l.39.15.43.15s0-.12,0-.12h-.45c.27-.29,0-.29-.18-.37-2.66-2.47-4.32-5.39-4.25-9.14a11.91,11.91,0,0,1,4.25-8.73c.15-.07.45-.07.19-.36l.45,0s0-.08,0-.12l-.43.17-.4.13c-.35.11-.7.25-1.06.33a10.91,10.91,0,0,1-11.23-3.22A10.64,10.64,0,0,1,693,158.58c1.33-4.06,4.3-6.46,8.51-7.54l-1.77-.42c-13-3.27-18.7-19.26-10.82-30.07a27.43,27.43,0,0,1,6.29-5.83l.46-.16c-.06,0-.12-.1-.19-.1s-.34,0-.25.27a1.17,1.17,0,0,0-.93.11,19.82,19.82,0,0,1-9.93.74c-12.89-2-20.07-17.61-13.3-28.81a23.19,23.19,0,0,1,7.45-7.43l3.15-1.42A25.83,25.83,0,0,1,692,77.37l4.83,1.7c6.33,3.76,10.1,9.15,10.55,16.92.31-.88.55-1.51.76-2.14a19.45,19.45,0,0,1,18.33-13.42,26.77,26.77,0,0,1,8,1.48l0,0c0,.34.38.27.59.39l2.65,1.55c.21.17.36.45.7.33h0c.28.61.86.93,1.33,1.35a19.47,19.47,0,0,1,5,7.29,20.62,20.62,0,0,1,1.35,8.09,18.42,18.42,0,0,1,4.24-6.19,16.47,16.47,0,0,1,10-4.31l4.68.45c.25.11.51.22.77.31a15.91,15.91,0,0,1,10.93,12.18c.18.78-.06,1.65.42,2.43.59-1.54,1.08-3,1.72-4.46a34.54,34.54,0,0,1,13.38-15.2h0l.31-.21L798.9,83c.27,0,.53,0,.67-.26l0,0c2.11-.31,4.15-.95,6.29-1.18A33.73,33.73,0,0,1,843,110.05a30.18,30.18,0,0,1-.18,10.72,7.47,7.47,0,0,0,0,1.25v0c-.42.2-.23.58-.26.9l-.84,2.91c-.13.29-.28.57-.4.87-8.19,21-32.77,28.53-51.31,15.63-.21-.14-.37-.43-.83-.28a16.54,16.54,0,0,1,.8,16c5.65-4.72,12-6.46,19-4.39s11.44,7,13.58,14.38a30,30,0,0,1,28.77-29.47l2.93,0a44.46,44.46,0,0,1,7,1.4c11.46,4,18.5,12,20.46,24,2.59,15.8-8.33,30.66-24.23,33.56a27.34,27.34,0,0,1-10.28,0,6.92,6.92,0,0,0-1,0,41.39,41.39,0,0,1,4.54,3c7.52,6.1,11.12,14,10.55,23.66-.76,13-11,23.59-24.06,25.3-2,.26-3.92.11-5.87.23l-.87,0c-.06-.07-.11-.19-.18-.19a27.93,27.93,0,0,1-15.63-7.54c-.15-.13-.3-.26-.46-.38l-.14-.18,0,.18.19,0c-.18.31,0,.48.23.63.2.41.39.83.62,1.23a26.93,26.93,0,0,1,3.49,16.14c-.23.25-.14.53-.09.81a26.21,26.21,0,0,1-1.3,5.67,35.84,35.84,0,0,1-4.1,7.83l0,0c-.24.11-.51.21-.32.57l0,0c-.44-.05-.52.25-.57.58h0c-.23,0-.29.11-.29.3v0c-1,.94-2,1.89-3,2.8a30.88,30.88,0,0,1-10.54,5.64l-2.65.57a38.57,38.57,0,0,1-8.32,0c-2.06-.3-4-1-6-1.44l0,0c-.09-.31-.35-.27-.59-.27L777.67,281l-.29-.23h0l-2.19-1.47a30,30,0,0,1-8.47-9.49l-.18-.42s-.06.08-.06.12,0,.36.27.27a3.84,3.84,0,0,0,0,1,20.13,20.13,0,0,1,.27,8.18,32.53,32.53,0,0,1-2,6.05l0,0a.41.41,0,0,0-.31.58l0,0c-.27,0-.27.15-.29.32l0,0c-.28.1-.33.32-.31.58l0,0a1.67,1.67,0,0,0-.42.32,20,20,0,0,1-9.68,7.23c-.63,0-1,.81-1.69.65a8.69,8.69,0,0,0-1.25,0,19,19,0,0,1-16.46-4.94c-.72-.67-1.34-1.45-2-2.17a11,11,0,0,0,.07,2.4,11.72,11.72,0,0,1-3.64,9.15l0,0-.44.31a8.17,8.17,0,0,1-1.81,1.21c-5,2.12-8.12,1.77-13.09-1.63a44.78,44.78,0,0,1,2.74,5.66,25.12,25.12,0,0,1,.11,16.68,1.57,1.57,0,0,0-.19,1.06l0,0c-.33,0-.25.26-.28.44L714,326.9a30,30,0,0,1-8.56,8l-2.23,1.14a29.57,29.57,0,0,1-13.65,2l-1.77-.3c-.19-.25-.48-.23-.75-.3a25.05,25.05,0,0,1-14.48-9.8,40.73,40.73,0,0,1-3.17-5.7l-1.11-3.78a31.05,31.05,0,0,1,.52-12.43,18.35,18.35,0,0,1-9.21,6.25l-4.68.45a16.49,16.49,0,0,1-10.26-4.5,23.72,23.72,0,0,1-2.9-3.62,2.61,2.61,0,0,0-.11.36,2,2,0,0,0,0,.42,19.34,19.34,0,0,1-2.27,14.77,32.57,32.57,0,0,1-4.53,5.27l0,0a.62.62,0,0,0-.58.3h0l-.44.3-1.44,1.14c-.27,0-.55-.09-.67.25h0c-1.77.51-3.43,1.34-5.27,1.68A32.65,32.65,0,0,1,620,329l-1.29-.22a26.48,26.48,0,0,1-6.92-3.08,52.41,52.41,0,0,1-4.66-4.27v0c.1-.3-.07-.46-.3-.6L604.33,316c0-.27.08-.6-.3-.74l0,0c-.19-1.33-.42-2.65-.57-4a24.36,24.36,0,0,1,1.14-8.93l0,0c.29,0,.24-.2.25-.37l2.28-3.94c.24-.09.26-.29.28-.5l0,0c1.29-1.06,2.31-2.42,3.66-3.43a23,23,0,0,1,7.14-3.53,23.4,23.4,0,0,1-4.89-.52,27,27,0,0,1-8.44-3.48l0,0c-.1-.25-.22-.49-.56-.32l0,0c0-.32-.14-.33-.37-.24l-.26-.24a.28.28,0,0,0-.25-.36l0,0c-.22-.29-.37-.68-.85-.6l0,0a50.78,50.78,0,0,1-4.39-5.7c-1-1.69-1.42-3.59-2.36-5.29a4.79,4.79,0,0,0-.54-1.88c.41-.19.27-.56.22-.85a22,22,0,0,1,2-12.91c.11-.23.52-.5.06-.87l-1.11.79a15.89,15.89,0,0,1-18.9-.17c-.54-.4-.88-1.09-1.65-1.18l0,0-.45-.59-1.67-2.21c-.12-.13-.12-.42-.42-.32h0c.21-.42-.17-.69-.32-1a16.23,16.23,0,0,1-1.74-9,29.26,29.26,0,0,1,1.41-5.58,9.62,9.62,0,0,0-1.35,1.26,35.4,35.4,0,0,1-16.93,10,41.33,41.33,0,0,1-12.34,1l-.91-.09a36.2,36.2,0,0,1-16.62-6.71,34.54,34.54,0,0,1-14.08-23.57,35.17,35.17,0,0,1,17.22-35.68,6.34,6.34,0,0,0,.65-.51l5.32-2.48c.36,0,.75.13,1-.3l0,0a3.16,3.16,0,0,0,.69,0,36.31,36.31,0,0,1,13-1.41c2.48.13,4.85.81,7.27,1.17l6.25,2.5a45.65,45.65,0,0,1,8.84,6.56c1.71,1.72,3.1,3.69,4.69,5.5l.16.4s.06-.07.06-.11,0-.35-.24-.26c0-2.18-.35-4.36.15-6.53,1.58-6.92,6.54-11.51,13.76-12.67a1.26,1.26,0,0,0-1-.42,21.88,21.88,0,0,1-8.49-3,26.72,26.72,0,0,1-7.51-7.17l0,0a25.68,25.68,0,0,1-3.41-14.07l0-.43c.35-1.44.58-2.92,1.06-4.31,3.05-8.92,9.39-14,18.8-15.65-2-.37-3.8-.64-5.59-1.06A34.49,34.49,0,0,1,568.11,122l0,0a.3.3,0,0,0-.37-.24L565.38,119l-.36-.38,0,0a.31.31,0,0,0-.29-.31Zm120.3,54.09.45,0s0-.08,0-.12l-.43.16-.39.14a11.64,11.64,0,0,1-8.14,0l-.38-.14-.44-.16s0,.11,0,.12.3.17.45,0c-.27.28,0,.28.18.36a13.53,13.53,0,0,1,4.28,7.13,12.78,12.78,0,0,1,4.22-7.13C685,172.75,685.32,172.76,685.05,172.47Zm-22.44,0,.46,0v-.12l-.42.17-.41.13a11.61,11.61,0,0,1-8.13,0l-.39-.14-.44-.16s0,.11,0,.12.3.17.45,0c-.27.28,0,.28.18.36a13.38,13.38,0,0,1,4.26,7.12,13.09,13.09,0,0,1,4.23-7.12C662.57,172.76,662.87,172.76,662.61,172.47Zm-22.45,57.31c.27-.29,0-.29-.18-.36l-1-1a11,11,0,0,1-2.8-11.18,13.9,13.9,0,0,1,2.92-5,16.14,16.14,0,0,1-5.07.28,12.77,12.77,0,0,1-4.64-1.79c-.12,0-.31-.09-.33-.06s0,.24.16.28a1.75,1.75,0,0,0,.08.41,19.41,19.41,0,0,1-.79,19.63c0,.11-.09.29,0,.32s.22,0,.26-.14a11.79,11.79,0,0,1,11-1.57l.39.15.44.16s0-.12,0-.12Zm101.56-37.67.45,0a.42.42,0,0,0,0-.13l-.42.17-.41.14a11.72,11.72,0,0,1-8.13,0l-.4-.14-.43-.17s0,.12,0,.13.3.17.45,0c-.26.29,0,.28.19.35a13.6,13.6,0,0,1,4.28,7.14,12.88,12.88,0,0,1,4.21-7.14C741.68,192.39,742,192.4,741.72,192.11Zm-22.45,0,.46,0a.85.85,0,0,1,0-.13l-.43.17-.4.14a11.72,11.72,0,0,1-8.13,0l-.4-.14L710,192s0,.12,0,.13.3.17.45,0c-.26.29,0,.28.19.35a13.51,13.51,0,0,1,4.26,7.13,13,13,0,0,1,4.23-7.13C719.24,192.39,719.54,192.39,719.27,192.11Zm-45.44,0,.45,0s0-.08,0-.13l-.43.17-.39.14a11.75,11.75,0,0,1-8.14,0l-.39-.15-.43-.15s0,.11,0,.12.3.17.45,0c-.27.29,0,.29.18.36a13.6,13.6,0,0,1,4.28,7.14,12.85,12.85,0,0,1,4.21-7.14C673.8,192.39,674.09,192.39,673.83,192.11Zm-22.44,0,.45,0a.42.42,0,0,0,0-.13l-.42.17-.41.14a11.72,11.72,0,0,1-8.13,0l-.4-.14-.43-.17s0,.12,0,.13.3.17.45,0c-.26.29,0,.28.19.35A13.6,13.6,0,0,1,647,199.6a12.88,12.88,0,0,1,4.21-7.14C651.35,192.39,651.65,192.4,651.39,192.11Zm92.68-1.05-.45,0a.85.85,0,0,1,0,.13L744,191l.4-.14c4.39-1.53,8.35-.66,12.15,2.58-2.8-6.28-2.26-11.89,1.58-17.42a11.75,11.75,0,0,1-11.54-.68,13.43,13.43,0,0,1,1.88,5.71,11.79,11.79,0,0,1-4.25,9.61C744.11,190.78,743.81,190.77,744.07,191.06Zm-13.58-18.59.46,0s0-.08,0-.12l-.43.16-.4.14a11.61,11.61,0,0,1-8.13,0l-.4-.14-.43-.16s0,.11,0,.12.3.17.45,0c-.26.29,0,.29.19.36a13.38,13.38,0,0,1,4.26,7.12,13,13,0,0,1,4.23-7.12C730.46,172.75,730.76,172.76,730.49,172.47Zm22.77-52.13c.12-.29-.11-.25-.27-.28-.11-.3-.32-.33-.59-.26,0-.34-.2-.44-.52-.33,0-.08,0-.21,0-.24a16.49,16.49,0,0,1-6.71-13.06s.05,0,.07-.07h-.08a.43.43,0,0,0-.09.1c-.16.38-.31.76-.49,1.13-3.4,7.29-9,11.37-17.12,11.91a22.49,22.49,0,0,1-9.24-1.72c0-.23-.25-.32-.35-.16s.14.22.28.27a19.93,19.93,0,0,1,6,13.37c.12,0,.18-.05.19-.08.2-.47.37-.95.58-1.42,3.34-7.34,9-11.42,17.07-12a21.79,21.79,0,0,1,9.88,2c.08.29.33.26.56.29a.39.39,0,0,0,.58.26c-.11.28.11.26.27.28.09.28.31.31.55.3.11.4.49.53.78.76A19,19,0,0,1,762.27,136a20.45,20.45,0,0,1-.95,7.38c5.7-8.48,13.18-10.72,22.73-6.46a34.69,34.69,0,0,1-8.12-24.46,4.1,4.1,0,0,0-.57.92,15.89,15.89,0,0,1-15.73,8.76,25.9,25.9,0,0,1-5.76-1.53A.42.42,0,0,0,753.26,120.34ZM575.67,234.19l-.15.33s.12,0,.12,0,0-.23,0-.35c.23.2.32,0,.39-.16a4.74,4.74,0,0,0,.58-.36,15.78,15.78,0,0,1,19.4-1.41c.2.13.36.49.67.23-5.84-9.06-5.3-17.69,1.8-26-9.84,2.54-11.53,2.21-19.33-3.66-.25.45.1.8.21,1.16a36,36,0,0,1,.54,20.65,46.34,46.34,0,0,1-3.95,9.32Zm157.18-62.77-.45,0s0,.08,0,.12l.43-.17.4-.13a11.64,11.64,0,0,1,10.34,1.12c-3.16-5.68-2.32-12.61,4.57-16.71a22.9,22.9,0,0,1-6.9.56,23.37,23.37,0,0,1-6.89-1.8,12,12,0,0,1,2.94,7.16c.18,3.87-1.48,6.91-4.24,9.47C732.89,171.14,732.59,171.14,732.85,171.42Zm0,59.4c-.27.28,0,.28.18.36a12,12,0,0,1,4.27,9.42c3.79-6.59,7.56-8.16,15.3-6.41a16.27,16.27,0,0,1-4.5-10.16c-3.15,7.27-10,8.85-14.89,6.95l-.39-.14-.44-.16s0,.11,0,.12S732.71,231,732.86,230.82Zm-13.59,0,.46,0a.68.68,0,0,1,0-.12l-.43.16-.4.14a11.61,11.61,0,0,1-8.13,0l-.4-.14-.43-.16s0,.11,0,.12.3.17.45,0c-.26.29,0,.29.19.36a13.45,13.45,0,0,1,4.26,7.12,13,13,0,0,1,4.23-7.12C719.24,231.1,719.54,231.11,719.27,230.82Zm-31.86,0c-.27.28,0,.28.18.36l1.07,1.09a11.21,11.21,0,0,1,2.14,12.55,11.48,11.48,0,0,1-8.06,6.39c8.74,1.82,14.71,7.87,16,16.61a18.35,18.35,0,0,1-2.54,12.48,20.63,20.63,0,0,1-9.57,8.32,35.08,35.08,0,0,1,6.68-.65,24.09,24.09,0,0,1,6.75,1,25,25,0,0,1,6.08,2.73,44,44,0,0,1,5.29,4.12,11.84,11.84,0,0,1-.5-8.91,11.56,11.56,0,0,1,6.15-6.67c-9.91,1-15.74-5.07-17.65-10.75a15.91,15.91,0,0,1,6.19-18.11l0-.18.07.21a4.65,4.65,0,0,0-1.93-.07,11.25,11.25,0,1,1,3.94-21.74l.39.15.43.16s0-.12,0-.12l-.45,0c.27-.29,0-.29-.18-.36-.25-.27-.5-.54-.76-.8a11.25,11.25,0,0,1-.93-15.33c.22-.27.63-.44.55-1a19,19,0,0,1-3.84.38c-1.2,0-2.29-.68-3.5-.56l0-.2-.18,0,.19.14c.2.25.4.5.61.74a11,11,0,0,1,2.56,10.88,11.25,11.25,0,0,1-14.82,7.3l-.38-.14-.44-.16s0,.11,0,.12S687.26,231,687.41,230.82Zm-13.58,0,.45,0s0-.08,0-.12l-.43.16-.39.14a11.64,11.64,0,0,1-8.14,0l-.39-.14-.44-.16s0,.11,0,.12.29.17.45,0c-.27.29,0,.29.18.36a13.38,13.38,0,0,1,4.26,7.12,13.09,13.09,0,0,1,4.23-7.12C673.8,231.1,674.09,231.11,673.83,230.82Zm-22.44,0,.45,0s0-.08,0-.12l-.42.17L651,231a11.61,11.61,0,0,1-8.13,0l-.39-.14-.44-.16s0,.11,0,.12.3.17.45,0c-.27.28,0,.28.18.36A13.38,13.38,0,0,1,647,238.3a13.09,13.09,0,0,1,4.23-7.12C651.35,231.11,651.65,231.11,651.39,230.82ZM762.28,159.3l-.13-.4a16.69,16.69,0,0,1-2.3-7.61,33.55,33.55,0,0,1,.71-6c.24,0,.28-.12.26-.3s-.09-.11-.13-.16l-.11.48a22.27,22.27,0,0,1-8,8.48,4.76,4.76,0,0,0-1.93,1.22,11.88,11.88,0,0,1,11.32,4.08l.21.36c.08.19.14.4.39.44.08.21.14.44.24.64a11.1,11.1,0,0,1,0,11.08c-.1.18-.33.36,0,.59a15.82,15.82,0,0,1,12.4-1.44,16.64,16.64,0,0,1,9.76,7.85,2.28,2.28,0,0,0,0-.88,20.37,20.37,0,0,1-.47-9,31.72,31.72,0,0,1,2-6c.14,0,.24-.1.16-.27l-.31.14A15.93,15.93,0,0,1,771.87,166a16.33,16.33,0,0,1-9.19-6.22C762.6,159.59,762.53,159.38,762.28,159.3Zm-154,9.63c.11-.22.4-.42.11-.71.47.16.64-.06.66-.5.41.15.57-.23.79-.42a15.44,15.44,0,0,1,9.09-3.85,13,13,0,0,1,2.79,0l2.59.31a21.24,21.24,0,0,1-10.41-11.42,25,25,0,0,1-1.46,9.18,34,34,0,0,1-3.37,6.22l-.65.49c-.1.23-.35.43-.13.71l-.22-.09-.06.34c-.46-.23-.54.23-.74.42a23.48,23.48,0,0,1-7.55,4.93,21.09,21.09,0,0,1-3.45,1c-1.17.23-2.35.44-3.79.7a16.54,16.54,0,0,1,12.66,8.18c-1.52-5.58-.75-10.71,2.84-15.3Zm43.09,2.5c.26-.29,0-.29-.19-.36a12.4,12.4,0,0,1-4.14-7.24,13.48,13.48,0,0,1,.59-5.88c-5.79,6.55-12.7,8.48-20.76,6.76a16.6,16.6,0,0,1,6.46,5.5,15.31,15.31,0,0,1,2.78,8c3.1-7.23,9.92-8.9,14.89-7l.4.15.43.16a.68.68,0,0,1,0-.12Zm159.39,66.16.15.18,0-.18-.19,0c.18-.3,0-.48-.23-.62a6.11,6.11,0,0,0-.26-.64,27.83,27.83,0,0,1-4-16c.05-1,.5-1.92.15-3.05-3.13,4.9-7.37,7.75-13.12,8s-10.3-2.19-13.93-6.61c1.15,5.73,0,10.78-3.91,15.15.87.15,1.37-.44,1.94-.78A26.8,26.8,0,0,1,790,229.48a27.43,27.43,0,0,1,20.3,7.73Zm-89.14-7.76a10.68,10.68,0,0,1,8.85,0l.47.08s0-.12,0-.12c-.17-.06-.34-.11-.47.07,0-.12.1-.31.06-.34a12.62,12.62,0,0,1-4.48-7.22,12.32,12.32,0,0,1-4.45,7.22s0,.22,0,.34c-.13-.19-.3-.13-.46-.07s0,.08,0,.12Zm-36.6,0,.47.08s0-.12,0-.12-.34-.11-.47.07c0-.12.11-.31.06-.34a12.62,12.62,0,0,1-4.48-7.22,12.31,12.31,0,0,1-4.44,7.22s0,.22.05.34c-.13-.19-.3-.13-.47-.07s0,.08,0,.12l.47-.07A10.66,10.66,0,0,1,685,229.82Zm-22.44,0,.47.08s0-.12,0-.12-.34-.11-.47.07c0-.12.1-.31.06-.34a12.62,12.62,0,0,1-4.48-7.22,12.31,12.31,0,0,1-4.44,7.22c-.05,0,0,.22,0,.34-.13-.19-.31-.13-.47-.07s0,.08,0,.12l.47-.07A10.68,10.68,0,0,1,662.6,229.82Zm47.82-58.34a10.68,10.68,0,0,1,8.85,0l.47.08s0-.12,0-.12-.33-.11-.46.07c0-.12.1-.31.06-.34a12.56,12.56,0,0,1-4.47-7.21,12.52,12.52,0,0,1-4.46,7.21s0,.22,0,.34c-.13-.19-.3-.13-.46-.07s0,.08,0,.12Zm11.22,19.63a10.68,10.68,0,0,1,8.85,0l.47.08c0-.05,0-.12,0-.13-.17-.06-.34-.11-.47.08,0-.12.1-.31.06-.35a12.59,12.59,0,0,1-4.48-7.21,12.27,12.27,0,0,1-4.45,7.21s0,.23,0,.34c-.13-.18-.3-.12-.46-.06s0,.08,0,.12Zm-36.6,0,.47.08c0-.05,0-.12,0-.13s-.34-.11-.47.08c0-.12.11-.31.06-.35a12.59,12.59,0,0,1-4.48-7.21,12.25,12.25,0,0,1-4.44,7.21s0,.23.05.34c-.13-.18-.3-.12-.47-.06s0,.08,0,.12l.47-.08A10.66,10.66,0,0,1,685,191.11Zm-31.29,0a10.68,10.68,0,0,1,8.85,0l.47.08c0-.05,0-.12,0-.13s-.34-.11-.47.08c0-.12.1-.31.06-.35a12.59,12.59,0,0,1-4.48-7.21,12.25,12.25,0,0,1-4.44,7.21c-.05,0,0,.23,0,.34-.13-.18-.31-.12-.47-.06s0,.08,0,.12Zm20.07-19.64.47.08s0-.12,0-.12-.34-.11-.47.07c0-.12.1-.31.06-.34A12.49,12.49,0,0,1,669.4,164a12.63,12.63,0,0,1-4.46,7.21c-.05,0,0,.22,0,.34-.13-.19-.3-.13-.47-.07,0,0,0,.08,0,.12l.48-.07A10.66,10.66,0,0,1,673.82,171.47Zm-33.66,19.64.47.08c0-.05,0-.12,0-.13s-.34-.11-.47.08c.27-.66-.41-.73-.68-1a12.18,12.18,0,0,1-3.39-5.51c-.11-.36.11-.87-.48-1.08a17.55,17.55,0,0,1-4.4,7.38A11.94,11.94,0,0,1,640.16,191.11Zm57.28-77.53c.44.18.79-.09,1.18-.21a23.26,23.26,0,0,1,4.77-.92,22.83,22.83,0,0,1,9.77,1.71l.26.23.13-.15-.34-.16a22.39,22.39,0,0,1-5-8,20.59,20.59,0,0,1-1-5.62c-.25.27-.4.35-.42.46a17.29,17.29,0,0,1-3.3,7.25,25.74,25.74,0,0,1-6,5.48l-.45.15c.06,0,.12.11.18.11S697.52,113.83,697.44,113.58ZM667.6,286.19c.12-.08.22-.17,0-.25v.24c3.65,4.1,4.48,8.9,3.57,14.19a26.63,26.63,0,0,1,13-10.88,8.31,8.31,0,0,0-1,0,19.38,19.38,0,0,1-15-3.25A.49.49,0,0,0,667.6,286.19ZM650.5,153.9a11.67,11.67,0,0,1,10.74-2.64c-4.4-3.22-6.93-7.1-7.36-12.22s1.4-9.32,4.81-13.07a24.35,24.35,0,0,1-17.22,2.51,10,10,0,0,0,1.34,1,19.12,19.12,0,0,1,8.94,15.46,22.7,22.7,0,0,1-1.47,8.75c-.21.08-.3.3-.17.42S650.37,154,650.5,153.9Zm106.12,83.43v-.2l-.16.06.19.12c.18.31.35.64.56.95a11.23,11.23,0,1,1-19.39,11.19,12.61,12.61,0,0,1-1.14-5.55,11.69,11.69,0,0,1-5.53,6.23A12,12,0,0,1,723,251c5.64,4.13,8,9.31,7.26,16.13,3.89-6.86,9.35-10.8,17.07-11s13.46,3.35,17.66,9.71a1.68,1.68,0,0,0-.07-.58,27.1,27.1,0,0,1-.11-16.24,29.24,29.24,0,0,1,7.54-12.22c.13,0,.26-.07.17-.23s-.21,0-.33.06a16.49,16.49,0,0,1-10.56,2.14C759.88,238.52,758.33,237.66,756.62,237.33ZM758.78,197c.12-.15.21-.3,0-.39l.07.37c1.73,4,1,7.77-1.42,11.44,7.93-2.77,14.43-1,19.78,5.59-2.68-12.09,6.39-20.4,15.34-20.37a16,16,0,0,1,15.9,17.67,28.17,28.17,0,0,1,12.66-13.51,27.57,27.57,0,0,1,18.31-2.65A30.43,30.43,0,0,1,823,173.32c-.13.81-.26,1.59-.38,2.36-2.22,13.77-18.94,20.65-30.27,12.48a24.31,24.31,0,0,1-6.51-7.51l-.11-.48c-.05.06-.13.11-.13.16s0,.34.26.3a1.91,1.91,0,0,0,.14,1.08,15,15,0,0,1,.31,7.2c-1.29,6-4.86,10.25-10.73,12.14s-11.11.63-15.7-3.46C759.56,197.34,759.41,196.68,758.78,197ZM640.13,264.68c1,12.61-4.68,21.2-17.16,25.55,7.82.37,13.33,4,17.32,10.7-1.41-7.34.4-13.22,6.26-17.36s11.93-3.82,18.1-.41c-3.71-4.58-5-9.8-4.43-15.82C654.81,274.2,643.88,273.88,640.13,264.68Zm-15.63-160c-4.4,15.57-14.49,24.42-30.76,26.75a22.6,22.6,0,0,1,12,5.1,23.65,23.65,0,0,1,7.11,10.38A19.24,19.24,0,0,1,620,130.93c4.86-4.11,10.57-5.16,16.77-4.18C628.26,121.76,624.19,114.45,624.5,104.64ZM601.68,252.26c7.6-6.74,16.1-8.33,25.78-4.46-3.31-4.15-3.75-8.4-1.6-13.29-8.52,6.79-17,7.14-26,1.21C603.47,241.13,604,246.5,601.68,252.26Zm.82-48.89c8.13-3.8,15.73-3.06,23,2.8-1.81-4.94-1-9.09,2.31-12.77-8.8,3.6-15.93,1.49-21.59-6.49C607.9,193.27,606.77,198.65,602.5,203.37Zm127.6-51.85a19.74,19.74,0,0,1-6.65-14.09c-3,8-8.45,12.5-16.79,13.84a11.74,11.74,0,0,1,8.16,9.31C716.48,153.3,722.71,149.45,730.1,151.52Zm-68,109.85c5.1-7,5.1-7,15.25-10.46-4.32-1.52-6.94-4.5-8-9.29-1.69,6.6-5.77,9.74-12.4,9.79A11.67,11.67,0,0,1,662.13,261.37Zm-22.56.75a11.75,11.75,0,0,1,3.29-9.09c2.45-2.53,5.54-3.51,9.32-3.41a12.3,12.3,0,0,1-5.24-7.69,11.69,11.69,0,0,1-5.23,7.7,12.3,12.3,0,0,1-9.13,1.49,30.05,30.05,0,0,1,4.2,5.09A33,33,0,0,1,639.57,262.12Zm89.18,9.76a17.91,17.91,0,0,1-8.06,7.43,12.79,12.79,0,0,1,9,3.26A22.87,22.87,0,0,1,728.75,271.88ZM664.46,152.76a13,13,0,0,1,5,7.55,13.12,13.12,0,0,1,4.34-7.23A17.65,17.65,0,0,1,664.46,152.76ZM710.74,249a19,19,0,0,1,9,.43,12.74,12.74,0,0,1-4.88-7.49A13.41,13.41,0,0,1,710.74,249Zm41.41-36.84a13,13,0,0,1-7.41-.12,12.85,12.85,0,0,1,3.79,7.07A19,19,0,0,1,752.15,212.16Zm-82.77-8.9a13,13,0,0,1-3.69,6.57,16,16,0,0,1,3.74-.59,19.67,19.67,0,0,1,3.62.53,14.81,14.81,0,0,1-2.31-3A22.56,22.56,0,0,1,669.38,203.26Zm-18.91,6.43a13.77,13.77,0,0,1-3.55-6.45,12.9,12.9,0,0,1-3.74,6.65A12.38,12.38,0,0,1,650.47,209.69Zm64.37-6.46a13.05,13.05,0,0,1-3.8,6.65,12,12,0,0,1,7.62,0A13,13,0,0,1,714.84,203.23Zm26.26,6.65a13,13,0,0,1-3.81-6.65,13.2,13.2,0,0,1-3.87,6.71A11.82,11.82,0,0,1,741.1,209.88ZM654.34,212a13,13,0,0,1,3.84,6.66A13,13,0,0,1,662,212,12.1,12.1,0,0,1,654.34,212Zm26.28,7a13.09,13.09,0,0,1,3.78-7,11.85,11.85,0,0,1-7.35.1C679.55,215.3,679.82,215.82,680.62,219Zm41.64-7a13,13,0,0,1,3.8,6.65,13.05,13.05,0,0,1,3.82-6.65A12.11,12.11,0,0,1,722.26,212Zm-80.81,91.79s-.05.09,0,.13.1.15.15,0a.16.16,0,0,0,0-.12S641.47,303.79,641.45,303.79ZM748.7,155.63l.22-.07-.17-.11s-.08,0-.11,0Zm58,61.2a.84.84,0,0,0,0,.12c0,.15.1.15.14,0s0-.08,0-.12ZM669,305.45s.08-.06.08-.09,0-.07-.07-.1-.08.05-.08.08S668.94,305.41,669,305.45Zm-29.66-93.24s-.06-.08-.09-.08-.06.05-.09.08,0,.07.09.08S639.28,212.24,639.31,212.21Zm67.8-.08-.1.07s0,.08.09.09.06,0,.1-.07Zm70.23,2-.07-.1s-.08.06-.09.09.05.06.07.1Zm1.9,4.14s-.08,0-.09.08.05.07.07.1.08-.06.08-.09S779.26,218.33,779.24,218.3ZM630.87,191.12l0,0,.08,0Zm30.36-67s-.05-.08-.08-.08-.07,0-.1.07l.13.1Zm68.7,158.77-.07-.1s-.09.05-.09.08,0,.07.07.1ZM578.87,202.42l.08.05v-.1Zm109.5,7.17-.11.08s.06.08.09.08.07-.05.1-.07Zm-56,41.33-.1,0V251Z"/><path class="cls-3" d="M561.9,183.44l-6.25-2.5-.87-.9A11.19,11.19,0,0,1,556.54,163c.68-.46,1.42-.82,2.42-1.39-5,.14-8.66-1.85-11.35-6.2v1.13q.18,15.38-12.46,24.14c-.2.14-.56.19-.41.59l0,0c-.44-.28-.66.15-1,.3L528.47,184c-1.81.2-3.55.76-5.37,1a27.47,27.47,0,1,1,22.68-37.1c.18.48.37.95.69,1.8a12.54,12.54,0,0,1,3.22-7.07,12.78,12.78,0,0,1,6.74-3.5,11.63,11.63,0,0,1-8.09-6.08,11.2,11.2,0,0,1,14.94-15.13c.46.22.83.78,1.47.52v0c-.14.33,0,.34.29.31l0,0c0,.28.15.34.36.38.8.92,1.59,1.84,2.38,2.77.09.13.12.35.37.24l0,0c-.18.42.14.7.28,1a11.15,11.15,0,0,1-8.14,15.88c-.28.05-.62,0-.77.38,5.9,1.06,9.42,5.51,9.49,12l0,.43a11.68,11.68,0,0,1-7.3,9.18,4.82,4.82,0,0,0,.62.13,11.22,11.22,0,0,1,9.47,4.43c.15.19.24.54.62.33l0,0c-.29.53.19.85.38,1.22a10.89,10.89,0,0,1,1.2,6.64C572.94,179.76,568.48,183.39,561.9,183.44Z"/><path class="cls-3" d="M595.36,272.13a4.79,4.79,0,0,1,.54,1.88A12.4,12.4,0,0,1,592,284.09a13.21,13.21,0,0,1,6.84-.5c1.33.29,2.48,1,3.77,1.41l0,0a.81.81,0,0,0,.85.6l0,0c0,.2.11.28.25.36l.26.24.37.24,0,0c.1.26.17.57.56.32l0,0c-.22.63.38.87.64,1.24a11.08,11.08,0,0,1,2.14,6.25,33.93,33.93,0,0,1-.25,3.47l0,0c-.3.05-.22.31-.28.5l-2.28,3.94c-.08.12-.17.24-.25.37l0,0a5.72,5.72,0,0,0-.57.39A11.21,11.21,0,0,1,588.15,287c.21-.25.64-.42.4-1a11.58,11.58,0,0,1-10.18-1.19l-.34-.06.13.33c.14.34.26.69.42,1a19.3,19.3,0,0,1-3.41,21.79c-.57.61-1.15,1.2-1.73,1.8l0,0c-.18,0-.32.08-.3.31l0,0c-.22,0-.38,0-.3.3l0,0c-.31-.14-.48,0-.59.29h0c-.18,0-.33.07-.3.3l0,0c-.21,0-.43,0-.3.3l0,0c-.49-.28-.77.17-1.1.35a19.41,19.41,0,0,1-29-16c0-.08,0-.17-.1-.52a11.62,11.62,0,0,1-6,6.94,10.83,10.83,0,0,1-8.83.38A11.13,11.13,0,0,1,519.77,290c1.06-6,5.42-9.37,12.3-9.49.07-.52-.42-.54-.69-.7a15.82,15.82,0,0,1,8.66-29.4l1.26,0,.91.09c6.32,1.39,10.52,5.16,12.64,11.47.14-.62.25-1.07.33-1.51a11.18,11.18,0,0,1,12.83-9,17.72,17.72,0,0,1,5.47,2.33h0c0,.26.18.33.42.32l1.67,2.21.45.59,0,0a12,12,0,0,1,.16,10.92C583.81,260.74,593.41,265.24,595.36,272.13Zm-46.06,6.66a.62.62,0,0,0-.55.46s0,.08.08.08c.3,0,.46-.18.61-.38l.15-.3C549.43,278.56,549.35,278.66,549.3,278.79Zm25,1.23a12.75,12.75,0,0,1,.2-9.78c-3.13,2.85-6.65,4.15-10.77,3.24s-6.82-3.58-8.46-7.8a16.67,16.67,0,0,1-5.5,12.8C558.35,273.48,566.45,274,574.34,280ZM542,290.2a34.75,34.75,0,0,1,2.5-5.73,42.14,42.14,0,0,1,4-5,17.43,17.43,0,0,1-12.69,2.19A12.11,12.11,0,0,1,542,290.2ZM589.08,286l-.09,0q-.16.07,0,.15s.06,0,.08,0S589.08,286,589.08,286Zm-14.63-5.68-.05.08h.07Z"/><path class="cls-3" d="M726.92,300.54a8.17,8.17,0,0,0,1.81-1.21c.21,0,.42,0,.44-.31l0,0c.61.13,1.06-.29,1.58-.46a11.05,11.05,0,0,1,11.94,2.91,12,12,0,0,1,2.36,3.74c.21-1.09.33-2.07.58-3,1-3.7,3.5-6,6.83-7.63.71.16,1.06-.62,1.69-.65.12.07.25.22.36.2,3.72-.62,6.88.65,9.74,2.92l.12.18,0-.15h-.19c.21-.56-.21-1-.37-1.44a11.22,11.22,0,0,1-.23-7.15c.2-.7.71-1.31.62-2.1l0,0c.36-.05.44-.26.31-.58l0,0c.29.07.3-.11.29-.32l0,0c.31-.08.44-.26.31-.58l0,0c.59,0,.7-.53,1-.84a11.81,11.81,0,0,1,6.11-3.42,17.5,17.5,0,0,1,5.26.06h0l.29.23,3.08,1.47a.52.52,0,0,0,.59.27l0,0c.13.55.65.77,1,1.12a11.25,11.25,0,0,1,2.23,12.44,11.65,11.65,0,0,1-6.58,6.06,12.13,12.13,0,0,1,9,4.81l0,0c.23.43.28,1,.86,1.15l0,0c0,1,.63,1.83.84,2.78a11.24,11.24,0,0,1-6.06,12.64,3.12,3.12,0,0,0-.74.47c6.24-.87,11.85.47,16.58,4.69a19.12,19.12,0,0,1,6.5,16c-.5,9.69-9.11,17.77-19.11,17.85a18.76,18.76,0,0,1-15.3-7.17c-3.9-4.74-5-10.27-4.1-16.34-2.69,4.43-6.42,7.35-11.5,8.22a15.54,15.54,0,0,1-10.07-1.55A15.84,15.84,0,0,1,753.24,316a11.89,11.89,0,0,1-7.41-7c-.2,1.1-.3,2-.54,2.94A11.19,11.19,0,1,1,726,301.75C726.36,301.37,726.9,301.14,726.92,300.54Zm39.53-.66-.11-.19-.06.15h.2c-.21.56.2,1,.37,1.44a11.16,11.16,0,0,1-7.58,14.7c-.92.25-1.88.36-2.85.54,7.16,2.24,12.94,8.93,11.2,19.27a20.27,20.27,0,0,1,12.29-11.12,11.36,11.36,0,0,1-12.78-7.33,11.08,11.08,0,0,1,.41-8.46,11.78,11.78,0,0,1,6.57-6A12.92,12.92,0,0,1,766.45,299.88Zm14.64,24.51-.23,0c-.15,0-.16,0,0,.09a.66.66,0,0,0,.24,0A.21.21,0,0,1,781.09,324.39Z"/><path class="cls-3" d="M696.81,79.07,692,77.37a12.08,12.08,0,0,1-5.15-7.81,12.37,12.37,0,0,1-5.18,8.36l-3.15,1.43c-.28,0-.56,0-.83.07a11.14,11.14,0,0,1-12.27-6.28c-.1-.2-.08-.58-.52-.54a11.11,11.11,0,0,1-1,5.46c-2.32,4.8-6.29,6.8-11.48,6.64l-2.86-.56c-.2-.43-.64-.52-1-.71a11.2,11.2,0,1,1,15.19-14.88c.14.27.27.55.47,1,1-7.81,4.56-11.84,10.58-12.26,5.66-.4,10.16,3.11,12,9.58.71-3.93,2.47-6.88,5.79-8.73a10.66,10.66,0,0,1,6.76-1.36c5.6.77,9,4.54,10,11.08a12.69,12.69,0,0,1,2.27-5.14,11.15,11.15,0,0,1,4.38-3.4,11,11,0,0,1,5.48-.89c5.64.55,9.32,4.48,10.32,11.19a11.61,11.61,0,0,1,5.52-6.1,10.94,10.94,0,0,1,7.9-.82c5.13,1.36,7.92,5.25,8.42,11.87,2.35-3.94,5.68-6.1,10.14-6.06s7.68,2.23,10.07,6.37a20.24,20.24,0,0,1-.12-7.89A15.82,15.82,0,0,1,805,70.64a15.54,15.54,0,0,1-4.7,11c-.29.3-.86.44-.75,1l0,0c-.33-.19-.48.09-.67.26l-6.34,2.91-.31.21h0c-2.66.1-5.32.3-7.9-.58a16.05,16.05,0,0,1-8.87-7.11c-.17-.28-.25-.79-.76-.61-.1,0-.15.42-.11.62a9.63,9.63,0,0,1-1.82,7.65,11.39,11.39,0,0,1-7.76,4.77l-4.68-.45c-5.43-1.95-7.91-6-8-11.85a11.6,11.6,0,0,1-8.73,6.09c-1.8.27-3.5-.27-5.25-.47h0c-.11-.37-.43-.29-.7-.33l-2.65-1.56c-.08-.3-.14-.64-.59-.38l0,0c.19-.18.08-.33,0-.46a11.89,11.89,0,0,1-3.36-8c-3.06,5.5-7.28,8-12.13,7.19A11.38,11.38,0,0,1,712.06,77a12.22,12.22,0,0,1-2.9-7.57C707.7,75.87,703.51,79.09,696.81,79.07Z"/><path class="cls-3" d="M604.33,316l2.51,4.86c0,.24,0,.49.3.6v0c.79,3.46,1.52,6.93.84,10.51-.1.55-.16,1.11-.3,2.07a11.82,11.82,0,0,1,11-5.23L620,329c.81.35,1.64.66,2.42,1.07a11.14,11.14,0,0,1,5.45,13.36A11.2,11.2,0,0,1,606,340.26c0-.4,0-.8,0-1.63a24.75,24.75,0,0,1-5.33,6.87c-6.79,5.72-14.47,7.32-22.77,4.18s-13-9.22-14.26-17.91c-1.11-7.77,1.5-14.33,7.2-19.69.33-.31.78-.53.94-1l0,0c.19,0,.34-.06.3-.3l0,0c.23,0,.4,0,.3-.3h0c.33.18.48,0,.59-.29l0,0c.19,0,.35-.05.3-.3l0,0c.23,0,.45,0,.3-.31l0,0c.49.35.78-.12,1.09-.3a22.41,22.41,0,0,1,28.65,5.19c.23.28.3.82.87.72l0,0C603.83,315.65,604.13,315.81,604.33,316Z"/><path class="cls-3" d="M687.78,337.74l1.77.3c4.48,1.48,7.4,4.37,8.26,9.12a11.17,11.17,0,0,1-22,4.07c-.17-.85-.23-1.73-.35-2.6-.3,0-.31.31-.4.5-3.24,6.44-10.33,8.43-16.46,4.62-.23-.14-.41-.39-.74-.31l0,0c0-.24-.11-.3-.3-.3l0,0a.28.28,0,0,0-.3-.3l0,0a.33.33,0,0,0-.31-.31l0,0-.31-.31,0,0a.33.33,0,0,0-.31-.31l0,0a.3.3,0,0,0-.31-.31l0,0c0-.2-.07-.34-.31-.3h0c-.62-1.49-1.59-2.81-2-4.43a11.28,11.28,0,0,1,4.67-11.89c.29-.2.7-.27.87-.84a12.11,12.11,0,0,1-9.15-3,4.71,4.71,0,0,0,.29,2.17,11.2,11.2,0,1,1-19.51-5.28c.27-.32.85-.48.66-1.09h0c.37.31.46-.11.67-.25l1.44-1.14c.21,0,.41,0,.44-.3h0c.26,0,.54.09.58-.3l0,0a4.27,4.27,0,0,0,.81-.1,11.09,11.09,0,0,1,10.95,1.71c.25.19.46.5,1,.35a11.65,11.65,0,0,1,.48-8.81,11.21,11.21,0,0,1,6.8-5.85l4.68-.45a11.83,11.83,0,0,1,8.69,6.18l1.11,3.79c.24,4.85-1.74,8.58-6.24,11.37,3.88-.24,6.89.65,9.4,3s3.52,5.23,3.64,8.86C678.6,340,682.45,337.64,687.78,337.74Zm-24.71-4.37-.11,0,.07.08Zm-12.8-2.19-.08-.1s-.08.06-.09.09,0,.07.08.1Zm-2.53-3.7-.08-.1s-.08.06-.09.1,0,.06.08.09Z"/><path class="cls-3" d="M818.42,260.29c0-.28-.14-.56.09-.81a1.6,1.6,0,0,0,.32-.43c1.61-6.21,5.16-9.11,11.59-9.42l.87,0a15,15,0,0,1,4.67,1.81,11.19,11.19,0,0,1-7.89,20.43c-.27,0-.55-.05-1.24-.1a11.22,11.22,0,0,1,5.54,7.41,10.76,10.76,0,0,1-1.74,8.8,10.93,10.93,0,0,1-7.52,4.68,11.63,11.63,0,0,1-8.58-2.17c-.22.55.14.8.3,1.1a15.84,15.84,0,0,1-26.49,17.24,8.08,8.08,0,0,0-.57-.6l0,0c-.2-.45-.26-1-.86-1.15l0,0c.14-.46-.17-.8-.33-1.17a15.83,15.83,0,0,1,8.12-21.27c.33-.15.72-.2.93-.56l2.65-.57a16.55,16.55,0,0,1,12.89,3.59c.09.07.25.05.38.07l.09.33.17-.08-.22-.28a11.82,11.82,0,0,1,.37-11.72c0-.07-.06-.23-.09-.35v0c.33.13.36,0,.29-.3h0c.45.06.54-.23.57-.58l0,0c.27-.1.61-.16.32-.57l0,0c.54.22.7-.31,1-.54a12,12,0,0,1,3.85-2.21,11,11,0,0,1,6.19-.31c0-.15,0-.22,0-.24q-.27-.23-.54-.42a11.39,11.39,0,0,1-4.76-7.91C818.62,261.54,818.88,260.85,818.42,260.29Z"/><path class="cls-3" d="M657.89,353.44c-.11.7.51,1,.82,1.48,4.56,6.72,5.15,13.8,1.21,20.87-4,7.23-10.58,10.54-18.83,9.85a19.25,19.25,0,0,1-17.43-18.32c-.29-10.21,6.43-18.5,16.36-20.1a19,19,0,0,1,14.45,3.45c.45.32.77.94,1.47.82h0c-.1.31,0,.38.31.3l0,0c-.08.29,0,.37.31.31l0,0c-.06.27.06.35.31.31l0,0c0,.25.06.35.31.31l0,0c0,.25,0,.38.31.31l0,0c-.07.26,0,.38.3.3l0,0c-.08.28,0,.41.3.3Z"/><path class="cls-3" d="M703.2,336.08l2.23-1.14a12.9,12.9,0,0,1,10,1.09A13.25,13.25,0,0,1,714,326.9l2.25-4.17c.1-.14.19-.29.28-.44l0,0a13.81,13.81,0,0,1,6.72-3.48,11.19,11.19,0,0,1,4,22,11.82,11.82,0,0,1-8.63-1.63,20.56,20.56,0,0,1,1.67,4.66,11.2,11.2,0,0,1-22,4C697.37,342.9,699.21,339,703.2,336.08Z"/><path class="cls-3" d="M854.25,138.56l-2.93,0a11.53,11.53,0,0,1-9.65-12.72l.84-2.91a.85.85,0,0,0,.26-.9v0c.55-.1.6-.65.85-1a11.21,11.21,0,1,1,11.58,17.29C854.88,138.37,854.57,138.47,854.25,138.56Z"/><path class="cls-3" d="M622,83.23c-.44-.83-.88-1.67-1.33-2.5a11.66,11.66,0,0,1,.52-8.72,10.71,10.71,0,0,1,10.38-6.32,10.52,10.52,0,0,1,10,6.86c1.83,4.37.94,8.41-2.14,12-.3.35-.78.54-.87,1l0,0c-.25-.06-.39.09-.52.26l-3,1.67a11.55,11.55,0,0,1-10.91-2c-.54-.43-.88-1.09-1.57-1.33l0,0c0-.21,0-.34-.27-.32v0A.64.64,0,0,0,622,83.23Z"/><path class="cls-2" d="M380,201.7c-.13.53.36.69.6,1,6.81,7.79,9.09,16.76,6.06,26.64-3.08,10-10.1,16.28-20.28,18.86a31.25,31.25,0,0,1-8.56.69c7.77,3.23,13.57,8.51,16.91,16.25a28.55,28.55,0,0,1,0,23.44,28.86,28.86,0,0,1-17.19,16.24c-7.93,2.91-15.79,2.31-23.47-1.25a59.2,59.2,0,0,1,5.27,4.82,35.48,35.48,0,0,1-47.78,52.2,7.31,7.31,0,0,0-.7-.43l-.34-.23c0-.13-.05-.25-.23-.18l.14.29.16.31a34.08,34.08,0,0,1,5.9,14.17,32.83,32.83,0,0,1-6.73,26.39,32.39,32.39,0,0,1-21.42,12.52,33.47,33.47,0,0,1-37.8-25.71c-2.74-12.26.57-22.94,9.45-31.85l.47-.52.33-.36c-.24-.16-.39-.07-.5.16A32.18,32.18,0,0,1,228,357.68,27.74,27.74,0,0,1,201.9,337c-.14-.58-.27-1.15-.5-2.09a31.06,31.06,0,0,1-5.25,17.19c-5.43,7.94-12.85,12.8-22.49,14a31.69,31.69,0,0,1-34.33-40.93c.15-.47.48-.92.28-1.47.24.07.28-.09.26-.27s-.07-.11-.11-.17l-.13.46a46.55,46.55,0,0,1-6.62,9.1,35.48,35.48,0,1,1-33.75-59.28c19.69-4.65,38.5,7.16,43.05,26.87a34.32,34.32,0,0,1-.88,18.49c-.19.56-.56,1.1-.39,1.74-.3-.08-.26.13-.26.3s0,.08.07.12l.16-.44a39,39,0,0,1,7.41-9.54,31.68,31.68,0,0,1,17.79-8c-11.39-2.25-19.1-8.46-21.55-19.76s1.9-20.21,11.39-26.94a11.26,11.26,0,0,1-8.62-1.42,11.23,11.23,0,0,1-3.22-16,12,12,0,0,1,7.63-4.8,19.58,19.58,0,0,1-6.43-2.36,20.31,20.31,0,0,1-5.16-4.77c3,9.41,2.66,18.57-2,27.34a33,33,0,0,1-21.63,17,33.63,33.63,0,0,1-37.57-16.3,32.82,32.82,0,0,1-2.92-25.66c2.55-8.94,8.11-15.56,16-20.38a40.52,40.52,0,0,1-8.48.79,31.8,31.8,0,0,1-30.95-34.35,30.44,30.44,0,0,1,9.43-20,31.63,31.63,0,0,1,45,.62c.83.87,1.63,1.77,2.45,2.65h0l.28.36,2.14,3.3c.1.22.1.5.41.57l0,0c.57,1.36,1.16,2.7,1.69,4.08a32.3,32.3,0,0,1,2.07,11.48,23.58,23.58,0,0,1,8.87-13.6l0,0,.43-.31a11.18,11.18,0,0,0,2-1.42c.26,0,.52.09.63-.25h0c.45.07.79-.24,1.17-.4a22.45,22.45,0,0,1,27,33.94,26.57,26.57,0,0,1-6.76,6.22c6.56-1.23,12.23.31,16.45,5.54s4.62,11.1,1.88,17.22c.64.08.91-.44,1.28-.76a15.17,15.17,0,0,1,4.91-2.87,16,16,0,0,1,14.54,1.8c.09.15.21.32.36.12s0-.2-.19-.22c-.38-.89-.82-1.75-1.12-2.67-1.35-4.1-.32-7.74,2.23-11.07l.18-.16-.19,0,0,.21c-.47-.3-.73.15-1,.32a19.47,19.47,0,0,1-28.77-20.39c1.89-11.34,14.34-18.8,25.22-14.93l.35.08v-.13l-.36.07c.1-.64-.49-.8-.81-1.09-5.55-5-7.58-11.23-6.37-18.54.19-1.13.58-2.22.88-3.36a.71.71,0,0,0-.63.42c-6.54,8.4-15.08,12.13-25.7,11-10.82-1.16-20.51-9.79-23.12-20.48a33.44,33.44,0,0,1-.53-11.54v0a32.72,32.72,0,0,1,3.94-9.89,27.38,27.38,0,0,1,19.7-12.61c2-.29,3.92-.13,6.21-.3A28.73,28.73,0,0,1,148,101a31.91,31.91,0,0,1-5.53-9.28v0c0-.25,0-.55-.24-.72l-.9-3.35c0-1.91-.3-3.79-.28-5.71.1-12.29,9.84-23.92,22-26.14,13.83-2.53,26.27,4.42,31.39,17.53a1.8,1.8,0,0,0,.21.35l1.19,4.52a10.47,10.47,0,0,0,0,1.12,26.8,26.8,0,0,1-1.48,13,12.84,12.84,0,0,0-1.1,3.09,32.81,32.81,0,0,1,5-4,32,32,0,0,1,9.88-3.92l6.34-.34c9.78,1,17.33,5.5,22.37,14,.51.87.94,1.79,1.59,3,0-.71,0-1,0-1.26s0-.47-.06-.7a26.43,26.43,0,0,1,2.28-14.69,27.9,27.9,0,0,1,11.25-12.44h0l.31-.24,6.14-2.6a71.87,71.87,0,0,1,7.48-.82,27.69,27.69,0,0,1,26.2,19.64,8.47,8.47,0,0,0,.55,1.51c.43-9.62,3.83-17.94,10.68-24.72a33.62,33.62,0,0,1,24.9-10.25c14.81.24,25.95,7.11,32.16,20.52,6.55,14.14,3.86,27.37-6.09,39.27.46.26.83-.17,1.23-.4a34.8,34.8,0,0,1,22-4.83,35.24,35.24,0,0,1,30.71,27c4.09,17.67-4.8,34.56-21.59,41.43a4.25,4.25,0,0,0-.46.27l-5.43,1.48c-.22,0-.47-.09-.56.23l0,0c-.51,0-1,0-1.53.07a35,35,0,0,1-25.78-6.4,64.61,64.61,0,0,1-6-5.27c4.59,9.87,3.83,19.2-2.55,28a1.14,1.14,0,0,0,.47-.22,27.41,27.41,0,0,1,30.88-.48c.75.49,1.31,1.29,2.29,1.42l0,0c-.12.31.09.31.3.29l0,0c-.06.24.12.32.29.4l.72.7.43.31,0,0c.11.23.18.55.56.32ZM213.9,188c.27-.28,0-.29-.18-.36s-.22-.29-.35-.42c-4-3.84-4.87-8-2.87-13.2.08-.21.18-.43-.14-.64-5.68,4.82-12.11,6.34-19.33,4.11l-.35-.08,0,.13.36-.07c-.08.75.62.93,1,1.28A19.53,19.53,0,0,1,198.15,189a28.15,28.15,0,0,1,.44,6.34c2.22-6.48,8.62-9.81,14.95-7.5l.39.14.43.16s0-.11,0-.12S214.05,187.83,213.9,188Zm36.51,125.37c.16-.3,0-.47-.24-.59a23.87,23.87,0,0,1-2.33-9.1,19.44,19.44,0,0,1,14.62-19.26c.61-.16,1.35-.06,2-.63a16.48,16.48,0,0,1-10.85-7.89c.57,6.7-1.78,11.06-7,13.12a10.8,10.8,0,0,1-8.17,0,12.11,12.11,0,0,1-6.18-5.59c.57,9-3.12,15.64-11.19,20.18,11.7-2.48,21.25.53,28.89,9.33.12.18.19.41.46.43l.15.31c0-.07.09-.14.08-.2S250.55,313.22,250.41,313.35ZM216.26,189c-.26.29,0,.29.19.36a12.76,12.76,0,0,1,4.2,7.46c1.11-3.85,1.46-4.45,4.29-7.46.15-.07.45-.07.18-.36l.46,0s0-.08,0-.12l-.43.16-.4.14a11.61,11.61,0,0,1-8.13,0l-.4-.14-.43-.16s0,.11,0,.12S216.11,189.17,216.26,189Zm22.45,0c-.27.29,0,.29.18.36a13.41,13.41,0,0,1,4.26,7.13,13.09,13.09,0,0,1,4.23-7.13c.16-.07.45-.07.19-.36l.46,0v-.12l-.42.17-.4.13a11.64,11.64,0,0,1-8.14,0l-.39-.14-.44-.16s0,.11,0,.12S238.55,189.17,238.71,189Zm-36,38.71.46,0a.68.68,0,0,1,0-.12l-.43.17-.4.13a11.71,11.71,0,0,1-10.42-1.16c4.56,6.79,4.52,13.28,0,20.1a11.94,11.94,0,0,1,9.48-1.59c.07-.58-.34-.75-.56-1a11.56,11.56,0,0,1-2.56-6.94c-.09-3.77,1.58-6.7,4.25-9.19C202.65,228,203,228,202.68,227.73Zm13.58,0c-.26.29,0,.29.19.36a13.6,13.6,0,0,1,4.28,7.14,12.85,12.85,0,0,1,4.21-7.14c.15-.07.45-.07.18-.36l.46,0s0-.08,0-.12l-.43.17-.4.13a11.61,11.61,0,0,1-8.13,0l-.4-.13-.43-.17s0,.12,0,.13S216.11,227.89,216.26,227.73Zm22.45,0c-.27.29,0,.29.18.36a13.6,13.6,0,0,1,4.28,7.14,12.85,12.85,0,0,1,4.21-7.14c.16-.07.45-.07.19-.36l.45,0s0-.08,0-.12l-.43.17-.4.13a11.61,11.61,0,0,1-8.13,0l-.39-.14-.44-.16s0,.12,0,.13S238.56,227.88,238.71,227.73ZM330,300.89l-.35-.25c-.24-.22-.47-.45-.72-.65a29.53,29.53,0,0,1-11.11-23,34.63,34.63,0,0,1,1.15-8.54c-6.33,7.83-11.4,9.23-21.33,6l.7.74a11.26,11.26,0,0,1-14.65,17c-.1,0-.28-.13-.29-.1s0,.21.14.24c.58,1.16,1.23,2.29,1.71,3.48a19.47,19.47,0,0,1-.15,15.29c.59-.08.73-.53,1-.83a35.55,35.55,0,0,1,43.35-9.36l.42.1a.29.29,0,0,0,.36.24s.09-.14.09-.15A2,2,0,0,0,330,300.89Zm-50.87-138-.43-.41a26.4,26.4,0,0,1-8.5-12.16A11.94,11.94,0,0,1,264.58,161a23,23,0,0,1,5.82-.71,18,18,0,0,1,8.05,2.44l.46.4c.24.11.43.62.72.24C279.75,163.21,279.37,163,279.09,162.92ZM227.49,188a10.68,10.68,0,0,1,8.85,0l.47.08s0-.11,0-.12-.34-.11-.47.07c0-.12.1-.31.06-.34a12.46,12.46,0,0,1-4.46-7.21,12.59,12.59,0,0,1-4.47,7.21s0,.22.06.34c-.14-.19-.31-.13-.47-.07s0,.08,0,.12Zm31.29,38.71.47.07s0-.11,0-.12c-.17-.06-.34-.11-.47.08,0-.12.11-.31.06-.35a12.46,12.46,0,0,1-4.46-7.21,12.51,12.51,0,0,1-4.46,7.21c-.05,0,0,.23,0,.34-.13-.19-.3-.13-.47-.07,0,0,0,.08,0,.13l.48-.08A10.62,10.62,0,0,1,258.78,226.74Zm-31.29,0a10.64,10.64,0,0,1,8.85,0l.47.07s0-.11,0-.12-.34-.11-.47.08c0-.12.1-.31.06-.35a12.46,12.46,0,0,1-4.46-7.21,12.52,12.52,0,0,1-4.47,7.21s0,.23.06.34c-.14-.19-.31-.13-.47-.07s0,.08,0,.13Zm-13.59,0,.47.07s0-.11,0-.12-.34-.11-.47.08c0-.12.1-.31.06-.35a12.46,12.46,0,0,1-4.46-7.21,12.52,12.52,0,0,1-4.47,7.21s0,.23.05.34c-.13-.19-.3-.13-.46-.07s0,.08,0,.13l.47-.08A10.64,10.64,0,0,1,213.9,226.74Zm36-38.71a11.82,11.82,0,0,1,9-.16,20,20,0,0,1-4.55-7.4,12.22,12.22,0,0,1-4.36,7.14c-.17.14-.21.28,0,.44-.13-.19-.3-.13-.47-.07,0,0,0,.08,0,.12Zm11.21,39.66-.47-.08s0,.12,0,.12.33.12.46-.07c-.26.66.42.72.69,1a12.29,12.29,0,0,1,3.3,5.24c.14.44-.08,1.05.55,1.36a16.38,16.38,0,0,1,4.07-6.91c.18-.17.5-.34.21-.66.15.12.29.21.39-.06l-.38.07A10.68,10.68,0,0,1,261.15,227.69ZM280,278.6c-.41-.39-.55.07-.73.26a15.43,15.43,0,0,1-8.3,4.79c-.25.06-.54.12-.65.41a20.5,20.5,0,0,1,10.08,4.65,11.86,11.86,0,0,1-.44-10.12l.07-.46s-.1,0-.12.05S279.72,278.51,280,278.6ZM213.72,169.75a12.56,12.56,0,0,1,10.06-2.05,18.11,18.11,0,0,1-7.24-8.86,19.68,19.68,0,0,1-3,10.72c0,.12-.09.29,0,.33S213.68,169.88,213.72,169.75Zm-23.14,94.6-.38-.29c-.19.25,0,.37.18.48.66,1.37,1.39,2.72,2,4.13a24.42,24.42,0,0,1,1.7,11.57c4.17-10.23,11.59-14.77,22.72-13.57a11.88,11.88,0,0,1-7.31-9.09C207.15,267.08,197.77,270.25,190.58,264.35Zm63.52-4.86a6.21,6.21,0,0,0,.56-.59,15.8,15.8,0,0,1,11.55-6.54,28.46,28.46,0,0,1,5.91.43,18.46,18.46,0,0,1-4.91-5.39,16.11,16.11,0,0,1-2-6.88c-2.86,6.26-7.51,8.59-14.24,7.38a11.78,11.78,0,0,1,3,11.46.39.39,0,0,0,0,.56Zm-93.46-5.36c.38.17.71,0,1.06-.14,10.32-2.78,19.09-.14,26.41,7.54.18-.41-.09-.77-.24-1.15A11.93,11.93,0,0,1,187,256a14.08,14.08,0,0,1,1.7-6.1c.14,0,.29-.1.19-.22s-.27,0-.36.12a15.93,15.93,0,0,1-23.69-19.36c.12-.29.51-.58.06-1a16,16,0,0,1-9.71,4.58c.13.55.58.42.92.51a11.26,11.26,0,0,1,8.22,13.19,13.15,13.15,0,0,1-3.68,6.42l-.21.13.18.06Zm134.08,18.59.45.07s0-.1-.05-.12-.33-.18-.42.09c.41-.59-.25-.69-.47-.91A15.82,15.82,0,0,1,291,253.13c.17-.35.68-.7.17-1.31-4.24,3.36-9.07,4.26-14.66,3.06,7,5.93,8.61,12.76,5.16,20.85C285.43,272,289.72,270.77,294.72,272.72ZM275.85,213c.12-.15.22-.3-.05-.4l.07.38c1.88,4.5.91,8.53-2.18,12.32,8.94-3.42,16-1.27,21.47,6.77-1.62-6.82-.64-12.92,3.81-18.18s10.26-7.4,17.12-6.94a27.11,27.11,0,0,1-13.5-11.2c1.51,5.2,1.2,7,.73,9.24a15.87,15.87,0,0,1-26.4,8.6C276.64,213.33,276.48,212.67,275.85,213Zm31.95-49.1c-.2.11-.41.21-.61.33q-13.06,7.41-26.09-.05c-.38-.22-.72-.67-1.34-.52a16.19,16.19,0,0,1,1.37,23.65c4-1.22,7.63-1.69,11.33-.5a16.14,16.14,0,0,1,8.85,6.9l.35.68c.17-.38.19-.66-.14-.86-.17-.47-.33-1-.5-1.43a25.21,25.21,0,0,1,.06-18,27.08,27.08,0,0,1,6.92-10c.08-.08.24-.21.22-.24C308.11,163.7,308,163.8,307.8,163.89ZM181.43,147.26c.6-.21.86-.78,1.26-1.21a19,19,0,0,1,15.18-6.39c.65,0,1.31.05,2,.12s1.15.19,1.73.29c-6.92-3.57-11.92-8.75-14.57-16.08s-2-14.59,1.36-21.91c-9.12,7.31-13.33,8.09-22.32,8.27a27.66,27.66,0,0,1,17.43,29,44.59,44.59,0,0,1-2,7.93c-.22,0-.26.18-.21.37,0,0,.09.08.1.07S181.55,147.45,181.43,147.26ZM100.18,206a37.16,37.16,0,0,1,12.22-.72,33.43,33.43,0,0,1,22,12c1.38,1.62,2.46,3.45,3.74,5.18-1.4-7.3.82-13.16,6.76-17.68-7.14,1.86-13.76.92-19.73-3.34s-9-10.33-9.49-17.83a32,32,0,0,1-8.59,16.64,42.19,42.19,0,0,1-7.07,5.64l-.44.18A.39.39,0,0,0,100.18,206ZM281.69,316.32a2,2,0,0,0-.32.26c-7.2,7.29-17.66,8.17-25.87,2.11-1.16-.86-2.16-1.93-3.26-2.93-.18.37,0,.54.14.73a27.07,27.07,0,0,1,2,23,30.55,30.55,0,0,1-6.77,10.61l-.19.13.17,0v-.2c.48.22.79-.17,1.15-.33q18.25-8.1,34.62,3.31c.58.41,1.14.84,1.77,1.31,0-.21,0-.27,0-.29l-.63-.93A35.37,35.37,0,0,1,278.7,326a48.35,48.35,0,0,1,3.15-9.62c.23-.05.34-.27.18-.38S281.79,316.2,281.69,316.32ZM343,166.07c0,.11.05.27.21.17s0-.21,0-.32a34.47,34.47,0,0,1-4.9-14.56,35.09,35.09,0,0,1,7.69-26.1l1.55-2-.22-.26A36,36,0,0,1,330,128.54a37.3,37.3,0,0,1-18-3.67,4.59,4.59,0,0,0,.65.87c6.51,7.53,8.29,16,5.16,25.5a25.93,25.93,0,0,1-7.1,10.55c-.19,0-.42.15-.32.33s.37,0,.54-.08l.61-.33a24.8,24.8,0,0,1,21.67-2.08A27,27,0,0,1,343,166.07ZM227.12,138.26c2.08-.07,4.11-.53,6.24-.33,9.12.88,15.87,10.06,13.83,19a15.75,15.75,0,0,1-17.29,12.56c-1.15-.1-2.29-.37-3.79-.62a12,12,0,0,1,5.8,8.42c1.3-5.64,4.49-9,9.79-9.68,5.78-.71,9.79,2.14,12.27,7.68a15.31,15.31,0,0,1,2.42-7.62,19.18,19.18,0,0,1,5.53-5.46,12.19,12.19,0,0,1-8.42-1.12,11.22,11.22,0,0,1-.59-19.4,11,11,0,0,1,9.13-1.22,12.28,12.28,0,0,1,7.17,5.95c-.87-8.79,1.8-16.19,8.07-22.21-16.52,5.63-28.91.72-37.44-14.65a27.15,27.15,0,0,1-2.53,17.68,28.37,28.37,0,0,1-10.16,11.08l-.31.16c.07,0,.14.08.19.06S227.24,138.39,227.12,138.26ZM201,328.86C201.94,318,207.32,310,217.19,305c-6.3,1-12-.11-16.91-4.3s-7.13-9.64-6.81-16.35c-3.32,10.3-10.11,16.45-20.73,18.6C188,305.48,197.31,314.17,201,328.86Zm119.78-65.31c7-11.79,17-17.22,30.42-16.27-9.58-3.78-15.48-10.68-17.93-20.93a19.31,19.31,0,0,1-6.53,14.52c-4.22,3.8-9.24,5.25-15.14,4.84C318.79,249.69,321.76,255.49,320.78,263.55ZM219,267.37a20,20,0,0,1,12.29,12.11c.18-6.78,3.53-10.74,10.2-12.27a11.42,11.42,0,0,1-6.34-3.23,12.1,12.1,0,0,1-3.16-6.22C229.47,264.94,226.62,267.05,219,267.37Zm54.56-58.14c-2.86-6.57-2.06-12.57,2.41-18.21a17.47,17.47,0,0,1-13.86-.92,11.8,11.8,0,0,1,3.5,8.27,12.37,12.37,0,0,1-3.33,8.1C268.63,206.09,268.81,206.13,273.54,209.23Zm10.13-89.4a26.59,26.59,0,0,1,20.82-.1,36.56,36.56,0,0,1-11.34-20.5A28.58,28.58,0,0,1,283.67,119.83Zm49.16,102a29.64,29.64,0,0,1,6-17.82A27.28,27.28,0,0,1,321,208.17,20.34,20.34,0,0,1,332.83,221.82Zm-117.14-69a16.83,16.83,0,0,1,6.81-12.23,29.64,29.64,0,0,1-16.81.85A21.24,21.24,0,0,1,215.69,152.8Zm91,91.74a21.9,21.9,0,0,1-10.23-9,17.72,17.72,0,0,1-1.88,12.53A17.61,17.61,0,0,1,306.73,244.54ZM198.15,197.87a21.18,21.18,0,0,1-5.4,9.45,13.27,13.27,0,0,1,9.28-.53A12.13,12.13,0,0,1,198.15,197.87Zm46.41,69.53a12.7,12.7,0,0,1,7.5,4.86,19.27,19.27,0,0,1,.55-9.88A12.77,12.77,0,0,1,244.56,267.4Zm6-58.47a13.16,13.16,0,0,1,3.81,6.63,13.15,13.15,0,0,1,3.8-6.68A11.87,11.87,0,0,1,250.56,208.93Zm-18.64,6.63a13.07,13.07,0,0,1,3.85-6.69,11.89,11.89,0,0,1-7.66,0A13,13,0,0,1,231.92,215.56Zm-26.27-6.66a13.33,13.33,0,0,1,3.84,6.67,13.43,13.43,0,0,1,3.7-6.64A11.93,11.93,0,0,1,205.65,208.9Zm11.23,36.63a12.27,12.27,0,0,1,7.65,0,13,13,0,0,1-3.86-6.63A12.93,12.93,0,0,1,216.88,245.53Zm26.26-45.36a13.56,13.56,0,0,1-3.73,6.62,12.11,12.11,0,0,1,7.46,0A13.08,13.08,0,0,1,243.14,200.17Zm-26.26,6.63a12.13,12.13,0,0,1,7.65,0,12.86,12.86,0,0,1-3.83-6.66A13.09,13.09,0,0,1,216.88,206.8Zm26.24,32a13,13,0,0,1-3.72,6.64,12,12,0,0,1,7.57,0A13,13,0,0,1,243.12,238.85Zm-33.64,15.41a13.42,13.42,0,0,1,3.67-6.58,15.32,15.32,0,0,1-3.69.59,20.08,20.08,0,0,1-3.68-.54A13,13,0,0,1,209.48,254.26Zm26.28-6.68a12.09,12.09,0,0,1-7.61.09,13.19,13.19,0,0,1,3.78,6.61A13,13,0,0,1,235.76,247.58Zm110.42-76.85a1.7,1.7,0,0,0,.22.15c.22.1.21-.08.18-.19s-.14-.12-.2-.11S346.24,170.67,346.18,170.73Zm-122-2.75.24-.08s-.06-.1-.09-.1a2,2,0,0,0-.23.06Zm45.22-21.2s-.08.06-.08.09a1,1,0,0,0,.05.25s.08-.07.08-.1A2,2,0,0,0,269.38,146.78Zm51.41,117-.08-.09a.74.74,0,0,0-.07.21s0,.06.06.1ZM262.57,162s-.08-.09-.11-.09a2.18,2.18,0,0,0-.23.09s.07.1.09.1A2.6,2.6,0,0,0,262.57,162ZM138.44,223l-.08-.24s-.1.07-.09.1a1.06,1.06,0,0,0,.09.25A1,1,0,0,0,138.44,223Zm113.48,92.38s0,.07,0,.09.12.13.17,0,0-.07,0-.1ZM188.37,102l-.07-.09-.08.08.11.09Zm4.77-6.5-.07-.08-.08.08.11.09ZM280.59,289l0,.07h.06ZM149.06,202.88,149,203h.11Zm113.13,3.72s-.05-.09-.08-.09-.07,0-.11.07.06.08.09.09S262.16,206.62,262.19,206.6Zm-2.9-18.51-.07-.05,0,.06ZM201.83,245.3s-.06-.07-.09-.08-.06.05-.1.08.06.08.09.08S201.8,245.33,201.83,245.3ZM251,247.84s-.06-.08-.09-.08-.06,0-.1.07.06.08.09.08S250.93,247.87,251,247.84Zm21.19,5-.09.07s.05.08.08.08.07,0,.1-.07Zm4.33,2s-.06-.07-.09-.08-.07,0-.1.07.05.08.08.08S276.45,254.88,276.49,254.85Z"/><path class="cls-3" d="M195.75,78.21l-1.19-4.52a15.86,15.86,0,0,1,26.56-13.46c.33.3.57.75,1.09.87.38-.5-.05-.89-.19-1.27-5.7-15.64,3.95-31.74,20.38-34,13-1.77,25.87,7.85,27.67,20.83,1.5,10.8-2.44,19.28-11.49,25.38a3.65,3.65,0,0,0-.32.26l-6.14,2.6c-.15,0-.31,0-.31.24h0a8,8,0,0,0-1.1.08,24.9,24.9,0,0,1-20.42-4.45c-1.94-1.41-3.39-3.29-5.14-4.87l-.06-.37-.15.1.21.27c-.1.44.17.81.28,1.2a16,16,0,0,1-.2,9.88c-1.86,5.25-5.65,8.48-10.85,10.2l-6.34.34A16.38,16.38,0,0,1,195.75,78.21Z"/><path class="cls-3" d="M141.29,87.66l.9,3.35c0,.25-.09.56.24.72v0A29.6,29.6,0,0,1,142,98.8a19.36,19.36,0,0,1-19.74,15.1c-.79,0-1.58,0-2.73,0a16.35,16.35,0,0,1,8.64,9.25,19.93,19.93,0,0,1,.79,8.15v0a2.78,2.78,0,0,0-.23.5,15.72,15.72,0,0,1-8.81,11.08c-.19.09-.59.08-.51.5l.42,0c4.9,0,8.58,2.16,10.6,6.64s1.16,8.54-2,12.22c-.18.2-.63.33-.35.76h0c-.38-.34-.45.1-.63.25a11.18,11.18,0,0,1-2,1.42c-.2,0-.42,0-.43.31l0,0a3.59,3.59,0,0,0-.81.1,11.15,11.15,0,0,1-11-1.76c-.21-.16-.38-.59-.79-.3l0,0c.23-.45-.13-.48-.41-.57-.71-1.1-1.42-2.2-2.14-3.3,0-.19,0-.41-.28-.36h0c.21-.63-.18-1.16-.3-1.74-1.08-5.22,1.12-9.76,6.19-12.73-5.17.41-9.75-.9-13.45-4.62a15.45,15.45,0,0,1-4.49-13.45c.83-6.74,7.12-14.56,18-13.5-.09-.54-.6-.54-.93-.7-7.62-3.75-12.16-12.16-10.82-20.07,1.56-9.17,8.2-15.66,17.12-16.73a19.5,19.5,0,0,1,20,11.7C141.05,87.16,141.18,87.41,141.29,87.66Z"/><path class="cls-3" d="M380.58,182.38,386,180.9a11.22,11.22,0,1,1-4.74,21.3c-.41-.2-.74-.6-1.27-.5h0c-.07-.32-.25-.45-.56-.32l0,0c0-.3-.18-.36-.43-.31l-.72-.7c0-.2-.06-.37-.29-.4l0,0c0-.19-.1-.3-.3-.29l0,0c-.14-.24-.25-.49-.41-.71-3.87-5.35-3-11.82,2.23-15.94a3.52,3.52,0,0,0,.43-.51l0,0A.5.5,0,0,0,380.58,182.38Z"/><line class="cls-4" x1="227.71" y1="669.45" x2="227.71" y2="357.86"/><line class="cls-4" x1="682.58" y1="669.45" x2="682.58" y2="359.38"/><rect class="cls-5" x="604.78" y="669.45" width="155.6" height="38.04" rx="10.88" ry="10.88"/><rect class="cls-5" x="145.5" y="669.45" width="155.6" height="38.04" rx="10.88" ry="10.88"/><rect class="cls-2" x="165.75" y="467.69" width="123.92" height="123.92" transform="translate(14.2 1065.19) rotate(-135)"/><rect class="cls-6" x="211.78" y="578.83" width="31.85" height="31.85" transform="translate(-31.83 1176.33) rotate(-135)"/><rect class="cls-2" x="620.62" y="467.69" width="123.92" height="123.92" transform="translate(790.72 1386.83) rotate(-135)"/><rect class="cls-6" x="650.59" y="540.04" width="63.98" height="63.98" transform="translate(760.75 1459.17) rotate(-135)"/><text class="cls-7" transform="translate(176.52 694.34)">Clean b<tspan class="cls-8" x="53.94" y="0">r</tspan><tspan class="cls-9" x="59.47" y="0">o</tspan><tspan class="cls-10" x="68.39" y="0">w</tspan><tspan x="79.95" y="0">ser</tspan></text><text class="cls-7" transform="translate(621.29 694.34)"><tspan class="cls-11">Y</tspan><tspan x="7.89" y="0">outube account</tspan></text><line class="cls-12" x1="94.94" y1="600.53" x2="227.71" y2="600.53"/><line class="cls-12" x1="682.58" y1="600.53" x2="815.34" y2="600.53"/><line class="cls-13" x1="682.58" y1="472.5" x2="815.34" y2="472.5"/><line class="cls-13" x1="94.18" y1="472.5" x2="226.94" y2="472.5"/><text class="cls-14" transform="translate(62.52 605.61)">7%</text><text class="cls-15" transform="translate(52.11 478.76)">93%</text><text class="cls-14" transform="translate(822.27 605.61)">28%</text><text class="cls-15" transform="translate(823.11 478.76)">72%</text></g></g></svg>