<svg xmlns="http://www.w3.org/2000/svg" viewBox="0 0 937.97 739.9"><defs><style>.cls-1,.cls-10,.cls-11,.cls-2{fill:none;}.cls-1,.cls-2,.cls-3{stroke:#000;}.cls-1,.cls-10,.cls-11,.cls-2,.cls-3{stroke-miterlimit:10;}.cls-1{stroke-width:0.75px;}.cls-2{stroke-width:0.43px;}.cls-3{fill:#fff;stroke-width:0.85px;}.cls-12,.cls-4{fill:teal;}.cls-5{font-size:17px;font-family:SimplonNorm, Simplon Norm;}.cls-6{letter-spacing:0em;}.cls-7{letter-spacing:0em;}.cls-8{letter-spacing:0em;}.cls-9{letter-spacing:-0.08em;}.cls-10{stroke:#ffc90f;}.cls-10,.cls-11{stroke-width:1.71px;}.cls-11{stroke:teal;}.cls-12,.cls-13{font-size:20px;font-family:SimplonNorm-Medium, Simplon Norm;}.cls-13,.cls-14{fill:#ffc90f;}.cls-15{fill:#fec910;}</style></defs><title>vis2Fichier 3</title><g id="Calque_2" data-name="Calque 2"><g id="modif"><path class="cls-1" d="M938,.38H43.4c-29.85,0-43,8-43,42.67v370.1"/><line class="cls-2" x1="243.44" y1="697.81" x2="243.44" y2="384.72"/><line class="cls-2" x1="700.51" y1="697.81" x2="700.51" y2="369.46"/><rect class="cls-3" x="622.34" y="697.81" width="156.35" height="38.22" rx="10.88" ry="10.88"/><rect class="cls-3" x="160.84" y="697.81" width="156.35" height="38.22" rx="10.88" ry="10.88"/><rect class="cls-4" x="181.19" y="495.08" width="124.52" height="124.52" transform="translate(21.49 1123.58) rotate(-135)"/><text class="cls-5" transform="translate(192.26 722.77)">Clean b<tspan class="cls-6" x="53.94" y="0">r</tspan><tspan class="cls-7" x="59.47" y="0">o</tspan><tspan class="cls-8" x="68.39" y="0">w</tspan><tspan x="79.95" y="0">ser</tspan></text><text class="cls-5" transform="translate(639.22 722.77)"><tspan class="cls-9">Y</tspan><tspan x="7.89" y="0">outube account</tspan></text><line class="cls-10" x1="700.51" y1="628.56" x2="833.91" y2="628.56"/><line class="cls-11" x1="700.51" y1="499.91" x2="833.91" y2="499.91"/><line class="cls-11" x1="109.27" y1="499.91" x2="242.68" y2="499.91"/><text class="cls-12" transform="translate(55.12 506.14)">100%</text><text class="cls-13" transform="translate(841.24 633.59)">45%</text><text class="cls-12" transform="translate(840.38 506.14)">55%</text><rect class="cls-4" x="638.28" y="495.07" width="124.47" height="124.47" transform="translate(-188.9 658.57) rotate(-45)"/><rect class="cls-14" x="660.48" y="548.68" width="80.06" height="80.06" transform="translate(-211.1 667.77) rotate(-45)"/><path class="cls-15" d="M846.29,204.94c-.09.3.1.49.25.71,5.13,7.72,3.61,15.94-4,21.38a1.52,1.52,0,0,0-.22.22l-3.94,1.62a15.69,15.69,0,0,1-11.65-2c-.27.37-.07.53,0,.7,1.91,4.27,1.52,8.23-1.57,11.84-.16.19-.39.36-.31.68l0,0c-.29-.11-.45.07-.58.29a17.78,17.78,0,0,1-3.42,2,15.84,15.84,0,0,1-7.75-.15A10.5,10.5,0,0,1,817,250.4a10.66,10.66,0,0,1-3.69,8c1.53-.19,2.74-.38,3.95-.48a12.74,12.74,0,0,1,3.63.42c1.13.66,2.27,1.31,3.41,2a12.25,12.25,0,0,1,3.44,5.86,12.19,12.19,0,0,1,3.45-5.86l3.41-1.95c.21-.05.47,0,.5-.34l0,0c1.38.14,2.72-.28,4.12-.1a10.4,10.4,0,1,1-10.8,14.38c-.2-.46-.37-.94-.66-1.72-1.85,5.52-5.6,8-11,8.15l-1.74-.32a1.48,1.48,0,0,0-.27-.16c-7.8-2.7-10-11-4.65-17.27.17-.19.4-.36.15-.81a12.9,12.9,0,0,1-7,.07,18.11,18.11,0,0,1-3.36-1.94,12.68,12.68,0,0,1-3.49-5.88,11.82,11.82,0,0,1-3.41,5.88,18.11,18.11,0,0,1-3.36,1.94,16,16,0,0,1-7.79-.12,11.82,11.82,0,0,1,2.41,2.77c2.65,4.46,1.74,9.43-2.5,13.61l-2.57,1.7c-2.35.27-4.7.73-7.45-.2.56.6.81.86,1,1.13a10.38,10.38,0,0,1-5.06,17.05,12.19,12.19,0,0,1-7-.5.57.57,0,0,0-.69-.27c-.14-.53-.68-.62-1-.9a10.29,10.29,0,0,1-4.19-8.72,11.26,11.26,0,0,1,3.39-7.58c-2.44.75-4.82.29-7.31.08.16.33.46.45.66.67a10,10,0,0,1,2.42,10.2,9.89,9.89,0,0,1-7.55,7.08c-2.57.65-5,0-7.47-.83-2.26-1.82-4.33-3.78-5.11-6.84-.77,3.06-2.85,5-5.1,6.84-1.35.22-2.55.91-3.94,1a15.06,15.06,0,0,1-6.31-1c-1.14-1.14-2.53-2-3.46-3.39a10.59,10.59,0,0,1,1.8-13.84l3.41-2a14,14,0,0,1,7,.05,12.05,12.05,0,0,1-3.56-5.63,18.44,18.44,0,0,1,0-4.81,12.42,12.42,0,0,1,3.4-5.55l3.41-2a13.27,13.27,0,0,1,6.74,0l3.42,2a10.77,10.77,0,0,1,3.57,7.9c0,3.13-1.24,5.71-3.76,8.19a13.12,13.12,0,0,1,7.29-.09c.14-.57-.19-.73-.39-1-3.8-4.47-3.75-9.9.14-14.32.2-.22.54-.37.43-.77l0,0c.33.13.49-.05.6-.33.66-.72,1.83-.67,2.34-1.59,2.44-.23,4.86-.87,7.36-.08a11.21,11.21,0,0,1-3.39-7.91c0-3.11,1.29-5.65,3.66-8.08a11.11,11.11,0,0,1-4,.51c-1.21-.1-2.41-.28-3.62-.42l-2.34-1.59c-.1-.28-.27-.46-.6-.33l0,0c.11-.48-.31-.64-.54-.89a10.36,10.36,0,0,1-.14-14.09c.23-.26.63-.45.51-1.09a14.15,14.15,0,0,1-7,.12c.68.86,1.3,1.52,1.79,2.27,2.81,4.32,2.11,9.23-1.9,13.63a17.78,17.78,0,0,1-3.42,2,13.27,13.27,0,0,1-6.74,0,18.08,18.08,0,0,1-3.42-2,13.62,13.62,0,0,1-3.47-5.49,12.42,12.42,0,0,1-3.41,5.49,18,18,0,0,1-3.41,2,15.29,15.29,0,0,1-7.56-.13c4.81,5.29,4.91,10.44.55,15.58-.14.16-.29.3-.21.54h0c-.32-.16-.47.07-.64.27l-2.58,1.7c-2.35.27-4.69.74-7.29-.15.75.93,1.37,1.58,1.86,2.32,2.87,4.3,2.18,9.32-1.84,13.73a18.08,18.08,0,0,1-3.42,1.95,15.12,15.12,0,0,1-6.63.15,12.39,12.39,0,0,1,3.21,5.43,22.75,22.75,0,0,0,0,4.81,12.75,12.75,0,0,1-5.06,6.87.56.56,0,0,0-.68.27c-.36.1-.72.18-1.07.29a10.4,10.4,0,0,1-11-16.83c.23-.26.63-.45.47-1.07a12.91,12.91,0,0,1-7.06,0c.25.34.35.51.48.66,4.31,4.84,4.13,10.68-.45,15.2-.21.2-.77.29-.46.82h0c-.43-.25-.72-.08-.92.32s-.62.27-.93.41a11.31,11.31,0,0,1-6.26.89c-1-.11-1.87-.73-2.9-.63l-1.13-.73c-.3-.29-.57-.61-.89-.89a10.35,10.35,0,0,1-.87-15.2c.18-.2.56-.32.4-.82-2.4.92-4.82.25-7.23,0l-2.34-1.59c-.17-.2-.32-.42-.5-.6-4.43-4.32-4.64-10.28-.52-15,.2-.22.54-.38.43-.77l0,0c.33.13.5-.05.61-.33.64-.74,1.83-.66,2.34-1.59,2.43-.23,4.85-.87,7.35-.08a11.21,11.21,0,0,1-3.39-7.91,11.46,11.46,0,0,1,3.36-7.93c-2.5.84-4.91.15-7.32-.06l-2.34-1.59c-.11-.28-.28-.46-.61-.33l0,0c.11-.48-.31-.64-.54-.89a10.35,10.35,0,0,1-.12-14.1c.22-.27.62-.45.49-1.07a13.66,13.66,0,0,1-7,.06,18.08,18.08,0,0,1-3.42-2,12.3,12.3,0,0,1-3.43-5.87,12.25,12.25,0,0,1-3.45,5.86l-3.41,2a13.31,13.31,0,0,1-6.75,0,17.7,17.7,0,0,1-3.41-2c-.14-.16-.27-.33-.41-.48-4.79-5-4.15-12.13,1.44-16.13.25-.18.59-.26.66-.63l0,0a5.86,5.86,0,0,0,1.93-.64c2.87-.91,5.62-.35,8.34.64l0,0c2.29,1.8,4.35,3.78,5.13,6.84.79-3.06,2.85-5,5.13-6.84l0,0c.45-.14.91-.25,1.35-.41a10.39,10.39,0,0,1,11.2,17c-.18.18-.64.23-.39.78a14.21,14.21,0,0,1,7.21-.07l3.41,2a12.45,12.45,0,0,1,3.4,5.56,21.4,21.4,0,0,0,0,4.8,12.91,12.91,0,0,1-3.23,5.49,13.84,13.84,0,0,1,6.65.1l3.41,2a10.78,10.78,0,0,1,3.58,7.9c0,3.14-1.25,5.71-3.76,8.19a13.58,13.58,0,0,1,7.66,0c-.41-.57-.57-.82-.76-1.05-3.81-4.46-3.75-9.9.14-14.31.19-.23.53-.38.42-.78l0,0c.33.13.5-.05.61-.33.64-.74,1.83-.66,2.34-1.59,2.43-.23,4.86-.88,7.59.14-.8-1-1.42-1.66-1.91-2.39-2.85-4.32-2.16-9.31,1.86-13.7a17.56,17.56,0,0,1,3.42-2,13.83,13.83,0,0,1,7,0,12,12,0,0,1-3.55-5.63,18.36,18.36,0,0,1,0-4.8,11.4,11.4,0,0,1,3.58-5.64c.16-.13.48-.29.21-.6h0c.43.42.49-.09.69-.27l1-.67a6.46,6.46,0,0,0,2.16-.49,10.35,10.35,0,0,1,12.92,9.46c.17,3.38-1.07,6.17-3.86,8.79a15.37,15.37,0,0,1,7.71-.23c-3.37-4.18-4.19-7.44-3-11.26.83-2.6,2.74-4.32,4.74-6a.57.57,0,0,0,.69-.26,12.66,12.66,0,0,1,8.87,0,.56.56,0,0,0,.69.26c2.25,1.82,4.33,3.78,5.1,6.84.78-3.06,2.85-5,5.11-6.84a.57.57,0,0,0,.69-.26l1.52-.42a10.34,10.34,0,0,1,13.26,10.31,10.73,10.73,0,0,1-3.85,7.82,15.4,15.4,0,0,1,7.88-.15l-.76-.82a10.35,10.35,0,0,1-1.82-11.81,10.21,10.21,0,0,1,10.51-5.66,30.06,30.06,0,0,1,3.25.63l.94.74c.28.27.57.55,1,.27h0c-.08.84.73,1,1.16,1.47a10.56,10.56,0,0,1-.74,15.11l-3.43,2a13.91,13.91,0,0,1-7,0,12.24,12.24,0,0,1,3.54,5.63,19.28,19.28,0,0,1,0,4.8,12.28,12.28,0,0,1-3.63,5.71,13.1,13.1,0,0,1,7-.12,8.92,8.92,0,0,0,3.42,2,10.81,10.81,0,0,1,3.58,7.9,11,11,0,0,1-3.69,8.13,11.39,11.39,0,0,1,3.84-.51c1.14.09,2.27.26,3.4.4.11-.48-.22-.65-.42-.88-3.8-4.48-3.74-9.9.14-14.31.2-.23.54-.38.43-.78l0,0c.33.13.5-.05.61-.33.65-.71,1.83-.67,2.34-1.59,2.43-.24,4.85-.86,7.64.15-5.34-5.56-4.34-12.22-.1-16.1l3.42-2a15,15,0,0,1,6.63-.16,12.34,12.34,0,0,1-3.21-5.43,22.65,22.65,0,0,0,0-4.8c.16-.45.32-.9.49-1.34a10.27,10.27,0,0,1,9.81-6.61,10.08,10.08,0,0,1,9.57,6.7c1.54,4.38.51,8.24-3.14,11.8,3.47-.8,6.53-1,9.36.66a.53.53,0,0,0-.05-.7c-3.61-6.17-3.26-12,1.08-17.66.16-.21.37-.39.3-.69.23,0,.32-.13.31-.34l.12-.09-.1.11-.31.34c-.28.15-.57.28-.84.44A10.38,10.38,0,0,1,809.83,189c.23-.26.62-.45.53-1.1a14.12,14.12,0,0,1-7.17.07l.75.81a10.37,10.37,0,0,1,1.86,11.68,10.2,10.2,0,0,1-10.45,5.78,34.42,34.42,0,0,1-3.56-.7l-.42-.18c0-.44-.3-.54-.69-.46l0,0c-.09-.38-.25-.63-.67-.33h0c.21-.63-.41-.75-.7-1a10.38,10.38,0,0,1-.49-14.72c.21-.23.59-.39.51-1-2.46,1-4.86.26-7.26.07l-2.34-1.59c-.11-.28-.28-.46-.61-.33l0,0c.11-.47-.31-.63-.54-.89a10.36,10.36,0,0,1-.13-14.09c.22-.26.62-.44.51-1.09a14.07,14.07,0,0,1-7,.12c.69.86,1.3,1.53,1.79,2.28,2.81,4.31,2.11,9.23-1.9,13.62a17.48,17.48,0,0,1-3.41,2,13.87,13.87,0,0,1-7,0,12.05,12.05,0,0,1,3.56,5.63,19.28,19.28,0,0,1,0,4.8c-.1.25-.19.49-.28.74a10.4,10.4,0,0,1-19.17,1.54,10.43,10.43,0,0,1,1.43-11.5c.26-.31.69-.52.69-1.24a14.36,14.36,0,0,1-7.29.05,10.61,10.61,0,0,1,3.63,6.77c.46,4.28-1.34,7.52-4.62,10.09-.23.07-.53.08-.55.43-1.34.21-2.55.9-3.93,1a15.38,15.38,0,0,1-6.31-1c0-.35-.31-.36-.55-.43a12.57,12.57,0,0,1-4.56-6.39,12.49,12.49,0,0,1-4.55,6.39c-.24.07-.53.08-.55.43-.58-.1-1,.28-1.5.46a10.38,10.38,0,0,1-14-10c.06-3.33,1.65-5.85,3.92-8.07.64-.73,1.84-.66,2.34-1.59,2.44-.22,4.86-.88,7.59.15-.8-1-1.41-1.66-1.9-2.4-2.85-4.31-2.16-9.31,1.86-13.7a17.19,17.19,0,0,1,3.41-2,13.31,13.31,0,0,1,6.75,0,17.48,17.48,0,0,1,3.41,2,12.65,12.65,0,0,1,3.47,5.91,12,12,0,0,1,3.41-5.91,17.27,17.27,0,0,1,3.42-2,15.29,15.29,0,0,1,7.39.07c-4.74-5.52-4.65-10.73-.08-16.05-1.4.17-2.54.34-3.68.43a13.07,13.07,0,0,1-3.63-.42l-3.42-2a12.25,12.25,0,0,1-3.44-5.86,12.25,12.25,0,0,1-3.44,5.86l-3.42,2a13.5,13.5,0,0,1-6.74,0l-3.41-2c-3.67-4-4.54-8.15-2.66-12.32,1-2.1,2.66-3.47,4.32-4.91a.57.57,0,0,0,.69-.27,13.58,13.58,0,0,1,8.9-.1l.94.74c.28.28.57.55,1,.27h0c1.33,2,3.34,3.6,3.8,6.2a12.36,12.36,0,0,1,3.54-5.49c.2-.17.61-.29.34-.71h0c.43.42.5-.09.69-.27l1-.67c.67-.14,1.35-.26,2-.43a10.38,10.38,0,0,1,10.37,17.06c-.24.26-.76.37-.67,1a14.33,14.33,0,0,1,7.27-.09,17.19,17.19,0,0,1,3.41,1.95,12.65,12.65,0,0,1,3.47,5.91,12,12,0,0,1,3.42-5.91,17.19,17.19,0,0,1,3.41-1.95,15.33,15.33,0,0,1,7.34.06c-4.84-6.06-4-9.61-1.89-13.45a9.15,9.15,0,0,1,9.7-4.85c4.66.58,7.92,3.2,9.32,8.15,1.26-3.51,2.82-6.48,6.59-7.6A16.83,16.83,0,0,1,792.71,131a16,16,0,0,1-7-8c-.05,8-6.42,12.74-13.7,10.62a2.65,2.65,0,0,0-1.24-.21l-1.14-.73c-.17-.21-.26-.63-.66-.26h0c-1.33-2-3.33-3.6-3.79-6.2a12.38,12.38,0,0,1-3.55,5.49c-.19.17-.61.29-.33.71h0c-.43-.25-.72-.09-.92.32s-.75.18-1,.53c-.56.16-1.11.34-1.68.49a10.34,10.34,0,0,1-13.18-10.08c0-3.38,1.61-6,3.92-8.21.65-.74,1.84-.66,2.34-1.59a6,6,0,0,0,1.73-.21,10.37,10.37,0,0,1,12,6.2c.18.41.34.84.66,1.63a11.78,11.78,0,0,1,4.65-6.61,14.28,14.28,0,0,1,5.93-1.59,11.13,11.13,0,0,1,9.17,6.3c-.13-4.57,1-8.23,3.7-11.3a14.18,14.18,0,0,1,10.19-5,14.62,14.62,0,0,1,15,10.73c2.05,7.31-1.17,13.66-9.39,18.07A10.72,10.72,0,0,1,812.7,134a10.11,10.11,0,0,1,3.42,12.64c-.21.45-.72.83-.47,1.44v0c-.53-.1-.77.09-.66.65l0,0c-.29,0-.3.29-.36.5l-1.09,1.09c-1,0-1.43,1-2.25,1.36a12.19,12.19,0,0,1-8,.6c4.23,4.36,5,10.51,0,16a12,12,0,0,1,9.48,1.21l0,0c.1.43.45.57.81.69l1.09,1.09c.12.36.25.71.68.81l0,0c.56,1.53,1.46,2.91,1.64,4.59a11,11,0,0,1-3.43,9.53,12.48,12.48,0,0,1,10.56,1.61,19.63,19.63,0,0,1,2.94,3.85A11.1,11.1,0,0,1,826,202.21c-.12.15-.3.28-.1.49-.3-.06-.37.08-.29.35l-.38,0,0,.13.33-.21.31-.33.39-.25A15.18,15.18,0,0,1,838,200.17c1.42.32,2.8.84,4.19,1.26l0,0c-.17.32.12.34.28.45l3.39,2.79c.11.19.24.38.51.31ZM781.88,152a10.68,10.68,0,0,1,3.83,8.16,11,11,0,0,1-3.48,8,15.35,15.35,0,0,1,7.35,0c-4.42-4.62-4.87-10.74,0-16A14.58,14.58,0,0,1,781.88,152ZM758.12,186a11.19,11.19,0,0,1-3.36-7.88c0-3.11,1.29-5.65,3.76-8.19-2.84,1-5.22.46-7.84.16,4.89,4.83,4.89,10.41.14,16.09C753.31,185.69,755.66,185.29,758.12,186Zm-80.34,90.4a14.23,14.23,0,0,1,7.54-.14c-4.62-5.07-4.56-11,0-16-2.48.81-4.87.4-7.46,0C682.75,265.39,682.75,271,677.78,276.37Zm28.8-52.13a14.49,14.49,0,0,1-7.46.23c4.69,5.54,4.69,9.52.07,15.95,2.37-.73,4.69-.44,7.32.07C701.78,235,701.85,229.76,706.58,224.24Zm96.47.09a10.74,10.74,0,0,1,3.76,8c0,3.14-1.24,5.71-3.76,8.19a14.87,14.87,0,0,1,7.41-.21,11.93,11.93,0,0,1-3.29-7.94,12.07,12.07,0,0,1,3.3-7.93A15,15,0,0,1,803.05,224.33Zm-79.44,5.58a13.55,13.55,0,0,1,3.44-5.56,13.52,13.52,0,0,1-7,.06A13.37,13.37,0,0,1,723.61,229.91Zm-66.22,30.25a12.42,12.42,0,0,1,3.53,6,12.68,12.68,0,0,1,3.53-6A13.22,13.22,0,0,1,657.39,260.16ZM793,150.34a14.32,14.32,0,0,1,6.71-.22c-1.78-1.38-2.29-3.51-3.4-5.61C795.9,146.94,794.45,148.44,793,150.34Zm7,91.93a13.22,13.22,0,0,1-7.06,0,12.42,12.42,0,0,1,3.53,6A12.68,12.68,0,0,1,800,242.27Zm-104.14,0a13,13,0,0,1-7.25,0,12.16,12.16,0,0,1,3.7,6.05A12.07,12.07,0,0,1,695.83,242.23Zm-3.6,10.61a13,13,0,0,1-3.52,5.51,14.23,14.23,0,0,1,7.1,0A13.21,13.21,0,0,1,692.23,252.84ZM733.78,217a13.61,13.61,0,0,1-3.48,5.56,13.57,13.57,0,0,1,7.1-.05A12.85,12.85,0,0,1,733.78,217Zm31.4,49.16a12.21,12.21,0,0,1,3.48-6.08,12.92,12.92,0,0,1-7.19.05A12.14,12.14,0,0,1,765.18,266.19Zm31.28-90.62A13.52,13.52,0,0,1,800,170a13.34,13.34,0,0,1-7.11.15A13,13,0,0,1,796.46,175.57Zm-35,100.76a13.72,13.72,0,0,1,7.16-.12,12.47,12.47,0,0,1-3.6-6A11.71,11.71,0,0,1,761.51,276.33Zm31.35-90.14a12.71,12.71,0,0,1,7.1-.07,12.63,12.63,0,0,1-3.51-6A12.68,12.68,0,0,1,792.86,186.19Zm-62.28-.25a14.85,14.85,0,0,1,6.83.18,12.19,12.19,0,0,1-3.62-5.89A13,13,0,0,1,730.58,185.94Zm-3.41,1.95a12.85,12.85,0,0,1-7.22,0,12.49,12.49,0,0,1,3.66,6A12,12,0,0,1,727.17,187.89Zm-69.46,88.19a14.84,14.84,0,0,1,6.8.16,12.22,12.22,0,0,1-3.6-5.89A13,13,0,0,1,657.71,276.08Zm72.87,2.17a14.06,14.06,0,0,1,3.27,5.74,12.17,12.17,0,0,1,3.48-5.94A13.88,13.88,0,0,1,730.58,278.25Zm30.94-110a13.51,13.51,0,0,1,7.22,0,12.3,12.3,0,0,1-3.66-6A11.79,11.79,0,0,1,761.52,168.27Z"/><path class="cls-4" d="M799.9,258.28a18.11,18.11,0,0,0,3.36,1.94l.54.57c2.9,3.13,3.92,6.76,2.49,10.82a10.18,10.18,0,0,1-8.63,7c-1.41.22-2.73-.31-4.1-.13.11-.24,0-.25-.21-.25s-.09,0-.13.06l.36.17a13.45,13.45,0,0,1,3.22,8.65l-.12.21.1-.23a26.58,26.58,0,0,1,4.85-5.2c4-3,8.53-3.87,13.4-3.48l1.74.32A18.47,18.47,0,0,1,827.23,286c4.12,6.21,4.52,12.76.84,19.21s-9.4,9.42-16.81,9.05c-1.16-.05-2.31-.24-3.7-.38a11.3,11.3,0,0,1,4.25,6.66,11.09,11.09,0,0,1-2.33,8.93c-.13.06-.3.12-.17.29s.24-.06.37-.09a34.67,34.67,0,0,1,13.94-2.7,32.12,32.12,0,0,1,23,10,31.77,31.77,0,0,1,9.21,25.7,33,33,0,0,1-61.58,13.4c-.18-.32-.4-.61-.6-.92s-.17-.33-.26-.5c-.22.25-.13.47.08.67a38.35,38.35,0,0,1,1.07,9.78c-.65,12.8-6.56,22.5-17.89,28.29-12.58,6.43-24.85,4.92-35.92-3.78A30.74,30.74,0,0,1,729,388.84c-1.48-11.39,2.09-21,10.38-28.92a5.58,5.58,0,0,0,.49-.6c.13,0,.3-.06.19-.24,0,0-.24.05-.36.07-5.55,2-10.75,1.52-15.39-2.31-3.51-2.9-5.19-6.74-5.28-11.61a13.33,13.33,0,0,1-2.95,4.69,10.46,10.46,0,0,1-13.31.93c-.29-.21-.5-.57-.94-.51l0,0c0-.33-.21-.36-.47-.31l-1.45-1.8c.08-.35,0-.64-.35-.78l0,0a14.3,14.3,0,0,1-1.16-6c.37-3.7,2.37-6.34,5.31-8.39l.43-.14c-.06,0-.13-.11-.19-.1s-.3.06-.21.27c-4.82,0-8.6-1.88-10.94-6.26l-.89-3.23a12.69,12.69,0,0,1,3.18-8.77l0,0a.51.51,0,0,0,.5-.33,17.7,17.7,0,0,0,3.41-1.95,12.4,12.4,0,0,1,7.87.35l2.34,1.59a11.76,11.76,0,0,1,3.82,7.28,11.56,11.56,0,0,1,3.7-7.29,18.07,18.07,0,0,0,3.36-1.93,12.45,12.45,0,0,1,6.9,0,18.07,18.07,0,0,0,3.36,1.93,14,14,0,0,1,3.45,5.3,12.76,12.76,0,0,1,3.39-5.3,18.47,18.47,0,0,0,3.37-1.93,12.37,12.37,0,0,1,7.86.35l2.34,1.59a11,11,0,0,1,3.66,7.22c.19,1.84-.44,3.52-.83,5.25a4,4,0,0,1-.26.32l.21.09,0-.43c.51.14.59-.35.82-.58a15.65,15.65,0,0,1,6.39-3.91,16.76,16.76,0,0,1,10.08.35.34.34,0,0,0,.46.24.19.19,0,0,0,.06-.13c-.17-.13-.34-.23-.54-.08-.55-1.13-1.76-1.56-2.54-2.46A15.54,15.54,0,0,1,764.44,309c.27-1.13.55-2.26.83-3.39,2.86-7.44,8.52-10.37,16.58-9.91-.66-.43-1-.64-1.32-.87a10.24,10.24,0,0,1-4.59-10.43c.35-2.5,1.77-4.37,3.25-6.24l2.57-1.7a16.36,16.36,0,0,1,7.35-.61c-.11.23,0,.25.21.25s.08,0,.13-.06l-.36-.16a3,3,0,0,0-.27-.54c-4.08-5.21-3.81-10.35.82-15.14a18.11,18.11,0,0,0,3.36-1.94A12.64,12.64,0,0,1,799.9,258.28ZM752,329.59l.23-.33-.15-.05c0,.13,0,.27-.05.41-.28-.17-.33,0-.4.23a11.61,11.61,0,0,1-10.07,3,14.94,14.94,0,0,1,6.84,10.73,15.31,15.31,0,0,1-3.68,12.15,34.38,34.38,0,0,1,18-4.44c-10.4-2.72-14.93-11.83-10.9-21.25Zm39.54-10.95a16,16,0,0,1-8.48,6,17.11,17.11,0,0,1-9.64-.5.36.36,0,0,0-.47-.24s-.07.13-.06.14c.17.12.34.22.55.07.07.68.72.83,1.13,1.17a14.84,14.84,0,0,1,0,22.61,15.78,15.78,0,0,1-4.07,2.44,20.39,20.39,0,0,1-4.91,1.12c11.42,1.83,19.65,7.7,25.32,17.37-3.1-14.73,1.23-26.69,13.11-36.05-.46,0-.73,0-1,.06a10,10,0,0,1-9.9-4.1c-2.33-3-2.46-6.43-1.48-10,.23-.09.25-.28.22-.49,0,0-.06-.08-.09-.12Zm-7.35-22.17a15.19,15.19,0,0,1,8.49,8c1.69,3.84,1.51,7.74.31,11.73a11.28,11.28,0,0,1,10.76-3.93c-7.49-4.85-10.39-11.43-9-19.89C790.52,296.2,789.36,296.65,784.21,296.47Zm-77.3,35.62a10.61,10.61,0,0,1,8.41,2.09,11.42,11.42,0,0,1,4.14,7.43,19.87,19.87,0,0,1,2.57-4.95,20.85,20.85,0,0,1,4.13-3.84c-8,.29-10.75-1.7-13.23-9.77A11,11,0,0,1,706.91,332.09Zm26.88-7.16a12.73,12.73,0,0,1-4,6.19,27.64,27.64,0,0,1,8,0A12.65,12.65,0,0,1,733.79,324.93Zm58.93-8.37s-.05.08,0,.1.12.15.18,0a.13.13,0,0,0,0-.11Z"/><path class="cls-4" d="M739.29,132.71l-1,.67c-.28,0-.58-.14-.69.27h0a15.14,15.14,0,0,1-7.68,0h0c-.22-.53-.64-.28-1-.27l-.94-.74a13.29,13.29,0,0,1-4.51-6.49,18,18,0,0,0,0-4.81,13.67,13.67,0,0,1,3.42-5.58l3.42-2a16.67,16.67,0,0,1,6.33-.3c-.11.23,0,.25.21.25s.09,0,.13-.06l-.36-.16a18.82,18.82,0,0,1-2.92-5.28,17.61,17.61,0,0,0,0-4.81,18.77,18.77,0,0,1,2.92-5.27L737,98s-.09-.06-.13-.06-.32,0-.21.25a16.51,16.51,0,0,1-6.34-.31A18.69,18.69,0,0,0,727,95.94a13.68,13.68,0,0,1-3.44-5.29,12.62,12.62,0,0,1-3.4,5.29,19,19,0,0,0-3.35,1.94,11.77,11.77,0,0,1-8-.49c5.38,5.41,5.42,11.79.43,16.45-.5.93-1.7.85-2.34,1.59-.23,0-.56-.08-.6.33l0,0a13.77,13.77,0,0,1-7.29,0,18.11,18.11,0,0,0-3.36-1.94,12.5,12.5,0,0,1-3.42-5.64,12.5,12.5,0,0,1-3.42,5.64,18.69,18.69,0,0,0-3.36,1.94,13.87,13.87,0,0,1-7.29,0h0c-.07-.4-.37-.28-.63-.26L675,113.78a12,12,0,0,1-3.25-10.86,11.45,11.45,0,0,1-8.7,5.68c-1.91.23-3.62-.57-5.44-.78l-3.69-3c-.64-1.54-1.67-2.92-1.95-4.63-1-6.12,2.26-10.71,9.15-12.58-9.47-2.76-15.82-8.6-18.64-17.87a24.16,24.16,0,0,1,2.35-19.66A25.48,25.48,0,0,1,680,40.71c11.92,7.11,17.41,23.89,6.91,38.12,3.56-1.61,6.88-1.86,10.12-.15a10.69,10.69,0,0,1,5.7,8.07c1.35-5.65,4.75-9.12,10.55-9.21,5.07-.08,8.49,2.78,10.28,7.93a11.85,11.85,0,0,1,3.51-5.5,10.36,10.36,0,0,1,14.79,1.37,5.76,5.76,0,0,0,.57.53l.15.23,0-.2h-.23a22.8,22.8,0,0,1,.71-5.12,10.45,10.45,0,0,1,19.4-.8,10.3,10.3,0,0,1-2.08,11.5c.43.33.74,0,1.08-.15,6.23-3.2,12.05-2.61,17.44,1.89a4.3,4.3,0,0,0,.52.35l.21.54c.25-.22.14-.47,0-.72-3.85-9.37-2.56-17.93,4.13-25.59,7.86-9,22.81-10,31.91-2.14,5.84,5,8.78,11.39,8.45,19.07a23.17,23.17,0,0,1-19.87,21.93c-8.37,1.14-15.33-1.54-21-7.75-.14-.15-.3-.28-.64-.6,2.39,8.2.25,14.54-7,19a14.28,14.28,0,0,0-5.93,1.59c-7.56,0-12.52-3.69-15.37-10.67a10.81,10.81,0,0,1-3.66,9.66c-.5.93-1.69.85-2.34,1.59a15,15,0,0,1-7.31.66c.11-.24,0-.25-.21-.25s-.09,0-.13.06l.36.17c0,.43.36.62.58.9a10.33,10.33,0,0,1,2.32,8.61A11,11,0,0,1,739.29,132.71ZM695.14,98.19a28.63,28.63,0,0,1-5.78,0c.11-.23-.05-.25-.21-.25s-.09,0-.13.06l.36.17c1,1.6,2.35,3,2.88,5,.48-2,1.9-3.38,2.86-5l.35-.17s-.08-.06-.13-.06S695,98,695.14,98.19Zm4.45-2.58c2.4-.2,4.8-.44,7.14.58a14.83,14.83,0,0,1-2.65-3.42,19,19,0,0,1-1.33-4.11c-.15,2.77-1.65,4.86-3.14,7l-.36.16s.09.07.13.07S699.69,95.84,699.59,95.61Zm41.55,0a10,10,0,0,0,1.1,0c5.39-.63,9.25,1.54,11.5,6.46.09.19.12.55.51.4-.2-6.46.84-8.73,4.6-13.36C753,92,748.18,91,744,85.93a13.29,13.29,0,0,1,.17,3c-.21,2.61-1.6,4.63-3,6.66l-.36.16s.09.07.13.07S741.25,95.84,741.14,95.61Zm-69,6.39c.37,0,.32-.36.43-.57a10.67,10.67,0,0,1,8.28-6c1.41-.22,2.73.31,4.1.13l.07.23.17-.11-.26-.09c0-.44-.36-.63-.58-.91a10.26,10.26,0,0,1-2.26-8.93c.2-1,.58-1.92,1-3.21A26.94,26.94,0,0,1,665.8,88.3a11.12,11.12,0,0,1,6.48,7.12c.67,2.24.19,4.41-.16,6.6-.27,0-.32.21-.3.42s.13.1.19.14Z"/><path class="cls-4" d="M646.6,258.31c-.51.93-1.7.85-2.34,1.59-.23.05-.57-.07-.61.33l0,0a13.83,13.83,0,0,1-7.28.05l-3.42-2a12.94,12.94,0,0,1-3.37-5.67,12.75,12.75,0,0,1-3.37,5.67,17.7,17.7,0,0,0-3.41,1.95,11.49,11.49,0,0,1-9.11-1.07l-.41-.23-.32-.26-.14.2c.16.09.3.33.48.05-.25.19-.06.33,0,.48,3.83,5.88,3.9,11.74,0,17.6-.11.17-.27.33,0,.5-.18-.3-.33-.06-.48,0s0,.13,0,.15c.23.12.37,0,.44-.21a11.61,11.61,0,0,1,9.52-1.3,19,19,0,0,0,3.36,1.94,12.45,12.45,0,0,1,3.42,5.65,12.76,12.76,0,0,1,3.41-5.66l3.38-1.94a12.48,12.48,0,0,1,7.87.37l2.34,1.59a10.2,10.2,0,0,1,3.69,8.08,10.45,10.45,0,0,1-17.12,7.92,11.72,11.72,0,0,1-3.6-5.62,11.84,11.84,0,0,1-5.53,7.13c7.31-.51,12.67,2.37,16.07,9.06.14-.69.23-1.15.31-1.62.75-4.42,3.37-7.18,7.59-8.51,2.45-.78,4.81-.13,7.18.44l1.13.73a12,12,0,0,1,4.59,6.61A11.27,11.27,0,0,1,665,296.2c.24-.16.61-.29.45-.72.31-.14.74,0,.93-.41.32-.07.76.2.92-.32h0a17.87,17.87,0,0,1,5.8-.38,10.6,10.6,0,0,1,8.38,11.56c-.62,4.17-3,6.84-6.68,8.61l-2.42.71-1.11-.12c-5-.31-8.48-2.66-10.13-7.51,0-.09-.22-.14-.36-.22a10.65,10.65,0,0,1-8.87,7.64c.59.2,1.08.36,1.57.54a15.05,15.05,0,0,1,7.81,6.2,22.88,22.88,0,0,1,2.18,5.56l0,3.72c-.93,5.77-3.88,10.05-9.39,12.24a14.53,14.53,0,0,1-17.09-4.8l-1-1.26-1.38-2.86c-.07-.24.14-.6-.31-.67l0,0a4.13,4.13,0,0,0,0-.79,15.41,15.41,0,0,1,1.54-10.75s-.08-.17-.19-.37c-3.44,2.83-7.46,3.58-11.76,3.26l-3.32-1a15.81,15.81,0,0,1-8-8.24,14.77,14.77,0,0,1,6.95-18.6l1.32-.71c-3.9.09-7-.81-9.29-3.47-3.39-3.91-3.51-8.2-1.16-12.67l.23-.41.19-.16-.19,0c0,.07,0,.15,0,.22-.19-.25-.33-.06-.48.05a14.88,14.88,0,0,1-17.78-.21,14.72,14.72,0,0,1-3.42-19.67l.51-.8c.11-.16.31-.31,0-.5l.22.06v-.2l-.19.17-.42.22c-6.36,3.28-12.85,3.73-19.41.69a20.87,20.87,0,0,1-10.08-27.35l1-2.25a12.08,12.08,0,0,1-7.89,1.54,10.43,10.43,0,0,1,0-20.53,13.17,13.17,0,0,1,6.24.66l3.28,2.3c.2.25.23.71.72.62h0c.9,1.88,2,3.68,2.14,5.86.14,1.63-.4,3.16-.59,4.88a21.22,21.22,0,0,1,34.25,9.19c-.77-4,.48-7.41,3.54-10.49-.73.15-1.09.22-1.45.31A10.43,10.43,0,0,1,588,216c-.31-1.86.25-3.56.43-5.33l0,0c.41-.06.25-.45.38-.68a21.8,21.8,0,0,1,2.49-3.32,11.15,11.15,0,0,1,9.07-2.43,10.57,10.57,0,0,1,8.33,11.48,11.51,11.51,0,0,1-3.85,7c4.1-1,4.39-1,7.8-.28a17.7,17.7,0,0,0,3.41,2,14.53,14.53,0,0,1,3.41,5.29,12.89,12.89,0,0,1,3.34-5.29l3.41-2a12.66,12.66,0,0,1,6.88,0,18.08,18.08,0,0,0,3.42,2c2.77,2.82,4.14,6.09,3.38,10.11-.41,2.16-1.72,3.81-2.88,5.56l-.25.09.16.11.07-.22a17.74,17.74,0,0,1,6.73.35l0,0c.05.39.38.27.61.33l2.34,1.59C651.54,246.92,651.54,253.7,646.6,258.31Zm-35.86-1.92-.23-.4c-2.56-4.77-2-9.22,1.67-13.41-5.8.9-9.73-.68-13.07-6.47,1.34,7.2-.12,13.44-4.72,19,5.57-2.51,10.85-2.17,15.88,1.24.15.11.29.31.48.05-.27.19,0,.33,0,.48l.21-.14Zm16-13.73c.11-.23-.05-.25-.2-.25s-.09,0-.14.07l.36.16c1,1.61,2.35,3,2.89,5,.48-2,1.89-3.38,2.85-5l.36-.16c-.05,0-.09-.07-.13-.07s-.32,0-.21.25A27.92,27.92,0,0,1,626.71,242.66Zm-4.44-2.58c-.11.23.05.24.2.25s.09-.05.13-.07l-.36-.16c-1-1.6-2.35-3-2.87-5-.52,2-1.86,3.4-2.86,5l-.36.16s.08.07.13.07.31,0,.21-.25A27.24,27.24,0,0,1,622.27,240.08Zm17,78a17.73,17.73,0,0,1,8.77-3.26,12.1,12.1,0,0,1-4-2.08,15.85,15.85,0,0,1-3-3.69A17,17,0,0,1,639.29,318Z"/><path class="cls-15" d="M653.91,104.85l3.69,3a15.74,15.74,0,0,1,3.94,11.64l.66-1a10.32,10.32,0,0,1,10.44-5c.79.08,1.52.56,2.35.32l2.58,1.71c.16.2.32.42.63.26h0c-.07.59.47.78.76,1.12a10.38,10.38,0,0,1-10.53,16.89,3.94,3.94,0,0,0-1.85-.38l-1.15-.73c-.17-.21-.26-.63-.66-.26h0c.22-.72-.49-.82-.81-1.14a10.57,10.57,0,0,1-3-5.68c-.11-.63-.13-1.28-.22-2.2-4.26,7.52-8,9.46-17,9.1,7.92,4,8.24,12.72,2.79,17.92a15.52,15.52,0,0,1,7.59-.12,17.56,17.56,0,0,1,3.42,1.95,12.61,12.61,0,0,1,3.39,5.56,21.4,21.4,0,0,0,0,4.8,13.1,13.1,0,0,1-3.23,5.51,13.59,13.59,0,0,1,6.65.08,17.19,17.19,0,0,1,3.41,2,11.65,11.65,0,0,1,3.14,4.9c1.15,4.11,0,7.64-2.75,10.74q-1.89,1.13-3.8,2.23a13.31,13.31,0,0,1-6.75,0l-3.41-2c-4.74-5.1-4.8-9.34-.16-16-2.45.77-4.84.42-7.42,0,4.76,5.24,4.87,10.38.5,15.52-.14.16-.29.31-.2.55l0,0c-.32-.15-.47.07-.64.27l-2.57,1.7c-2.35.27-4.7.74-7.06-.07,0,.16,0,.23,0,.27.27.32.56.62.82.95A10.3,10.3,0,0,1,639,200.34c-.87,2.15-2.64,3.49-4.32,4.92l0,0a5.56,5.56,0,0,0-1.93.64c-2.87.91-5.61.35-8.33-.64l0,0c-2.29-1.81-4.35-3.78-5.14-6.85-.74,3.1-2.86,5-5.13,6.85l0,0c-.4.12-.81.21-1.2.36A10.39,10.39,0,0,1,601.47,189c.26-.3.75-.47.65-1l0,0c.33.13.5-.05.6-.33.65-.73,1.84-.66,2.35-1.59,2.43-.23,4.85-.86,7.55.12-.83-1.05-1.48-1.76-2-2.55-2.72-4.28-2-9,1.94-13.52a14.26,14.26,0,0,1,3.44-2,14,14,0,0,1,7,0,12,12,0,0,1-3.56-5.62,16.16,16.16,0,0,1,0-4.81,13.16,13.16,0,0,1,3.36-5.56,14.52,14.52,0,0,1,3.45-1.95,15,15,0,0,1,6.63-.15,12.39,12.39,0,0,1-3.21-5.43,15.18,15.18,0,0,1,0-4.85c2-5.76,6-8.41,12.13-7.92a15.53,15.53,0,0,1-9.27-10.45l-.39-3c.4-8.23,5-13.73,12.67-15a14.3,14.3,0,0,1,7.8,1C653,104.6,653.38,105,653.91,104.85Zm-17.52,63.43c2.53-.88,4.84-.52,7.46,0-4.7-5.47-4.68-10.68.07-16.21a14.54,14.54,0,0,1-7.45.18C640.87,156.79,641.36,162.93,636.39,168.28Zm-6.76,7.29a12.65,12.65,0,0,1,3.51-5.52,14.11,14.11,0,0,1-7.1,0A13.17,13.17,0,0,1,629.63,175.57ZM615.72,187.9a12.05,12.05,0,0,1,3.69,6,12.18,12.18,0,0,1,3.55-6.06A12.92,12.92,0,0,1,615.72,187.9Zm13.88-7.73a12.57,12.57,0,0,1-3.54,6,13.26,13.26,0,0,1,7.07,0A12.57,12.57,0,0,1,629.6,180.17Z"/><path class="cls-15" d="M672.4,315.26l2.42-.71c8.69-.84,13.51,1.72,17.14,9.1.3,1.08.6,2.15.89,3.23a15.56,15.56,0,0,1-3,11,18.86,18.86,0,0,1-5.4,4.51,18.26,18.26,0,0,1,14.7,5.05c.09.08.28.05.43.07l0,0c-.17.39.16.55.35.78l1.45,1.8c.12.17.18.41.47.31l0,0c.75,2.24,1.95,4.3,2.4,6.68a18,18,0,1,1-35.7,4.05c-.22-7.9,3.5-13.47,10.49-17.3-1.11-.11-2.07-.13-3-.3-6.53-1.12-10.92-5.42-12.3-12a2.14,2.14,0,0,0-.18-.44c0-1.24,0-2.48,0-3.72a16,16,0,0,1,4-8.48A23.35,23.35,0,0,1,672.4,315.26Z"/><path class="cls-4" d="M629.64,139.84a15.18,15.18,0,0,0,0,4.85,13.46,13.46,0,0,1-3.42,5.58,14.52,14.52,0,0,0-3.45,1.95,16.06,16.06,0,0,1-6.29.3c.11-.23-.06-.24-.21-.25s-.09,0-.13.07l.36.16a18.79,18.79,0,0,1,2.91,5.28,16.16,16.16,0,0,0,0,4.81,13.46,13.46,0,0,1-3.42,5.58,14.26,14.26,0,0,0-3.44,2,12.65,12.65,0,0,1-7.49-.2c5.49,6,4.14,12.37,0,16.15-.51.93-1.7.86-2.35,1.59-.23.06-.56-.07-.6.33l0,0a11.51,11.51,0,0,1-10.88-2.07,19.94,19.94,0,0,1-2.57-3.5c-1.57-4.37-.94-8.34,2.56-12.11-3.62.65-6.71.3-9.43-1.76a10.25,10.25,0,0,1-4.21-8.37,10.39,10.39,0,0,1,9.83-10.39c4.2-.37,9.78,2.18,11.12,9.5,1.83-7.24,6.25-10.28,13.37-9.3.15-.51-.32-.71-.55-1-2.71-3.51-3.27-7.32-1.29-11.32s5.41-5.79,9.82-5.83l.79-.06,0,0c.35.56,1,.3,1.44.44C626,133.33,628.37,136.05,629.64,139.84Zm-34.25,28c2.39-.2,4.79-.43,7.12.58a12.37,12.37,0,0,1-3.93-7.34c-.26,2.69-1.71,4.73-3.17,6.78l-.36.16a.28.28,0,0,0,.13.07C595.34,168.09,595.5,168.07,595.39,167.84Z"/><path class="cls-4" d="M827,191.56a19.63,19.63,0,0,0-2.94-3.85c-2-4.84-1-9,2.91-12.79-1.8-.14-3.37,0-4.93-.19-2.5-.35-4.54-1.73-6.75-2.75l0,0c.11-.56-.43-.56-.68-.81l-1.09-1.09c-.25-.25-.25-.79-.81-.69l0,0c.16-.62-.41-.92-.66-1.33a15.06,15.06,0,0,1-2.26-7.17,15.21,15.21,0,0,1,3.7-10.68l1.09-1.09c.19-.12.39-.22.36-.5l0,0c.4,0,.79-.08.66-.65v0c2.12-.84,4.08-2,6.39-2.47,8.42-1.67,17.06,5.23,17.26,13.79.12,5.48-2.06,9.74-6.69,13.23,4.71.16,8.25,1.89,10.28,6a10.29,10.29,0,0,1,0,9.21l0,.38.3-.16c3.21-2.8,6.83-4,11-2.58a10.42,10.42,0,0,1-6.36,19.85c-.5-.15-1-.25-1.52-.38h0c-.07-.27-.29-.31-.51-.31l-3.39-2.79c0-.22,0-.39-.28-.45l0,0c-2-3.45-2.48-7-.76-10.72,0-.13,0-.26,0-.38l-.3.16a13.09,13.09,0,0,1-5.69,3C832.33,194.07,829.64,193.06,827,191.56Z"/><path class="cls-15" d="M634.71,334.39l1.38,2.86c1.79,5.71,1.71,11.31-1,16.74-3.91,7.81-12.88,12.59-21.14,11.28-9.58-1.52-16.53-8.24-17.95-17.36a20.74,20.74,0,0,1,23.73-23.84c.32.05.64.05,1,.07l3.32,1a24.09,24.09,0,0,1,10.43,8.65l0,0A.72.72,0,0,0,634.71,334.39Z"/><path class="cls-15" d="M588.67,182.4a19.94,19.94,0,0,0,2.57,3.5,26.93,26.93,0,0,1,2.58,9.28,24.42,24.42,0,0,1-2.58,11.52,21.8,21.8,0,0,0-2.49,3.32c-.22.18-.49.33-.38.68l0,0c-.61,0-.87.57-1.24.9a20.68,20.68,0,0,1-17.39,5.26c-2.35-.32-4.42-1.41-6.66-2h0c0-.44-.45-.45-.72-.62l-3.28-2.3a22.84,22.84,0,0,1-6.72-12.76c-1.71-10.6,6.22-21.65,16.83-23.35C576.89,174.6,583.27,177,588.67,182.4Z"/><path class="cls-4" d="M834.63,258.31l-3.41,1.95a12.79,12.79,0,0,1-6.89,0l-3.42-2c-4.87-5.36-4.87-10.62,0-16a17.78,17.78,0,0,0,3.42-2c.23,0,.53.09.58-.29l0,0a11.83,11.83,0,0,1,9.82,2.3c.1.16.2.32.29.48.23-.24.13-.48,0-.72a11.25,11.25,0,0,1-1-5.7,11.11,11.11,0,0,1,4.4-7.6l3.94-1.62c5.87-.55,10.31,2,11.94,7a10.45,10.45,0,0,1-15.93,11.84l-.91-.62-.33-.14,0,.38a10.45,10.45,0,0,1-1.75,11.78,3.09,3.09,0,0,0-.29.54l0,0A.51.51,0,0,0,834.63,258.31Z"/><path class="cls-4" d="M632.11,118.46l.39,3a13.44,13.44,0,0,1-2,5.76c-2.44,3.35-5.86,4.49-9.82,4.5l0,0c-.34-.59-1-.32-1.44-.46-4.7-1.35-8.07-5.84-7.78-10.44a10.48,10.48,0,0,1,20.29-3.26C631.86,117.89,632,118.17,632.11,118.46Z"/><path class="cls-4" d="M657.49,152.22a17.56,17.56,0,0,0-3.42-1.95c-.25-.27-.5-.54-.74-.82-2.76-3.17-3.67-6.78-2.19-10.75a10.19,10.19,0,0,1,8.46-6.77c1.81-.3,3.45.31,5.16.46h0c.09.4.39.31.66.26l1.15.73a11.4,11.4,0,0,1,4.81,8.15,4.55,4.55,0,0,0,.36-.76,10.34,10.34,0,0,1,8.95-8.82c1.81-.31,3.46.3,5.18.45l0,0c.08.41.41.3.67.33l0,0c.09.37.47.3.69.46l.43.19a12.53,12.53,0,0,1,4.7,6.55,22.75,22.75,0,0,1,0,4.81,13.67,13.67,0,0,1-3.42,5.58,17.56,17.56,0,0,0-3.42,1.95,12.29,12.29,0,0,1-7.65-.24,10.71,10.71,0,0,1,3.81,8.2,10.85,10.85,0,0,1-3.84,8.26,11.72,11.72,0,0,1,7.68-.3l3.42,2a12.94,12.94,0,0,1,3.37,5.68,12.84,12.84,0,0,1,3.37-5.68l3.42-2a13,13,0,0,1,7.64.25l-.75-.85-.43-.48a10.39,10.39,0,0,1-2.38-9.05,13.54,13.54,0,0,1,3.19-5.76l2.58-1.71c.26,0,.56.14.64-.27l0,0a13.83,13.83,0,0,1,7.28,0l3.41,2a12.75,12.75,0,0,1,3.37,5.67,12.84,12.84,0,0,1,3.37-5.67l3.42-2a12.76,12.76,0,0,1,6.88,0l3.42,2c4.87,5.36,4.87,10.6,0,16a17.27,17.27,0,0,0-3.42,2,12.38,12.38,0,0,1-6.88,0,17.48,17.48,0,0,0-3.41-2,12.8,12.8,0,0,1-3.38-5.68,12.79,12.79,0,0,1-3.37,5.68,17.19,17.19,0,0,0-3.41,2,12.64,12.64,0,0,1-7.51-.21c5.58,6.15,4,12.47,0,16.16-.5.93-1.7.86-2.34,1.59a14.77,14.77,0,0,1-7.31.66c.11-.23-.05-.24-.21-.25s-.09.05-.13.07l.36.16c0,.53.5.79.78,1.16a10.35,10.35,0,0,1,2.14,8.2,11,11,0,0,1-4.79,7.29l-1,.67c-.28-.05-.58-.14-.69.27h0a13.86,13.86,0,0,1-7.61-.07.46.46,0,0,0-.66-.14l.39.42a12.05,12.05,0,0,1,4.09,6,18.36,18.36,0,0,0,0,4.8,13.77,13.77,0,0,1-3.42,5.59,17.56,17.56,0,0,0-3.42,2,12.61,12.61,0,0,1-7.5-.21c5.57,6.15,4,12.47,0,16.16-.51.93-1.7.85-2.34,1.59-.23.06-.56-.07-.61.33l0,0a13.83,13.83,0,0,1-7.28.05l-3.41-2a13.66,13.66,0,0,1-3.42-5.59,21.4,21.4,0,0,1,0-4.8,18.66,18.66,0,0,1,2.91-5.28l.36-.16a.28.28,0,0,0-.13-.07c-.15,0-.31,0-.2.25a16.91,16.91,0,0,1-6.34-.3l-3.41-2c-5.35-5.21-4.41-12.51.66-16.42l.41-.42a.47.47,0,0,0-.68.14,14.13,14.13,0,0,1-5.65.44,10.54,10.54,0,0,1-8.45-11.65,13.41,13.41,0,0,1,3.31-6.56l2.57-1.7c.26,0,.56.14.64-.27l0,0a13.83,13.83,0,0,1,7.28-.06l3.41,2a13,13,0,0,1,3.38,5.68A12.84,12.84,0,0,1,664.3,188q1.91-1.11,3.8-2.23c2.3-.16,4.6-.4,7.2.59-5.19-5.59-4.82-10.92,0-16.52a11.92,11.92,0,0,1-7.55.29,17.19,17.19,0,0,0-3.41-2,13.43,13.43,0,0,1-3.42-5.59,21.4,21.4,0,0,1,0-4.8,18.79,18.79,0,0,1,2.91-5.28l.36-.16s-.09-.07-.13-.07-.31,0-.2.25A16.26,16.26,0,0,1,657.49,152.22Zm31.87,33.52a27.92,27.92,0,0,1,5.78,0c-.11.23.05.25.21.25s.08,0,.13-.07l-.36-.16c-1-1.6-2.35-3-2.87-5-.52,2-1.86,3.39-2.87,5l-.36.16a.28.28,0,0,0,.13.07C689.31,186,689.47,186,689.36,185.74Zm-21.1,36.44c2.4-.2,4.79-.43,7.12.58a12.41,12.41,0,0,1-3.92-7.34c-.26,2.68-1.72,4.73-3.17,6.78l-.36.16s.08.07.13.07S668.37,222.41,668.26,222.18Zm16.65-33.86c-2.39.19-4.79.44-7.12-.58a12.37,12.37,0,0,1,3.93,7.34c.25-2.69,1.72-4.73,3.17-6.78l.36-.16s-.09-.07-.13-.07S684.8,188.09,684.91,188.32Zm-16.65-38.38c2.4-.2,4.79-.43,7.12.58a12.68,12.68,0,0,1-4-7.35c-.13,2.74-1.73,4.72-3.13,6.79l-.36.16s.08.07.13.07S668.37,150.17,668.26,149.94Zm18.21,54.87a11.3,11.3,0,0,1-4.68-8.25c-2.51,8.58-6.27,10.78-15.3,9a11.39,11.39,0,0,1,4.92,8C672.64,206.37,679.09,202.29,686.47,204.81Zm-29.93.05a12.52,12.52,0,0,1,8.88,0,12.49,12.49,0,0,1-4.52-6.54A12.54,12.54,0,0,1,656.54,204.86Z"/><path class="cls-4" d="M716.72,242.33a18,18,0,0,0,3.41-2,12.38,12.38,0,0,1,6.88,0,18.08,18.08,0,0,0,3.42,2A12.79,12.79,0,0,1,733.8,248a12.88,12.88,0,0,1,3.37-5.68,17.78,17.78,0,0,0,3.42-2,13.63,13.63,0,0,1,7.28.05l0,0c0,.39.37.27.6.33l2.34,1.59c5,4.59,5,11.37,0,16-.51.92-1.68.87-2.34,1.59-.23.05-.56-.07-.6.33l0,0a13.83,13.83,0,0,1-7.28.05l-3.42-2a12.84,12.84,0,0,1-3.37-5.67,12.75,12.75,0,0,1-3.37,5.67l-3.41,2a16.71,16.71,0,0,1-6.34.3c.11-.23,0-.25-.2-.25s-.09,0-.14.07l.36.16a18.77,18.77,0,0,1,2.92,5.27,18.44,18.44,0,0,0,0,4.81,13.56,13.56,0,0,1-3.42,5.58l-3.41,2a11.7,11.7,0,0,1-7.93-.49c.35.42.41.51.49.58,3.17,3.05,4.41,6.69,3,11s-4.35,6.58-8.74,7.28c-1.75.27-3.35-.34-5-.48h0c-.22-.53-.65-.28-1-.26l-.93-.75a13.26,13.26,0,0,1-4.52-6.49,22.75,22.75,0,0,1,0-4.81,13.56,13.56,0,0,1,3.42-5.58,18.08,18.08,0,0,0,3.42-1.95,11.88,11.88,0,0,1,7.63.26c-2.91-2.89-4.31-6.17-3.57-10.25.43-2.35,1.8-4.13,3.21-5.91l2.58-1.7c.26,0,.56.13.64-.27h0a18,18,0,0,1,6.74-.34c-.11.23,0,.24.2.25s.09-.05.13-.07l-.36-.16a1.41,1.41,0,0,0-.16-.42C711.9,253.08,712.18,246.72,716.72,242.33Z"/><path class="cls-4" d="M791.37,205.38l.42.18a12.61,12.61,0,0,1,4.71,6.56,22.65,22.65,0,0,1,0,4.8,13.77,13.77,0,0,1-3.42,5.59l-3.42,2a12.61,12.61,0,0,1-7.5-.22c5.58,6.17,4,12.48,0,16.17-.51.92-1.69.88-2.34,1.59-.23.06-.57-.07-.61.33l0,0a13.83,13.83,0,0,1-7.28.05,8.92,8.92,0,0,1-3.42-2,13.64,13.64,0,0,1-3.41-5.59,19.28,19.28,0,0,0,0-4.8,13.49,13.49,0,0,1,3.42-5.59l3.43-2a12.27,12.27,0,0,1,7.62.27,2,2,0,0,0-.45-.57c-3-3.09-4.16-6.74-2.76-10.89a10.13,10.13,0,0,1,8.55-7.1c1.8-.3,3.45.3,5.17.45h0c.08.4.41.3.67.33l0,0C790.77,205.28,791.15,205.21,791.37,205.38Z"/><path class="cls-4" d="M772,150.27a17.19,17.19,0,0,0-3.41,1.95,12.42,12.42,0,0,1-6.89,0,17.19,17.19,0,0,0-3.41-1.95c-.1-.12-.2-.25-.3-.36-4.77-5.06-4.39-11.52.91-16,.22-.18.61-.28.51-.7.24-.35.83,0,1-.53.32-.07.76.19.92-.32h0a15.33,15.33,0,0,1,7.67,0h0c.09.4.39.31.66.26l1.14.73a25.82,25.82,0,0,1,2.11,1.93C776.44,139.3,776.83,145.52,772,150.27Z"/><path class="cls-4" d="M779.78,186.4l2.34,1.59c3.22,3.06,4.52,6.72,3.16,11s-4.43,6.68-8.89,7.34c-1.7.26-3.25-.36-4.88-.49h0c-.22-.53-.64-.28-1-.27l-.94-.74a13.27,13.27,0,0,1-4.51-6.5,19.28,19.28,0,0,0,0-4.8A13.56,13.56,0,0,1,768.5,188a17.48,17.48,0,0,0,3.41-2,13.73,13.73,0,0,1,7.28.05l0,0C779.22,186.46,779.55,186.34,779.78,186.4Z"/><path class="cls-15" d="M718.47,295.37c2.25,1.83,4.33,3.79,5.1,6.85.78-3.06,2.85-5,5.11-6.85,2.72-.95,5.45-1.53,8.32-.62.64.21,1.2.68,1.92.62,1.62,1.42,3.3,2.74,4.25,4.78,2,4.19,1.12,8.43-2.59,12.47a18.07,18.07,0,0,1-3.36,1.93,13.22,13.22,0,0,1-6.84,0,18.07,18.07,0,0,1-3.36-1.93,12.85,12.85,0,0,1-3.48-5.88,11.91,11.91,0,0,1-3.42,5.88,18.07,18.07,0,0,1-3.36,1.93c-2.5.75-5,.39-7.52,0L706.9,313c-2.27-2.22-3.86-4.74-3.92-8.06a10.38,10.38,0,0,1,14-10C717.46,295.09,717.89,295.48,718.47,295.37Z"/><path class="cls-15" d="M760,295.37c0,.36.31.36.55.44a11,11,0,0,1,4.69,9.82c-.27,1.13-.55,2.26-.82,3.39-2.47,4.33-6.08,6.48-11.15,5.89a8.78,8.78,0,0,0-2.5-.35L748.45,313c-2.27-2.22-3.86-4.74-3.91-8.06a10.37,10.37,0,0,1,14-10C759,295.09,759.44,295.48,760,295.37Z"/><path class="cls-15" d="M686.58,295.81c.24-.08.53-.08.55-.44a13.83,13.83,0,0,1,9.59-.36l.93.75c.29.27.57.54,1,.26h0c-.27.33.06.46.22.62,5,5.15,5.11,10.61.17,16a17.7,17.7,0,0,1-3.41,1.95c-.21,0-.47,0-.5.33l0,0-2.53.12a10.25,10.25,0,0,1-10-6.51A10.36,10.36,0,0,1,685.28,297C685.71,296.57,686.15,296.19,686.58,295.81Z"/><path class="cls-15" d="M719,132.59c-.23.08-.53.08-.54.43-1.5.3-2.87,1-4.45,1.07a10.38,10.38,0,0,1-8.35-17.35c.25-.29.74-.47.65-1l0,0c.33.12.49-.05.6-.33.64-.74,1.84-.66,2.34-1.59,2.44-.23,4.86-.88,7.59.14-.8-1-1.4-1.67-1.91-2.4a10.49,10.49,0,0,1,1.88-13.7,19,19,0,0,1,3.35-1.94,13.44,13.44,0,0,1,6.84,0,18.69,18.69,0,0,1,3.36,1.94,12.45,12.45,0,0,1,3.4,5.56,17.61,17.61,0,0,1,0,4.81,12.48,12.48,0,0,1-3.39,5.55l-3.42,2a14,14,0,0,1-7-.05,12,12,0,0,1,3.56,5.63,18,18,0,0,1,0,4.81A12.3,12.3,0,0,1,719,132.59Z"/><path class="cls-15" d="M699,115.78c4.93,4.72,4.11,10.68,1.69,13.95a36.5,36.5,0,0,1-2.73,3l0,0c-.32-.08-.58,0-.67.34l0,0a13.06,13.06,0,0,1-6.59,1c-1.07-.17-2.13-.44-3.19-.67l-.43-.19c0-.43-.3-.53-.69-.46l0,0c-.09-.37-.24-.63-.67-.33l0,0c.06-.91-.81-1.11-1.27-1.59a10.58,10.58,0,0,1,.88-15,18.69,18.69,0,0,1,3.36-1.94,13.44,13.44,0,0,1,6.84,0A18.11,18.11,0,0,1,699,115.78Z"/><path class="cls-15" d="M636.39,260.26c4.86,5.24,4.86,10.66,0,15.91L633,278.11a13.18,13.18,0,0,1-6.83,0,19,19,0,0,1-3.36-1.94,15.08,15.08,0,0,1-2.5-3.27c-2.09-4.25-1.25-8.56,2.5-12.66a17.7,17.7,0,0,1,3.41-1.95,13.38,13.38,0,0,1,6.74,0Z"/><path class="cls-15" d="M698,132.71a13.6,13.6,0,0,1,6.9-.53,10.4,10.4,0,0,1,5.38,17c-.3.34-.83.54-.76,1.13l0,0c-.32-.15-.48.07-.64.27l-2.58,1.71c-2.35.26-4.69.73-7.16-.11,4.71,6.47,4.65,10.85-.11,16l-3.42,2a13.27,13.27,0,0,1-6.74,0l-3.42-2a26.25,26.25,0,0,1-1.91-2.33c-2.8-4.32-2.09-9.22,1.91-13.59a17.56,17.56,0,0,1,3.42-1.95,13.84,13.84,0,0,1,7,0,12.08,12.08,0,0,1-3.55-5.63,22.75,22.75,0,0,0,0-4.81,12.72,12.72,0,0,1,5.08-6.88l0,0c.29,0,.57,0,.67-.34Z"/><path class="cls-4" d="M362.22,245.2a28.42,28.42,0,0,1,10.26,13.1,27.58,27.58,0,0,1-19.36,36.57c-2,.5-4.15.7-6.59,1.1a29.75,29.75,0,0,1,18,11.4,28.66,28.66,0,0,1,5.72,20.22,29.28,29.28,0,0,1-22.83,26.09,28.53,28.53,0,0,1-22.69-4.1c-6.91-4.51-11-11-13-19.37-1.71,14-8.73,23.27-22.21,26.11-13.06,2.75-23-2.72-30.17-14.08,1.25,9.09-.72,17.15-6.57,24a29.46,29.46,0,0,1-45.3-.3c-5.92-7.14-7.66-15.45-6.49-24.63-.79,1.13-1.54,2.28-2.37,3.36A30.83,30.83,0,0,1,177.18,357a31.31,31.31,0,0,1-34.36-26.28,30.26,30.26,0,0,1,2.62-18l.93-2,.4-.57c0-.12,0-.25.07-.37l-.32.14-.44.45a32,32,0,0,1-17.24,9.28A30.14,30.14,0,0,1,103.49,313c-7.9-6.45-11.65-15-11.51-25.16a29.3,29.3,0,0,1,2.84-12,3,3,0,0,0,.58-1.78c-7.64,7-16.48,10.14-26.66,8.63A30.32,30.32,0,0,1,49.25,271.6a31.15,31.15,0,0,1,1.54-41.46c9.4-10.09,28.94-15.14,44.88-.58-3.07-8.21-3-16.08.54-23.76a29.45,29.45,0,0,1,39.86-14A30.2,30.2,0,0,1,151,208.56c-1.73-7.86-.3-14.93,5.39-20.67s12.61-7.29,20.48-5.58a22.05,22.05,0,0,1-9.43-16.9c-3.57,10.51-10.22,18.17-20.64,22S126.28,190,117,183.84a32.77,32.77,0,0,1-12.51-38.78,32,32,0,0,1,18.84-19.21c9-3.56,17.9-3,26.79.9-7.51-8.37-10.66-18-8.83-29a31.45,31.45,0,0,1,11.45-19.67,32.87,32.87,0,0,1,42.1,0,33.35,33.35,0,0,1,8.51,40.12c6.22-6.86,13.76-10.49,23.1-9.4s16,6.22,20.5,14.48c-.67-7.8.86-15,5.47-21.34A28.73,28.73,0,0,1,271,90.1c12.86-2.37,27.61,4,33.38,19.58a33.4,33.4,0,0,1,30.16-36.56,33,33,0,0,1,34.74,24.54c4.26,16-4.15,34.49-23.35,40.35,10.75,1.86,17.49,8,20.42,18.44.84-20,17.62-33.91,36.06-32.14a33,33,0,0,1,29.83,36c-1.6,18.24-20.1,35-43.07,28.39,1.39,1.09,2.52,1.9,3.56,2.81,7.51,6.53,11.33,14.82,11.06,24.73a31.26,31.26,0,0,1-25.42,29.83,34,34,0,0,1-16-1.05c-.16-.26-.36-.34-.62-.14ZM144.63,265.87a.33.33,0,0,0,.37.27l.14.23.1-.19-.24,0c.17-.21,0-.34-.11-.49l-.27-.31-.71-1.24a22.94,22.94,0,0,1-2.63-17.86,30.72,30.72,0,0,1,3.13-7.23l.47-.52c0-.14.07-.37,0-.4s-.19.1-.24.21l-.49.43-.82.76c-9.09,8.07-19.36,10.24-30.89,6.23-3.78-1.31-6.89-3.67-10-6.11,0-.12-.06-.31-.22-.18s0,.24.14.28c.12.46.22.93.38,1.37a30.87,30.87,0,0,1,1,18.31,39.32,39.32,0,0,1-2.69,7.05,2.45,2.45,0,0,0,.5-.17c.57-.48,1.12-1,1.7-1.45,8-6.37,17-8.66,27-6.45a32.81,32.81,0,0,1,14,7.21Zm35.29-31.14c-.1.29.07.35.3.35.28.47.55.93.84,1.39,0,0,.1,0,.12,0s.15.1.09,0-.16,0-.24,0c-.09-.58-.85-.76-.84-1.39l-.29-.36-.39-.25C177,230.19,177,226,180,221.84a1.58,1.58,0,0,0,.14-.32c-.16-.1-.25,0-.3.15-.46.13-.92.24-1.37.4a20.81,20.81,0,0,1-23.7-6.75,46.21,46.21,0,0,1-3.28-5.38A30.39,30.39,0,0,1,147,235.29l-.24.31-.39.39a.38.38,0,0,0,.62-.15l.31-.33c.34-.25.69-.48,1-.76A23.23,23.23,0,0,1,178,233.53c.47.35.74,1.05,1.5.95C179.49,234.84,179.65,234.87,179.92,234.73Zm23.39-85-.23-.38c-5.66-8.13-6.49-16.79-2.81-26a34,34,0,0,1-19,12.23,34.58,34.58,0,0,1-22.39-2.39c7,8.27,8.58,12.31,9.54,25.7.27-.74.41-1.16.57-1.58a20.93,20.93,0,0,1,22.91-13,23.1,23.1,0,0,1,10.87,5.26l.37.28c0,.13,0,.29.23.21A1.58,1.58,0,0,0,203.31,149.69Zm86.35,118.45c.08-.09.25-.17,0-.27v.26l.42.25a11.83,11.83,0,0,1,1.41,9.49,20.88,20.88,0,0,1,9.47-6.3,20.24,20.24,0,0,1-10.72-3.4A.45.45,0,0,0,289.66,268.14Zm32.41,12.7c0-.26,0-.54-.29-.66-.1-.3-.19-.6-.3-.89-4-9.87-3-19.17,3.22-27.84A32.38,32.38,0,0,1,331,245.3a44,44,0,0,1-4.81,1,16.33,16.33,0,0,1-9.81-2.59c0-.16-.12-.32-.28-.23s0,.31.05.45c.25.47.51.93.74,1.4a18.1,18.1,0,0,1-3.75,21.06,21.65,21.65,0,0,1-7.69,4.54,18.55,18.55,0,0,1,16.16,9.37c.18.16.06.62.51.5-.23.32,0,.55.16.79s.27.69.4,1a18.06,18.06,0,0,1-18.18,24.48c-1.8-.11-3.5-.68-5.28-.93A29.37,29.37,0,0,1,311.25,324a30.28,30.28,0,0,1,29.39-28.75,2.53,2.53,0,0,0-1-.59,27.13,27.13,0,0,1-11.72-6.45,41.91,41.91,0,0,1-5.49-6.77C322.39,281.2,322.41,280.92,322.07,280.84ZM253,180.38l-.44.52a14.84,14.84,0,0,1-14,1.83,16.76,16.76,0,0,1-6.46-4.59,3.7,3.7,0,0,0,.22.94,14.74,14.74,0,0,1-14.32,19.33c-1.67,0-3.2-.64-4.84-.66.1-.33-.14-.28-.33-.29,0,0-.13.06-.12.07.08.23.28.2.47.2,4.2,3.07,6.89,7,7.09,12.81a10.56,10.56,0,0,1,14.69-6.91c-5.89-5.5-4.7-12.5-.69-16.15a10,10,0,0,1,7.57-2.72,10.88,10.88,0,0,1,9,5.75,17.42,17.42,0,0,1,2-9.36.46.46,0,0,0,.18-.76Zm3.36-3,.43-.52a16,16,0,0,1,8.75-2.86,11.77,11.77,0,0,1-6.93-5.43,17,17,0,0,1-2.05,8,.47.47,0,0,0-.18.76Zm-7.76,45.94c.1-.24-.07-.25-.22-.25a.28.28,0,0,0-.13.07l.36.16c1,1.6,2.34,3,2.88,5,.46-2,1.9-3.37,2.86-5l.36-.16a.28.28,0,0,0-.13-.07c-.16,0-.32,0-.21.25A28.53,28.53,0,0,1,248.55,223.32Zm0,15.32a27.82,27.82,0,0,1,5.77,0c-.1.23.06.25.21.25s.09,0,.13-.07l-.36-.16c-1-1.6-2.34-3-2.87-5-.53,2-1.86,3.4-2.87,5l-.36.16s.09.07.13.07S248.65,238.88,248.55,238.64Zm10.23-17.9c2.39-.18,4.79-.44,7.13.59a12.35,12.35,0,0,1-4-7.56c-.15,2.79-1.65,4.89-3.15,7l-.36.16s.08.07.13.07S258.88,221,258.78,220.74Zm-14.69,0c-.1.24.06.25.21.25s.09,0,.14-.07l-.37-.16c-1.51-2.11-3-4.25-3.2-7a12.27,12.27,0,0,1-3.85,7.57C239.36,220.29,241.73,220.56,244.09,220.74Zm0-15.32c-2.39.17-4.8.44-7.14-.6a12.35,12.35,0,0,1,4,7.57c.15-2.79,1.66-4.88,3.15-7l.36-.16a.28.28,0,0,0-.13-.07C244.15,205.18,244,205.19,244.09,205.42Zm-16.64,17.9c.1-.24-.06-.25-.22-.25s-.08,0-.13.07l.36.16c1.53,2.11,3,4.25,3.21,7a12.32,12.32,0,0,1,3.85-7.58C232.19,223.81,229.81,223.48,227.45,223.32Zm48,0c-2.39.17-4.79.44-7.13-.6a12.45,12.45,0,0,1,4,7.57c.15-2.79,1.65-4.88,3.15-7l.36-.16c-.05,0-.09-.07-.14-.07S275.31,223.09,275.41,223.32Zm-31.32,17.9c-2.39.17-4.8.44-7.14-.6a12.35,12.35,0,0,1,4,7.57c.15-2.79,1.66-4.89,3.15-7l.36-.16a.28.28,0,0,0-.13-.07C244.15,241,244,241,244.09,241.22Zm31.32-2.58c-.1.23.06.25.22.25a.28.28,0,0,0,.13-.07l-.36-.16c-1.52-2.11-3-4.25-3.2-7a12.37,12.37,0,0,1-3.85,7.57C270.68,238.19,273.05,238.46,275.41,238.64Zm-16.63,2.57c.1-.23-.07-.24-.22-.24s-.09,0-.13.07l.36.16c1.52,2.11,3,4.25,3.2,7a12.4,12.4,0,0,1,3.85-7.58C263.51,241.71,261.14,241.38,258.78,241.21Zm-31.33-2.57c2.4-.18,4.8-.44,7.13.59a12.34,12.34,0,0,1-4-7.56c-.16,2.79-1.66,4.89-3.16,7l-.36.16c.05,0,.09.07.13.07S227.55,238.88,227.45,238.64ZM223,220.74c-.11.24.05.25.21.25a.28.28,0,0,0,.13-.07l-.36-.16c-1.37-2-2.92-3.95-3.09-6.6a21.39,21.39,0,0,1-4.16,7.2C218.14,220.29,220.57,220.55,223,220.74Zm49.66,59.87c.11.16.13.54.43.31.12-.1,0-.35-.24-.4a12.22,12.22,0,0,1-1.69-8.43,11.74,11.74,0,0,1-7,5.49A16.79,16.79,0,0,1,272.66,280.61Zm7.21-39.4c.1-.23-.06-.24-.22-.24s-.08,0-.13.07l.36.16a14,14,0,0,1,3.25,7.28,24.78,24.78,0,0,1,4.69-8.19C285.23,241.63,282.56,241.48,279.87,241.21Zm-1.6-44.75a17.66,17.66,0,0,1-7.67,6.29,23.28,23.28,0,0,1,3.34,0c2,.17,3.54,1.39,5.33,2l0,.22.2,0-.18-.18a24,24,0,0,1-1-8.33c.19,0,.24-.09.25-.23s-.07-.1-.11-.15ZM214,258.79a11.44,11.44,0,0,1,10.54-1,2.48,2.48,0,0,0-.64-.71,10.33,10.33,0,0,1-3.87-10c.33-2.31,1.7-4,2.91-5.88l.36-.16c-.05,0-.09-.07-.13-.07s-.32,0-.21.25c-2.7.29-5.37.35-7.83-1-.21.46,0,.65.16.85a14.58,14.58,0,0,1-.91,17c-.17.24-.5.44-.36.82-.19-.07-.32-.06-.21.2Zm34.51-55.94c.47,0,.95,0,1.42-.06a10.41,10.41,0,0,1,11.59,7.68c.15.55,0,1.22.57,1.85a11.18,11.18,0,0,1,5.72-8.78c-7.34.54-12.64-2.4-16.22-9.3a12.41,12.41,0,0,1-3.07,8.62l-.36.16a.28.28,0,0,0,.13.07C248.49,203.09,248.65,203.08,248.55,202.85ZM311.82,239c0,.14.09.29.25.18s0-.24,0-.36c-1.65-2.92-2-6.13-1.73-9.79-2.63,2.91-5.49,4.25-8.94,4.07a11.15,11.15,0,0,1-8.32-4.62,11,11,0,0,1-2.53,9.47c.17,0,.35.1.48.05a11.86,11.86,0,0,0,1.13-.56,18.31,18.31,0,0,1,13-1.59A23.27,23.27,0,0,1,311.82,239Zm-129.74-1.94c-.05-.16-.13-.29-.3-.18s.07.24.12.36c.34.48.68,1,1,1.43a23,23,0,0,1,4,16.4,26.58,26.58,0,0,1-3.42,9.78,20.3,20.3,0,0,1,12.69-2.61,14.93,14.93,0,0,1-7.94-11.12c-.77-5,.84-9.31,4.26-13.06A11.5,11.5,0,0,1,182.08,237.05Zm97.79-16.31a8.06,8.06,0,0,0,1.1,0,10.17,10.17,0,0,1,10.12,4c.14.17.24.5.64.31-.88-4.88.88-8.7,4.94-11.6a15.51,15.51,0,0,1-14.28-4.05,17.13,17.13,0,0,1,.54,4.71c-.23,2.61-1.6,4.64-3.05,6.67l-.36.16c.05,0,.09.07.13.07S280,221,279.87,220.74Zm6.7,44.46c.13.32.41.39.89.49l-.67-.71a18.36,18.36,0,0,1-4.1-13.19c-2.17,5-5.62,7.82-10.75,7.46-5.69-.39-8.89-3.88-10-9.49a11.61,11.61,0,0,1-4.72,8c4-1.38,7.68-1.14,11,1.53s4.36,6.28,3.64,10.9a12.6,12.6,0,0,1,4-4.51C279.3,263.47,282.9,263.63,286.57,265.2Zm2.2,16.86a24,24,0,0,1-3.21,2c-3.57,1.46-6.92.87-10.15-1-.06-.23-.31-.37-.4-.25-.23.31.14.33.3.43a15.94,15.94,0,0,1,3,8.08A15.33,15.33,0,0,1,273,303.91a29.18,29.18,0,0,1,21.74.06c.05-.58-.29-.71-.51-.91-6.37-5.76-8-12.72-5.21-20.78,0-.14.08-.36,0-.41S288.83,281.93,288.77,282.06Zm45.76-38.93a2.52,2.52,0,0,0,.62-.12,27.29,27.29,0,0,1,16.3-2.11c1.35.23,2.68.61,4.31,1-12.38-9.21-16.8-21-13.33-35.87a19,19,0,0,1-14.89,11c9.54,2.31,14.45,11.31,11.14,20-.89,2.37-2.59,4.17-4.15,6.07-.2-.11-.35,0-.48.14s.05.1.08.11C334.35,243.43,334.51,243.38,334.53,243.13Zm-124-46.69c-.11.34.13.29.32.3a.22.22,0,0,0,.13-.07c-.08-.23-.29-.2-.48-.2a3.87,3.87,0,0,0-.53-.54,14.59,14.59,0,0,1-6.52-12.74c0-1.44.51-2.8.62-4.45-6,6.13-13.09,8.07-21.67,6.13,6.76,4.87,9.9,11.11,9.61,19.26,3.41-5.87,8.17-8.65,14.63-8.28C208,195.92,209.24,196.24,210.54,196.44ZM208,172.81a9,9,0,0,0,.93-.58,14.51,14.51,0,0,1,12.39-2.95,15.2,15.2,0,0,1,8.88,5.66c-2.28-6.71-1-12.27,3.64-17.17a27.89,27.89,0,0,1-14.89,1.47c-5.07-1-9.34-3.47-13.33-6.61a22.93,22.93,0,0,1,3.7,11.29c.16,3.07-.66,6-1.32,8.89l-.23.05.1.18Zm134.93,32.32c.66-1.44,1.26-2.9,2-4.3a31.36,31.36,0,0,1,30.93-16.61c2,.23,4,.76,6,1-7.89-5.38-12.91-12.63-14.75-21.59-4.29,17.13-15.15,23.81-32.79,19.6a17.32,17.32,0,0,1,5.74,5c3.79,5.12,4.44,10.77,2.69,16.79-.15.21-.34.57-.1.66S342.83,205.33,342.89,205.13ZM207.87,291c-5.66,6.61-12.6,8.81-21,6.15-.16-.05-.4-.1-.51.15a31.36,31.36,0,0,1,18.43,32.23c-.14,1.14-.61,2.27-.35,3.45-.2-.12-.26,0-.27.18s.06.14.09.21l.16-.42a10.74,10.74,0,0,0,.66-.85c4.94-7.94,12.09-12.51,21.37-14-.87-.16-1.64-.32-2.42-.45-9-1.48-16.51-10.19-16.76-19.26a38.22,38.22,0,0,1,.69-7.25c.25-.09.33-.38.17-.46S207.94,290.84,207.87,291Zm83.24-145.94,1.8-.6a19.26,19.26,0,0,1,9.59-.92c9.11,1.5,14.85,6.91,17.62,16,1.4-10.13,6.74-16.9,16.07-20.46-14.9-1.38-24.93-9.1-30.45-23.35a38.56,38.56,0,0,1-.46,9.19,29.66,29.66,0,0,1-14.4,19.88c-.17.21-.75.16-.62.4S290.87,145.41,291.11,145.05ZM150.51,304.89c.12-.1.25-.19.36-.3,8-8,17.44-11.33,28.68-9.41,1.78.3,3.46,1,5.31,1.19a.62.62,0,0,0-.33-.36,18.07,18.07,0,0,1-7.32-24.07c.11-.21.3-.46,0-.72l.21,0,0-.19-.16.19a25,25,0,0,1-12,4.11,23.17,23.17,0,0,1-15.35-4.61c-.46-.34-.85-1.06-1.56-.72,7.5,11.18,8.36,22.69,1.89,34.62l-.06.37Zm129.7-113.54a17.16,17.16,0,0,1,6.92-5.88,16.47,16.47,0,0,1,6.62-1.21c-8.54-3.2-13.64-8.9-14.71-17.5s2.42-15.32,9.4-20.47c-7.77,2.94-15.44,3.24-23.08.15s-13-8.59-16.41-16.35a8,8,0,0,0,0,.83,24.45,24.45,0,0,1-2.27,14.23,28.42,28.42,0,0,1-8,9.76l-.24.15.21.07v-.24a2.08,2.08,0,0,0,1.23-.14,14.62,14.62,0,0,1,15.71,5.41c.7.92,1.26,2,1.94,3,1.78-6.65,5.88-10.24,11-9.77,5.68.53,9.61,4.42,10,10.13a9.82,9.82,0,0,1-2.57,7.16,10.42,10.42,0,0,1-6.81,3.55c.51.58,1.14.57,1.67.78a14.79,14.79,0,0,1,8.49,8.52c1,2.55.88,5.2,1,7.83-.19,0-.24.08-.25.23s.07.1.1.15ZM249,295.07c.88,10.64-6,20.3-17.29,22.75,10.86.82,19.07,6.05,24.81,15.4-.89-11.15,3.06-20,12.18-26.81C257.17,309.19,250.39,302,249,295.07Zm58.61-98.27c1.1-6.07,4-10.49,8.94-13.4s10.23-3.06,15.71-1.43a24.49,24.49,0,0,1-11.61-16c-1.53,11.78-11.11,19.72-22.76,19.06A15.26,15.26,0,0,1,307.59,196.8ZM251.48,270c-2,5.23-5.52,8.26-11.07,7.81s-8.71-4-9.79-9.46a11.73,11.73,0,0,1-5.07,8.15c6-.5,10.93.82,15.27,4.19a21,21,0,0,1,7.94,13.19c-.12-8.24,3.81-13.52,11.66-16C255.85,277,253,274.44,251.48,270Zm-39.09-46.24a15.74,15.74,0,0,1-15.37-.94c2.43,4.8,2,9-1.54,13.21,5.54-2.61,10.62-2.39,15.77.65C208.81,231.82,209.28,227.68,212.39,223.71Zm100.09,0A15.55,15.55,0,0,1,322.81,217c-8.61-2.06-13.48-7.21-15.25-15.54-1,4.81-2.7,7.12-7.91,10.92C308.18,211.33,312.41,217.32,312.48,223.69ZM210.69,285.48a23.35,23.35,0,0,1,9.21-7.58c-4.59-.48-7.66-2.53-9.35-6.31s-.94-7.36,1.2-10.79c-3.33,2.33-7,3.05-11.29,2.74C209.48,268.57,212.78,275.94,210.69,285.48Zm20-18.78a10.8,10.8,0,0,1,5.33-8.3c3.09-1.82,6.34-1.76,9.7-.64a11.79,11.79,0,0,1-4.81-8.2,10.7,10.7,0,0,1-5.26,8.3c-3.07,1.83-6.32,1.81-9.68.7A11.76,11.76,0,0,1,230.65,266.7Zm-37.17-47.37a16,16,0,0,1-2.81-9.21,24.46,24.46,0,0,1-6,8.49A11.42,11.42,0,0,1,193.48,219.33ZM247,258.52a12.86,12.86,0,0,1,4.48,6.6,12.36,12.36,0,0,1,4.41-6.62A12.39,12.39,0,0,1,247,258.52Zm.24-134.78-.11-.12a1.43,1.43,0,0,0-.09.27s.05.08.08.12Zm135.18,61.7s-.06-.1-.1-.11-.08.06-.12.1.07.1.11.1S382.38,185.47,382.41,185.44Zm-90.56,40.31.06-.09-.08,0Zm1,2.23-.07-.06v.1Z"/></g></g></svg>