<svg xmlns="http://www.w3.org/2000/svg" viewBox="0 0 937.97 770.11"><defs><style>.cls-1,.cls-3,.cls-5{fill:none;}.cls-1{stroke:#000;stroke-miterlimit:10;stroke-width:0.75px;}.cls-2{fill:#00d3a8;}.cls-3{stroke:#869df9;}.cls-3,.cls-5{stroke-width:0.43px;}.cls-4{fill:#869df9;}.cls-5{stroke:#00d3a8;}.cls-6{isolation:isolate;font-size:17px;font-family:SimplonNorm, Simplon Norm;}.cls-7{letter-spacing:0em;}</style></defs><title>vis4Fichier 6</title><g id="Calque_2" data-name="Calque 2"><g id="Captures"><path class="cls-1" d="M938,.38H43.4c-29.85,0-43,8-43,42.67v370.1"/></g><g id="modif"><circle class="cls-2" cx="54.15" cy="469.27" r="6.13" transform="translate(-175.46 56.45) rotate(-22.5)"/><line class="cls-3" x1="362.39" y1="120.39" x2="504.02" y2="463.72"/><polygon class="cls-4" points="503.02 463.21 503.97 463.6 504.36 462.65 504.6 463.22 504.2 464.17 503.25 463.78 503.02 463.21"/><line class="cls-3" x1="360.78" y1="120.73" x2="363.83" y2="255.38"/><polygon class="cls-4" points="363.08 254.54 363.83 255.25 364.54 254.5 364.56 255.12 363.84 255.87 363.1 255.16 363.08 254.54"/><line class="cls-3" x1="363.19" y1="119.96" x2="521.33" y2="353.94"/><polygon class="cls-4" points="520.25 353.64 521.26 353.84 521.46 352.83 521.8 353.34 521.61 354.35 520.6 354.15 520.25 353.64"/><line class="cls-5" x1="360.21" y1="111.76" x2="355.57" y2="66.84"/><polygon class="cls-2" points="356.38 67.62 355.58 66.97 354.93 67.77 354.87 67.15 355.52 66.35 356.32 67 356.38 67.62"/><line class="cls-3" x1="362.07" y1="120.51" x2="453.11" y2="400.71"/><polygon class="cls-4" points="452.15 400.12 453.07 400.58 453.54 399.67 453.73 400.25 453.26 401.17 452.34 400.7 452.15 400.12"/><line class="cls-3" x1="361.06" y1="120.71" x2="381.67" y2="358.27"/><polygon class="cls-4" points="380.87 357.48 381.65 358.14 382.32 357.36 382.37 357.97 381.71 358.76 380.92 358.1 380.87 357.48"/><line class="cls-3" x1="362.54" y1="120.33" x2="446.07" y2="303.44"/><polygon class="cls-4" points="445.06 302.96 446.02 303.32 446.38 302.36 446.64 302.92 446.28 303.88 445.31 303.52 445.06 302.96"/><line class="cls-3" x1="359.52" y1="120.58" x2="300.84" y2="340.82"/><polygon class="cls-4" points="300.36 339.81 300.87 340.7 301.76 340.18 301.6 340.78 300.71 341.3 300.2 340.41 300.36 339.81"/><line class="cls-3" x1="361.97" y1="120.54" x2="516.2" y2="633.24"/><polygon class="cls-4" points="515.26 632.63 516.16 633.11 516.65 632.21 516.83 632.8 516.34 633.71 515.43 633.22 515.26 632.63"/><line class="cls-3" x1="363.64" y1="119.61" x2="404.13" y2="165.73"/><polygon class="cls-4" points="403.02 165.56 404.05 165.63 404.11 164.6 404.52 165.07 404.45 166.09 403.43 166.03 403.02 165.56"/><line class="cls-3" x1="359.55" y1="120.59" x2="343.69" y2="181.82"/><polygon class="cls-4" points="343.2 180.81 343.72 181.7 344.61 181.17 344.45 181.77 343.57 182.29 343.05 181.41 343.2 180.81"/><line class="cls-3" x1="363.33" y1="119.86" x2="584.21" y2="421.31"/><polygon class="cls-4" points="583.12 421.05 584.14 421.2 584.29 420.19 584.66 420.69 584.5 421.7 583.49 421.55 583.12 421.05"/><line class="cls-3" x1="364.06" y1="119.2" x2="520.6" y2="256.5"/><polygon class="cls-4" points="519.47 256.49 520.5 256.42 520.43 255.39 520.9 255.8 520.97 256.83 519.94 256.9 519.47 256.49"/><line class="cls-3" x1="359.78" y1="120.64" x2="292.98" y2="447.81"/><polygon class="cls-4" points="292.44 446.83 293 447.69 293.86 447.12 293.74 447.73 292.88 448.29 292.31 447.44 292.44 446.83"/><line class="cls-3" x1="364.79" y1="118.05" x2="534.19" y2="192.53"/><polygon class="cls-4" points="533.11 192.85 534.07 192.48 533.7 191.52 534.26 191.77 534.64 192.73 533.68 193.1 533.11 192.85"/><line class="cls-3" x1="358.95" y1="120.39" x2="197.14" y2="510"/><polygon class="cls-4" points="196.8 508.93 197.19 509.88 198.14 509.49 197.91 510.06 196.95 510.45 196.56 509.5 196.8 508.93"/><line class="cls-3" x1="365.16" y1="116.62" x2="646.49" y2="140.7"/><polygon class="cls-4" points="645.57 141.35 646.36 140.69 645.7 139.9 646.31 139.96 646.98 140.74 646.19 141.41 645.57 141.35"/><line class="cls-5" x1="358.21" y1="112.47" x2="322.53" y2="57.99"/><polygon class="cls-2" points="323.61 58.3 322.6 58.09 322.39 59.1 322.05 58.59 322.26 57.58 323.27 57.79 323.61 58.3"/><line class="cls-3" x1="362.28" y1="120.44" x2="525.17" y2="547.23"/><polygon class="cls-4" points="524.18 546.69 525.12 547.11 525.54 546.17 525.76 546.75 525.35 547.69 524.4 547.26 524.18 546.69"/><line class="cls-3" x1="360.51" y1="120.73" x2="344.56" y2="541.16"/><polygon class="cls-4" points="343.87 540.28 344.57 541.03 345.32 540.33 345.3 540.95 344.54 541.65 343.84 540.9 343.87 540.28"/><line class="cls-3" x1="722.66" y1="237.72" x2="559.24" y2="360.31"/><polygon class="cls-4" points="559.49 359.21 559.34 360.23 560.36 360.38 559.87 360.75 558.85 360.6 558.99 359.58 559.49 359.21"/><line class="cls-3" x1="721.8" y1="235.59" x2="390.04" y2="277.93"/><polygon class="cls-4" points="390.8 277.1 390.17 277.92 390.98 278.55 390.37 278.62 389.56 277.99 390.19 277.18 390.8 277.1"/><line class="cls-3" x1="723.35" y1="238.45" x2="528.5" y2="467.59"/><polygon class="cls-4" points="528.5 466.46 528.58 467.49 529.61 467.41 529.21 467.88 528.18 467.96 528.1 466.94 528.5 466.46"/><line class="cls-3" x1="721.84" y1="234.19" x2="426.42" y2="178.44"/><polygon class="cls-4" points="427.39 177.88 426.54 178.46 427.12 179.31 426.52 179.2 425.94 178.35 426.79 177.77 427.39 177.88"/><line class="cls-3" x1="722.62" y1="237.66" x2="484.27" y2="410.83"/><polygon class="cls-4" points="484.54 409.74 484.38 410.76 485.39 410.92 484.89 411.28 483.88 411.12 484.04 410.1 484.54 409.74"/><line class="cls-3" x1="723.01" y1="238.13" x2="452.1" y2="497.78"/><polygon class="cls-4" points="452.21 496.66 452.19 497.69 453.22 497.71 452.77 498.14 451.75 498.12 451.77 497.09 452.21 496.66"/><line class="cls-3" x1="722.02" y1="236.5" x2="483.96" y2="319.61"/><polygon class="cls-4" points="484.53 318.64 484.08 319.57 485.01 320.02 484.43 320.22 483.5 319.77 483.95 318.85 484.53 318.64"/><line class="cls-3" x1="721.96" y1="236.32" x2="318.91" y2="358.3"/><polygon class="cls-4" points="319.52 357.36 319.03 358.26 319.94 358.75 319.35 358.93 318.44 358.44 318.93 357.54 319.52 357.36"/><line class="cls-3" x1="722.51" y1="237.5" x2="397.08" y2="452.8"/><polygon class="cls-4" points="397.39 451.72 397.18 452.73 398.19 452.93 397.68 453.27 396.67 453.07 396.87 452.06 397.39 451.72"/><line class="cls-3" x1="722.31" y1="237.17" x2="310.51" y2="460.8"/><polygon class="cls-4" points="310.92 459.75 310.62 460.74 311.61 461.03 311.07 461.32 310.08 461.03 310.37 460.04 310.92 459.75"/><line class="cls-3" x1="722.14" y1="236.82" x2="407.58" y2="373.7"/><polygon class="cls-4" points="408.08 372.69 407.7 373.65 408.66 374.02 408.09 374.27 407.13 373.89 407.51 372.94 408.08 372.69"/><line class="cls-3" x1="723.94" y1="238.87" x2="615.06" y2="419.9"/><polygon class="cls-4" points="614.87 418.8 615.12 419.8 616.12 419.55 615.8 420.08 614.8 420.32 614.55 419.33 614.87 418.8"/><line class="cls-3" x1="721.79" y1="234.56" x2="353.79" y2="196.36"/><polygon class="cls-4" points="354.71 195.72 353.91 196.37 354.56 197.17 353.95 197.11 353.3 196.31 354.1 195.66 354.71 195.72"/><line class="cls-3" x1="723.33" y1="238.43" x2="435.45" y2="574.17"/><polygon class="cls-4" points="435.45 573.04 435.53 574.07 436.56 573.99 436.15 574.46 435.13 574.54 435.05 573.51 435.45 573.04"/><line class="cls-3" x1="721.85" y1="234.13" x2="567.66" y2="203.12"/><polygon class="cls-4" points="568.64 202.57 567.79 203.14 568.36 204 567.75 203.88 567.18 203.02 568.04 202.45 568.64 202.57"/><line class="cls-3" x1="721.84" y1="235.86" x2="558.31" y2="266.8"/><polygon class="cls-4" points="559.01 265.93 558.43 266.78 559.29 267.36 558.68 267.47 557.83 266.89 558.41 266.04 559.01 265.93"/><line class="cls-3" x1="723.61" y1="231.39" x2="664.78" y2="150.99"/><polygon class="cls-4" points="665.87 151.25 664.85 151.09 664.7 152.11 664.33 151.61 664.49 150.59 665.5 150.75 665.87 151.25"/><line class="cls-3" x1="724.98" y1="239.33" x2="651.57" y2="485.62"/><polygon class="cls-4" points="651.12 484.6 651.61 485.5 652.51 485.01 652.34 485.6 651.43 486.09 650.94 485.19 651.12 484.6"/><line class="cls-3" x1="722.9" y1="238.01" x2="634.26" y2="316.75"/><polygon class="cls-4" points="634.41 315.64 634.35 316.67 635.38 316.73 634.92 317.14 633.89 317.08 633.95 316.05 634.41 315.64"/><line class="cls-3" x1="721.78" y1="235.39" x2="634.53" y2="242.6"/><polygon class="cls-4" points="635.33 241.81 634.66 242.59 635.45 243.26 634.83 243.31 634.05 242.65 634.71 241.86 635.33 241.81"/><line class="cls-3" x1="562.45" y1="733.72" x2="538.93" y2="404.84"/><polygon class="cls-4" points="539.72 405.64 538.94 404.97 538.26 405.75 538.22 405.13 538.89 404.35 539.67 405.03 539.72 405.64"/><line class="cls-3" x1="559.53" y1="735.08" x2="306.41" y2="491.05"/><polygon class="cls-4" points="307.53 491.12 306.5 491.14 306.52 492.17 306.07 491.74 306.06 490.71 307.08 490.69 307.53 491.12"/><line class="cls-3" x1="561.38" y1="733.93" x2="470.34" y2="453.73"/><polygon class="cls-4" points="471.29 454.32 470.37 453.85 469.91 454.77 469.72 454.18 470.18 453.26 471.1 453.73 471.29 454.32"/><line class="cls-3" x1="561.9" y1="733.79" x2="517.68" y2="509.05"/><polygon class="cls-4" points="518.56 509.75 517.71 509.18 517.13 510.03 517.01 509.43 517.59 508.57 518.44 509.14 518.56 509.75"/><line class="cls-3" x1="560.54" y1="734.3" x2="446.72" y2="534.9"/><polygon class="cls-4" points="447.77 535.28 446.78 535.01 446.51 536 446.2 535.46 446.48 534.47 447.47 534.74 447.77 535.28"/><line class="cls-3" x1="560.98" y1="734.08" x2="374.7" y2="304.9"/><polygon class="cls-4" points="375.71 305.39 374.75 305.01 374.38 305.97 374.13 305.4 374.51 304.45 375.46 304.83 375.71 305.39"/><line class="cls-3" x1="561.65" y1="733.85" x2="464.58" y2="355.8"/><polygon class="cls-4" points="465.49 356.45 464.61 355.92 464.08 356.81 463.93 356.21 464.45 355.32 465.34 355.85 465.49 356.45"/><line class="cls-3" x1="559" y1="735.74" x2="446.95" y2="662.46"/><polygon class="cls-4" points="448.06 662.31 447.05 662.52 447.26 663.53 446.75 663.19 446.54 662.19 447.54 661.98 448.06 662.31"/><line class="cls-3" x1="560.74" y1="734.19" x2="395.54" y2="407.07"/><polygon class="cls-4" points="396.58 407.5 395.6 407.18 395.28 408.16 395 407.61 395.32 406.63 396.3 406.95 396.58 407.5"/><line class="cls-3" x1="563.34" y1="733.75" x2="597.13" y2="471.44"/><polygon class="cls-4" points="597.74 472.38 597.11 471.57 596.3 472.19 596.38 471.58 597.19 470.95 597.82 471.77 597.74 472.38"/><line class="cls-3" x1="560.23" y1="734.49" x2="390.63" y2="485.58"/><polygon class="cls-4" points="391.71 485.88 390.7 485.69 390.51 486.7 390.16 486.19 390.35 485.17 391.37 485.37 391.71 485.88"/><line class="cls-3" x1="560.14" y1="734.56" x2="309.3" y2="386.74"/><polygon class="cls-4" points="310.39 387 309.37 386.84 309.21 387.86 308.85 387.35 309.01 386.34 310.03 386.5 310.39 387"/><line class="cls-3" x1="564.4" y1="734.02" x2="592.68" y2="661.7"/><polygon class="cls-4" points="593.04 662.76 592.63 661.82 591.69 662.23 591.91 661.65 592.86 661.24 593.27 662.18 593.04 662.76"/><line class="cls-3" x1="559.69" y1="734.93" x2="436.12" y2="603.48"/><polygon class="cls-4" points="437.23 603.6 436.2 603.57 436.17 604.6 435.75 604.15 435.78 603.12 436.81 603.15 437.23 603.6"/><line class="cls-3" x1="562" y1="733.77" x2="537.7" y2="592.89"/><polygon class="cls-4" points="538.56 593.61 537.72 593.02 537.13 593.86 537.02 593.25 537.61 592.41 538.45 593 538.56 593.61"/><line class="cls-3" x1="560.89" y1="734.12" x2="524.34" y2="654.74"/><polygon class="cls-4" points="525.36 655.22 524.39 654.86 524.04 655.83 523.78 655.26 524.13 654.3 525.1 654.65 525.36 655.22"/><line class="cls-3" x1="558.49" y1="736.82" x2="365.27" y2="674.34"/><polygon class="cls-4" points="366.31 673.91 365.39 674.38 365.86 675.29 365.27 675.1 364.8 674.19 365.72 673.72 366.31 673.91"/><line class="cls-3" x1="559.26" y1="735.4" x2="360.71" y2="576.48"/><polygon class="cls-4" points="361.84 576.45 360.81 576.56 360.93 577.58 360.44 577.2 360.33 576.17 361.36 576.06 361.84 576.45"/><line class="cls-3" x1="558.38" y1="739.19" x2="468.41" y2="759.4"/><polygon class="cls-4" points="469.09 758.51 468.54 759.38 469.41 759.93 468.81 760.06 467.94 759.51 468.49 758.64 469.09 758.51"/><line class="cls-3" x1="563.27" y1="733.74" x2="617.21" y2="259.41"/><polygon class="cls-4" points="617.84 260.34 617.2 259.53 616.39 260.17 616.46 259.56 617.26 258.92 617.91 259.72 617.84 260.34"/><line class="cls-3" x1="201.33" y1="236.76" x2="511.22" y2="366.29"/><polygon class="cls-4" points="510.15 366.63 511.11 366.24 510.71 365.29 511.29 365.52 511.68 366.48 510.72 366.87 510.15 366.63"/><line class="cls-3" x1="201.52" y1="236.22" x2="339.52" y2="274.33"/><polygon class="cls-4" points="338.5 274.8 339.39 274.29 338.89 273.4 339.48 273.56 339.99 274.46 339.1 274.96 338.5 274.8"/><line class="cls-3" x1="200.7" y1="237.82" x2="494.45" y2="470.92"/><polygon class="cls-4" points="493.33 470.96 494.35 470.85 494.24 469.82 494.72 470.21 494.84 471.23 493.82 471.35 493.33 470.96"/><line class="cls-3" x1="200.1" y1="238.44" x2="419.5" y2="496.12"/><polygon class="cls-4" points="418.39 495.94 419.42 496.03 419.5 495 419.9 495.47 419.82 496.5 418.8 496.41 418.39 495.94"/><line class="cls-3" x1="200.82" y1="237.66" x2="439.17" y2="410.83"/><polygon class="cls-4" points="438.05 410.92 439.07 410.76 438.9 409.74 439.4 410.1 439.57 411.12 438.55 411.28 438.05 410.92"/><line class="cls-3" x1="201.41" y1="236.54" x2="431.42" y2="319.36"/><polygon class="cls-4" points="430.37 319.75 431.3 319.31 430.86 318.38 431.44 318.59 431.88 319.52 430.95 319.96 430.37 319.75"/><line class="cls-3" x1="198.78" y1="239.22" x2="278.62" y2="448.98"/><polygon class="cls-4" points="277.64 448.44 278.58 448.86 279 447.92 279.22 448.5 278.8 449.44 277.86 449.02 277.64 448.44"/><line class="cls-3" x1="200.7" y1="237.83" x2="363.71" y2="367.9"/><polygon class="cls-4" points="362.58 367.93 363.61 367.82 363.49 366.79 363.97 367.18 364.09 368.2 363.07 368.32 362.58 367.93"/><line class="cls-3" x1="199.95" y1="238.57" x2="362.61" y2="447.16"/><polygon class="cls-4" points="361.51 446.94 362.53 447.06 362.65 446.04 363.04 446.53 362.91 447.55 361.89 447.42 361.51 446.94"/><line class="cls-3" x1="199.86" y1="238.63" x2="278.8" y2="345.04"/><polygon class="cls-4" points="277.7 344.78 278.72 344.94 278.87 343.92 279.24 344.41 279.09 345.43 278.07 345.28 277.7 344.78"/><line class="cls-3" x1="199.6" y1="238.81" x2="412.04" y2="572.5"/><polygon class="cls-4" points="410.97 572.17 411.97 572.4 412.2 571.39 412.53 571.91 412.31 572.92 411.3 572.7 410.97 572.17"/><line class="cls-3" x1="201.17" y1="237.09" x2="575.93" y2="430.98"/><polygon class="cls-4" points="574.84 431.24 575.82 430.92 575.5 429.94 576.05 430.23 576.37 431.21 575.38 431.52 574.84 431.24"/><line class="cls-3" x1="198.69" y1="239.26" x2="347.8" y2="657.38"/><polygon class="cls-4" points="346.83 656.82 347.76 657.26 348.2 656.33 348.41 656.91 347.97 657.84 347.04 657.4 346.83 656.82"/><line class="cls-3" x1="200.37" y1="238.19" x2="516.78" y2="552.68"/><polygon class="cls-4" points="515.66 552.6 516.69 552.59 516.69 551.56 517.13 552 517.13 553.03 516.1 553.03 515.66 552.6"/><line class="cls-3" x1="201.65" y1="235.49" x2="515.32" y2="268.56"/><polygon class="cls-4" points="514.39 269.2 515.19 268.55 514.54 267.75 515.16 267.81 515.81 268.62 515.01 269.26 514.39 269.2"/><line class="cls-3" x1="198.09" y1="239.43" x2="219.19" y2="342.23"/><polygon class="cls-4" points="218.31 341.54 219.17 342.11 219.73 341.25 219.86 341.85 219.29 342.71 218.43 342.14 218.31 341.54"/><line class="cls-3" x1="201.68" y1="235.12" x2="603.36" y2="243.56"/><polygon class="cls-4" points="602.49 244.27 603.24 243.56 602.52 242.82 603.14 242.83 603.85 243.57 603.11 244.29 602.49 244.27"/><line class="cls-3" x1="201.57" y1="235.99" x2="603.81" y2="324.68"/><polygon class="cls-4" points="602.82 325.21 603.69 324.65 603.14 323.79 603.74 323.92 604.29 324.79 603.43 325.34 602.82 325.21"/><line class="cls-3" x1="201.68" y1="235.14" x2="435.99" y2="241.35"/><polygon class="cls-4" points="435.12 242.05 435.87 241.35 435.16 240.6 435.78 240.62 436.48 241.36 435.74 242.07 435.12 242.05"/><line class="cls-3" x1="199.02" y1="239.13" x2="334.86" y2="543.04"/><polygon class="cls-4" points="333.85 542.55 334.81 542.92 335.18 541.96 335.43 542.52 335.06 543.49 334.1 543.12 333.85 542.55"/><line class="cls-3" x1="138.07" y1="424.21" x2="403.01" y2="185.02"/><polygon class="cls-4" points="402.87 186.13 402.92 185.1 401.89 185.05 402.35 184.63 403.38 184.69 403.32 185.72 402.87 186.13"/><line class="cls-3" x1="139.04" y1="428.51" x2="263.07" y2="465.7"/><polygon class="cls-4" points="262.04 466.15 262.95 465.67 262.46 464.76 263.05 464.94 263.54 465.84 262.63 466.33 262.04 466.15"/><line class="cls-3" x1="136.56" y1="431.33" x2="249.4" y2="684.61"/><polygon class="cls-4" points="248.38 684.13 249.34 684.5 249.71 683.54 249.96 684.1 249.6 685.06 248.63 684.7 248.38 684.13"/><line class="cls-3" x1="139.05" y1="428.47" x2="412.08" y2="507.61"/><polygon class="cls-4" points="411.05 508.07 411.95 507.58 411.46 506.68 412.05 506.85 412.55 507.75 411.65 508.25 411.05 508.07"/><line class="cls-3" x1="139.23" y1="427.38" x2="572.83" y2="442.8"/><polygon class="cls-4" points="571.95 443.5 572.7 442.8 572 442.04 572.62 442.07 573.32 442.82 572.57 443.52 571.95 443.5"/><line class="cls-3" x1="139.19" y1="426.66" x2="509.28" y2="380.49"/><polygon class="cls-4" points="508.52 381.32 509.15 380.5 508.34 379.87 508.95 379.8 509.77 380.43 509.14 381.24 508.52 381.32"/><line class="cls-3" x1="139.17" y1="427.93" x2="353.74" y2="462.17"/><polygon class="cls-4" points="352.79 462.76 353.62 462.15 353.01 461.32 353.62 461.42 354.23 462.25 353.39 462.85 352.79 462.76"/><line class="cls-5" x1="130.44" y1="428.56" x2="84.82" y2="442.79"/><polygon class="cls-2" points="85.42 441.85 84.94 442.76 85.85 443.23 85.26 443.42 84.35 442.94 84.83 442.03 85.42 441.85"/><line class="cls-5" x1="130.72" y1="425.19" x2="89.89" y2="404.53"/><polygon class="cls-2" points="90.99 404.27 90.01 404.59 90.33 405.57 89.78 405.29 89.46 404.31 90.44 403.99 90.99 404.27"/><line class="cls-3" x1="137.71" y1="423.85" x2="331.29" y2="205.12"/><polygon class="cls-4" points="331.27 206.24 331.21 205.21 330.18 205.28 330.59 204.81 331.62 204.75 331.68 205.78 331.27 206.24"/><line class="cls-3" x1="138.93" y1="425.6" x2="270.08" y2="375.07"/><polygon class="cls-4" points="269.55 376.06 269.96 375.12 269.02 374.7 269.6 374.48 270.54 374.89 270.12 375.84 269.55 376.06"/><line class="cls-3" x1="138.53" y1="424.81" x2="342.62" y2="295.06"/><polygon class="cls-4" points="342.29 296.13 342.51 295.13 341.51 294.9 342.03 294.57 343.03 294.8 342.81 295.8 342.29 296.13"/><line class="cls-3" x1="139.03" y1="425.91" x2="430.98" y2="336.93"/><polygon class="cls-4" points="430.37 337.87 430.86 336.96 429.95 336.48 430.54 336.3 431.45 336.78 430.96 337.69 430.37 337.87"/><line class="cls-3" x1="136.99" y1="431.11" x2="183.31" y2="510.91"/><polygon class="cls-4" points="182.26 510.54 183.25 510.8 183.51 509.81 183.82 510.34 183.56 511.34 182.57 511.07 182.26 510.54"/><line class="cls-3" x1="139.23" y1="427.22" x2="433.85" y2="427.22"/><polygon class="cls-4" points="432.99 427.94 433.72 427.22 432.99 426.49 433.61 426.49 434.34 427.22 433.61 427.94 432.99 427.94"/><line class="cls-5" x1="131.08" y1="430.84" x2="62.78" y2="465.62"/><polygon class="cls-2" points="63.21 464.58 62.89 465.56 63.87 465.88 63.32 466.16 62.34 465.84 62.66 464.87 63.21 464.58"/><line class="cls-3" x1="139.23" y1="427.16" x2="667.74" y2="419.92"/><polygon class="cls-4" points="666.89 420.66 667.61 419.93 666.87 419.21 667.49 419.2 668.23 419.92 667.51 420.65 666.89 420.66"/><line class="cls-3" x1="139.16" y1="426.45" x2="358.45" y2="388.42"/><polygon class="cls-4" points="357.73 389.28 358.32 388.44 357.48 387.85 358.09 387.74 358.93 388.34 358.34 389.18 357.73 389.28"/><line class="cls-3" x1="138.32" y1="429.94" x2="421.44" y2="644.48"/><polygon class="cls-4" points="420.31 644.54 421.33 644.4 421.19 643.38 421.69 643.75 421.83 644.77 420.81 644.92 420.31 644.54"/><line class="cls-3" x1="139.15" y1="428.03" x2="571.54" y2="507.59"/><polygon class="cls-4" points="570.57 508.15 571.42 507.57 570.83 506.72 571.44 506.84 572.02 507.68 571.18 508.27 570.57 508.15"/><line class="cls-3" x1="722.45" y1="617.03" x2="533.24" y2="498.35"/><polygon class="cls-4" points="534.35 498.19 533.35 498.42 533.58 499.42 533.05 499.09 532.83 498.09 533.83 497.86 534.35 498.19"/><line class="cls-3" x1="723.49" y1="615.88" x2="554.1" y2="399.01"/><polygon class="cls-4" points="555.2 399.23 554.18 399.11 554.05 400.13 553.67 399.64 553.8 398.62 554.82 398.75 555.2 399.23"/><line class="cls-3" x1="721.99" y1="618" x2="312.32" y2="481.3"/><polygon class="cls-4" points="313.36 480.88 312.44 481.34 312.9 482.26 312.31 482.06 311.85 481.14 312.77 480.68 313.36 480.88"/><line class="cls-5" x1="730.17" y1="621.64" x2="763.08" y2="640.33"/><polygon class="cls-2" points="761.98 640.54 762.97 640.26 762.69 639.27 763.23 639.58 763.5 640.57 762.51 640.84 761.98 640.54"/><line class="cls-5" x1="730.48" y1="620.97" x2="801.56" y2="646.99"/><polygon class="cls-2" points="800.51 647.38 801.44 646.95 801.01 646.01 801.59 646.22 802.02 647.16 801.09 647.59 800.51 647.38"/><line class="cls-3" x1="722.38" y1="617.14" x2="316.47" y2="378.86"/><polygon class="cls-4" points="317.57 378.67 316.57 378.93 316.83 379.92 316.3 379.61 316.04 378.61 317.04 378.35 317.57 378.67"/><line class="cls-3" x1="722.56" y1="616.87" x2="405.18" y2="398.64"/><polygon class="cls-4" points="406.3 398.53 405.29 398.71 405.48 399.73 404.97 399.38 404.78 398.37 405.79 398.18 406.3 398.53"/><line class="cls-3" x1="722.62" y1="616.78" x2="484.27" y2="443.6"/><polygon class="cls-4" points="485.39 443.52 484.38 443.68 484.54 444.69 484.04 444.33 483.88 443.31 484.89 443.15 485.39 443.52"/><line class="cls-3" x1="724.52" y1="615.27" x2="557.18" y2="215.92"/><polygon class="cls-4" points="558.18 216.43 557.23 216.04 556.84 216.99 556.6 216.42 556.99 215.47 557.94 215.86 558.18 216.43"/><line class="cls-5" x1="729.27" y1="622.76" x2="779.26" y2="678.15"/><polygon class="cls-2" points="778.14 678 779.17 678.06 779.23 677.03 779.64 677.49 779.59 678.52 778.56 678.46 778.14 678"/><line class="cls-3" x1="724.11" y1="615.47" x2="547.32" y2="289.95"/><polygon class="cls-4" points="548.37 290.36 547.38 290.06 547.09 291.05 546.8 290.51 547.09 289.52 548.08 289.81 548.37 290.36"/><line class="cls-5" x1="726.84" y1="623.88" x2="735.4" y2="689.09"/><polygon class="cls-2" points="734.57 688.34 735.38 688.96 736.01 688.15 736.09 688.76 735.47 689.58 734.65 688.95 734.57 688.34"/><line class="cls-3" x1="723.64" y1="615.76" x2="616.9" y2="466.47"/><polygon class="cls-4" points="617.99 466.74 616.98 466.57 616.81 467.59 616.45 467.08 616.62 466.07 617.63 466.24 617.99 466.74"/><line class="cls-3" x1="724.73" y1="615.19" x2="627.06" y2="345.09"/><polygon class="cls-4" points="628.04 345.64 627.11 345.21 626.67 346.14 626.46 345.56 626.9 344.63 627.83 345.06 628.04 345.64"/><line class="cls-3" x1="723.21" y1="616.12" x2="476.56" y2="349.27"/><polygon class="cls-4" points="477.68 349.4 476.65 349.36 476.61 350.39 476.19 349.94 476.23 348.91 477.26 348.95 477.68 349.4"/><line class="cls-5" x1="727.84" y1="623.63" x2="741.09" y2="658.97"/><polygon class="cls-2" points="740.11 658.42 741.05 658.85 741.47 657.91 741.69 658.49 741.26 659.43 740.33 659 740.11 658.42"/><line class="cls-3" x1="721.91" y1="618.29" x2="556.68" y2="575.43"/><polygon class="cls-4" points="557.69 574.94 556.8 575.46 557.32 576.35 556.73 576.19 556.2 575.3 557.09 574.78 557.69 574.94"/><line class="cls-3" x1="721.81" y1="618.76" x2="365.25" y2="566.07"/><polygon class="cls-4" points="366.2 565.47 365.38 566.09 365.99 566.91 365.38 566.82 364.76 566 365.59 565.38 366.2 565.47"/><line class="cls-3" x1="721.87" y1="620.37" x2="613.62" y2="643.85"/><polygon class="cls-4" points="614.3 642.95 613.75 643.82 614.61 644.38 614.01 644.51 613.14 643.95 613.7 643.09 614.3 642.95"/><line class="cls-5" x1="730.68" y1="618.59" x2="773.28" y2="610.61"/><polygon class="cls-2" points="772.57 611.48 773.15 610.63 772.3 610.05 772.91 609.94 773.76 610.52 773.18 611.37 772.57 611.48"/><line class="cls-3" x1="562.32" y1="120.71" x2="539.69" y2="349.3"/><polygon class="cls-4" points="539.05 348.37 539.7 349.17 540.5 348.52 540.44 349.13 539.64 349.79 538.99 348.99 539.05 348.37"/><line class="cls-3" x1="559.31" y1="119.11" x2="384.28" y2="264.68"/><polygon class="cls-4" points="384.47 263.58 384.38 264.6 385.4 264.7 384.93 265.09 383.9 265 384 263.97 384.47 263.58"/><line class="cls-3" x1="562.17" y1="120.69" x2="516.26" y2="462.13"/><polygon class="cls-4" points="515.65 461.19 516.27 462.01 517.09 461.38 517.01 462 516.19 462.62 515.57 461.8 515.65 461.19"/><line class="cls-3" x1="561.38" y1="120.51" x2="470.34" y2="400.71"/><polygon class="cls-4" points="469.91 399.67 470.38 400.58 471.29 400.12 471.1 400.7 470.18 401.17 469.72 400.25 469.91 399.67"/><line class="cls-3" x1="561.39" y1="120.52" x2="442.2" y2="491.59"/><polygon class="cls-4" points="441.77 490.55 442.24 491.47 443.15 491 442.97 491.58 442.05 492.05 441.58 491.14 441.77 490.55"/><line class="cls-3" x1="559.47" y1="119.3" x2="313.11" y2="348.2"/><polygon class="cls-4" points="313.24 347.08 313.2 348.11 314.23 348.15 313.78 348.57 312.75 348.53 312.79 347.51 313.24 347.08"/><line class="cls-3" x1="560.02" y1="119.8" x2="303.58" y2="452.66"/><polygon class="cls-4" points="303.52 451.54 303.65 452.56 304.68 452.43 304.3 452.92 303.28 453.05 303.14 452.03 303.52 451.54"/><line class="cls-3" x1="560.77" y1="120.27" x2="470" y2="303.81"/><polygon class="cls-4" points="469.73 302.72 470.06 303.7 471.03 303.37 470.76 303.92 469.78 304.25 469.45 303.28 469.73 302.72"/><line class="cls-3" x1="560.66" y1="120.21" x2="388.38" y2="444.91"/><polygon class="cls-4" points="388.14 443.81 388.44 444.8 389.43 444.49 389.14 445.04 388.15 445.34 387.85 444.36 388.14 443.81"/><line class="cls-3" x1="560.27" y1="119.97" x2="398.25" y2="362.53"/><polygon class="cls-4" points="398.12 361.41 398.32 362.42 399.33 362.22 398.98 362.73 397.97 362.93 397.77 361.93 398.12 361.41"/><line class="cls-3" x1="563.07" y1="120.72" x2="597.32" y2="631.58"/><polygon class="cls-4" points="596.53 630.77 597.31 631.45 597.99 630.67 598.03 631.29 597.35 632.07 596.58 631.39 596.53 630.77"/><line class="cls-3" x1="563.28" y1="120.7" x2="597.48" y2="416.1"/><polygon class="cls-4" points="596.66 415.33 597.47 415.98 598.11 415.17 598.18 415.78 597.54 416.59 596.73 415.95 596.66 415.33"/><line class="cls-3" x1="561.49" y1="120.55" x2="428.22" y2="570.23"/><polygon class="cls-4" points="427.77 569.21 428.26 570.11 429.16 569.62 428.99 570.21 428.08 570.7 427.59 569.8 427.77 569.21"/><line class="cls-3" x1="562.48" y1="120.72" x2="535.18" y2="545.71"/><polygon class="cls-4" points="534.51 544.81 535.18 545.59 535.96 544.91 535.92 545.52 535.15 546.2 534.47 545.43 534.51 544.81"/><line class="cls-3" x1="562.03" y1="120.67" x2="540.53" y2="249.4"/><polygon class="cls-4" points="539.95 248.43 540.55 249.27 541.38 248.67 541.28 249.28 540.45 249.88 539.85 249.04 539.95 248.43"/><line class="cls-5" x1="564.01" y1="111.92" x2="578.87" y2="60.5"/><polygon class="cls-2" points="579.33 61.52 578.83 60.62 577.93 61.12 578.1 60.52 579 60.02 579.5 60.93 579.33 61.52"/><line class="cls-3" x1="560.79" y1="120.27" x2="353.31" y2="543.37"/><polygon class="cls-4" points="353.04 542.28 353.37 543.25 354.34 542.92 354.07 543.47 353.1 543.81 352.76 542.83 353.04 542.28"/><line class="cls-3" x1="564.58" y1="120.35" x2="612.68" y2="229.6"/><polygon class="cls-4" points="611.67 229.11 612.63 229.49 613 228.53 613.25 229.09 612.88 230.05 611.92 229.68 611.67 229.11"/><line class="cls-3" x1="562.1" y1="120.68" x2="552.95" y2="182.17"/><polygon class="cls-4" points="552.36 181.22 552.97 182.04 553.8 181.43 553.71 182.04 552.88 182.66 552.27 181.83 552.36 181.22"/><line class="cls-3" x1="563.96" y1="120.57" x2="616.38" y2="311.45"/><polygon class="cls-4" points="615.45 310.82 616.35 311.33 616.86 310.44 617.02 311.03 616.51 311.93 615.62 311.42 615.45 310.82"/><line class="cls-3" x1="784.34" y1="428.29" x2="458.03" y2="508.55"/><polygon class="cls-4" points="458.68 507.64 458.15 508.52 459.03 509.06 458.43 509.2 457.55 508.67 458.08 507.79 458.68 507.64"/><line class="cls-3" x1="784.46" y1="425.76" x2="388.84" y2="289.61"/><polygon class="cls-4" points="389.89 289.2 388.96 289.65 389.42 290.57 388.83 290.37 388.38 289.45 389.31 289 389.89 289.2"/><line class="cls-3" x1="784.22" y1="426.91" x2="690.76" y2="420.55"/><polygon class="cls-4" points="691.66 419.88 690.89 420.56 691.56 421.33 690.95 421.29 690.27 420.52 691.05 419.84 691.66 419.88"/><line class="cls-3" x1="784.92" y1="429.64" x2="447.04" y2="645.5"/><polygon class="cls-4" points="447.37 644.43 447.14 645.43 448.15 645.66 447.63 645.99 446.62 645.77 446.85 644.76 447.37 644.43"/><line class="cls-3" x1="784.54" y1="428.89" x2="593.58" y2="505.39"/><polygon class="cls-4" points="594.1 504.4 593.7 505.35 594.64 505.75 594.07 505.98 593.12 505.58 593.53 504.63 594.1 504.4"/><line class="cls-5" x1="793.1" y1="428.18" x2="847.23" y2="440.04"/><polygon class="cls-2" points="846.24 440.57 847.1 440.01 846.55 439.14 847.15 439.28 847.71 440.14 846.84 440.7 846.24 440.57"/><line class="cls-3" x1="784.23" y1="427.64" x2="400.92" y2="463.69"/><polygon class="cls-4" points="401.7 462.89 401.05 463.68 401.84 464.34 401.22 464.4 400.43 463.74 401.09 462.95 401.7 462.89"/><line class="cls-3" x1="784.3" y1="426.34" x2="564.28" y2="382.49"/><polygon class="cls-4" points="565.26 381.94 564.4 382.51 564.98 383.37 564.37 383.25 563.8 382.39 564.65 381.82 565.26 381.94"/><line class="cls-3" x1="784.23" y1="427.61" x2="628.46" y2="441.34"/><polygon class="cls-4" points="629.25 440.55 628.58 441.33 629.37 442 628.76 442.05 627.97 441.39 628.63 440.6 629.25 440.55"/><line class="cls-3" x1="784.89" y1="424.85" x2="555.42" y2="282.32"/><polygon class="cls-4" points="556.53 282.15 555.52 282.38 555.76 283.39 555.23 283.06 555 282.06 556 281.82 556.53 282.15"/><line class="cls-3" x1="784.25" y1="426.66" x2="235.38" y2="357.23"/><polygon class="cls-4" points="236.32 356.61 235.51 357.24 236.14 358.06 235.53 357.98 234.9 357.16 235.71 356.53 236.32 356.61"/><line class="cls-3" x1="784.21" y1="427.22" x2="489.6" y2="427.22"/><polygon class="cls-4" points="490.45 426.49 489.72 427.22 490.45 427.94 489.83 427.94 489.11 427.22 489.83 426.49 490.45 426.49"/><line class="cls-5" x1="793.07" y1="426.12" x2="826.22" y2="417.72"/><polygon class="cls-2" points="825.57 418.63 826.09 417.75 825.21 417.22 825.81 417.07 826.69 417.6 826.16 418.48 825.57 418.63"/><line class="cls-3" x1="784.4" y1="425.94" x2="484.36" y2="336.74"/><polygon class="cls-4" points="485.39 336.29 484.49 336.78 484.98 337.69 484.38 337.51 483.89 336.6 484.8 336.11 485.39 336.29"/><line class="cls-5" x1="793.17" y1="426.68" x2="872.51" y2="417.17"/><polygon class="cls-2" points="871.75 417.99 872.38 417.19 871.57 416.55 872.18 416.48 873 417.11 872.36 417.92 871.75 417.99"/><line class="cls-3" x1="784.76" y1="425.07" x2="457.64" y2="247.16"/><polygon class="cls-4" points="458.74 246.93 457.75 247.22 458.05 248.21 457.5 247.91 457.21 246.93 458.2 246.63 458.74 246.93"/><line class="cls-3" x1="784.78" y1="429.41" x2="554.43" y2="557.87"/><polygon class="cls-4" points="554.82 556.81 554.54 557.8 555.53 558.09 554.99 558.39 554 558.11 554.28 557.12 554.82 556.81"/><line class="cls-5" x1="792" y1="430.28" x2="825.1" y2="461.11"/><polygon class="cls-2" points="823.98 461.06 825 461.03 824.97 460 825.42 460.42 825.46 461.45 824.43 461.48 823.98 461.06"/><line class="cls-5" x1="790.96" y1="423.33" x2="811.35" y2="387.96"/><polygon class="cls-2" points="811.56 389.06 811.29 388.07 810.3 388.34 810.61 387.8 811.6 387.53 811.87 388.53 811.56 389.06"/><line class="cls-5" x1="792.42" y1="424.68" x2="848.2" y2="386.38"/><polygon class="cls-2" points="847.91 387.46 848.1 386.45 847.09 386.26 847.6 385.91 848.61 386.1 848.42 387.11 847.91 387.46"/><line class="cls-3" x1="362.65" y1="734.16" x2="524.72" y2="402.09"/><polygon class="cls-4" points="525 403.18 524.66 402.2 523.69 402.54 523.96 401.98 524.93 401.65 525.27 402.62 525 403.18"/><line class="cls-3" x1="363" y1="734.36" x2="500.79" y2="506.08"/><polygon class="cls-4" points="500.98 507.19 500.73 506.19 499.73 506.43 500.05 505.9 501.05 505.66 501.3 506.66 500.98 507.19"/><line class="cls-3" x1="356.51" y1="736.52" x2="264.77" y2="699.46"/><polygon class="cls-4" points="265.84 699.11 264.89 699.51 265.29 700.46 264.72 700.23 264.32 699.28 265.27 698.88 265.84 699.11"/><line class="cls-3" x1="362.09" y1="733.94" x2="427.44" y2="536.82"/><polygon class="cls-4" points="427.86 537.86 427.4 536.94 426.48 537.4 426.67 536.81 427.59 536.35 428.06 537.27 427.86 537.86"/><line class="cls-3" x1="360.71" y1="733.71" x2="364.21" y2="307.03"/><polygon class="cls-4" points="364.93 307.89 364.21 307.16 363.47 307.88 363.48 307.26 364.21 306.54 364.93 307.28 364.93 307.89"/><line class="cls-3" x1="359.89" y1="733.78" x2="298.73" y2="391.21"/><polygon class="cls-4" points="299.59 391.93 298.75 391.34 298.16 392.18 298.05 391.57 298.64 390.73 299.49 391.32 299.59 391.93"/><line class="cls-3" x1="359.48" y1="733.87" x2="294.66" y2="498.03"/><polygon class="cls-4" points="295.59 498.66 294.69 498.15 294.18 499.05 294.02 498.45 294.53 497.56 295.42 498.07 295.59 498.66"/><line class="cls-3" x1="361.71" y1="733.83" x2="451.22" y2="355.93"/><polygon class="cls-4" points="451.73 356.93 451.19 356.05 450.31 356.59 450.46 355.99 451.33 355.45 451.87 356.32 451.73 356.93"/><line class="cls-3" x1="362.07" y1="733.93" x2="453.11" y2="453.73"/><polygon class="cls-4" points="453.54 454.77 453.07 453.85 452.15 454.32 452.34 453.73 453.26 453.26 453.73 454.18 453.54 454.77"/><line class="cls-3" x1="363.52" y1="734.72" x2="583.07" y2="465.4"/><polygon class="cls-4" points="583.1 466.52 583 465.5 581.97 465.6 582.36 465.12 583.38 465.02 583.49 466.04 583.1 466.52"/><line class="cls-3" x1="360.95" y1="733.72" x2="375.79" y2="489.67"/><polygon class="cls-4" points="376.47 490.56 375.78 489.79 375.01 490.48 375.05 489.86 375.82 489.18 376.5 489.95 376.47 490.56"/><line class="cls-3" x1="364.87" y1="736.6" x2="583.78" y2="652.74"/><polygon class="cls-4" points="583.24 653.73 583.66 652.79 582.72 652.37 583.3 652.15 584.24 652.57 583.82 653.51 583.24 653.73"/><line class="cls-3" x1="360.97" y1="733.72" x2="382.21" y2="409.78"/><polygon class="cls-4" points="382.88 410.69 382.2 409.91 381.43 410.59 381.47 409.97 382.24 409.29 382.92 410.07 382.88 410.69"/><line class="cls-3" x1="362.4" y1="734.05" x2="415.06" y2="607.32"/><polygon class="cls-4" points="415.41 608.38 415.01 607.43 414.06 607.83 414.3 607.26 415.25 606.86 415.64 607.81 415.41 608.38"/><line class="cls-3" x1="360.13" y1="733.74" x2="354.01" y2="683.63"/><polygon class="cls-4" points="354.83 684.39 354.02 683.76 353.39 684.57 353.31 683.96 353.95 683.14 354.76 683.78 354.83 684.39"/><line class="cls-3" x1="360.24" y1="733.73" x2="345.83" y2="584.53"/><polygon class="cls-4" points="346.64 585.32 345.84 584.66 345.19 585.46 345.13 584.84 345.78 584.05 346.58 584.7 346.64 585.32"/><line class="cls-3" x1="363.89" y1="735.06" x2="516.62" y2="586.06"/><polygon class="cls-4" points="516.52 587.18 516.53 586.15 515.5 586.14 515.95 585.71 516.98 585.72 516.96 586.75 516.52 587.18"/><line class="cls-3" x1="357.88" y1="734.68" x2="200.85" y2="536.65"/><polygon class="cls-4" points="201.96 536.87 200.93 536.75 200.81 537.77 200.43 537.29 200.55 536.27 201.57 536.38 201.96 536.87"/><line class="cls-3" x1="364.12" y1="735.31" x2="639.45" y2="504.08"/><polygon class="cls-4" points="639.27 505.19 639.36 504.16 638.33 504.07 638.8 503.68 639.83 503.77 639.74 504.79 639.27 505.19"/><line class="cls-3" x1="363.09" y1="734.41" x2="611.59" y2="343.38"/><polygon class="cls-4" points="611.74 344.5 611.52 343.49 610.51 343.72 610.85 343.19 611.85 342.97 612.07 343.98 611.74 344.5"/><line class="cls-3" x1="200.84" y1="616.81" x2="514.25" y2="393.23"/><polygon class="cls-4" points="513.98 394.32 514.15 393.3 513.13 393.13 513.63 392.77 514.65 392.94 514.48 393.96 513.98 394.32"/><line class="cls-3" x1="199.17" y1="615.39" x2="352.97" y2="304.36"/><polygon class="cls-4" points="353.24 305.45 352.91 304.47 351.94 304.8 352.21 304.25 353.19 303.92 353.52 304.89 353.24 305.45"/><line class="cls-3" x1="201.32" y1="617.67" x2="491.18" y2="494.98"/><polygon class="cls-4" points="490.68 495.99 491.06 495.03 490.11 494.65 490.68 494.4 491.63 494.79 491.25 495.75 490.68 495.99"/><line class="cls-3" x1="200.82" y1="616.78" x2="439.17" y2="443.6"/><polygon class="cls-4" points="438.9 444.69 439.07 443.68 438.05 443.52 438.55 443.15 439.57 443.31 439.4 444.33 438.9 444.69"/><line class="cls-3" x1="201.29" y1="617.6" x2="413.17" y2="523.86"/><polygon class="cls-4" points="412.68 524.87 413.06 523.91 412.09 523.54 412.66 523.29 413.62 523.66 413.25 524.62 412.68 524.87"/><line class="cls-3" x1="200.18" y1="616.07" x2="439.04" y2="349.56"/><polygon class="cls-4" points="439.01 350.68 438.95 349.65 437.93 349.71 438.34 349.25 439.37 349.19 439.42 350.22 439.01 350.68"/><line class="cls-3" x1="199.55" y1="615.6" x2="274.21" y2="495.08"/><polygon class="cls-4" points="274.38 496.19 274.14 495.19 273.14 495.43 273.46 494.9 274.46 494.67 274.7 495.67 274.38 496.19"/><line class="cls-3" x1="199.98" y1="615.9" x2="367.85" y2="404.25"/><polygon class="cls-4" points="367.88 405.37 367.77 404.35 366.74 404.46 367.13 403.98 368.15 403.86 368.27 404.88 367.88 405.37"/><line class="cls-3" x1="201.63" y1="620.07" x2="418.43" y2="651.66"/><polygon class="cls-4" points="417.48 652.25 418.3 651.64 417.69 650.81 418.3 650.9 418.92 651.73 418.09 652.34 417.48 652.25"/><line class="cls-3" x1="198.79" y1="615.22" x2="284.96" y2="389.91"/><polygon class="cls-4" points="285.33 390.97 284.91 390.03 283.97 390.45 284.19 389.87 285.13 389.45 285.56 390.39 285.33 390.97"/><line class="cls-3" x1="201.3" y1="617.62" x2="575.13" y2="454.92"/><polygon class="cls-4" points="574.63 455.93 575.01 454.97 574.05 454.59 574.62 454.35 575.58 454.72 575.2 455.68 574.63 455.93"/><line class="cls-3" x1="201.64" y1="618.82" x2="403.1" y2="591.75"/><polygon class="cls-4" points="402.35 592.58 402.97 591.76 402.15 591.14 402.76 591.06 403.58 591.68 402.96 592.5 402.35 592.58"/><line class="cls-3" x1="201.63" y1="618.76" x2="510.12" y2="572.95"/><polygon class="cls-4" points="509.38 573.79 510 572.97 509.17 572.35 509.78 572.26 510.61 572.87 509.99 573.7 509.38 573.79"/><line class="cls-3" x1="201.38" y1="617.8" x2="323.45" y2="570.72"/><polygon class="cls-4" points="322.91 571.7 323.33 570.76 322.39 570.35 322.97 570.12 323.91 570.54 323.49 571.48 322.91 571.7"/><line class="cls-3" x1="200.6" y1="616.5" x2="359.13" y2="481.35"/><polygon class="cls-4" points="358.95 482.46 359.04 481.44 358.01 481.36 358.48 480.95 359.51 481.04 359.42 482.06 358.95 482.46"/><line class="cls-3" x1="200.08" y1="615.98" x2="538.98" y2="213.15"/><polygon class="cls-4" points="538.99 214.27 538.9 213.25 537.88 213.33 538.27 212.86 539.3 212.77 539.39 213.8 538.99 214.27"/><line class="cls-3" x1="197.6" y1="614.94" x2="220.65" y2="369.03"/><polygon class="cls-4" points="221.3 369.95 220.64 369.16 219.85 369.82 219.91 369.2 220.7 368.55 221.36 369.34 221.3 369.95"/><line class="cls-3" x1="196.9" y1="614.93" x2="192.14" y2="540"/><polygon class="cls-4" points="192.92 540.81 192.15 540.13 191.47 540.9 191.43 540.28 192.11 539.51 192.88 540.19 192.92 540.81"/><line class="cls-3" x1="201.12" y1="621.58" x2="447.06" y2="756.39"/><polygon class="cls-4" points="445.96 756.62 446.95 756.33 446.66 755.34 447.2 755.64 447.49 756.63 446.5 756.91 445.96 756.62"/><line class="cls-3" x1="200.32" y1="616.2" x2="521.77" y2="286.42"/><polygon class="cls-4" points="521.69 287.54 521.68 286.51 520.65 286.52 521.08 286.08 522.11 286.06 522.12 287.09 521.69 287.54"/><circle cx="360.68" cy="116.24" r="4.09"/><circle class="cls-4" cx="513.09" cy="485.71" r="20.44"/><circle class="cls-4" cx="364.42" cy="281.2" r="22.48"/><circle class="cls-4" cx="536.94" cy="377.04" r="24.52"/><circle class="cls-2" cx="354.59" cy="57.41" r="6.13"/><circle class="cls-4" cx="461.72" cy="427.22" r="24.52"/><circle class="cls-4" cx="383.9" cy="384.01" r="22.48"/><circle class="cls-4" cx="457.64" cy="328.8" r="24.52"/><circle class="cls-4" cx="294.19" cy="365.78" r="22.48"/><circle class="cls-4" cx="519.52" cy="644.27" r="8.17"/><circle class="cls-4" cx="413.08" cy="175.92" r="10.22"/><circle class="cls-4" cx="340.29" cy="194.96" r="10.22"/><circle class="cls-4" cx="600.69" cy="443.79" r="24.52"/><circle class="cls-4" cx="536.94" cy="270.84" r="18.39"/><circle class="cls-4" cx="287.81" cy="473.12" r="22.48"/><circle class="cls-4" cx="550.35" cy="199.64" r="14.31"/><circle class="cls-4" cx="191.15" cy="524.42" r="12.26"/><circle class="cls-4" cx="657.97" cy="141.68" r="8.17"/><circle class="cls-2" cx="317.34" cy="50.05" r="6.13"/><circle class="cls-4" cx="533.65" cy="569.45" r="20.44"/><circle class="cls-4" cx="343.74" cy="562.89" r="18.39"/><circle cx="726.26" cy="235.02" r="4.09"/><circle class="cls-4" cx="434.93" cy="514.24" r="20.44"/><circle class="cls-4" cx="377.24" cy="465.92" r="20.44"/><circle class="cls-4" cx="422.62" cy="589.12" r="16.35"/><circle class="cls-4" cx="648.28" cy="496.67" r="8.17"/><circle class="cls-4" cx="621.06" cy="328.48" r="14.31"/><circle class="cls-4" cx="618.97" cy="243.89" r="12.26"/><ellipse cx="562.85" cy="738.06" rx="3.96" ry="4.04"/><circle class="cls-4" cx="433.88" cy="653.91" r="12.26"/><circle class="cls-4" cx="598.36" cy="647.16" r="12.26"/><circle class="cls-4" cx="352.36" cy="670.16" r="10.22"/><circle class="cls-4" cx="457.17" cy="761.93" r="8.17"/><circle cx="197.18" cy="235.02" r="4.09"/><circle class="cls-4" cx="221.92" cy="355.52" r="10.22"/><circle class="cls-4" cx="447.52" cy="241.65" r="8.17"/><circle cx="134.73" cy="427.22" r="4.09"/><circle class="cls-4" cx="254.09" cy="695.14" r="8.17"/><circle class="cls-2" cx="75.77" cy="445.62" r="6.13"/><circle class="cls-2" cx="81.43" cy="400.25" r="6.13"/><circle class="cls-4" cx="679.26" cy="419.77" r="8.17"/><circle class="cls-4" cx="582.88" cy="509.68" r="8.17"/><circle cx="726.26" cy="619.42" r="4.09"/><circle class="cls-2" cx="771.32" cy="645.01" r="6.13"/><circle class="cls-2" cx="810.47" cy="650.25" r="6.13"/><circle class="cls-2" cx="785.61" cy="685.19" r="6.13"/><circle class="cls-2" cx="736.63" cy="698.49" r="6.13"/><circle class="cls-2" cx="744.42" cy="667.85" r="6.13"/><circle class="cls-2" cx="782.6" cy="608.86" r="6.13"/><circle cx="562.77" cy="116.24" r="4.09"/><circle class="cls-2" cx="581.5" cy="51.39" r="6.13"/><circle cx="788.71" cy="427.22" r="4.09"/><circle class="cls-2" cx="856.49" cy="442.07" r="6.13"/><circle class="cls-2" cx="835.41" cy="415.39" r="6.13"/><circle class="cls-2" cx="881.92" cy="416.04" r="6.13"/><circle class="cls-2" cx="832.04" cy="467.58" r="6.13"/><circle class="cls-2" cx="816.09" cy="379.74" r="6.13"/><circle class="cls-2" cx="856.02" cy="381.01" r="6.13"/><circle cx="360.68" cy="738.2" r="4.09"/><circle cx="197.18" cy="619.42" r="4.09"/><text class="cls-6" transform="translate(574.85 120.76)">p<tspan class="cls-7" x="9.18" y="0">r</tspan><tspan x="14.7" y="0">ofile 1</tspan></text><text class="cls-6" transform="translate(738.35 238.92)">p<tspan class="cls-7" x="9.18" y="0">r</tspan><tspan x="14.7" y="0">ofile 2</tspan></text><text class="cls-6" transform="translate(800.8 431.47)">p<tspan class="cls-7" x="9.18" y="0">r</tspan><tspan x="14.7" y="0">ofile 3</tspan></text><text class="cls-6" transform="translate(738.35 623.69)">p<tspan class="cls-7" x="9.18" y="0">r</tspan><tspan x="14.7" y="0">ofile 4</tspan></text><text class="cls-6" transform="translate(574.81 742.33)">p<tspan class="cls-7" x="9.18" y="0">r</tspan><tspan x="14.7" y="0">ofile 5</tspan></text><text class="cls-6" transform="translate(289.79 742.82)">p<tspan class="cls-7" x="9.18" y="0">r</tspan><tspan x="14.7" y="0">ofile 6</tspan></text><text class="cls-6" transform="translate(127.75 623.53)">p<tspan class="cls-7" x="9.18" y="0">r</tspan><tspan x="14.7" y="0">ofile 7</tspan></text><text class="cls-6" transform="translate(63.88 431.81)">p<tspan class="cls-7" x="9.18" y="0">r</tspan><tspan x="14.7" y="0">ofile 8</tspan></text><text class="cls-6" transform="translate(126.29 239.02)">p<tspan class="cls-7" x="9.18" y="0">r</tspan><tspan x="14.7" y="0">ofile 9</tspan></text><text class="cls-6" transform="translate(279.89 121.8)">p<tspan class="cls-7" x="9.18" y="0">r</tspan><tspan x="14.7" y="0">ofile 10</tspan></text></g></g></svg>