<svg xmlns="http://www.w3.org/2000/svg" viewBox="0 0 938.3 97.07"><defs><style>.cls-1,.cls-10{fill:none;stroke:#000;}.cls-1{stroke-linejoin:round;stroke-width:0.75px;}.cls-2{font-size:15px;font-family:SimplonNorm-Medium, Simplon Norm;}.cls-3{font-size:13px;font-family:SimplonNorm, Simplon Norm;}.cls-4{letter-spacing:-0.02em;}.cls-5{letter-spacing:-0.01em;}.cls-6{letter-spacing:0em;}.cls-7{fill:#ffc90f;}.cls-8{letter-spacing:0.01em;}.cls-9{fill:teal;}.cls-10{stroke-miterlimit:10;stroke-width:0.88px;}</style></defs><title>fixed legend 1&amp;amp;2Fichier 14</title><g id="Calque_2" data-name="Calque 2"><g id="modif"><path class="cls-1" d="M.38,97.07V30.18A29.8,29.8,0,0,1,30.18.38H908.12a29.8,29.8,0,0,1,29.8,29.8V97"/><text class="cls-2" transform="translate(21.8 34.81)">Legend</text><text class="cls-3" transform="translate(51.4 73.16)">&quot;<tspan class="cls-4" x="5.25" y="0">R</tspan><tspan x="12.47" y="0">ecommended </tspan><tspan class="cls-5" x="92.39" y="0">f</tspan><tspan x="96.42" y="0">or </tspan><tspan class="cls-6" x="110.43" y="0">y</tspan><tspan x="116.49" y="0">ou&quot;</tspan></text><circle class="cls-7" cx="32.6" cy="68.66" r="10.8"/><text class="cls-3" transform="translate(413.26 73.16)">Suggested to all the use<tspan class="cls-8" x="133.56" y="0">r</tspan><tspan x="137.9" y="0">s</tspan></text><circle class="cls-9" cx="394.46" cy="68.66" r="10.8"/><text class="cls-3" transform="translate(781.82 72.97)">Number of occur<tspan class="cls-6" x="92.35" y="0">r</tspan><tspan x="96.58" y="0">ences</tspan></text><circle class="cls-10" cx="763.02" cy="65.62" r="10.8"/><line class="cls-10" x1="752.22" y1="80.42" x2="773.82" y2="80.42"/><line class="cls-10" x1="752.22" y1="78.29" x2="752.22" y2="82.49"/><line class="cls-10" x1="773.82" y1="78.29" x2="773.82" y2="82.49"/></g></g></svg>