<svg xmlns="http://www.w3.org/2000/svg" viewBox="0 0 938.3 97.07"><defs><style>.cls-1,.cls-7{fill:none;stroke:#000;}.cls-1{stroke-linejoin:round;stroke-width:0.75px;}.cls-2{font-size:15px;font-family:SimplonNorm-Medium, Simplon Norm;}.cls-3{font-size:13px;font-family:SimplonNorm, Simplon Norm;}.cls-4{fill:#00d3a8;}.cls-5{letter-spacing:0em;}.cls-6{fill:#869df9;}.cls-7{stroke-miterlimit:10;stroke-width:0.88px;}</style></defs><title>fixed legend 4&amp;amp;5Fichier 16</title><g id="Calque_2" data-name="Calque 2"><g id="modif"><path class="cls-1" d="M.38,97.07V30.18A29.8,29.8,0,0,1,30.18.38H908.12a29.8,29.8,0,0,1,29.8,29.8V97"/><text class="cls-2" transform="translate(21.8 34.81)">Legend</text><text class="cls-3" transform="translate(51.4 73.04)">Suggested only to one</text><circle class="cls-4" cx="32.6" cy="68.53" r="10.8"/><text class="cls-3" transform="translate(316.69 73.12)">Suggested to mo<tspan class="cls-5" x="93.85" y="0">r</tspan><tspan x="98.07" y="0">e than one</tspan></text><circle class="cls-6" cx="297.89" cy="68.61" r="10.8"/><text class="cls-3" transform="translate(615.82 73.14)">Number of occur<tspan class="cls-5" x="92.35" y="0">r</tspan><tspan x="96.58" y="0">ences</tspan></text><circle class="cls-7" cx="597.02" cy="65.79" r="10.8"/><line class="cls-7" x1="586.22" y1="80.59" x2="607.82" y2="80.59"/><line class="cls-7" x1="586.22" y1="78.46" x2="586.22" y2="82.66"/><line class="cls-7" x1="607.82" y1="78.46" x2="607.82" y2="82.66"/><text class="cls-3" transform="translate(876.36 73.44)">User</text><circle cx="864.15" cy="69.12" r="4.21"/></g></g></svg>