<svg xmlns="http://www.w3.org/2000/svg" viewBox="0 0 938.3 130.17"><defs><style>.cls-1{font-size:15px;font-family:SimplonNorm-Medium, Simplon Norm;}.cls-2{font-size:13px;font-family:SimplonNorm, Simplon Norm;}.cls-3{fill:#00d3a8;}.cls-4{letter-spacing:-0.02em;}.cls-5{letter-spacing:0em;}.cls-6{letter-spacing:0em;}.cls-7{letter-spacing:0em;}.cls-8{letter-spacing:0.01em;}.cls-9{fill:teal;}.cls-10{fill:#ffc90f;}.cls-11{fill:#c4c4c4;}.cls-12{letter-spacing:-0.02em;}.cls-13{stroke:#ffc90f;}.cls-13,.cls-15,.cls-17{stroke-miterlimit:10;}.cls-13,.cls-15{stroke-width:1.77px;}.cls-14{letter-spacing:0em;}.cls-15{stroke:teal;}.cls-16{letter-spacing:0em;}.cls-17,.cls-18{fill:none;stroke:#000;}.cls-17{stroke-width:0.88px;}.cls-18{stroke-linejoin:round;stroke-width:0.75px;}</style></defs><title>fixed legend 6&amp;amp;7Fichier 17</title><g id="Calque_2" data-name="Calque 2"><g id="modif"><text class="cls-1" transform="translate(21.85 34.36)">Legend</text><text class="cls-2" transform="translate(51.45 72.59)">Suggested only to one</text><circle class="cls-3" cx="32.65" cy="68.08" r="10.8"/><text class="cls-2" transform="translate(51.45 106.25)">Suggested to F<tspan class="cls-4" x="82.93" y="0">o</tspan><tspan x="89.54" y="0">x N</tspan><tspan class="cls-5" x="106.58" y="0">e</tspan><tspan class="cls-6" x="113.35" y="0">w</tspan><tspan x="122.19" y="0">s </tspan><tspan class="cls-7" x="131.23" y="0">w</tspan><tspan x="140.09" y="0">atche</tspan><tspan class="cls-8" x="171.95" y="0">r</tspan><tspan x="176.29" y="0">s</tspan></text><circle class="cls-9" cx="32.65" cy="101.75" r="10.8"/><text class="cls-2" transform="translate(308.95 72.67)">Suggested to CNN <tspan class="cls-7" x="102.11" y="0">w</tspan><tspan x="110.97" y="0">atche</tspan><tspan class="cls-8" x="142.83" y="0">r</tspan><tspan x="147.17" y="0">s</tspan></text><circle class="cls-10" cx="290.15" cy="68.16" r="10.8"/><text class="cls-2" transform="translate(308.95 98.03)">Suggested to both<tspan x="0" y="15.6">CNN and F</tspan><tspan class="cls-4" x="56.93" y="15.6">o</tspan><tspan x="63.54" y="15.6">x N</tspan><tspan class="cls-5" x="80.59" y="15.6">e</tspan><tspan class="cls-6" x="87.35" y="15.6">w</tspan><tspan x="96.19" y="15.6">s </tspan><tspan class="cls-7" x="105.23" y="15.6">w</tspan><tspan x="114.09" y="15.6">atche</tspan><tspan class="cls-8" x="145.95" y="15.6">r</tspan><tspan x="150.29" y="15.6">s</tspan></text><circle class="cls-11" cx="290.15" cy="101.6" r="10.8"/><text class="cls-2" transform="translate(540.07 73.14)"><tspan class="cls-12">W</tspan><tspan x="9.14" y="0">atche</tspan><tspan class="cls-8" x="41" y="0">r</tspan><tspan x="45.34" y="0">s of CNN video</tspan></text><circle class="cls-13" cx="521.27" cy="68.83" r="10.8"/><text class="cls-2" transform="translate(540.07 105.77)"><tspan class="cls-12">W</tspan><tspan x="9.14" y="0">atche</tspan><tspan class="cls-8" x="41" y="0">r</tspan><tspan x="45.34" y="0">s of F</tspan><tspan class="cls-4" x="75.19" y="0">o</tspan><tspan x="81.81" y="0">x N</tspan><tspan class="cls-5" x="98.85" y="0">e</tspan><tspan class="cls-14" x="105.61" y="0">w</tspan><tspan x="114.45" y="0">s video</tspan></text><circle class="cls-15" cx="521.27" cy="101.46" r="10.8"/><text class="cls-2" transform="translate(767.52 73.19)">Number of occur<tspan class="cls-16" x="92.35" y="0">r</tspan><tspan x="96.58" y="0">ences</tspan></text><circle class="cls-17" cx="748.72" cy="68.84" r="10.8"/><line class="cls-17" x1="737.92" y1="83.64" x2="759.52" y2="83.64"/><line class="cls-17" x1="737.92" y1="81.51" x2="737.92" y2="85.71"/><line class="cls-17" x1="759.52" y1="81.51" x2="759.52" y2="85.71"/><text class="cls-2" transform="translate(760.93 105.74)">User</text><circle cx="748.72" cy="101.42" r="4.21"/><path class="cls-18" d="M.38,130.17v-100A29.8,29.8,0,0,1,30.18.38H908.12a29.8,29.8,0,0,1,29.8,29.8v99.94"/></g></g></svg>