<svg xmlns="http://www.w3.org/2000/svg" viewBox="0 0 937.97 861.36"><defs><style>.cls-1,.cls-2,.cls-4,.cls-6,.cls-8{fill:none;}.cls-1{stroke:#000;stroke-miterlimit:10;stroke-width:0.75px;}.cls-2{stroke:#869df9;}.cls-2,.cls-4,.cls-6,.cls-8{stroke-width:0.49px;}.cls-3{fill:#869df9;}.cls-4{stroke:#d7f1f1;}.cls-5{fill:#d7f1f1;}.cls-6{stroke:#b4e7e0;}.cls-7{fill:#b4e7e0;}.cls-8{stroke:#00d3a8;}.cls-9{fill:#00d3a8;}.cls-10{isolation:isolate;font-size:17px;font-family:SimplonNorm, Simplon Norm;}.cls-11{letter-spacing:0em;}</style></defs><title>vis5Fichier 7</title><g id="Calque_2" data-name="Calque 2"><g id="modif"><path class="cls-1" d="M0,.38H894.57c29.86,0,43,8,43,42.67v370.1"/><line class="cls-2" x1="240.84" y1="604.95" x2="426.06" y2="421.32"/><polygon class="cls-3" points="425.95 422.61 425.95 421.43 424.77 421.42 425.27 420.92 426.46 420.93 426.45 422.11 425.95 422.61"/><line class="cls-2" x1="241.85" y1="606.79" x2="463.19" y2="556.57"/><polygon class="cls-3" points="462.41 557.6 463.04 556.6 462.04 555.97 462.73 555.81 463.74 556.44 463.11 557.44 462.41 557.6"/><line class="cls-2" x1="241.67" y1="606.2" x2="483.8" y2="507.86"/><polygon class="cls-3" points="483.21 509.01 483.67 507.92 482.58 507.45 483.23 507.19 484.32 507.65 483.87 508.74 483.21 509.01"/><line class="cls-2" x1="241.95" y1="607.73" x2="423.96" y2="612.48"/><polygon class="cls-3" points="422.96 613.29 423.82 612.47 423 611.61 423.71 611.63 424.53 612.49 423.67 613.3 422.96 613.29"/><line class="cls-2" x1="241.09" y1="605.22" x2="378.71" y2="492.64"/><polygon class="cls-3" points="378.48 493.91 378.6 492.73 377.42 492.61 377.97 492.16 379.15 492.28 379.03 493.46 378.48 493.91"/><line class="cls-2" x1="241.52" y1="605.88" x2="441.62" y2="502.3"/><polygon class="cls-3" points="441.14 503.5 441.5 502.37 440.37 502.01 441 501.68 442.13 502.04 441.77 503.17 441.14 503.5"/><line class="cls-2" x1="241.5" y1="605.84" x2="519.16" y2="457.73"/><polygon class="cls-3" points="518.69 458.93 519.04 457.79 517.9 457.45 518.53 457.12 519.66 457.46 519.32 458.59 518.69 458.93"/><line class="cls-2" x1="241.48" y1="605.8" x2="590.68" y2="414.94"/><polygon class="cls-3" points="590.22 416.14 590.55 415.01 589.42 414.67 590.04 414.33 591.18 414.67 590.84 415.8 590.22 416.14"/><line class="cls-2" x1="240.18" y1="610.84" x2="280.18" y2="673.72"/><polygon class="cls-3" points="278.95 673.34 280.1 673.6 280.36 672.44 280.74 673.04 280.49 674.2 279.33 673.94 278.95 673.34"/><line class="cls-2" x1="377.58" y1="185.48" x2="436.13" y2="381.86"/><polygon class="cls-3" points="435.05 381.16 436.09 381.72 436.65 380.68 436.86 381.36 436.29 382.4 435.25 381.84 435.05 381.16"/><line class="cls-2" x1="373.76" y1="184.49" x2="323.43" y2="233.36"/><polygon class="cls-3" points="323.55 232.08 323.53 233.26 324.71 233.28 324.2 233.78 323.02 233.76 323.04 232.57 323.55 232.08"/><line class="cls-2" x1="378.49" y1="185.08" x2="459.29" y2="316.22"/><polygon class="cls-3" points="458.06 315.82 459.22 316.1 459.49 314.94 459.86 315.55 459.59 316.7 458.44 316.43 458.06 315.82"/><line class="cls-2" x1="378.5" y1="185.07" x2="570.22" y2="492.32"/><polygon class="cls-3" points="568.99 491.93 570.14 492.2 570.41 491.05 570.78 491.65 570.51 492.8 569.36 492.54 568.99 491.93"/><line class="cls-2" x1="377.82" y1="185.4" x2="491.51" y2="490.31"/><polygon class="cls-3" points="490.38 489.68 491.46 490.18 491.95 489.1 492.2 489.76 491.71 490.84 490.63 490.35 490.38 489.68"/><line class="cls-2" x1="379.84" y1="183.63" x2="529.65" y2="263.89"/><polygon class="cls-3" points="528.39 264.16 529.52 263.82 529.18 262.69 529.81 263.02 530.15 264.16 529.02 264.5 528.39 264.16"/><line class="cls-2" x1="379.19" y1="184.52" x2="593.22" y2="397.06"/><polygon class="cls-3" points="591.93 396.96 593.11 396.96 593.11 395.78 593.61 396.28 593.62 397.46 592.43 397.47 591.93 396.96"/><line class="cls-2" x1="376.75" y1="185.63" x2="395.44" y2="453.93"/><polygon class="cls-3" points="394.54 453 395.43 453.78 396.21 452.88 396.25 453.6 395.48 454.49 394.58 453.71 394.54 453"/><line class="cls-2" x1="376.3" y1="185.64" x2="369.77" y2="313.55"/><polygon class="cls-3" points="368.98 312.52 369.77 313.4 370.65 312.61 370.62 313.32 369.74 314.11 368.94 313.23 368.98 312.52"/><line class="cls-2" x1="372.74" y1="181.21" x2="296.71" y2="168.42"/><polygon class="cls-3" points="297.82 167.75 296.86 168.44 297.55 169.41 296.84 169.29 296.16 168.32 297.12 167.63 297.82 167.75"/><line class="cls-2" x1="189.06" y1="444.4" x2="419.46" y2="408.29"/><polygon class="cls-3" points="418.62 409.27 419.32 408.31 418.36 407.61 419.06 407.5 420.02 408.2 419.32 409.16 418.62 409.27"/><line class="cls-2" x1="189.09" y1="445.32" x2="460.35" y2="469"/><polygon class="cls-3" points="459.29 469.75 460.2 468.98 459.44 468.08 460.15 468.14 460.91 469.05 460 469.81 459.29 469.75"/><line class="cls-2" x1="189.04" y1="444.32" x2="344.14" y2="416.57"/><polygon class="cls-3" points="343.32 417.56 344 416.59 343.03 415.91 343.73 415.79 344.7 416.47 344.02 417.44 343.32 417.56"/><line class="cls-2" x1="185.3" y1="445.06" x2="144.84" y2="542.2"/><polygon class="cls-3" points="144.44 540.97 144.9 542.06 145.99 541.61 145.72 542.27 144.62 542.72 144.17 541.62 144.44 540.97"/><line class="cls-2" x1="189.1" y1="445.04" x2="517.19" y2="449.58"/><polygon class="cls-3" points="516.19 450.4 517.04 449.57 516.21 448.73 516.92 448.74 517.75 449.58 516.9 450.41 516.19 450.4"/><line class="cls-2" x1="189.06" y1="445.57" x2="373.63" y2="473.99"/><polygon class="cls-3" points="372.53 474.67 373.48 473.97 372.78 473.01 373.48 473.12 374.18 474.08 373.23 474.78 372.53 474.67"/><line class="cls-2" x1="189.1" y1="444.99" x2="452.09" y2="444.99"/><polygon class="cls-3" points="451.11 445.83 451.94 444.99 451.11 444.15 451.82 444.15 452.66 444.99 451.82 445.83 451.11 445.83"/><line class="cls-2" x1="189.06" y1="445.57" x2="563.29" y2="502.84"/><polygon class="cls-3" points="562.19 503.52 563.14 502.82 562.44 501.87 563.14 501.98 563.85 502.93 562.89 503.63 562.19 503.52"/><line class="cls-2" x1="188.49" y1="442.91" x2="359.43" y2="331.52"/><polygon class="cls-3" points="359.06 332.75 359.31 331.6 358.15 331.35 358.74 330.96 359.9 331.21 359.66 332.37 359.06 332.75"/><line class="cls-2" x1="188.81" y1="443.52" x2="453.97" y2="332.75"/><polygon class="cls-3" points="453.39 333.9 453.84 332.8 452.74 332.35 453.4 332.08 454.49 332.53 454.04 333.62 453.39 333.9"/><line class="cls-2" x1="545.88" y1="185.28" x2="453" y2="383.12"/><polygon class="cls-3" points="452.66 381.88 453.06 382.99 454.18 382.59 453.88 383.23 452.76 383.63 452.36 382.52 452.66 381.88"/><line class="cls-2" x1="546.77" y1="185.57" x2="476.77" y2="542.58"/><polygon class="cls-3" points="476.13 541.45 476.8 542.43 477.78 541.77 477.64 542.47 476.66 543.13 476 542.15 476.13 541.45"/><line class="cls-2" x1="545.77" y1="185.23" x2="407.85" y2="456.45"/><polygon class="cls-3" points="407.55 455.19 407.91 456.32 409.04 455.95 408.72 456.58 407.59 456.95 407.23 455.82 407.55 455.19"/><line class="cls-2" x1="547.32" y1="185.64" x2="531.31" y2="531.01"/><polygon class="cls-3" points="530.52 529.99 531.32 530.87 532.19 530.07 532.16 530.78 531.28 531.58 530.49 530.7 530.52 529.99"/><line class="cls-2" x1="547.31" y1="185.64" x2="534.85" y2="433.01"/><polygon class="cls-3" points="534.06 431.99 534.86 432.86 535.74 432.07 535.7 432.78 534.82 433.57 534.03 432.7 534.06 431.99"/><line class="cls-2" x1="545.04" y1="184.75" x2="389.57" y2="369.04"/><polygon class="cls-3" points="389.57 367.75 389.67 368.93 390.85 368.83 390.39 369.37 389.21 369.47 389.11 368.29 389.57 367.75"/><line class="cls-2" x1="377.3" y1="704.43" x2="437.84" y2="427.8"/><polygon class="cls-3" points="438.45 428.94 437.81 427.94 436.81 428.58 436.96 427.89 437.96 427.25 438.6 428.25 438.45 428.94"/><line class="cls-2" x1="373.32" y1="706.04" x2="149.28" y2="556.83"/><polygon class="cls-3" points="150.56 556.68 149.4 556.91 149.63 558.07 149.04 557.68 148.81 556.52 149.97 556.28 150.56 556.68"/><line class="cls-2" x1="376.83" y1="704.35" x2="394.98" y2="501.25"/><polygon class="cls-3" points="395.72 502.3 394.96 501.39 394.05 502.15 394.12 501.45 395.03 500.69 395.79 501.6 395.72 502.3"/><line class="cls-2" x1="377.93" y1="704.62" x2="468.61" y2="482.53"/><polygon class="cls-3" points="469.01 483.76 468.55 482.66 467.46 483.12 467.73 482.46 468.82 482.01 469.28 483.1 469.01 483.76"/><line class="cls-2" x1="375.06" y1="704.62" x2="239.75" y2="372.48"/><polygon class="cls-3" points="240.9 373.07 239.81 372.62 239.35 373.71 239.08 373.05 239.54 371.96 240.63 372.42 240.9 373.07"/><line class="cls-2" x1="377.82" y1="704.58" x2="433.85" y2="554.83"/><polygon class="cls-3" points="434.29 556.05 433.8 554.97 432.72 555.46 432.97 554.79 434.05 554.3 434.54 555.38 434.29 556.05"/><line class="cls-2" x1="372.83" y1="707.1" x2="295.02" y2="684.8"/><polygon class="cls-3" points="296.19 684.27 295.16 684.85 295.73 685.88 295.05 685.68 294.47 684.65 295.51 684.08 296.19 684.27"/><line class="cls-2" x1="734.92" y1="444.48" x2="466.43" y2="407.82"/><polygon class="cls-3" points="467.52 407.13 466.58 407.84 467.3 408.79 466.59 408.69 465.88 407.75 466.82 407.03 467.52 407.13"/><line class="cls-2" x1="734.89" y1="445.08" x2="550.82" y2="449.41"/><polygon class="cls-3" points="551.78 448.55 550.97 449.41 551.82 450.23 551.11 450.24 550.26 449.43 551.07 448.57 551.78 448.55"/><line class="cls-2" x1="735.2" y1="443.49" x2="478.57" y2="332.88"/><polygon class="cls-3" points="479.81 332.5 478.71 332.94 479.14 334.04 478.49 333.76 478.05 332.66 479.15 332.22 479.81 332.5"/><line class="cls-2" x1="735.13" y1="446.33" x2="592.34" y2="499.83"/><polygon class="cls-3" points="592.96 498.7 592.47 499.78 593.55 500.27 592.89 500.52 591.81 500.03 592.3 498.95 592.96 498.7"/><line class="cls-2" x1="734.9" y1="445.35" x2="420.72" y2="475.35"/><polygon class="cls-3" points="421.62 474.42 420.86 475.33 421.78 476.09 421.07 476.16 420.16 475.4 420.91 474.49 421.62 474.42"/><line class="cls-4" x1="741.45" y1="442.37" x2="784.22" y2="401.7"/><polygon class="cls-5" points="784.08 402.99 784.11 401.8 782.93 401.77 783.45 401.29 784.63 401.31 784.6 402.5 784.08 402.99"/><line class="cls-2" x1="735.83" y1="442.48" x2="545.81" y2="275.11"/><polygon class="cls-3" points="547.11 275.13 545.92 275.21 546 276.39 545.47 275.92 545.39 274.74 546.57 274.66 547.11 275.13"/><line class="cls-2" x1="735.02" y1="443.98" x2="618.47" y2="411.72"/><polygon class="cls-3" points="619.64 411.18 618.61 411.76 619.19 412.79 618.51 412.6 617.92 411.57 618.95 410.99 619.64 411.18"/><line class="cls-2" x1="734.9" y1="445.35" x2="486.96" y2="468.9"/><polygon class="cls-3" points="487.86 467.97 487.1 468.88 488.02 469.64 487.31 469.7 486.4 468.95 487.15 468.04 487.86 467.97"/><line class="cls-2" x1="548.07" y1="704.38" x2="575.95" y2="520.05"/><polygon class="cls-3" points="576.63 521.15 575.93 520.19 574.97 520.9 575.08 520.19 576.03 519.49 576.74 520.44 576.63 521.15"/><line class="cls-2" x1="546.58" y1="704.45" x2="499.42" y2="515.79"/><polygon class="cls-3" points="500.47 516.55 499.46 515.94 498.85 516.95 498.68 516.26 499.29 515.25 500.3 515.86 500.47 516.55"/><line class="cls-6" x1="545.79" y1="704.74" x2="387.28" y2="388.33"/><polygon class="cls-7" points="388.47 388.83 387.35 388.46 386.98 389.58 386.66 388.95 387.03 387.82 388.15 388.2 388.47 388.83"/><line class="cls-2" x1="546.26" y1="704.55" x2="450.65" y2="427.05"/><polygon class="cls-3" points="451.76 427.71 450.69 427.19 450.18 428.26 449.94 427.58 450.46 426.52 451.53 427.04 451.76 427.71"/><line class="cls-2" x1="545.42" y1="704.96" x2="410.06" y2="497.49"/><polygon class="cls-3" points="411.3 497.85 410.14 497.61 409.89 498.77 409.51 498.17 409.75 497.01 410.91 497.26 411.3 497.85"/><line class="cls-2" x1="545.87" y1="704.71" x2="479.51" y2="564.51"/><polygon class="cls-3" points="480.68 565.04 479.57 564.64 479.17 565.75 478.87 565.11 479.26 564 480.38 564.39 480.68 565.04"/><line class="cls-2" x1="547.12" y1="704.36" x2="531.83" y2="550.76"/><polygon class="cls-3" points="532.76 551.66 531.85 550.91 531.1 551.82 531.02 551.12 531.77 550.2 532.69 550.95 532.76 551.66"/><line class="cls-2" x1="544.58" y1="705.7" x2="441.45" y2="619.1"/><polygon class="cls-3" points="442.74 619.09 441.56 619.2 441.66 620.38 441.12 619.92 441.01 618.74 442.19 618.63 442.74 619.09"/><line class="cls-2" x1="683.09" y1="605.01" x2="589.13" y2="515.53"/><polygon class="cls-3" points="590.42 515.61 589.24 515.63 589.27 516.82 588.75 516.33 588.73 515.14 589.91 515.12 590.42 515.61"/><line class="cls-2" x1="682.93" y1="605.19" x2="461.13" y2="419.83"/><polygon class="cls-3" points="462.42 419.82 461.24 419.93 461.35 421.11 460.8 420.65 460.7 419.47 461.88 419.37 462.42 419.82"/><line class="cls-2" x1="682.38" y1="606.07" x2="418.73" y2="487.35"/><polygon class="cls-3" points="419.97 486.99 418.87 487.41 419.29 488.52 418.64 488.23 418.22 487.12 419.32 486.7 419.97 486.99"/><line class="cls-2" x1="684.4" y1="604.11" x2="609.65" y2="421.66"/><polygon class="cls-3" points="610.79 422.25 609.7 421.8 609.24 422.89 608.97 422.23 609.43 421.14 610.52 421.6 610.79 422.25"/><line class="cls-2" x1="683.21" y1="604.89" x2="545.67" y2="461.93"/><polygon class="cls-3" points="546.95 462.06 545.77 462.04 545.75 463.22 545.25 462.71 545.28 461.52 546.46 461.55 546.95 462.06"/><line class="cls-2" x1="682.65" y1="605.56" x2="484.87" y2="477.42"/><polygon class="cls-3" points="486.15 477.26 484.99 477.5 485.24 478.66 484.64 478.27 484.4 477.12 485.56 476.87 486.15 477.26"/><line class="cls-2" x1="241.41" y1="284.3" x2="422.53" y2="392.44"/><polygon class="cls-3" points="421.26 392.66 422.41 392.37 422.12 391.22 422.73 391.58 423.02 392.73 421.87 393.02 421.26 392.66"/><line class="cls-2" x1="241.31" y1="284.46" x2="372.38" y2="371.49"/><polygon class="cls-3" points="371.1 371.65 372.26 371.41 372.03 370.25 372.62 370.65 372.85 371.81 371.69 372.04 371.1 371.65"/><line class="cls-2" x1="240.54" y1="285.3" x2="382.1" y2="459.2"/><polygon class="cls-3" points="380.83 458.96 382.01 459.08 382.13 457.9 382.58 458.46 382.46 459.63 381.28 459.51 380.83 458.96"/><line class="cls-2" x1="241.88" y1="283.06" x2="407.95" y2="314.43"/><polygon class="cls-3" points="406.83 315.07 407.81 314.4 407.14 313.42 407.84 313.56 408.51 314.53 407.53 315.2 406.83 315.07"/><line class="cls-2" x1="241.49" y1="280.55" x2="307.6" y2="244.96"/><polygon class="cls-3" points="307.13 246.16 307.47 245.03 306.34 244.69 306.96 244.35 308.1 244.69 307.76 245.82 307.13 246.16"/><line class="cls-2" x1="238.04" y1="286.16" x2="236.28" y2="353.41"/><polygon class="cls-3" points="235.46 352.4 236.28 353.26 237.14 352.45 237.12 353.16 236.26 353.97 235.45 353.11 235.46 352.4"/><line class="cls-4" x1="234.79" y1="280.55" x2="192.74" y2="257.96"/><polygon class="cls-5" points="194 257.69 192.87 258.03 193.21 259.16 192.58 258.82 192.24 257.69 193.38 257.35 194 257.69"/><line class="cls-2" x1="239.62" y1="278.85" x2="283.1" y2="175.9"/><polygon class="cls-3" points="283.49 177.13 283.04 176.03 281.94 176.48 282.22 175.82 283.31 175.38 283.76 176.47 283.49 177.13"/><line class="cls-2" x1="682.31" y1="283.76" x2="363.09" y2="411.15"/><polygon class="cls-3" points="363.69 410.01 363.23 411.1 364.31 411.56 363.65 411.83 362.57 411.36 363.03 410.27 363.69 410.01"/><line class="cls-2" x1="682.69" y1="284.49" x2="416.75" y2="464.31"/><polygon class="cls-3" points="417.1 463.06 416.87 464.23 418.04 464.45 417.45 464.85 416.28 464.63 416.51 463.46 417.1 463.06"/><line class="cls-2" x1="683.36" y1="285.24" x2="504.9" y2="492.7"/><polygon class="cls-3" points="504.9 491.41 504.99 492.59 506.17 492.5 505.71 493.04 504.53 493.13 504.44 491.95 504.9 491.41"/><line class="cls-2" x1="683.76" y1="285.54" x2="612.18" y2="395.07"/><polygon class="cls-3" points="612.02 393.78 612.26 394.94 613.42 394.7 613.03 395.3 611.87 395.54 611.63 394.38 612.02 393.78"/><line class="cls-2" x1="682.77" y1="284.59" x2="470.01" y2="439.17"/><polygon class="cls-3" points="470.31 437.92 470.12 439.08 471.29 439.27 470.72 439.69 469.55 439.5 469.73 438.33 470.31 437.92"/><line class="cls-2" x1="682.12" y1="283.12" x2="479.39" y2="324.9"/><polygon class="cls-3" points="480.18 323.88 479.53 324.87 480.52 325.52 479.82 325.66 478.83 325.01 479.49 324.02 480.18 323.88"/><line class="cls-2" x1="682.08" y1="282.86" x2="380.7" y2="323.61"/><polygon class="cls-3" points="381.56 322.64 380.85 323.59 381.79 324.3 381.08 324.4 380.14 323.68 380.86 322.74 381.56 322.64"/><line class="cls-2" x1="682.45" y1="284.06" x2="464.12" y2="393.94"/><polygon class="cls-3" points="464.62 392.75 464.25 393.88 465.37 394.25 464.74 394.57 463.61 394.19 463.99 393.07 464.62 392.75"/><line class="cls-2" x1="682.07" y1="282.83" x2="427.51" y2="315.02"/><polygon class="cls-3" points="428.38 314.07 427.65 315.01 428.59 315.73 427.88 315.82 426.95 315.1 427.67 314.16 428.38 314.07"/><line class="cls-2" x1="683.23" y1="285.12" x2="444.12" y2="538.36"/><polygon class="cls-3" points="444.18 537.07 444.22 538.25 445.4 538.22 444.91 538.73 443.73 538.77 443.7 537.58 444.18 537.07"/><line class="cls-2" x1="683.29" y1="285.17" x2="545.3" y2="437.35"/><polygon class="cls-3" points="545.35 436.06 545.4 437.24 546.59 437.18 546.11 437.71 544.92 437.77 544.87 436.58 545.35 436.06"/><line class="cls-8" x1="241.74" y1="606.39" x2="167.57" y2="642.97"/><polygon class="cls-9" points="168.08 641.78 167.7 642.91 168.82 643.29 168.18 643.6 167.06 643.22 167.44 642.1 168.08 641.78"/><line class="cls-8" x1="240.22" y1="604.44" x2="167.6" y2="581.78"/><polygon class="cls-9" points="168.79 581.28 167.74 581.83 168.29 582.88 167.61 582.66 167.06 581.61 168.11 581.06 168.79 581.28"/><line class="cls-8" x1="235.65" y1="610.5" x2="188.95" y2="664.37"/><polygon class="cls-9" points="188.96 663.07 189.05 664.26 190.23 664.17 189.76 664.71 188.58 664.79 188.5 663.61 188.96 663.07"/><line class="cls-8" x1="241.23" y1="605.4" x2="209.39" y2="581.95"/><polygon class="cls-9" points="210.68 581.86 209.5 582.04 209.68 583.21 209.11 582.78 208.93 581.61 210.1 581.44 210.68 581.86"/><line class="cls-8" x1="234.36" y1="608.04" x2="173.69" y2="614.69"/><polygon class="cls-9" points="174.57 613.75 173.83 614.67 174.76 615.41 174.05 615.49 173.13 614.75 173.87 613.83 174.57 613.75"/><line class="cls-8" x1="241.34" y1="609.7" x2="247.24" y2="645.5"/><polygon class="cls-9" points="246.26 644.66 247.22 645.36 247.91 644.39 248.02 645.09 247.33 646.06 246.37 645.37 246.26 644.66"/><line class="cls-8" x1="240.83" y1="604.93" x2="219.2" y2="647.5"/><polygon class="cls-9" points="218.9 646.24 219.26 647.37 220.39 647 220.07 647.64 218.94 648 218.57 646.88 218.9 646.24"/><line class="cls-8" x1="241.9" y1="607.01" x2="232.17" y2="669.98"/><polygon class="cls-9" points="231.49 668.88 232.19 669.84 233.15 669.14 233.04 669.84 232.09 670.54 231.38 669.59 231.49 668.88"/><line class="cls-8" x1="234.48" y1="608.67" x2="138.66" y2="635.8"/><polygon class="cls-9" points="139.38 634.73 138.8 635.76 139.83 636.34 139.15 636.54 138.12 635.96 138.69 634.92 139.38 634.73"/><line class="cls-8" x1="235.07" y1="609.88" x2="143.25" y2="677.09"/><polygon class="cls-9" points="143.55 675.83 143.37 677 144.54 677.18 143.97 677.6 142.79 677.42 142.98 676.25 143.55 675.83"/><line class="cls-8" x1="240.84" y1="604.95" x2="148.51" y2="594.93"/><polygon class="cls-9" points="149.58 594.2 148.66 594.95 149.4 595.87 148.69 595.79 147.95 594.87 148.88 594.13 149.58 594.2"/><line class="cls-8" x1="376.78" y1="178.04" x2="381.94" y2="109.56"/><polygon class="cls-9" points="382.7 110.61 381.93 109.71 381.03 110.48 381.08 109.77 381.98 109 382.75 109.9 382.7 110.61"/><line class="cls-8" x1="377.37" y1="185.54" x2="322.4" y2="124.77"/><polygon class="cls-9" points="323.68 124.94 322.5 124.88 322.44 126.07 321.96 125.54 322.02 124.36 323.21 124.42 323.68 124.94"/><line class="cls-8" x1="376.23" y1="178.04" x2="368.42" y2="66.37"/><polygon class="cls-9" points="369.32 67.29 368.43 66.51 367.65 67.41 367.6 66.7 368.38 65.81 369.27 66.58 369.32 67.29"/><line class="cls-8" x1="378.45" y1="178.58" x2="419.29" y2="110.79"/><polygon class="cls-9" points="419.5 112.07 419.22 110.92 418.07 111.2 418.43 110.6 419.58 110.31 419.87 111.46 419.5 112.07"/><line class="cls-8" x1="378.29" y1="178.48" x2="435.99" y2="70.72"/><polygon class="cls-9" points="436.26 71.99 435.92 70.85 434.78 71.2 435.12 70.57 436.25 70.23 436.6 71.36 436.26 71.99"/><line class="cls-8" x1="379.36" y1="179.34" x2="419.04" y2="144.68"/><polygon class="cls-9" points="418.85 145.96 418.93 144.78 417.75 144.7 418.28 144.23 419.46 144.31 419.38 145.49 418.85 145.96"/><line class="cls-8" x1="377.17" y1="178.1" x2="402.31" y2="40.6"/><polygon class="cls-9" points="402.95 41.72 402.28 40.74 401.31 41.41 401.44 40.71 402.41 40.04 403.08 41.02 402.95 41.72"/><line class="cls-8" x1="379.89" y1="183.55" x2="443.24" y2="148.18"/><polygon class="cls-9" points="442.79 149.39 443.11 148.25 441.97 147.93 442.59 147.59 443.73 147.91 443.41 149.05 442.79 149.39"/><line class="cls-8" x1="374.79" y1="178.44" x2="344.04" y2="117.07"/><polygon class="cls-9" points="345.23 117.58 344.11 117.2 343.74 118.33 343.42 117.69 343.79 116.57 344.91 116.94 345.23 117.58"/><line class="cls-8" x1="374.83" y1="178.41" x2="324.95" y2="75.4"/><polygon class="cls-9" points="326.13 75.92 325.02 75.53 324.63 76.65 324.32 76.01 324.71 74.89 325.82 75.28 326.13 75.92"/><line class="cls-8" x1="185.3" y1="445.06" x2="152.45" y2="384.36"/><polygon class="cls-9" points="153.65 384.82 152.51 384.48 152.18 385.62 151.84 385 152.18 383.86 153.31 384.2 153.65 384.82"/><line class="cls-8" x1="181.87" y1="443.34" x2="122.99" y2="415"/><polygon class="cls-9" points="124.24 414.67 123.12 415.06 123.51 416.18 122.87 415.87 122.48 414.75 123.6 414.36 124.24 414.67"/><line class="cls-8" x1="189.1" y1="445.06" x2="126.39" y2="393.09"/><polygon class="cls-9" points="127.69 393.08 126.51 393.19 126.62 394.37 126.07 393.91 125.96 392.73 127.14 392.62 127.69 393.08"/><line class="cls-8" x1="188.83" y1="443.58" x2="122.92" y2="496.92"/><polygon class="cls-9" points="123.16 495.65 123.03 496.82 124.21 496.95 123.66 497.39 122.48 497.27 122.61 496.09 123.16 495.65"/><line class="cls-8" x1="181.86" y1="446.62" x2="118.87" y2="476.53"/><polygon class="cls-9" points="119.4 475.35 119 476.47 120.12 476.86 119.47 477.17 118.36 476.77 118.75 475.65 119.4 475.35"/><line class="cls-8" x1="185.3" y1="445.06" x2="155.33" y2="486.26"/><polygon class="cls-9" points="155.23 484.97 155.42 486.14 156.59 485.96 156.17 486.53 155 486.72 154.81 485.55 155.23 484.97"/><line class="cls-8" x1="181.5" y1="444.83" x2="101.69" y2="441.47"/><polygon class="cls-9" points="102.71 440.67 101.84 441.48 102.64 442.35 101.93 442.32 101.13 441.44 102 440.64 102.71 440.67"/><line class="cls-8" x1="181.7" y1="446.22" x2="70.76" y2="484.08"/><polygon class="cls-9" points="71.42 482.97 70.89 484.03 71.96 484.55 71.28 484.78 70.22 484.26 70.74 483.2 71.42 482.97"/><line class="cls-8" x1="181.51" y1="444.6" x2="60.73" y2="432.11"/><polygon class="cls-9" points="61.79 431.38 60.87 432.12 61.62 433.04 60.91 432.97 60.17 432.05 61.09 431.3 61.79 431.38"/><line class="cls-8" x1="189.1" y1="444.98" x2="130.52" y2="372.25"/><polygon class="cls-9" points="131.79 372.49 130.61 372.36 130.49 373.54 130.04 372.98 130.17 371.81 131.35 371.93 131.79 372.49"/><line class="cls-8" x1="549.05" y1="178.37" x2="588.93" y2="89.25"/><polygon class="cls-9" points="589.29 90.49 588.87 89.39 587.76 89.81 588.06 89.16 589.16 88.74 589.58 89.84 589.29 90.49"/><line class="cls-8" x1="545.59" y1="185.13" x2="536.78" y2="119.17"/><polygon class="cls-9" points="537.74 120.03 536.8 119.31 536.08 120.25 535.99 119.55 536.71 118.61 537.65 119.33 537.74 120.03"/><line class="cls-8" x1="549.4" y1="185.13" x2="596.1" y2="201.09"/><polygon class="cls-9" points="594.89 201.56 595.96 201.04 595.44 199.98 596.11 200.21 596.63 201.27 595.57 201.79 594.89 201.56"/><line class="cls-8" x1="547.42" y1="185.64" x2="610.4" y2="168.47"/><polygon class="cls-9" points="609.67 169.54 610.26 168.51 609.24 167.92 609.92 167.74 610.95 168.32 610.36 169.35 609.67 169.54"/><line class="cls-8" x1="547.34" y1="185.64" x2="600.43" y2="217.92"/><polygon class="cls-9" points="599.16 218.13 600.31 217.85 600.03 216.7 600.63 217.07 600.91 218.22 599.76 218.5 599.16 218.13"/><line class="cls-8" x1="546.58" y1="185.53" x2="497.56" y2="168.51"/><polygon class="cls-9" points="498.76 168.04 497.69 168.56 498.21 169.62 497.54 169.39 497.02 168.32 498.09 167.81 498.76 168.04"/><line class="cls-8" x1="546.37" y1="185.47" x2="516.51" y2="150.62"/><polygon class="cls-9" points="517.79 150.83 516.61 150.74 516.52 151.92 516.05 151.38 516.14 150.2 517.33 150.29 517.79 150.83"/><line class="cls-8" x1="546.6" y1="185.54" x2="500.98" y2="153.4"/><polygon class="cls-9" points="502.27 153.28 501.1 153.49 501.3 154.65 500.72 154.24 500.52 153.08 501.69 152.87 502.27 153.28"/><line class="cls-8" x1="550.88" y1="180.11" x2="606.59" y2="151.61"/><polygon class="cls-9" points="606.1 152.8 606.46 151.68 605.34 151.31 605.97 150.99 607.1 151.35 606.73 152.48 606.1 152.8"/><line class="cls-8" x1="549.22" y1="185.23" x2="588.35" y2="229.16"/><polygon class="cls-9" points="587.07 228.98 588.25 229.05 588.32 227.87 588.79 228.4 588.73 229.58 587.54 229.51 587.07 228.98"/><line class="cls-8" x1="551.29" y1="182.12" x2="597.95" y2="185.56"/><polygon class="cls-9" points="596.91 186.32 597.8 185.55 597.03 184.65 597.74 184.71 598.51 185.6 597.62 186.38 596.91 186.32"/><line class="cls-8" x1="544.5" y1="184.18" x2="555.75" y2="96.78"/><polygon class="cls-9" points="556.45 97.87 555.73 96.93 554.79 97.65 554.88 96.95 555.82 96.22 556.54 97.16 556.45 97.87"/><line class="cls-8" x1="550.19" y1="179.15" x2="612.24" y2="117.07"/><polygon class="cls-9" points="612.14 118.36 612.14 117.17 610.95 117.17 611.45 116.67 612.64 116.67 612.64 117.85 612.14 118.36"/><line class="cls-8" x1="548.23" y1="185.57" x2="522.67" y2="129.27"/><polygon class="cls-9" points="523.84 129.82 522.73 129.4 522.32 130.51 522.02 129.86 522.44 128.75 523.55 129.17 523.84 129.82"/><line class="cls-8" x1="376.59" y1="711.95" x2="378.45" y2="784.34"/><polygon class="cls-9" points="377.59 783.38 378.45 784.2 379.27 783.34 379.28 784.05 378.47 784.91 377.61 784.09 377.59 783.38"/><line class="cls-8" x1="373.66" y1="710.69" x2="300.42" y2="776.45"/><polygon class="cls-9" points="300.59 775.16 300.53 776.35 301.71 776.41 301.18 776.89 300 776.82 300.06 775.64 300.59 775.16"/><line class="cls-8" x1="378.19" y1="711.55" x2="413.85" y2="783.16"/><polygon class="cls-9" points="412.66 782.65 413.78 783.03 414.16 781.91 414.48 782.54 414.1 783.67 412.98 783.29 412.66 782.65"/><line class="cls-8" x1="373.19" y1="710.03" x2="327.64" y2="736.03"/><polygon class="cls-9" points="328.08 734.82 327.76 735.96 328.91 736.27 328.29 736.63 327.15 736.31 327.46 735.17 328.08 734.82"/><line class="cls-8" x1="375.01" y1="711.65" x2="357.21" y2="753.85"/><polygon class="cls-9" points="356.82 752.61 357.26 753.71 358.36 753.26 358.08 753.92 356.99 754.37 356.54 753.27 356.82 752.61"/><line class="cls-8" x1="372.95" y1="709.53" x2="285.19" y2="743.7"/><polygon class="cls-9" points="285.81 742.57 285.33 743.65 286.42 744.13 285.75 744.39 284.67 743.91 285.14 742.83 285.81 742.57"/><line class="cls-8" x1="374.89" y1="711.6" x2="320.53" y2="829.08"/><polygon class="cls-9" points="320.19 827.84 320.59 828.95 321.71 828.54 321.41 829.19 320.3 829.6 319.89 828.49 320.19 827.84"/><line class="cls-8" x1="373.18" y1="710.02" x2="243.05" y2="783.78"/><polygon class="cls-9" points="243.49 782.57 243.18 783.71 244.32 784.02 243.7 784.37 242.56 784.06 242.87 782.92 243.49 782.57"/><line class="cls-8" x1="378.93" y1="711.06" x2="407.74" y2="745.5"/><polygon class="cls-9" points="406.47 745.29 407.65 745.39 407.75 744.21 408.21 744.76 408.1 745.94 406.92 745.83 406.47 745.29"/><line class="cls-8" x1="373.98" y1="711.01" x2="277.06" y2="821.72"/><polygon class="cls-9" points="277.07 820.43 277.15 821.61 278.33 821.53 277.87 822.07 276.69 822.15 276.61 820.97 277.07 820.43"/><line class="cls-8" x1="375.03" y1="711.66" x2="341.82" y2="791.79"/><polygon class="cls-9" points="341.42 790.56 341.87 791.65 342.97 791.2 342.69 791.85 341.6 792.31 341.15 791.21 341.42 790.56"/><line class="cls-8" x1="377.25" y1="711.87" x2="401.3" y2="830.04"/><polygon class="cls-9" points="400.28 829.25 401.27 829.9 401.92 828.91 402.07 829.61 401.41 830.6 400.43 829.94 400.28 829.25"/><line class="cls-8" x1="376.05" y1="711.92" x2="360.1" y2="848.06"/><polygon class="cls-9" points="359.38 846.98 360.11 847.91 361.04 847.18 360.96 847.88 360.03 848.62 359.3 847.69 359.38 846.98"/><line class="cls-8" x1="741.27" y1="442.2" x2="841.53" y2="333.82"/><polygon class="cls-9" points="841.48 335.11 841.43 333.93 840.25 333.97 840.73 333.45 841.91 333.4 841.96 334.59 841.48 335.11"/><line class="cls-8" x1="741.23" y1="442.16" x2="802.2" y2="374.17"/><polygon class="cls-9" points="802.17 375.46 802.1 374.27 800.92 374.34 801.4 373.81 802.58 373.75 802.64 374.93 802.17 375.46"/><line class="cls-8" x1="742.34" y1="443.91" x2="820.16" y2="420.74"/><polygon class="cls-9" points="819.45 421.82 820.02 420.78 818.97 420.22 819.65 420.02 820.7 420.58 820.13 421.62 819.45 421.82"/><line class="cls-8" x1="740.65" y1="441.73" x2="831.54" y2="290.41"/><polygon class="cls-9" points="831.75 291.69 831.46 290.54 830.31 290.82 830.68 290.22 831.83 289.93 832.11 291.08 831.75 291.69"/><line class="cls-8" x1="741.95" y1="443.03" x2="856.51" y2="374.18"/><polygon class="cls-9" points="856.1 375.4 856.39 374.25 855.24 373.97 855.85 373.6 857 373.89 856.71 375.04 856.1 375.4"/><line class="cls-8" x1="742.39" y1="444.1" x2="867.81" y2="413.7"/><polygon class="cls-9" points="867.05 414.75 867.67 413.74 866.66 413.12 867.35 412.95 868.36 413.57 867.74 414.58 867.05 414.75"/><line class="cls-8" x1="740.34" y1="441.57" x2="789" y2="340.82"/><polygon class="cls-9" points="789.32 342.07 788.93 340.95 787.81 341.34 788.12 340.7 789.24 340.31 789.63 341.43 789.32 342.07"/><line class="cls-8" x1="739.89" y1="441.38" x2="753.38" y2="400.95"/><polygon class="cls-9" points="753.87 402.15 753.34 401.09 752.28 401.62 752.5 400.94 753.56 400.41 754.09 401.47 753.87 402.15"/><line class="cls-8" x1="742.45" y1="445.55" x2="799.1" y2="453.9"/><polygon class="cls-9" points="798 454.59 798.95 453.88 798.25 452.93 798.95 453.04 799.66 453.99 798.71 454.69 798 454.59"/><line class="cls-8" x1="742.13" y1="446.61" x2="821.45" y2="483.97"/><polygon class="cls-9" points="820.2 484.3 821.32 483.9 820.91 482.79 821.56 483.09 821.96 484.21 820.84 484.61 820.2 484.3"/><line class="cls-8" x1="742.48" y1="445.35" x2="862.66" y2="456.89"/><polygon class="cls-9" points="861.61 457.63 862.52 456.88 861.77 455.96 862.47 456.03 863.23 456.94 862.31 457.7 861.61 457.63"/><line class="cls-8" x1="549.9" y1="711.1" x2="602.17" y2="775.47"/><polygon class="cls-9" points="600.9 775.24 602.08 775.36 602.2 774.18 602.65 774.73 602.52 775.91 601.35 775.79 600.9 775.24"/><line class="cls-8" x1="550.86" y1="709.93" x2="590.89" y2="731.21"/><polygon class="cls-9" points="589.63 731.49 590.76 731.14 590.42 730.01 591.05 730.35 591.39 731.48 590.26 731.82 589.63 731.49"/><line class="cls-8" x1="546.39" y1="711.79" x2="529.56" y2="767.31"/><polygon class="cls-9" points="529.04 766.12 529.6 767.17 530.65 766.61 530.44 767.29 529.4 767.85 528.84 766.8 529.04 766.12"/><line class="cls-8" x1="544.07" y1="709.79" x2="506.08" y2="728.06"/><polygon class="cls-9" points="506.61 726.88 506.21 728 507.33 728.39 506.69 728.7 505.57 728.31 505.97 727.19 506.61 726.88"/><line class="cls-8" x1="548.69" y1="707.4" x2="592.37" y2="698.17"/><polygon class="cls-9" points="591.58 699.19 592.23 698.2 591.24 697.55 591.93 697.41 592.92 698.05 592.28 699.04 591.58 699.19"/><line class="cls-8" x1="548.34" y1="711.85" x2="568.02" y2="798.58"/><polygon class="cls-9" points="566.98 797.8 567.98 798.44 568.62 797.43 568.77 798.13 568.14 799.13 567.14 798.5 566.98 797.8"/><line class="cls-8" x1="546.64" y1="711.85" x2="524.2" y2="809.03"/><polygon class="cls-9" points="523.6 807.89 524.23 808.89 525.23 808.26 525.07 808.96 524.07 809.58 523.44 808.58 523.6 807.89"/><line class="cls-8" x1="548.68" y1="711.76" x2="564.58" y2="760.24"/><polygon class="cls-9" points="563.48 759.57 564.54 760.1 565.07 759.04 565.29 759.72 564.76 760.78 563.7 760.24 563.48 759.57"/><line class="cls-8" x1="550.28" y1="710.74" x2="640.21" y2="794.75"/><polygon class="cls-9" points="638.92 794.69 640.11 794.65 640.07 793.46 640.59 793.95 640.63 795.13 639.44 795.17 638.92 794.69"/><line class="cls-8" x1="551.16" y1="709.18" x2="624.43" y2="729.94"/><polygon class="cls-9" points="623.26 730.48 624.29 729.9 623.72 728.87 624.4 729.06 624.98 730.1 623.94 730.67 623.26 730.48"/><line class="cls-8" x1="547.76" y1="711.94" x2="556.87" y2="844.61"/><polygon class="cls-9" points="555.97 843.68 556.86 844.46 557.64 843.57 557.69 844.28 556.91 845.17 556.02 844.39 555.97 843.68"/><line class="cls-8" x1="549.16" y1="711.56" x2="608.49" y2="833.24"/><polygon class="cls-9" points="607.3 832.72 608.42 833.11 608.81 831.99 609.12 832.62 608.73 833.74 607.61 833.36 607.3 832.72"/><line class="cls-8" x1="689.49" y1="608.72" x2="736.95" y2="623"/><polygon class="cls-9" points="735.77 623.52 736.81 622.96 736.25 621.91 736.93 622.12 737.5 623.16 736.45 623.72 735.77 623.52"/><line class="cls-8" x1="686.79" y1="606.07" x2="739.18" y2="557.78"/><polygon class="cls-9" points="739.02 559.06 739.07 557.88 737.89 557.83 738.41 557.35 739.59 557.4 739.54 558.58 739.02 559.06"/><line class="cls-8" x1="689.09" y1="605.65" x2="728.4" y2="581.67"/><polygon class="cls-9" points="728 582.89 728.28 581.74 727.13 581.47 727.73 581.1 728.88 581.37 728.61 582.52 728 582.89"/><line class="cls-8" x1="687.39" y1="611.1" x2="731.61" y2="710.33"/><polygon class="cls-9" points="730.45 709.77 731.55 710.19 731.98 709.09 732.27 709.74 731.84 710.84 730.74 710.42 730.45 709.77"/><line class="cls-8" x1="689.5" y1="606.58" x2="767.14" y2="584.36"/><polygon class="cls-9" points="766.42 585.44 767 584.4 765.96 583.83 766.65 583.63 767.68 584.21 767.11 585.25 766.42 585.44"/><line class="cls-8" x1="689.16" y1="609.5" x2="763.38" y2="651.5"/><polygon class="cls-9" points="762.12 651.75 763.26 651.43 762.94 650.29 763.56 650.64 763.88 651.78 762.74 652.1 762.12 651.75"/><line class="cls-8" x1="689.64" y1="607.32" x2="824.47" y2="596.48"/><polygon class="cls-9" points="823.55 597.4 824.32 596.5 823.42 595.73 824.13 595.67 825.03 596.44 824.26 597.34 823.55 597.4"/><line class="cls-8" x1="689.62" y1="608.06" x2="785.1" y2="619.07"/><polygon class="cls-9" points="784.02 619.78 784.95 619.05 784.21 618.12 784.92 618.2 785.66 619.13 784.73 619.87 784.02 619.78"/><line class="cls-8" x1="688.45" y1="610.4" x2="764.53" y2="691.53"/><polygon class="cls-9" points="763.25 691.39 764.43 691.43 764.47 690.24 764.95 690.76 764.91 691.95 763.73 691.91 763.25 691.39"/><line class="cls-8" x1="686.04" y1="611.43" x2="688.77" y2="665.51"/><polygon class="cls-9" points="687.89 664.57 688.76 665.37 689.56 664.49 689.59 665.2 688.8 666.08 687.92 665.28 687.89 664.57"/><line class="cls-8" x1="689.51" y1="608.64" x2="827.21" y2="646.64"/><polygon class="cls-9" points="826.04 647.18 827.07 646.6 826.49 645.57 827.17 645.76 827.76 646.79 826.73 647.37 826.04 647.18"/><line class="cls-8" x1="682.3" y1="606.26" x2="673.3" y2="650.3"/><polygon class="cls-9" points="672.67 649.17 673.33 650.16 674.31 649.5 674.17 650.2 673.18 650.85 672.53 649.87 672.67 649.17"/><line class="cls-8" x1="687.95" y1="610.8" x2="722.15" y2="662.15"/><polygon class="cls-9" points="720.91 661.8 722.07 662.03 722.3 660.87 722.69 661.46 722.46 662.62 721.3 662.39 720.91 661.8"/><line class="cls-8" x1="688.98" y1="609.78" x2="808.41" y2="691.61"/><polygon class="cls-9" points="807.13 691.74 808.29 691.52 808.07 690.36 808.66 690.76 808.88 691.93 807.71 692.14 807.13 691.74"/><line class="cls-8" x1="234.42" y1="283.15" x2="180.98" y2="294.64"/><polygon class="cls-9" points="181.77 293.62 181.13 294.61 182.12 295.26 181.43 295.4 180.43 294.76 181.07 293.77 181.77 293.62"/><line class="cls-8" x1="238.26" y1="278.55" x2="239.84" y2="228.11"/><polygon class="cls-9" points="240.65 229.12 239.84 228.25 238.97 229.06 239 228.35 239.86 227.54 240.67 228.41 240.65 229.12"/><line class="cls-8" x1="235.54" y1="279.58" x2="165.15" y2="204.48"/><polygon class="cls-9" points="166.44 204.62 165.25 204.58 165.21 205.77 164.73 205.25 164.76 204.06 165.95 204.1 166.44 204.62"/><line class="cls-8" x1="234.57" y1="281.04" x2="109.63" y2="235.24"/><polygon class="cls-9" points="110.84 234.79 109.77 235.29 110.27 236.37 109.6 236.12 109.1 235.05 110.18 234.55 110.84 234.79"/><line class="cls-8" x1="235.12" y1="280.05" x2="119.34" y2="191.7"/><polygon class="cls-9" points="120.64 191.63 119.46 191.79 119.62 192.97 119.05 192.53 118.9 191.36 120.07 191.2 120.64 191.63"/><line class="cls-8" x1="236.09" y1="279.15" x2="158.1" y2="157.7"/><polygon class="cls-9" points="159.33 158.08 158.18 157.82 157.93 158.98 157.54 158.38 157.79 157.22 158.95 157.48 159.33 158.08"/><line class="cls-8" x1="236.1" y1="279.15" x2="201.8" y2="225.39"/><polygon class="cls-9" points="203.03 225.77 201.87 225.51 201.62 226.67 201.24 226.07 201.49 224.91 202.65 225.17 203.03 225.77"/><line class="cls-8" x1="237.26" y1="278.65" x2="215.68" y2="188.3"/><polygon class="cls-9" points="216.72 189.06 215.71 188.44 215.09 189.45 214.93 188.76 215.55 187.75 216.56 188.37 216.72 189.06"/><line class="cls-8" x1="237.13" y1="278.69" x2="199.57" y2="142.73"/><polygon class="cls-9" points="200.64 143.46 199.61 142.87 199.02 143.9 198.83 143.22 199.42 142.19 200.45 142.77 200.64 143.46"/><line class="cls-8" x1="234.6" y1="280.96" x2="155.81" y2="249.88"/><polygon class="cls-9" points="157.03 249.46 155.94 249.94 156.41 251.02 155.75 250.76 155.28 249.67 156.37 249.2 157.03 249.46"/><line class="cls-8" x1="234.35" y1="282.7" x2="140.67" y2="291.36"/><polygon class="cls-9" points="141.57 290.44 140.82 291.35 141.73 292.11 141.02 292.17 140.11 291.42 140.87 290.5 141.57 290.44"/><line class="cls-8" x1="234.34" y1="282.26" x2="96.63" y2="278.81"/><polygon class="cls-9" points="97.64 278 96.78 278.81 97.59 279.67 96.88 279.65 96.07 278.79 96.92 277.98 97.64 278"/><line class="cls-8" x1="684.78" y1="283.45" x2="722.14" y2="215.25"/><polygon class="cls-9" points="722.4 216.52 722.07 215.38 720.93 215.71 721.27 215.09 722.41 214.76 722.74 215.9 722.4 216.52"/><line class="cls-8" x1="686.01" y1="282.78" x2="677.62" y2="215.32"/><polygon class="cls-9" points="678.58 216.19 677.64 215.46 676.91 216.4 676.83 215.69 677.55 214.76 678.49 215.49 678.58 216.19"/><line class="cls-8" x1="685.85" y1="282.35" x2="669.46" y2="237.42"/><polygon class="cls-9" points="670.58 238.06 669.51 237.56 669.01 238.63 668.76 237.97 669.26 236.89 670.34 237.39 670.58 238.06"/><line class="cls-8" x1="685.26" y1="282.86" x2="700.23" y2="231.56"/><polygon class="cls-9" points="700.76 232.74 700.19 231.7 699.15 232.27 699.35 231.58 700.39 231.01 700.96 232.05 700.76 232.74"/><line class="cls-8" x1="685.76" y1="282.53" x2="764.3" y2="240.22"/><polygon class="cls-9" points="763.83 241.43 764.17 240.29 763.03 239.95 763.66 239.62 764.79 239.96 764.45 241.09 763.83 241.43"/><line class="cls-8" x1="685.51" y1="283.16" x2="731.18" y2="236.75"/><polygon class="cls-9" points="731.09 238.04 731.08 236.86 729.89 236.87 730.39 236.36 731.57 236.35 731.58 237.54 731.09 238.04"/><line class="cls-8" x1="685.51" y1="282.78" x2="746.16" y2="279.76"/><polygon class="cls-9" points="745.22 280.65 746.02 279.77 745.14 278.98 745.85 278.94 746.73 279.73 745.93 280.61 745.22 280.65"/><line class="cls-8" x1="685.85" y1="282.53" x2="709.58" y2="298.65"/><polygon class="cls-9" points="708.3 298.79 709.46 298.56 709.24 297.4 709.83 297.8 710.05 298.96 708.89 299.19 708.3 298.79"/><line class="cls-2" x1="683.04" y1="284.92" x2="457.73" y2="491.06"/><polygon class="cls-3" points="457.89 489.78 457.83 490.96 459.02 491.02 458.49 491.5 457.31 491.44 457.36 490.26 457.89 489.78"/><circle cx="238.14" cy="607.63" r="3.46"/><circle class="cls-3" cx="442.91" cy="404.61" r="20.75"/><circle class="cls-3" cx="474.53" cy="553.99" r="8.65"/><circle class="cls-3" cx="496.18" cy="502.83" r="10.38"/><circle class="cls-3" cx="433.86" cy="612.73" r="6.92"/><circle class="cls-3" cx="397.09" cy="477.61" r="20.75"/><circle class="cls-3" cx="450.42" cy="497.75" r="6.92"/><circle class="cls-3" cx="534.01" cy="449.81" r="13.83"/><circle class="cls-3" cx="603.92" cy="407.7" r="12.11"/><circle class="cls-3" cx="285.5" cy="682.08" r="6.92"/><circle class="cls-3" cx="316.32" cy="240.26" r="6.92"/><circle class="cls-3" cx="466.3" cy="327.6" r="10.38"/><circle class="cls-3" cx="578.2" cy="505.13" r="12.11"/><circle class="cls-3" cx="538.38" cy="268.57" r="6.92"/><circle class="cls-3" cx="369.17" cy="325.16" r="8.65"/><circle class="cls-3" cx="286.95" cy="166.77" r="6.92"/><circle cx="185.3" cy="444.99" r="3.46"/><circle class="cls-3" cx="473.66" cy="470.16" r="10.38"/><circle class="cls-3" cx="353.89" cy="414.82" r="6.92"/><circle class="cls-3" cx="141.03" cy="551.34" r="6.92"/><circle class="cls-3" cx="461.99" cy="444.99" r="6.92"/><circle cx="547.5" cy="181.84" r="3.46"/><circle class="cls-3" cx="530.85" cy="540.91" r="6.92"/><circle class="cls-3" cx="382.07" cy="377.93" r="8.65"/><circle cx="376.49" cy="708.14" r="3.46"/><circle class="cls-3" cx="236.02" cy="363.31" r="6.92"/><circle class="cls-3" cx="437.32" cy="545.56" r="6.92"/><circle cx="738.69" cy="444.99" r="3.46"/><circle cx="547.5" cy="708.14" r="3.46"/><circle cx="685.85" cy="607.63" r="3.46"/><circle cx="238.14" cy="282.35" r="3.46"/><circle class="cls-3" cx="417.68" cy="316.27" r="6.92"/><circle cx="685.85" cy="282.35" r="3.46"/><circle class="cls-9" cx="215.55" cy="655.53" r="5.19"/><circle class="cls-9" cx="140.11" cy="591.26" r="5.19"/><circle class="cls-9" cx="183.6" cy="670.54" r="5.19"/><circle class="cls-9" cx="159.64" cy="648" r="5.19"/><circle class="cls-9" cx="165.56" cy="615.58" r="5.19"/><circle class="cls-9" cx="247.33" cy="655.75" r="5.19"/><circle class="cls-9" cx="203.74" cy="574.08" r="5.19"/><circle class="cls-9" cx="230.75" cy="678.86" r="5.19"/><circle class="cls-9" cx="130.79" cy="638.03" r="5.19"/><circle class="cls-9" cx="136.65" cy="681.92" r="5.19"/><circle class="cls-9" cx="160.37" cy="578.7" r="5.19"/><circle class="cls-9" cx="382.55" cy="101.41" r="5.19"/><circle class="cls-9" cx="316.69" cy="116.95" r="5.19"/><circle class="cls-9" cx="367.85" cy="58.21" r="5.19"/><circle class="cls-9" cx="423.51" cy="103.79" r="5.19"/><circle class="cls-9" cx="439.84" cy="63.52" r="5.19"/><circle class="cls-9" cx="425.19" cy="139.31" r="5.19"/><circle class="cls-9" cx="403.78" cy="32.56" r="5.19"/><circle class="cls-9" cx="450.56" cy="144.14" r="5.19"/><circle class="cls-9" cx="340.38" cy="109.77" r="5.19"/><circle class="cls-9" cx="321.39" cy="68.04" r="5.19"/><circle class="cls-9" cx="120.53" cy="388.22" r="5.19"/><circle class="cls-9" cx="115.63" cy="411.45" r="5.19"/><circle class="cls-9" cx="149.81" cy="492.38" r="5.19"/><circle class="cls-9" cx="127.38" cy="366.25" r="5.19"/><circle class="cls-9" cx="111.48" cy="480.03" r="5.19"/><circle class="cls-9" cx="147.95" cy="377.22" r="5.19"/><circle class="cls-9" cx="93.52" cy="441.12" r="5.19"/><circle class="cls-9" cx="63.02" cy="486.72" r="5.19"/><circle class="cls-9" cx="52.6" cy="431.27" r="5.19"/><circle class="cls-9" cx="118.9" cy="502.46" r="5.19"/><circle class="cls-9" cx="592.27" cy="81.79" r="5.19"/><circle class="cls-9" cx="538.38" cy="108.98" r="5.19"/><circle class="cls-9" cx="605.76" cy="202.05" r="5.19"/><circle class="cls-9" cx="617.93" cy="167.42" r="5.19"/><circle class="cls-9" cx="608.68" cy="222.02" r="5.19"/><circle class="cls-9" cx="491.19" cy="164.52" r="5.19"/><circle class="cls-9" cx="511.38" cy="145.25" r="5.19"/><circle class="cls-9" cx="495.33" cy="147.89" r="5.19"/><circle class="cls-9" cx="613.87" cy="147.89" r="5.19"/><circle class="cls-9" cx="594.43" cy="237" r="5.19"/><circle class="cls-9" cx="606.1" cy="186.16" r="5.19"/><circle class="cls-9" cx="556.72" cy="88.1" r="5.19"/><circle class="cls-9" cx="618.02" cy="111.29" r="5.19"/><circle class="cls-9" cx="518.39" cy="122.14" r="5.19"/><circle class="cls-9" cx="378.66" cy="792.51" r="5.19"/><circle class="cls-9" cx="294.34" cy="781.91" r="5.19"/><circle class="cls-9" cx="417.49" cy="790.48" r="5.19"/><circle class="cls-9" cx="320.54" cy="740.09" r="5.19"/><circle class="cls-9" cx="354.03" cy="761.38" r="5.19"/><circle class="cls-9" cx="277.58" cy="746.67" r="5.19"/><circle class="cls-9" cx="317.1" cy="836.5" r="5.19"/><circle class="cls-9" cx="235.94" cy="787.81" r="5.19"/><circle class="cls-9" cx="412.99" cy="751.77" r="5.19"/><circle class="cls-9" cx="271.67" cy="827.87" r="5.19"/><circle class="cls-9" cx="338.69" cy="799.34" r="5.19"/><circle class="cls-9" cx="402.93" cy="838.05" r="5.19"/><circle class="cls-9" cx="359.14" cy="856.18" r="5.19"/><circle class="cls-9" cx="847.08" cy="327.82" r="5.19"/><circle class="cls-9" cx="807.66" cy="368.08" r="5.19"/><circle class="cls-9" cx="827.99" cy="418.41" r="5.19"/><circle class="cls-9" cx="835.74" cy="283.41" r="5.19"/><circle class="cls-9" cx="790.14" cy="396.07" r="5.19"/><circle class="cls-9" cx="863.52" cy="369.97" r="5.19"/><circle class="cls-9" cx="875.76" cy="411.78" r="5.19"/><circle class="cls-9" cx="792.55" cy="333.46" r="5.19"/><circle class="cls-9" cx="755.97" cy="393.19" r="5.19"/><circle class="cls-9" cx="807.18" cy="455.1" r="5.19"/><circle class="cls-9" cx="828.84" cy="487.45" r="5.19"/><circle class="cls-9" cx="870.8" cy="457.67" r="5.19"/><circle class="cls-9" cx="607.32" cy="781.82" r="5.19"/><circle class="cls-9" cx="598.11" cy="735.05" r="5.19"/><circle class="cls-9" cx="527.19" cy="775.13" r="5.19"/><circle class="cls-9" cx="498.72" cy="731.61" r="5.19"/><circle class="cls-9" cx="602.52" cy="698.05" r="5.19"/><circle class="cls-9" cx="569.82" cy="806.55" r="5.19"/><circle class="cls-9" cx="522.36" cy="817" r="5.19"/><circle class="cls-9" cx="567.13" cy="768.01" r="5.19"/><circle class="cls-9" cx="646.19" cy="800.33" r="5.19"/><circle class="cls-9" cx="632.3" cy="732.17" r="5.19"/><circle class="cls-9" cx="557.43" cy="852.76" r="5.19"/><circle class="cls-9" cx="612.07" cy="840.58" r="5.19"/><circle class="cls-9" cx="744.78" cy="625.35" r="5.19"/><circle class="cls-9" cx="745.54" cy="553.44" r="5.19"/><circle class="cls-9" cx="735.38" cy="577.41" r="5.19"/><circle class="cls-9" cx="734.94" cy="717.79" r="5.19"/><circle class="cls-9" cx="775" cy="582.12" r="5.19"/><circle class="cls-9" cx="770.5" cy="655.53" r="5.19"/><circle class="cls-9" cx="832.62" cy="595.83" r="5.19"/><circle class="cls-9" cx="793.22" cy="620" r="5.19"/><circle class="cls-9" cx="770.12" cy="697.5" r="5.19"/><circle class="cls-9" cx="689.18" cy="673.68" r="5.19"/><circle class="cls-9" cx="835.09" cy="648.81" r="5.19"/><circle class="cls-9" cx="670.2" cy="658.49" r="5.19"/><circle class="cls-9" cx="726.68" cy="668.96" r="5.19"/><circle class="cls-9" cx="815.15" cy="696.23" r="5.19" transform="translate(-2.66 1389.33) rotate(-80.78)"/><circle class="cls-9" cx="172.99" cy="296.36" r="5.19"/><circle class="cls-9" cx="240.1" cy="219.94" r="5.19"/><circle class="cls-9" cx="159.56" cy="198.51" r="5.19"/><circle class="cls-9" cx="101.96" cy="232.43" r="5.19"/><circle class="cls-9" cx="112.85" cy="186.75" r="5.19"/><circle class="cls-9" cx="153.68" cy="150.82" r="5.19"/><circle class="cls-9" cx="197.4" cy="218.5" r="5.19"/><circle class="cls-9" cx="213.78" cy="180.35" r="5.19"/><circle class="cls-9" cx="197.39" cy="134.85" r="5.19"/><circle class="cls-9" cx="148.2" cy="246.88" r="5.19"/><circle class="cls-9" cx="132.53" cy="292.12" r="5.19"/><circle class="cls-9" cx="185.54" cy="254.09" r="5.19"/><circle class="cls-9" cx="88.46" cy="278.6" r="5.19"/><circle class="cls-9" cx="736.76" cy="229.58" r="5.19"/><circle class="cls-9" cx="727.6" cy="206.24" r="5.19"/><circle class="cls-9" cx="702.81" cy="222.02" r="5.19"/><circle class="cls-9" cx="770.86" cy="234.77" r="5.19"/><circle class="cls-9" cx="716.68" cy="303.27" r="5.19"/><circle class="cls-9" cx="676.47" cy="206.24" r="5.19"/><circle class="cls-9" cx="755.97" cy="279.73" r="5.19"/><circle class="cls-9" cx="665.96" cy="229.58" r="5.19"/><circle cx="376.49" cy="181.84" r="3.46"/><text class="cls-10" transform="translate(558.96 186.4)">p<tspan class="cls-11" x="9.18" y="0">r</tspan><tspan x="14.7" y="0">ofile 1</tspan></text><text class="cls-10" transform="translate(697.3 286.31)">p<tspan class="cls-11" x="9.18" y="0">r</tspan><tspan x="14.7" y="0">ofile 2</tspan></text><text class="cls-10" transform="translate(750.15 449.9)">p<tspan class="cls-11" x="9.18" y="0">r</tspan><tspan x="14.7" y="0">ofile 3</tspan></text><text class="cls-10" transform="translate(697.3 612.57)">p<tspan class="cls-11" x="9.18" y="0">r</tspan><tspan x="14.7" y="0">ofile 4</tspan></text><text class="cls-10" transform="translate(558.96 712.63)">p<tspan class="cls-11" x="9.18" y="0">r</tspan><tspan x="14.7" y="0">ofile 5</tspan></text><text class="cls-10" transform="translate(306.23 712.37)">p<tspan class="cls-11" x="9.18" y="0">r</tspan><tspan x="14.7" y="0">ofile 6</tspan></text><text class="cls-10" transform="translate(169.34 611.83)">p<tspan class="cls-11" x="9.18" y="0">r</tspan><tspan x="14.7" y="0">ofile 7</tspan></text><text class="cls-10" transform="translate(115.07 448.94)">p<tspan class="cls-11" x="9.18" y="0">r</tspan><tspan x="14.7" y="0">ofile 8</tspan></text><text class="cls-10" transform="translate(167.88 286.78)">p<tspan class="cls-11" x="9.18" y="0">r</tspan><tspan x="14.7" y="0">ofile 9</tspan></text><text class="cls-10" transform="translate(300.33 185.81)">p<tspan class="cls-11" x="9.18" y="0">r</tspan><tspan x="14.7" y="0">ofile 10</tspan></text></g></g></svg>