<svg xmlns="http://www.w3.org/2000/svg" viewBox="0 0 937.97 659.53"><defs><style>.cls-1,.cls-2,.cls-26,.cls-4,.cls-5,.cls-7{fill:none;}.cls-1{stroke:#ff0049;}.cls-1,.cls-25,.cls-26,.cls-5,.cls-7{stroke-miterlimit:10;}.cls-1,.cls-25,.cls-5,.cls-7{stroke-width:2.1px;}.cls-3,.cls-4{isolation:isolate;}.cls-4{font-size:39.96px;font-family:Calibri-Light, Calibri;}.cls-5{stroke:#00d3a8;}.cls-6{fill-opacity:0;}.cls-25,.cls-7{stroke:#ffc90f;}.cls-17,.cls-22,.cls-25,.cls-8,.cls-9{fill:#00d3a8;}.cls-11,.cls-18,.cls-8{opacity:0.05;}.cls-12,.cls-16,.cls-17,.cls-19,.cls-21,.cls-9{font-size:20px;}.cls-12,.cls-19,.cls-9{font-family:SimplonNorm, Simplon Norm;}.cls-10{letter-spacing:0.01em;}.cls-11,.cls-12,.cls-16,.cls-24{fill:#ffc90f;}.cls-13{letter-spacing:0em;}.cls-14{letter-spacing:0em;}.cls-15{letter-spacing:0em;}.cls-16,.cls-17,.cls-21{font-family:SimplonNorm-Medium, Simplon Norm;}.cls-18,.cls-19,.cls-21,.cls-23{fill:#ff0049;}.cls-20{letter-spacing:-0.08em;}.cls-26{stroke:#000;stroke-width:0.75px;}</style></defs><title>vis3Fichier 5</title><g id="Calque_2" data-name="Calque 2"><g id="modif"><path class="cls-1" d="M59.86,357.39c0,136.49,110.63,247.15,247.12,247.16S554.13,493.91,554.14,357.42v0c0-136.5-110.63-247.15-247.12-247.16S59.87,220.86,59.86,357.35v0"/><path class="cls-2" d="M453.09,357.39a150.25,150.25,0,0,0,300.49.12v-.12a150.25,150.25,0,1,0-300.49,0"/><g class="cls-3"><text class="cls-4" transform="translate(591.91 369.71)">B</text></g><path class="cls-5" d="M456.71,357.39c0,106.49,86.33,192.81,192.82,192.81s192.82-86.32,192.82-192.81S756,164.57,649.53,164.57,456.71,250.9,456.71,357.39"/><path class="cls-6" d="M520.14,232.28a246.74,246.74,0,0,1,0,250.21c-69-46.09-87.46-139.56-41.37-208.56a154.38,154.38,0,0,1,41.37-41.65"/><path class="cls-6" d="M513.15,493.7c-75.26-75.3-75.26-197.33,0-272.63a247.13,247.13,0,0,1,0,272.63"/><path class="cls-7" d="M468.33,423.3a192.8,192.8,0,0,1,0-131.83,150.24,150.24,0,1,1,0,131.83"/><path class="cls-6" d="M468.33,291.47a150.21,150.21,0,0,1,51.81-59.19,246.74,246.74,0,0,1,0,250.21,150.21,150.21,0,0,1-51.81-59.19,192.8,192.8,0,0,1,0-131.83"/><path class="cls-8" d="M456.71,357.39c0,106.49,86.33,192.81,192.82,192.81s192.82-86.32,192.82-192.81S756,164.57,649.53,164.57,456.71,250.9,456.71,357.39"/><text class="cls-9" transform="translate(583.5 646.55)">Pe<tspan class="cls-10" x="21.64" y="0">r</tspan><tspan x="28.32" y="0">sonalisation</tspan></text><path class="cls-11" d="M468.33,423.3a192.8,192.8,0,0,1,0-131.83,150.24,150.24,0,1,1,0,131.83"/><text class="cls-12" transform="translate(581.09 63.76)">Clean<tspan x="-9.81" y="24">b</tspan><tspan class="cls-13" x="0.99" y="24">r</tspan><tspan class="cls-14" x="7.49" y="24">o</tspan><tspan class="cls-15" x="17.99" y="24">w</tspan><tspan x="31.59" y="24">ser</tspan></text><text class="cls-16" transform="translate(597.04 277.67)">17</text><text class="cls-17" transform="translate(672.63 531.23)">29</text><path class="cls-18" d="M59.86,357.39c0,136.49,110.63,247.15,247.12,247.16S554.13,493.91,554.14,357.42v0c0-136.5-110.63-247.15-247.12-247.16S59.87,220.86,59.86,357.35v0"/><text class="cls-19" transform="translate(256.37 330.29)"><tspan class="cls-20">Y</tspan><tspan x="9.28" y="0">outube API</tspan></text><text class="cls-21" transform="translate(296.4 394.49)">46</text><circle class="cls-22" cx="649.53" cy="526" r="11.1"/><circle class="cls-23" cx="307" cy="357.39" r="11.1"/><line class="cls-5" x1="649.53" y1="530.72" x2="649.53" y2="620.55"/><circle class="cls-24" cx="605.17" cy="240.57" r="11.1"/><line class="cls-25" x1="605.17" y1="235.85" x2="605.17" y2="100.05"/><path class="cls-26" d="M0,.38H894.57c29.86,0,43,8,43,42.67v370.1"/></g></g></svg>