<?xml version="1.0" encoding="utf-8"?>
<!-- Generator: Adobe Illustrator 22.0.1, SVG Export Plug-In . SVG Version: 6.00 Build 0)  -->
<svg version="1.1" xmlns="http://www.w3.org/2000/svg" xmlns:xlink="http://www.w3.org/1999/xlink" x="0px" y="0px"
	 viewBox="0 0 287.1 240.1" style="enable-background:new 0 0 287.1 240.1;" xml:space="preserve">
<style type="text/css">
	.st0{fill:#D9230D;}
	.st1{fill:none;stroke:#000000;stroke-width:1.5;stroke-miterlimit:10;}
	.st2{fill:#FFFFFF;stroke:#000000;stroke-width:2;stroke-miterlimit:10;}
	.st3{stroke:#000000;stroke-width:1.5;stroke-miterlimit:10;}
	.st4{fill:#FFFFFF;stroke:#000000;stroke-width:1.5;stroke-miterlimit:10;}
	.st5{fill:#FFFFFF;}
	.st6{stroke:#000000;stroke-width:1.358;stroke-miterlimit:10;}
	.st7{stroke:#000000;stroke-width:1.385;stroke-miterlimit:10;}
	.st8{fill:#FFFFFF;stroke:#000000;stroke-width:1.358;stroke-linejoin:round;stroke-miterlimit:10;}
</style>
<g id="Calque_2">
</g>
<g id="Calque_1">
	<rect x="0.1" y="0" class="st0" width="287" height="240"/>
	<g>
		<line class="st1" x1="196.8" y1="51.3" x2="129.8" y2="92.3"/>
		<line class="st1" x1="70.8" y1="129.3" x2="127.8" y2="93.3"/>
		<line class="st1" x1="32.3" y1="87.6" x2="70.8" y2="127.3"/>
		<line class="st1" x1="69.8" y1="131.3" x2="35" y2="166.8"/>
		<line class="st1" x1="196.8" y1="48.3" x2="230.8" y2="21.3"/>
		<line class="st1" x1="197.8" y1="54.3" x2="204.8" y2="106.3"/>
		<line class="st1" x1="69.8" y1="128.3" x2="155.8" y2="122.3"/>
		<line class="st1" x1="197.8" y1="50.3" x2="154.8" y2="122.3"/>
		<line class="st1" x1="70.8" y1="132.3" x2="129.8" y2="156.3"/>
		<line class="st1" x1="195.8" y1="180.3" x2="127.8" y2="159.3"/>
		<line class="st1" x1="197.8" y1="172.3" x2="206.8" y2="106.3"/>
		<line class="st1" x1="186.8" y1="172.3" x2="154.8" y2="123.3"/>
		<line class="st1" x1="194.8" y1="178.3" x2="240.8" y2="175.3"/>
		<line class="st1" x1="189.8" y1="178.3" x2="239.8" y2="217.3"/>
		<line class="st1" x1="165.8" y1="222.3" x2="192.8" y2="180.3"/>
		<circle class="st2" cx="71.8" cy="129.3" r="26"/>
		<path class="st2" d="M71.7,114.2c5,0,5.9,3.2,5.9,7.1c0,1.6-0.4,3-1.1,4.2l0,0c-0.4,0.7-0.7,1.3-1,1.8c-0.4,0.9-0.1,1.7,0.6,1.9
			c5.3,1.3,6.6,2.9,6.7,9.5c0,0.5,0,0.6,0,0.5c0,0.1,0,0.3,0,0.7c0,0-1.6,3.3-11,3.3h0c-9.4,0-11-3.3-11-3.3c0-0.4,0-0.6,0-0.7
			c0,0.1,0,0,0-0.5c0.1-6.7,1.4-8.2,6.7-9.5c0.7-0.2,1-1,0.6-1.9c-0.3-0.6-0.6-1.1-1-1.8l0,0c-0.7-1.2-1.1-2.6-1.1-4.2
			C65.9,117.3,66.8,114.2,71.7,114.2L71.7,114.2z"/>
		<circle class="st2" cx="197.8" cy="52.3" r="26"/>
		<path class="st2" d="M197.7,37.2c5,0,5.9,3.2,5.9,7.1c0,1.6-0.4,3-1.1,4.2l0,0c-0.4,0.7-0.7,1.3-1,1.8c-0.4,0.9-0.1,1.7,0.6,1.9
			c5.3,1.3,6.6,2.9,6.7,9.5c0,0.5,0,0.6,0,0.5c0,0.1,0,0.3,0,0.7c0,0-1.6,3.3-11,3.3h0c-9.4,0-11-3.3-11-3.3c0-0.4,0-0.6,0-0.7
			c0,0.1,0,0,0-0.5c0.1-6.7,1.4-8.2,6.7-9.5c0.7-0.2,1-1,0.6-1.9c-0.3-0.6-0.6-1.1-1-1.8l0,0c-0.7-1.2-1.1-2.6-1.1-4.2
			C191.9,40.3,192.8,37.2,197.7,37.2L197.7,37.2z"/>
		<circle class="st2" cx="192.8" cy="181.3" r="26"/>
		<path class="st2" d="M192.7,166.2c5,0,5.9,3.2,5.9,7.1c0,1.6-0.4,3-1.1,4.2l0,0c-0.4,0.7-0.7,1.3-1,1.8c-0.4,0.9-0.1,1.7,0.6,1.9
			c5.3,1.3,6.6,2.9,6.7,9.5c0,0.5,0,0.6,0,0.5c0,0.1,0,0.3,0,0.7c0,0-1.6,3.3-11,3.3h0c-9.4,0-11-3.3-11-3.3c0-0.4,0-0.6,0-0.7
			c0,0.1,0,0,0-0.5c0.1-6.7,1.4-8.2,6.7-9.5c0.7-0.2,1-1,0.6-1.9c-0.3-0.6-0.6-1.1-1-1.8l0,0c-0.7-1.2-1.1-2.6-1.1-4.2
			C186.9,169.3,187.8,166.2,192.7,166.2L192.7,166.2z"/>
		<circle class="st3" cx="128.7" cy="93.3" r="7.9"/>
		<circle class="st3" cx="204.9" cy="106.3" r="7.9"/>
		<circle class="st4" cx="34" cy="90" r="7.9"/>
		<circle class="st4" cx="229.9" cy="21.3" r="7.9"/>
		<circle class="st4" cx="36.4" cy="166.9" r="7.9"/>
		<circle class="st4" cx="165.9" cy="221.3" r="7.9"/>
		<circle class="st4" cx="240.9" cy="175.3" r="7.9"/>
		<circle class="st4" cx="238.9" cy="217.3" r="7.9"/>
		<circle class="st3" cx="154.9" cy="123.3" r="7.9"/>
		<circle class="st3" cx="128.7" cy="156.3" r="7.9"/>
	</g>
</g>
</svg>
