<?xml version="1.0" encoding="utf-8"?>
<!-- Generator: Adobe Illustrator 22.0.1, SVG Export Plug-In . SVG Version: 6.00 Build 0)  -->
<svg version="1.1" xmlns="http://www.w3.org/2000/svg" xmlns:xlink="http://www.w3.org/1999/xlink" x="0px" y="0px"
	 viewBox="0 0 287 240" style="enable-background:new 0 0 287 240;" xml:space="preserve">
<style type="text/css">
	.st0{fill:#D9230D;}
	.st1{fill:none;stroke:#000000;stroke-width:1.5;stroke-miterlimit:10;}
	.st2{fill:#FFFFFF;stroke:#000000;stroke-width:2;stroke-miterlimit:10;}
	.st3{stroke:#000000;stroke-width:1.5;stroke-miterlimit:10;}
	.st4{fill:#FFFFFF;stroke:#000000;stroke-width:1.5;stroke-miterlimit:10;}
	.st5{fill:#FFFFFF;}
	.st6{stroke:#000000;stroke-width:1.358;stroke-miterlimit:10;}
	.st7{stroke:#000000;stroke-width:1.385;stroke-miterlimit:10;}
	.st8{fill:#FFFFFF;stroke:#000000;stroke-width:1.358;stroke-linejoin:round;stroke-miterlimit:10;}
</style>
<g id="Calque_2">
</g>
<g id="Calque_1">
	<g>
		<rect class="st0" width="287" height="240"/>
		<g>
			<g>
				<path class="st5" d="M167.9,199.8c-0.7,0-1.3-0.1-1.9-0.4l-66.9-25.9c-2.7-1-4.1-4.1-3-6.8l35.3-91.3c0.8-2,2.8-3.4,4.9-3.4
					c0.7,0,1.3,0.1,1.9,0.4l66.9,25.9c1.3,0.5,2.4,1.5,2.9,2.8c0.6,1.3,0.6,2.7,0.1,4l-35.3,91.3
					C172.1,198.4,170.1,199.8,167.9,199.8z"/>
				<path d="M136.4,72.8c0.6,0,1.1,0.1,1.7,0.3L204.9,99c2.4,0.9,3.5,3.6,2.6,5.9l-35.3,91.3c-0.7,1.8-2.4,2.9-4.3,2.9
					c-0.6,0-1.1-0.1-1.7-0.3l-66.9-25.9c-2.4-0.9-3.5-3.6-2.6-5.9l35.3-91.3C132.8,73.9,134.5,72.8,136.4,72.8 M136.4,71.4
					L136.4,71.4c-2.4,0-4.7,1.5-5.6,3.8l-35.3,91.3c-1.2,3.1,0.3,6.5,3.4,7.7l66.9,25.9c0.7,0.3,1.4,0.4,2.1,0.4
					c2.4,0,4.7-1.5,5.6-3.8l35.3-91.3c1.2-3.1-0.3-6.5-3.4-7.7l-66.9-25.9C137.8,71.6,137.1,71.4,136.4,71.4L136.4,71.4z"/>
			</g>
			<g>
				<path class="st0" d="M143.9,108.4c-2.1-0.9-4.5-1.8-6.8-2.8c-1.2-0.5-2.4-1.1-3.6-1.8c-1.7-0.9-2.4-2.5-2-4.4
					c0.4-2.2,1.2-4.4,2-6.5c0.7-1.7,1.4-3.4,2.3-5c0.3-0.6,0.6-1.1,1-1.6c1-1.2,2.3-1.6,3.8-1.3c1.3,0.3,2.7,0.7,4,1.2
					c2.2,0.8,4.4,1.5,6.6,2.4c2,0.8,4.1,1.6,6.1,2.5c1.2,0.5,2.4,1.1,3.6,1.7c0.6,0.3,1.2,0.6,1.6,1.1c1,1,1.3,2.2,1,3.5
					c-0.2,1.2-0.5,2.4-0.9,3.6c-0.5,1.7-1.1,3.3-1.9,4.9c-0.7,1.5-1.3,3-2.3,4.4c-1,1.4-2.5,2-4.1,1.6c-1.4-0.4-2.7-0.7-4.1-1.2
					C148.3,110,146.2,109.2,143.9,108.4z"/>
				<path class="st5" d="M143.1,101.6c1.1-2.8,2.2-5.6,3.3-8.4c1.9,2.4,3.8,4.7,5.7,7.1C149.1,100.7,146.1,101.2,143.1,101.6z"/>
			</g>
			<line class="st8" x1="127" y1="113.8" x2="184.4" y2="136"/>
			<line class="st8" x1="123.4" y1="123.1" x2="180.8" y2="145.4"/>
			<line class="st8" x1="119.7" y1="132.5" x2="177.2" y2="154.7"/>
			<line class="st8" x1="116.1" y1="141.9" x2="173.5" y2="164.1"/>
			<line class="st8" x1="170.7" y1="98.5" x2="195.2" y2="108"/>
			<line class="st8" x1="167.1" y1="107.9" x2="191.6" y2="117.4"/>
			<line class="st8" x1="163.4" y1="117.3" x2="188" y2="126.8"/>
			<line class="st8" x1="112.5" y1="151.3" x2="169.9" y2="173.5"/>
			<line class="st8" x1="108.8" y1="160.7" x2="166.3" y2="182.9"/>
		</g>
		<g>
			<g>
				<path class="st5" d="M58.6,166.2c-2.2,0-4.2-1.4-5-3.5L20.2,70.8c-0.5-1.3-0.4-2.8,0.2-4c0.6-1.3,1.7-2.2,3-2.7l67.4-24.5
					c0.6-0.2,1.2-0.3,1.8-0.3c2.2,0,4.2,1.4,5,3.5l33.5,91.9c0.5,1.3,0.4,2.8-0.2,4c-0.6,1.3-1.7,2.2-3,2.7l-67.4,24.5
					C59.9,166.1,59.3,166.2,58.6,166.2z"/>
				<path d="M92.5,39.9c1.9,0,3.6,1.2,4.3,3l33.5,91.9c0.9,2.4-0.4,5-2.7,5.9l-67.4,24.5c-0.5,0.2-1,0.3-1.6,0.3
					c-1.9,0-3.6-1.2-4.3-3L20.9,70.5c-0.9-2.4,0.4-5,2.7-5.9L91,40.1C91.5,40,92,39.9,92.5,39.9 M92.5,38.5c-0.7,0-1.4,0.1-2,0.4
					L23.1,63.4c-3.1,1.1-4.7,4.5-3.6,7.6L53.1,163c0.9,2.3,3.1,3.9,5.6,3.9c0.7,0,1.4-0.1,2-0.4L128,142c1.5-0.5,2.7-1.6,3.4-3.1
					s0.7-3.1,0.2-4.6L98.1,42.4C97.3,40.1,95,38.5,92.5,38.5L92.5,38.5z"/>
			</g>
			<line class="st8" x1="80.3" y1="122.7" x2="111.7" y2="111.3"/>
			<line class="st8" x1="83.7" y1="132.2" x2="115.1" y2="120.7"/>
			<line class="st8" x1="87.1" y1="141.6" x2="118.5" y2="130.2"/>
			<line class="st8" x1="32.9" y1="75" x2="90.8" y2="53.9"/>
			<line class="st8" x1="36.3" y1="84.4" x2="94.2" y2="63.4"/>
			<line class="st8" x1="39.8" y1="93.9" x2="97.6" y2="72.8"/>
			<line class="st8" x1="43.2" y1="103.3" x2="101.1" y2="82.3"/>
			<line class="st8" x1="46.6" y1="112.8" x2="104.5" y2="91.7"/>
			<line class="st8" x1="50.1" y1="122.2" x2="108" y2="101.2"/>
			<path class="st0" d="M63.3,127.7c3.5-1.3,4.9,0.7,5.9,3.5c0.4,1.1,0.5,2.2,0.3,3.2l0,0c-0.1,0.6-0.2,1.1-0.2,1.5
				c-0.1,0.7,0.4,1.2,0.9,1.2c4-0.4,5.3,0.3,7.1,4.9c0.1,0.4,0.2,0.4,0.1,0.4c0,0.1,0.1,0.2,0.2,0.5c0,0-0.3,2.7-6.9,5.1l0,0
				c-6.6,2.4-8.5,0.5-8.5,0.5c-0.1-0.3-0.2-0.4-0.2-0.5c0,0,0,0-0.1-0.4c-1.6-4.7-1.1-6.1,2.3-8.3c0.4-0.3,0.4-0.9-0.1-1.5
				c-0.3-0.3-0.7-0.6-1.2-1l0,0c-0.8-0.6-1.4-1.5-1.8-2.6C60.1,131.4,59.9,129,63.3,127.7L63.3,127.7z"/>
		</g>
		<g>
			<g>
				<g>
					<path class="st5" d="M238.6,74.8c-0.4,0-0.7-0.3-0.7-0.7l-0.4-26c0-0.2,0.1-0.4,0.2-0.5c0.1-0.1,0.3-0.2,0.5-0.2h3
						c0.2,0,0.4,0.1,0.5,0.2l23.5,23.2c0.1,0.1,0.2,0.3,0.2,0.5v2.8c0,0.4-0.3,0.7-0.7,0.7H238.6z"/>
					<path d="M241.2,48.1l23.5,23.2v2.8h-26.1l-0.4-26H241.2 M241.2,46.8h-3c-0.4,0-0.7,0.1-1,0.4c-0.3,0.3-0.4,0.6-0.4,1l0.4,26
						c0,0.7,0.6,1.3,1.4,1.3h26.1c0.8,0,1.4-0.6,1.4-1.4v-2.8c0-0.4-0.1-0.7-0.4-1l-23.5-23.2C241.9,46.9,241.6,46.8,241.2,46.8
						L241.2,46.8z"/>
				</g>
				<g>
					<path class="st5" d="M188.2,155.9c-2.8,0-5-2.3-5-5V52.5c0-2.8,2.3-5,5-5h52.5c0.4,0,0.7,0.3,0.7,0.7v19.4c0,2,1.6,3.7,3.7,3.7
						h19.7c0.4,0,0.7,0.3,0.7,0.7v79c0,2.8-2.3,5-5,5H188.2z"/>
					<path d="M240.7,48.1v19.4c0,2.4,1.9,4.3,4.3,4.3h19.7v79c0,2.4-1.9,4.3-4.3,4.3h-72.2c-2.4,0-4.3-1.9-4.3-4.3V52.5
						c0-2.4,1.9-4.3,4.3-4.3H240.7 M240.7,46.8h-52.5c-3.1,0-5.7,2.6-5.7,5.7v98.3c0,3.1,2.6,5.7,5.7,5.7h72.2
						c3.1,0,5.7-2.6,5.7-5.7v-79c0-0.8-0.6-1.4-1.4-1.4H245c-1.6,0-3-1.3-3-3V48.1C242,47.4,241.4,46.8,240.7,46.8L240.7,46.8z"/>
				</g>
			</g>
			<line class="st8" x1="193.5" y1="60.9" x2="228.9" y2="60.9"/>
			<line class="st8" x1="193.5" y1="71" x2="228.9" y2="71"/>
			<g>
				<g>
					<path class="st5" d="M193.1,137c-0.4,0-0.7-0.3-0.7-0.7V85c0-0.4,0.3-0.7,0.7-0.7h62.5c0.4,0,0.7,0.3,0.7,0.7v51.3
						c0,0.4-0.3,0.7-0.7,0.7H193.1z"/>
					<path d="M255.6,85v51.3h-62.5V85H255.6 M255.6,83.7h-62.5c-0.8,0-1.4,0.6-1.4,1.4v51.3c0,0.8,0.6,1.4,1.4,1.4h62.5
						c0.8,0,1.4-0.6,1.4-1.4V85C256.9,84.3,256.3,83.7,255.6,83.7L255.6,83.7z"/>
				</g>
				<line class="st8" x1="213.8" y1="85" x2="213.8" y2="136.2"/>
				<line class="st8" x1="234.7" y1="85" x2="234.7" y2="136.5"/>
				<line class="st8" x1="255.4" y1="95.2" x2="193.4" y2="95.2"/>
				<line class="st8" x1="255.1" y1="105.5" x2="193.1" y2="105.5"/>
				<line class="st8" x1="255.4" y1="126" x2="193.4" y2="126"/>
				<line class="st8" x1="192.9" y1="115.7" x2="255.5" y2="115.7"/>
			</g>
		</g>
	</g>
</g>
</svg>
