<?xml version="1.0" encoding="utf-8"?>
<!-- Generator: Adobe Illustrator 22.0.1, SVG Export Plug-In . SVG Version: 6.00 Build 0)  -->
<svg version="1.1" xmlns="http://www.w3.org/2000/svg" xmlns:xlink="http://www.w3.org/1999/xlink" x="0px" y="0px"
	 viewBox="0 0 287 240" style="enable-background:new 0 0 287 240;" xml:space="preserve">
<style type="text/css">
	.st0{fill:#D9230D;}
	.st1{fill:none;stroke:#000000;stroke-width:1.5;stroke-miterlimit:10;}
	.st2{fill:#FFFFFF;stroke:#000000;stroke-width:2;stroke-miterlimit:10;}
	.st3{stroke:#000000;stroke-width:1.5;stroke-miterlimit:10;}
	.st4{fill:#FFFFFF;stroke:#000000;stroke-width:1.5;stroke-miterlimit:10;}
	.st5{fill:#FFFFFF;}
	.st6{stroke:#000000;stroke-width:1.358;stroke-miterlimit:10;}
	.st7{stroke:#000000;stroke-width:1.385;stroke-miterlimit:10;}
	.st8{fill:#FFFFFF;stroke:#000000;stroke-width:1.358;stroke-linejoin:round;stroke-miterlimit:10;}
</style>
<g id="Calque_2">
</g>
<g id="Calque_1">
	<rect class="st0" width="287" height="240"/>
	<g>
		<g>
			<path class="st5" d="M64.4,74c-1.4,0-2.8-0.1-4.2-0.1c-3.6-0.1-7.3-0.2-11-0.3c-2.5-0.1-5.1-0.3-8.3-0.7c-4.1-0.5-7-3.3-7.7-7.5
				c-0.9-4.9-1-9.9-1-14.2c0-4.2,0.2-7.9,0.7-11.4c0.2-1.2,0.3-2.7,0.8-4c1.2-3.3,3.6-5.3,7-5.7c2.9-0.4,5.9-0.6,8.6-0.7
				c5.2-0.2,10-0.3,14.5-0.3l0.3,0c4.6,0,9.1,0.1,13.3,0.3c2.4,0.1,4.8,0.3,7.2,0.5l1,0.1c1.3,0.1,2.7,0.3,4.1,0.9
				c2.7,1.2,4.4,3.4,5,6.4c0.6,2.8,0.8,5.5,0.9,7.7c0.2,3.9,0.3,7.5,0.1,11c-0.1,3.2-0.3,6.8-1.1,10.3c-0.8,3.8-3.6,6.3-7.3,6.7
				c-3,0.4-6,0.6-8.8,0.7c-3.1,0.1-6.3,0.2-9.6,0.3C67.4,73.9,66,73.9,64.4,74C64.4,74,64.4,74,64.4,74C64.4,74,64.4,74,64.4,74z"/>
			<path d="M64.1,29.7c4.4,0,8.8,0.1,13.2,0.3c2.7,0.1,5.4,0.3,8.1,0.6c1.3,0.1,2.7,0.3,3.9,0.9c2.6,1.2,4,3.2,4.6,6
				c0.5,2.5,0.7,5,0.9,7.6c0.2,3.6,0.3,7.3,0.1,10.9c-0.2,3.4-0.3,6.8-1.1,10.2c-0.8,3.5-3.2,5.8-6.8,6.2c-2.9,0.3-5.8,0.6-8.7,0.7
				c-4.5,0.2-9.1,0.3-14,0.4c-4.8-0.1-10-0.2-15.2-0.4c-2.7-0.1-5.5-0.4-8.2-0.7c-3.9-0.5-6.5-3.1-7.1-6.9c-0.8-4.7-1-9.4-1-14.1
				c0-3.8,0.2-7.6,0.7-11.3c0.2-1.3,0.3-2.6,0.8-3.8c1.1-3,3.3-4.9,6.5-5.3c2.8-0.4,5.7-0.6,8.6-0.7c4.8-0.2,9.7-0.3,14.5-0.3
				C63.9,29.7,64,29.7,64.1,29.7 M64.1,28.3l-0.3,0c-4.5,0-9.3,0.1-14.5,0.3c-2.8,0.1-5.7,0.4-8.7,0.7c-3.7,0.5-6.3,2.6-7.6,6.2
				c-0.5,1.4-0.7,2.8-0.8,4.1c-0.5,3.5-0.7,7.3-0.7,11.5c0,4.3,0.1,9.3,1,14.3c0.8,4.5,3.9,7.5,8.3,8c3.2,0.4,5.8,0.6,8.3,0.7
				c3.7,0.2,7.4,0.2,11,0.3c1.4,0,2.9,0.1,4.2,0.1c0,0,0,0,0,0c0,0,0,0,0,0c1.5,0,3-0.1,4.4-0.1c3.3-0.1,6.5-0.2,9.6-0.3
				c2.8-0.1,5.8-0.4,8.8-0.7c4.1-0.5,7-3.2,7.9-7.3c0.8-3.6,1-7.2,1.1-10.4c0.2-3.5,0.1-7.1-0.1-11.1c-0.1-2.1-0.3-4.9-0.9-7.8
				c-0.7-3.3-2.5-5.6-5.4-6.9c-1.5-0.7-3-0.9-4.3-1l-1-0.1c-2.4-0.2-4.8-0.4-7.2-0.5C73.2,28.5,68.7,28.3,64.1,28.3L64.1,28.3z"/>
		</g>
		<g>
			<path class="st0" d="M57.8,61.5c-0.1,0-0.2,0-0.3-0.1c-0.2-0.1-0.3-0.3-0.3-0.6V42.1c0-0.2,0.1-0.5,0.3-0.6
				c0.1-0.1,0.2-0.1,0.3-0.1s0.2,0,0.3,0.1l16.2,9.4c0.2,0.1,0.3,0.3,0.3,0.6c0,0.2-0.1,0.5-0.3,0.6l-16.2,9.3
				C58,61.5,57.9,61.5,57.8,61.5z"/>
			<path d="M57.8,42.1c5.4,3.1,10.8,6.2,16.2,9.4c-5.4,3.1-10.8,6.2-16.2,9.3C57.8,54.6,57.8,48.4,57.8,42.1 M57.8,40.8
				c-0.2,0-0.5,0.1-0.7,0.2c-0.4,0.2-0.7,0.7-0.7,1.2v18.7c0,0.5,0.3,0.9,0.7,1.2c0.2,0.1,0.4,0.2,0.7,0.2c0.2,0,0.5-0.1,0.7-0.2
				l7.2-4.1l9-5.2c0.4-0.2,0.7-0.7,0.7-1.2c0-0.5-0.3-0.9-0.7-1.2l-1.8-1.1L58.4,41C58.2,40.8,58,40.8,57.8,40.8L57.8,40.8z"/>
		</g>
	</g>
	<g>
		<g>
			<path class="st5" d="M187.1,126.3c-1.4,0-2.8-0.1-4.2-0.1c-3.6-0.1-7.3-0.2-11-0.3c-2.5-0.1-5.1-0.3-8.3-0.7
				c-4.1-0.5-7-3.3-7.7-7.5c-0.9-4.9-1-9.9-1-14.2c0-4.2,0.2-7.9,0.7-11.4c0.2-1.3,0.3-2.7,0.8-4c1.2-3.3,3.6-5.3,7-5.7
				c2.9-0.4,5.8-0.6,8.6-0.7c5.2-0.2,10-0.3,14.5-0.3l0.3,0c4.6,0,9.1,0.1,13.3,0.3c2.4,0.1,4.8,0.3,7.2,0.5l1,0.1
				c1.3,0.1,2.7,0.3,4.1,0.9c2.7,1.2,4.4,3.4,5,6.4c0.6,2.8,0.8,5.5,0.9,7.7c0.2,3.9,0.3,7.5,0.1,11c-0.1,3.2-0.3,6.8-1.1,10.3
				c-0.8,3.8-3.6,6.3-7.3,6.7c-3,0.4-6,0.6-8.8,0.7c-3.1,0.1-6.3,0.2-9.6,0.3C190.1,126.2,188.7,126.2,187.1,126.3
				C187.1,126.3,187.1,126.3,187.1,126.3C187.1,126.3,187.1,126.3,187.1,126.3z"/>
			<path d="M186.8,82c4.4,0,8.8,0.1,13.2,0.3c2.7,0.1,5.4,0.3,8.1,0.6c1.3,0.1,2.7,0.3,3.9,0.9c2.6,1.2,4,3.2,4.6,6
				c0.5,2.5,0.7,5,0.9,7.6c0.2,3.6,0.3,7.3,0.1,10.9c-0.2,3.4-0.3,6.8-1.1,10.2c-0.8,3.5-3.2,5.8-6.8,6.2c-2.9,0.3-5.8,0.6-8.7,0.7
				c-4.5,0.2-9.1,0.3-14,0.4c-4.8-0.1-10-0.2-15.2-0.4c-2.7-0.1-5.5-0.4-8.2-0.7c-3.9-0.5-6.5-3.1-7.1-6.9c-0.8-4.7-1-9.4-1-14.1
				c0-3.8,0.2-7.6,0.7-11.3c0.2-1.3,0.3-2.6,0.8-3.8c1.1-3,3.3-4.9,6.5-5.3c2.8-0.4,5.7-0.6,8.6-0.7c4.8-0.2,9.7-0.3,14.5-0.3
				C186.6,82,186.7,82,186.8,82 M186.8,80.6l-0.3,0c-4.5,0-9.3,0.1-14.5,0.3c-2.8,0.1-5.7,0.4-8.7,0.7c-3.7,0.5-6.3,2.6-7.6,6.2
				c-0.5,1.4-0.7,2.8-0.8,4.1c-0.5,3.5-0.7,7.3-0.7,11.5c0,4.3,0.1,9.3,1,14.3c0.8,4.5,3.9,7.5,8.3,8c3.2,0.4,5.8,0.6,8.3,0.7
				c3.7,0.2,7.5,0.2,11,0.3c1.4,0,2.9,0.1,4.2,0.1c0,0,0,0,0,0c0,0,0,0,0,0c1.5,0,3-0.1,4.4-0.1c3.3-0.1,6.5-0.2,9.6-0.3
				c2.8-0.1,5.8-0.4,8.8-0.7c4.1-0.5,7-3.2,7.9-7.3c0.8-3.6,1-7.2,1.1-10.4c0.2-3.5,0.1-7.1-0.1-11.1c-0.1-2.1-0.3-4.9-0.9-7.8
				c-0.7-3.3-2.5-5.6-5.4-6.9c-1.5-0.7-3-0.9-4.3-1l-1-0.1c-2.4-0.2-4.8-0.4-7.2-0.5C195.9,80.7,191.4,80.6,186.8,80.6L186.8,80.6z"
				/>
		</g>
		<g>
			<g>
				<path class="st0" d="M175,113.8c-0.1,0-0.2,0-0.3-0.1c-0.2-0.1-0.3-0.3-0.3-0.6V94.4c0-0.2,0.1-0.5,0.3-0.6
					c0.1-0.1,0.2-0.1,0.3-0.1s0.2,0,0.3,0.1l16.2,9.4c0.2,0.1,0.3,0.3,0.3,0.6c0,0.2-0.1,0.5-0.3,0.6l-16.2,9.3
					C175.3,113.8,175.1,113.8,175,113.8z"/>
				<path d="M175,94.4c5.4,3.1,10.8,6.2,16.2,9.4c-5.4,3.1-10.8,6.2-16.2,9.3C175,106.9,175,100.7,175,94.4 M175,93.1
					c-0.2,0-0.5,0.1-0.7,0.2c-0.4,0.2-0.7,0.7-0.7,1.2v18.7c0,0.5,0.3,0.9,0.7,1.2c0.2,0.1,0.4,0.2,0.7,0.2c0.2,0,0.5-0.1,0.7-0.2
					l16.2-9.3c0.4-0.2,0.7-0.7,0.7-1.2c0-0.5-0.3-0.9-0.7-1.2l-16.2-9.4C175.5,93.1,175.3,93.1,175,93.1L175,93.1z"/>
			</g>
			<g>
				<path class="st0" d="M195.7,113.8c-0.4,0-0.7-0.3-0.7-0.7V94.5c0-0.4,0.3-0.7,0.7-0.7h2.6c0.4,0,0.7,0.3,0.7,0.7v18.6
					c0,0.4-0.3,0.7-0.7,0.7H195.7z"/>
				<path d="M198.3,94.5v18.6h-2.6V94.5H198.3 M198.3,93.1h-2.6c-0.8,0-1.4,0.6-1.4,1.4v18.6c0,0.8,0.6,1.4,1.4,1.4h2.6
					c0.8,0,1.4-0.6,1.4-1.4V94.5C199.7,93.7,199,93.1,198.3,93.1L198.3,93.1z"/>
			</g>
		</g>
	</g>
	<g>
		<g>
			<path class="st5" d="M84,100.1c-1.4,0-2.8-0.1-4.2-0.1c-3.6-0.1-7.3-0.2-11-0.3c-2.5-0.1-5.1-0.3-8.3-0.7c-4.1-0.5-7-3.3-7.7-7.5
				c-0.9-4.9-1-9.9-1-14.2c0-4.2,0.2-7.9,0.7-11.4c0.2-1.3,0.3-2.7,0.8-4c1.2-3.3,3.6-5.3,7-5.7c2.9-0.4,5.9-0.6,8.6-0.7
				c5.2-0.2,10-0.3,14.5-0.3l0.3,0c4.6,0,9.1,0.1,13.3,0.3c2.4,0.1,4.8,0.3,7.2,0.5l1,0.1c1.3,0.1,2.7,0.3,4.1,0.9
				c2.7,1.2,4.4,3.4,5,6.4c0.6,2.8,0.8,5.5,0.9,7.7c0.2,3.9,0.3,7.5,0.1,11c-0.1,3.2-0.3,6.8-1.1,10.3c-0.8,3.8-3.6,6.3-7.3,6.7
				c-3,0.4-6,0.6-8.8,0.7c-3.1,0.1-6.3,0.2-9.6,0.3C87,100,85.6,100.1,84,100.1C84,100.1,84,100.1,84,100.1
				C84,100.1,84,100.1,84,100.1z"/>
			<path d="M83.7,55.8c4.4,0,8.8,0.1,13.2,0.3c2.7,0.1,5.4,0.3,8.1,0.6c1.3,0.1,2.7,0.3,3.9,0.9c2.6,1.2,4,3.2,4.6,6
				c0.5,2.5,0.7,5,0.9,7.6c0.2,3.6,0.3,7.3,0.1,10.9c-0.2,3.4-0.3,6.8-1.1,10.2c-0.8,3.5-3.2,5.8-6.8,6.2c-2.9,0.3-5.8,0.6-8.7,0.7
				c-4.5,0.2-9.1,0.3-14,0.4c-4.8-0.1-10-0.2-15.2-0.4c-2.7-0.1-5.5-0.4-8.2-0.7c-3.9-0.5-6.5-3.1-7.1-6.9c-0.8-4.7-1-9.4-1-14.1
				c0-3.8,0.2-7.6,0.7-11.3c0.2-1.3,0.3-2.6,0.8-3.8c1.1-3,3.3-4.9,6.5-5.3c2.8-0.4,5.7-0.6,8.6-0.7c4.8-0.2,9.7-0.3,14.5-0.3
				C83.5,55.8,83.6,55.8,83.7,55.8 M83.7,54.5l-0.3,0c-4.5,0-9.3,0.1-14.5,0.3c-2.8,0.1-5.7,0.4-8.7,0.7c-3.7,0.5-6.3,2.6-7.6,6.2
				c-0.5,1.4-0.7,2.8-0.8,4.1c-0.5,3.5-0.7,7.3-0.7,11.5c0,4.3,0.1,9.3,1,14.3c0.8,4.5,3.9,7.5,8.3,8c3.2,0.4,5.8,0.6,8.3,0.7
				c3.7,0.2,7.5,0.2,11,0.3c1.4,0,2.8,0.1,4.2,0.1c0,0,0,0,0,0c0,0,0,0,0,0c1.5,0,3-0.1,4.4-0.1c3.3-0.1,6.5-0.2,9.6-0.3
				c2.8-0.1,5.8-0.4,8.8-0.7c4.1-0.5,7-3.2,7.9-7.3c0.8-3.6,1-7.2,1.1-10.4c0.2-3.5,0.1-7.1-0.1-11.1c-0.1-2.1-0.3-4.9-0.9-7.8
				c-0.7-3.3-2.5-5.6-5.4-6.9c-1.5-0.7-3-0.9-4.3-1l-1-0.1c-2.4-0.2-4.8-0.4-7.2-0.5C92.8,54.6,88.3,54.5,83.7,54.5L83.7,54.5z"/>
		</g>
		<g>
			<path class="st0" d="M77.4,87.7c-0.1,0-0.2,0-0.3-0.1c-0.2-0.1-0.3-0.3-0.3-0.6V68.3c0-0.2,0.1-0.5,0.3-0.6
				c0.1-0.1,0.2-0.1,0.3-0.1s0.2,0,0.3,0.1l16.2,9.4c0.2,0.1,0.3,0.3,0.3,0.6c0,0.2-0.1,0.5-0.3,0.6l-16.2,9.3
				C77.6,87.6,77.5,87.7,77.4,87.7z"/>
			<path d="M77.4,68.3c5.4,3.1,10.8,6.2,16.2,9.4c-5.4,3.1-10.8,6.2-16.2,9.3C77.4,80.7,77.4,74.5,77.4,68.3 M77.4,66.9
				c-0.2,0-0.5,0.1-0.7,0.2c-0.4,0.2-0.7,0.7-0.7,1.2V87c0,0.5,0.3,0.9,0.7,1.2c0.2,0.1,0.4,0.2,0.7,0.2c0.2,0,0.5-0.1,0.7-0.2
				l16.2-9.3c0.4-0.2,0.7-0.7,0.7-1.2c0-0.5-0.3-0.9-0.7-1.2l-1.8-1.1L78,67.1C77.8,67,77.6,66.9,77.4,66.9L77.4,66.9z"/>
		</g>
	</g>
	<g>
		<g>
			<path class="st5" d="M206.7,152.4c-1.4,0-2.8-0.1-4.2-0.1c-3.6-0.1-7.3-0.2-11-0.3c-2.5-0.1-5.1-0.3-8.3-0.7
				c-4.1-0.5-7-3.3-7.7-7.5c-0.9-4.9-1-9.9-1-14.2c0-4.2,0.2-8,0.7-11.4c0.2-1.2,0.3-2.7,0.8-4c1.2-3.3,3.6-5.3,7-5.7
				c2.9-0.4,5.9-0.6,8.6-0.7c5.2-0.2,10-0.3,14.5-0.3l0.3,0c4.6,0,9.1,0.1,13.3,0.3c2.4,0.1,4.8,0.3,7.2,0.5l1,0.1
				c1.3,0.1,2.7,0.3,4.1,0.9c2.7,1.2,4.4,3.4,5,6.4c0.6,2.8,0.8,5.5,0.9,7.7c0.2,3.9,0.3,7.5,0.1,11c-0.1,3.2-0.3,6.8-1.1,10.3
				c-0.8,3.8-3.6,6.3-7.3,6.7c-3,0.4-6,0.6-8.8,0.7c-3.1,0.1-6.3,0.2-9.6,0.3C209.7,152.3,208.3,152.4,206.7,152.4
				C206.7,152.4,206.7,152.4,206.7,152.4C206.7,152.4,206.7,152.4,206.7,152.4z"/>
			<path d="M206.4,108.1c4.4,0,8.8,0.1,13.2,0.3c2.7,0.1,5.4,0.3,8.1,0.6c1.3,0.1,2.7,0.3,3.9,0.9c2.6,1.2,4,3.2,4.6,6
				c0.5,2.5,0.7,5,0.9,7.6c0.2,3.6,0.3,7.3,0.1,10.9c-0.2,3.4-0.3,6.8-1.1,10.2c-0.8,3.5-3.2,5.8-6.8,6.2c-2.9,0.3-5.8,0.6-8.7,0.7
				c-4.5,0.2-9.1,0.3-14,0.4c-4.8-0.1-10-0.2-15.2-0.4c-2.7-0.1-5.5-0.4-8.2-0.7c-3.9-0.5-6.5-3.1-7.1-6.9c-0.8-4.7-1-9.4-1-14.1
				c0-3.8,0.2-7.6,0.7-11.3c0.2-1.3,0.3-2.6,0.8-3.8c1.1-3,3.3-4.9,6.5-5.3c2.8-0.4,5.7-0.6,8.6-0.7c4.8-0.2,9.7-0.3,14.5-0.3
				C206.2,108.1,206.3,108.1,206.4,108.1 M206.4,106.7l-0.3,0c-4.5,0-9.3,0.1-14.5,0.3c-2.8,0.1-5.7,0.4-8.7,0.7
				c-3.7,0.5-6.3,2.6-7.6,6.2c-0.5,1.4-0.7,2.8-0.8,4.1c-0.5,3.5-0.7,7.3-0.7,11.5c0,4.3,0.1,9.3,1,14.3c0.8,4.5,3.9,7.5,8.3,8
				c3.2,0.4,5.8,0.6,8.3,0.7c3.7,0.2,7.4,0.2,11,0.3c1.4,0,2.9,0.1,4.2,0.1c0,0,0,0,0,0c0,0,0,0,0,0c1.5,0,3-0.1,4.4-0.1
				c3.3-0.1,6.5-0.2,9.6-0.3c2.8-0.1,5.8-0.4,8.8-0.7c4.1-0.5,7-3.2,7.9-7.3c0.8-3.6,1-7.2,1.1-10.4c0.2-3.5,0.1-7.1-0.1-11.1
				c-0.1-2.1-0.3-4.9-0.9-7.8c-0.7-3.3-2.5-5.6-5.4-6.9c-1.5-0.7-3-0.9-4.3-1l-1-0.1c-2.4-0.2-4.8-0.4-7.2-0.5
				C215.5,106.9,211,106.7,206.4,106.7L206.4,106.7z"/>
		</g>
		<g>
			<g>
				<path class="st0" d="M194.6,139.9c-0.1,0-0.2,0-0.3-0.1c-0.2-0.1-0.3-0.3-0.3-0.6v-18.7c0-0.2,0.1-0.5,0.3-0.6
					c0.1-0.1,0.2-0.1,0.3-0.1s0.2,0,0.3,0.1l16.2,9.4c0.2,0.1,0.3,0.3,0.3,0.6c0,0.2-0.1,0.5-0.3,0.6l-16.2,9.3
					C194.9,139.9,194.7,139.9,194.6,139.9z"/>
				<path d="M194.6,120.6c5.4,3.1,10.8,6.2,16.2,9.4c-5.4,3.1-10.8,6.2-16.2,9.3C194.6,133,194.6,126.8,194.6,120.6 M194.6,119.2
					c-0.2,0-0.5,0.1-0.7,0.2c-0.4,0.2-0.7,0.7-0.7,1.2v18.7c0,0.5,0.3,0.9,0.7,1.2c0.2,0.1,0.4,0.2,0.7,0.2c0.2,0,0.5-0.1,0.7-0.2
					l9-5.2l7.2-4.2c0.4-0.2,0.7-0.7,0.7-1.2c0-0.5-0.3-0.9-0.7-1.2l-15.2-8.8l-1-0.6C195.1,119.3,194.9,119.2,194.6,119.2
					L194.6,119.2z"/>
			</g>
			<g>
				<path class="st0" d="M215.3,139.9c-0.4,0-0.7-0.3-0.7-0.7v-18.6c0-0.4,0.3-0.7,0.7-0.7h2.6c0.4,0,0.7,0.3,0.7,0.7v18.6
					c0,0.4-0.3,0.7-0.7,0.7H215.3z"/>
				<path d="M217.9,120.6v18.6h-2.6v-18.6H217.9 M217.9,119.2h-2.6c-0.8,0-1.4,0.6-1.4,1.4v18.6c0,0.8,0.6,1.4,1.4,1.4h2.6
					c0.8,0,1.4-0.6,1.4-1.4v-18.6C219.3,119.8,218.6,119.2,217.9,119.2L217.9,119.2z"/>
			</g>
		</g>
	</g>
	<g>
		<g>
			<path class="st5" d="M103.6,126.3c-1.4,0-2.8-0.1-4.2-0.1c-3.6-0.1-7.3-0.2-11-0.3c-2.5-0.1-5.1-0.3-8.3-0.7
				c-4.1-0.5-7-3.3-7.7-7.5c-0.9-4.9-1-9.9-1-14.2c0-4.2,0.2-7.9,0.7-11.4c0.2-1.2,0.3-2.7,0.8-4c1.2-3.3,3.6-5.3,7-5.7
				c2.9-0.4,5.9-0.6,8.6-0.7c5.2-0.2,10-0.3,14.5-0.3l0.3,0c4.6,0,9.1,0.1,13.3,0.3c2.4,0.1,4.8,0.3,7.2,0.5l1,0.1
				c1.3,0.1,2.7,0.3,4.1,0.9c2.7,1.2,4.4,3.4,5,6.4c0.6,2.8,0.8,5.6,0.9,7.7c0.2,3.9,0.3,7.5,0.1,11c-0.1,3.2-0.3,6.8-1.1,10.3
				c-0.8,3.8-3.6,6.3-7.3,6.7c-3,0.4-6,0.6-8.8,0.7c-3.1,0.1-6.3,0.2-9.6,0.3C106.6,126.2,105.2,126.2,103.6,126.3
				C103.6,126.3,103.6,126.3,103.6,126.3C103.6,126.3,103.6,126.3,103.6,126.3z"/>
			<path d="M103.3,81.9c4.4,0,8.8,0.1,13.2,0.3c2.7,0.1,5.4,0.3,8.1,0.6c1.3,0.1,2.7,0.3,3.9,0.9c2.6,1.2,4,3.2,4.6,6
				c0.5,2.5,0.7,5,0.9,7.6c0.2,3.6,0.3,7.3,0.1,10.9c-0.2,3.4-0.3,6.8-1.1,10.2c-0.8,3.5-3.2,5.8-6.8,6.2c-2.9,0.3-5.8,0.6-8.7,0.7
				c-4.5,0.2-9.1,0.3-14,0.4c-4.8-0.1-10-0.2-15.2-0.4c-2.7-0.1-5.5-0.4-8.2-0.7c-3.9-0.5-6.5-3.1-7.1-6.9c-0.8-4.7-1-9.4-1-14.1
				c0-3.8,0.2-7.6,0.7-11.3c0.2-1.3,0.3-2.6,0.8-3.8c1.1-3,3.3-4.9,6.5-5.3c2.8-0.4,5.7-0.6,8.6-0.7c4.8-0.2,9.7-0.3,14.5-0.3
				C103.1,81.9,103.2,81.9,103.3,81.9 M103.3,80.6l-0.3,0c-4.5,0-9.3,0.1-14.5,0.3c-2.8,0.1-5.7,0.4-8.7,0.7
				c-3.7,0.5-6.3,2.6-7.6,6.2c-0.5,1.4-0.7,2.8-0.8,4.1c-0.5,3.5-0.7,7.3-0.7,11.5c0,4.3,0.1,9.3,1,14.3c0.8,4.5,3.9,7.5,8.3,8
				c3.2,0.4,5.8,0.6,8.3,0.7c3.7,0.2,7.5,0.2,11,0.3c1.4,0,2.9,0.1,4.2,0.1c0,0,0,0,0,0c0,0,0,0,0,0c1.5,0,3-0.1,4.4-0.1
				c3.3-0.1,6.5-0.2,9.6-0.3c2.8-0.1,5.8-0.4,8.8-0.7c4.1-0.5,7-3.2,7.9-7.3c0.8-3.6,1-7.2,1.1-10.4c0.2-3.5,0.1-7.1-0.1-11.1
				c-0.1-2.1-0.3-4.9-0.9-7.8c-0.7-3.3-2.5-5.6-5.4-6.9c-1.5-0.7-3-0.9-4.3-1l-1-0.1c-2.4-0.2-4.8-0.4-7.2-0.5
				C112.4,80.7,107.9,80.6,103.3,80.6L103.3,80.6z"/>
		</g>
		<g>
			<path class="st0" d="M97,113.8c-0.1,0-0.2,0-0.3-0.1c-0.2-0.1-0.3-0.3-0.3-0.6V94.4c0-0.2,0.1-0.5,0.3-0.6
				c0.1-0.1,0.2-0.1,0.3-0.1s0.2,0,0.3,0.1l16.2,9.4c0.2,0.1,0.3,0.3,0.3,0.6c0,0.2-0.1,0.5-0.3,0.6l-16.2,9.3
				C97.2,113.8,97.1,113.8,97,113.8z"/>
			<path d="M97,94.4c5.4,3.1,10.8,6.2,16.2,9.4c-5.4,3.1-10.8,6.2-16.2,9.3C97,106.9,97,100.7,97,94.4 M97,93.1
				c-0.2,0-0.5,0.1-0.7,0.2c-0.4,0.2-0.7,0.7-0.7,1.2v18.7c0,0.5,0.3,0.9,0.7,1.2c0.2,0.1,0.4,0.2,0.7,0.2c0.2,0,0.5-0.1,0.7-0.2
				l16.2-9.3c0.4-0.2,0.7-0.7,0.7-1.2c0-0.5-0.3-0.9-0.7-1.2l-1.8-1.1l-14.4-8.3C97.4,93.1,97.2,93.1,97,93.1L97,93.1z"/>
		</g>
	</g>
	<g>
		<g>
			<path class="st5" d="M226.3,178.5c-1.4,0-2.8-0.1-4.2-0.1c-3.6-0.1-7.3-0.2-11-0.3c-2.5-0.1-5.1-0.3-8.3-0.7
				c-4.1-0.5-7-3.3-7.7-7.5c-0.9-4.9-1-9.9-1-14.2c0-4.2,0.2-8,0.7-11.4c0.2-1.2,0.3-2.7,0.8-4c1.2-3.3,3.6-5.3,7-5.7
				c2.9-0.4,5.9-0.6,8.6-0.7c5.2-0.2,10-0.3,14.5-0.3l0.3,0c4.6,0,9.1,0.1,13.3,0.3c2.4,0.1,4.8,0.3,7.2,0.5l1,0.1
				c1.3,0.1,2.7,0.3,4.1,0.9c2.7,1.2,4.4,3.4,5,6.4c0.6,2.8,0.8,5.6,0.9,7.7c0.2,3.9,0.3,7.5,0.1,11c-0.1,3.2-0.3,6.8-1.1,10.3
				c-0.8,3.8-3.6,6.3-7.3,6.7c-3,0.4-6,0.6-8.8,0.7c-3.1,0.1-6.3,0.2-9.6,0.3C229.3,178.5,227.9,178.5,226.3,178.5
				C226.3,178.5,226.3,178.5,226.3,178.5C226.3,178.5,226.3,178.5,226.3,178.5z"/>
			<path d="M226,134.2c4.4,0,8.8,0.1,13.2,0.3c2.7,0.1,5.4,0.3,8.1,0.6c1.3,0.1,2.7,0.3,3.9,0.9c2.6,1.2,4,3.2,4.6,6
				c0.5,2.5,0.7,5,0.9,7.6c0.2,3.6,0.3,7.3,0.1,10.9c-0.2,3.4-0.3,6.8-1.1,10.2c-0.8,3.5-3.2,5.8-6.8,6.2c-2.9,0.3-5.8,0.6-8.7,0.7
				c-4.5,0.2-9.1,0.3-14,0.4c-4.8-0.1-10-0.2-15.2-0.4c-2.7-0.1-5.5-0.4-8.2-0.7c-3.9-0.5-6.5-3.1-7.1-6.9c-0.8-4.7-1-9.4-1-14.1
				c0-3.8,0.2-7.6,0.7-11.3c0.2-1.3,0.3-2.6,0.8-3.8c1.1-3,3.3-4.9,6.5-5.3c2.8-0.4,5.7-0.6,8.6-0.7c4.8-0.2,9.7-0.3,14.5-0.3
				C225.8,134.2,225.9,134.2,226,134.2 M226,132.9l-0.3,0c-4.5,0-9.3,0.1-14.5,0.3c-2.8,0.1-5.7,0.4-8.7,0.7
				c-3.7,0.5-6.3,2.6-7.6,6.2c-0.5,1.4-0.7,2.8-0.8,4.1c-0.5,3.5-0.7,7.3-0.7,11.5c0,4.3,0.1,9.3,1,14.3c0.8,4.5,3.9,7.5,8.3,8
				c3.2,0.4,5.8,0.6,8.3,0.7c3.7,0.2,7.4,0.2,11,0.3c1.4,0,2.9,0.1,4.2,0.1c0,0,0,0,0,0c0,0,0,0,0,0c1.5,0,3-0.1,4.4-0.1
				c3.3-0.1,6.5-0.2,9.6-0.3c2.8-0.1,5.8-0.4,8.8-0.7c4.1-0.5,7-3.2,7.9-7.3c0.8-3.6,1-7.2,1.1-10.4c0.2-3.5,0.1-7.1-0.1-11.1
				c-0.1-2.1-0.3-4.9-0.9-7.8c-0.7-3.3-2.5-5.6-5.4-6.9c-1.5-0.7-3-0.9-4.3-1l-1-0.1c-2.4-0.2-4.8-0.4-7.2-0.5
				C235.1,133,230.6,132.9,226,132.9L226,132.9z"/>
		</g>
		<g>
			<g>
				<path class="st0" d="M214.2,166.1c-0.1,0-0.2,0-0.3-0.1c-0.2-0.1-0.3-0.3-0.3-0.6v-18.7c0-0.2,0.1-0.5,0.3-0.6
					c0.1-0.1,0.2-0.1,0.3-0.1s0.2,0,0.3,0.1l16.2,9.4c0.2,0.1,0.3,0.3,0.3,0.6c0,0.2-0.1,0.5-0.3,0.6l-16.2,9.3
					C214.5,166.1,214.4,166.1,214.2,166.1z"/>
				<path d="M214.2,146.7c5.4,3.1,10.8,6.2,16.2,9.4c-5.4,3.1-10.8,6.2-16.2,9.3C214.2,159.1,214.2,153,214.2,146.7 M214.2,145.3
					c-0.2,0-0.5,0.1-0.7,0.2c-0.4,0.2-0.7,0.7-0.7,1.2v18.7c0,0.5,0.3,0.9,0.7,1.2c0.2,0.1,0.4,0.2,0.7,0.2c0.2,0,0.5-0.1,0.7-0.2
					l4.2-2.4l12.1-6.9c0.4-0.2,0.7-0.7,0.7-1.2c0-0.5-0.3-0.9-0.7-1.2l-15.2-8.8l-1-0.6C214.7,145.4,214.5,145.3,214.2,145.3
					L214.2,145.3z"/>
			</g>
			<g>
				<path class="st0" d="M234.9,166c-0.4,0-0.7-0.3-0.7-0.7v-18.6c0-0.4,0.3-0.7,0.7-0.7h2.6c0.4,0,0.7,0.3,0.7,0.7v18.6
					c0,0.4-0.3,0.7-0.7,0.7H234.9z"/>
				<path d="M237.5,146.7v18.6h-2.6v-18.6H237.5 M237.5,145.4h-2.6c-0.8,0-1.4,0.6-1.4,1.4v18.6c0,0.8,0.6,1.4,1.4,1.4h2.6
					c0.8,0,1.4-0.6,1.4-1.4v-18.6C238.9,146,238.3,145.4,237.5,145.4L237.5,145.4z"/>
			</g>
		</g>
	</g>
	<path class="st6" d="M65.1,212.2l-1.8-1.9c-1.6-1.7-1.6-4.4,0.1-6l39.5-38.1c1.7-1.6,4.4-1.6,6,0.1l1.8,1.9c1.6,1.7,1.6,4.4-0.1,6
		l-39.5,38.1C69.5,214,66.8,213.9,65.1,212.2z"/>
	<path class="st7" d="M138.3,94.9c-24.6,0-44.5,19.9-44.5,44.5s19.9,44.5,44.5,44.5s44.5-19.9,44.5-44.5S162.9,94.9,138.3,94.9z
		 M138.3,175.8c-20.1,0-36.4-16.3-36.4-36.4s16.3-36.4,36.4-36.4c20.1,0,36.4,16.3,36.4,36.4S158.5,175.8,138.3,175.8z"/>
</g>
</svg>
