<?xml version="1.0" encoding="UTF-8" standalone="no"?>
<svg
   xmlns:dc="http://purl.org/dc/elements/1.1/"
   xmlns:cc="http://creativecommons.org/ns#"
   xmlns:rdf="http://www.w3.org/1999/02/22-rdf-syntax-ns#"
   xmlns:svg="http://www.w3.org/2000/svg"
   xmlns="http://www.w3.org/2000/svg"
   xmlns:sodipodi="http://sodipodi.sourceforge.net/DTD/sodipodi-0.dtd"
   xmlns:inkscape="http://www.inkscape.org/namespaces/inkscape"
   id="svg911"
   version="1.1"
   viewBox="0 0 184.23301 98.639164"
   height="98.63916mm"
   width="184.233mm"
   sodipodi:docname="wetest-know.svg"
   inkscape:version="0.92.4 (f8dce91, 2019-08-02)">
  <sodipodi:namedview
     pagecolor="#ffffff"
     bordercolor="#666666"
     borderopacity="1"
     objecttolerance="10"
     gridtolerance="10"
     guidetolerance="10"
     inkscape:pageopacity="0"
     inkscape:pageshadow="2"
     inkscape:window-width="1920"
     inkscape:window-height="1025"
     id="namedview24491"
     showgrid="false"
     showguides="true"
     inkscape:guide-bbox="true"
     inkscape:zoom="1"
     inkscape:cx="330.067"
     inkscape:cy="156.73351"
     inkscape:window-x="0"
     inkscape:window-y="27"
     inkscape:window-maximized="1"
     inkscape:current-layer="svg911">
    <sodipodi:guide
       position="228.40254,-19.580119"
       orientation="0,1"
       id="guide26304"
       inkscape:locked="false" />
  </sodipodi:namedview>
  <defs
     id="defs905">
    <style
       id="style4665">.cls-1{fill:#3b5998;}.cls-2{fill:#1b1b1b;}</style>
    <style
       id="style4665-3">.cls-1{fill:#3b5998;}.cls-2{fill:#1b1b1b;}</style>
  </defs>
  <metadata
     id="metadata908">
    <rdf:RDF>
      <cc:Work
         rdf:about="">
        <dc:format>image/svg+xml</dc:format>
        <dc:type
           rdf:resource="http://purl.org/dc/dcmitype/StillImage" />
        <dc:title />
      </cc:Work>
    </rdf:RDF>
  </metadata>
  <g
     aria-label="youtube.tracking.exposed"
     transform="matrix(0.3862052,0,0,0.3862052,-4.7407676,-7.0644387)"
     style="font-style:normal;font-weight:normal;font-size:40px;line-height:1.25;font-family:sans-serif;letter-spacing:0px;word-spacing:0px;fill:#000000;fill-opacity:1;stroke:none"
     id="flowRoot815-3">
    <path
       d="m 63.88863,216.58636 h -2.169568 l -4.013701,11.36312 -4.0137,-11.36312 h -2.169568 l 5.125604,14.21067 -0.732229,2.00686 c -0.162718,0.48815 -0.352555,0.81358 -1.220382,0.81358 h -1.030545 v 1.95261 h 0.786468 c 1.762774,-0.0271 2.71196,-0.35255 3.091635,-1.43733 z"
       style="font-style:normal;font-variant:normal;font-weight:normal;font-stretch:normal;font-size:27.1196003px;line-height:0;font-family:'Simplon Norm';-inkscape-font-specification:'Simplon Norm';letter-spacing:4.27492952px"
       id="path877"
       inkscape:connector-curvature="0" />
    <path
       d="m 78.870294,225.40023 c 0,2.33229 -1.627176,3.49843 -3.444189,3.49843 -1.817014,0 -3.44419,-1.16614 -3.44419,-3.49843 v -3.7425 c 0,-2.33229 1.627176,-3.49843 3.44419,-3.49843 1.817013,0 3.444189,1.16614 3.444189,3.49843 z m 2.03397,-3.71538 c 0,-4.12218 -2.874678,-5.47816 -5.478159,-5.47816 -2.603482,0 -5.47816,1.35598 -5.47816,5.47816 v 3.68826 c 0,4.12218 2.874678,5.47816 5.47816,5.47816 2.603481,0 5.478159,-1.35598 5.478159,-5.47816 z"
       style="font-style:normal;font-variant:normal;font-weight:normal;font-stretch:normal;font-size:27.1196003px;line-height:0;font-family:'Simplon Norm';-inkscape-font-specification:'Simplon Norm';letter-spacing:4.27492952px"
       id="path879"
       inkscape:connector-curvature="0" />
    <path
       d="m 94.057896,230.85127 c 1.193263,0 2.657721,-0.59663 3.362831,-1.70853 v 1.43734 h 2.03397 v -13.99372 h -2.03397 v 8.81387 c 0,2.30517 -1.654296,3.49843 -3.362831,3.49843 -1.654295,0 -3.36283,-1.08478 -3.36283,-3.57978 v -8.73252 h -2.03397 v 8.86811 c 0,4.1493 3.091634,5.3968 5.3968,5.3968 z"
       style="font-style:normal;font-variant:normal;font-weight:normal;font-stretch:normal;font-size:27.1196003px;line-height:0;font-family:'Simplon Norm';-inkscape-font-specification:'Simplon Norm';letter-spacing:4.27492952px"
       id="path881"
       inkscape:connector-curvature="0" />
    <path
       d="m 110.48283,218.53898 h 3.44419 v -1.95262 h -3.44419 v -3.17299 h -2.03397 v 3.17299 h -1.97973 v 1.95262 h 1.97973 v 8.70539 c 0,2.38652 0.73223,3.33571 3.33571,3.33571 h 2.14245 v -1.95261 h -2.14245 c -0.97631,0 -1.30174,-0.32544 -1.30174,-1.22039 z"
       style="font-style:normal;font-variant:normal;font-weight:normal;font-stretch:normal;font-size:27.1196003px;line-height:0;font-family:'Simplon Norm';-inkscape-font-specification:'Simplon Norm';letter-spacing:4.27492952px"
       id="path883"
       inkscape:connector-curvature="0" />
    <path
       d="m 126.54928,230.85127 c 1.19326,0 2.65772,-0.59663 3.36283,-1.70853 v 1.43734 h 2.03397 v -13.99372 h -2.03397 v 8.81387 c 0,2.30517 -1.6543,3.49843 -3.36283,3.49843 -1.6543,0 -3.36284,-1.08478 -3.36284,-3.57978 v -8.73252 h -2.03397 v 8.86811 c 0,4.1493 3.09164,5.3968 5.39681,5.3968 z"
       style="font-style:normal;font-variant:normal;font-weight:normal;font-stretch:normal;font-size:27.1196003px;line-height:0;font-family:'Simplon Norm';-inkscape-font-specification:'Simplon Norm';letter-spacing:4.27492952px"
       id="path885"
       inkscape:connector-curvature="0" />
    <path
       d="m 145.76753,230.85127 c 2.60348,0 5.47816,-1.35598 5.47816,-5.47816 v -3.68826 c 0,-4.12218 -2.87468,-5.47816 -5.47816,-5.47816 -1.27462,0 -2.73908,0.56951 -3.44419,1.70853 v -6.31886 h -2.03397 v 18.98372 h 2.03397 v -1.43734 c 0.70511,1.13902 2.16957,1.70853 3.44419,1.70853 z m 3.44419,-5.45104 c 0,2.33229 -1.62718,3.49843 -3.44419,3.49843 -1.81701,0 -3.44419,-1.16614 -3.44419,-3.49843 v -3.7425 c 0,-2.33229 1.62718,-3.49843 3.44419,-3.49843 1.81701,0 3.44419,1.16614 3.44419,3.49843 z"
       style="font-style:normal;font-variant:normal;font-weight:normal;font-stretch:normal;font-size:27.1196003px;line-height:0;font-family:'Simplon Norm';-inkscape-font-specification:'Simplon Norm';letter-spacing:4.27492952px"
       id="path887"
       inkscape:connector-curvature="0" />
    <path
       d="m 164.28195,228.89866 c -1.81702,0 -3.44419,-1.16614 -3.44419,-3.49843 v -1.35598 h 8.92234 v -2.3594 c 0,-4.12218 -2.87467,-5.47816 -5.47815,-5.47816 -2.60349,0 -5.47816,1.35598 -5.47816,5.47816 v 3.68826 c 0,4.12218 2.87467,5.47816 5.47816,5.47816 2.44076,0 5.09848,-1.16614 5.45103,-4.66457 h -2.0882 c -0.32544,1.81702 -1.76278,2.71196 -3.36283,2.71196 z m 3.44418,-6.72566 h -6.88837 v -0.51527 c 0,-2.33229 1.62717,-3.49843 3.44419,-3.49843 1.81701,0 3.44418,1.16614 3.44418,3.49843 z"
       style="font-style:normal;font-variant:normal;font-weight:normal;font-stretch:normal;font-size:27.1196003px;line-height:0;font-family:'Simplon Norm';-inkscape-font-specification:'Simplon Norm';letter-spacing:4.27492952px"
       id="path889"
       inkscape:connector-curvature="0" />
    <path
       d="m 177.44829,230.58008 h 2.84756 v -2.84756 h -2.84756 z"
       style="font-style:normal;font-variant:normal;font-weight:normal;font-stretch:normal;font-size:27.1196003px;line-height:0;font-family:'Simplon Norm';-inkscape-font-specification:'Simplon Norm';letter-spacing:4.27492952px"
       id="path891"
       inkscape:connector-curvature="0" />
    <path
       d="m 190.65193,218.53898 h 3.44419 v -1.95262 h -3.44419 v -3.17299 h -2.03397 v 3.17299 h -1.97973 v 1.95262 h 1.97973 v 8.70539 c 0,2.38652 0.73223,3.33571 3.33571,3.33571 h 2.14245 v -1.95261 h -2.14245 c -0.9763,0 -1.30174,-0.32544 -1.30174,-1.22039 z"
       style="font-style:normal;font-variant:normal;font-weight:normal;font-stretch:normal;font-size:27.1196003px;line-height:0;font-family:'Simplon Norm';-inkscape-font-specification:'Simplon Norm';letter-spacing:4.27492952px"
       id="path893"
       inkscape:connector-curvature="0" />
    <path
       d="m 203.54537,216.58636 h -2.03397 v 13.99372 h 2.03397 v -8.78675 c 0,-2.33229 1.62718,-3.49843 3.44419,-3.49843 h 0.89495 v -1.95261 h -0.89495 c -1.27462,0 -2.73908,0.56951 -3.44419,1.70853 z"
       style="font-style:normal;font-variant:normal;font-weight:normal;font-stretch:normal;font-size:27.1196003px;line-height:0;font-family:'Simplon Norm';-inkscape-font-specification:'Simplon Norm';letter-spacing:4.27492952px"
       id="path895"
       inkscape:connector-curvature="0" />
    <path
       d="m 219.35588,218.1593 c 1.81701,0 3.44419,1.16614 3.44419,3.49843 v 0.24408 c -2.35941,0.16271 -4.36626,0.32543 -5.96632,0.78646 -2.44076,0.70511 -3.03739,2.60349 -3.03739,4.01371 0,2.87467 2.25092,4.14929 4.63745,4.14929 1.89837,0 3.47131,-0.54239 4.36626,-1.70853 v 1.43734 h 2.03397 v -8.89523 c 0,-4.12218 -2.87468,-5.47816 -5.47816,-5.47816 -2.44077,0 -5.09849,1.16614 -5.45104,4.66457 h 2.08821 c 0.32543,-1.81701 1.76277,-2.71196 3.36283,-2.71196 z m 3.44419,7.37653 c 0,2.19669 -1.73566,3.36283 -3.93235,3.36283 -2.06109,0 -3.03739,-0.9763 -3.03739,-2.25092 0,-0.81359 0.18984,-1.43734 1.22038,-2.00685 0.94919,-0.51528 2.68484,-0.70511 5.74936,-0.92207 z"
       style="font-style:normal;font-variant:normal;font-weight:normal;font-stretch:normal;font-size:27.1196003px;line-height:0;font-family:'Simplon Norm';-inkscape-font-specification:'Simplon Norm';letter-spacing:4.27492952px"
       id="path897"
       inkscape:connector-curvature="0" />
    <path
       d="m 238.09489,216.20669 c -2.60348,0 -5.47816,1.35598 -5.47816,5.47816 v 3.68826 c 0,4.1493 2.87468,5.47816 5.47816,5.47816 2.46788,0 5.15272,-1.19326 5.45104,-4.80017 h -2.06109 c -0.2712,1.89838 -1.76278,2.84756 -3.38995,2.84756 -1.81702,0 -3.44419,-1.16614 -3.44419,-3.49843 v -3.7425 c 0,-2.33229 1.62717,-3.49843 3.44419,-3.49843 1.62717,0 3.11875,0.94919 3.38995,2.84756 h 2.06109 c -0.29832,-3.60691 -2.98316,-4.80017 -5.45104,-4.80017 z"
       style="font-style:normal;font-variant:normal;font-weight:normal;font-stretch:normal;font-size:27.1196003px;line-height:0;font-family:'Simplon Norm';-inkscape-font-specification:'Simplon Norm';letter-spacing:4.27492952px"
       id="path899"
       inkscape:connector-curvature="0" />
    <path
       d="m 253.28884,211.59636 h -2.03397 v 18.98372 h 2.03397 v -4.63745 l 2.19669,-2.38653 4.77305,7.02398 h 2.38652 l -5.77647,-8.51556 5.04424,-5.47816 h -2.52212 l -6.10191,6.61719 z"
       style="font-style:normal;font-variant:normal;font-weight:normal;font-stretch:normal;font-size:27.1196003px;line-height:0;font-family:'Simplon Norm';-inkscape-font-specification:'Simplon Norm';letter-spacing:4.27492952px"
       id="path901"
       inkscape:connector-curvature="0" />
    <path
       d="m 271.28248,211.59636 h -2.03397 v 2.6306 h 2.03397 z m 0,4.99 h -2.03397 v 13.99372 h 2.03397 z"
       style="font-style:normal;font-variant:normal;font-weight:normal;font-stretch:normal;font-size:27.1196003px;line-height:0;font-family:'Simplon Norm';-inkscape-font-specification:'Simplon Norm';letter-spacing:4.27492952px"
       id="path903"
       inkscape:connector-curvature="0" />
    <path
       d="m 285.09291,216.20669 c -1.27462,0 -2.73908,0.56951 -3.44419,1.70853 v -1.32886 h -2.03397 v 13.99372 h 2.03397 v -8.92235 c 0,-2.33229 1.62718,-3.49843 3.44419,-3.49843 1.81701,0 3.44419,1.16614 3.44419,3.49843 v 8.92235 h 2.03397 v -8.89523 c 0,-4.12218 -2.87468,-5.47816 -5.47816,-5.47816 z"
       style="font-style:normal;font-variant:normal;font-weight:normal;font-stretch:normal;font-size:27.1196003px;line-height:0;font-family:'Simplon Norm';-inkscape-font-specification:'Simplon Norm';letter-spacing:4.27492952px"
       id="path905"
       inkscape:connector-curvature="0" />
    <path
       d="m 303.79207,233.88867 c -1.62717,0 -3.11875,-0.94919 -3.38995,-2.84756 h -2.06109 c 0.29832,3.60691 2.98316,4.80017 5.45104,4.80017 2.60348,0 5.47816,-1.32886 5.47816,-5.47816 v -13.77676 h -2.03397 v 1.32886 c -0.70511,-1.13902 -2.16957,-1.70853 -3.44419,-1.70853 -2.60348,0 -5.47816,1.35598 -5.47816,5.47816 v 3.14587 c 0,4.12218 2.87468,5.47816 5.47816,5.47816 1.27462,0 2.73908,-0.56951 3.44419,-1.70853 v 1.78989 c 0,2.33229 -1.62717,3.49843 -3.44419,3.49843 z m -3.44419,-12.23094 c 0,-2.33229 1.62718,-3.49843 3.44419,-3.49843 1.81702,0 3.44419,1.16614 3.44419,3.49843 v 3.20011 c 0,2.33229 -1.62717,3.49843 -3.44419,3.49843 -1.81701,0 -3.44419,-1.16614 -3.44419,-3.49843 z"
       style="font-style:normal;font-variant:normal;font-weight:normal;font-stretch:normal;font-size:27.1196003px;line-height:0;font-family:'Simplon Norm';-inkscape-font-specification:'Simplon Norm';letter-spacing:4.27492952px"
       id="path907"
       inkscape:connector-curvature="0" />
    <path
       d="m 317.88601,230.58008 h 2.84756 v -2.84756 h -2.84756 z"
       style="font-style:normal;font-variant:normal;font-weight:normal;font-stretch:normal;font-size:27.1196003px;line-height:0;font-family:'Simplon Norm';-inkscape-font-specification:'Simplon Norm';letter-spacing:4.27492952px"
       id="path909"
       inkscape:connector-curvature="0" />
    <path
       d="m 333.76811,228.89866 c -1.81702,0 -3.44419,-1.16614 -3.44419,-3.49843 v -1.35598 h 8.92234 v -2.3594 c 0,-4.12218 -2.87467,-5.47816 -5.47815,-5.47816 -2.60349,0 -5.47816,1.35598 -5.47816,5.47816 v 3.68826 c 0,4.12218 2.87467,5.47816 5.47816,5.47816 2.44076,0 5.09848,-1.16614 5.45104,-4.66457 h -2.08821 c -0.32544,1.81702 -1.76278,2.71196 -3.36283,2.71196 z m 3.44418,-6.72566 h -6.88837 v -0.51527 c 0,-2.33229 1.62717,-3.49843 3.44419,-3.49843 1.81701,0 3.44418,1.16614 3.44418,3.49843 z"
       style="font-style:normal;font-variant:normal;font-weight:normal;font-stretch:normal;font-size:27.1196003px;line-height:0;font-family:'Simplon Norm';-inkscape-font-specification:'Simplon Norm';letter-spacing:4.27492952px"
       id="path911"
       inkscape:connector-curvature="0" />
    <path
       d="m 354.71905,230.58008 h 2.30517 l -4.74593,-7.1867 4.52897,-6.80702 h -2.3594 l -3.44419,5.17985 -3.44419,-5.17985 h -2.3594 l 4.52897,6.80702 -4.74593,7.1867 h 2.30516 l 3.71539,-5.668 z"
       style="font-style:normal;font-variant:normal;font-weight:normal;font-stretch:normal;font-size:27.1196003px;line-height:0;font-family:'Simplon Norm';-inkscape-font-specification:'Simplon Norm';letter-spacing:4.27492952px"
       id="path913"
       inkscape:connector-curvature="0" />
    <path
       d="m 369.2346,230.85127 c 2.60348,0 5.47816,-1.35598 5.47816,-5.47816 v -3.68826 c 0,-4.12218 -2.87468,-5.47816 -5.47816,-5.47816 -1.27462,0 -2.73908,0.56951 -3.44419,1.70853 v -1.32886 h -2.03397 v 18.98372 h 2.03397 v -6.42734 c 0.70511,1.13902 2.16957,1.70853 3.44419,1.70853 z m 3.44419,-5.45104 c 0,2.33229 -1.62717,3.49843 -3.44419,3.49843 -1.81701,0 -3.44419,-1.16614 -3.44419,-3.49843 v -3.7425 c 0,-2.33229 1.62718,-3.49843 3.44419,-3.49843 1.81702,0 3.44419,1.16614 3.44419,3.49843 z"
       style="font-style:normal;font-variant:normal;font-weight:normal;font-stretch:normal;font-size:27.1196003px;line-height:0;font-family:'Simplon Norm';-inkscape-font-specification:'Simplon Norm';letter-spacing:4.27492952px"
       id="path915"
       inkscape:connector-curvature="0" />
    <path
       d="m 391.19322,225.40023 c 0,2.33229 -1.62717,3.49843 -3.44419,3.49843 -1.81701,0 -3.44419,-1.16614 -3.44419,-3.49843 v -3.7425 c 0,-2.33229 1.62718,-3.49843 3.44419,-3.49843 1.81702,0 3.44419,1.16614 3.44419,3.49843 z m 2.03397,-3.71538 c 0,-4.12218 -2.87468,-5.47816 -5.47816,-5.47816 -2.60348,0 -5.47816,1.35598 -5.47816,5.47816 v 3.68826 c 0,4.12218 2.87468,5.47816 5.47816,5.47816 2.60348,0 5.47816,-1.35598 5.47816,-5.47816 z"
       style="font-style:normal;font-variant:normal;font-weight:normal;font-stretch:normal;font-size:27.1196003px;line-height:0;font-family:'Simplon Norm';-inkscape-font-specification:'Simplon Norm';letter-spacing:4.27492952px"
       id="path917"
       inkscape:connector-curvature="0" />
    <path
       d="m 410.3945,220.68142 c -0.21696,-3.11875 -2.30517,-4.47473 -5.12561,-4.47473 -2.57636,0 -4.71881,1.49158 -4.71881,4.06794 0,2.495 1.92549,3.52555 3.44419,3.8781 l 2.73908,0.67799 c 1.54582,0.37968 1.95261,1.16615 1.95261,2.06109 -0.0271,1.22038 -0.92207,2.00685 -2.87468,2.00685 -1.87125,0 -3.33571,-0.81359 -3.52554,-2.79332 h -2.08821 c 0.21695,3.38995 2.68484,4.74593 5.61375,4.74593 2.84756,0 4.93577,-1.13902 4.93577,-3.90522 0,-2.57636 -1.46446,-3.63402 -3.57979,-4.1493 l -2.6306,-0.65087 c -1.13902,-0.27119 -1.92549,-0.78647 -1.92549,-1.95261 0,-1.27462 1.1119,-2.03397 2.6306,-2.03397 1.73566,0 2.82044,0.89495 3.06452,2.52212 z"
       style="font-style:normal;font-variant:normal;font-weight:normal;font-stretch:normal;font-size:27.1196003px;line-height:0;font-family:'Simplon Norm';-inkscape-font-specification:'Simplon Norm';letter-spacing:4.27492952px"
       id="path919"
       inkscape:connector-curvature="0" />
    <path
       d="m 423.31254,228.89866 c -1.81701,0 -3.44419,-1.16614 -3.44419,-3.49843 v -1.35598 h 8.92235 v -2.3594 c 0,-4.12218 -2.87468,-5.47816 -5.47816,-5.47816 -2.60348,0 -5.47816,1.35598 -5.47816,5.47816 v 3.68826 c 0,4.12218 2.87468,5.47816 5.47816,5.47816 2.44076,0 5.09848,-1.16614 5.45104,-4.66457 h -2.08821 c -0.32544,1.81702 -1.76277,2.71196 -3.36283,2.71196 z m 3.44419,-6.72566 h -6.88838 v -0.51527 c 0,-2.33229 1.62718,-3.49843 3.44419,-3.49843 1.81701,0 3.44419,1.16614 3.44419,3.49843 z"
       style="font-style:normal;font-variant:normal;font-weight:normal;font-stretch:normal;font-size:27.1196003px;line-height:0;font-family:'Simplon Norm';-inkscape-font-specification:'Simplon Norm';letter-spacing:4.27492952px"
       id="path921"
       inkscape:connector-curvature="0" />
    <path
       d="m 441.72993,230.85127 c 1.27462,0 2.73908,-0.56951 3.44419,-1.70853 v 1.43734 h 2.03397 v -18.98372 h -2.03397 v 6.31886 c -0.70511,-1.13902 -2.16957,-1.70853 -3.44419,-1.70853 -2.60348,0 -5.47816,1.35598 -5.47816,5.47816 v 3.68826 c 0,4.12218 2.87468,5.47816 5.47816,5.47816 z m -3.44419,-9.19354 c 0,-2.33229 1.62717,-3.49843 3.44419,-3.49843 1.81701,0 3.44419,1.16614 3.44419,3.49843 v 3.7425 c 0,2.33229 -1.62718,3.49843 -3.44419,3.49843 -1.81702,0 -3.44419,-1.16614 -3.44419,-3.49843 z"
       style="font-style:normal;font-variant:normal;font-weight:normal;font-stretch:normal;font-size:27.1196003px;line-height:0;font-family:'Simplon Norm';-inkscape-font-specification:'Simplon Norm';letter-spacing:4.27492952px"
       id="path923"
       inkscape:connector-curvature="0" />
  </g>
  <g
     transform="matrix(0.26458333,0,0,0.26458333,-14.989779,-93.559559)"
     style="font-style:normal;font-weight:normal;font-size:40px;line-height:1.25;font-family:sans-serif;letter-spacing:0px;word-spacing:0px;fill:#000000;fill-opacity:1;stroke:none"
     id="flowRoot3250" />
  <g
     transform="matrix(0.26458333,0,0,0.26458333,-14.989779,-93.559559)"
     style="font-style:normal;font-weight:normal;font-size:40px;line-height:1.25;font-family:sans-serif;letter-spacing:0px;word-spacing:0px;fill:#000000;fill-opacity:1;stroke:none"
     id="flowRoot3258" />
  <g
     transform="matrix(0.39257787,0,0,0.39257787,19.542539,16.293656)"
     style="font-style:normal;font-weight:normal;font-size:40px;line-height:1.25;font-family:sans-serif;letter-spacing:0px;word-spacing:0px;fill:#000000;fill-opacity:1;stroke:none"
     id="flowRoot3340" />
  <g
     aria-label="WeTest"
     transform="matrix(0.84946355,0,0,0.84946355,-0.70895158,-243.13101)"
     style="font-style:normal;font-weight:normal;font-size:40px;line-height:1.25;font-family:sans-serif;letter-spacing:0px;word-spacing:0px;fill:#d9230f;fill-opacity:1;stroke:none"
     id="flowRoot880">
    <path
       d="m 92.686875,356.41187 h 5.8 l 5.159995,-28 h -5.399995 l -3.24,18.96 -3.32,-14.96 h -5.2 l -3.32,14.96 -3.24,-18.96 h -5.4 l 5.16,28 h 5.8 l 3.6,-16.24 z"
       style="font-style:normal;font-variant:normal;font-weight:bold;font-stretch:normal;font-family:'Simplon Norm';-inkscape-font-specification:'Simplon Norm Bold';fill:#d9230f;fill-opacity:1"
       id="path1042"
       inkscape:connector-curvature="0" />
    <path
       d="m 123.42562,347.89188 v -3.20001 c 0,-5.72 -3.28,-9.47999 -9.19999,-9.47999 -5.92,0 -9.2,3.75999 -9.2,9.47999 v 2.64001 c 0,5.71999 3.28,9.47999 9.2,9.47999 5.04,0 8.16,-2.71999 9,-7.03999 h -5.36001 c -0.52,1.39999 -1.8,2.27999 -3.63999,2.27999 -2.52001,0 -3.92001,-1.59999 -3.92001,-4.03999 v -0.12 z m -9.19999,-7.92001 c 2.35999,0 3.72,1.36001 3.88,3.52 v 0.04 h -7.80001 v -0.04 c 0.2,-2.12 1.56,-3.52 3.92001,-3.52 z"
       style="font-style:normal;font-variant:normal;font-weight:bold;font-stretch:normal;font-family:'Simplon Norm';-inkscape-font-specification:'Simplon Norm Bold';fill:#d9230f;fill-opacity:1"
       id="path1044"
       inkscape:connector-curvature="0" />
    <path
       d="m 146.22062,333.73187 v -5.32 h -21.12 v 5.32 h 7.8 v 22.68 h 5.52 v -22.68 z"
       style="fill:#000000;fill-opacity:1"
       id="path1046"
       inkscape:connector-curvature="0" />
    <path
       d="m 164.36312,347.89188 v -3.20001 c 0,-5.72 -3.28,-9.47999 -9.2,-9.47999 -5.92,0 -9.2,3.75999 -9.2,9.47999 v 2.64001 c 0,5.71999 3.28,9.47999 9.2,9.47999 5.04,0 8.16,-2.71999 9,-7.03999 h -5.36 c -0.52,1.39999 -1.8,2.27999 -3.64,2.27999 -2.52,0 -3.92,-1.59999 -3.92,-4.03999 v -0.12 z m -9.2,-7.92001 c 2.36,0 3.72,1.36001 3.88,3.52 v 0.04 h -7.8 v -0.04 c 0.2,-2.12 1.56,-3.52 3.92,-3.52 z"
       style="fill:#000000;fill-opacity:1"
       id="path1048"
       inkscape:connector-curvature="0" />
    <path
       d="m 175.99812,356.81187 c 4.32,0 8.04,-1.76 8.04,-6.35999 0,-4.28001 -2.76,-5.84001 -5,-6.36 l -4.64,-1.04001 c -0.88,-0.2 -1.6,-0.64 -1.6,-1.51999 0.04,-0.96 0.92,-1.56001 2.44,-1.56001 1.32,0 2.48,0.60001 2.76,1.92001 h 5.4 c -0.36,-4.68 -3.8,-6.68 -8,-6.68 -4.24,0 -7.88,2.32 -7.88,6.36 0,4.03999 2.84,5.79999 5.08,6.32 l 4.32,0.95999 c 1.24,0.28001 1.84,0.76 1.84,1.60001 0,1.35999 -1.56,1.59999 -2.6,1.59999 -1.71999,0 -3.6,-0.71999 -3.84,-2.32 h -5.28 c 0.2,4.88 4.68,7.08 8.96,7.08 z"
       style="fill:#000000;fill-opacity:1"
       id="path1050"
       inkscape:connector-curvature="0" />
    <path
       d="m 195.30062,351.65188 c -1.28,0 -1.52,-0.68001 -1.52,-1.64 v -9.48 h 5.08 v -4.76 h -5.08 v -4.68 h -5.27999 v 4.68 h -2.92001 v 4.76 h 2.92001 v 10.6 c 0,3.32 1.59999,5.27999 5.27999,5.27999 h 5.08 v -4.75999 z"
       style="fill:#000000;fill-opacity:1"
       id="path1052"
       inkscape:connector-curvature="0" />
  </g>
  <g
     aria-label="KNOWLEDGE IS FREEDOM"
     transform="matrix(0.25047056,0,0,0.25047056,5.7990607,-80.036153)"
     style="font-style:normal;font-weight:normal;font-size:40px;line-height:1.25;font-family:sans-serif;letter-spacing:0px;word-spacing:0px;fill:#d9230f;fill-opacity:1;stroke:none"
     id="flowRoot888">
    <path
       d="m 43.582969,395.8825 3.6,-4.2 7.96,12.12 h 6.56 l -10.84,-16.44 9.84,-11.56 h -6.84 l -10.28,12.08 v -12.08 h -5.44 v 28 h 5.44 z"
       style="font-style:normal;font-variant:normal;font-weight:bold;font-stretch:normal;font-family:'Simplon Norm';-inkscape-font-specification:'Simplon Norm Bold';letter-spacing:9.39999962px;fill:#d9230f;fill-opacity:1"
       id="path1005"
       inkscape:connector-curvature="0" />
    <path
       d="m 94.44422,375.8025 h -5.36 v 18.04 l -10.4,-18.04 h -5.36 v 28 h 5.36 v -18.04 l 10.4,18.04 h 5.36 z"
       style="font-style:normal;font-variant:normal;font-weight:bold;font-stretch:normal;font-family:'Simplon Norm';-inkscape-font-specification:'Simplon Norm Bold';letter-spacing:9.39999962px;fill:#d9230f;fill-opacity:1"
       id="path1007"
       inkscape:connector-curvature="0" />
    <path
       d="m 129.33235,393.8425 v -8.08 c 0,-6.2 -3.84,-10.36 -10.56,-10.36 -6.72,0 -10.56,4.16 -10.56,10.36 v 8.08 c 0,6.2 3.84,10.36 10.56,10.36 6.72,0 10.56,-4.16 10.56,-10.36 z m -5.36,0 c 0,3.24 -2.28,5.04 -5.2,5.04 -2.92,0 -5.2,-1.8 -5.2,-5.04 v -8.08 c 0,-3.24 2.28,-5.04 5.2,-5.04 2.92,0 5.2,1.8 5.2,5.04 z"
       style="font-style:normal;font-variant:normal;font-weight:bold;font-stretch:normal;font-family:'Simplon Norm';-inkscape-font-specification:'Simplon Norm Bold';letter-spacing:9.39999962px;fill:#d9230f;fill-opacity:1"
       id="path1009"
       inkscape:connector-curvature="0" />
    <path
       d="m 159.10172,403.8025 h 5.8 l 5.16,-28 h -5.4 l -3.24,18.96 -3.32,-14.96 h -5.2 l -3.32,14.96 -3.24,-18.96 h -5.4 l 5.16,28 h 5.8 l 3.6,-16.24 z"
       style="font-style:normal;font-variant:normal;font-weight:bold;font-stretch:normal;font-family:'Simplon Norm';-inkscape-font-specification:'Simplon Norm Bold';letter-spacing:9.39999962px;fill:#d9230f;fill-opacity:1"
       id="path1011"
       inkscape:connector-curvature="0" />
    <path
       d="m 187.89985,375.8025 h -5.36 v 28 h 17.04 v -5.32 h -11.68 z"
       style="font-style:normal;font-variant:normal;font-weight:bold;font-stretch:normal;font-family:'Simplon Norm';-inkscape-font-specification:'Simplon Norm Bold';letter-spacing:9.39999962px;fill:#d9230f;fill-opacity:1"
       id="path1013"
       inkscape:connector-curvature="0" />
    <path
       d="m 216.90922,381.1225 h 11.68 v -5.32 h -17.04 v 28 h 17.04 v -5.32 h -11.68 v -6.16 h 11.68 v -5.32 h -11.68 z"
       style="font-style:normal;font-variant:normal;font-weight:bold;font-stretch:normal;font-family:'Simplon Norm';-inkscape-font-specification:'Simplon Norm Bold';letter-spacing:9.39999962px;fill:#d9230f;fill-opacity:1"
       id="path1015"
       inkscape:connector-curvature="0" />
    <path
       d="m 253.07171,403.8025 c 6.72,0 10.56,-4.16 10.56,-10.36 v -7.28 c 0,-6.2 -3.84,-10.36 -10.56,-10.36 h -10.56 v 28 z m 5.2,-10.36 c 0,3.24 -2.28,5.04 -5.2,5.04 h -5.2 v -17.36 h 5.2 c 2.92,0 5.2,1.8 5.2,5.04 z"
       style="font-style:normal;font-variant:normal;font-weight:bold;font-stretch:normal;font-family:'Simplon Norm';-inkscape-font-specification:'Simplon Norm Bold';letter-spacing:9.39999962px;fill:#d9230f;fill-opacity:1"
       id="path1017"
       inkscape:connector-curvature="0" />
    <path
       d="m 287.10047,393.1225 h 5.2 v 0.72 c 0,3.24 -2.28,5.04 -5.2,5.04 -2.92,0 -5.2,-1.8 -5.2,-5.04 v -8.08 c 0,-3.24 2.28,-5.04 5.2,-5.04 2.56,0 4.64,1.4 5.12,3.92 h 5.4 c -0.44,-5.56 -4.2,-9.24 -10.52,-9.24 -6.72,0 -10.56,4.16 -10.56,10.36 v 8.08 c 0,6.2 3.84,10.36 10.56,10.36 6.72,0 10.56,-4.16 10.56,-10.36 v -6.04 h -10.56 z"
       style="font-style:normal;font-variant:normal;font-weight:bold;font-stretch:normal;font-family:'Simplon Norm';-inkscape-font-specification:'Simplon Norm Bold';letter-spacing:9.39999962px;fill:#d9230f;fill-opacity:1"
       id="path1019"
       inkscape:connector-curvature="0" />
    <path
       d="m 316.67173,381.1225 h 11.68 v -5.32 h -17.04 v 28 h 17.04 v -5.32 h -11.68 v -6.16 h 11.68 v -5.32 h -11.68 z"
       style="font-style:normal;font-variant:normal;font-weight:bold;font-stretch:normal;font-family:'Simplon Norm';-inkscape-font-specification:'Simplon Norm Bold';letter-spacing:9.39999962px;fill:#d9230f;fill-opacity:1"
       id="path1021"
       inkscape:connector-curvature="0" />
    <path
       d="m 365.47172,375.8025 h -5.36 v 28 h 5.36 z"
       style="font-style:normal;font-variant:normal;font-weight:bold;font-stretch:normal;font-family:'Simplon Norm';-inkscape-font-specification:'Simplon Norm Bold';letter-spacing:9.39999962px;fill:#d9230f;fill-opacity:1"
       id="path1023"
       inkscape:connector-curvature="0" />
    <path
       d="m 388.65859,404.2025 c 6.08,0 9.36,-3.08 9.36,-8.12 0,-4.72 -2.32,-7.36 -6.64,-8.52 l -4.56,-1.24 c -1.52,-0.4 -2.8,-1.12 -2.8,-2.76 0,-1.96 1.6,-2.84 3.84,-2.84 1.8,0 3.76,0.84 4.24,2.72 h 5.52 c -0.6,-4.76 -4.08,-8.04 -9.68,-8.04 -4.88,0 -9.28,2.56 -9.28,8.16 0,4.12 2.12,7.12 6.4,8.28 l 4.72,1.28 c 1.96,0.52 2.88,1.4 2.88,2.96 0,1.92 -1.64,2.8 -4,2.8 -2.68,0 -4.52,-1.56 -4.84,-3.92 h -5.52 c 0.28,5.56 4.24,9.24 10.36,9.24 z"
       style="font-style:normal;font-variant:normal;font-weight:bold;font-stretch:normal;font-family:'Simplon Norm';-inkscape-font-specification:'Simplon Norm Bold';letter-spacing:9.39999962px;fill:#d9230f;fill-opacity:1"
       id="path1025"
       inkscape:connector-curvature="0" />
    <path
       d="m 434.2967,381.1225 h 11.68 v -5.32 h -17.04 v 28 h 5.36 v -11.48 h 11.68 v -5.32 h -11.68 z"
       style="font-style:normal;font-variant:normal;font-weight:bold;font-stretch:normal;font-family:'Simplon Norm';-inkscape-font-specification:'Simplon Norm Bold';letter-spacing:9.39999962px;fill:#d9230f;fill-opacity:1"
       id="path1027"
       inkscape:connector-curvature="0" />
    <path
       d="m 468.1486,392.2825 6.76,11.52 h 6.16 l -6.96,-11.8 c 3.92,-0.92 6.04,-3.8 6.04,-7.96 0,-5.04 -3.16,-8.24 -8.84,-8.24 h -11.8 v 28 h 5.36 v -11.52 z m 6.64,-8.16 c 0,1.92 -1.32,2.96 -3.36,2.96 h -6.56 v -5.96 h 6.56 c 2.04,0 3.36,1.04 3.36,3 z"
       style="font-style:normal;font-variant:normal;font-weight:bold;font-stretch:normal;font-family:'Simplon Norm';-inkscape-font-specification:'Simplon Norm Bold';letter-spacing:9.39999962px;fill:#d9230f;fill-opacity:1"
       id="path1029"
       inkscape:connector-curvature="0" />
    <path
       d="m 498.95609,381.1225 h 11.68 v -5.32 h -17.04 v 28 h 17.04 v -5.32 h -11.68 v -6.16 h 11.68 v -5.32 h -11.68 z"
       style="font-style:normal;font-variant:normal;font-weight:bold;font-stretch:normal;font-family:'Simplon Norm';-inkscape-font-specification:'Simplon Norm Bold';letter-spacing:9.39999962px;fill:#d9230f;fill-opacity:1"
       id="path1031"
       inkscape:connector-curvature="0" />
    <path
       d="m 529.91859,381.1225 h 11.68 v -5.32 h -17.04 v 28 h 17.04 v -5.32 h -11.68 v -6.16 h 11.68 v -5.32 h -11.68 z"
       style="font-style:normal;font-variant:normal;font-weight:bold;font-stretch:normal;font-family:'Simplon Norm';-inkscape-font-specification:'Simplon Norm Bold';letter-spacing:9.39999962px;fill:#d9230f;fill-opacity:1"
       id="path1033"
       inkscape:connector-curvature="0" />
    <path
       d="m 566.08108,403.8025 c 6.72,0 10.56,-4.16 10.56,-10.36 v -7.28 c 0,-6.2 -3.84,-10.36 -10.56,-10.36 h -10.56 v 28 z m 5.2,-10.36 c 0,3.24 -2.28,5.04 -5.2,5.04 h -5.2 v -17.36 h 5.2 c 2.92,0 5.2,1.8 5.2,5.04 z"
       style="font-style:normal;font-variant:normal;font-weight:bold;font-stretch:normal;font-family:'Simplon Norm';-inkscape-font-specification:'Simplon Norm Bold';letter-spacing:9.39999962px;fill:#d9230f;fill-opacity:1"
       id="path1035"
       inkscape:connector-curvature="0" />
    <path
       d="m 610.66986,393.8425 v -8.08 c 0,-6.2 -3.84,-10.36 -10.56,-10.36 -6.72,0 -10.56,4.16 -10.56,10.36 v 8.08 c 0,6.2 3.84,10.36 10.56,10.36 6.72,0 10.56,-4.16 10.56,-10.36 z m -5.36,0 c 0,3.24 -2.28,5.04 -5.2,5.04 -2.92,0 -5.2,-1.8 -5.2,-5.04 v -8.08 c 0,-3.24 2.28,-5.04 5.2,-5.04 2.92,0 5.2,1.8 5.2,5.04 z"
       style="font-style:normal;font-variant:normal;font-weight:bold;font-stretch:normal;font-family:'Simplon Norm';-inkscape-font-specification:'Simplon Norm Bold';letter-spacing:9.39999962px;fill:#d9230f;fill-opacity:1"
       id="path1037"
       inkscape:connector-curvature="0" />
    <path
       d="m 638.79919,396.2825 4.84,-10.08 v 17.6 h 5.32 v -28 h -5.36 l -6.92,14.4 -6.92,-14.4 h -5.36 v 28 h 5.32 v -17.6 l 4.84,10.08 z"
       style="font-style:normal;font-variant:normal;font-weight:bold;font-stretch:normal;font-family:'Simplon Norm';-inkscape-font-specification:'Simplon Norm Bold';letter-spacing:9.39999962px;fill:#d9230f;fill-opacity:1"
       id="path1039"
       inkscape:connector-curvature="0" />
  </g>
  <g
     id="g999"
     transform="matrix(0.12460814,0,0,0.12460814,15.328507,32.757544)">
    <g
       transform="translate(-116.453,19.057377)"
       id="g19161"
       inkscape:label="default"
       style="display:inline">
      <g
         transform="translate(114.11969,-46.432348)"
         id="layer2-6"
         inkscape:label="default-black"
         style="display:inline">
        <path
           inkscape:connector-curvature="0"
           class="cls-1"
           d="M 303.09122,151.37497 A 150.38,150.38 0 0 0 163.27122,1.3749713 V 22.534971 c 66.36,5.39 118.71,61.11 118.71,128.839999 0,67.73 -52.35,123.45001 -118.71,128.84001 v 21.16 a 150.38,150.38 0 0 0 139.82,-150.00001 z"
           id="path19983-7"
           style="fill:#000000" />
        <path
           inkscape:connector-curvature="0"
           class="cls-1"
           d="m 23.451328,151.37497 c 0,-67.729999 52.349992,-123.449999 118.709892,-128.839999 V 1.3749713 a 150.37,150.37 0 0 0 0,300.0000087 v -21.16 C 75.80132,274.82498 23.451328,219.10497 23.451328,151.37497 Z"
           id="path19985-9"
           style="fill:#000000" />
        <path
           inkscape:connector-curvature="0"
           class="cls-1"
           d="m 101.27132,62.274971 a 102.9,102.9 0 0 0 -42.47,131.099999 l 18.42,-10.64 a 81.76,81.76 0 0 1 140.4299,-81.08 l 18.43,-10.629999 a 102.9,102.9 0 0 0 -134.8099,-28.75 z"
           id="path19987-2"
           style="fill:#000000" />
        <path
           inkscape:connector-curvature="0"
           class="cls-1"
           d="m 193.61122,222.20497 a 81.91,81.91 0 0 1 -105.8399,-21.15 l -18.43,10.63 a 102.9,102.9 0 0 0 177.2899,-102.31 l -18.42,10.6 a 81.9,81.9 0 0 1 -34.6,102.23 z"
           id="path19989-0"
           style="fill:#000000" />
        <path
           inkscape:connector-curvature="0"
           class="cls-1"
           d="m 180.41122,103.37497 a 55.41,55.41 0 0 0 -69.52,11.65 l 18.84,10.88 a 34.29,34.29 0 0 1 56.52,32.63 l 18.84,10.87 a 55.41,55.41 0 0 0 -24.68,-66.03 z"
           id="path19991-2"
           style="fill:#000000" />
        <path
           inkscape:connector-curvature="0"
           class="cls-1"
           d="m 135.57122,181.07497 a 34.35,34.35 0 0 1 -16.39,-36.88 l -18.8399,-10.82 a 55.4,55.4 0 0 0 94.1999,54.38 l -18.85,-10.88 a 34.33,34.33 0 0 1 -40.12,4.2 z"
           id="path19993-3"
           style="fill:#000000" />
      </g>
    </g>
    <g
       transform="translate(-116.453,19.057377)"
       style="display:none"
       inkscape:label="default-black"
       id="layer2">
      <path
         class="cls-1"
         inkscape:connector-curvature="0"
         style="fill:#000000"
         id="path19953"
         d="m 398.76122,59.554971 v 79.379999 h -19.32 V 59.554971 h -27.3 v -18.62 h 73.92 v 18.62 z" />
      <path
         class="cls-1"
         inkscape:connector-curvature="0"
         style="fill:#000000"
         id="path19955"
         d="m 435.52122,138.93497 h -18.48 V 66.694971 h 18.48 v 7.84 c 2.1,-4.9 8.26,-9.1 16.8,-9.1 h 5.6 v 18.06 h -8.68 c -7,0 -13.72,4.34 -13.72,13.999999 z" />
      <path
         style="fill:#000000"
         id="path19957"
         d="m 506.20122,91.894971 c -1.26,-6.58 -5.74,-10.5 -13.44,-10.5 -6.58,0 -10.92,3.08 -12.74,8 h -18.62 c 2.94,-15.12 13.44,-24.64 31.36,-24.64 20.72,0 32.2,13.16 32.2,33.179999 v 41 h -18.48 v -8.26 c -3.36,5.46 -9,9.66 -20.16,9.66 -16.8,0 -26.32,-8 -26.32,-21.42 0,-10.64 3.64,-16.66 13.72,-21.56 7,-3.219999 21.56,-4.619999 32.48,-5.319999 z m -27.72,24.919999 c 0,3.5 2.66,7.28 10.92,7.28 9.52,0 17.08,-5.32 17.08,-14.42 v -2.38 c -10.64,0.7 -20.58,1.54 -24.08,3.36 -3.22,1.54 -3.92,2.94 -3.92,6.16 z"
         class="cls-1"
         inkscape:connector-curvature="0" />
      <path
         style="fill:#000000"
         id="path19959"
         d="m 595.93122,112.61497 c -2.1,17.22 -12.88,27.72 -31.92,27.72 -20.72,0 -32.2,-13.16 -32.2,-33.18 v -9.24 c 0,-19.999999 11.48,-33.179999 32.2,-33.179999 19,0 29.82,10.5 31.92,27.72 h -18.48 c -1.11,-6.72 -5.6,-11.08 -13.44,-11.08 -9,0 -13.72,5.6 -13.72,14.14 v 13.999999 c 0,8.54 4.76,14.14 13.72,14.14 7.84,0 12.46,-4.2 13.44,-11.06 z"
         class="cls-1"
         inkscape:connector-curvature="0" />
      <path
         style="fill:#000000"
         id="path19961"
         d="m 620.94122,91.894971 23.1,-25.2 h 22.4 l -26.18,28.42 30,43.819999 h -21.7 l -20.72,-30.24 -6.86,7.56 v 22.68 h -18.52 V 40.934971 h 18.48 z"
         class="cls-1"
         inkscape:connector-curvature="0" />
      <path
         style="fill:#000000"
         id="path19963"
         d="m 692.13122,57.314971 h -18.48 v -16.38 h 18.48 z m 0,81.619999 h -18.48 V 66.694971 h 18.48 z"
         class="cls-1"
         inkscape:connector-curvature="0" />
      <path
         style="fill:#000000"
         id="path19965"
         d="m 766.40122,138.93497 h -18.48 v -42.14 c 0,-9.659999 -6.72,-13.999999 -13.72,-13.999999 -7,0 -13.72,4.34 -13.72,13.999999 v 42.14 h -18.48 V 66.694971 h 18.48 v 6.3 c 3.36,-4.9 10.36,-8.26 16.94,-8.26 14.7,0 29,10.08 29,31.359999 z"
         class="cls-1"
         inkscape:connector-curvature="0" />
      <path
         style="fill:#000000"
         id="path19967"
         d="m 791.84122,139.37497 c 1.54,6.3 5.88,10.08 13.3,10.08 9,0 13.72,-5.6 13.72,-14.14 v -8.4 c -3.36,4.9 -10.36,8.26 -16.94,8.26 -14.7,0 -29,-10.08 -29,-31.36 v -7.7 c 0,-21.279999 14.28,-31.359999 29,-31.359999 6.58,0 13.58,3.36 16.94,8.26 v -6.3 h 18.48 v 66.219999 c 0,20 -11.48,33.18 -32.2,33.18 -18.62,0 -29.54,-10.08 -31.78,-26.74 z m -0.42,-36.26 c 0,9.66 6.72,14 13.72,14 7,0 13.72,-4.34 13.72,-14 v -6.3 c 0,-9.659999 -6.72,-13.999999 -13.72,-13.999999 -7,0 -13.72,4.34 -13.72,13.999999 z"
         class="cls-1"
         inkscape:connector-curvature="0" />
      <path
         style="fill:#000000"
         id="path19969"
         d="m 383.86122,200.46497 h 40.88 v 18.62 h -40.88 v 21.56001 h 40.88 v 18.62 h -59.64 v -98.00001 h 59.64 v 18.62 h -40.88 z"
         class="cls-1"
         inkscape:connector-curvature="0" />
      <path
         style="fill:#000000"
         id="path19971"
         d="m 480.00122,187.02497 h 21 l -23.38,35.14 24.5,37.10001 h -21.14 l -14.28,-22.12 -14.28,22.12 h -21.14 l 24.5,-37.10001 -23.38,-35.14 h 21 l 13.3,20.44 z"
         class="cls-1"
         inkscape:connector-curvature="0" />
      <path
         style="fill:#000000"
         id="path19973"
         d="m 527.85122,285.02498 h -18.51 v -98.00001 h 18.48 v 6.35 c 3.36,-4.9 10.36,-8.26 16.94,-8.26 14.7,0 29,10.08 29,31.36 v 12.88001 c 0,21.28 -14.28,31.36 -29,31.36 -6.58,0 -13.58,-3.36 -16.94,-8.26 z m 27.49,-67.90001 c 0,-9.66 -6.72,-14 -13.72,-14 -7,0 -13.72,4.34 -13.72,14 v 11.48001 c 0,9.66 6.72,14 13.72,14 7,0 13.72,-4.34 13.72,-14 z"
         class="cls-1"
         inkscape:connector-curvature="0" />
      <path
         style="fill:#000000"
         id="path19975"
         d="m 583.05122,218.24497 c 0,-20 11.48,-33.18 32.2,-33.18 20.72,0 32.2,13.16 32.2,33.18 v 9.24001 c 0,20 -11.48,33.18 -32.2,33.18 -20.72,0 -32.2,-13.16 -32.2,-33.18 z m 45.92,-2.38 c 0,-8.54 -4.76,-14.14 -13.72,-14.14 -8.96,0 -13.72,5.6 -13.72,14.14 v 14.00001 c 0,8.54 4.76,14.14 13.72,14.14 8.96,0 13.72,-5.6 13.72,-14.14 z"
         class="cls-1"
         inkscape:connector-curvature="0" />
      <path
         style="fill:#000000"
         id="path19977"
         d="m 654.98122,235.88498 h 18.48 c 0.7,5.6 7.56,8.12 13.44,8.12 3.64,0 9.1,-0.84 9.1,-5.6 0,-2.8 -2.1,-4.62 -6.44,-5.6 l -15.12,-3.36 c -7.84,-1.82 -17.78,-8.00001 -17.78,-22.12001 0,-14.12 12.74,-22.26 27.58,-22.26 14.56,0 26.88,7 28,23.38 h -18.9 c -1,-4.62 -5,-6.72 -9.66,-6.72 -5.46,0 -8.4,2.1 -8.54,5.46 -0.14,3.36 2.38,4.62 5.6,5.32 l 16.24,3.64 c 7.84,1.82 17.5,7.28 17.5,22.26001 0,16.24 -13.16,22.26 -28.14,22.26 -14.98,0 -30.66,-7.56 -31.36,-24.78 z"
         class="cls-1"
         inkscape:connector-curvature="0" />
      <path
         style="fill:#000000"
         id="path19979"
         d="m 740.74122,229.44498 v 0.42 c 0,8.54 4.76,14.14 13.72,14.14 6.58,0 10.92,-3.08 12.74,-8 h 18.76 c -2.94,15.12 -13.58,24.64 -31.5,24.64 -20.72,0 -32.2,-13.16 -32.2,-33.18 v -9.24001 c 0,-20 11.48,-33.18 32.2,-33.18 20.72,0 32.2,13.16 32.2,33.18 v 11.20001 z m 0,-15.40001 v 0.14 h 27.3 v -0.14 c -0.56,-7.7 -5.18,-12.32 -13.58,-12.32 -8.4,0 -13.02,4.9 -13.72,12.32 z"
         class="cls-1"
         inkscape:connector-curvature="0" />
      <path
         style="fill:#000000"
         id="path19981"
         d="m 841.54122,252.37498 c -3.36,4.9 -10.36,8.26 -16.94,8.26 -14.7,0 -29,-10.08 -29,-31.36 v -12.85001 c 0,-21.28 14.28,-31.36 29,-31.36 6.58,0 13.58,3.36 16.94,8.26 v -32.06 h 18.48 v 98.00001 h -18.48 z m -27.44,-23.8 c 0,9.66 6.72,14 13.72,14 7,0 13.72,-4.34 13.72,-14 v -11.45001 c 0,-9.66 -6.72,-14 -13.72,-14 -7,0 -13.72,4.34 -13.72,14 z"
         class="cls-1"
         inkscape:connector-curvature="0" />
      <path
         style="fill:#000000"
         id="path19983"
         d="M 303.09122,151.37497 A 150.38,150.38 0 0 0 163.27122,1.3749713 V 22.534971 c 66.36,5.39 118.71,61.11 118.71,128.839999 0,67.73 -52.35,123.45001 -118.71,128.84001 v 21.16 a 150.38,150.38 0 0 0 139.82,-150.00001 z"
         class="cls-1"
         inkscape:connector-curvature="0" />
      <path
         style="fill:#000000"
         id="path19985"
         d="m 23.451328,151.37497 c 0,-67.729999 52.349992,-123.449999 118.709892,-128.839999 V 1.3749713 a 150.37,150.37 0 0 0 0,300.0000087 v -21.16 C 75.80132,274.82498 23.451328,219.10497 23.451328,151.37497 Z"
         class="cls-1"
         inkscape:connector-curvature="0" />
      <path
         style="fill:#000000"
         id="path19987"
         d="m 101.27132,62.274971 a 102.9,102.9 0 0 0 -42.47,131.099999 l 18.42,-10.64 a 81.76,81.76 0 0 1 140.4299,-81.08 l 18.43,-10.629999 a 102.9,102.9 0 0 0 -134.8099,-28.75 z"
         class="cls-1"
         inkscape:connector-curvature="0" />
      <path
         style="fill:#000000"
         id="path19989"
         d="m 193.61122,222.20497 a 81.91,81.91 0 0 1 -105.8399,-21.15 l -18.43,10.63 a 102.9,102.9 0 0 0 177.2899,-102.31 l -18.42,10.6 a 81.9,81.9 0 0 1 -34.6,102.23 z"
         class="cls-1"
         inkscape:connector-curvature="0" />
      <path
         style="fill:#000000"
         id="path19991"
         d="m 180.41122,103.37497 a 55.41,55.41 0 0 0 -69.52,11.65 l 18.84,10.88 a 34.29,34.29 0 0 1 56.52,32.63 l 18.84,10.87 a 55.41,55.41 0 0 0 -24.68,-66.03 z"
         class="cls-1"
         inkscape:connector-curvature="0" />
      <path
         style="fill:#000000"
         id="path19993"
         d="m 135.57122,181.07497 a 34.35,34.35 0 0 1 -16.39,-36.88 l -18.8399,-10.82 a 55.4,55.4 0 0 0 94.1999,54.38 l -18.85,-10.88 a 34.33,34.33 0 0 1 -40.12,4.2 z"
         class="cls-1"
         inkscape:connector-curvature="0" />
    </g>
  </g>
</svg>
