<?xml version="1.0" encoding="UTF-8" standalone="no"?>
<svg
   xmlns:dc="http://purl.org/dc/elements/1.1/"
   xmlns:cc="http://creativecommons.org/ns#"
   xmlns:rdf="http://www.w3.org/1999/02/22-rdf-syntax-ns#"
   xmlns:svg="http://www.w3.org/2000/svg"
   xmlns="http://www.w3.org/2000/svg"
   xmlns:sodipodi="http://sodipodi.sourceforge.net/DTD/sodipodi-0.dtd"
   xmlns:inkscape="http://www.inkscape.org/namespaces/inkscape"
   id="svg1134"
   version="1.1"
   viewBox="0 0 200.57213 92.529732"
   height="92.529732mm"
   width="200.57211mm"
   sodipodi:docname="wetest.svg"
   inkscape:version="0.92.4 (f8dce91, 2019-08-02)">
  <sodipodi:namedview
     pagecolor="#ffffff"
     bordercolor="#666666"
     borderopacity="1"
     objecttolerance="10"
     gridtolerance="10"
     guidetolerance="10"
     inkscape:pageopacity="0"
     inkscape:pageshadow="2"
     inkscape:window-width="1920"
     inkscape:window-height="1025"
     id="namedview922"
     showgrid="false"
     showguides="true"
     inkscape:guide-bbox="true"
     inkscape:zoom="0.48438937"
     inkscape:cx="-118.5078"
     inkscape:cy="-161.78785"
     inkscape:window-x="0"
     inkscape:window-y="27"
     inkscape:window-maximized="1"
     inkscape:current-layer="svg1134" />
  <defs
     id="defs1128">
    <style
       id="style4665">.cls-1{fill:#3b5998;}.cls-2{fill:#1b1b1b;}</style>
    <style
       id="style4665-3">.cls-1{fill:#3b5998;}.cls-2{fill:#1b1b1b;}</style>
  </defs>
  <metadata
     id="metadata1131">
    <rdf:RDF>
      <cc:Work
         rdf:about="">
        <dc:format>image/svg+xml</dc:format>
        <dc:type
           rdf:resource="http://purl.org/dc/dcmitype/StillImage" />
        <dc:title />
      </cc:Work>
    </rdf:RDF>
  </metadata>
  <g
     aria-label="youtube.tracking.exposed"
     transform="matrix(0.44305239,0,0,0.44305239,-2.3402607,-28.456169)"
     style="font-style:normal;font-weight:normal;font-size:40px;line-height:1.25;font-family:sans-serif;letter-spacing:0px;word-spacing:0px;fill:#000000;fill-opacity:1;stroke:none"
     id="flowRoot815">
    <path
       d="m 63.88863,216.58636 h -2.169568 l -4.013701,11.36312 -4.0137,-11.36312 h -2.169568 l 5.125604,14.21067 -0.732229,2.00686 c -0.162718,0.48815 -0.352555,0.81358 -1.220382,0.81358 h -1.030545 v 1.95261 h 0.786468 c 1.762774,-0.0271 2.71196,-0.35255 3.091635,-1.43733 z"
       style="font-style:normal;font-variant:normal;font-weight:normal;font-stretch:normal;font-size:27.1196003px;line-height:0;font-family:'Simplon Norm';-inkscape-font-specification:'Simplon Norm';letter-spacing:2.22555208px"
       id="path871" />
    <path
       d="m 76.820916,225.40023 c 0,2.33229 -1.627176,3.49843 -3.444189,3.49843 -1.817013,0 -3.444189,-1.16614 -3.444189,-3.49843 v -3.7425 c 0,-2.33229 1.627176,-3.49843 3.444189,-3.49843 1.817013,0 3.444189,1.16614 3.444189,3.49843 z m 2.03397,-3.71538 c 0,-4.12218 -2.874677,-5.47816 -5.478159,-5.47816 -2.603482,0 -5.478159,1.35598 -5.478159,5.47816 v 3.68826 c 0,4.12218 2.874677,5.47816 5.478159,5.47816 2.603482,0 5.478159,-1.35598 5.478159,-5.47816 z"
       style="font-style:normal;font-variant:normal;font-weight:normal;font-stretch:normal;font-size:27.1196003px;line-height:0;font-family:'Simplon Norm';-inkscape-font-specification:'Simplon Norm';letter-spacing:2.22555208px"
       id="path873" />
    <path
       d="m 89.959142,230.85127 c 1.193262,0 2.65772,-0.59663 3.36283,-1.70853 v 1.43734 h 2.03397 v -13.99372 h -2.03397 v 8.81387 c 0,2.30517 -1.654296,3.49843 -3.36283,3.49843 -1.654296,0 -3.362831,-1.08478 -3.362831,-3.57978 v -8.73252 h -2.03397 v 8.86811 c 0,4.1493 3.091635,5.3968 5.396801,5.3968 z"
       style="font-style:normal;font-variant:normal;font-weight:normal;font-stretch:normal;font-size:27.1196003px;line-height:0;font-family:'Simplon Norm';-inkscape-font-specification:'Simplon Norm';letter-spacing:2.22555208px"
       id="path875" />
    <path
       d="m 104.3347,218.53898 h 3.44419 v -1.95262 h -3.44419 v -3.17299 h -2.03397 v 3.17299 H 100.321 v 1.95262 h 1.97973 v 8.70539 c 0,2.38652 0.73223,3.33571 3.33571,3.33571 h 2.14245 v -1.95261 h -2.14245 c -0.97631,0 -1.30174,-0.32544 -1.30174,-1.22039 z"
       style="font-style:normal;font-variant:normal;font-weight:normal;font-stretch:normal;font-size:27.1196003px;line-height:0;font-family:'Simplon Norm';-inkscape-font-specification:'Simplon Norm';letter-spacing:2.22555208px"
       id="path877" />
    <path
       d="m 118.35177,230.85127 c 1.19326,0 2.65772,-0.59663 3.36283,-1.70853 v 1.43734 h 2.03397 v -13.99372 h -2.03397 v 8.81387 c 0,2.30517 -1.6543,3.49843 -3.36283,3.49843 -1.6543,0 -3.36283,-1.08478 -3.36283,-3.57978 v -8.73252 h -2.03397 v 8.86811 c 0,4.1493 3.09163,5.3968 5.3968,5.3968 z"
       style="font-style:normal;font-variant:normal;font-weight:normal;font-stretch:normal;font-size:27.1196003px;line-height:0;font-family:'Simplon Norm';-inkscape-font-specification:'Simplon Norm';letter-spacing:2.22555208px"
       id="path879" />
    <path
       d="m 135.52064,230.85127 c 2.60349,0 5.47816,-1.35598 5.47816,-5.47816 v -3.68826 c 0,-4.12218 -2.87467,-5.47816 -5.47816,-5.47816 -1.27462,0 -2.73908,0.56951 -3.44419,1.70853 v -6.31886 h -2.03397 v 18.98372 h 2.03397 v -1.43734 c 0.70511,1.13902 2.16957,1.70853 3.44419,1.70853 z m 3.44419,-5.45104 c 0,2.33229 -1.62717,3.49843 -3.44419,3.49843 -1.81701,0 -3.44419,-1.16614 -3.44419,-3.49843 v -3.7425 c 0,-2.33229 1.62718,-3.49843 3.44419,-3.49843 1.81702,0 3.44419,1.16614 3.44419,3.49843 z"
       style="font-style:normal;font-variant:normal;font-weight:normal;font-stretch:normal;font-size:27.1196003px;line-height:0;font-family:'Simplon Norm';-inkscape-font-specification:'Simplon Norm';letter-spacing:2.22555208px"
       id="path881" />
    <path
       d="m 151.98568,228.89866 c -1.81701,0 -3.44419,-1.16614 -3.44419,-3.49843 v -1.35598 h 8.92235 v -2.3594 c 0,-4.12218 -2.87468,-5.47816 -5.47816,-5.47816 -2.60348,0 -5.47816,1.35598 -5.47816,5.47816 v 3.68826 c 0,4.12218 2.87468,5.47816 5.47816,5.47816 2.44076,0 5.09849,-1.16614 5.45104,-4.66457 h -2.08821 c -0.32543,1.81702 -1.76277,2.71196 -3.36283,2.71196 z m 3.44419,-6.72566 h -6.88838 v -0.51527 c 0,-2.33229 1.62718,-3.49843 3.44419,-3.49843 1.81701,0 3.44419,1.16614 3.44419,3.49843 z"
       style="font-style:normal;font-variant:normal;font-weight:normal;font-stretch:normal;font-size:27.1196003px;line-height:0;font-family:'Simplon Norm';-inkscape-font-specification:'Simplon Norm';letter-spacing:2.22555208px"
       id="path883" />
    <path
       d="m 163.10265,230.58008 h 2.84756 v -2.84756 h -2.84756 z"
       style="font-style:normal;font-variant:normal;font-weight:normal;font-stretch:normal;font-size:27.1196003px;line-height:0;font-family:'Simplon Norm';-inkscape-font-specification:'Simplon Norm';letter-spacing:2.22555208px"
       id="path885" />
    <path
       d="m 174.2569,218.53898 h 3.44419 v -1.95262 h -3.44419 v -3.17299 h -2.03397 v 3.17299 h -1.97973 v 1.95262 h 1.97973 v 8.70539 c 0,2.38652 0.73223,3.33571 3.33571,3.33571 h 2.14245 v -1.95261 h -2.14245 c -0.9763,0 -1.30174,-0.32544 -1.30174,-1.22039 z"
       style="font-style:normal;font-variant:normal;font-weight:normal;font-stretch:normal;font-size:27.1196003px;line-height:0;font-family:'Simplon Norm';-inkscape-font-specification:'Simplon Norm';letter-spacing:2.22555208px"
       id="path887" />
    <path
       d="m 185.10098,216.58636 h -2.03397 v 13.99372 h 2.03397 v -8.78675 c 0,-2.33229 1.62717,-3.49843 3.44418,-3.49843 h 0.89495 v -1.95261 h -0.89495 c -1.27462,0 -2.73908,0.56951 -3.44418,1.70853 z"
       style="font-style:normal;font-variant:normal;font-weight:normal;font-stretch:normal;font-size:27.1196003px;line-height:0;font-family:'Simplon Norm';-inkscape-font-specification:'Simplon Norm';letter-spacing:2.22555208px"
       id="path889" />
    <path
       d="m 198.8621,218.1593 c 1.81701,0 3.44419,1.16614 3.44419,3.49843 v 0.24408 c -2.3594,0.16271 -4.36625,0.32543 -5.96631,0.78646 -2.44077,0.70511 -3.0374,2.60349 -3.0374,4.01371 0,2.87467 2.25093,4.14929 4.63746,4.14929 1.89837,0 3.4713,-0.54239 4.36625,-1.70853 v 1.43734 h 2.03397 v -8.89523 c 0,-4.12218 -2.87468,-5.47816 -5.47816,-5.47816 -2.44076,0 -5.09848,1.16614 -5.45104,4.66457 h 2.08821 c 0.32544,-1.81701 1.76278,-2.71196 3.36283,-2.71196 z m 3.44419,7.37653 c 0,2.19669 -1.73565,3.36283 -3.93234,3.36283 -2.06109,0 -3.0374,-0.9763 -3.0374,-2.25092 0,-0.81359 0.18984,-1.43734 1.22039,-2.00685 0.94918,-0.51528 2.68484,-0.70511 5.74935,-0.92207 z"
       style="font-style:normal;font-variant:normal;font-weight:normal;font-stretch:normal;font-size:27.1196003px;line-height:0;font-family:'Simplon Norm';-inkscape-font-specification:'Simplon Norm';letter-spacing:2.22555208px"
       id="path891" />
    <path
       d="m 215.55174,216.20669 c -2.60349,0 -5.47816,1.35598 -5.47816,5.47816 v 3.68826 c 0,4.1493 2.87467,5.47816 5.47816,5.47816 2.46788,0 5.15272,-1.19326 5.45104,-4.80017 h -2.06109 c -0.2712,1.89838 -1.76278,2.84756 -3.38995,2.84756 -1.81702,0 -3.44419,-1.16614 -3.44419,-3.49843 v -3.7425 c 0,-2.33229 1.62717,-3.49843 3.44419,-3.49843 1.62717,0 3.11875,0.94919 3.38995,2.84756 h 2.06109 c -0.29832,-3.60691 -2.98316,-4.80017 -5.45104,-4.80017 z"
       style="font-style:normal;font-variant:normal;font-weight:normal;font-stretch:normal;font-size:27.1196003px;line-height:0;font-family:'Simplon Norm';-inkscape-font-specification:'Simplon Norm';letter-spacing:2.22555208px"
       id="path893" />
    <path
       d="m 228.69631,211.59636 h -2.03397 v 18.98372 h 2.03397 v -4.63745 l 2.19669,-2.38653 4.77305,7.02398 h 2.38652 l -5.77647,-8.51556 5.04425,-5.47816 h -2.52213 l -6.10191,6.61719 z"
       style="font-style:normal;font-variant:normal;font-weight:normal;font-stretch:normal;font-size:27.1196003px;line-height:0;font-family:'Simplon Norm';-inkscape-font-specification:'Simplon Norm';letter-spacing:2.22555208px"
       id="path895" />
    <path
       d="m 244.64057,211.59636 h -2.03397 v 2.6306 h 2.03397 z m 0,4.99 h -2.03397 v 13.99372 h 2.03397 z"
       style="font-style:normal;font-variant:normal;font-weight:normal;font-stretch:normal;font-size:27.1196003px;line-height:0;font-family:'Simplon Norm';-inkscape-font-specification:'Simplon Norm';letter-spacing:2.22555208px"
       id="path897" />
    <path
       d="m 256.40163,216.20669 c -1.27463,0 -2.73908,0.56951 -3.44419,1.70853 v -1.32886 h -2.03397 v 13.99372 h 2.03397 v -8.92235 c 0,-2.33229 1.62717,-3.49843 3.44419,-3.49843 1.81701,0 3.44418,1.16614 3.44418,3.49843 v 8.92235 h 2.03397 v -8.89523 c 0,-4.12218 -2.87467,-5.47816 -5.47815,-5.47816 z"
       style="font-style:normal;font-variant:normal;font-weight:normal;font-stretch:normal;font-size:27.1196003px;line-height:0;font-family:'Simplon Norm';-inkscape-font-specification:'Simplon Norm';letter-spacing:2.22555208px"
       id="path899" />
    <path
       d="m 273.05141,233.88867 c -1.62718,0 -3.11875,-0.94919 -3.38995,-2.84756 h -2.06109 c 0.29832,3.60691 2.98316,4.80017 5.45104,4.80017 2.60348,0 5.47816,-1.32886 5.47816,-5.47816 v -13.77676 h -2.03397 v 1.32886 c -0.70511,-1.13902 -2.16957,-1.70853 -3.44419,-1.70853 -2.60348,0 -5.47816,1.35598 -5.47816,5.47816 v 3.14587 c 0,4.12218 2.87468,5.47816 5.47816,5.47816 1.27462,0 2.73908,-0.56951 3.44419,-1.70853 v 1.78989 c 0,2.33229 -1.62718,3.49843 -3.44419,3.49843 z m -3.44419,-12.23094 c 0,-2.33229 1.62718,-3.49843 3.44419,-3.49843 1.81701,0 3.44419,1.16614 3.44419,3.49843 v 3.20011 c 0,2.33229 -1.62718,3.49843 -3.44419,3.49843 -1.81701,0 -3.44419,-1.16614 -3.44419,-3.49843 z"
       style="font-style:normal;font-variant:normal;font-weight:normal;font-stretch:normal;font-size:27.1196003px;line-height:0;font-family:'Simplon Norm';-inkscape-font-specification:'Simplon Norm';letter-spacing:2.22555208px"
       id="path901" />
    <path
       d="m 285.09595,230.58008 h 2.84756 v -2.84756 h -2.84756 z"
       style="font-style:normal;font-variant:normal;font-weight:normal;font-stretch:normal;font-size:27.1196003px;line-height:0;font-family:'Simplon Norm';-inkscape-font-specification:'Simplon Norm';letter-spacing:2.22555208px"
       id="path903" />
    <path
       d="m 298.9287,228.89866 c -1.81701,0 -3.44418,-1.16614 -3.44418,-3.49843 v -1.35598 h 8.92234 v -2.3594 c 0,-4.12218 -2.87467,-5.47816 -5.47816,-5.47816 -2.60348,0 -5.47815,1.35598 -5.47815,5.47816 v 3.68826 c 0,4.12218 2.87467,5.47816 5.47815,5.47816 2.44077,0 5.09849,-1.16614 5.45104,-4.66457 h -2.08821 c -0.32543,1.81702 -1.76277,2.71196 -3.36283,2.71196 z m 3.44419,-6.72566 h -6.88837 v -0.51527 c 0,-2.33229 1.62717,-3.49843 3.44418,-3.49843 1.81702,0 3.44419,1.16614 3.44419,3.49843 z"
       style="font-style:normal;font-variant:normal;font-weight:normal;font-stretch:normal;font-size:27.1196003px;line-height:0;font-family:'Simplon Norm';-inkscape-font-specification:'Simplon Norm';letter-spacing:2.22555208px"
       id="path905" />
    <path
       d="m 317.83026,230.58008 h 2.30517 l -4.74593,-7.1867 4.52897,-6.80702 h -2.3594 l -3.44419,5.17985 -3.44419,-5.17985 h -2.35941 l 4.52897,6.80702 -4.74593,7.1867 h 2.30517 l 3.71539,-5.668 z"
       style="font-style:normal;font-variant:normal;font-weight:normal;font-stretch:normal;font-size:27.1196003px;line-height:0;font-family:'Simplon Norm';-inkscape-font-specification:'Simplon Norm';letter-spacing:2.22555208px"
       id="path907" />
    <path
       d="m 330.29643,230.85127 c 2.60348,0 5.47816,-1.35598 5.47816,-5.47816 v -3.68826 c 0,-4.12218 -2.87468,-5.47816 -5.47816,-5.47816 -1.27462,0 -2.73908,0.56951 -3.44419,1.70853 v -1.32886 h -2.03397 v 18.98372 h 2.03397 v -6.42734 c 0.70511,1.13902 2.16957,1.70853 3.44419,1.70853 z m 3.44419,-5.45104 c 0,2.33229 -1.62718,3.49843 -3.44419,3.49843 -1.81701,0 -3.44419,-1.16614 -3.44419,-3.49843 v -3.7425 c 0,-2.33229 1.62718,-3.49843 3.44419,-3.49843 1.81701,0 3.44419,1.16614 3.44419,3.49843 z"
       style="font-style:normal;font-variant:normal;font-weight:normal;font-stretch:normal;font-size:27.1196003px;line-height:0;font-family:'Simplon Norm';-inkscape-font-specification:'Simplon Norm';letter-spacing:2.22555208px"
       id="path909" />
    <path
       d="m 350.20567,225.40023 c 0,2.33229 -1.62717,3.49843 -3.44419,3.49843 -1.81701,0 -3.44419,-1.16614 -3.44419,-3.49843 v -3.7425 c 0,-2.33229 1.62718,-3.49843 3.44419,-3.49843 1.81702,0 3.44419,1.16614 3.44419,3.49843 z m 2.03397,-3.71538 c 0,-4.12218 -2.87468,-5.47816 -5.47816,-5.47816 -2.60348,0 -5.47816,1.35598 -5.47816,5.47816 v 3.68826 c 0,4.12218 2.87468,5.47816 5.47816,5.47816 2.60348,0 5.47816,-1.35598 5.47816,-5.47816 z"
       style="font-style:normal;font-variant:normal;font-weight:normal;font-stretch:normal;font-size:27.1196003px;line-height:0;font-family:'Simplon Norm';-inkscape-font-specification:'Simplon Norm';letter-spacing:2.22555208px"
       id="path911" />
    <path
       d="m 367.35757,220.68142 c -0.21696,-3.11875 -2.30517,-4.47473 -5.1256,-4.47473 -2.57637,0 -4.71881,1.49158 -4.71881,4.06794 0,2.495 1.92549,3.52555 3.44418,3.8781 l 2.73908,0.67799 c 1.54582,0.37968 1.95262,1.16615 1.95262,2.06109 -0.0271,1.22038 -0.92207,2.00685 -2.87468,2.00685 -1.87125,0 -3.33571,-0.81359 -3.52555,-2.79332 h -2.08821 c 0.21696,3.38995 2.68484,4.74593 5.61376,4.74593 2.84756,0 4.93576,-1.13902 4.93576,-3.90522 0,-2.57636 -1.46445,-3.63402 -3.57978,-4.1493 l -2.6306,-0.65087 c -1.13903,-0.27119 -1.9255,-0.78647 -1.9255,-1.95261 0,-1.27462 1.11191,-2.03397 2.63061,-2.03397 1.73565,0 2.82043,0.89495 3.06451,2.52212 z"
       style="font-style:normal;font-variant:normal;font-weight:normal;font-stretch:normal;font-size:27.1196003px;line-height:0;font-family:'Simplon Norm';-inkscape-font-specification:'Simplon Norm';letter-spacing:2.22555208px"
       id="path913" />
    <path
       d="m 378.22624,228.89866 c -1.81702,0 -3.44419,-1.16614 -3.44419,-3.49843 v -1.35598 h 8.92234 v -2.3594 c 0,-4.12218 -2.87467,-5.47816 -5.47815,-5.47816 -2.60349,0 -5.47816,1.35598 -5.47816,5.47816 v 3.68826 c 0,4.12218 2.87467,5.47816 5.47816,5.47816 2.44076,0 5.09848,-1.16614 5.45104,-4.66457 h -2.08821 c -0.32544,1.81702 -1.76278,2.71196 -3.36283,2.71196 z m 3.44418,-6.72566 h -6.88837 v -0.51527 c 0,-2.33229 1.62717,-3.49843 3.44419,-3.49843 1.81701,0 3.44418,1.16614 3.44418,3.49843 z"
       style="font-style:normal;font-variant:normal;font-weight:normal;font-stretch:normal;font-size:27.1196003px;line-height:0;font-family:'Simplon Norm';-inkscape-font-specification:'Simplon Norm';letter-spacing:2.22555208px"
       id="path915" />
    <path
       d="m 394.59425,230.85127 c 1.27462,0 2.73908,-0.56951 3.44419,-1.70853 v 1.43734 h 2.03397 v -18.98372 h -2.03397 v 6.31886 c -0.70511,-1.13902 -2.16957,-1.70853 -3.44419,-1.70853 -2.60348,0 -5.47816,1.35598 -5.47816,5.47816 v 3.68826 c 0,4.12218 2.87468,5.47816 5.47816,5.47816 z m -3.44419,-9.19354 c 0,-2.33229 1.62717,-3.49843 3.44419,-3.49843 1.81701,0 3.44419,1.16614 3.44419,3.49843 v 3.7425 c 0,2.33229 -1.62718,3.49843 -3.44419,3.49843 -1.81702,0 -3.44419,-1.16614 -3.44419,-3.49843 z"
       style="font-style:normal;font-variant:normal;font-weight:normal;font-stretch:normal;font-size:27.1196003px;line-height:0;font-family:'Simplon Norm';-inkscape-font-specification:'Simplon Norm';letter-spacing:2.22555208px"
       id="path917" />
  </g>
  <g
     aria-label="WeTest"
     transform="matrix(0.71256112,0,0,0.71256112,-154.04259,-181.31642)"
     style="font-style:normal;font-weight:normal;font-size:40px;line-height:1.25;font-family:sans-serif;letter-spacing:0px;word-spacing:0px;fill:#d9230f;fill-opacity:1;stroke:none"
     id="flowRoot1804">
    <path
       d="m 328.63263,324.17677 h 7.73334 l 6.88,-37.33333 h -7.2 l -4.32001,25.28 -4.42666,-19.94667 h -6.93334 l -4.42666,19.94667 -4.32,-25.28 h -7.2 l 6.88,37.33333 h 7.73333 l 4.8,-21.65333 z"
       style="font-style:normal;font-variant:normal;font-weight:bold;font-stretch:normal;font-family:'Simplon Norm';-inkscape-font-specification:'Simplon Norm Bold';letter-spacing:-3.12645626px;fill:#d9230f;fill-opacity:1"
       id="path858" />
    <path
       d="m 366.49118,312.81677 v -4.26666 c 0,-7.62667 -4.37334,-12.64 -12.26667,-12.64 -7.89333,0 -12.26667,5.01333 -12.26667,12.64 v 3.52 c 0,7.62666 4.37334,12.64 12.26667,12.64 6.72,0 10.88,-3.62667 12,-9.38667 h -7.14667 c -0.69333,1.86667 -2.4,3.04 -4.85333,3.04 -3.36,0 -5.22667,-2.13333 -5.22667,-5.38667 v -0.16 z m -12.26667,-10.56 c 3.14667,0 4.96,1.81334 5.17333,4.69334 v 0.0533 h -10.4 v -0.0533 c 0.26667,-2.82667 2.08,-4.69334 5.22667,-4.69334 z"
       style="font-style:normal;font-variant:normal;font-weight:bold;font-stretch:normal;font-family:'Simplon Norm';-inkscape-font-specification:'Simplon Norm Bold';letter-spacing:-3.12645626px;fill:#d9230f;fill-opacity:1"
       id="path860" />
    <path
       d="m 393.75806,293.93677 v -7.09333 h -28.16 v 7.09333 h 10.4 v 30.24 h 7.36 v -30.24 z"
       style="font-style:normal;font-variant:normal;font-weight:bold;font-stretch:normal;font-family:'Simplon Norm';-inkscape-font-specification:'Simplon Norm Bold';letter-spacing:-1.70432746px;fill:#000000;fill-opacity:1"
       id="path862" />
    <path
       d="m 416.24373,312.81677 v -4.26666 c 0,-7.62667 -4.37333,-12.64 -12.26666,-12.64 -7.89334,0 -12.26667,5.01333 -12.26667,12.64 v 3.52 c 0,7.62666 4.37333,12.64 12.26667,12.64 6.72,0 10.88,-3.62667 12,-9.38667 h -7.14667 c -0.69333,1.86667 -2.4,3.04 -4.85333,3.04 -3.36,0 -5.22667,-2.13333 -5.22667,-5.38667 v -0.16 z m -12.26666,-10.56 c 3.14666,0 4.96,1.81334 5.17333,4.69334 v 0.0533 h -10.4 v -0.0533 c 0.26667,-2.82667 2.08,-4.69334 5.22667,-4.69334 z"
       style="font-style:normal;font-variant:normal;font-weight:bold;font-stretch:normal;font-family:'Simplon Norm';-inkscape-font-specification:'Simplon Norm Bold';letter-spacing:-1.70432746px;fill:#000000;fill-opacity:1"
       id="path864" />
    <path
       d="m 430.05274,324.71011 c 5.76,0 10.72,-2.34667 10.72,-8.48 0,-5.70667 -3.68,-7.78667 -6.66667,-8.48 l -6.18666,-1.38667 c -1.17334,-0.26667 -2.13334,-0.85333 -2.13334,-2.02667 0.0533,-1.28 1.22667,-2.08 3.25334,-2.08 1.76,0 3.30666,0.8 3.68,2.56 h 7.2 c -0.48,-6.24 -5.06667,-8.90666 -10.66667,-8.90666 -5.65333,0 -10.50667,3.09333 -10.50667,8.48 0,5.38666 3.78667,7.73333 6.77334,8.42666 l 5.76,1.28 c 1.65333,0.37334 2.45333,1.01334 2.45333,2.13334 0,1.81333 -2.08,2.13333 -3.46667,2.13333 -2.29333,0 -4.8,-0.96 -5.12,-3.09333 h -7.04 c 0.26667,6.50666 6.24,9.44 11.94667,9.44 z"
       style="fill:#000000;fill-opacity:1"
       id="path866" />
    <path
       d="m 455.7894,317.83011 c -1.70666,0 -2.02666,-0.90667 -2.02666,-2.18667 v -12.64 h 6.77333 v -6.34667 h -6.77333 v -6.24 h -7.04 v 6.24 h -3.89334 v 6.34667 h 3.89334 v 14.13333 c 0,4.42667 2.13333,7.04 7.04,7.04 h 6.77333 v -6.34666 z"
       style="fill:#000000;fill-opacity:1"
       id="path868" />
  </g>
  <g
     id="g1831"
     transform="matrix(0.11297455,0,0,0.11297455,20.601742,18.340753)">
    <g
       transform="translate(-116.453,19.057377)"
       id="g19161"
       style="display:inline">
      <g
         transform="translate(114.11969,-46.432348)"
         id="layer2-6"
         style="display:inline">
        <path
           inkscape:connector-curvature="0"
           class="cls-1"
           d="M 303.09122,151.37497 A 150.38,150.38 0 0 0 163.27122,1.3749713 V 22.534971 c 66.36,5.39 118.71,61.11 118.71,128.839999 0,67.73 -52.35,123.45001 -118.71,128.84001 v 21.16 a 150.38,150.38 0 0 0 139.82,-150.00001 z"
           id="path19983-7"
           style="fill:#000000" />
        <path
           inkscape:connector-curvature="0"
           class="cls-1"
           d="m 23.451328,151.37497 c 0,-67.729999 52.349992,-123.449999 118.709892,-128.839999 V 1.3749713 a 150.37,150.37 0 0 0 0,300.0000087 v -21.16 C 75.80132,274.82498 23.451328,219.10497 23.451328,151.37497 Z"
           id="path19985-9"
           style="fill:#000000" />
        <path
           inkscape:connector-curvature="0"
           class="cls-1"
           d="m 101.27132,62.274971 a 102.9,102.9 0 0 0 -42.47,131.099999 l 18.42,-10.64 a 81.76,81.76 0 0 1 140.4299,-81.08 l 18.43,-10.629999 a 102.9,102.9 0 0 0 -134.8099,-28.75 z"
           id="path19987-2"
           style="fill:#000000" />
        <path
           inkscape:connector-curvature="0"
           class="cls-1"
           d="m 193.61122,222.20497 a 81.91,81.91 0 0 1 -105.8399,-21.15 l -18.43,10.63 a 102.9,102.9 0 0 0 177.2899,-102.31 l -18.42,10.6 a 81.9,81.9 0 0 1 -34.6,102.23 z"
           id="path19989-0"
           style="fill:#000000" />
        <path
           inkscape:connector-curvature="0"
           class="cls-1"
           d="m 180.41122,103.37497 a 55.41,55.41 0 0 0 -69.52,11.65 l 18.84,10.88 a 34.29,34.29 0 0 1 56.52,32.63 l 18.84,10.87 a 55.41,55.41 0 0 0 -24.68,-66.03 z"
           id="path19991-2"
           style="fill:#000000" />
        <path
           inkscape:connector-curvature="0"
           class="cls-1"
           d="m 135.57122,181.07497 a 34.35,34.35 0 0 1 -16.39,-36.88 l -18.8399,-10.82 a 55.4,55.4 0 0 0 94.1999,54.38 l -18.85,-10.88 a 34.33,34.33 0 0 1 -40.12,4.2 z"
           id="path19993-3"
           style="fill:#000000" />
      </g>
    </g>
    <g
       transform="translate(-116.453,19.057377)"
       style="display:none"
       id="layer2">
      <path
         inkscape:connector-curvature="0"
         class="cls-1"
         style="fill:#000000"
         id="path19953"
         d="m 398.76122,59.554971 v 79.379999 h -19.32 V 59.554971 h -27.3 v -18.62 h 73.92 v 18.62 z" />
      <path
         inkscape:connector-curvature="0"
         class="cls-1"
         style="fill:#000000"
         id="path19955"
         d="m 435.52122,138.93497 h -18.48 V 66.694971 h 18.48 v 7.84 c 2.1,-4.9 8.26,-9.1 16.8,-9.1 h 5.6 v 18.06 h -8.68 c -7,0 -13.72,4.34 -13.72,13.999999 z" />
      <path
         inkscape:connector-curvature="0"
         style="fill:#000000"
         id="path19957"
         d="m 506.20122,91.894971 c -1.26,-6.58 -5.74,-10.5 -13.44,-10.5 -6.58,0 -10.92,3.08 -12.74,8 h -18.62 c 2.94,-15.12 13.44,-24.64 31.36,-24.64 20.72,0 32.2,13.16 32.2,33.179999 v 41 h -18.48 v -8.26 c -3.36,5.46 -9,9.66 -20.16,9.66 -16.8,0 -26.32,-8 -26.32,-21.42 0,-10.64 3.64,-16.66 13.72,-21.56 7,-3.219999 21.56,-4.619999 32.48,-5.319999 z m -27.72,24.919999 c 0,3.5 2.66,7.28 10.92,7.28 9.52,0 17.08,-5.32 17.08,-14.42 v -2.38 c -10.64,0.7 -20.58,1.54 -24.08,3.36 -3.22,1.54 -3.92,2.94 -3.92,6.16 z"
         class="cls-1" />
      <path
         inkscape:connector-curvature="0"
         style="fill:#000000"
         id="path19959"
         d="m 595.93122,112.61497 c -2.1,17.22 -12.88,27.72 -31.92,27.72 -20.72,0 -32.2,-13.16 -32.2,-33.18 v -9.24 c 0,-19.999999 11.48,-33.179999 32.2,-33.179999 19,0 29.82,10.5 31.92,27.72 h -18.48 c -1.11,-6.72 -5.6,-11.08 -13.44,-11.08 -9,0 -13.72,5.6 -13.72,14.14 v 13.999999 c 0,8.54 4.76,14.14 13.72,14.14 7.84,0 12.46,-4.2 13.44,-11.06 z"
         class="cls-1" />
      <path
         inkscape:connector-curvature="0"
         style="fill:#000000"
         id="path19961"
         d="m 620.94122,91.894971 23.1,-25.2 h 22.4 l -26.18,28.42 30,43.819999 h -21.7 l -20.72,-30.24 -6.86,7.56 v 22.68 h -18.52 V 40.934971 h 18.48 z"
         class="cls-1" />
      <path
         inkscape:connector-curvature="0"
         style="fill:#000000"
         id="path19963"
         d="m 692.13122,57.314971 h -18.48 v -16.38 h 18.48 z m 0,81.619999 h -18.48 V 66.694971 h 18.48 z"
         class="cls-1" />
      <path
         inkscape:connector-curvature="0"
         style="fill:#000000"
         id="path19965"
         d="m 766.40122,138.93497 h -18.48 v -42.14 c 0,-9.659999 -6.72,-13.999999 -13.72,-13.999999 -7,0 -13.72,4.34 -13.72,13.999999 v 42.14 h -18.48 V 66.694971 h 18.48 v 6.3 c 3.36,-4.9 10.36,-8.26 16.94,-8.26 14.7,0 29,10.08 29,31.359999 z"
         class="cls-1" />
      <path
         inkscape:connector-curvature="0"
         style="fill:#000000"
         id="path19967"
         d="m 791.84122,139.37497 c 1.54,6.3 5.88,10.08 13.3,10.08 9,0 13.72,-5.6 13.72,-14.14 v -8.4 c -3.36,4.9 -10.36,8.26 -16.94,8.26 -14.7,0 -29,-10.08 -29,-31.36 v -7.7 c 0,-21.279999 14.28,-31.359999 29,-31.359999 6.58,0 13.58,3.36 16.94,8.26 v -6.3 h 18.48 v 66.219999 c 0,20 -11.48,33.18 -32.2,33.18 -18.62,0 -29.54,-10.08 -31.78,-26.74 z m -0.42,-36.26 c 0,9.66 6.72,14 13.72,14 7,0 13.72,-4.34 13.72,-14 v -6.3 c 0,-9.659999 -6.72,-13.999999 -13.72,-13.999999 -7,0 -13.72,4.34 -13.72,13.999999 z"
         class="cls-1" />
      <path
         inkscape:connector-curvature="0"
         style="fill:#000000"
         id="path19969"
         d="m 383.86122,200.46497 h 40.88 v 18.62 h -40.88 v 21.56001 h 40.88 v 18.62 h -59.64 v -98.00001 h 59.64 v 18.62 h -40.88 z"
         class="cls-1" />
      <path
         inkscape:connector-curvature="0"
         style="fill:#000000"
         id="path19971"
         d="m 480.00122,187.02497 h 21 l -23.38,35.14 24.5,37.10001 h -21.14 l -14.28,-22.12 -14.28,22.12 h -21.14 l 24.5,-37.10001 -23.38,-35.14 h 21 l 13.3,20.44 z"
         class="cls-1" />
      <path
         inkscape:connector-curvature="0"
         style="fill:#000000"
         id="path19973"
         d="m 527.85122,285.02498 h -18.51 v -98.00001 h 18.48 v 6.35 c 3.36,-4.9 10.36,-8.26 16.94,-8.26 14.7,0 29,10.08 29,31.36 v 12.88001 c 0,21.28 -14.28,31.36 -29,31.36 -6.58,0 -13.58,-3.36 -16.94,-8.26 z m 27.49,-67.90001 c 0,-9.66 -6.72,-14 -13.72,-14 -7,0 -13.72,4.34 -13.72,14 v 11.48001 c 0,9.66 6.72,14 13.72,14 7,0 13.72,-4.34 13.72,-14 z"
         class="cls-1" />
      <path
         inkscape:connector-curvature="0"
         style="fill:#000000"
         id="path19975"
         d="m 583.05122,218.24497 c 0,-20 11.48,-33.18 32.2,-33.18 20.72,0 32.2,13.16 32.2,33.18 v 9.24001 c 0,20 -11.48,33.18 -32.2,33.18 -20.72,0 -32.2,-13.16 -32.2,-33.18 z m 45.92,-2.38 c 0,-8.54 -4.76,-14.14 -13.72,-14.14 -8.96,0 -13.72,5.6 -13.72,14.14 v 14.00001 c 0,8.54 4.76,14.14 13.72,14.14 8.96,0 13.72,-5.6 13.72,-14.14 z"
         class="cls-1" />
      <path
         inkscape:connector-curvature="0"
         style="fill:#000000"
         id="path19977"
         d="m 654.98122,235.88498 h 18.48 c 0.7,5.6 7.56,8.12 13.44,8.12 3.64,0 9.1,-0.84 9.1,-5.6 0,-2.8 -2.1,-4.62 -6.44,-5.6 l -15.12,-3.36 c -7.84,-1.82 -17.78,-8.00001 -17.78,-22.12001 0,-14.12 12.74,-22.26 27.58,-22.26 14.56,0 26.88,7 28,23.38 h -18.9 c -1,-4.62 -5,-6.72 -9.66,-6.72 -5.46,0 -8.4,2.1 -8.54,5.46 -0.14,3.36 2.38,4.62 5.6,5.32 l 16.24,3.64 c 7.84,1.82 17.5,7.28 17.5,22.26001 0,16.24 -13.16,22.26 -28.14,22.26 -14.98,0 -30.66,-7.56 -31.36,-24.78 z"
         class="cls-1" />
      <path
         inkscape:connector-curvature="0"
         style="fill:#000000"
         id="path19979"
         d="m 740.74122,229.44498 v 0.42 c 0,8.54 4.76,14.14 13.72,14.14 6.58,0 10.92,-3.08 12.74,-8 h 18.76 c -2.94,15.12 -13.58,24.64 -31.5,24.64 -20.72,0 -32.2,-13.16 -32.2,-33.18 v -9.24001 c 0,-20 11.48,-33.18 32.2,-33.18 20.72,0 32.2,13.16 32.2,33.18 v 11.20001 z m 0,-15.40001 v 0.14 h 27.3 v -0.14 c -0.56,-7.7 -5.18,-12.32 -13.58,-12.32 -8.4,0 -13.02,4.9 -13.72,12.32 z"
         class="cls-1" />
      <path
         inkscape:connector-curvature="0"
         style="fill:#000000"
         id="path19981"
         d="m 841.54122,252.37498 c -3.36,4.9 -10.36,8.26 -16.94,8.26 -14.7,0 -29,-10.08 -29,-31.36 v -12.85001 c 0,-21.28 14.28,-31.36 29,-31.36 6.58,0 13.58,3.36 16.94,8.26 v -32.06 h 18.48 v 98.00001 h -18.48 z m -27.44,-23.8 c 0,9.66 6.72,14 13.72,14 7,0 13.72,-4.34 13.72,-14 v -11.45001 c 0,-9.66 -6.72,-14 -13.72,-14 -7,0 -13.72,4.34 -13.72,14 z"
         class="cls-1" />
      <path
         inkscape:connector-curvature="0"
         style="fill:#000000"
         id="path19983"
         d="M 303.09122,151.37497 A 150.38,150.38 0 0 0 163.27122,1.3749713 V 22.534971 c 66.36,5.39 118.71,61.11 118.71,128.839999 0,67.73 -52.35,123.45001 -118.71,128.84001 v 21.16 a 150.38,150.38 0 0 0 139.82,-150.00001 z"
         class="cls-1" />
      <path
         inkscape:connector-curvature="0"
         style="fill:#000000"
         id="path19985"
         d="m 23.451328,151.37497 c 0,-67.729999 52.349992,-123.449999 118.709892,-128.839999 V 1.3749713 a 150.37,150.37 0 0 0 0,300.0000087 v -21.16 C 75.80132,274.82498 23.451328,219.10497 23.451328,151.37497 Z"
         class="cls-1" />
      <path
         inkscape:connector-curvature="0"
         style="fill:#000000"
         id="path19987"
         d="m 101.27132,62.274971 a 102.9,102.9 0 0 0 -42.47,131.099999 l 18.42,-10.64 a 81.76,81.76 0 0 1 140.4299,-81.08 l 18.43,-10.629999 a 102.9,102.9 0 0 0 -134.8099,-28.75 z"
         class="cls-1" />
      <path
         inkscape:connector-curvature="0"
         style="fill:#000000"
         id="path19989"
         d="m 193.61122,222.20497 a 81.91,81.91 0 0 1 -105.8399,-21.15 l -18.43,10.63 a 102.9,102.9 0 0 0 177.2899,-102.31 l -18.42,10.6 a 81.9,81.9 0 0 1 -34.6,102.23 z"
         class="cls-1" />
      <path
         inkscape:connector-curvature="0"
         style="fill:#000000"
         id="path19991"
         d="m 180.41122,103.37497 a 55.41,55.41 0 0 0 -69.52,11.65 l 18.84,10.88 a 34.29,34.29 0 0 1 56.52,32.63 l 18.84,10.87 a 55.41,55.41 0 0 0 -24.68,-66.03 z"
         class="cls-1" />
      <path
         inkscape:connector-curvature="0"
         style="fill:#000000"
         id="path19993"
         d="m 135.57122,181.07497 a 34.35,34.35 0 0 1 -16.39,-36.88 l -18.8399,-10.82 a 55.4,55.4 0 0 0 94.1999,54.38 l -18.85,-10.88 a 34.33,34.33 0 0 1 -40.12,4.2 z"
         class="cls-1" />
    </g>
  </g>
</svg>
